#VRML V2.0 utf8
# 3D model generated by easyeda2kicad.py (https://github.com/uPesy/easyeda2kicad.py)

Shape{
    appearance Appearance {
        material  Material 	{
            diffuseColor 0.7529411764705882 0.7529411764705882 0.7529411764705882
            specularColor 0.3764705882352941 0.3764705882352941 0.3764705882352941
            ambientIntensity 0.2
            transparency 0
            shininess 0.5
        }
    }
    geometry IndexedFaceSet {
        ccw TRUE
        solid FALSE
        coord DEF co Coordinate {
            point [
                -1.0433 0.1624 -1.5748, -1.0433 0.1624 0.0, -1.0433 -0.1624 -1.5748, -1.0433 -0.1624 0.0, -2.1457 -0.1624 0.0, -2.1457 -0.1624 -1.5748, -1.2706 -0.1624 -1.9685, -1.9184 -0.1624 -1.9685, -2.1457 0.1624 -1.5748, -2.1457 0.1624 0.0, -1.2706 0.1624 -1.9685, -1.9184 0.1624 -1.9685, 2.1457 0.1624 -1.4961, 2.1457 0.1624 0.0, 2.1457 -0.1624 -1.4961, 2.1457 -0.1624 0.0, 1.0433 -0.1624 0.0, 1.0433 -0.1624 -1.4961, 1.8729 -0.1624 -1.9685, 1.3161 -0.1624 -1.9685, 1.0433 0.1624 -1.4961, 1.0433 0.1624 0.0, 1.8729 0.1624 -1.9685, 1.3161 0.1624 -1.9685, 1.3161 0.1624 -1.9685
            ]
        }
        coordIndex [
            0,1,2,-1,2,1,3,-1,3,4,2,-1,2,4,5,-1,2,5,6,-1,6,5,7,-1,5,4,8,-1,8,4,9,-1,10,11,0,-1,0,11,8,-1,0,8,1,-1,1,8,9,-1,11,10,7,-1,7,10,6,-1,9,4,1,-1,1,4,3,-1,8,11,5,-1,5,11,7,-1,2,6,0,-1,0,6,10,-1,12,13,14,-1,14,13,15,-1,15,16,14,-1,14,16,17,-1,14,17,18,-1,18,17,19,-1,17,16,20,-1,20,16,21,-1,22,23,12,-1,12,23,20,-1,12,20,13,-1,13,20,21,-1,18,19,22,-1,22,19,23,-1,21,16,13,-1,13,16,15,-1,14,18,12,-1,12,18,22,-1,20,23,17,-1,17,23,19,-1,
        ]
    }
}
Shape{
    appearance Appearance {
        material  Material 	{
            diffuseColor 0.2784313725490196 1.0 0.7607843137254902
            specularColor 0.1411764705882353 0.5019607843137255 0.3803921568627451
            ambientIntensity 0.2
            transparency 0
            shininess 0.5
        }
    }
    geometry IndexedFaceSet {
        ccw TRUE
        solid FALSE
        coord DEF co Coordinate {
            point [
                -0.2069 0.748 1.3068, -0.2058 0.748 1.3063, -0.2058 0.748 1.2942, -0.0437 0.748 1.6932, -0.0539 0.748 1.6945, -0.0008 0.748 1.6945, 1.1614 0.748 2.9921, 1.1614 0.748 2.5969, 0.1356 0.748 2.5969, -1.1614 0.748 1.5197, -1.1614 0.748 1.6945, -0.4979 0.748 1.6945, -2.1063 0.748 2.9921, -2.1063 0.748 3.4646, -1.364 0.748 3.4646, -0.1471 0.748 1.3478, -0.1412 0.748 1.3471, -0.1747 0.748 1.3471, 0.3778 0.748 1.7083, 0.3573 0.748 1.6945, 0.1356 0.748 1.6945, 0.3355 0.748 1.6798, 0.3044 0.748 1.6441, 0.2842 0.748 1.6049, 0.2778 0.748 1.6027, 0.2497 0.748 1.5883, 0.4254 0.748 1.7251, 0.5553 0.748 1.7065, 0.5116 0.748 1.7234, 0.4645 0.748 1.7292, 0.7875 0.748 1.5481, 1.1614 0.748 1.6945, 0.7933 0.748 1.5197, 1.1614 0.748 1.5197, 0.7952 0.748 1.5107, 0.5746 0.748 1.6945, 0.5784 0.748 1.6922, 0.7713 0.748 1.5816, 0.751 0.748 1.6068, 0.7418 0.748 1.6153, 0.7099 0.748 1.6364, 0.6744 0.748 1.6489, 0.6419 0.748 1.6523, 0.6007 0.748 1.6731, 0.631 0.748 1.6517, 0.6201 0.748 1.6504, 0.6799 0.748 1.3497, 0.6971 0.748 1.3551, 1.1614 0.748 1.3471, 0.7307 0.748 1.3731, 0.7558 0.748 1.3952, 0.7599 0.748 1.4, 0.7798 0.748 1.4307, 0.7922 0.748 1.4663, 0.7956 0.748 1.4986, 0.6377 0.748 1.2979, 0.6563 0.748 1.3119, 1.1614 0.748 1.2942, 0.6704 0.748 1.3293, 0.6787 0.748 1.3471, 0.1356 0.748 0.0, 0.5668 0.748 1.288, 0.5897 0.748 1.2851, 1.1614 0.748 0.0, 0.5935 0.748 1.2852, 0.6159 0.748 1.2887, 0.629 0.748 1.2942, 0.5008 0.748 1.3471, 0.5009 0.748 1.3469, 0.1356 0.748 1.2942, 0.5121 0.748 1.3257, 0.5268 0.748 1.3092, 0.5457 0.748 1.2961, 0.5504 0.748 1.2942, 0.5186 0.748 1.4436, 0.3914 0.748 1.51, 0.5351 0.748 1.4587, 0.5552 0.748 1.4695, 0.2243 0.748 1.5662, 0.2054 0.748 1.5389, 0.1356 0.748 1.5197, 0.198 0.748 1.5197, 0.1942 0.748 1.5098, 0.253 0.748 1.3674, 0.2822 0.748 1.3538, 0.1356 0.748 1.3471, 0.3117 0.748 1.3478, 0.2496 0.748 1.4878, 0.254 0.748 1.506, 0.2613 0.748 1.5197, 0.7335 0.748 1.5197, 0.3845 0.748 1.3546, 0.388 0.748 1.358, 0.3851 0.748 1.3993, 0.3792 0.748 1.4033, 0.362 0.748 1.4597, 0.3726 0.748 1.4058, 0.2076 0.748 1.4148, 0.2254 0.748 1.3905, 0.2281 0.748 1.3876, 0.3677 0.748 1.3478, 0.3718 0.748 1.3483, 0.3782 0.748 1.3505, 0.728 0.748 1.4628, 0.7166 0.748 1.4434, 0.6684 0.748 1.4337, 0.6996 0.748 1.4259, 0.6789 0.748 1.4132, 0.6333 0.748 1.4651, 0.6527 0.748 1.4516, 0.7359 0.748 1.5005, 0.7348 0.748 1.4861, 0.1903 0.748 1.4806, 0.1904 0.748 1.4756, 0.1952 0.748 1.4445, 0.3952 0.748 1.3772, 0.3951 0.748 1.3799, 0.4949 0.748 1.3895, 0.3934 0.748 1.3872, 0.39 0.748 1.3938, 0.6123 0.748 1.4731, 0.5897 0.748 1.4758, 0.5781 0.748 1.4752, 0.392 0.748 1.364, 0.3944 0.748 1.3705, 0.4954 0.748 1.3703, 0.4949 0.748 1.38, 0.3658 0.748 1.4066, 0.3649 0.748 1.4065, 0.3621 0.748 1.4059, 0.2684 0.748 1.4295, 0.2579 0.748 1.4443, 0.2514 0.748 1.4612, 0.2491 0.748 1.4796, 0.3601 0.748 1.4056, 0.3174 0.748 1.4056, 0.3005 0.748 1.4089, 0.2838 0.748 1.4166, 0.2697 0.748 1.428, 0.3344 0.748 1.5728, 0.3473 0.748 1.6042, 0.3673 0.748 1.631, 0.4038 0.748 1.658, 0.4337 0.748 1.6689, 0.3307 0.748 1.5537, 0.5907 0.748 1.5812, 0.5977 0.748 1.585, 0.619 0.748 1.5927, 0.5776 0.748 1.6089, 0.3231 0.748 1.5537, 0.2628 0.748 1.5224, 0.2738 0.748 1.5348, 0.2886 0.748 1.5451, 0.3051 0.748 1.5514, 0.3768 0.748 1.64, 0.4635 0.748 1.6723, 0.4683 0.748 1.6722, 0.4999 0.748 1.6674, 0.6741 0.748 1.5894, 0.6953 0.748 1.5782, 0.6507 0.748 1.5949, 0.7118 0.748 1.5635, 0.7249 0.748 1.5446, 0.5307 0.748 1.6545, 0.5569 0.748 1.6347, 0.641 0.748 1.5954, 0.733 0.748 1.5234, -0.3573 0.748 1.4663, -0.3604 0.748 1.3634, -0.373 0.748 1.5197, -0.373 0.748 1.3471, -0.3604 0.748 1.3482, -0.3308 0.748 1.3471, -0.3308 0.748 1.4236, -0.3535 0.748 1.4236, -0.3535 0.748 1.4083, -0.3308 0.748 1.3634, -0.3308 0.748 1.4083, -0.3058 0.748 1.4083, -0.3058 0.748 1.3634, -0.3308 0.748 1.4663, -0.3058 0.748 1.4663, -0.3058 0.748 1.4236, -0.3308 0.748 1.3482, -0.2886 0.748 1.3482, -0.2325 0.748 1.3471, -0.2706 0.748 1.4435, -0.2227 0.748 1.3719, -0.2247 0.748 1.364, -0.2252 0.748 1.364, -0.2058 0.748 1.5197, -0.2886 0.748 1.4817, -0.3308 0.748 1.5197, -0.3308 0.748 1.4817, -0.3573 0.748 1.4817, -0.2259 0.748 1.3673, -0.2272 0.748 1.3718, -0.2058 0.748 1.4203, -0.2532 0.748 1.4435, -0.0891 0.748 1.5197, -0.0891 0.748 1.3471, -0.106 0.748 1.3688, -0.106 0.748 1.3516, -0.112 0.748 1.3651, -0.1137 0.748 1.3644, -0.1137 0.748 1.3998, -0.1086 0.748 1.4288, -0.1115 0.748 1.4333, -0.1109 0.748 1.4027, -0.1089 0.748 1.4058, -0.1137 0.748 1.5197, -0.1136 0.748 1.3999, -0.107 0.748 1.4108, -0.1061 0.748 1.4178, -0.1067 0.748 1.4234, -0.1137 0.748 1.3488, -0.1137 0.748 1.3471, -0.1177 0.748 1.3474, -0.1211 0.748 1.3471, -0.1319 0.748 1.346, -0.1137 0.748 1.2942, -0.1658 0.748 1.4415, -0.1658 0.748 1.4252, -0.1648 0.748 1.3899, -0.1676 0.748 1.3858, -0.1678 0.748 1.3626, -0.1648 0.748 1.3582, -0.1137 0.748 1.4353, -0.1168 0.748 1.4381, -0.1209 0.748 1.4406, -0.1298 0.748 1.4441, -0.1432 0.748 1.4457, -0.1747 0.748 1.5197, -0.1549 0.748 1.4447, -0.1596 0.748 1.3535, -0.1558 0.748 1.3512, -0.1695 0.748 1.381, -0.1704 0.748 1.3741, -0.1697 0.748 1.3679, -0.1416 0.748 1.4321, -0.1366 0.748 1.4318, -0.1233 0.748 1.4193, -0.1322 0.748 1.4306, -0.1284 0.748 1.4286, -0.1235 0.748 1.4171, -0.1242 0.748 1.4145, -0.1254 0.748 1.4122, -0.127 0.748 1.4104, -0.1329 0.748 1.4068, -0.1533 0.748 1.4307, -0.1432 0.748 1.4023, -0.1627 0.748 1.427, -0.1497 0.748 1.3996, -0.1608 0.748 1.3935, -0.1259 0.748 1.4264, -0.1245 0.748 1.4242, -0.1236 0.748 1.422, -0.1225 0.748 1.361, -0.1314 0.748 1.3901, -0.1215 0.748 1.3947, -0.1335 0.748 1.3596, -0.1342 0.748 1.3596, -0.1424 0.748 1.3855, -0.1428 0.748 1.3606, -0.1532 0.748 1.3725, -0.1531 0.748 1.3746, -0.1471 0.748 1.3622, -0.1486 0.748 1.3631, -0.1506 0.748 1.3648, -0.152 0.748 1.3669, -0.1529 0.748 1.3693, -0.1523 0.748 1.3772, -0.151 0.748 1.3794, -0.1489 0.748 1.3816, -0.4219 0.748 1.5964, -0.373 0.748 1.5964, -0.4355 0.748 1.5599, -0.4546 0.748 1.5599, -0.4979 0.748 1.5197, -0.4037 0.748 1.6934, -0.3345 0.748 1.5599, -0.3535 0.748 1.5599, -0.3664 0.748 1.5964, -0.1747 0.748 1.6945, -0.1902 0.748 1.6934, -0.2058 0.748 1.6945, -0.1902 0.748 1.678, -0.1864 0.748 1.6353, -0.1864 0.748 1.62, -0.1932 0.748 1.5751, -0.1747 0.748 1.5751, -0.1747 0.748 1.62, -0.1387 0.748 1.62, -0.1387 0.748 1.5751, -0.1747 0.748 1.678, -0.1747 0.748 1.6353, -0.1387 0.748 1.678, -0.1387 0.748 1.6353, -0.1215 0.748 1.5599, -0.1747 0.748 1.5599, -0.1932 0.748 1.5599, -0.1137 0.748 1.6945, -0.1215 0.748 1.6934, -0.1747 0.748 1.6934, -0.4979 0.748 3.4646, -1.1614 0.748 2.9921, -1.364 0.748 2.9921, -0.5206 0.748 1.3482, -0.5016 0.748 1.3482, -0.4979 0.748 1.3471, -0.6027 0.748 1.3482, -0.589 0.748 1.3847, -0.5335 0.748 1.3847, -0.5524 0.748 1.4817, -0.5709 0.748 1.4817, -0.6217 0.748 1.3482, -1.1614 0.748 1.3471, -0.373 0.748 1.6945, -0.3853 0.748 1.6934, -0.373 0.748 1.6609, 2.1063 0.748 3.4646, 2.1063 0.748 2.9921, 0.1356 0.748 3.4646, -0.0891 0.748 1.5632, -0.0925 0.748 1.5643, -0.0947 0.748 1.5655, -0.0947 0.748 1.582, -0.0666 0.748 1.5733, -0.0817 0.748 1.5761, -0.0891 0.748 1.6746, -0.0891 0.748 1.5794, -0.0933 0.748 1.673, -0.0947 0.748 1.6722, -0.0195 0.748 1.5961, -0.026 0.748 1.5871, -0.0286 0.748 1.5845, -0.0373 0.748 1.5783, -0.0269 0.748 1.6653, -0.0197 0.748 1.6552, -0.036 0.748 1.6728, -0.0465 0.748 1.6776, -0.0797 0.748 1.6781, -0.0633 0.748 1.6801, -0.0131 0.748 1.6202, -0.0581 0.748 1.6799, -0.0129 0.748 1.6251, -0.0152 0.748 1.6437, -0.0468 0.748 1.5747, -0.0603 0.748 1.573, -0.0152 0.748 1.6069, -0.0773 0.748 1.6945, -0.0808 0.748 1.6942, -0.0891 0.748 1.6945, -0.0891 0.748 1.6918, -0.0947 0.748 1.6902, -0.0008 0.748 2.5969, -0.0631 0.748 1.6956, -0.0891 0.748 2.5969, -0.0634 0.748 1.6956, -0.0044 0.748 1.6633, -0.0141 0.748 1.676, -0.0173 0.748 1.679, -0.0298 0.748 1.6878, 0.0072 0.748 1.6945, 0.0019 0.748 1.6485, -0.0008 0.748 1.6548, -0.0008 0.748 1.5937, 0.003 0.748 1.6042, 0.0072 0.748 1.5197, 0.0052 0.748 1.6241, 0.0049 0.748 1.6311, -0.0353 0.748 1.561, -0.0227 0.748 1.567, -0.0008 0.748 1.5197, -0.012 0.748 1.5759, -0.0099 0.748 1.5782, -0.0022 0.748 1.5899, -0.0781 0.748 1.5596, -0.0578 0.748 1.5577, -0.0498 0.748 1.5581, -0.0135 0.748 1.3936, -0.0161 0.748 1.4206, -0.0102 0.748 1.3888, -0.0079 0.748 1.3829, -0.0008 0.748 1.3471, -0.0097 0.748 1.3604, -0.0076 0.748 1.366, -0.0531 0.748 1.4315, -0.0473 0.748 1.4321, -0.0384 0.748 1.4048, -0.0008 0.748 1.2942, -0.0275 0.748 1.3471, -0.0268 0.748 1.3472, -0.0204 0.748 1.3497, -0.0759 0.748 1.4353, -0.0794 0.748 1.43, -0.0186 0.748 1.3981, -0.0257 0.748 1.4017, -0.0277 0.748 1.4279, -0.0381 0.748 1.4313, -0.015 0.748 1.3535, -0.0132 0.748 1.3553, -0.0588 0.748 1.4448, -0.0659 0.748 1.4427, -0.0715 0.748 1.4396, -0.0666 0.748 1.363, -0.0662 0.748 1.363, -0.0666 0.748 1.3482, -0.0634 0.748 1.3588, -0.0581 0.748 1.3532, -0.0068 0.748 1.3737, -0.0068 0.748 1.3757, -0.0161 0.748 1.4368, -0.0194 0.748 1.4388, -0.0318 0.748 1.4436, -0.0489 0.748 1.4457, -0.082 0.748 1.4224, -0.0834 0.748 1.4096, -0.0834 0.748 1.3482, -0.0666 0.748 1.4088, -0.0661 0.748 1.4161, -0.0644 0.748 1.4221, -0.0624 0.748 1.4255, -0.0599 0.748 1.4282, -0.0569 0.748 1.4302, -0.046 0.748 1.3471, -0.0452 0.748 1.3468, -0.0891 0.748 1.2942, -0.037 0.748 1.346, -0.0363 0.748 1.346, -0.2058 0.748 1.3471, -0.2058 0.748 1.3755, -0.1791 0.748 1.4435, -0.1978 0.748 1.4435, -0.2165 0.748 1.3484, -0.2159 0.748 1.3471, -0.2091 0.748 1.3311, -0.1747 0.748 1.2942, -0.1825 0.748 1.3047, -0.1825 0.748 1.3196, -0.1859 0.748 1.3184, -0.192 0.748 1.3177, -0.1952 0.748 1.3179, -0.1989 0.748 1.3191, -0.202 0.748 1.321, -0.2003 0.748 1.3042, -0.1933 0.748 1.3033, -0.1896 0.748 1.3035, -0.2054 0.748 1.3245, -0.2058 0.748 1.3252, -0.2273 0.748 1.3338, -0.2271 0.748 1.3334, -0.3308 0.748 1.2942, -0.2191 0.748 1.3182, -0.213 0.748 1.3111, -0.2127 0.748 1.3109, -0.4906 0.748 1.3926, -0.484 0.748 1.3788, -0.4741 0.748 1.3669, -0.4603 0.748 1.357, -0.4451 0.748 1.351, -0.4223 0.748 1.3482, -0.3856 0.748 1.3482, -0.3856 0.748 1.4817, -0.4236 0.748 1.4817, -0.444 0.748 1.4794, -0.4601 0.748 1.4735, -0.4741 0.748 1.464, -0.4787 0.748 1.4595, -0.487 0.748 1.4479, -0.4919 0.748 1.4352, -0.4942 0.748 1.4167, -0.4938 0.748 1.4082, -0.373 0.748 1.2942, -0.4979 0.748 1.2942, -1.1614 0.748 1.2942, -0.2184 0.748 1.5599, -0.3267 0.748 1.6199, -0.3235 0.748 1.6043, -0.3169 0.748 1.5905, -0.307 0.748 1.5786, -0.3199 0.748 1.6596, -0.3248 0.748 1.6469, -0.3308 0.748 1.6945, -0.3271 0.748 1.6284, -0.2932 0.748 1.5687, -0.278 0.748 1.5627, -0.2551 0.748 1.5599, -0.2184 0.748 1.6934, -0.2565 0.748 1.6934, -0.2769 0.748 1.6911, -0.293 0.748 1.6852, -0.307 0.748 1.6757, -0.3116 0.748 1.6712, -0.1747 0.748 0.0, -0.2058 0.748 0.0, -0.3308 0.748 0.0, -0.373 0.748 0.0, -0.4979 0.748 0.0, -1.1614 0.748 0.0, -0.0891 0.748 0.0, -0.1137 0.748 0.0, -0.052 0.748 1.3492, -0.1137 0.748 2.5969, -0.1747 0.748 2.5969, -0.2058 0.748 2.5969, -0.3308 0.748 2.5969, -0.373 0.748 2.5969, -0.4979 0.748 2.5969, -1.1614 0.748 2.5969, 0.0072 0.748 1.2942, 0.0072 0.748 0.0, -0.0008 0.748 0.0, 0.0072 0.748 1.3471, 0.0123 0.748 1.4817, 0.0123 0.748 1.4663, 0.0092 0.748 1.3634, 0.0092 0.748 1.3482, 0.081 0.748 1.3482, 0.081 0.748 1.4817, 0.0638 0.748 1.4083, 0.0638 0.748 1.3634, 0.016 0.748 1.4083, 0.016 0.748 1.4236, 0.0638 0.748 1.4236, 0.0638 0.748 1.4663, 0.0638 0.748 1.6934, 0.0638 0.748 1.5751, 0.0106 0.748 1.5751, 0.081 0.748 1.5599, 0.081 0.748 1.6934, 0.0106 0.748 1.5599, 0.0072 0.748 2.5969, 0.0072 0.748 3.4646, -0.0008 0.748 3.4646, -0.0891 0.748 3.4646, -0.1137 0.748 3.4646, -0.1747 0.748 3.4646, -0.2058 0.748 3.4646, -0.3308 0.748 3.4646, -0.373 0.748 3.4646, 1.3778 -0.1652 3.0709, 1.3384 -0.2046 3.0709, 1.7033 -0.1652 3.0709, 1.7427 -0.2046 3.0709, 1.7033 0.1652 3.0709, 1.7427 0.2046 3.0709, 1.3778 0.1652 3.0709, 1.3384 0.2046 3.0709, -1.7033 -0.1652 3.0709, -1.7427 -0.2046 3.0709, -1.3778 -0.1652 3.0709, -1.3384 -0.2046 3.0709, -1.3778 0.1652 3.0709, -1.3384 0.2046 3.0709, -1.7033 0.1652 3.0709, -1.7427 0.2046 3.0709, 2.1457 -0.7087 3.4646, 2.1457 -0.7087 2.9921, 2.1457 0.7087 3.4646, 2.1457 -0.5118 2.9921, 2.1457 -0.2845 0.0, 2.1457 0.2845 0.0, 2.1457 -0.5118 0.3937, 2.1457 0.5118 0.3937, 2.1457 0.5118 2.9921, 2.1457 0.7087 2.9921, -2.1457 0.7087 3.4646, -2.1457 0.7087 2.9921, -2.1457 -0.7087 3.4646, -2.1457 0.5118 2.9921, -2.1457 0.2845 0.0, -2.1457 -0.2845 0.0, -2.1457 0.5118 0.3937, -2.1457 -0.5118 0.3937, -2.1457 -0.5118 2.9921, -2.1457 -0.7087 2.9921, 1.1614 0.6299 0.0, 1.9488 0.6299 0.0, 1.9488 0.2845 0.0, 1.1614 -0.748 0.0, -1.1614 -0.748 0.0, 1.1614 -0.6299 0.0, -1.1614 -0.6299 0.0, 1.9488 -0.2845 0.0, 1.9488 -0.6299 0.0, -1.9488 0.6299 0.0, -1.1614 0.6299 0.0, -1.9488 0.2845 0.0, -1.9488 -0.2845 0.0, -1.9488 -0.6299 0.0, 1.9488 0.6299 2.9921, 1.1614 0.6299 2.9921, -1.9488 0.6299 2.9921, -1.1614 0.6299 2.9921, 2.1063 -0.748 3.4646, -2.1063 -0.748 3.4646, -1.1614 -0.748 2.9921, -2.1063 -0.748 2.9921, 2.1063 -0.748 2.9921, 1.1614 -0.748 2.9921, -1.7427 0.2046 3.4646, -1.7427 -0.2046 3.4646, -2.1443 -0.7189 3.4646, 1.3384 -0.2046 3.4646, 1.3384 0.2046 3.4646, -1.3384 0.2046 3.4646, 2.126 -0.7428 3.4646, 2.1341 -0.7365 3.4646, 1.7427 -0.2046 3.4646, 2.1404 -0.7283 3.4646, -1.3384 -0.2046 3.4646, -2.1165 -0.7467 3.4646, -2.126 -0.7428 3.4646, 2.1165 -0.7467 3.4646, 2.1404 0.7283 3.4646, 2.1341 0.7365 3.4646, 1.7427 0.2046 3.4646, -2.1404 -0.7283 3.4646, -2.1341 -0.7365 3.4646, 2.1443 0.7189 3.4646, 2.126 0.7428 3.4646, 2.1165 0.7467 3.4646, -2.1165 0.7467 3.4646, -2.126 0.7428 3.4646, -2.1341 0.7365 3.4646, 2.1443 -0.7189 3.4646, -2.1404 0.7283 3.4646, -2.1443 0.7189 3.4646, 1.1614 -0.6299 2.9921, 1.9488 -0.6299 2.9921, 1.9488 -0.5118 2.9921, 2.1443 -0.7189 2.9921, 2.1404 -0.7283 2.9921, 2.1341 -0.7365 2.9921, 2.126 -0.7428 2.9921, 2.1165 -0.7467 2.9921, -1.1614 -0.6299 2.9921, -1.9488 -0.6299 2.9921, -1.9488 -0.5118 2.9921, -2.1165 -0.7467 2.9921, -2.126 -0.7428 2.9921, -2.1341 -0.7365 2.9921, -2.1404 -0.7283 2.9921, -2.1443 -0.7189 2.9921, 2.1165 0.7467 2.9921, 2.126 0.7428 2.9921, 2.1341 0.7365 2.9921, 2.1404 0.7283 2.9921, 1.9488 0.5118 2.9921, 2.1443 0.7189 2.9921, -1.9488 0.5118 2.9921, -2.1443 0.7189 2.9921, -2.1165 0.7467 2.9921, -2.126 0.7428 2.9921, -2.1404 0.7283 2.9921, -2.1341 0.7365 2.9921, -1.9488 -0.5118 0.3937, 1.9488 -0.5118 0.3937, -1.9488 0.5118 0.3937, 1.9488 0.5118 0.3937, 1.9488 0.5118 0.3937
            ]
        }
        coordIndex [
            0,1,2,-1,3,4,5,-1,6,7,8,-1,9,10,11,-1,12,13,14,-1,15,16,17,-1,18,19,20,-1,20,19,21,-1,20,21,22,-1,22,23,20,-1,20,23,24,-1,20,24,25,-1,26,18,8,-1,27,28,7,-1,7,28,8,-1,8,28,29,-1,8,29,26,-1,30,31,32,-1,32,31,33,-1,32,33,34,-1,27,7,35,-1,35,7,31,-1,35,31,36,-1,30,37,31,-1,31,37,38,-1,31,38,39,-1,39,40,31,-1,31,40,41,-1,31,41,36,-1,36,41,42,-1,36,42,43,-1,43,42,44,-1,43,44,45,-1,46,47,48,-1,47,49,48,-1,48,49,50,-1,48,50,51,-1,51,52,48,-1,48,52,53,-1,48,53,33,-1,33,53,54,-1,33,54,34,-1,55,56,57,-1,57,56,58,-1,57,58,48,-1,48,58,59,-1,48,59,46,-1,60,61,62,-1,60,62,63,-1,62,64,63,-1,63,64,65,-1,63,65,57,-1,57,65,66,-1,57,66,55,-1,67,68,69,-1,69,68,70,-1,70,71,69,-1,69,71,72,-1,69,72,73,-1,74,75,76,-1,76,75,77,-1,25,78,20,-1,20,78,79,-1,20,79,80,-1,80,79,81,-1,80,81,82,-1,83,84,85,-1,85,84,86,-1,87,88,75,-1,75,88,89,-1,75,89,90,-1,67,91,92,-1,93,94,95,-1,95,94,96,-1,97,98,85,-1,85,98,99,-1,85,99,83,-1,100,101,67,-1,67,101,102,-1,67,102,91,-1,103,104,105,-1,105,104,106,-1,105,106,107,-1,108,90,109,-1,109,90,110,-1,109,110,105,-1,105,110,111,-1,105,111,103,-1,82,112,80,-1,80,112,113,-1,80,113,85,-1,85,113,114,-1,85,114,97,-1,115,116,117,-1,117,116,118,-1,117,118,95,-1,95,118,119,-1,95,119,93,-1,108,120,90,-1,90,120,121,-1,90,121,75,-1,75,121,122,-1,75,122,77,-1,92,123,67,-1,67,123,124,-1,67,124,125,-1,125,124,115,-1,125,115,126,-1,126,115,117,-1,96,127,95,-1,95,127,128,-1,95,128,129,-1,130,131,95,-1,95,131,132,-1,95,132,75,-1,75,132,133,-1,75,133,87,-1,129,134,95,-1,95,134,135,-1,95,135,136,-1,136,137,95,-1,95,137,138,-1,95,138,130,-1,139,140,141,-1,142,143,144,-1,89,145,90,-1,90,145,146,-1,90,146,147,-1,148,145,144,-1,144,145,89,-1,144,89,149,-1,149,89,150,-1,150,151,149,-1,149,151,152,-1,149,152,153,-1,139,141,144,-1,144,141,154,-1,144,154,142,-1,143,155,144,-1,144,155,156,-1,144,156,157,-1,158,159,160,-1,160,159,161,-1,160,161,162,-1,157,163,144,-1,144,163,164,-1,144,164,148,-1,147,165,90,-1,90,165,160,-1,90,160,166,-1,166,160,162,-1,167,168,169,-1,169,168,170,-1,170,168,171,-1,170,171,172,-1,173,174,167,-1,167,174,168,-1,168,174,175,-1,168,175,176,-1,175,177,176,-1,176,177,178,-1,176,178,179,-1,167,180,173,-1,173,180,181,-1,173,181,182,-1,171,183,172,-1,172,183,184,-1,172,184,185,-1,185,184,186,-1,187,188,189,-1,190,191,192,-1,192,191,193,-1,192,193,169,-1,169,193,194,-1,169,194,167,-1,189,195,187,-1,187,195,196,-1,187,196,197,-1,197,196,198,-1,197,198,190,-1,190,198,186,-1,190,186,191,-1,191,186,184,-1,199,200,201,-1,201,200,202,-1,203,204,205,-1,206,207,199,-1,208,209,201,-1,199,207,210,-1,203,205,201,-1,201,205,211,-1,201,211,208,-1,209,212,201,-1,201,212,213,-1,201,213,199,-1,199,213,214,-1,199,214,206,-1,215,216,217,-1,217,216,218,-1,219,218,220,-1,220,218,216,-1,220,216,200,-1,200,216,215,-1,200,215,202,-1,221,222,17,-1,223,224,222,-1,225,226,17,-1,207,227,210,-1,210,227,228,-1,210,228,229,-1,229,230,210,-1,210,230,231,-1,210,231,232,-1,232,231,233,-1,232,233,221,-1,226,234,17,-1,17,234,235,-1,17,235,15,-1,224,236,222,-1,222,236,237,-1,222,237,17,-1,17,237,238,-1,17,238,225,-1,239,240,241,-1,241,240,242,-1,241,242,243,-1,241,244,239,-1,239,244,245,-1,239,245,246,-1,246,247,239,-1,239,247,248,-1,239,248,249,-1,249,248,250,-1,249,250,251,-1,251,250,252,-1,251,252,222,-1,222,252,253,-1,222,253,223,-1,254,255,243,-1,243,255,256,-1,243,256,241,-1,257,258,204,-1,204,258,259,-1,204,259,205,-1,257,260,258,-1,258,260,261,-1,258,261,262,-1,262,261,263,-1,262,264,265,-1,263,266,262,-1,262,266,267,-1,262,267,268,-1,268,269,262,-1,262,269,270,-1,262,270,264,-1,265,271,262,-1,262,271,272,-1,262,272,273,-1,274,275,276,-1,276,275,169,-1,276,169,277,-1,277,169,278,-1,277,278,279,-1,280,192,281,-1,281,192,169,-1,281,169,282,-1,282,169,275,-1,283,284,285,-1,285,284,286,-1,287,288,289,-1,289,288,290,-1,288,291,290,-1,290,291,292,-1,290,292,293,-1,286,294,295,-1,295,294,296,-1,295,296,297,-1,298,210,299,-1,299,210,232,-1,299,232,300,-1,300,232,190,-1,300,190,289,-1,301,302,283,-1,283,302,303,-1,283,303,284,-1,304,305,14,-1,14,305,306,-1,14,306,12,-1,307,308,309,-1,310,311,312,-1,309,308,278,-1,278,308,313,-1,278,313,314,-1,312,307,310,-1,310,307,309,-1,310,309,315,-1,315,309,316,-1,315,316,314,-1,314,316,9,-1,314,9,278,-1,278,9,11,-1,278,11,279,-1,279,11,317,-1,279,317,318,-1,318,317,319,-1,320,321,322,-1,322,321,6,-1,323,199,324,-1,324,199,210,-1,324,210,325,-1,325,210,326,-1,327,328,329,-1,329,328,330,-1,329,330,331,-1,331,330,326,-1,331,326,332,-1,332,326,210,-1,332,210,301,-1,301,210,298,-1,301,298,302,-1,333,334,329,-1,329,334,335,-1,329,335,336,-1,337,338,339,-1,339,338,340,-1,341,342,343,-1,343,342,344,-1,343,344,345,-1,345,344,340,-1,345,340,346,-1,346,340,338,-1,336,347,329,-1,329,347,348,-1,329,348,327,-1,341,343,329,-1,329,343,349,-1,329,349,333,-1,350,351,352,-1,352,351,353,-1,352,353,301,-1,301,353,354,-1,301,354,332,-1,355,356,357,-1,357,356,358,-1,357,358,350,-1,5,359,360,-1,360,361,5,-1,5,361,362,-1,5,362,3,-1,363,364,5,-1,5,364,365,-1,5,365,359,-1,366,367,368,-1,368,367,369,-1,368,369,363,-1,363,369,370,-1,363,370,364,-1,371,372,373,-1,372,374,373,-1,373,374,375,-1,373,375,376,-1,323,377,199,-1,199,377,378,-1,199,378,373,-1,373,378,379,-1,373,379,371,-1,380,381,382,-1,382,381,383,-1,384,385,386,-1,387,388,389,-1,390,391,384,-1,384,391,392,-1,384,392,393,-1,199,394,395,-1,380,396,381,-1,381,396,397,-1,381,397,398,-1,398,397,389,-1,398,389,399,-1,399,389,388,-1,393,400,384,-1,384,400,401,-1,384,401,385,-1,402,403,199,-1,199,403,404,-1,199,404,394,-1,405,406,407,-1,407,406,408,-1,407,408,409,-1,386,410,384,-1,384,410,411,-1,384,411,373,-1,373,411,383,-1,373,383,412,-1,412,383,381,-1,412,413,373,-1,373,413,414,-1,373,414,199,-1,199,414,415,-1,199,415,402,-1,395,416,199,-1,199,416,417,-1,199,417,200,-1,200,417,418,-1,200,418,407,-1,419,420,389,-1,389,420,421,-1,389,421,422,-1,422,423,389,-1,389,423,424,-1,389,424,387,-1,425,426,427,-1,426,428,390,-1,390,428,429,-1,390,429,391,-1,430,431,17,-1,17,431,432,-1,221,17,232,-1,232,17,432,-1,232,432,190,-1,190,432,433,-1,190,433,197,-1,434,431,435,-1,435,431,430,-1,435,430,436,-1,437,438,439,-1,219,220,16,-1,16,220,437,-1,16,437,17,-1,17,437,439,-1,17,439,430,-1,430,439,440,-1,430,440,441,-1,441,442,430,-1,430,442,443,-1,430,443,444,-1,1,445,2,-1,2,445,446,-1,2,446,437,-1,437,446,447,-1,437,447,438,-1,444,448,430,-1,430,448,449,-1,430,449,436,-1,450,451,452,-1,450,452,185,-1,451,453,452,-1,452,453,454,-1,452,454,2,-1,2,454,455,-1,2,455,0,-1,456,457,309,-1,309,457,458,-1,309,458,459,-1,459,460,309,-1,309,460,461,-1,309,461,170,-1,170,461,462,-1,170,462,169,-1,462,463,169,-1,169,463,464,-1,169,464,278,-1,278,464,465,-1,278,465,466,-1,466,467,278,-1,278,467,468,-1,278,468,469,-1,469,470,278,-1,278,470,471,-1,278,471,309,-1,309,471,472,-1,309,472,456,-1,185,452,172,-1,172,452,473,-1,172,473,170,-1,170,473,474,-1,170,474,309,-1,309,474,475,-1,309,475,316,-1,295,287,286,-1,286,287,289,-1,286,289,285,-1,285,289,190,-1,285,190,476,-1,477,478,192,-1,192,478,479,-1,192,479,480,-1,481,482,483,-1,483,482,484,-1,480,485,192,-1,192,485,486,-1,192,486,190,-1,190,486,487,-1,190,487,476,-1,476,488,285,-1,285,488,489,-1,285,489,483,-1,483,489,490,-1,483,490,491,-1,491,492,483,-1,483,492,493,-1,483,493,481,-1,319,317,280,-1,280,317,483,-1,280,483,192,-1,192,483,484,-1,192,484,477,-1,220,494,437,-1,437,494,495,-1,437,495,2,-1,2,495,496,-1,2,496,452,-1,452,496,497,-1,452,497,473,-1,473,497,498,-1,473,498,474,-1,474,498,499,-1,474,499,475,-1,426,390,427,-1,427,390,500,-1,427,500,501,-1,409,502,407,-1,407,502,425,-1,407,425,200,-1,200,425,427,-1,200,427,220,-1,220,427,501,-1,220,501,494,-1,350,352,357,-1,357,352,301,-1,357,301,503,-1,503,301,283,-1,503,283,504,-1,504,283,285,-1,504,285,505,-1,505,285,483,-1,505,483,506,-1,506,483,317,-1,506,317,507,-1,507,317,11,-1,507,11,508,-1,508,11,10,-1,508,10,509,-1,510,511,512,-1,376,366,373,-1,373,366,368,-1,373,368,384,-1,384,368,513,-1,384,513,390,-1,511,69,60,-1,60,69,73,-1,60,73,61,-1,511,510,69,-1,69,510,85,-1,69,85,67,-1,67,85,86,-1,67,86,100,-1,514,515,368,-1,368,515,516,-1,368,516,513,-1,513,516,517,-1,513,517,518,-1,514,368,519,-1,519,368,80,-1,519,80,518,-1,518,80,85,-1,518,85,513,-1,513,85,510,-1,513,510,390,-1,390,510,512,-1,390,512,500,-1,520,521,522,-1,522,521,516,-1,522,516,523,-1,523,516,515,-1,523,515,524,-1,524,515,525,-1,526,527,528,-1,529,530,20,-1,20,530,526,-1,20,526,363,-1,363,526,528,-1,363,528,368,-1,368,528,531,-1,368,531,80,-1,80,531,529,-1,80,529,20,-1,18,20,8,-1,8,20,363,-1,8,363,532,-1,532,363,5,-1,532,5,355,-1,355,5,4,-1,355,4,356,-1,6,8,322,-1,322,8,532,-1,322,532,533,-1,533,532,355,-1,533,355,534,-1,534,355,357,-1,534,357,535,-1,535,357,503,-1,535,503,536,-1,536,503,504,-1,536,504,537,-1,537,504,505,-1,537,505,538,-1,538,505,506,-1,538,506,539,-1,539,506,507,-1,539,507,540,-1,540,507,508,-1,540,508,304,-1,304,508,509,-1,304,509,305,-1,541,542,543,-1,543,542,544,-1,543,544,545,-1,545,544,546,-1,545,546,547,-1,547,546,548,-1,547,548,541,-1,541,548,542,-1,549,550,551,-1,551,550,552,-1,551,552,553,-1,553,552,554,-1,553,554,555,-1,555,554,556,-1,555,556,549,-1,549,556,550,-1,557,558,559,-1,559,558,560,-1,561,562,563,-1,563,562,564,-1,563,564,560,-1,560,564,565,-1,560,565,559,-1,559,565,566,-1,567,568,569,-1,569,568,570,-1,571,572,573,-1,573,572,574,-1,573,574,570,-1,570,574,575,-1,570,575,569,-1,569,575,576,-1,577,578,579,-1,580,581,582,-1,582,581,583,-1,562,561,579,-1,579,561,584,-1,579,584,577,-1,577,584,585,-1,577,585,582,-1,586,587,588,-1,588,587,589,-1,588,589,571,-1,571,589,572,-1,590,589,583,-1,583,589,587,-1,583,587,582,-1,582,587,499,-1,582,499,577,-1,577,499,63,-1,578,577,591,-1,591,577,592,-1,593,594,586,-1,586,594,587,-1,595,596,597,-1,597,596,598,-1,599,595,600,-1,600,595,597,-1,600,597,580,-1,580,597,581,-1,601,567,602,-1,602,567,569,-1,602,569,603,-1,604,605,606,-1,607,608,609,-1,609,608,610,-1,595,611,596,-1,596,611,602,-1,596,602,612,-1,612,602,613,-1,606,611,604,-1,604,611,595,-1,604,595,609,-1,609,595,614,-1,609,614,607,-1,615,616,617,-1,603,618,602,-1,602,618,619,-1,602,619,613,-1,615,617,620,-1,616,621,617,-1,617,621,622,-1,617,622,605,-1,605,622,320,-1,605,320,606,-1,606,320,13,-1,606,13,601,-1,13,623,601,-1,601,623,624,-1,601,624,625,-1,610,626,609,-1,609,626,557,-1,609,557,617,-1,617,557,559,-1,617,559,620,-1,625,627,601,-1,601,627,628,-1,601,628,567,-1,600,629,599,-1,599,629,630,-1,631,560,630,-1,630,560,558,-1,558,632,630,-1,630,632,633,-1,630,633,634,-1,634,635,630,-1,630,635,636,-1,630,636,599,-1,582,629,580,-1,580,629,600,-1,629,582,630,-1,630,582,585,-1,637,597,638,-1,638,597,598,-1,575,639,576,-1,576,639,638,-1,598,640,638,-1,638,640,641,-1,638,641,642,-1,642,643,638,-1,638,643,644,-1,638,644,576,-1,637,583,597,-1,597,583,581,-1,583,637,590,-1,590,637,638,-1,592,6,591,-1,591,6,321,-1,591,321,645,-1,645,646,591,-1,591,646,647,-1,591,647,648,-1,565,649,566,-1,566,649,591,-1,566,591,650,-1,650,591,648,-1,592,577,6,-1,6,577,63,-1,587,594,499,-1,499,594,305,-1,651,570,593,-1,593,570,568,-1,593,568,652,-1,305,594,12,-1,12,594,593,-1,12,593,653,-1,653,593,654,-1,652,655,593,-1,593,655,656,-1,593,656,654,-1,589,590,657,-1,657,590,638,-1,657,638,639,-1,657,639,574,-1,574,639,575,-1,631,630,658,-1,658,630,585,-1,658,585,584,-1,563,560,658,-1,658,560,631,-1,651,593,659,-1,659,593,586,-1,659,586,588,-1,573,570,659,-1,659,570,651,-1,579,578,660,-1,660,578,591,-1,660,591,649,-1,660,649,564,-1,564,649,565,-1,561,563,584,-1,584,563,658,-1,564,562,660,-1,660,562,579,-1,659,588,573,-1,573,588,571,-1,589,657,572,-1,572,657,574,-1,546,544,617,-1,617,544,609,-1,544,542,609,-1,609,542,604,-1,542,548,604,-1,604,548,605,-1,548,546,605,-1,605,546,617,-1,554,552,606,-1,606,552,611,-1,552,550,611,-1,611,550,602,-1,550,556,602,-1,602,556,601,-1,556,554,601,-1,601,554,606,-1,
        ]
    }
}
Shape{
    appearance Appearance {
        material  Material 	{
            diffuseColor 0.7529411764705882 0.7529411764705882 0.7529411764705882
            specularColor 0.3764705882352941 0.3764705882352941 0.3764705882352941
            ambientIntensity 0.2
            transparency 0
            shininess 0.5
        }
    }
    geometry IndexedFaceSet {
        ccw TRUE
        solid FALSE
        coord DEF co Coordinate {
            point [
                -1.7033 0.1652 3.3465, -1.7033 0.1652 3.0709, -1.7033 -0.1652 3.3465, -1.7033 -0.1652 3.0709, -1.3778 -0.1652 3.3465, -1.3778 -0.1652 3.0709, -1.3778 0.1652 3.3465, -1.3778 0.1652 3.0709, -1.6578 0.1198 3.4252, -1.6578 -0.1198 3.4252, -1.4233 0.1198 3.4252, -1.4233 -0.1198 3.4252, 1.7033 0.1652 3.3465, 1.7033 0.1652 3.0709, 1.3778 0.1652 3.3465, 1.3778 0.1652 3.0709, 1.3778 -0.1652 3.3465, 1.3778 -0.1652 3.0709, 1.7033 -0.1652 3.3465, 1.7033 -0.1652 3.0709, 1.6578 0.1198 3.4252, 1.4233 0.1198 3.4252, 1.6578 -0.1198 3.4252, 1.4233 -0.1198 3.4252, 1.4233 -0.1198 3.4252
            ]
        }
        coordIndex [
            0,1,2,-1,2,1,3,-1,2,3,4,-1,4,3,5,-1,4,5,6,-1,6,5,7,-1,6,7,0,-1,0,7,1,-1,8,9,10,-1,10,9,11,-1,12,13,14,-1,14,13,15,-1,14,15,16,-1,16,15,17,-1,16,17,18,-1,18,17,19,-1,18,19,12,-1,12,19,13,-1,20,21,22,-1,22,21,23,-1,16,23,14,-1,14,23,21,-1,18,22,16,-1,16,22,23,-1,20,12,21,-1,21,12,14,-1,12,20,18,-1,18,20,22,-1,4,11,2,-1,2,11,9,-1,6,10,4,-1,4,10,11,-1,8,0,9,-1,9,0,2,-1,0,8,6,-1,6,8,10,-1,
        ]
    }
}
Shape{
    appearance Appearance {
        material  Material 	{
            diffuseColor 0.2784313725490196 1.0 0.7607843137254902
            specularColor 0.1411764705882353 0.5019607843137255 0.3803921568627451
            ambientIntensity 0.2
            transparency 0
            shininess 0.5
        }
    }
    geometry IndexedFaceSet {
        ccw TRUE
        solid FALSE
        coord DEF co Coordinate {
            point [
                2.1457 0.7087 3.4646, 2.1457 0.7087 2.9921, 2.1443 0.7189 2.9921, 2.1443 0.7189 3.4646, 2.1404 0.7283 2.9921, 2.1404 0.7283 3.4646, 2.1341 0.7365 2.9921, 2.1341 0.7365 3.4646, 2.126 0.7428 2.9921, 2.126 0.7428 3.4646, 2.1165 0.7467 2.9921, 2.1165 0.7467 3.4646, 2.1063 0.748 2.9921, 2.1063 0.748 3.4646, 2.1063 -0.748 3.4646, 2.1063 -0.748 2.9921, 2.1165 -0.7467 2.9921, 2.1165 -0.7467 3.4646, 2.126 -0.7428 2.9921, 2.126 -0.7428 3.4646, 2.1341 -0.7365 2.9921, 2.1341 -0.7365 3.4646, 2.1404 -0.7283 2.9921, 2.1404 -0.7283 3.4646, 2.1443 -0.7189 2.9921, 2.1443 -0.7189 3.4646, 2.1457 -0.7087 2.9921, 2.1457 -0.7087 3.4646, -2.1457 -0.7087 3.4646, -2.1457 -0.7087 2.9921, -2.1443 -0.7189 2.9921, -2.1443 -0.7189 3.4646, -2.1404 -0.7283 2.9921, -2.1404 -0.7283 3.4646, -2.1341 -0.7365 2.9921, -2.1341 -0.7365 3.4646, -2.126 -0.7428 2.9921, -2.126 -0.7428 3.4646, -2.1165 -0.7467 2.9921, -2.1165 -0.7467 3.4646, -2.1063 -0.748 2.9921, -2.1063 -0.748 3.4646, -2.1063 0.748 3.4646, -2.1063 0.748 2.9921, -2.1165 0.7467 2.9921, -2.1165 0.7467 3.4646, -2.126 0.7428 2.9921, -2.126 0.7428 3.4646, -2.1341 0.7365 2.9921, -2.1341 0.7365 3.4646, -2.1404 0.7283 2.9921, -2.1404 0.7283 3.4646, -2.1443 0.7189 2.9921, -2.1443 0.7189 3.4646, -2.1457 0.7087 2.9921, -2.1457 0.7087 3.4646, -2.1457 0.7087 3.4646
            ]
        }
        coordIndex [
            0,1,2,-1,0,2,3,-1,3,2,4,-1,3,4,5,-1,5,4,6,-1,5,6,7,-1,7,6,8,-1,7,8,9,-1,9,8,10,-1,9,10,11,-1,11,10,12,-1,11,12,13,-1,14,15,16,-1,14,16,17,-1,17,16,18,-1,17,18,19,-1,19,18,20,-1,19,20,21,-1,21,20,22,-1,21,22,23,-1,23,22,24,-1,23,24,25,-1,25,24,26,-1,25,26,27,-1,28,29,30,-1,28,30,31,-1,31,30,32,-1,31,32,33,-1,33,32,34,-1,33,34,35,-1,35,34,36,-1,35,36,37,-1,37,36,38,-1,37,38,39,-1,39,38,40,-1,39,40,41,-1,42,43,44,-1,42,44,45,-1,45,44,46,-1,45,46,47,-1,47,46,48,-1,47,48,49,-1,49,48,50,-1,49,50,51,-1,51,50,52,-1,51,52,53,-1,53,52,54,-1,53,54,55,-1,
        ]
    }
}
Shape{
    appearance Appearance {
        material  Material 	{
            diffuseColor 0.0 0.0 0.0
            specularColor 0.0 0.0 0.0
            ambientIntensity 0.2
            transparency 0
            shininess 0.5
        }
    }
    geometry IndexedFaceSet {
        ccw TRUE
        solid FALSE
        coord DEF co Coordinate {
            point [
                0.0106 0.7484 1.5751, 0.0106 0.7484 1.5599, 0.0106 0.748 1.5751, 0.0106 0.748 1.5599, 0.0638 0.7484 1.5751, 0.0638 0.748 1.5751, 0.0638 0.7484 1.6934, 0.0638 0.748 1.6934, 0.081 0.7484 1.6934, 0.081 0.748 1.6934, 0.081 0.7484 1.5599, 0.081 0.748 1.5599, -0.0947 0.748 1.5655, -0.0947 0.7484 1.5655, -0.0925 0.7484 1.5643, -0.0578 0.7484 1.5577, -0.0578 0.748 1.5577, -0.0781 0.748 1.5596, -0.0781 0.7484 1.5596, -0.0891 0.748 1.5632, -0.0925 0.748 1.5643, -0.0947 0.7484 1.582, -0.0947 0.748 1.582, -0.0891 0.748 1.5794, -0.0817 0.7484 1.5761, -0.0817 0.748 1.5761, -0.0666 0.748 1.5733, -0.0666 0.7484 1.5733, -0.0603 0.748 1.573, -0.0603 0.7484 1.573, -0.0468 0.748 1.5747, -0.0468 0.7484 1.5747, -0.0373 0.748 1.5783, -0.0373 0.7484 1.5783, -0.0286 0.748 1.5845, -0.0286 0.7484 1.5845, -0.026 0.748 1.5871, -0.026 0.7484 1.5871, -0.0195 0.748 1.5961, -0.0195 0.7484 1.5961, -0.0152 0.748 1.6069, -0.0152 0.7484 1.6069, -0.0131 0.748 1.6202, -0.0131 0.7484 1.6202, -0.0129 0.748 1.6251, -0.0129 0.7484 1.6251, -0.0152 0.748 1.6437, -0.0152 0.7484 1.6437, -0.0197 0.748 1.6552, -0.0197 0.7484 1.6552, -0.0269 0.748 1.6653, -0.0269 0.7484 1.6653, -0.036 0.748 1.6728, -0.036 0.7484 1.6728, -0.0465 0.748 1.6776, -0.0465 0.7484 1.6776, -0.0581 0.748 1.6799, -0.0581 0.7484 1.6799, -0.0633 0.748 1.6801, -0.0633 0.7484 1.6801, -0.0947 0.748 1.6722, -0.0947 0.7484 1.6722, -0.0933 0.7484 1.673, -0.0797 0.748 1.6781, -0.0797 0.7484 1.6781, -0.0891 0.748 1.6746, -0.0933 0.748 1.673, -0.0947 0.7484 1.6902, -0.0947 0.748 1.6902, -0.0631 0.748 1.6956, -0.0631 0.7484 1.6956, -0.0634 0.7484 1.6956, -0.0891 0.748 1.6918, -0.0808 0.7484 1.6942, -0.0808 0.748 1.6942, -0.0773 0.748 1.6945, -0.0634 0.748 1.6956, -0.0539 0.748 1.6945, -0.0437 0.7484 1.6932, -0.0437 0.748 1.6932, -0.0298 0.748 1.6878, -0.0298 0.7484 1.6878, -0.0173 0.748 1.679, -0.0173 0.7484 1.679, -0.0141 0.748 1.676, -0.0141 0.7484 1.676, -0.0044 0.748 1.6633, -0.0044 0.7484 1.6633, -0.0008 0.748 1.6548, 0.0019 0.7484 1.6485, 0.0019 0.748 1.6485, 0.0049 0.748 1.6311, 0.0049 0.7484 1.6311, 0.0052 0.748 1.6241, 0.0052 0.7484 1.6241, 0.003 0.748 1.6042, 0.003 0.7484 1.6042, -0.0008 0.748 1.5937, -0.0022 0.7484 1.5899, -0.0022 0.748 1.5899, -0.0099 0.748 1.5782, -0.0099 0.7484 1.5782, -0.012 0.748 1.5759, -0.012 0.7484 1.5759, -0.0227 0.748 1.567, -0.0227 0.7484 1.567, -0.0353 0.748 1.561, -0.0353 0.7484 1.561, -0.0498 0.748 1.5581, -0.0498 0.7484 1.5581, -0.1932 0.7484 1.5751, -0.1932 0.7484 1.5599, -0.1932 0.748 1.5751, -0.1932 0.748 1.5599, -0.1387 0.748 1.5751, -0.1387 0.7484 1.5751, -0.1747 0.748 1.5751, -0.1387 0.7484 1.62, -0.1387 0.748 1.62, -0.1864 0.748 1.62, -0.1864 0.7484 1.62, -0.1747 0.748 1.62, -0.1864 0.7484 1.6353, -0.1864 0.748 1.6353, -0.1387 0.748 1.6353, -0.1387 0.7484 1.6353, -0.1747 0.748 1.6353, -0.1387 0.7484 1.678, -0.1387 0.748 1.678, -0.1902 0.748 1.678, -0.1902 0.7484 1.678, -0.1747 0.748 1.678, -0.1902 0.7484 1.6934, -0.1902 0.748 1.6934, -0.1215 0.748 1.6934, -0.1215 0.7484 1.6934, -0.1747 0.748 1.6934, -0.1215 0.7484 1.5599, -0.1215 0.748 1.5599, -0.1747 0.748 1.5599, -0.3014 0.7484 1.5973, -0.2947 0.7484 1.5891, -0.307 0.7484 1.5786, -0.2923 0.7484 1.5868, -0.2932 0.7484 1.5687, -0.2834 0.7484 1.581, -0.278 0.7484 1.5627, -0.272 0.7484 1.577, -0.2551 0.7484 1.5599, -0.255 0.7484 1.5751, -0.2184 0.7484 1.5599, -0.2357 0.7484 1.5751, -0.2184 0.7484 1.6934, -0.2357 0.7484 1.678, -0.2565 0.7484 1.6934, -0.2558 0.7484 1.678, -0.2769 0.7484 1.6911, -0.273 0.7484 1.6761, -0.293 0.7484 1.6852, -0.2846 0.7484 1.672, -0.307 0.7484 1.6757, -0.2943 0.7484 1.6655, -0.3116 0.7484 1.6712, -0.2987 0.7484 1.661, -0.3199 0.7484 1.6596, -0.3037 0.7484 1.6534, -0.3248 0.7484 1.6469, -0.3073 0.7484 1.6433, -0.3271 0.7484 1.6284, -0.309 0.7484 1.6279, -0.3267 0.7484 1.6199, -0.3085 0.7484 1.6194, -0.3235 0.7484 1.6043, -0.306 0.7484 1.6072, -0.3169 0.7484 1.5905, -0.2551 0.748 1.5599, -0.2184 0.748 1.5599, -0.278 0.748 1.5627, -0.2932 0.748 1.5687, -0.307 0.748 1.5786, -0.3169 0.748 1.5905, -0.3235 0.748 1.6043, -0.3267 0.748 1.6199, -0.3271 0.748 1.6284, -0.3248 0.748 1.6469, -0.3199 0.748 1.6596, -0.3116 0.748 1.6712, -0.307 0.748 1.6757, -0.293 0.748 1.6852, -0.2769 0.748 1.6911, -0.2565 0.748 1.6934, -0.2184 0.748 1.6934, -0.2558 0.748 1.678, -0.2357 0.748 1.678, -0.2357 0.748 1.5751, -0.255 0.748 1.5751, -0.2947 0.748 1.5891, -0.2923 0.748 1.5868, -0.2834 0.748 1.581, -0.272 0.748 1.577, -0.309 0.748 1.6279, -0.3085 0.748 1.6194, -0.306 0.748 1.6072, -0.3014 0.748 1.5973, -0.2943 0.748 1.6655, -0.2987 0.748 1.661, -0.3037 0.748 1.6534, -0.3073 0.748 1.6433, -0.273 0.748 1.6761, -0.2846 0.748 1.672, -0.2846 0.748 1.672
            ]
        }
        coordIndex [
            0,1,2,-1,2,1,3,-1,4,0,5,-1,5,0,2,-1,6,4,7,-1,7,4,5,-1,8,6,9,-1,9,6,7,-1,10,8,11,-1,11,8,9,-1,1,10,3,-1,3,10,11,-1,6,8,4,-1,4,8,10,-1,4,10,0,-1,0,10,1,-1,12,13,14,-1,15,16,17,-1,15,17,18,-1,18,17,19,-1,18,19,14,-1,14,19,20,-1,14,20,12,-1,21,13,22,-1,22,13,12,-1,21,22,23,-1,21,23,24,-1,23,25,24,-1,24,25,26,-1,24,26,27,-1,27,26,28,-1,27,28,29,-1,29,28,30,-1,29,30,31,-1,31,30,32,-1,31,32,33,-1,33,32,34,-1,33,34,35,-1,35,34,36,-1,35,36,37,-1,37,36,38,-1,37,38,39,-1,39,38,40,-1,39,40,41,-1,41,40,42,-1,41,42,43,-1,43,42,44,-1,43,44,45,-1,45,44,46,-1,45,46,47,-1,47,46,48,-1,47,48,49,-1,49,48,50,-1,49,50,51,-1,51,50,52,-1,51,52,53,-1,53,52,54,-1,53,54,55,-1,55,54,56,-1,55,56,57,-1,57,56,58,-1,57,58,59,-1,60,61,62,-1,59,58,63,-1,59,63,64,-1,64,63,65,-1,64,65,62,-1,62,65,66,-1,62,66,60,-1,67,61,68,-1,68,61,60,-1,69,70,71,-1,67,68,72,-1,67,72,73,-1,72,74,73,-1,73,74,75,-1,73,75,71,-1,71,75,76,-1,71,76,69,-1,70,69,77,-1,70,77,78,-1,77,79,78,-1,78,79,80,-1,78,80,81,-1,81,80,82,-1,81,82,83,-1,83,82,84,-1,83,84,85,-1,85,84,86,-1,85,86,87,-1,87,86,88,-1,87,88,89,-1,88,90,89,-1,89,90,91,-1,89,91,92,-1,92,91,93,-1,92,93,94,-1,94,93,95,-1,94,95,96,-1,96,95,97,-1,96,97,98,-1,97,99,98,-1,98,99,100,-1,98,100,101,-1,101,100,102,-1,101,102,103,-1,103,102,104,-1,103,104,105,-1,105,104,106,-1,105,106,107,-1,107,106,108,-1,107,108,109,-1,109,108,16,-1,109,16,15,-1,62,61,67,-1,53,83,51,-1,51,83,85,-1,51,85,49,-1,49,85,87,-1,49,87,47,-1,62,67,64,-1,64,67,73,-1,64,73,59,-1,59,73,71,-1,59,71,57,-1,57,71,70,-1,57,70,55,-1,55,70,78,-1,55,78,53,-1,53,78,81,-1,53,81,83,-1,13,21,14,-1,14,21,24,-1,14,24,18,-1,18,24,27,-1,18,27,15,-1,15,27,29,-1,15,29,109,-1,109,29,31,-1,109,31,107,-1,107,31,33,-1,107,33,105,-1,105,33,35,-1,105,35,103,-1,103,35,37,-1,103,37,101,-1,101,37,39,-1,101,39,98,-1,94,45,92,-1,92,45,47,-1,92,47,89,-1,89,47,87,-1,98,39,96,-1,96,39,41,-1,96,41,94,-1,94,41,43,-1,94,43,45,-1,110,111,112,-1,112,111,113,-1,114,115,116,-1,116,115,110,-1,116,110,112,-1,117,115,118,-1,118,115,114,-1,119,120,121,-1,121,120,117,-1,121,117,118,-1,122,120,123,-1,123,120,119,-1,124,125,126,-1,126,125,122,-1,126,122,123,-1,127,125,128,-1,128,125,124,-1,129,130,131,-1,131,130,127,-1,131,127,128,-1,132,130,133,-1,133,130,129,-1,134,135,136,-1,136,135,132,-1,136,132,133,-1,137,135,138,-1,138,135,134,-1,113,111,139,-1,139,111,137,-1,139,137,138,-1,137,111,110,-1,110,115,137,-1,137,115,117,-1,137,117,135,-1,130,132,127,-1,127,132,135,-1,127,135,125,-1,125,135,117,-1,125,117,122,-1,122,117,120,-1,140,141,142,-1,142,141,143,-1,142,143,144,-1,144,143,145,-1,144,145,146,-1,146,145,147,-1,146,147,148,-1,148,147,149,-1,148,149,150,-1,150,149,151,-1,150,151,152,-1,152,151,153,-1,152,153,154,-1,154,153,155,-1,154,155,156,-1,156,155,157,-1,156,157,158,-1,158,157,159,-1,158,159,160,-1,160,159,161,-1,160,161,162,-1,162,161,163,-1,162,163,164,-1,164,163,165,-1,164,165,166,-1,166,165,167,-1,166,167,168,-1,168,167,169,-1,168,169,170,-1,170,169,171,-1,170,171,172,-1,172,171,173,-1,172,173,174,-1,174,173,140,-1,174,140,142,-1,148,150,175,-1,175,150,176,-1,148,175,177,-1,148,177,146,-1,146,177,178,-1,146,178,144,-1,144,178,179,-1,144,179,142,-1,142,179,180,-1,142,180,174,-1,174,180,181,-1,174,181,172,-1,172,181,182,-1,172,182,170,-1,170,182,183,-1,170,183,168,-1,168,183,184,-1,168,184,166,-1,166,184,185,-1,166,185,164,-1,164,185,186,-1,164,186,162,-1,162,186,187,-1,162,187,160,-1,160,187,188,-1,160,188,158,-1,158,188,189,-1,158,189,156,-1,156,189,190,-1,156,190,154,-1,152,154,191,-1,191,154,190,-1,150,152,176,-1,176,152,191,-1,155,153,192,-1,192,153,193,-1,153,151,193,-1,193,151,194,-1,151,149,194,-1,194,149,195,-1,141,196,197,-1,141,197,143,-1,143,197,198,-1,143,198,145,-1,145,198,199,-1,145,199,147,-1,147,199,195,-1,147,195,149,-1,169,200,201,-1,169,201,171,-1,171,201,202,-1,171,202,173,-1,173,202,203,-1,173,203,140,-1,140,203,196,-1,140,196,141,-1,161,204,205,-1,161,205,163,-1,163,205,206,-1,163,206,165,-1,165,206,207,-1,165,207,167,-1,167,207,200,-1,167,200,169,-1,155,192,208,-1,155,208,157,-1,157,208,209,-1,157,209,159,-1,159,209,204,-1,159,204,161,-1,
        ]
    }
}
Shape{
    appearance Appearance {
        material  Material 	{
            diffuseColor 0.2784313725490196 1.0 0.7607843137254902
            specularColor 0.1411764705882353 0.5019607843137255 0.3803921568627451
            ambientIntensity 0.2
            transparency 0
            shininess 0.5
        }
    }
    geometry IndexedFaceSet {
        ccw TRUE
        solid FALSE
        coord DEF co Coordinate {
            point [
                -0.2357 0.748 1.678, -0.2357 0.748 1.5751, -0.2558 0.748 1.678, -0.255 0.748 1.5751, -0.272 0.748 1.577, -0.2834 0.748 1.581, -0.2923 0.748 1.5868, -0.2947 0.748 1.5891, -0.3014 0.748 1.5973, -0.306 0.748 1.6072, -0.3085 0.748 1.6194, -0.309 0.748 1.6279, -0.3073 0.748 1.6433, -0.3037 0.748 1.6534, -0.2987 0.748 1.661, -0.2943 0.748 1.6655, -0.273 0.748 1.6761, -0.2846 0.748 1.672, -0.2846 0.748 1.672
            ]
        }
        coordIndex [
            0,1,2,-1,2,1,3,-1,2,3,4,-1,4,5,2,-1,2,5,6,-1,2,6,7,-1,7,8,2,-1,2,8,9,-1,2,9,10,-1,10,11,2,-1,2,11,12,-1,2,12,13,-1,13,14,2,-1,2,14,15,-1,2,15,16,-1,16,15,17,-1,
        ]
    }
}
Shape{
    appearance Appearance {
        material  Material 	{
            diffuseColor 0.0 0.0 0.0
            specularColor 0.0 0.0 0.0
            ambientIntensity 0.2
            transparency 0
            shininess 0.5
        }
    }
    geometry IndexedFaceSet {
        ccw TRUE
        solid FALSE
        coord DEF co Coordinate {
            point [
                -0.3718 0.7484 1.6115, -0.3918 0.7484 1.667, -0.3853 0.7484 1.6934, -0.3345 0.7484 1.5599, -0.3535 0.7484 1.5599, -0.3664 0.7484 1.5964, -0.3929 0.7484 1.671, -0.394 0.7484 1.6763, -0.4037 0.7484 1.6934, -0.3944 0.7484 1.6763, -0.3954 0.7484 1.6707, -0.3964 0.7484 1.667, -0.4166 0.7484 1.6115, -0.4546 0.7484 1.5599, -0.4355 0.7484 1.5599, -0.4219 0.7484 1.5964, -0.4037 0.748 1.6934, -0.4546 0.748 1.5599, -0.3853 0.748 1.6934, -0.3345 0.748 1.5599, -0.373 0.748 1.6609, -0.3535 0.748 1.5599, -0.3664 0.748 1.5964, -0.4219 0.748 1.5964, -0.373 0.748 1.5964, -0.4355 0.748 1.5599, -0.3718 0.748 1.6115, -0.4166 0.748 1.6115, -0.3964 0.748 1.667, -0.3944 0.748 1.6763, -0.3954 0.748 1.6707, -0.394 0.748 1.6763, -0.3918 0.748 1.667, -0.3929 0.748 1.671, -0.3929 0.748 1.671
            ]
        }
        coordIndex [
            0,1,2,-1,3,4,5,-1,1,6,2,-1,2,6,7,-1,2,7,8,-1,8,7,9,-1,8,9,10,-1,10,11,8,-1,8,11,12,-1,8,12,13,-1,14,13,15,-1,15,13,12,-1,15,12,5,-1,5,12,0,-1,5,0,3,-1,3,0,2,-1,8,13,16,-1,16,13,17,-1,2,8,18,-1,18,8,16,-1,19,3,20,-1,20,3,2,-1,20,2,18,-1,4,3,21,-1,21,3,19,-1,5,4,22,-1,22,4,21,-1,23,15,24,-1,24,15,5,-1,24,5,22,-1,14,15,25,-1,25,15,23,-1,13,14,17,-1,17,14,25,-1,0,12,26,-1,26,12,27,-1,12,11,27,-1,27,11,28,-1,9,29,30,-1,9,30,10,-1,10,30,28,-1,10,28,11,-1,9,7,29,-1,29,7,31,-1,1,32,33,-1,1,33,6,-1,6,33,31,-1,6,31,7,-1,1,0,32,-1,32,0,26,-1,
        ]
    }
}
Shape{
    appearance Appearance {
        material  Material 	{
            diffuseColor 0.2784313725490196 1.0 0.7607843137254902
            specularColor 0.1411764705882353 0.5019607843137255 0.3803921568627451
            ambientIntensity 0.2
            transparency 0
            shininess 0.5
        }
    }
    geometry IndexedFaceSet {
        ccw TRUE
        solid FALSE
        coord DEF co Coordinate {
            point [
                -0.3944 0.748 1.6763, -0.394 0.748 1.6763, -0.3954 0.748 1.6707, -0.3929 0.748 1.671, -0.3964 0.748 1.667, -0.3918 0.748 1.667, -0.4166 0.748 1.6115, -0.3718 0.748 1.6115, -0.3718 0.748 1.6115
            ]
        }
        coordIndex [
            0,1,2,-1,2,1,3,-1,2,3,4,-1,4,3,5,-1,4,5,6,-1,6,5,7,-1,
        ]
    }
}
Shape{
    appearance Appearance {
        material  Material 	{
            diffuseColor 0.0 0.0 0.0
            specularColor 0.0 0.0 0.0
            ambientIntensity 0.2
            transparency 0
            shininess 0.5
        }
    }
    geometry IndexedFaceSet {
        ccw TRUE
        solid FALSE
        coord DEF co Coordinate {
            point [
                0.0092 0.7484 1.3634, 0.0092 0.7484 1.3482, 0.0092 0.748 1.3634, 0.0092 0.748 1.3482, 0.0638 0.7484 1.3634, 0.0638 0.748 1.3634, 0.0638 0.7484 1.4083, 0.0638 0.748 1.4083, 0.016 0.7484 1.4083, 0.016 0.748 1.4083, 0.016 0.7484 1.4236, 0.016 0.748 1.4236, 0.0638 0.7484 1.4236, 0.0638 0.748 1.4236, 0.0638 0.7484 1.4663, 0.0638 0.748 1.4663, 0.0123 0.7484 1.4663, 0.0123 0.748 1.4663, 0.0123 0.7484 1.4817, 0.0123 0.748 1.4817, 0.081 0.7484 1.4817, 0.081 0.748 1.4817, 0.081 0.7484 1.3482, 0.081 0.748 1.3482, -0.0443 0.7484 1.393, -0.0666 0.7484 1.396, -0.0834 0.7484 1.4096, -0.0666 0.7484 1.3482, -0.0834 0.7484 1.3482, -0.0666 0.7484 1.363, -0.0666 0.7484 1.4088, -0.0304 0.7484 1.3889, -0.0344 0.7484 1.3908, -0.0662 0.7484 1.363, -0.0578 0.7484 1.3658, -0.0634 0.7484 1.3588, -0.0531 0.7484 1.3625, -0.0666 0.7484 1.3869, -0.0657 0.7484 1.3789, -0.0634 0.7484 1.3728, -0.0595 0.7484 1.3675, -0.0357 0.7484 1.3603, -0.037 0.7484 1.346, -0.0413 0.7484 1.3597, -0.0452 0.7484 1.3468, -0.0482 0.7484 1.3605, -0.052 0.7484 1.3492, -0.0581 0.7484 1.3532, -0.0661 0.7484 1.4161, -0.082 0.7484 1.4224, -0.0644 0.7484 1.4221, -0.0794 0.7484 1.43, -0.0624 0.7484 1.4255, -0.0759 0.7484 1.4353, -0.0599 0.7484 1.4282, -0.0715 0.7484 1.4396, -0.0569 0.7484 1.4302, -0.0659 0.7484 1.4427, -0.0531 0.7484 1.4315, -0.0588 0.7484 1.4448, -0.0473 0.7484 1.4321, -0.0489 0.7484 1.4457, -0.0381 0.7484 1.4313, -0.0318 0.7484 1.4436, -0.0277 0.7484 1.4279, -0.0194 0.7484 1.4388, -0.0161 0.7484 1.4206, -0.0161 0.7484 1.4368, -0.0271 0.7484 1.3654, -0.015 0.7484 1.3535, -0.0286 0.7484 1.364, -0.0204 0.7484 1.3497, -0.0319 0.7484 1.3617, -0.0268 0.7484 1.3472, -0.0363 0.7484 1.346, -0.0239 0.7484 1.3778, -0.0068 0.7484 1.3757, -0.0237 0.7484 1.3751, -0.0068 0.7484 1.3737, -0.0242 0.7484 1.3713, -0.0076 0.7484 1.366, -0.0252 0.7484 1.3682, -0.0097 0.7484 1.3604, -0.0132 0.7484 1.3553, -0.0384 0.7484 1.4048, -0.0257 0.7484 1.4017, -0.0282 0.7484 1.3872, -0.0186 0.7484 1.3981, -0.0262 0.7484 1.3847, -0.0135 0.7484 1.3936, -0.0247 0.7484 1.3816, -0.0102 0.7484 1.3888, -0.0079 0.7484 1.3829, -0.0489 0.748 1.4457, -0.0318 0.748 1.4436, -0.0194 0.748 1.4388, -0.0161 0.748 1.4368, -0.0161 0.748 1.4206, -0.0277 0.748 1.4279, -0.0381 0.748 1.4313, -0.0473 0.748 1.4321, -0.0531 0.748 1.4315, -0.0569 0.748 1.4302, -0.0599 0.748 1.4282, -0.0624 0.748 1.4255, -0.0644 0.748 1.4221, -0.0661 0.748 1.4161, -0.0666 0.748 1.4088, -0.0384 0.748 1.4048, -0.0257 0.748 1.4017, -0.0186 0.748 1.3981, -0.0135 0.748 1.3936, -0.0102 0.748 1.3888, -0.0079 0.748 1.3829, -0.0068 0.748 1.3757, -0.0068 0.748 1.3737, -0.0076 0.748 1.366, -0.0097 0.748 1.3604, -0.0132 0.748 1.3553, -0.015 0.748 1.3535, -0.037 0.748 1.346, -0.0204 0.748 1.3497, -0.0268 0.748 1.3472, -0.0275 0.748 1.3471, -0.0363 0.748 1.346, -0.0452 0.748 1.3468, -0.046 0.748 1.3471, -0.052 0.748 1.3492, -0.0581 0.748 1.3532, -0.0634 0.748 1.3588, -0.0662 0.748 1.363, -0.0666 0.748 1.363, -0.0666 0.748 1.3482, -0.0834 0.748 1.3482, -0.0834 0.748 1.4096, -0.082 0.748 1.4224, -0.0794 0.748 1.43, -0.0759 0.748 1.4353, -0.0715 0.748 1.4396, -0.0659 0.748 1.4427, -0.0588 0.748 1.4448, -0.0282 0.748 1.3872, -0.0304 0.748 1.3889, -0.0344 0.748 1.3908, -0.0443 0.748 1.393, -0.0237 0.748 1.3751, -0.0239 0.748 1.3778, -0.0247 0.748 1.3816, -0.0262 0.748 1.3847, -0.0286 0.748 1.364, -0.0271 0.748 1.3654, -0.0252 0.748 1.3682, -0.0242 0.748 1.3713, -0.0413 0.748 1.3597, -0.0357 0.748 1.3603, -0.0319 0.748 1.3617, -0.0595 0.748 1.3675, -0.0578 0.748 1.3658, -0.0531 0.748 1.3625, -0.0482 0.748 1.3605, -0.0666 0.748 1.3869, -0.0657 0.748 1.3789, -0.0634 0.748 1.3728, -0.0666 0.748 1.396, -0.0666 0.748 1.396
            ]
        }
        coordIndex [
            0,1,2,-1,2,1,3,-1,4,0,5,-1,5,0,2,-1,6,4,7,-1,7,4,5,-1,8,6,9,-1,9,6,7,-1,10,8,11,-1,11,8,9,-1,12,10,13,-1,13,10,11,-1,14,12,15,-1,15,12,13,-1,16,14,17,-1,17,14,15,-1,18,16,19,-1,19,16,17,-1,20,18,21,-1,21,18,19,-1,22,20,23,-1,23,20,21,-1,1,22,3,-1,3,22,23,-1,8,10,6,-1,6,10,12,-1,1,0,22,-1,22,0,4,-1,16,18,14,-1,14,18,20,-1,14,20,12,-1,12,20,22,-1,12,22,6,-1,6,22,4,-1,24,25,26,-1,27,28,29,-1,29,28,26,-1,30,31,32,-1,33,34,35,-1,35,34,36,-1,25,37,26,-1,26,37,38,-1,26,38,29,-1,29,38,39,-1,29,39,33,-1,33,39,40,-1,33,40,34,-1,41,42,43,-1,43,42,44,-1,43,44,45,-1,45,44,46,-1,45,46,36,-1,36,46,47,-1,36,47,35,-1,32,24,30,-1,30,24,26,-1,30,26,48,-1,48,26,49,-1,48,49,50,-1,50,49,51,-1,50,51,52,-1,52,51,53,-1,52,53,54,-1,54,53,55,-1,54,55,56,-1,56,55,57,-1,56,57,58,-1,58,57,59,-1,58,59,60,-1,60,59,61,-1,60,61,62,-1,62,61,63,-1,62,63,64,-1,64,63,65,-1,64,65,66,-1,66,65,67,-1,68,69,70,-1,70,69,71,-1,70,71,72,-1,72,71,73,-1,72,73,41,-1,41,73,74,-1,41,74,42,-1,75,76,77,-1,77,76,78,-1,77,78,79,-1,79,78,80,-1,79,80,81,-1,81,80,82,-1,81,82,68,-1,68,82,83,-1,68,83,69,-1,30,84,31,-1,31,84,85,-1,31,85,86,-1,86,85,87,-1,86,87,88,-1,88,87,89,-1,88,89,90,-1,90,89,91,-1,90,91,75,-1,75,91,92,-1,75,92,76,-1,61,93,94,-1,61,94,63,-1,63,94,95,-1,63,95,65,-1,65,95,96,-1,65,96,67,-1,66,67,97,-1,97,67,96,-1,66,97,98,-1,66,98,64,-1,64,98,99,-1,64,99,62,-1,62,99,100,-1,62,100,60,-1,60,100,101,-1,60,101,58,-1,58,101,102,-1,58,102,56,-1,56,102,103,-1,56,103,54,-1,54,103,104,-1,54,104,52,-1,52,104,105,-1,52,105,50,-1,50,105,106,-1,50,106,48,-1,48,106,107,-1,48,107,30,-1,84,30,108,-1,108,30,107,-1,84,108,109,-1,84,109,85,-1,85,109,110,-1,85,110,87,-1,87,110,111,-1,87,111,89,-1,89,111,112,-1,89,112,91,-1,91,112,113,-1,91,113,92,-1,92,113,114,-1,92,114,76,-1,76,114,115,-1,76,115,78,-1,78,115,116,-1,78,116,80,-1,80,116,117,-1,80,117,82,-1,82,117,118,-1,82,118,83,-1,83,118,119,-1,83,119,69,-1,120,42,74,-1,69,119,121,-1,69,121,71,-1,71,121,122,-1,71,122,73,-1,73,122,123,-1,73,123,74,-1,74,123,124,-1,74,124,120,-1,42,120,125,-1,42,125,44,-1,44,125,126,-1,44,126,46,-1,126,127,46,-1,46,127,128,-1,46,128,47,-1,47,128,129,-1,47,129,35,-1,35,129,130,-1,35,130,33,-1,29,33,131,-1,131,33,130,-1,27,29,132,-1,132,29,131,-1,28,27,133,-1,133,27,132,-1,26,28,134,-1,134,28,133,-1,26,134,135,-1,26,135,49,-1,49,135,136,-1,49,136,51,-1,51,136,137,-1,51,137,53,-1,53,137,138,-1,53,138,55,-1,55,138,139,-1,55,139,57,-1,57,139,140,-1,57,140,59,-1,59,140,93,-1,59,93,61,-1,86,141,142,-1,86,142,31,-1,31,142,143,-1,31,143,32,-1,32,143,144,-1,32,144,24,-1,77,145,146,-1,77,146,75,-1,75,146,147,-1,75,147,90,-1,90,147,148,-1,90,148,88,-1,88,148,141,-1,88,141,86,-1,70,149,150,-1,70,150,68,-1,68,150,151,-1,68,151,81,-1,81,151,152,-1,81,152,79,-1,79,152,145,-1,79,145,77,-1,43,153,154,-1,43,154,41,-1,41,154,155,-1,41,155,72,-1,72,155,149,-1,72,149,70,-1,40,156,157,-1,40,157,34,-1,34,157,158,-1,34,158,36,-1,36,158,159,-1,36,159,45,-1,45,159,153,-1,45,153,43,-1,37,160,161,-1,37,161,38,-1,38,161,162,-1,38,162,39,-1,39,162,156,-1,39,156,40,-1,37,25,160,-1,160,25,163,-1,25,24,163,-1,163,24,144,-1,
        ]
    }
}
Shape{
    appearance Appearance {
        material  Material 	{
            diffuseColor 0.2784313725490196 1.0 0.7607843137254902
            specularColor 0.1411764705882353 0.5019607843137255 0.3803921568627451
            ambientIntensity 0.2
            transparency 0
            shininess 0.5
        }
    }
    geometry IndexedFaceSet {
        ccw TRUE
        solid FALSE
        coord DEF co Coordinate {
            point [
                -0.0666 0.748 1.3869, -0.0666 0.748 1.396, -0.0443 0.748 1.393, -0.0578 0.748 1.3658, -0.0595 0.748 1.3675, -0.0344 0.748 1.3908, -0.0304 0.748 1.3889, -0.0482 0.748 1.3605, -0.0531 0.748 1.3625, -0.0634 0.748 1.3728, -0.0657 0.748 1.3789, -0.0282 0.748 1.3872, -0.0262 0.748 1.3847, -0.0247 0.748 1.3816, -0.0239 0.748 1.3778, -0.0237 0.748 1.3751, -0.0242 0.748 1.3713, -0.0319 0.748 1.3617, -0.0357 0.748 1.3603, -0.0286 0.748 1.364, -0.0413 0.748 1.3597, -0.0252 0.748 1.3682, -0.0271 0.748 1.3654, -0.0271 0.748 1.3654
            ]
        }
        coordIndex [
            0,1,2,-1,3,4,2,-1,5,6,7,-1,5,7,2,-1,2,7,8,-1,2,8,3,-1,4,9,2,-1,2,9,10,-1,2,10,0,-1,6,11,7,-1,7,11,12,-1,7,12,13,-1,13,14,7,-1,7,14,15,-1,7,15,16,-1,17,18,19,-1,19,18,20,-1,19,20,7,-1,16,21,7,-1,7,21,22,-1,7,22,19,-1,
        ]
    }
}
Shape{
    appearance Appearance {
        material  Material 	{
            diffuseColor 0.0 0.0 0.0
            specularColor 0.0 0.0 0.0
            ambientIntensity 0.2
            transparency 0
            shininess 0.5
        }
    }
    geometry IndexedFaceSet {
        ccw TRUE
        solid FALSE
        coord DEF co Coordinate {
            point [
                -0.106 0.748 1.3688, -0.106 0.7484 1.3688, -0.112 0.7484 1.3651, -0.1335 0.7484 1.3596, -0.1335 0.748 1.3596, -0.1225 0.748 1.361, -0.1225 0.7484 1.361, -0.1137 0.748 1.3644, -0.112 0.748 1.3651, -0.106 0.7484 1.3516, -0.106 0.748 1.3516, -0.1177 0.7484 1.3474, -0.1137 0.748 1.3488, -0.1319 0.748 1.346, -0.1319 0.7484 1.346, -0.1211 0.748 1.3471, -0.1177 0.748 1.3474, -0.1471 0.7484 1.3478, -0.1412 0.748 1.3471, -0.1471 0.748 1.3478, -0.1558 0.748 1.3512, -0.1558 0.7484 1.3512, -0.1596 0.748 1.3535, -0.1596 0.7484 1.3535, -0.1648 0.748 1.3582, -0.1648 0.7484 1.3582, -0.1678 0.748 1.3626, -0.1678 0.7484 1.3626, -0.1697 0.748 1.3679, -0.1697 0.7484 1.3679, -0.1704 0.748 1.3741, -0.1704 0.7484 1.3741, -0.1695 0.748 1.381, -0.1695 0.7484 1.381, -0.1676 0.748 1.3858, -0.1676 0.7484 1.3858, -0.1648 0.748 1.3899, -0.1648 0.7484 1.3899, -0.1608 0.748 1.3935, -0.1608 0.7484 1.3935, -0.1497 0.748 1.3996, -0.1497 0.7484 1.3996, -0.1432 0.748 1.4023, -0.1432 0.7484 1.4023, -0.1329 0.748 1.4068, -0.1329 0.7484 1.4068, -0.127 0.748 1.4104, -0.127 0.7484 1.4104, -0.1254 0.748 1.4122, -0.1254 0.7484 1.4122, -0.1242 0.748 1.4145, -0.1242 0.7484 1.4145, -0.1235 0.748 1.4171, -0.1235 0.7484 1.4171, -0.1233 0.748 1.4193, -0.1233 0.7484 1.4193, -0.1236 0.748 1.422, -0.1236 0.7484 1.422, -0.1245 0.748 1.4242, -0.1245 0.7484 1.4242, -0.1259 0.748 1.4264, -0.1259 0.7484 1.4264, -0.1284 0.748 1.4286, -0.1284 0.7484 1.4286, -0.1322 0.748 1.4306, -0.1322 0.7484 1.4306, -0.1366 0.748 1.4318, -0.1366 0.7484 1.4318, -0.1416 0.748 1.4321, -0.1416 0.7484 1.4321, -0.1533 0.748 1.4307, -0.1533 0.7484 1.4307, -0.1627 0.748 1.427, -0.1627 0.7484 1.427, -0.1658 0.748 1.4252, -0.1658 0.7484 1.4252, -0.1658 0.7484 1.4415, -0.1658 0.748 1.4415, -0.1549 0.748 1.4447, -0.1549 0.7484 1.4447, -0.1432 0.748 1.4457, -0.1432 0.7484 1.4457, -0.1298 0.748 1.4441, -0.1298 0.7484 1.4441, -0.1209 0.748 1.4406, -0.1209 0.7484 1.4406, -0.1168 0.748 1.4381, -0.1168 0.7484 1.4381, -0.1115 0.7484 1.4333, -0.1137 0.748 1.4353, -0.1115 0.748 1.4333, -0.1086 0.748 1.4288, -0.1086 0.7484 1.4288, -0.1067 0.748 1.4234, -0.1067 0.7484 1.4234, -0.1061 0.748 1.4178, -0.1061 0.7484 1.4178, -0.107 0.748 1.4108, -0.107 0.7484 1.4108, -0.1089 0.748 1.4058, -0.1089 0.7484 1.4058, -0.1109 0.748 1.4027, -0.1109 0.7484 1.4027, -0.1314 0.748 1.3901, -0.1314 0.7484 1.3901, -0.1215 0.7484 1.3947, -0.1136 0.748 1.3999, -0.1136 0.7484 1.3999, -0.1137 0.748 1.3998, -0.1215 0.748 1.3947, -0.1424 0.748 1.3855, -0.1424 0.7484 1.3855, -0.1489 0.748 1.3816, -0.1489 0.7484 1.3816, -0.151 0.748 1.3794, -0.151 0.7484 1.3794, -0.1523 0.748 1.3772, -0.1523 0.7484 1.3772, -0.1531 0.748 1.3746, -0.1531 0.7484 1.3746, -0.1532 0.748 1.3725, -0.1532 0.7484 1.3725, -0.1529 0.748 1.3693, -0.1529 0.7484 1.3693, -0.152 0.748 1.3669, -0.152 0.7484 1.3669, -0.1506 0.748 1.3648, -0.1506 0.7484 1.3648, -0.1486 0.748 1.3631, -0.1486 0.7484 1.3631, -0.1471 0.748 1.3622, -0.1471 0.7484 1.3622, -0.1428 0.748 1.3606, -0.1428 0.7484 1.3606, -0.1342 0.748 1.3596, -0.1342 0.7484 1.3596, -0.2532 0.7484 1.4435, -0.2706 0.7484 1.4435, -0.2532 0.748 1.4435, -0.2706 0.748 1.4435, -0.2272 0.7484 1.3718, -0.2272 0.748 1.3718, -0.2259 0.748 1.3673, -0.2259 0.7484 1.3673, -0.2252 0.748 1.364, -0.2252 0.7484 1.364, -0.2247 0.7484 1.364, -0.2247 0.748 1.364, -0.2227 0.7484 1.3719, -0.2227 0.748 1.3719, -0.1978 0.748 1.4435, -0.1978 0.7484 1.4435, -0.2058 0.748 1.4203, -0.1791 0.7484 1.4435, -0.1791 0.748 1.4435, -0.2165 0.748 1.3484, -0.2165 0.7484 1.3484, -0.2058 0.748 1.3755, -0.2091 0.748 1.3311, -0.2091 0.7484 1.3311, -0.2159 0.748 1.3471, -0.2054 0.7484 1.3245, -0.2058 0.748 1.3252, -0.2054 0.748 1.3245, -0.202 0.748 1.321, -0.202 0.7484 1.321, -0.1989 0.748 1.3191, -0.1989 0.7484 1.3191, -0.1952 0.748 1.3179, -0.1952 0.7484 1.3179, -0.192 0.748 1.3177, -0.192 0.7484 1.3177, -0.1859 0.748 1.3184, -0.1859 0.7484 1.3184, -0.1825 0.748 1.3196, -0.1825 0.7484 1.3196, -0.1825 0.7484 1.3047, -0.1825 0.748 1.3047, -0.1896 0.748 1.3035, -0.1896 0.7484 1.3035, -0.1933 0.748 1.3033, -0.1933 0.7484 1.3033, -0.2003 0.748 1.3042, -0.2058 0.748 1.3063, -0.2069 0.7484 1.3068, -0.2003 0.7484 1.3042, -0.2069 0.748 1.3068, -0.2127 0.748 1.3109, -0.2127 0.7484 1.3109, -0.213 0.748 1.3111, -0.213 0.7484 1.3111, -0.2191 0.748 1.3182, -0.2191 0.7484 1.3182, -0.2271 0.748 1.3334, -0.2271 0.7484 1.3334, -0.2273 0.748 1.3338, -0.2273 0.7484 1.3338, -0.2325 0.748 1.3471, -0.3604 0.7484 1.3634, -0.3604 0.7484 1.3482, -0.3604 0.748 1.3634, -0.3604 0.748 1.3482, -0.3058 0.748 1.3634, -0.3058 0.7484 1.3634, -0.3308 0.748 1.3634, -0.3058 0.7484 1.4083, -0.3058 0.748 1.4083, -0.3535 0.748 1.4083, -0.3535 0.7484 1.4083, -0.3308 0.748 1.4083, -0.3535 0.7484 1.4236, -0.3535 0.748 1.4236, -0.3058 0.748 1.4236, -0.3058 0.7484 1.4236, -0.3308 0.748 1.4236, -0.3058 0.7484 1.4663, -0.3058 0.748 1.4663, -0.3573 0.748 1.4663, -0.3573 0.7484 1.4663, -0.3308 0.748 1.4663, -0.3573 0.7484 1.4817, -0.3573 0.748 1.4817, -0.2886 0.748 1.4817, -0.2886 0.7484 1.4817, -0.3308 0.748 1.4817, -0.2886 0.7484 1.3482, -0.2886 0.748 1.3482, -0.3308 0.748 1.3482, -0.4685 0.7484 1.3856, -0.4618 0.7484 1.3774, -0.4741 0.7484 1.3669, -0.4594 0.7484 1.3751, -0.4603 0.7484 1.357, -0.4505 0.7484 1.3693, -0.4451 0.7484 1.351, -0.4391 0.7484 1.3653, -0.4223 0.7484 1.3482, -0.4222 0.7484 1.3634, -0.3856 0.7484 1.3482, -0.4028 0.7484 1.3634, -0.3856 0.7484 1.4817, -0.4028 0.7484 1.4663, -0.4236 0.7484 1.4817, -0.4229 0.7484 1.4663, -0.444 0.7484 1.4794, -0.4401 0.7484 1.4644, -0.4601 0.7484 1.4735, -0.4517 0.7484 1.4603, -0.4741 0.7484 1.464, -0.4615 0.7484 1.4538, -0.4787 0.7484 1.4595, -0.4658 0.7484 1.4493, -0.487 0.7484 1.4479, -0.4709 0.7484 1.4417, -0.4919 0.7484 1.4352, -0.4744 0.7484 1.4316, -0.4942 0.7484 1.4167, -0.4761 0.7484 1.4162, -0.4938 0.7484 1.4082, -0.4757 0.7484 1.4077, -0.4906 0.7484 1.3926, -0.4731 0.7484 1.3955, -0.484 0.7484 1.3788, -0.4223 0.748 1.3482, -0.3856 0.748 1.3482, -0.4451 0.748 1.351, -0.4603 0.748 1.357, -0.4741 0.748 1.3669, -0.484 0.748 1.3788, -0.4906 0.748 1.3926, -0.4938 0.748 1.4082, -0.4942 0.748 1.4167, -0.4919 0.748 1.4352, -0.487 0.748 1.4479, -0.4787 0.748 1.4595, -0.4741 0.748 1.464, -0.4601 0.748 1.4735, -0.444 0.748 1.4794, -0.4236 0.748 1.4817, -0.3856 0.748 1.4817, -0.4229 0.748 1.4663, -0.4028 0.748 1.4663, -0.4028 0.748 1.3634, -0.4222 0.748 1.3634, -0.4618 0.748 1.3774, -0.4594 0.748 1.3751, -0.4505 0.748 1.3693, -0.4391 0.748 1.3653, -0.4761 0.748 1.4162, -0.4757 0.748 1.4077, -0.4731 0.748 1.3955, -0.4685 0.748 1.3856, -0.4615 0.748 1.4538, -0.4658 0.748 1.4493, -0.4709 0.748 1.4417, -0.4744 0.748 1.4316, -0.4401 0.748 1.4644, -0.4517 0.748 1.4603, -0.4517 0.748 1.4603
            ]
        }
        coordIndex [
            0,1,2,-1,3,4,5,-1,3,5,6,-1,6,5,7,-1,6,7,2,-1,2,7,8,-1,2,8,0,-1,9,1,10,-1,10,1,0,-1,11,9,12,-1,12,9,10,-1,13,14,15,-1,15,14,11,-1,15,11,16,-1,16,11,12,-1,17,14,18,-1,18,14,13,-1,18,19,17,-1,17,19,20,-1,17,20,21,-1,21,20,22,-1,21,22,23,-1,23,22,24,-1,23,24,25,-1,25,24,26,-1,25,26,27,-1,27,26,28,-1,27,28,29,-1,29,28,30,-1,29,30,31,-1,31,30,32,-1,31,32,33,-1,33,32,34,-1,33,34,35,-1,35,34,36,-1,35,36,37,-1,37,36,38,-1,37,38,39,-1,39,38,40,-1,39,40,41,-1,41,40,42,-1,41,42,43,-1,43,42,44,-1,43,44,45,-1,45,44,46,-1,45,46,47,-1,47,46,48,-1,47,48,49,-1,49,48,50,-1,49,50,51,-1,51,50,52,-1,51,52,53,-1,53,52,54,-1,53,54,55,-1,55,54,56,-1,55,56,57,-1,57,56,58,-1,57,58,59,-1,59,58,60,-1,59,60,61,-1,61,60,62,-1,61,62,63,-1,63,62,64,-1,63,64,65,-1,65,64,66,-1,65,66,67,-1,67,66,68,-1,67,68,69,-1,69,68,70,-1,69,70,71,-1,71,70,72,-1,71,72,73,-1,73,72,74,-1,73,74,75,-1,76,75,77,-1,77,75,74,-1,76,77,78,-1,76,78,79,-1,79,78,80,-1,79,80,81,-1,81,80,82,-1,81,82,83,-1,83,82,84,-1,83,84,85,-1,85,84,86,-1,85,86,87,-1,88,87,89,-1,89,87,86,-1,89,90,88,-1,88,90,91,-1,88,91,92,-1,92,91,93,-1,92,93,94,-1,94,93,95,-1,94,95,96,-1,96,95,97,-1,96,97,98,-1,98,97,99,-1,98,99,100,-1,100,99,101,-1,100,101,102,-1,103,104,105,-1,102,101,106,-1,102,106,107,-1,107,106,108,-1,107,108,105,-1,105,108,109,-1,105,109,103,-1,104,103,110,-1,104,110,111,-1,111,110,112,-1,111,112,113,-1,113,112,114,-1,113,114,115,-1,115,114,116,-1,115,116,117,-1,117,116,118,-1,117,118,119,-1,119,118,120,-1,119,120,121,-1,121,120,122,-1,121,122,123,-1,123,122,124,-1,123,124,125,-1,125,124,126,-1,125,126,127,-1,127,126,128,-1,127,128,129,-1,129,128,130,-1,129,130,131,-1,131,130,132,-1,131,132,133,-1,133,132,134,-1,133,134,135,-1,135,134,4,-1,135,4,3,-1,59,61,87,-1,87,61,85,-1,85,61,63,-1,85,63,83,-1,125,25,27,-1,111,43,104,-1,104,43,45,-1,125,27,123,-1,123,27,29,-1,123,29,121,-1,121,29,31,-1,121,31,119,-1,119,31,33,-1,119,33,117,-1,117,33,35,-1,117,35,115,-1,115,35,37,-1,115,37,113,-1,113,37,39,-1,113,39,111,-1,111,39,41,-1,111,41,43,-1,25,125,23,-1,23,125,127,-1,23,127,21,-1,14,3,11,-1,11,3,6,-1,11,6,9,-1,9,6,2,-1,9,2,1,-1,63,65,83,-1,83,65,67,-1,83,67,81,-1,81,67,69,-1,81,69,79,-1,79,69,71,-1,79,71,76,-1,76,71,73,-1,76,73,75,-1,127,129,21,-1,21,129,131,-1,21,131,17,-1,17,131,133,-1,17,133,14,-1,14,133,135,-1,14,135,3,-1,87,88,59,-1,59,88,92,-1,59,92,57,-1,57,92,94,-1,57,94,55,-1,55,94,96,-1,55,96,53,-1,53,96,98,-1,53,98,51,-1,51,98,100,-1,51,100,49,-1,49,100,102,-1,49,102,47,-1,47,102,107,-1,47,107,45,-1,45,107,105,-1,45,105,104,-1,136,137,138,-1,138,137,139,-1,140,136,141,-1,141,136,138,-1,140,141,142,-1,140,142,143,-1,143,142,144,-1,143,144,145,-1,146,145,147,-1,147,145,144,-1,148,146,149,-1,149,146,147,-1,150,151,152,-1,152,151,148,-1,152,148,149,-1,153,151,154,-1,154,151,150,-1,155,156,157,-1,157,156,153,-1,157,153,154,-1,158,159,160,-1,160,159,156,-1,160,156,155,-1,159,158,161,-1,161,158,162,-1,162,163,161,-1,161,163,164,-1,161,164,165,-1,165,164,166,-1,165,166,167,-1,167,166,168,-1,167,168,169,-1,169,168,170,-1,169,170,171,-1,171,170,172,-1,171,172,173,-1,173,172,174,-1,173,174,175,-1,176,175,177,-1,177,175,174,-1,176,177,178,-1,176,178,179,-1,179,178,180,-1,179,180,181,-1,181,180,182,-1,183,184,182,-1,182,184,185,-1,182,185,181,-1,183,186,184,-1,184,186,187,-1,184,187,188,-1,188,187,189,-1,188,189,190,-1,190,189,191,-1,190,191,192,-1,192,191,193,-1,192,193,194,-1,194,193,195,-1,194,195,196,-1,139,137,197,-1,197,137,196,-1,197,196,195,-1,143,145,196,-1,137,136,196,-1,196,136,140,-1,196,140,143,-1,151,153,148,-1,148,153,156,-1,148,156,146,-1,145,146,196,-1,196,146,156,-1,196,156,194,-1,194,156,159,-1,194,159,192,-1,192,159,161,-1,192,161,190,-1,190,161,165,-1,175,176,173,-1,173,176,179,-1,173,179,171,-1,171,179,181,-1,171,181,169,-1,169,181,185,-1,169,185,167,-1,167,185,184,-1,167,184,165,-1,165,184,188,-1,165,188,190,-1,198,199,200,-1,200,199,201,-1,202,203,204,-1,204,203,198,-1,204,198,200,-1,205,203,206,-1,206,203,202,-1,207,208,209,-1,209,208,205,-1,209,205,206,-1,210,208,211,-1,211,208,207,-1,212,213,214,-1,214,213,210,-1,214,210,211,-1,215,213,216,-1,216,213,212,-1,217,218,219,-1,219,218,215,-1,219,215,216,-1,220,218,221,-1,221,218,217,-1,222,223,224,-1,224,223,220,-1,224,220,221,-1,225,223,226,-1,226,223,222,-1,201,199,227,-1,227,199,225,-1,227,225,226,-1,208,210,205,-1,205,210,213,-1,199,198,225,-1,225,198,203,-1,218,220,215,-1,215,220,223,-1,215,223,213,-1,213,223,225,-1,213,225,205,-1,205,225,203,-1,228,229,230,-1,230,229,231,-1,230,231,232,-1,232,231,233,-1,232,233,234,-1,234,233,235,-1,234,235,236,-1,236,235,237,-1,236,237,238,-1,238,237,239,-1,238,239,240,-1,240,239,241,-1,240,241,242,-1,242,241,243,-1,242,243,244,-1,244,243,245,-1,244,245,246,-1,246,245,247,-1,246,247,248,-1,248,247,249,-1,248,249,250,-1,250,249,251,-1,250,251,252,-1,252,251,253,-1,252,253,254,-1,254,253,255,-1,254,255,256,-1,256,255,257,-1,256,257,258,-1,258,257,259,-1,258,259,260,-1,260,259,261,-1,260,261,262,-1,262,261,228,-1,262,228,230,-1,236,238,263,-1,263,238,264,-1,236,263,265,-1,236,265,234,-1,234,265,266,-1,234,266,232,-1,232,266,267,-1,232,267,230,-1,230,267,268,-1,230,268,262,-1,262,268,269,-1,262,269,260,-1,260,269,270,-1,260,270,258,-1,258,270,271,-1,258,271,256,-1,256,271,272,-1,256,272,254,-1,254,272,273,-1,254,273,252,-1,252,273,274,-1,252,274,250,-1,250,274,275,-1,250,275,248,-1,248,275,276,-1,248,276,246,-1,246,276,277,-1,246,277,244,-1,244,277,278,-1,244,278,242,-1,240,242,279,-1,279,242,278,-1,238,240,264,-1,264,240,279,-1,243,241,280,-1,280,241,281,-1,241,239,281,-1,281,239,282,-1,239,237,282,-1,282,237,283,-1,229,284,285,-1,229,285,231,-1,231,285,286,-1,231,286,233,-1,233,286,287,-1,233,287,235,-1,235,287,283,-1,235,283,237,-1,257,288,289,-1,257,289,259,-1,259,289,290,-1,259,290,261,-1,261,290,291,-1,261,291,228,-1,228,291,284,-1,228,284,229,-1,249,292,293,-1,249,293,251,-1,251,293,294,-1,251,294,253,-1,253,294,295,-1,253,295,255,-1,255,295,288,-1,255,288,257,-1,243,280,296,-1,243,296,245,-1,245,296,297,-1,245,297,247,-1,247,297,292,-1,247,292,249,-1,
        ]
    }
}
Shape{
    appearance Appearance {
        material  Material 	{
            diffuseColor 0.2784313725490196 1.0 0.7607843137254902
            specularColor 0.1411764705882353 0.5019607843137255 0.3803921568627451
            ambientIntensity 0.2
            transparency 0
            shininess 0.5
        }
    }
    geometry IndexedFaceSet {
        ccw TRUE
        solid FALSE
        coord DEF co Coordinate {
            point [
                -0.4028 0.748 1.4663, -0.4028 0.748 1.3634, -0.4229 0.748 1.4663, -0.4222 0.748 1.3634, -0.4391 0.748 1.3653, -0.4505 0.748 1.3693, -0.4594 0.748 1.3751, -0.4618 0.748 1.3774, -0.4685 0.748 1.3856, -0.4731 0.748 1.3955, -0.4757 0.748 1.4077, -0.4761 0.748 1.4162, -0.4744 0.748 1.4316, -0.4709 0.748 1.4417, -0.4658 0.748 1.4493, -0.4615 0.748 1.4538, -0.4401 0.748 1.4644, -0.4517 0.748 1.4603, -0.4517 0.748 1.4603
            ]
        }
        coordIndex [
            0,1,2,-1,2,1,3,-1,2,3,4,-1,4,5,2,-1,2,5,6,-1,2,6,7,-1,7,8,2,-1,2,8,9,-1,2,9,10,-1,10,11,2,-1,2,11,12,-1,2,12,13,-1,13,14,2,-1,2,14,15,-1,2,15,16,-1,16,15,17,-1,
        ]
    }
}
Shape{
    appearance Appearance {
        material  Material 	{
            diffuseColor 0.0 0.0 0.0
            specularColor 0.0 0.0 0.0
            ambientIntensity 0.2
            transparency 0
            shininess 0.5
        }
    }
    geometry IndexedFaceSet {
        ccw TRUE
        solid FALSE
        coord DEF co Coordinate {
            point [
                -0.5389 0.7484 1.3998, -0.5589 0.7484 1.4553, -0.5524 0.7484 1.4817, -0.5016 0.7484 1.3482, -0.5206 0.7484 1.3482, -0.5335 0.7484 1.3847, -0.56 0.7484 1.4593, -0.5611 0.7484 1.4646, -0.5709 0.7484 1.4817, -0.5615 0.7484 1.4646, -0.5626 0.7484 1.459, -0.5636 0.7484 1.4553, -0.5837 0.7484 1.3998, -0.6217 0.7484 1.3482, -0.6027 0.7484 1.3482, -0.589 0.7484 1.3847, -0.5709 0.748 1.4817, -0.6217 0.748 1.3482, -0.5524 0.748 1.4817, -0.5016 0.748 1.3482, -0.5206 0.748 1.3482, -0.5335 0.748 1.3847, -0.589 0.748 1.3847, -0.6027 0.748 1.3482, -0.5389 0.748 1.3998, -0.5837 0.748 1.3998, -0.5636 0.748 1.4553, -0.5615 0.748 1.4646, -0.5626 0.748 1.459, -0.5611 0.748 1.4646, -0.5589 0.748 1.4553, -0.56 0.748 1.4593, -0.56 0.748 1.4593
            ]
        }
        coordIndex [
            0,1,2,-1,3,4,5,-1,1,6,2,-1,2,6,7,-1,2,7,8,-1,8,7,9,-1,8,9,10,-1,10,11,8,-1,8,11,12,-1,8,12,13,-1,14,13,15,-1,15,13,12,-1,15,12,5,-1,5,12,0,-1,5,0,3,-1,3,0,2,-1,8,13,16,-1,16,13,17,-1,2,8,18,-1,18,8,16,-1,3,2,19,-1,19,2,18,-1,4,3,20,-1,20,3,19,-1,5,4,21,-1,21,4,20,-1,15,5,22,-1,22,5,21,-1,14,15,23,-1,23,15,22,-1,13,14,17,-1,17,14,23,-1,0,12,24,-1,24,12,25,-1,12,11,25,-1,25,11,26,-1,9,27,28,-1,9,28,10,-1,10,28,26,-1,10,26,11,-1,9,7,27,-1,27,7,29,-1,1,30,31,-1,1,31,6,-1,6,31,29,-1,6,29,7,-1,1,0,30,-1,30,0,24,-1,
        ]
    }
}
Shape{
    appearance Appearance {
        material  Material 	{
            diffuseColor 0.2784313725490196 1.0 0.7607843137254902
            specularColor 0.1411764705882353 0.5019607843137255 0.3803921568627451
            ambientIntensity 0.2
            transparency 0
            shininess 0.5
        }
    }
    geometry IndexedFaceSet {
        ccw TRUE
        solid FALSE
        coord DEF co Coordinate {
            point [
                -0.5615 0.748 1.4646, -0.5611 0.748 1.4646, -0.5626 0.748 1.459, -0.56 0.748 1.4593, -0.5636 0.748 1.4553, -0.5589 0.748 1.4553, -0.5837 0.748 1.3998, -0.5389 0.748 1.3998, -0.5389 0.748 1.3998
            ]
        }
        coordIndex [
            0,1,2,-1,2,1,3,-1,2,3,4,-1,4,3,5,-1,4,5,6,-1,6,5,7,-1,
        ]
    }
}
Shape{
    appearance Appearance {
        material  Material 	{
            diffuseColor 0.0 0.0 0.0
            specularColor 0.0 0.0 0.0
            ambientIntensity 0.2
            transparency 0
            shininess 0.5
        }
    }
    geometry IndexedFaceSet {
        ccw TRUE
        solid FALSE
        coord DEF co Coordinate {
            point [
                0.6704 0.7484 1.3293, 0.6563 0.7484 1.3119, 0.6789 0.7484 1.4132, 0.362 0.7484 1.4597, 0.3914 0.7484 1.51, 0.5186 0.7484 1.4436, 0.5742 0.7484 1.4122, 0.583 0.7484 1.4153, 0.5907 0.7484 1.4161, 0.4949 0.7484 1.3895, 0.554 0.7484 1.3838, 0.4949 0.7484 1.38, 0.554 0.7484 1.3745, 0.5665 0.7484 1.4071, 0.5604 0.7484 1.4003, 0.5562 0.7484 1.3925, 0.6996 0.7484 1.4259, 0.6971 0.7484 1.3551, 0.6799 0.7484 1.3497, 0.5781 0.7484 1.4752, 0.5897 0.7484 1.4758, 0.6068 0.7484 1.4123, 0.3307 0.7484 1.5537, 0.3231 0.7484 1.5537, 0.2842 0.7484 1.6049, 0.3051 0.7484 1.5514, 0.2778 0.7484 1.6027, 0.2886 0.7484 1.5451, 0.2497 0.7484 1.5883, 0.2243 0.7484 1.5662, 0.5977 0.7484 1.585, 0.5907 0.7484 1.5812, 0.6201 0.7484 1.6504, 0.5776 0.7484 1.6089, 0.6007 0.7484 1.6731, 0.5569 0.7484 1.6347, 0.5784 0.7484 1.6922, 0.5307 0.7484 1.6545, 0.5553 0.7484 1.7065, 0.6152 0.7484 1.3513, 0.6076 0.7484 1.3462, 0.6377 0.7484 1.2979, 0.5988 0.7484 1.343, 0.5552 0.7484 1.4695, 0.6123 0.7484 1.4731, 0.6333 0.7484 1.4651, 0.6144 0.7484 1.4074, 0.6527 0.7484 1.4516, 0.6207 0.7484 1.4007, 0.6684 0.7484 1.4337, 0.6252 0.7484 1.3925, 0.6274 0.7484 1.3834, 0.3718 0.7484 1.3483, 0.3677 0.7484 1.3478, 0.3601 0.7484 1.4056, 0.5116 0.7484 1.7234, 0.4999 0.7484 1.6674, 0.4645 0.7484 1.7292, 0.3355 0.7484 1.6798, 0.3673 0.7484 1.631, 0.3044 0.7484 1.6441, 0.3473 0.7484 1.6042, 0.3344 0.7484 1.5728, 0.7166 0.7484 1.4434, 0.7558 0.7484 1.3952, 0.7307 0.7484 1.3731, 0.733 0.7484 1.5234, 0.7952 0.7484 1.5107, 0.7359 0.7484 1.5005, 0.7956 0.7484 1.4986, 0.7348 0.7484 1.4861, 0.7922 0.7484 1.4663, 0.728 0.7484 1.4628, 0.7798 0.7484 1.4307, 0.7599 0.7484 1.4, 0.2738 0.7484 1.5348, 0.2628 0.7484 1.5224, 0.2054 0.7484 1.5389, 0.254 0.7484 1.506, 0.1942 0.7484 1.5098, 0.2496 0.7484 1.4878, 0.1903 0.7484 1.4806, 0.2491 0.7484 1.4796, 0.3174 0.7484 1.4056, 0.3117 0.7484 1.3478, 0.3005 0.7484 1.4089, 0.2822 0.7484 1.3538, 0.2838 0.7484 1.4166, 0.253 0.7484 1.3674, 0.2697 0.7484 1.428, 0.2281 0.7484 1.3876, 0.2684 0.7484 1.4295, 0.2254 0.7484 1.3905, 0.2579 0.7484 1.4443, 0.2076 0.7484 1.4148, 0.2514 0.7484 1.4612, 0.1952 0.7484 1.4445, 0.1904 0.7484 1.4756, 0.619 0.7484 1.5927, 0.631 0.7484 1.6517, 0.641 0.7484 1.5954, 0.6419 0.7484 1.6523, 0.6507 0.7484 1.5949, 0.6744 0.7484 1.6489, 0.6741 0.7484 1.5894, 0.7099 0.7484 1.6364, 0.6953 0.7484 1.5782, 0.7418 0.7484 1.6153, 0.7118 0.7484 1.5635, 0.751 0.7484 1.6068, 0.7249 0.7484 1.5446, 0.7713 0.7484 1.5816, 0.7875 0.7484 1.5481, 0.5984 0.7484 1.4152, 0.5351 0.7484 1.4587, 0.3951 0.7484 1.3799, 0.3952 0.7484 1.3772, 0.3649 0.7484 1.4065, 0.4683 0.7484 1.6722, 0.4635 0.7484 1.6723, 0.4254 0.7484 1.7251, 0.4337 0.7484 1.6689, 0.3778 0.7484 1.7083, 0.4038 0.7484 1.658, 0.3768 0.7484 1.64, 0.6212 0.7484 1.3582, 0.6253 0.7484 1.366, 0.6274 0.7484 1.3747, 0.388 0.7484 1.358, 0.3845 0.7484 1.3546, 0.6159 0.7484 1.2887, 0.5935 0.7484 1.2852, 0.5907 0.7484 1.3421, 0.5897 0.7484 1.2851, 0.5829 0.7484 1.3429, 0.5668 0.7484 1.288, 0.5745 0.7484 1.3458, 0.5457 0.7484 1.2961, 0.5671 0.7484 1.3506, 0.5268 0.7484 1.3092, 0.5608 0.7484 1.3573, 0.5121 0.7484 1.3257, 0.5563 0.7484 1.3654, 0.5009 0.7484 1.3469, 0.4954 0.7484 1.3703, 0.3944 0.7484 1.3705, 0.392 0.7484 1.364, 0.3621 0.7484 1.4059, 0.3782 0.7484 1.3505, 0.3658 0.7484 1.4066, 0.3726 0.7484 1.4058, 0.3792 0.7484 1.4033, 0.3851 0.7484 1.3993, 0.39 0.7484 1.3938, 0.3934 0.7484 1.3872, 0.1903 0.748 1.4806, 0.1942 0.748 1.5098, 0.198 0.748 1.5197, 0.2054 0.748 1.5389, 0.2243 0.748 1.5662, 0.2497 0.748 1.5883, 0.2778 0.748 1.6027, 0.2842 0.748 1.6049, 0.3044 0.748 1.6441, 0.3355 0.748 1.6798, 0.3573 0.748 1.6945, 0.3778 0.748 1.7083, 0.4254 0.748 1.7251, 0.4645 0.748 1.7292, 0.5784 0.748 1.6922, 0.5746 0.748 1.6945, 0.5553 0.748 1.7065, 0.5116 0.748 1.7234, 0.6007 0.748 1.6731, 0.6201 0.748 1.6504, 0.631 0.748 1.6517, 0.6419 0.748 1.6523, 0.6744 0.748 1.6489, 0.7099 0.748 1.6364, 0.7418 0.748 1.6153, 0.751 0.748 1.6068, 0.7956 0.748 1.4986, 0.7713 0.748 1.5816, 0.7875 0.748 1.5481, 0.7933 0.748 1.5197, 0.7952 0.748 1.5107, 0.7922 0.748 1.4663, 0.7798 0.748 1.4307, 0.7599 0.748 1.4, 0.7558 0.748 1.3952, 0.7307 0.748 1.3731, 0.6971 0.748 1.3551, 0.6799 0.748 1.3497, 0.6787 0.748 1.3471, 0.6704 0.748 1.3293, 0.6563 0.748 1.3119, 0.6377 0.748 1.2979, 0.629 0.748 1.2942, 0.6159 0.748 1.2887, 0.5935 0.748 1.2852, 0.5897 0.748 1.2851, 0.4949 0.748 1.38, 0.5668 0.748 1.288, 0.5504 0.748 1.2942, 0.5457 0.748 1.2961, 0.5268 0.748 1.3092, 0.5121 0.748 1.3257, 0.5009 0.748 1.3469, 0.5008 0.748 1.3471, 0.4954 0.748 1.3703, 0.4949 0.748 1.3895, 0.362 0.748 1.4597, 0.3914 0.748 1.51, 0.5186 0.748 1.4436, 0.5351 0.748 1.4587, 0.5552 0.748 1.4695, 0.5781 0.748 1.4752, 0.5897 0.748 1.4758, 0.6123 0.748 1.4731, 0.6333 0.748 1.4651, 0.6527 0.748 1.4516, 0.6684 0.748 1.4337, 0.6789 0.748 1.4132, 0.6996 0.748 1.4259, 0.7166 0.748 1.4434, 0.728 0.748 1.4628, 0.7348 0.748 1.4861, 0.7359 0.748 1.5005, 0.7335 0.748 1.5197, 0.733 0.748 1.5234, 0.7249 0.748 1.5446, 0.7118 0.748 1.5635, 0.6953 0.748 1.5782, 0.6741 0.748 1.5894, 0.6507 0.748 1.5949, 0.641 0.748 1.5954, 0.619 0.748 1.5927, 0.5977 0.748 1.585, 0.5907 0.748 1.5812, 0.5776 0.748 1.6089, 0.5569 0.748 1.6347, 0.5307 0.748 1.6545, 0.4999 0.748 1.6674, 0.4683 0.748 1.6722, 0.4635 0.748 1.6723, 0.4337 0.748 1.6689, 0.4038 0.748 1.658, 0.3768 0.748 1.64, 0.3673 0.748 1.631, 0.3473 0.748 1.6042, 0.3344 0.748 1.5728, 0.3307 0.748 1.5537, 0.3231 0.748 1.5537, 0.3051 0.748 1.5514, 0.2886 0.748 1.5451, 0.2738 0.748 1.5348, 0.2628 0.748 1.5224, 0.2613 0.748 1.5197, 0.254 0.748 1.506, 0.2496 0.748 1.4878, 0.2491 0.748 1.4796, 0.2514 0.748 1.4612, 0.2579 0.748 1.4443, 0.2684 0.748 1.4295, 0.2697 0.748 1.428, 0.2838 0.748 1.4166, 0.3005 0.748 1.4089, 0.3174 0.748 1.4056, 0.3601 0.748 1.4056, 0.3621 0.748 1.4059, 0.3649 0.748 1.4065, 0.3658 0.748 1.4066, 0.3726 0.748 1.4058, 0.3792 0.748 1.4033, 0.3851 0.748 1.3993, 0.39 0.748 1.3938, 0.3934 0.748 1.3872, 0.3951 0.748 1.3799, 0.3952 0.748 1.3772, 0.3944 0.748 1.3705, 0.392 0.748 1.364, 0.388 0.748 1.358, 0.3845 0.748 1.3546, 0.3782 0.748 1.3505, 0.3718 0.748 1.3483, 0.3677 0.748 1.3478, 0.3117 0.748 1.3478, 0.2822 0.748 1.3538, 0.253 0.748 1.3674, 0.2281 0.748 1.3876, 0.2254 0.748 1.3905, 0.2076 0.748 1.4148, 0.1952 0.748 1.4445, 0.1904 0.748 1.4756, 0.5907 0.748 1.4161, 0.583 0.748 1.4153, 0.5742 0.748 1.4122, 0.5665 0.748 1.4071, 0.5604 0.748 1.4003, 0.5562 0.748 1.3925, 0.554 0.748 1.3838, 0.554 0.748 1.3745, 0.5563 0.748 1.3654, 0.5608 0.748 1.3573, 0.5671 0.748 1.3506, 0.5745 0.748 1.3458, 0.5829 0.748 1.3429, 0.5907 0.748 1.3421, 0.5988 0.748 1.343, 0.6076 0.748 1.3462, 0.6152 0.748 1.3513, 0.6212 0.748 1.3582, 0.6253 0.748 1.366, 0.6274 0.748 1.3747, 0.6274 0.748 1.3834, 0.6252 0.748 1.3925, 0.6207 0.748 1.4007, 0.6144 0.748 1.4074, 0.6068 0.748 1.4123, 0.5984 0.748 1.4152, 0.5984 0.748 1.4152
            ]
        }
        coordIndex [
            0,1,2,-1,3,4,5,-1,6,3,7,-1,7,3,8,-1,9,10,11,-1,11,10,12,-1,6,13,3,-1,3,13,14,-1,3,14,9,-1,9,14,15,-1,9,15,10,-1,16,17,2,-1,2,17,18,-1,2,18,0,-1,19,20,21,-1,22,23,24,-1,24,23,25,-1,24,25,26,-1,26,25,27,-1,26,27,28,-1,28,27,29,-1,30,31,32,-1,32,31,33,-1,32,33,34,-1,34,33,35,-1,34,35,36,-1,36,35,37,-1,36,37,38,-1,39,1,40,-1,40,1,41,-1,40,41,42,-1,19,21,43,-1,20,44,21,-1,21,44,45,-1,21,45,46,-1,46,45,47,-1,46,47,48,-1,48,47,49,-1,48,49,50,-1,50,49,2,-1,50,2,51,-1,52,53,54,-1,38,37,55,-1,55,37,56,-1,55,56,57,-1,58,59,60,-1,60,59,61,-1,60,61,24,-1,24,61,62,-1,24,62,22,-1,63,64,16,-1,16,64,65,-1,16,65,17,-1,66,67,68,-1,68,67,69,-1,68,69,70,-1,70,69,71,-1,70,71,72,-1,72,71,73,-1,72,73,63,-1,63,73,74,-1,63,74,64,-1,27,75,29,-1,29,75,76,-1,29,76,77,-1,77,76,78,-1,77,78,79,-1,79,78,80,-1,79,80,81,-1,81,80,82,-1,54,53,83,-1,83,53,84,-1,83,84,85,-1,85,84,86,-1,85,86,87,-1,87,86,88,-1,87,88,89,-1,89,88,90,-1,89,90,91,-1,91,90,92,-1,91,92,93,-1,93,92,94,-1,93,94,95,-1,95,94,96,-1,95,96,82,-1,82,96,97,-1,82,97,81,-1,30,32,98,-1,98,32,99,-1,98,99,100,-1,100,99,101,-1,100,101,102,-1,102,101,103,-1,102,103,104,-1,104,103,105,-1,104,105,106,-1,106,105,107,-1,106,107,108,-1,108,107,109,-1,108,109,110,-1,110,109,111,-1,110,111,66,-1,66,111,112,-1,66,112,67,-1,8,3,113,-1,113,3,5,-1,113,5,21,-1,21,5,114,-1,21,114,43,-1,115,116,117,-1,56,118,57,-1,57,118,119,-1,57,119,120,-1,120,119,121,-1,120,121,122,-1,122,121,123,-1,122,123,58,-1,58,123,124,-1,58,124,59,-1,39,125,1,-1,1,125,126,-1,1,126,2,-1,2,126,127,-1,2,127,51,-1,117,128,129,-1,41,130,42,-1,42,130,131,-1,42,131,132,-1,132,131,133,-1,132,133,134,-1,134,133,135,-1,134,135,136,-1,136,135,137,-1,136,137,138,-1,138,137,139,-1,138,139,140,-1,140,139,141,-1,140,141,142,-1,142,141,143,-1,142,143,12,-1,12,143,144,-1,12,144,11,-1,116,145,117,-1,117,145,146,-1,117,146,128,-1,54,147,52,-1,52,147,117,-1,52,117,148,-1,148,117,129,-1,117,149,115,-1,115,149,150,-1,115,150,151,-1,151,152,115,-1,115,152,153,-1,115,153,154,-1,81,155,156,-1,81,156,79,-1,79,156,157,-1,79,157,77,-1,157,158,77,-1,77,158,159,-1,77,159,29,-1,29,159,160,-1,29,160,28,-1,28,160,161,-1,28,161,26,-1,26,161,162,-1,26,162,24,-1,24,162,163,-1,24,163,60,-1,60,163,164,-1,60,164,58,-1,122,58,165,-1,165,58,164,-1,165,166,122,-1,122,166,167,-1,122,167,120,-1,120,167,168,-1,120,168,57,-1,169,36,170,-1,170,36,38,-1,170,38,171,-1,171,38,55,-1,171,55,172,-1,172,55,57,-1,172,57,168,-1,36,169,173,-1,36,173,34,-1,34,173,174,-1,34,174,32,-1,32,174,175,-1,32,175,99,-1,99,175,176,-1,99,176,101,-1,101,176,177,-1,101,177,103,-1,103,177,178,-1,103,178,105,-1,105,178,179,-1,105,179,107,-1,107,179,180,-1,107,180,109,-1,181,69,67,-1,109,180,182,-1,109,182,111,-1,111,182,183,-1,111,183,112,-1,112,183,184,-1,112,184,67,-1,67,184,185,-1,67,185,181,-1,69,181,186,-1,69,186,71,-1,71,186,187,-1,71,187,73,-1,73,187,188,-1,73,188,74,-1,74,188,189,-1,74,189,64,-1,64,189,190,-1,64,190,65,-1,65,190,191,-1,65,191,17,-1,17,191,192,-1,17,192,18,-1,18,192,193,-1,18,193,0,-1,193,194,0,-1,0,194,195,-1,0,195,1,-1,1,195,196,-1,1,196,41,-1,41,196,197,-1,41,197,130,-1,197,198,130,-1,130,198,199,-1,130,199,131,-1,131,199,200,-1,131,200,133,-1,201,11,144,-1,133,200,202,-1,133,202,135,-1,135,202,203,-1,135,203,137,-1,203,204,137,-1,137,204,205,-1,137,205,139,-1,139,205,206,-1,139,206,141,-1,141,206,207,-1,141,207,143,-1,143,207,208,-1,143,208,144,-1,144,208,209,-1,144,209,201,-1,9,11,210,-1,210,11,201,-1,3,9,211,-1,211,9,210,-1,4,3,212,-1,212,3,211,-1,5,4,213,-1,213,4,212,-1,5,213,214,-1,5,214,114,-1,114,214,215,-1,114,215,43,-1,43,215,216,-1,43,216,19,-1,19,216,217,-1,19,217,20,-1,20,217,218,-1,20,218,44,-1,44,218,219,-1,44,219,45,-1,45,219,220,-1,45,220,47,-1,47,220,221,-1,47,221,49,-1,49,221,222,-1,49,222,2,-1,2,222,223,-1,2,223,16,-1,16,223,224,-1,16,224,63,-1,63,224,225,-1,63,225,72,-1,72,225,226,-1,72,226,70,-1,70,226,227,-1,70,227,68,-1,66,68,228,-1,228,68,227,-1,228,229,66,-1,66,229,230,-1,66,230,110,-1,110,230,231,-1,110,231,108,-1,108,231,232,-1,108,232,106,-1,106,232,233,-1,106,233,104,-1,104,233,234,-1,104,234,102,-1,102,234,235,-1,102,235,100,-1,100,235,236,-1,100,236,98,-1,98,236,237,-1,98,237,30,-1,30,237,238,-1,30,238,31,-1,31,238,239,-1,31,239,33,-1,33,239,240,-1,33,240,35,-1,35,240,241,-1,35,241,37,-1,37,241,242,-1,37,242,56,-1,56,242,243,-1,56,243,118,-1,118,243,244,-1,118,244,119,-1,119,244,245,-1,119,245,121,-1,121,245,246,-1,121,246,123,-1,123,246,247,-1,123,247,124,-1,124,247,248,-1,124,248,59,-1,59,248,249,-1,59,249,61,-1,61,249,250,-1,61,250,62,-1,62,250,251,-1,62,251,22,-1,23,22,252,-1,252,22,251,-1,23,252,253,-1,23,253,25,-1,25,253,254,-1,25,254,27,-1,27,254,255,-1,27,255,75,-1,75,255,256,-1,75,256,76,-1,76,256,257,-1,76,257,78,-1,257,258,78,-1,78,258,259,-1,78,259,80,-1,80,259,260,-1,80,260,82,-1,82,260,261,-1,82,261,95,-1,95,261,262,-1,95,262,93,-1,93,262,263,-1,93,263,91,-1,91,263,264,-1,91,264,89,-1,89,264,265,-1,89,265,87,-1,87,265,266,-1,87,266,85,-1,85,266,267,-1,85,267,83,-1,54,83,268,-1,268,83,267,-1,54,268,269,-1,54,269,147,-1,147,269,270,-1,147,270,117,-1,117,270,271,-1,117,271,149,-1,149,271,272,-1,149,272,150,-1,150,272,273,-1,150,273,151,-1,151,273,274,-1,151,274,152,-1,152,274,275,-1,152,275,153,-1,153,275,276,-1,153,276,154,-1,154,276,277,-1,154,277,115,-1,115,277,278,-1,115,278,116,-1,116,278,279,-1,116,279,145,-1,145,279,280,-1,145,280,146,-1,146,280,281,-1,146,281,128,-1,128,281,282,-1,128,282,129,-1,129,282,283,-1,129,283,148,-1,148,283,284,-1,148,284,52,-1,52,284,285,-1,52,285,53,-1,84,53,286,-1,286,53,285,-1,84,286,287,-1,84,287,86,-1,86,287,288,-1,86,288,88,-1,88,288,289,-1,88,289,90,-1,90,289,290,-1,90,290,92,-1,92,290,291,-1,92,291,94,-1,94,291,292,-1,94,292,96,-1,96,292,293,-1,96,293,97,-1,97,293,155,-1,97,155,81,-1,8,294,295,-1,8,295,7,-1,7,295,296,-1,7,296,6,-1,6,296,297,-1,6,297,13,-1,13,297,298,-1,13,298,14,-1,14,298,299,-1,14,299,15,-1,15,299,300,-1,15,300,10,-1,10,300,301,-1,10,301,12,-1,12,301,302,-1,12,302,142,-1,142,302,303,-1,142,303,140,-1,140,303,304,-1,140,304,138,-1,138,304,305,-1,138,305,136,-1,136,305,306,-1,136,306,134,-1,134,306,307,-1,134,307,132,-1,132,307,308,-1,132,308,42,-1,42,308,309,-1,42,309,40,-1,40,309,310,-1,40,310,39,-1,39,310,311,-1,39,311,125,-1,125,311,312,-1,125,312,126,-1,126,312,313,-1,126,313,127,-1,127,313,314,-1,127,314,51,-1,51,314,315,-1,51,315,50,-1,50,315,316,-1,50,316,48,-1,48,316,317,-1,48,317,46,-1,46,317,318,-1,46,318,21,-1,21,318,319,-1,21,319,113,-1,113,319,294,-1,113,294,8,-1,
        ]
    }
}
Shape{
    appearance Appearance {
        material  Material 	{
            diffuseColor 0.2784313725490196 1.0 0.7607843137254902
            specularColor 0.1411764705882353 0.5019607843137255 0.3803921568627451
            ambientIntensity 0.2
            transparency 0
            shininess 0.5
        }
    }
    geometry IndexedFaceSet {
        ccw TRUE
        solid FALSE
        coord DEF co Coordinate {
            point [
                0.5984 0.748 1.4152, 0.5907 0.748 1.3421, 0.5907 0.748 1.4161, 0.5829 0.748 1.3429, 0.583 0.748 1.4153, 0.6207 0.748 1.4007, 0.6252 0.748 1.3925, 0.6274 0.748 1.3834, 0.6253 0.748 1.366, 0.6212 0.748 1.3582, 0.6152 0.748 1.3513, 0.5562 0.748 1.3925, 0.5604 0.748 1.4003, 0.5671 0.748 1.3506, 0.5665 0.748 1.4071, 0.6274 0.748 1.3747, 0.6068 0.748 1.4123, 0.6144 0.748 1.4074, 0.6076 0.748 1.3462, 0.5988 0.748 1.343, 0.5563 0.748 1.3654, 0.554 0.748 1.3745, 0.554 0.748 1.3838, 0.5745 0.748 1.3458, 0.5742 0.748 1.4122, 0.5608 0.748 1.3573, 0.5608 0.748 1.3573
            ]
        }
        coordIndex [
            0,1,2,-1,2,1,3,-1,2,3,4,-1,5,6,7,-1,8,9,0,-1,0,9,10,-1,11,12,13,-1,13,12,14,-1,8,0,15,-1,15,0,16,-1,15,16,7,-1,7,16,17,-1,7,17,5,-1,10,18,0,-1,0,18,19,-1,0,19,1,-1,20,21,22,-1,3,23,4,-1,4,23,13,-1,4,13,24,-1,24,13,14,-1,11,13,22,-1,22,13,25,-1,22,25,20,-1,
        ]
    }
}