#VRML V2.0 utf8
# 3D model generated by easyeda2kicad.py (https://github.com/uPesy/easyeda2kicad.py)

Shape{
    appearance Appearance {
        material  Material 	{
            diffuseColor 0.7019607843137254 0.7019607843137254 0.7019607843137254
            specularColor 0.050980392156862744 0.050980392156862744 0.050980392156862744
            ambientIntensity 0.2
            transparency 0
            shininess 0.5
        }
    }
    geometry IndexedFaceSet {
        ccw TRUE
        solid FALSE
        coord DEF co Coordinate {
            point [
                0.2011 -0.3827 0.4331, 0.2011 -0.4048 0.4331, 0.2111 -0.4048 0.4331, 0.3513 -0.5108 0.4331, 0.373 -0.5108 0.4331, 0.373 -0.4575 0.4331, 0.3064 -0.5108 0.4331, 0.3513 -0.4575 0.4331, 0.283 -0.5108 0.4331, 0.3064 -0.4575 0.4331, 0.2403 -0.4476 0.4331, 0.2399 -0.4476 0.4331, 0.2458 -0.4476 0.4331, 0.2511 -0.4524 0.4331, 0.2517 -0.4517 0.4331, 0.2517 -0.4476 0.4331, 0.2136 -0.4023 0.4331, 0.2132 -0.4013 0.4331, 0.2132 -0.4079 0.4331, 0.3064 -0.4079 0.4331, 0.2983 -0.4077 0.4331, 0.2947 -0.4077 0.4331, 0.2922 -0.4009 0.4331, 0.283 -0.4009 0.4331, 0.283 -0.4079 0.4331, 0.2888 -0.3827 0.4331, 0.3064 -0.3825 0.4331, 0.283 -0.3825 0.4331, 0.2818 -0.4009 0.4331, 0.2794 -0.4077 0.4331, 0.2751 -0.4079 0.4331, 0.2758 -0.4077 0.4331, 0.2751 -0.3825 0.4331, 0.283 -0.3888 0.4331, 0.2853 -0.3827 0.4331, 0.2298 -0.3862 0.4331, 0.2244 -0.4052 0.4331, 0.226 -0.4052 0.4331, 0.2179 -0.3881 0.4331, 0.2167 -0.3899 0.4331, 0.2155 -0.3964 0.4331, 0.2159 -0.3989 0.4331, 0.2249 -0.3852 0.4331, 0.2239 -0.3852 0.4331, 0.2181 -0.3879 0.4331, 0.2217 -0.3857 0.4331, 0.2198 -0.3866 0.4331, 0.2159 -0.3921 0.4331, 0.2155 -0.3955 0.4331, 0.2168 -0.401 0.4331, 0.218 -0.4026 0.4331, 0.2186 -0.4032 0.4331, 0.228 -0.3855 0.4331, 0.2203 -0.4043 0.4331, 0.2221 -0.405 0.4331, 0.2287 -0.4046 0.4331, 0.2298 -0.4041 0.4331, 0.2306 -0.3865 0.4331, 0.2308 -0.4036 0.4331, 0.2308 -0.3867 0.4331, 0.2344 -0.4079 0.4331, 0.2344 -0.3825 0.4331, 0.2276 -0.3825 0.4331, 0.2282 -0.3825 0.4331, 0.2298 -0.3825 0.4331, 0.2298 -0.383 0.4331, 0.2308 -0.3833 0.4331, 0.2132 -0.3825 0.4331, 0.2139 -0.3883 0.4331, 0.2157 -0.3859 0.4331, 0.2163 -0.3854 0.4331, 0.2187 -0.3837 0.4331, 0.2213 -0.3827 0.4331, 0.2117 -0.3825 0.4331, 0.2127 -0.3911 0.4331, 0.2132 -0.3899 0.4331, 0.2126 -0.3997 0.4331, 0.2117 -0.4079 0.4331, 0.2121 -0.3957 0.4331, 0.2122 -0.3944 0.4331, 0.2194 -0.4074 0.4331, 0.2171 -0.4062 0.4331, 0.2153 -0.4047 0.4331, 0.2151 -0.4045 0.4331, 0.2216 -0.4079 0.4331, 0.2132 -0.4152 0.4331, 0.2221 -0.408 0.4331, 0.2239 -0.4081 0.4331, 0.2298 -0.4152 0.4331, 0.2261 -0.4079 0.4331, 0.2308 -0.4067 0.4331, 0.2304 -0.4069 0.4331, 0.2298 -0.4079 0.4331, 0.2298 -0.4071 0.4331, 0.2277 -0.4078 0.4331, 0.2672 -0.4224 0.4331, 0.2751 -0.4224 0.4331, 0.2751 -0.4152 0.4331, 0.2751 -0.4476 0.4331, 0.2751 -0.4474 0.4331, 0.2672 -0.4474 0.4331, 0.2548 -0.443 0.4331, 0.2552 -0.4444 0.4331, 0.2553 -0.4444 0.4331, 0.2638 -0.4295 0.4331, 0.2517 -0.4152 0.4331, 0.2606 -0.4295 0.4331, 0.2517 -0.4339 0.4331, 0.2557 -0.443 0.4331, 0.2554 -0.4438 0.4331, 0.2517 -0.4423 0.4331, 0.2467 -0.4295 0.4331, 0.2458 -0.4152 0.4331, 0.2502 -0.4295 0.4331, 0.2537 -0.4474 0.4331, 0.2536 -0.4476 0.4331, 0.2523 -0.4506 0.4331, 0.2458 -0.4575 0.4331, 0.2473 -0.4556 0.4331, 0.2473 -0.4528 0.4331, 0.2517 -0.4553 0.4331, 0.2506 -0.4557 0.4331, 0.2517 -0.4575 0.4331, 0.2493 -0.4558 0.4331, 0.2486 -0.4558 0.4331, 0.2491 -0.4531 0.4331, 0.2498 -0.453 0.4331, 0.2505 -0.4528 0.4331, 0.2557 -0.4501 0.4331, 0.2543 -0.4529 0.4331, 0.2751 -0.4575 0.4331, 0.2567 -0.4476 0.4331, 0.2531 -0.4542 0.4331, 0.2529 -0.4544 0.4331, 0.2518 -0.4552 0.4331, 0.244 -0.4396 0.4331, 0.2446 -0.4404 0.4331, 0.2442 -0.433 0.4331, 0.2445 -0.4448 0.4331, 0.2439 -0.4456 0.4331, 0.2359 -0.43 0.4331, 0.2344 -0.4152 0.4331, 0.235 -0.4305 0.4331, 0.2344 -0.4311 0.4331, 0.2449 -0.4414 0.4331, 0.245 -0.4425 0.4331, 0.2449 -0.4438 0.4331, 0.2376 -0.4294 0.4331, 0.2399 -0.4291 0.4331, 0.2442 -0.4299 0.4331, 0.242 -0.4293 0.4331, 0.243 -0.4464 0.4331, 0.242 -0.447 0.4331, 0.2396 -0.4317 0.4331, 0.2387 -0.4317 0.4331, 0.2362 -0.4341 0.4331, 0.2379 -0.432 0.4331, 0.2372 -0.4323 0.4331, 0.2362 -0.4345 0.4331, 0.2364 -0.435 0.4331, 0.2366 -0.4354 0.4331, 0.2369 -0.4357 0.4331, 0.238 -0.4364 0.4331, 0.2417 -0.4319 0.4331, 0.2399 -0.4373 0.4331, 0.2435 -0.4326 0.4331, 0.2411 -0.4378 0.4331, 0.2432 -0.4389 0.4331, 0.2367 -0.4327 0.4331, 0.2364 -0.4331 0.4331, 0.2363 -0.4336 0.4331, 0.233 -0.4435 0.4331, 0.2298 -0.4476 0.4331, 0.2341 -0.4314 0.4331, 0.2335 -0.4322 0.4331, 0.2341 -0.4443 0.4331, 0.2344 -0.4444 0.4331, 0.2344 -0.4377 0.4331, 0.2339 -0.4372 0.4331, 0.2335 -0.4365 0.4331, 0.2331 -0.4356 0.4331, 0.233 -0.4343 0.4331, 0.2331 -0.4332 0.4331, 0.2344 -0.4377 0.4331, 0.2361 -0.445 0.4331, 0.2377 -0.4395 0.4331, 0.2359 -0.4387 0.4331, 0.2381 -0.4453 0.4331, 0.2382 -0.4453 0.4331, 0.2398 -0.4404 0.4331, 0.2399 -0.4451 0.4331, 0.2418 -0.4428 0.4331, 0.2418 -0.4425 0.4331, 0.2407 -0.4448 0.4331, 0.241 -0.4446 0.4331, 0.2413 -0.4443 0.4331, 0.2416 -0.4439 0.4331, 0.2417 -0.4434 0.4331, 0.2416 -0.442 0.4331, 0.2414 -0.4415 0.4331, 0.241 -0.4411 0.4331, 0.2359 -0.4476 0.4331, 0.235 -0.4475 0.4331, 0.2344 -0.4476 0.4331, 0.2344 -0.4473 0.4331, 0.233 -0.4468 0.4331, 0.2378 -0.4478 0.4331, 0.2344 -0.4575 0.4331, 0.2479 -0.453 0.4331, 0.2156 -0.4389 0.4331, 0.2161 -0.4338 0.4331, 0.215 -0.4398 0.4331, 0.2146 -0.4409 0.4331, 0.2132 -0.4476 0.4331, 0.2149 -0.4451 0.4331, 0.2145 -0.444 0.4331, 0.2166 -0.438 0.4331, 0.2179 -0.4374 0.4331, 0.218 -0.4326 0.4331, 0.2203 -0.4368 0.4331, 0.223 -0.4318 0.4331, 0.222 -0.4317 0.4331, 0.22 -0.4319 0.4331, 0.2169 -0.4471 0.4331, 0.2159 -0.4464 0.4331, 0.2155 -0.4461 0.4331, 0.2241 -0.4293 0.4331, 0.2254 -0.4297 0.4331, 0.2265 -0.4303 0.4331, 0.2273 -0.4311 0.4331, 0.228 -0.4321 0.4331, 0.2256 -0.4446 0.4331, 0.2255 -0.4446 0.4331, 0.2256 -0.4474 0.4331, 0.225 -0.4454 0.4331, 0.224 -0.4465 0.4331, 0.2285 -0.4335 0.4331, 0.2287 -0.4359 0.4331, 0.2287 -0.4474 0.4331, 0.2143 -0.4426 0.4331, 0.2144 -0.4422 0.4331, 0.2161 -0.4308 0.4331, 0.2168 -0.4304 0.4331, 0.2191 -0.4295 0.4331, 0.2222 -0.4291 0.4331, 0.2256 -0.436 0.4331, 0.2255 -0.4346 0.4331, 0.2251 -0.4335 0.4331, 0.2248 -0.4329 0.4331, 0.2243 -0.4324 0.4331, 0.2237 -0.432 0.4331, 0.2217 -0.4476 0.4331, 0.2216 -0.4476 0.4331, 0.2298 -0.4575 0.4331, 0.2132 -0.4575 0.4331, 0.22 -0.4478 0.4331, 0.2182 -0.4476 0.4331, 0.2181 -0.4476 0.4331, 0.1659 -0.4022 0.4331, 0.1708 -0.4063 0.4331, 0.1876 -0.3825 0.4331, 0.1876 -0.4079 0.4331, 0.1428 -0.3802 0.4331, 0.1462 -0.3825 0.4331, 0.1502 -0.3852 0.4331, 0.1561 -0.3921 0.4331, 0.1598 -0.3993 0.4331, 0.1607 -0.3996 0.4331, 0.1092 -0.3801 0.4331, 0.1175 -0.377 0.4331, -0.373 0.5108 0.4331, 0.1876 0.5108 0.4331, 0.126 -0.376 0.4331, 0.1339 -0.3769 0.4331, 0.1053 -0.3825 0.4331, -0.373 -0.3825 0.4331, 0.1046 -0.3829 0.4331, 0.0857 -0.3912 0.4331, 0.0927 -0.3904 0.4331, 0.1004 -0.3865 0.4331, 0.0948 -0.3905 0.4331, 0.0968 -0.3907 0.4331, 0.0722 -0.3989 0.4331, 0.0735 -0.3978 0.4331, 0.0791 -0.3938 0.4331, -0.373 -0.4079 0.4331, -0.373 -0.4152 0.4331, 0.0643 -0.4152 0.4331, 0.0651 -0.4108 0.4331, 0.0664 -0.4079 0.4331, 0.068 -0.4044 0.4331, 0.0833 -0.4465 0.4331, 0.0769 -0.4433 0.4331, -0.373 -0.4476 0.4331, 0.0714 -0.4386 0.4331, 0.0673 -0.4328 0.4331, 0.0647 -0.4262 0.4331, 0.0639 -0.4192 0.4331, 0.0639 -0.4175 0.4331, 0.0856 -0.4471 0.4331, 0.0858 -0.4476 0.4331, 0.0874 -0.4509 0.4331, 0.09 -0.4542 0.4331, 0.1876 -0.4575 0.4331, 0.1099 -0.4575 0.4331, 0.1876 -0.5108 0.4331, 0.1068 -0.4587 0.4331, 0.1025 -0.4592 0.4331, 0.1018 -0.4592 0.4331, -0.373 -0.5108 0.4331, 0.0976 -0.4586 0.4331, -0.373 -0.4575 0.4331, 0.0951 -0.4575 0.4331, 0.0935 -0.4568 0.4331, 0.1876 -0.4476 0.4331, 0.1192 -0.4476 0.4331, 0.1191 -0.4477 0.4331, 0.117 -0.4516 0.4331, 0.1143 -0.4547 0.4331, 0.1108 -0.4572 0.4331, 0.1766 -0.4168 0.4331, 0.1774 -0.4226 0.4331, 0.1876 -0.4152 0.4331, 0.1419 -0.4371 0.4331, 0.1431 -0.4366 0.4331, 0.1452 -0.4265 0.4331, 0.1708 -0.4395 0.4331, 0.166 -0.4436 0.4331, 0.1158 -0.4295 0.4331, 0.1397 -0.4171 0.4331, 0.1127 -0.4267 0.4331, 0.109 -0.4247 0.4331, 0.1408 -0.4379 0.4331, 0.1743 -0.4346 0.4331, 0.1663 -0.4212 0.4331, 0.1654 -0.4178 0.4331, 0.1641 -0.4152 0.4331, 0.0755 -0.4152 0.4331, 0.1766 -0.4289 0.4331, 0.1445 -0.4365 0.4331, 0.1447 -0.4365 0.4331, 0.1452 -0.4366 0.4331, 0.0766 -0.4259 0.4331, 0.0787 -0.4295 0.4331, 0.0877 -0.4314 0.4331, 0.0819 -0.4328 0.4331, 0.0858 -0.4352 0.4331, 0.0943 -0.4255 0.4331, 0.0907 -0.428 0.4331, 0.0751 -0.4188 0.4331, 0.0753 -0.4216 0.4331, 0.0982 -0.424 0.4331, 0.1025 -0.4235 0.4331, 0.1047 -0.4236 0.4331, 0.139 -0.442 0.4331, 0.139 -0.4413 0.4331, 0.1203 -0.4397 0.4331, 0.1394 -0.4399 0.4331, 0.1401 -0.4387 0.4331, 0.1628 -0.4322 0.4331, 0.1647 -0.4294 0.4331, 0.1659 -0.4262 0.4331, 0.1664 -0.4228 0.4331, 0.1431 -0.4473 0.4331, 0.1419 -0.4469 0.4331, 0.1408 -0.446 0.4331, 0.1404 -0.4456 0.4331, 0.1396 -0.4445 0.4331, 0.1391 -0.4433 0.4331, 0.1202 -0.4433 0.4331, 0.1203 -0.4414 0.4331, 0.1605 -0.4462 0.4331, 0.1546 -0.4475 0.4331, 0.1441 -0.4475 0.4331, 0.1455 -0.4366 0.4331, 0.1536 -0.4366 0.4331, 0.1568 -0.436 0.4331, 0.1599 -0.4346 0.4331, 0.1625 -0.4324 0.4331, 0.1511 -0.4089 0.4331, 0.0772 -0.4106 0.4331, 0.0756 -0.4145 0.4331, 0.1525 -0.4089 0.4331, 0.1638 -0.4147 0.4331, 0.1617 -0.4124 0.4331, 0.159 -0.4105 0.4331, 0.1559 -0.4093 0.4331, 0.1472 -0.3982 0.4331, 0.1432 -0.3934 0.4331, 0.1023 -0.4037 0.4331, 0.1428 -0.393 0.4331, 0.1378 -0.3895 0.4331, 0.105 -0.3981 0.4331, 0.079 -0.4079 0.4331, 0.1011 -0.403 0.4331, 0.1509 -0.4079 0.4331, 0.15 -0.4039 0.4331, 0.0971 -0.4016 0.4331, 0.0929 -0.401 0.4331, 0.091 -0.4011 0.4331, 0.109 -0.3933 0.4331, 0.1322 -0.3874 0.4331, 0.1138 -0.3898 0.4331, 0.1262 -0.3866 0.4331, 0.1196 -0.3875 0.4331, 0.0866 -0.4022 0.4331, 0.0827 -0.4043 0.4331, 0.0796 -0.407 0.4331, 0.172 -0.4079 0.4331, 0.1744 -0.4113 0.4331, 0.176 -0.4152 0.4331, 0.2806 -0.4474 0.4331, 0.283 -0.4476 0.4331, 0.2806 -0.4445 0.4331, 0.283 -0.4152 0.4331, 0.2801 -0.4224 0.4331, 0.2801 -0.4253 0.4331, 0.2704 -0.4361 0.4331, 0.2704 -0.4445 0.4331, 0.2751 -0.4361 0.4331, 0.2751 -0.4445 0.4331, 0.2794 -0.4361 0.4331, 0.2794 -0.4333 0.4331, 0.2704 -0.4253 0.4331, 0.2704 -0.4333 0.4331, 0.2751 -0.4253 0.4331, 0.2751 -0.4333 0.4331, 0.2517 -0.3825 0.4331, 0.2458 -0.3825 0.4331, 0.2487 -0.3827 0.4331, 0.2458 -0.3827 0.4331, 0.2391 -0.3964 0.4331, 0.2391 -0.4048 0.4331, 0.2458 -0.3964 0.4331, 0.2458 -0.4048 0.4331, 0.248 -0.3964 0.4331, 0.2493 -0.4048 0.4331, 0.248 -0.3936 0.4331, 0.2487 -0.3856 0.4331, 0.2458 -0.3936 0.4331, 0.2458 -0.3856 0.4331, 0.2391 -0.3936 0.4331, 0.2391 -0.3856 0.4331, 0.2517 -0.4079 0.4331, 0.2493 -0.4077 0.4331, 0.2458 -0.4079 0.4331, 0.2458 -0.4077 0.4331, 0.2359 -0.4077 0.4331, 0.2359 -0.3827 0.4331, 0.283 -0.4575 0.4331, 0.2751 -0.5108 0.4331, 0.2517 -0.5108 0.4331, 0.2458 -0.5108 0.4331, 0.2344 -0.5108 0.4331, 0.2298 -0.5108 0.4331, 0.2132 -0.5108 0.4331, 0.2229 -0.4472 0.4331, 0.3513 -0.4476 0.4331, 0.3064 -0.4476 0.4331, 0.1979 -0.4224 0.4331, 0.1979 -0.4474 0.4331, 0.2117 -0.4476 0.4331, 0.2117 -0.4575 0.4331, 0.2117 -0.5108 0.4331, 0.2108 -0.4224 0.4331, 0.2117 -0.4152 0.4331, 0.2108 -0.4253 0.4331, 0.2113 -0.4445 0.4331, 0.2113 -0.4474 0.4331, 0.2011 -0.4361 0.4331, 0.2011 -0.4445 0.4331, 0.2101 -0.4361 0.4331, 0.2101 -0.4333 0.4331, 0.2011 -0.4333 0.4331, 0.2011 -0.4253 0.4331, 0.2854 -0.4474 0.4331, 0.3049 -0.4395 0.4331, 0.3036 -0.442 0.4331, 0.2965 -0.4469 0.4331, 0.2923 -0.4474 0.4331, 0.3044 -0.4287 0.4331, 0.3053 -0.4311 0.4331, 0.3064 -0.4152 0.4331, 0.3057 -0.4346 0.4331, 0.3056 -0.4367 0.4331, 0.302 -0.4439 0.4331, 0.2993 -0.4458 0.4331, 0.2854 -0.4224 0.4331, 0.2925 -0.4224 0.4331, 0.2963 -0.4228 0.4331, 0.2994 -0.4239 0.4331, 0.302 -0.4257 0.4331, 0.3029 -0.4266 0.4331, 0.3107 -0.4474 0.4331, 0.3071 -0.4474 0.4331, 0.3261 -0.4474 0.4331, 0.3235 -0.4406 0.4331, 0.3131 -0.4406 0.4331, 0.3167 -0.4224 0.4331, 0.3201 -0.4224 0.4331, 0.1979 -0.4077 0.4331, 0.1979 -0.3827 0.4331, 0.2111 -0.4077 0.4331, 0.2731 -0.389 0.4331, 0.274 -0.3914 0.4331, 0.2744 -0.3949 0.4331, 0.2743 -0.397 0.4331, 0.2736 -0.3998 0.4331, 0.2723 -0.4023 0.4331, 0.2706 -0.4042 0.4331, 0.268 -0.4061 0.4331, 0.2612 -0.3827 0.4331, 0.265 -0.3831 0.4331, 0.268 -0.3842 0.4331, 0.2651 -0.4072 0.4331, 0.2609 -0.4077 0.4331, 0.254 -0.4077 0.4331, 0.254 -0.3827 0.4331, 0.2706 -0.386 0.4331, 0.2715 -0.3869 0.4331, 0.3297 -0.4474 0.4331, 0.3513 -0.4152 0.4331, 0.3513 -0.4079 0.4331, 0.3513 -0.3825 0.4331, 0.373 -0.4476 0.4331, 0.373 -0.4152 0.4331, 0.373 -0.4079 0.4331, 0.373 -0.3825 0.4331, 0.2232 -0.3825 0.4331, 0.2132 0.5108 0.4331, 0.2117 0.5108 0.4331, 0.373 0.5108 0.4331, 0.3513 0.5108 0.4331, 0.3064 0.5108 0.4331, 0.283 0.5108 0.4331, 0.2751 0.5108 0.4331, 0.2517 0.5108 0.4331, 0.2458 0.5108 0.4331, 0.2344 0.5108 0.4331, 0.2298 0.5108 0.4331, 0.2249 -0.3823 0.4331, 0.6299 -0.0791 0.1969, 0.6299 -0.0791 0.0, 0.6299 0.0791 0.1969, 0.6299 0.0791 0.0, 0.6299 0.5315 0.0, 0.6299 0.5315 0.1969, 0.6299 0.472 0.0, 0.6299 0.472 0.1969, 0.4134 -0.472 0.0, 0.6299 -0.472 0.0, 0.6299 -0.5315 0.0, -0.6299 0.5315 0.0, 0.4134 0.472 0.0, 0.4134 0.0791 0.0, -0.4134 -0.472 0.0, -0.4134 -0.0791 0.0, -0.4953 -0.0385 0.0, -0.4861 -0.0315 0.0, -0.6299 -0.5315 0.0, -0.6299 -0.472 0.0, 0.4134 -0.0791 0.0, -0.6299 0.472 0.0, -0.4134 0.472 0.0, -0.4134 0.0791 0.0, -0.5605 -0.0115 0.0, -0.6299 -0.0791 0.0, -0.5621 0.0 0.0, -0.6299 0.0791 0.0, -0.5605 0.0115 0.0, -0.5561 -0.0222 0.0, -0.549 -0.0315 0.0, -0.5398 -0.0385 0.0, -0.5398 0.0385 0.0, -0.549 0.0315 0.0, -0.5561 0.0222 0.0, -0.479 -0.0222 0.0, -0.4746 -0.0115 0.0, -0.4731 0.0 0.0, -0.4746 0.0115 0.0, -0.5291 -0.043 0.0, -0.5176 -0.0445 0.0, -0.506 -0.043 0.0, -0.479 0.0222 0.0, -0.4861 0.0315 0.0, -0.4953 0.0385 0.0, -0.506 0.043 0.0, -0.5176 0.0445 0.0, -0.5291 0.043 0.0, 0.4134 0.472 0.1969, 0.3937 0.5315 0.1969, 0.4134 0.0791 0.1969, 0.6299 -0.5315 0.1969, 0.6299 -0.472 0.1969, 0.3937 -0.5315 0.1969, 0.4134 -0.472 0.1969, 0.4134 -0.0791 0.1969, -0.6299 0.0791 0.1969, -0.6299 -0.0791 0.1969, -0.6299 -0.5315 0.1969, -0.6299 -0.472 0.1969, -0.4746 0.0115 0.1969, -0.4731 0.0 0.1969, -0.4134 0.0791 0.1969, -0.3937 0.5315 0.1969, -0.6299 0.5315 0.1969, -0.6299 0.472 0.1969, -0.4134 -0.472 0.1969, -0.3937 -0.5315 0.1969, -0.4134 -0.0791 0.1969, -0.4134 0.472 0.1969, -0.4746 -0.0115 0.1969, -0.479 -0.0222 0.1969, -0.4861 -0.0315 0.1969, -0.4953 -0.0385 0.1969, -0.5398 -0.0385 0.1969, -0.549 -0.0315 0.1969, -0.5561 -0.0222 0.1969, -0.5605 -0.0115 0.1969, -0.5621 0.0 0.1969, -0.5605 0.0115 0.1969, -0.5561 0.0222 0.1969, -0.549 0.0315 0.1969, -0.5398 0.0385 0.1969, -0.506 -0.043 0.1969, -0.5176 -0.0445 0.1969, -0.5291 -0.043 0.1969, -0.5291 0.043 0.1969, -0.5176 0.0445 0.1969, -0.506 0.043 0.1969, -0.4953 0.0385 0.1969, -0.4861 0.0315 0.1969, -0.479 0.0222 0.1969, -0.479 0.0222 0.1969
            ]
        }
        coordIndex [
            0,1,2,-1,3,4,5,-1,6,3,7,-1,8,6,9,-1,10,11,12,-1,13,14,15,-1,16,17,18,-1,19,20,21,-1,22,23,21,-1,21,23,24,-1,21,24,19,-1,20,19,25,-1,25,19,26,-1,25,26,27,-1,23,28,24,-1,24,28,29,-1,24,29,30,-1,30,29,31,-1,30,31,32,-1,32,31,33,-1,32,33,27,-1,27,33,34,-1,27,34,25,-1,35,36,37,-1,35,38,39,-1,35,40,41,-1,42,43,44,-1,44,43,45,-1,44,45,46,-1,39,47,35,-1,35,47,48,-1,35,48,40,-1,41,49,35,-1,35,49,50,-1,35,50,51,-1,38,35,44,-1,44,35,52,-1,44,52,42,-1,51,53,35,-1,35,53,54,-1,35,54,36,-1,37,55,35,-1,35,55,56,-1,35,56,57,-1,57,56,58,-1,57,58,59,-1,59,58,60,-1,59,60,61,-1,62,63,64,-1,64,63,65,-1,64,65,61,-1,61,65,66,-1,61,66,59,-1,67,68,69,-1,69,70,67,-1,67,70,71,-1,67,71,72,-1,73,74,67,-1,67,74,75,-1,67,75,68,-1,17,76,77,-1,77,76,78,-1,77,78,73,-1,73,78,79,-1,73,79,74,-1,18,80,81,-1,81,82,18,-1,18,82,83,-1,18,83,16,-1,80,18,84,-1,84,18,85,-1,84,85,86,-1,86,85,87,-1,87,85,88,-1,87,88,89,-1,58,90,60,-1,60,90,91,-1,60,91,92,-1,92,91,93,-1,92,93,94,-1,95,96,97,-1,98,99,100,-1,101,102,103,-1,104,105,106,-1,106,105,107,-1,106,107,108,-1,108,107,101,-1,108,101,109,-1,109,101,103,-1,15,110,12,-1,12,110,111,-1,12,111,112,-1,112,111,105,-1,105,111,113,-1,105,113,107,-1,114,110,115,-1,115,110,15,-1,115,15,116,-1,116,15,14,-1,117,118,119,-1,120,121,122,-1,122,121,123,-1,122,123,117,-1,117,123,124,-1,117,124,118,-1,125,126,15,-1,15,126,127,-1,15,127,13,-1,128,129,130,-1,128,130,131,-1,129,132,130,-1,130,132,133,-1,130,133,122,-1,122,133,134,-1,122,134,120,-1,135,136,137,-1,12,138,139,-1,140,141,142,-1,142,141,143,-1,144,145,12,-1,12,145,146,-1,12,146,138,-1,140,147,141,-1,141,147,148,-1,141,148,112,-1,136,144,137,-1,137,144,12,-1,137,12,149,-1,149,12,112,-1,149,112,150,-1,150,112,148,-1,139,151,12,-1,12,151,152,-1,12,152,10,-1,153,154,155,-1,155,154,156,-1,155,156,157,-1,155,158,153,-1,153,158,159,-1,153,159,160,-1,160,161,153,-1,153,161,162,-1,153,162,163,-1,163,162,164,-1,163,164,165,-1,165,164,166,-1,165,166,137,-1,137,166,167,-1,137,167,135,-1,168,169,157,-1,157,169,170,-1,157,170,155,-1,171,88,172,-1,143,141,173,-1,173,141,88,-1,173,88,174,-1,175,176,177,-1,178,179,171,-1,179,180,171,-1,171,180,181,-1,171,181,88,-1,88,181,182,-1,88,182,174,-1,175,177,171,-1,171,177,183,-1,171,183,178,-1,184,185,176,-1,176,185,186,-1,176,186,177,-1,184,187,185,-1,185,187,188,-1,185,188,189,-1,189,188,190,-1,189,191,192,-1,190,193,189,-1,189,193,194,-1,189,194,195,-1,195,196,189,-1,189,196,197,-1,189,197,191,-1,192,198,189,-1,189,198,199,-1,189,199,200,-1,201,202,203,-1,203,202,204,-1,203,204,172,-1,172,204,205,-1,172,205,171,-1,206,207,11,-1,11,207,117,-1,11,117,12,-1,12,117,119,-1,12,119,15,-1,15,119,208,-1,15,208,125,-1,209,210,211,-1,211,210,212,-1,213,214,215,-1,209,216,210,-1,210,216,217,-1,210,217,218,-1,218,217,219,-1,220,221,219,-1,219,221,222,-1,219,222,218,-1,223,224,213,-1,213,224,225,-1,213,225,214,-1,226,227,88,-1,227,228,88,-1,88,228,229,-1,88,229,230,-1,231,232,233,-1,233,232,234,-1,233,234,235,-1,230,236,88,-1,88,236,237,-1,88,237,172,-1,172,237,238,-1,172,238,233,-1,215,239,213,-1,213,239,240,-1,213,240,85,-1,85,240,212,-1,85,212,241,-1,241,212,210,-1,241,242,85,-1,85,242,243,-1,85,243,88,-1,88,243,244,-1,88,244,226,-1,245,246,219,-1,219,246,247,-1,219,247,248,-1,248,249,219,-1,219,249,250,-1,219,250,220,-1,251,252,253,-1,253,252,254,-1,252,255,254,-1,254,255,256,-1,254,256,213,-1,213,256,257,-1,213,257,223,-1,258,259,260,-1,260,259,261,-1,262,263,260,-1,260,263,264,-1,260,264,265,-1,265,266,260,-1,260,266,267,-1,260,267,258,-1,268,269,270,-1,270,269,271,-1,271,269,272,-1,271,272,273,-1,268,270,274,-1,274,270,275,-1,274,275,276,-1,275,277,276,-1,276,277,278,-1,276,278,279,-1,279,278,280,-1,279,280,281,-1,282,283,275,-1,275,283,284,-1,275,284,277,-1,285,286,287,-1,287,288,285,-1,285,288,289,-1,285,289,275,-1,275,289,290,-1,275,290,282,-1,291,292,293,-1,293,292,294,-1,293,294,295,-1,295,296,293,-1,293,296,297,-1,293,297,286,-1,286,297,298,-1,286,298,287,-1,299,291,300,-1,300,291,293,-1,300,293,301,-1,301,293,302,-1,303,304,305,-1,305,304,306,-1,306,307,305,-1,305,307,308,-1,305,308,309,-1,309,308,310,-1,309,310,311,-1,311,310,312,-1,311,312,293,-1,293,312,313,-1,293,313,302,-1,314,315,303,-1,303,315,316,-1,303,316,317,-1,317,318,303,-1,303,318,319,-1,303,319,304,-1,320,321,322,-1,323,324,325,-1,326,327,314,-1,328,329,330,-1,330,329,331,-1,323,325,332,-1,326,314,333,-1,334,335,329,-1,329,335,336,-1,329,336,337,-1,322,321,314,-1,314,321,338,-1,314,338,333,-1,324,339,325,-1,325,339,340,-1,325,340,341,-1,342,343,344,-1,344,343,345,-1,344,345,346,-1,347,337,348,-1,348,337,349,-1,348,349,344,-1,344,349,350,-1,344,350,342,-1,347,351,337,-1,337,351,352,-1,337,352,329,-1,329,352,353,-1,329,353,331,-1,354,355,356,-1,356,355,357,-1,356,357,325,-1,325,357,358,-1,325,358,332,-1,359,360,325,-1,325,360,361,-1,325,361,329,-1,329,361,362,-1,329,362,334,-1,363,364,315,-1,315,364,365,-1,315,365,366,-1,366,367,315,-1,315,367,368,-1,315,368,369,-1,369,368,354,-1,369,354,370,-1,370,354,356,-1,327,371,314,-1,314,371,372,-1,314,372,315,-1,315,372,373,-1,315,373,363,-1,341,374,325,-1,325,374,375,-1,325,375,376,-1,376,377,325,-1,325,377,378,-1,325,378,359,-1,379,380,381,-1,381,337,379,-1,379,337,336,-1,379,336,382,-1,382,336,383,-1,383,384,382,-1,382,384,385,-1,382,385,386,-1,387,388,389,-1,388,390,389,-1,389,390,391,-1,389,391,392,-1,393,389,394,-1,380,379,393,-1,393,379,395,-1,393,395,389,-1,389,395,396,-1,389,396,387,-1,394,397,393,-1,393,397,398,-1,393,398,399,-1,392,391,400,-1,400,391,401,-1,400,401,402,-1,402,401,403,-1,402,403,404,-1,405,406,399,-1,399,406,407,-1,399,407,393,-1,259,408,261,-1,261,408,409,-1,261,409,322,-1,322,409,410,-1,322,410,320,-1,99,98,411,-1,411,98,412,-1,411,412,413,-1,97,96,414,-1,414,96,415,-1,414,415,416,-1,417,418,419,-1,419,418,420,-1,419,420,421,-1,421,420,413,-1,421,413,422,-1,423,424,425,-1,425,424,426,-1,425,426,416,-1,427,428,429,-1,429,428,430,-1,431,432,433,-1,433,432,434,-1,433,434,435,-1,435,434,436,-1,435,436,437,-1,437,436,438,-1,437,438,439,-1,439,438,440,-1,439,440,441,-1,441,440,442,-1,429,438,427,-1,427,438,436,-1,427,436,443,-1,443,436,444,-1,443,444,445,-1,445,444,446,-1,445,446,447,-1,430,428,448,-1,448,428,61,-1,448,61,447,-1,447,61,60,-1,447,60,445,-1,8,449,450,-1,450,449,130,-1,450,130,451,-1,451,130,122,-1,451,122,452,-1,452,122,117,-1,452,117,453,-1,453,117,207,-1,453,207,454,-1,454,207,253,-1,454,253,455,-1,455,253,254,-1,206,201,207,-1,207,201,203,-1,207,203,253,-1,253,203,172,-1,253,172,251,-1,251,172,233,-1,251,233,456,-1,456,233,235,-1,449,412,130,-1,130,412,98,-1,130,98,131,-1,131,98,100,-1,131,100,104,-1,104,100,95,-1,104,95,105,-1,105,95,97,-1,6,7,9,-1,9,7,457,-1,9,457,458,-1,459,322,460,-1,460,322,314,-1,460,314,461,-1,461,314,303,-1,461,303,462,-1,462,303,305,-1,462,305,463,-1,459,464,465,-1,464,466,465,-1,465,466,467,-1,465,467,461,-1,461,467,468,-1,461,468,460,-1,469,470,471,-1,471,470,467,-1,471,467,472,-1,472,467,466,-1,472,466,473,-1,473,466,474,-1,426,422,416,-1,416,422,413,-1,416,413,414,-1,414,413,412,-1,414,412,475,-1,458,476,477,-1,458,478,479,-1,480,481,482,-1,482,481,483,-1,482,483,458,-1,458,483,484,-1,458,484,476,-1,477,485,458,-1,458,485,486,-1,458,486,478,-1,8,9,449,-1,449,9,458,-1,449,458,412,-1,412,458,479,-1,412,479,475,-1,475,487,414,-1,414,487,488,-1,414,488,482,-1,482,488,489,-1,482,489,490,-1,490,491,482,-1,482,491,492,-1,482,492,480,-1,493,494,458,-1,495,496,497,-1,458,494,482,-1,482,494,498,-1,482,498,499,-1,17,77,18,-1,18,77,465,-1,18,465,85,-1,85,465,461,-1,85,461,213,-1,213,461,462,-1,213,462,254,-1,254,462,463,-1,254,463,455,-1,482,19,414,-1,414,19,24,-1,414,24,97,-1,97,24,30,-1,97,30,105,-1,105,30,443,-1,105,443,112,-1,112,443,445,-1,112,445,141,-1,141,445,60,-1,141,60,88,-1,88,60,92,-1,88,92,89,-1,89,92,94,-1,459,465,322,-1,322,465,77,-1,322,77,261,-1,261,77,500,-1,261,500,260,-1,500,501,260,-1,260,501,0,-1,260,0,73,-1,73,0,2,-1,73,2,77,-1,77,2,502,-1,77,502,500,-1,503,504,32,-1,32,504,505,-1,32,505,30,-1,30,505,506,-1,30,506,507,-1,507,508,30,-1,30,508,509,-1,30,509,510,-1,427,511,32,-1,32,511,512,-1,32,512,513,-1,510,514,30,-1,30,514,515,-1,30,515,443,-1,443,515,516,-1,443,516,427,-1,427,516,517,-1,427,517,511,-1,513,518,32,-1,32,518,519,-1,32,519,503,-1,497,493,495,-1,495,493,458,-1,495,458,520,-1,520,458,457,-1,520,457,499,-1,499,457,521,-1,499,521,482,-1,482,521,522,-1,482,522,19,-1,19,522,523,-1,19,523,26,-1,3,5,7,-1,7,5,524,-1,7,524,457,-1,457,524,525,-1,457,525,521,-1,521,525,526,-1,521,526,522,-1,522,526,527,-1,522,527,523,-1,72,528,67,-1,67,528,529,-1,67,529,73,-1,73,529,530,-1,73,530,260,-1,260,530,271,-1,260,271,262,-1,262,271,273,-1,527,531,523,-1,523,531,532,-1,523,532,26,-1,26,532,533,-1,26,533,27,-1,27,533,534,-1,27,534,32,-1,32,534,535,-1,32,535,427,-1,427,535,536,-1,427,536,428,-1,428,536,537,-1,428,537,61,-1,61,537,538,-1,61,538,64,-1,64,538,539,-1,64,539,62,-1,62,539,529,-1,62,529,540,-1,540,529,528,-1,541,542,543,-1,543,542,544,-1,545,546,547,-1,547,546,548,-1,549,550,551,-1,552,545,553,-1,553,545,547,-1,554,555,553,-1,553,555,556,-1,557,558,556,-1,559,560,555,-1,551,559,549,-1,549,559,555,-1,549,555,561,-1,561,555,554,-1,561,554,542,-1,542,554,544,-1,562,552,563,-1,563,552,553,-1,563,553,564,-1,564,553,556,-1,565,566,567,-1,567,566,568,-1,567,568,569,-1,565,570,566,-1,566,570,571,-1,566,571,572,-1,573,574,568,-1,568,574,575,-1,568,575,569,-1,558,576,556,-1,556,576,577,-1,556,577,564,-1,564,577,578,-1,564,578,579,-1,572,580,566,-1,566,580,581,-1,566,581,556,-1,556,581,582,-1,556,582,557,-1,579,583,564,-1,564,583,584,-1,564,584,585,-1,585,586,564,-1,564,586,587,-1,564,587,568,-1,568,587,588,-1,568,588,573,-1,548,546,589,-1,589,546,590,-1,589,590,591,-1,592,593,594,-1,594,593,595,-1,594,595,596,-1,541,543,596,-1,596,543,591,-1,596,591,594,-1,594,591,590,-1,593,592,550,-1,550,592,551,-1,597,568,598,-1,598,568,566,-1,559,599,560,-1,560,599,600,-1,601,602,603,-1,604,605,606,-1,600,599,607,-1,607,599,608,-1,607,608,609,-1,609,608,604,-1,606,610,604,-1,604,610,603,-1,604,603,609,-1,609,603,602,-1,609,602,611,-1,611,612,609,-1,609,612,613,-1,609,613,614,-1,615,616,598,-1,616,617,598,-1,598,617,618,-1,598,618,597,-1,597,618,619,-1,597,619,620,-1,620,621,597,-1,597,621,622,-1,597,622,623,-1,614,624,609,-1,609,624,625,-1,609,625,598,-1,598,625,626,-1,598,626,615,-1,623,627,597,-1,597,627,628,-1,597,628,603,-1,603,628,629,-1,603,629,630,-1,630,631,603,-1,603,631,632,-1,603,632,601,-1,606,605,562,-1,562,605,552,-1,552,605,604,-1,552,604,545,-1,545,604,590,-1,545,590,546,-1,551,592,594,-1,551,594,559,-1,559,594,608,-1,559,608,599,-1,531,4,590,-1,590,4,594,-1,270,531,604,-1,604,531,590,-1,309,270,608,-1,608,270,604,-1,4,309,594,-1,594,309,608,-1,
        ]
    }
}
Shape{
    appearance Appearance {
        material  Material 	{
            diffuseColor 0.8274509803921568 0.6666666666666666 0.12941176470588237
            specularColor 0.8274509803921568 0.6666666666666666 0.12941176470588237
            ambientIntensity 0.2
            transparency 0
            shininess 0.5
        }
    }
    geometry IndexedFaceSet {
        ccw TRUE
        solid FALSE
        coord DEF co Coordinate {
            point [
                -0.4134 0.0791 0.1969, -0.4134 0.0791 0.2047, -0.6299 0.0791 0.1969, -0.6303 0.0791 0.2047, -0.6299 0.0791 0.0, -0.6303 0.0791 -0.0079, -0.4134 0.0791 0.0, -0.4134 0.0791 -0.0079, -0.4134 0.472 0.0, -0.4134 0.472 -0.0079, -0.6299 0.472 0.0, -0.6303 0.472 -0.0079, -0.6299 0.472 0.1969, -0.6303 0.472 0.2047, -0.4134 0.472 0.1969, -0.4134 0.472 0.2047, -0.6303 0.1579 0.2047, -0.6303 0.1579 -0.0079, -0.6299 0.1579 0.2047, -0.6299 0.1579 -0.0079, -0.5995 0.1619 -0.0079, -0.5995 0.1619 0.2047, -0.5711 0.1736 -0.0079, -0.5711 0.1736 0.2047, -0.5467 0.1924 -0.0079, -0.5467 0.1924 0.2047, -0.528 0.2167 -0.0079, -0.528 0.2167 0.2047, -0.5162 0.2451 -0.0079, -0.5162 0.2451 0.2047, -0.5122 0.2756 -0.0079, -0.5122 0.2756 0.2047, -0.5162 0.3061 -0.0079, -0.5162 0.3061 0.2047, -0.528 0.3344 -0.0079, -0.528 0.3344 0.2047, -0.5467 0.3588 -0.0079, -0.5467 0.3588 0.2047, -0.5711 0.3775 -0.0079, -0.5711 0.3775 0.2047, -0.5995 0.3893 -0.0079, -0.5995 0.3893 0.2047, -0.6299 0.3933 -0.0079, -0.6299 0.3933 0.2047, -0.6303 0.3933 0.2047, -0.6303 0.3933 -0.0079, -0.4134 -0.0791 0.1969, -0.4134 -0.0791 0.2047, -0.4134 -0.472 0.1969, -0.4134 -0.472 0.2047, -0.6299 -0.472 0.1969, -0.6303 -0.472 0.2047, -0.6299 -0.472 0.0, -0.6303 -0.472 -0.0079, -0.4134 -0.472 0.0, -0.4134 -0.472 -0.0079, -0.4134 -0.0791 0.0, -0.4134 -0.0791 -0.0079, -0.6299 -0.0791 0.0, -0.6303 -0.0791 -0.0079, -0.6299 -0.0791 0.1969, -0.6303 -0.0791 0.2047, -0.6303 -0.3933 0.2047, -0.6303 -0.3933 -0.0079, -0.6299 -0.3933 0.2047, -0.6299 -0.3933 -0.0079, -0.5995 -0.3893 -0.0079, -0.5995 -0.3893 0.2047, -0.5711 -0.3775 -0.0079, -0.5711 -0.3775 0.2047, -0.5467 -0.3588 -0.0079, -0.5467 -0.3588 0.2047, -0.528 -0.3344 -0.0079, -0.528 -0.3344 0.2047, -0.5162 -0.3061 -0.0079, -0.5162 -0.3061 0.2047, -0.5122 -0.2756 -0.0079, -0.5122 -0.2756 0.2047, -0.5162 -0.2451 -0.0079, -0.5162 -0.2451 0.2047, -0.528 -0.2167 -0.0079, -0.528 -0.2167 0.2047, -0.5467 -0.1924 -0.0079, -0.5467 -0.1924 0.2047, -0.5711 -0.1736 -0.0079, -0.5711 -0.1736 0.2047, -0.5995 -0.1619 -0.0079, -0.5995 -0.1619 0.2047, -0.6299 -0.1579 -0.0079, -0.6299 -0.1579 0.2047, -0.6303 -0.1579 0.2047, -0.6303 -0.1579 -0.0079, 0.4134 -0.472 0.2047, 0.4134 -0.0791 0.2047, 0.4134 -0.472 0.1969, 0.4134 -0.0791 0.1969, 0.6299 -0.0791 0.1969, 0.6303 -0.0791 0.2047, 0.6299 -0.0791 0.0, 0.6303 -0.0791 -0.0079, 0.4134 -0.0791 0.0, 0.4134 -0.0791 -0.0079, 0.6303 -0.1579 0.2047, 0.6303 -0.1579 -0.0079, 0.6299 -0.1579 0.2047, 0.6299 -0.1579 -0.0079, 0.5995 -0.1619 -0.0079, 0.5995 -0.1619 0.2047, 0.5711 -0.1736 -0.0079, 0.5711 -0.1736 0.2047, 0.5467 -0.1924 -0.0079, 0.5467 -0.1924 0.2047, 0.528 -0.2167 -0.0079, 0.528 -0.2167 0.2047, 0.5162 -0.2451 -0.0079, 0.5162 -0.2451 0.2047, 0.5122 -0.2756 -0.0079, 0.5122 -0.2756 0.2047, 0.5162 -0.3061 -0.0079, 0.5162 -0.3061 0.2047, 0.528 -0.3344 -0.0079, 0.528 -0.3344 0.2047, 0.5467 -0.3588 -0.0079, 0.5467 -0.3588 0.2047, 0.5711 -0.3775 -0.0079, 0.5711 -0.3775 0.2047, 0.5995 -0.3893 -0.0079, 0.5995 -0.3893 0.2047, 0.6299 -0.3933 -0.0079, 0.6299 -0.3933 0.2047, 0.6303 -0.3933 0.2047, 0.6303 -0.3933 -0.0079, 0.6303 -0.472 0.2047, 0.6303 -0.472 -0.0079, 0.4134 -0.472 0.0, 0.4134 -0.472 -0.0079, 0.6299 -0.472 0.0, 0.6299 -0.472 0.1969, 0.4134 0.0791 0.1969, 0.4134 0.0791 0.2047, 0.4134 0.472 0.1969, 0.4134 0.472 0.2047, 0.4134 0.472 -0.0079, 0.4134 0.0791 -0.0079, 0.4134 0.472 0.0, 0.4134 0.0791 0.0, 0.6299 0.472 0.1969, 0.6303 0.472 0.2047, 0.6299 0.472 0.0, 0.6303 0.472 -0.0079, 0.6303 0.3933 0.2047, 0.6303 0.3933 -0.0079, 0.6299 0.3933 0.2047, 0.6299 0.3933 -0.0079, 0.5995 0.3893 -0.0079, 0.5995 0.3893 0.2047, 0.5711 0.3775 -0.0079, 0.5711 0.3775 0.2047, 0.5467 0.3588 -0.0079, 0.5467 0.3588 0.2047, 0.528 0.3344 -0.0079, 0.528 0.3344 0.2047, 0.5162 0.3061 -0.0079, 0.5162 0.3061 0.2047, 0.5122 0.2756 -0.0079, 0.5122 0.2756 0.2047, 0.5162 0.2451 -0.0079, 0.5162 0.2451 0.2047, 0.528 0.2167 -0.0079, 0.528 0.2167 0.2047, 0.5467 0.1924 -0.0079, 0.5467 0.1924 0.2047, 0.5711 0.1736 -0.0079, 0.5711 0.1736 0.2047, 0.5995 0.1619 -0.0079, 0.5995 0.1619 0.2047, 0.6299 0.1579 -0.0079, 0.6299 0.1579 0.2047, 0.6303 0.1579 0.2047, 0.6303 0.1579 -0.0079, 0.6303 0.0791 0.2047, 0.6303 0.0791 -0.0079, 0.6299 0.0791 0.0, 0.6299 0.0791 0.1969, 0.6299 0.0791 0.1969
            ]
        }
        coordIndex [
            0,1,2,-1,2,1,3,-1,2,3,4,-1,4,3,5,-1,4,5,6,-1,6,5,7,-1,8,9,10,-1,10,9,11,-1,10,11,12,-1,12,11,13,-1,12,13,14,-1,14,13,15,-1,15,1,14,-1,14,1,0,-1,16,17,3,-1,3,17,5,-1,18,19,16,-1,16,19,17,-1,19,18,20,-1,20,18,21,-1,20,21,22,-1,22,21,23,-1,22,23,24,-1,24,23,25,-1,24,25,26,-1,26,25,27,-1,26,27,28,-1,28,27,29,-1,28,29,30,-1,30,29,31,-1,30,31,32,-1,32,31,33,-1,32,33,34,-1,34,33,35,-1,34,35,36,-1,36,35,37,-1,36,37,38,-1,38,37,39,-1,38,39,40,-1,40,39,41,-1,40,41,42,-1,42,41,43,-1,44,45,43,-1,43,45,42,-1,13,11,44,-1,44,11,45,-1,6,7,8,-1,8,7,9,-1,42,45,11,-1,7,24,26,-1,17,19,5,-1,5,19,20,-1,5,20,7,-1,7,20,22,-1,7,22,24,-1,26,28,7,-1,7,28,30,-1,7,30,9,-1,9,30,32,-1,9,32,34,-1,34,36,9,-1,9,36,38,-1,9,38,11,-1,11,38,40,-1,11,40,42,-1,18,16,3,-1,1,29,27,-1,44,43,13,-1,13,43,41,-1,13,41,15,-1,15,41,39,-1,15,39,37,-1,37,35,15,-1,15,35,33,-1,15,33,1,-1,1,33,31,-1,1,31,29,-1,27,25,1,-1,1,25,23,-1,1,23,3,-1,3,23,21,-1,3,21,18,-1,46,47,48,-1,48,47,49,-1,48,49,50,-1,50,49,51,-1,50,51,52,-1,52,51,53,-1,52,53,54,-1,54,53,55,-1,56,57,58,-1,58,57,59,-1,58,59,60,-1,60,59,61,-1,60,61,46,-1,46,61,47,-1,55,57,54,-1,54,57,56,-1,62,63,51,-1,51,63,53,-1,64,65,62,-1,62,65,63,-1,65,64,66,-1,66,64,67,-1,66,67,68,-1,68,67,69,-1,68,69,70,-1,70,69,71,-1,70,71,72,-1,72,71,73,-1,72,73,74,-1,74,73,75,-1,74,75,76,-1,76,75,77,-1,76,77,78,-1,78,77,79,-1,78,79,80,-1,80,79,81,-1,80,81,82,-1,82,81,83,-1,82,83,84,-1,84,83,85,-1,84,85,86,-1,86,85,87,-1,86,87,88,-1,88,87,89,-1,90,91,89,-1,89,91,88,-1,61,59,90,-1,90,59,91,-1,88,91,59,-1,55,70,72,-1,63,65,53,-1,53,65,66,-1,53,66,55,-1,55,66,68,-1,55,68,70,-1,72,74,55,-1,55,74,76,-1,55,76,57,-1,57,76,78,-1,57,78,80,-1,80,82,57,-1,57,82,84,-1,57,84,59,-1,59,84,86,-1,59,86,88,-1,64,62,51,-1,49,75,73,-1,90,89,61,-1,61,89,87,-1,61,87,47,-1,47,87,85,-1,47,85,83,-1,83,81,47,-1,47,81,79,-1,47,79,49,-1,49,79,77,-1,49,77,75,-1,73,71,49,-1,49,71,69,-1,49,69,51,-1,51,69,67,-1,51,67,64,-1,92,93,94,-1,94,93,95,-1,95,93,96,-1,96,93,97,-1,96,97,98,-1,98,97,99,-1,98,99,100,-1,100,99,101,-1,102,103,97,-1,97,103,99,-1,104,105,102,-1,102,105,103,-1,105,104,106,-1,106,104,107,-1,106,107,108,-1,108,107,109,-1,108,109,110,-1,110,109,111,-1,110,111,112,-1,112,111,113,-1,112,113,114,-1,114,113,115,-1,114,115,116,-1,116,115,117,-1,116,117,118,-1,118,117,119,-1,118,119,120,-1,120,119,121,-1,120,121,122,-1,122,121,123,-1,122,123,124,-1,124,123,125,-1,124,125,126,-1,126,125,127,-1,126,127,128,-1,128,127,129,-1,130,131,129,-1,129,131,128,-1,132,133,130,-1,130,133,131,-1,134,135,136,-1,136,135,133,-1,136,133,137,-1,137,133,132,-1,137,132,94,-1,94,132,92,-1,100,101,134,-1,134,101,135,-1,128,131,133,-1,101,110,112,-1,120,122,135,-1,135,122,124,-1,135,124,133,-1,133,124,126,-1,133,126,128,-1,103,105,99,-1,99,105,106,-1,99,106,101,-1,101,106,108,-1,101,108,110,-1,112,114,101,-1,101,114,116,-1,101,116,135,-1,135,116,118,-1,135,118,120,-1,104,102,97,-1,130,129,132,-1,132,129,127,-1,132,127,92,-1,92,127,125,-1,92,125,123,-1,115,113,93,-1,113,111,93,-1,93,111,109,-1,93,109,97,-1,97,109,107,-1,97,107,104,-1,123,121,92,-1,92,121,119,-1,92,119,93,-1,93,119,117,-1,93,117,115,-1,138,139,140,-1,140,139,141,-1,142,143,144,-1,144,143,145,-1,140,141,146,-1,146,141,147,-1,146,147,148,-1,148,147,149,-1,148,149,144,-1,144,149,142,-1,150,151,147,-1,147,151,149,-1,152,153,150,-1,150,153,151,-1,153,152,154,-1,154,152,155,-1,154,155,156,-1,156,155,157,-1,156,157,158,-1,158,157,159,-1,158,159,160,-1,160,159,161,-1,160,161,162,-1,162,161,163,-1,162,163,164,-1,164,163,165,-1,164,165,166,-1,166,165,167,-1,166,167,168,-1,168,167,169,-1,168,169,170,-1,170,169,171,-1,170,171,172,-1,172,171,173,-1,172,173,174,-1,174,173,175,-1,174,175,176,-1,176,175,177,-1,178,179,177,-1,177,179,176,-1,180,181,178,-1,178,181,179,-1,145,143,182,-1,182,143,181,-1,182,181,183,-1,183,181,180,-1,183,180,138,-1,138,180,139,-1,176,179,181,-1,168,170,143,-1,143,170,172,-1,143,172,181,-1,181,172,174,-1,181,174,176,-1,151,153,149,-1,149,153,154,-1,149,154,142,-1,154,156,142,-1,142,156,158,-1,142,158,160,-1,160,162,142,-1,142,162,164,-1,142,164,143,-1,143,164,166,-1,143,166,168,-1,152,150,147,-1,178,177,180,-1,180,177,175,-1,180,175,139,-1,139,175,173,-1,139,173,171,-1,163,161,141,-1,171,169,139,-1,139,169,167,-1,139,167,141,-1,141,167,165,-1,141,165,163,-1,161,159,141,-1,141,159,157,-1,141,157,147,-1,147,157,155,-1,147,155,152,-1,
        ]
    }
}
Shape{
    appearance Appearance {
        material  Material 	{
            diffuseColor 0.12941176470588237 0.7019607843137254 0.6705882352941176
            specularColor 0.00784313725490196 0.050980392156862744 0.047058823529411764
            ambientIntensity 0.2
            transparency 0
            shininess 0.5
        }
    }
    geometry IndexedFaceSet {
        ccw TRUE
        solid FALSE
        coord DEF co Coordinate {
            point [
                -0.479 -0.0222 0.1988, -0.4746 -0.0115 0.1988, -0.5176 0.0 0.1988, -0.4731 -0.0 0.1988, -0.4746 0.0115 0.1988, -0.506 -0.043 0.1988, -0.4953 -0.0385 0.1988, -0.4861 -0.0315 0.1988, -0.5398 -0.0385 0.1988, -0.5291 -0.043 0.1988, -0.5176 -0.0445 0.1988, -0.5605 -0.0115 0.1988, -0.5561 -0.0222 0.1988, -0.549 -0.0315 0.1988, -0.5561 0.0222 0.1988, -0.5605 0.0115 0.1988, -0.5621 0.0 0.1988, -0.5291 0.043 0.1988, -0.5398 0.0385 0.1988, -0.549 0.0315 0.1988, -0.4953 0.0385 0.1988, -0.506 0.043 0.1988, -0.5176 0.0445 0.1988, -0.479 0.0222 0.1988, -0.4861 0.0315 0.1988, -0.4746 0.0115 0.1969, -0.479 0.0222 0.1969, -0.4861 0.0315 0.1969, -0.4953 0.0385 0.1969, -0.506 0.043 0.1969, -0.5176 0.0445 0.1969, -0.5291 0.043 0.1969, -0.5398 0.0385 0.1969, -0.549 0.0315 0.1969, -0.5561 0.0222 0.1969, -0.5605 0.0115 0.1969, -0.5621 0.0 0.1969, -0.5605 -0.0115 0.1969, -0.5561 -0.0222 0.1969, -0.549 -0.0315 0.1969, -0.5398 -0.0385 0.1969, -0.5291 -0.043 0.1969, -0.5176 -0.0445 0.1969, -0.506 -0.043 0.1969, -0.4953 -0.0385 0.1969, -0.4861 -0.0315 0.1969, -0.479 -0.0222 0.1969, -0.4746 -0.0115 0.1969, -0.4731 0.0 0.1969, -0.5561 -0.0222 -0.002, -0.5605 -0.0115 -0.002, -0.5176 0.0 -0.002, -0.5621 0.0 -0.002, -0.5605 0.0115 -0.002, -0.5291 -0.043 -0.002, -0.5398 -0.0385 -0.002, -0.549 -0.0315 -0.002, -0.4953 -0.0385 -0.002, -0.506 -0.043 -0.002, -0.5176 -0.0445 -0.002, -0.4746 -0.0115 -0.002, -0.479 -0.0222 -0.002, -0.4861 -0.0315 -0.002, -0.479 0.0222 -0.002, -0.4746 0.0115 -0.002, -0.4731 -0.0 -0.002, -0.506 0.043 -0.002, -0.4953 0.0385 -0.002, -0.4861 0.0315 -0.002, -0.5398 0.0385 -0.002, -0.5291 0.043 -0.002, -0.5176 0.0445 -0.002, -0.5561 0.0222 -0.002, -0.549 0.0315 -0.002, -0.4731 0.0 0.0, -0.4746 0.0115 0.0, -0.479 0.0222 0.0, -0.4861 0.0315 0.0, -0.4953 0.0385 0.0, -0.506 0.043 0.0, -0.5176 0.0445 0.0, -0.5291 0.043 0.0, -0.5398 0.0385 0.0, -0.549 0.0315 0.0, -0.5561 0.0222 0.0, -0.5605 0.0115 0.0, -0.5621 0.0 0.0, -0.5605 -0.0115 0.0, -0.5561 -0.0222 0.0, -0.549 -0.0315 0.0, -0.5398 -0.0385 0.0, -0.5291 -0.043 0.0, -0.5176 -0.0445 0.0, -0.506 -0.043 0.0, -0.4953 -0.0385 0.0, -0.4861 -0.0315 0.0, -0.479 -0.0222 0.0, -0.4746 -0.0115 0.0, -0.4746 -0.0115 0.0
            ]
        }
        coordIndex [
            0,1,2,-1,2,1,3,-1,2,3,4,-1,5,6,2,-1,2,6,7,-1,2,7,0,-1,8,9,2,-1,2,9,10,-1,2,10,5,-1,11,12,2,-1,2,12,13,-1,2,13,8,-1,14,15,2,-1,2,15,16,-1,2,16,11,-1,17,18,2,-1,2,18,19,-1,2,19,14,-1,20,21,2,-1,2,21,22,-1,2,22,17,-1,4,23,2,-1,2,23,24,-1,2,24,20,-1,3,25,4,-1,4,25,26,-1,4,26,23,-1,23,26,27,-1,23,27,24,-1,24,27,28,-1,24,28,20,-1,20,28,29,-1,20,29,21,-1,21,29,30,-1,21,30,22,-1,22,30,31,-1,22,31,17,-1,17,31,32,-1,17,32,18,-1,18,32,33,-1,18,33,19,-1,19,33,34,-1,19,34,14,-1,14,34,35,-1,14,35,15,-1,15,35,36,-1,15,36,16,-1,16,36,37,-1,16,37,11,-1,11,37,38,-1,11,38,12,-1,12,38,39,-1,12,39,13,-1,13,39,40,-1,13,40,8,-1,8,40,41,-1,8,41,9,-1,9,41,42,-1,9,42,10,-1,10,42,43,-1,10,43,5,-1,5,43,44,-1,5,44,6,-1,6,44,45,-1,6,45,7,-1,7,45,46,-1,7,46,0,-1,0,46,47,-1,0,47,1,-1,1,47,48,-1,1,48,3,-1,3,48,25,-1,49,50,51,-1,51,50,52,-1,51,52,53,-1,54,55,51,-1,51,55,56,-1,51,56,49,-1,57,58,51,-1,51,58,59,-1,51,59,54,-1,60,61,51,-1,51,61,62,-1,51,62,57,-1,63,64,51,-1,51,64,65,-1,51,65,60,-1,66,67,51,-1,51,67,68,-1,51,68,63,-1,69,70,51,-1,51,70,71,-1,51,71,66,-1,53,72,51,-1,51,72,73,-1,51,73,69,-1,74,64,75,-1,75,64,63,-1,75,63,76,-1,76,63,68,-1,76,68,77,-1,77,68,67,-1,77,67,78,-1,78,67,66,-1,78,66,79,-1,79,66,71,-1,79,71,80,-1,80,71,70,-1,80,70,81,-1,81,70,69,-1,81,69,82,-1,82,69,73,-1,82,73,83,-1,83,73,72,-1,83,72,84,-1,84,72,53,-1,84,53,85,-1,85,53,52,-1,85,52,86,-1,86,52,50,-1,86,50,87,-1,87,50,49,-1,87,49,88,-1,88,49,56,-1,88,56,89,-1,89,56,55,-1,89,55,90,-1,90,55,54,-1,90,54,91,-1,91,54,59,-1,91,59,92,-1,92,59,58,-1,92,58,93,-1,93,58,57,-1,93,57,94,-1,94,57,62,-1,94,62,95,-1,95,62,61,-1,95,61,96,-1,96,61,60,-1,96,60,97,-1,97,60,65,-1,97,65,74,-1,74,65,64,-1,
        ]
    }
}
Shape{
    appearance Appearance {
        material  Material 	{
            diffuseColor 0.0 0.0 0.0
            specularColor 0.0 0.0 0.0
            ambientIntensity 0.2
            transparency 0
            shininess 0.5
        }
    }
    geometry IndexedFaceSet {
        ccw TRUE
        solid FALSE
        coord DEF co Coordinate {
            point [
                0.3009 -0.4404 0.437, 0.2997 -0.4419 0.437, 0.302 -0.4439 0.437, 0.2994 -0.4422 0.437, 0.2993 -0.4458 0.437, 0.2978 -0.4433 0.437, 0.2965 -0.4469 0.437, 0.2957 -0.4441 0.437, 0.2923 -0.4474 0.437, 0.2922 -0.4445 0.437, 0.2854 -0.4474 0.437, 0.2886 -0.4445 0.437, 0.2854 -0.4224 0.437, 0.2886 -0.4253 0.437, 0.2925 -0.4224 0.437, 0.2924 -0.4253 0.437, 0.2963 -0.4228 0.437, 0.2957 -0.4256 0.437, 0.2994 -0.4239 0.437, 0.2979 -0.4264 0.437, 0.302 -0.4257 0.437, 0.2996 -0.4276 0.437, 0.3029 -0.4266 0.437, 0.3003 -0.4283 0.437, 0.3044 -0.4287 0.437, 0.3013 -0.4297 0.437, 0.3053 -0.4311 0.437, 0.302 -0.4315 0.437, 0.3057 -0.4346 0.437, 0.3024 -0.4347 0.437, 0.3056 -0.4367 0.437, 0.3023 -0.4362 0.437, 0.3049 -0.4395 0.437, 0.3018 -0.4385 0.437, 0.3036 -0.442 0.437, 0.302 -0.4439 0.4331, 0.3036 -0.442 0.4331, 0.3049 -0.4395 0.4331, 0.3056 -0.4367 0.4331, 0.3057 -0.4346 0.4331, 0.3053 -0.4311 0.4331, 0.3044 -0.4287 0.4331, 0.3029 -0.4266 0.4331, 0.302 -0.4257 0.4331, 0.2994 -0.4239 0.4331, 0.2963 -0.4228 0.4331, 0.2925 -0.4224 0.4331, 0.2854 -0.4224 0.4331, 0.2854 -0.4474 0.4331, 0.2923 -0.4474 0.4331, 0.2965 -0.4469 0.4331, 0.2993 -0.4458 0.4331, 0.2996 -0.4276 0.4331, 0.3003 -0.4283 0.4331, 0.3013 -0.4297 0.4331, 0.302 -0.4315 0.4331, 0.3024 -0.4347 0.4331, 0.2924 -0.4253 0.4331, 0.2957 -0.4256 0.4331, 0.2979 -0.4264 0.4331, 0.2886 -0.4253 0.4331, 0.2886 -0.4445 0.4331, 0.2922 -0.4445 0.4331, 0.2997 -0.4419 0.4331, 0.2994 -0.4422 0.4331, 0.2978 -0.4433 0.4331, 0.2957 -0.4441 0.4331, 0.3023 -0.4362 0.4331, 0.3018 -0.4385 0.4331, 0.3009 -0.4404 0.4331, 0.3009 -0.4404 0.4331
            ]
        }
        coordIndex [
            0,1,2,-1,2,1,3,-1,2,3,4,-1,4,3,5,-1,4,5,6,-1,6,5,7,-1,6,7,8,-1,8,7,9,-1,8,9,10,-1,10,9,11,-1,10,11,12,-1,12,11,13,-1,12,13,14,-1,14,13,15,-1,14,15,16,-1,16,15,17,-1,16,17,18,-1,18,17,19,-1,18,19,20,-1,20,19,21,-1,20,21,22,-1,22,21,23,-1,22,23,24,-1,24,23,25,-1,24,25,26,-1,26,25,27,-1,26,27,28,-1,28,27,29,-1,28,29,30,-1,30,29,31,-1,30,31,32,-1,32,31,33,-1,32,33,34,-1,34,33,0,-1,34,0,2,-1,2,35,36,-1,2,36,34,-1,34,36,37,-1,34,37,32,-1,32,37,38,-1,32,38,30,-1,30,38,39,-1,30,39,28,-1,28,39,40,-1,28,40,26,-1,26,40,41,-1,26,41,24,-1,24,41,42,-1,24,42,22,-1,22,42,43,-1,22,43,20,-1,20,43,44,-1,20,44,18,-1,18,44,45,-1,18,45,16,-1,16,45,46,-1,16,46,14,-1,12,14,47,-1,47,14,46,-1,10,12,48,-1,48,12,47,-1,8,10,49,-1,49,10,48,-1,8,49,50,-1,8,50,6,-1,6,50,51,-1,6,51,4,-1,4,51,35,-1,4,35,2,-1,21,52,53,-1,21,53,23,-1,23,53,54,-1,23,54,25,-1,25,54,55,-1,25,55,27,-1,27,55,56,-1,27,56,29,-1,15,57,58,-1,15,58,17,-1,17,58,59,-1,17,59,19,-1,19,59,52,-1,19,52,21,-1,15,13,57,-1,57,13,60,-1,13,11,60,-1,60,11,61,-1,11,9,61,-1,61,9,62,-1,1,63,64,-1,1,64,3,-1,3,64,65,-1,3,65,5,-1,5,65,66,-1,5,66,7,-1,7,66,62,-1,7,62,9,-1,29,56,67,-1,29,67,31,-1,31,67,68,-1,31,68,33,-1,33,68,69,-1,33,69,0,-1,0,69,63,-1,0,63,1,-1,
        ]
    }
}
Shape{
    appearance Appearance {
        material  Material 	{
            diffuseColor 0.7019607843137254 0.7019607843137254 0.7019607843137254
            specularColor 0.050980392156862744 0.050980392156862744 0.050980392156862744
            ambientIntensity 0.2
            transparency 0
            shininess 0.5
        }
    }
    geometry IndexedFaceSet {
        ccw TRUE
        solid FALSE
        coord DEF co Coordinate {
            point [
                0.2886 -0.4253 0.4331, 0.2886 -0.4445 0.4331, 0.2924 -0.4253 0.4331, 0.2922 -0.4445 0.4331, 0.2957 -0.4441 0.4331, 0.2978 -0.4433 0.4331, 0.2994 -0.4422 0.4331, 0.2997 -0.4419 0.4331, 0.3009 -0.4404 0.4331, 0.3018 -0.4385 0.4331, 0.3024 -0.4347 0.4331, 0.2996 -0.4276 0.4331, 0.2979 -0.4264 0.4331, 0.302 -0.4315 0.4331, 0.3013 -0.4297 0.4331, 0.3003 -0.4283 0.4331, 0.3023 -0.4362 0.4331, 0.2957 -0.4256 0.4331, 0.2957 -0.4256 0.4331
            ]
        }
        coordIndex [
            0,1,2,-1,2,1,3,-1,3,4,2,-1,2,4,5,-1,2,5,6,-1,6,7,2,-1,2,7,8,-1,2,8,9,-1,10,11,12,-1,13,14,10,-1,10,14,15,-1,10,15,11,-1,9,16,2,-1,2,16,10,-1,2,10,17,-1,17,10,12,-1,
        ]
    }
}
Shape{
    appearance Appearance {
        material  Material 	{
            diffuseColor 0.0 0.0 0.0
            specularColor 0.0 0.0 0.0
            ambientIntensity 0.2
            transparency 0
            shininess 0.5
        }
    }
    geometry IndexedFaceSet {
        ccw TRUE
        solid FALSE
        coord DEF co Coordinate {
            point [
                0.2557 -0.443 0.437, 0.2557 -0.443 0.4331, 0.2554 -0.4438 0.4331, 0.2554 -0.4438 0.437, 0.2553 -0.4444 0.4331, 0.2553 -0.4444 0.437, 0.2552 -0.4444 0.437, 0.2552 -0.4444 0.4331, 0.2548 -0.443 0.437, 0.2548 -0.443 0.4331, 0.2502 -0.4295 0.437, 0.2517 -0.4339 0.4331, 0.2502 -0.4295 0.4331, 0.2467 -0.4295 0.437, 0.2467 -0.4295 0.4331, 0.2537 -0.4474 0.437, 0.2517 -0.4423 0.4331, 0.2537 -0.4474 0.4331, 0.2523 -0.4506 0.4331, 0.2523 -0.4506 0.437, 0.2536 -0.4476 0.4331, 0.2517 -0.4517 0.4331, 0.2517 -0.4517 0.437, 0.2511 -0.4524 0.4331, 0.2511 -0.4524 0.437, 0.2505 -0.4528 0.4331, 0.2505 -0.4528 0.437, 0.2498 -0.453 0.4331, 0.2498 -0.453 0.437, 0.2491 -0.4531 0.4331, 0.2491 -0.4531 0.437, 0.2479 -0.453 0.4331, 0.2479 -0.453 0.437, 0.2473 -0.4528 0.4331, 0.2473 -0.4528 0.437, 0.2473 -0.4556 0.437, 0.2473 -0.4556 0.4331, 0.2486 -0.4558 0.4331, 0.2486 -0.4558 0.437, 0.2493 -0.4558 0.4331, 0.2493 -0.4558 0.437, 0.2506 -0.4557 0.4331, 0.2506 -0.4557 0.437, 0.2517 -0.4553 0.4331, 0.2518 -0.4552 0.437, 0.2518 -0.4552 0.4331, 0.2529 -0.4544 0.4331, 0.2529 -0.4544 0.437, 0.2531 -0.4542 0.4331, 0.2531 -0.4542 0.437, 0.2543 -0.4529 0.4331, 0.2543 -0.4529 0.437, 0.2557 -0.4501 0.4331, 0.2557 -0.4501 0.437, 0.2638 -0.4295 0.4331, 0.2638 -0.4295 0.437, 0.2567 -0.4476 0.4331, 0.2606 -0.4295 0.437, 0.2606 -0.4295 0.4331, 0.2378 -0.4478 0.4331, 0.2399 -0.4476 0.4331, 0.2378 -0.4478 0.437, 0.2403 -0.4476 0.437, 0.2403 -0.4476 0.4331, 0.242 -0.447 0.4331, 0.242 -0.447 0.437, 0.243 -0.4464 0.4331, 0.243 -0.4464 0.437, 0.2439 -0.4456 0.4331, 0.2439 -0.4456 0.437, 0.2445 -0.4448 0.4331, 0.2445 -0.4448 0.437, 0.2449 -0.4438 0.4331, 0.2449 -0.4438 0.437, 0.245 -0.4425 0.4331, 0.245 -0.4425 0.437, 0.2449 -0.4414 0.4331, 0.2449 -0.4414 0.437, 0.2446 -0.4404 0.4331, 0.2446 -0.4404 0.437, 0.244 -0.4396 0.4331, 0.244 -0.4396 0.437, 0.2432 -0.4389 0.4331, 0.2432 -0.4389 0.437, 0.2411 -0.4378 0.4331, 0.2411 -0.4378 0.437, 0.2399 -0.4373 0.4331, 0.2399 -0.4373 0.437, 0.238 -0.4364 0.4331, 0.238 -0.4364 0.437, 0.2369 -0.4357 0.4331, 0.2369 -0.4357 0.437, 0.2366 -0.4354 0.4331, 0.2366 -0.4354 0.437, 0.2364 -0.435 0.4331, 0.2364 -0.435 0.437, 0.2362 -0.4345 0.4331, 0.2362 -0.4345 0.437, 0.2362 -0.4341 0.4331, 0.2362 -0.4341 0.437, 0.2363 -0.4336 0.4331, 0.2363 -0.4336 0.437, 0.2364 -0.4331 0.4331, 0.2364 -0.4331 0.437, 0.2367 -0.4327 0.4331, 0.2367 -0.4327 0.437, 0.2372 -0.4323 0.4331, 0.2372 -0.4323 0.437, 0.2379 -0.432 0.4331, 0.2379 -0.432 0.437, 0.2387 -0.4317 0.4331, 0.2387 -0.4317 0.437, 0.2396 -0.4317 0.4331, 0.2396 -0.4317 0.437, 0.2417 -0.4319 0.4331, 0.2417 -0.4319 0.437, 0.2435 -0.4326 0.4331, 0.2435 -0.4326 0.437, 0.2442 -0.433 0.4331, 0.2442 -0.433 0.437, 0.2442 -0.4299 0.437, 0.2442 -0.4299 0.4331, 0.242 -0.4293 0.4331, 0.242 -0.4293 0.437, 0.2399 -0.4291 0.4331, 0.2399 -0.4291 0.437, 0.2376 -0.4294 0.4331, 0.2376 -0.4294 0.437, 0.2359 -0.43 0.4331, 0.2359 -0.43 0.437, 0.235 -0.4305 0.4331, 0.235 -0.4305 0.437, 0.2344 -0.4311 0.4331, 0.2341 -0.4314 0.437, 0.2341 -0.4314 0.4331, 0.2335 -0.4322 0.4331, 0.2335 -0.4322 0.437, 0.2331 -0.4332 0.4331, 0.2331 -0.4332 0.437, 0.233 -0.4343 0.4331, 0.233 -0.4343 0.437, 0.2331 -0.4356 0.4331, 0.2331 -0.4356 0.437, 0.2335 -0.4365 0.4331, 0.2335 -0.4365 0.437, 0.2339 -0.4372 0.4331, 0.2339 -0.4372 0.437, 0.2377 -0.4395 0.4331, 0.2377 -0.4395 0.437, 0.2359 -0.4387 0.437, 0.2344 -0.4377 0.4331, 0.2344 -0.4377 0.437, 0.2344 -0.4377 0.4331, 0.2359 -0.4387 0.4331, 0.2398 -0.4404 0.4331, 0.2398 -0.4404 0.437, 0.241 -0.4411 0.4331, 0.241 -0.4411 0.437, 0.2414 -0.4415 0.4331, 0.2414 -0.4415 0.437, 0.2416 -0.442 0.4331, 0.2416 -0.442 0.437, 0.2418 -0.4425 0.4331, 0.2418 -0.4425 0.437, 0.2418 -0.4428 0.4331, 0.2418 -0.4428 0.437, 0.2417 -0.4434 0.4331, 0.2417 -0.4434 0.437, 0.2416 -0.4439 0.4331, 0.2416 -0.4439 0.437, 0.2413 -0.4443 0.4331, 0.2413 -0.4443 0.437, 0.241 -0.4446 0.4331, 0.241 -0.4446 0.437, 0.2407 -0.4448 0.4331, 0.2407 -0.4448 0.437, 0.2399 -0.4451 0.4331, 0.2399 -0.4451 0.437, 0.2382 -0.4453 0.4331, 0.2382 -0.4453 0.437, 0.2381 -0.4453 0.4331, 0.2381 -0.4453 0.437, 0.233 -0.4435 0.4331, 0.233 -0.4435 0.437, 0.2341 -0.4443 0.437, 0.2361 -0.445 0.4331, 0.2361 -0.445 0.437, 0.2344 -0.4444 0.4331, 0.2341 -0.4443 0.4331, 0.233 -0.4468 0.437, 0.233 -0.4468 0.4331, 0.2344 -0.4473 0.4331, 0.235 -0.4475 0.437, 0.2359 -0.4476 0.4331, 0.235 -0.4475 0.4331, 0.2256 -0.4474 0.437, 0.2287 -0.4474 0.437, 0.2256 -0.4446 0.437, 0.2287 -0.4359 0.437, 0.2256 -0.436 0.437, 0.2188 -0.4398 0.437, 0.2195 -0.4394 0.437, 0.2255 -0.4446 0.437, 0.2238 -0.4442 0.437, 0.225 -0.4454 0.437, 0.223 -0.4448 0.437, 0.2214 -0.439 0.437, 0.2256 -0.4384 0.437, 0.2256 -0.4401 0.437, 0.2256 -0.4404 0.437, 0.2254 -0.4417 0.437, 0.2249 -0.4429 0.437, 0.2242 -0.4438 0.437, 0.2255 -0.4346 0.437, 0.2285 -0.4335 0.437, 0.2251 -0.4335 0.437, 0.228 -0.4321 0.437, 0.2248 -0.4329 0.437, 0.2273 -0.4311 0.437, 0.2243 -0.4324 0.437, 0.2265 -0.4303 0.437, 0.2237 -0.432 0.437, 0.2254 -0.4297 0.437, 0.223 -0.4318 0.437, 0.2241 -0.4293 0.437, 0.222 -0.4317 0.437, 0.2222 -0.4291 0.437, 0.22 -0.4319 0.437, 0.2191 -0.4295 0.437, 0.218 -0.4326 0.437, 0.2168 -0.4304 0.437, 0.2161 -0.4338 0.437, 0.2161 -0.4308 0.437, 0.2182 -0.4442 0.437, 0.2159 -0.4464 0.437, 0.2184 -0.4444 0.437, 0.2169 -0.4471 0.437, 0.2191 -0.4449 0.437, 0.2181 -0.4476 0.437, 0.2198 -0.4451 0.437, 0.22 -0.4478 0.437, 0.2208 -0.4452 0.437, 0.2216 -0.4476 0.437, 0.222 -0.4451 0.437, 0.2229 -0.4472 0.437, 0.224 -0.4465 0.437, 0.2176 -0.4419 0.437, 0.2144 -0.4422 0.437, 0.2175 -0.4424 0.437, 0.2143 -0.4426 0.437, 0.2176 -0.4431 0.437, 0.2145 -0.444 0.437, 0.2178 -0.4436 0.437, 0.2149 -0.4451 0.437, 0.2155 -0.4461 0.437, 0.2203 -0.4368 0.437, 0.2179 -0.4374 0.437, 0.2184 -0.4401 0.437, 0.2166 -0.438 0.437, 0.218 -0.4406 0.437, 0.2156 -0.4389 0.437, 0.2177 -0.4411 0.437, 0.215 -0.4398 0.437, 0.2146 -0.4409 0.437, 0.222 -0.4317 0.4331, 0.223 -0.4318 0.4331, 0.2237 -0.432 0.4331, 0.2243 -0.4324 0.4331, 0.2248 -0.4329 0.4331, 0.2251 -0.4335 0.4331, 0.2255 -0.4346 0.4331, 0.2256 -0.436 0.4331, 0.2203 -0.4368 0.4331, 0.2179 -0.4374 0.4331, 0.2166 -0.438 0.4331, 0.2156 -0.4389 0.4331, 0.215 -0.4398 0.4331, 0.2146 -0.4409 0.4331, 0.2144 -0.4422 0.4331, 0.2143 -0.4426 0.4331, 0.2145 -0.444 0.4331, 0.2149 -0.4451 0.4331, 0.2155 -0.4461 0.4331, 0.2159 -0.4464 0.4331, 0.22 -0.4478 0.4331, 0.2182 -0.4476 0.4331, 0.2181 -0.4476 0.4331, 0.2169 -0.4471 0.4331, 0.2216 -0.4476 0.4331, 0.2217 -0.4476 0.4331, 0.2229 -0.4472 0.4331, 0.224 -0.4465 0.4331, 0.225 -0.4454 0.4331, 0.2255 -0.4446 0.4331, 0.2256 -0.4446 0.4331, 0.2256 -0.4474 0.4331, 0.2287 -0.4474 0.4331, 0.2287 -0.4359 0.4331, 0.2285 -0.4335 0.4331, 0.228 -0.4321 0.4331, 0.2273 -0.4311 0.4331, 0.2265 -0.4303 0.4331, 0.2254 -0.4297 0.4331, 0.2241 -0.4293 0.4331, 0.2222 -0.4291 0.4331, 0.2191 -0.4295 0.4331, 0.2168 -0.4304 0.4331, 0.2161 -0.4308 0.4331, 0.2161 -0.4338 0.4331, 0.218 -0.4326 0.4331, 0.22 -0.4319 0.4331, 0.2242 -0.4438 0.4331, 0.2238 -0.4442 0.4331, 0.223 -0.4448 0.4331, 0.222 -0.4451 0.4331, 0.2208 -0.4452 0.4331, 0.2256 -0.4401 0.4331, 0.2256 -0.4404 0.4331, 0.2254 -0.4417 0.4331, 0.2249 -0.4429 0.4331, 0.2256 -0.4384 0.4331, 0.2214 -0.439 0.4331, 0.2184 -0.4401 0.4331, 0.2188 -0.4398 0.4331, 0.2195 -0.4394 0.4331, 0.2175 -0.4424 0.4331, 0.2176 -0.4419 0.4331, 0.2177 -0.4411 0.4331, 0.218 -0.4406 0.4331, 0.2184 -0.4444 0.4331, 0.2182 -0.4442 0.4331, 0.2178 -0.4436 0.4331, 0.2176 -0.4431 0.4331, 0.2198 -0.4451 0.4331, 0.2191 -0.4449 0.4331, 0.2191 -0.4449 0.4331
            ]
        }
        coordIndex [
            0,1,2,-1,0,2,3,-1,3,2,4,-1,3,4,5,-1,6,5,7,-1,7,5,4,-1,8,6,9,-1,9,6,7,-1,8,9,10,-1,10,9,11,-1,10,11,12,-1,13,10,14,-1,14,10,12,-1,13,14,15,-1,15,14,16,-1,15,16,17,-1,18,19,20,-1,20,19,15,-1,20,15,17,-1,19,18,21,-1,19,21,22,-1,22,21,23,-1,22,23,24,-1,24,23,25,-1,24,25,26,-1,26,25,27,-1,26,27,28,-1,28,27,29,-1,28,29,30,-1,30,29,31,-1,30,31,32,-1,32,31,33,-1,32,33,34,-1,35,34,36,-1,36,34,33,-1,35,36,37,-1,35,37,38,-1,38,37,39,-1,38,39,40,-1,40,39,41,-1,40,41,42,-1,42,41,43,-1,42,43,44,-1,43,45,44,-1,44,45,46,-1,44,46,47,-1,47,46,48,-1,47,48,49,-1,49,48,50,-1,49,50,51,-1,51,50,52,-1,51,52,53,-1,54,55,56,-1,56,55,53,-1,56,53,52,-1,57,55,58,-1,58,55,54,-1,0,57,1,-1,1,57,58,-1,3,5,53,-1,55,57,53,-1,53,57,0,-1,53,0,3,-1,10,13,8,-1,8,13,15,-1,8,15,6,-1,34,35,32,-1,32,35,38,-1,32,38,30,-1,30,38,40,-1,30,40,28,-1,28,40,42,-1,28,42,26,-1,26,42,44,-1,26,44,24,-1,51,22,49,-1,49,22,24,-1,49,24,47,-1,47,24,44,-1,5,6,53,-1,53,6,15,-1,53,15,51,-1,51,15,19,-1,51,19,22,-1,59,60,61,-1,61,60,62,-1,60,63,62,-1,62,63,64,-1,62,64,65,-1,65,64,66,-1,65,66,67,-1,67,66,68,-1,67,68,69,-1,69,68,70,-1,69,70,71,-1,71,70,72,-1,71,72,73,-1,73,72,74,-1,73,74,75,-1,75,74,76,-1,75,76,77,-1,77,76,78,-1,77,78,79,-1,79,78,80,-1,79,80,81,-1,81,80,82,-1,81,82,83,-1,83,82,84,-1,83,84,85,-1,85,84,86,-1,85,86,87,-1,87,86,88,-1,87,88,89,-1,89,88,90,-1,89,90,91,-1,91,90,92,-1,91,92,93,-1,93,92,94,-1,93,94,95,-1,95,94,96,-1,95,96,97,-1,97,96,98,-1,97,98,99,-1,99,98,100,-1,99,100,101,-1,101,100,102,-1,101,102,103,-1,103,102,104,-1,103,104,105,-1,105,104,106,-1,105,106,107,-1,107,106,108,-1,107,108,109,-1,109,108,110,-1,109,110,111,-1,111,110,112,-1,111,112,113,-1,113,112,114,-1,113,114,115,-1,115,114,116,-1,115,116,117,-1,117,116,118,-1,117,118,119,-1,120,119,121,-1,121,119,118,-1,120,121,122,-1,120,122,123,-1,123,122,124,-1,123,124,125,-1,125,124,126,-1,125,126,127,-1,127,126,128,-1,127,128,129,-1,129,128,130,-1,129,130,131,-1,130,132,131,-1,131,132,133,-1,132,134,133,-1,133,134,135,-1,133,135,136,-1,136,135,137,-1,136,137,138,-1,138,137,139,-1,138,139,140,-1,140,139,141,-1,140,141,142,-1,142,141,143,-1,142,143,144,-1,144,143,145,-1,144,145,146,-1,147,148,149,-1,146,145,150,-1,146,150,151,-1,151,150,152,-1,151,152,149,-1,149,152,153,-1,149,153,147,-1,148,147,154,-1,148,154,155,-1,155,154,156,-1,155,156,157,-1,157,156,158,-1,157,158,159,-1,159,158,160,-1,159,160,161,-1,161,160,162,-1,161,162,163,-1,163,162,164,-1,163,164,165,-1,165,164,166,-1,165,166,167,-1,167,166,168,-1,167,168,169,-1,169,168,170,-1,169,170,171,-1,171,170,172,-1,171,172,173,-1,173,172,174,-1,173,174,175,-1,175,174,176,-1,175,176,177,-1,177,176,178,-1,177,178,179,-1,179,178,180,-1,179,180,181,-1,182,183,184,-1,181,180,185,-1,181,185,186,-1,186,185,187,-1,186,187,184,-1,184,187,188,-1,184,188,182,-1,189,183,190,-1,190,183,182,-1,190,191,189,-1,189,191,192,-1,59,61,193,-1,193,61,192,-1,193,192,194,-1,194,192,191,-1,105,107,129,-1,129,107,127,-1,155,87,148,-1,148,87,89,-1,65,67,171,-1,171,67,69,-1,171,69,169,-1,169,69,71,-1,169,71,167,-1,167,71,73,-1,167,73,165,-1,165,73,75,-1,165,75,163,-1,163,75,77,-1,163,77,161,-1,161,77,79,-1,161,79,159,-1,159,79,81,-1,159,81,157,-1,157,81,83,-1,157,83,155,-1,155,83,85,-1,155,85,87,-1,61,181,192,-1,192,181,186,-1,192,186,189,-1,189,186,184,-1,189,184,183,-1,107,109,127,-1,127,109,111,-1,127,111,125,-1,125,111,113,-1,125,113,123,-1,123,113,115,-1,123,115,120,-1,120,115,117,-1,120,117,119,-1,171,173,65,-1,65,173,175,-1,65,175,62,-1,62,175,177,-1,62,177,61,-1,61,177,179,-1,61,179,181,-1,129,131,105,-1,105,131,133,-1,105,133,103,-1,103,133,136,-1,103,136,101,-1,101,136,138,-1,101,138,99,-1,99,138,140,-1,99,140,97,-1,97,140,142,-1,97,142,95,-1,95,142,144,-1,95,144,93,-1,93,144,146,-1,93,146,91,-1,91,146,151,-1,91,151,89,-1,89,151,149,-1,89,149,148,-1,195,196,197,-1,197,196,198,-1,199,200,201,-1,202,203,204,-1,204,203,205,-1,206,207,198,-1,198,207,208,-1,208,209,198,-1,198,209,210,-1,198,210,197,-1,197,210,211,-1,197,211,202,-1,202,211,212,-1,202,212,203,-1,201,206,199,-1,199,206,198,-1,199,198,213,-1,213,198,214,-1,213,214,215,-1,215,214,216,-1,215,216,217,-1,217,216,218,-1,217,218,219,-1,219,218,220,-1,219,220,221,-1,221,220,222,-1,221,222,223,-1,223,222,224,-1,223,224,225,-1,225,224,226,-1,225,226,227,-1,227,226,228,-1,227,228,229,-1,229,228,230,-1,229,230,231,-1,231,230,232,-1,233,234,235,-1,235,234,236,-1,235,236,237,-1,237,236,238,-1,237,238,239,-1,239,238,240,-1,239,240,241,-1,241,240,242,-1,241,242,243,-1,243,242,244,-1,243,244,205,-1,205,244,245,-1,205,245,204,-1,246,247,248,-1,248,247,249,-1,248,249,250,-1,250,249,251,-1,250,251,252,-1,252,251,253,-1,252,253,233,-1,233,253,254,-1,233,254,234,-1,199,255,200,-1,200,255,256,-1,200,256,257,-1,257,256,258,-1,257,258,259,-1,259,258,260,-1,259,260,261,-1,261,260,262,-1,261,262,246,-1,246,262,263,-1,246,263,247,-1,225,264,265,-1,225,265,223,-1,223,265,266,-1,223,266,221,-1,221,266,267,-1,221,267,219,-1,219,267,268,-1,219,268,217,-1,217,268,269,-1,217,269,215,-1,215,269,270,-1,215,270,213,-1,213,270,271,-1,213,271,199,-1,255,199,272,-1,272,199,271,-1,255,272,273,-1,255,273,256,-1,256,273,274,-1,256,274,258,-1,258,274,275,-1,258,275,260,-1,260,275,276,-1,260,276,262,-1,262,276,277,-1,262,277,263,-1,263,277,278,-1,263,278,247,-1,247,278,279,-1,247,279,249,-1,249,279,280,-1,249,280,251,-1,251,280,281,-1,251,281,253,-1,253,281,282,-1,253,282,254,-1,254,282,283,-1,254,283,234,-1,284,240,285,-1,285,240,238,-1,285,238,286,-1,286,238,236,-1,286,236,287,-1,287,236,234,-1,287,234,283,-1,240,284,288,-1,240,288,242,-1,242,288,289,-1,242,289,244,-1,289,290,244,-1,244,290,291,-1,244,291,245,-1,245,291,292,-1,245,292,204,-1,204,292,293,-1,204,293,202,-1,197,202,294,-1,294,202,293,-1,195,197,295,-1,295,197,294,-1,196,195,296,-1,296,195,295,-1,198,196,297,-1,297,196,296,-1,198,297,298,-1,198,298,214,-1,214,298,299,-1,214,299,216,-1,216,299,300,-1,216,300,218,-1,218,300,301,-1,218,301,220,-1,220,301,302,-1,220,302,222,-1,222,302,303,-1,222,303,224,-1,224,303,304,-1,224,304,226,-1,226,304,305,-1,226,305,228,-1,228,305,306,-1,228,306,230,-1,230,306,307,-1,230,307,232,-1,231,232,308,-1,308,232,307,-1,231,308,309,-1,231,309,229,-1,229,309,310,-1,229,310,227,-1,227,310,264,-1,227,264,225,-1,212,311,312,-1,212,312,203,-1,203,312,313,-1,203,313,205,-1,205,313,314,-1,205,314,243,-1,243,314,315,-1,243,315,241,-1,208,316,317,-1,208,317,209,-1,209,317,318,-1,209,318,210,-1,210,318,319,-1,210,319,211,-1,211,319,311,-1,211,311,212,-1,208,207,316,-1,316,207,320,-1,207,206,320,-1,320,206,321,-1,257,322,323,-1,257,323,200,-1,200,323,324,-1,200,324,201,-1,201,324,321,-1,201,321,206,-1,248,325,326,-1,248,326,246,-1,246,326,327,-1,246,327,261,-1,261,327,328,-1,261,328,259,-1,259,328,322,-1,259,322,257,-1,235,329,330,-1,235,330,233,-1,233,330,331,-1,233,331,252,-1,252,331,332,-1,252,332,250,-1,250,332,325,-1,250,325,248,-1,241,315,333,-1,241,333,239,-1,239,333,334,-1,239,334,237,-1,237,334,329,-1,237,329,235,-1,
        ]
    }
}
Shape{
    appearance Appearance {
        material  Material 	{
            diffuseColor 0.7019607843137254 0.7019607843137254 0.7019607843137254
            specularColor 0.050980392156862744 0.050980392156862744 0.050980392156862744
            ambientIntensity 0.2
            transparency 0
            shininess 0.5
        }
    }
    geometry IndexedFaceSet {
        ccw TRUE
        solid FALSE
        coord DEF co Coordinate {
            point [
                0.2256 -0.4404 0.4331, 0.2256 -0.4401 0.4331, 0.2184 -0.4401 0.4331, 0.2256 -0.4384 0.4331, 0.2214 -0.439 0.4331, 0.2195 -0.4394 0.4331, 0.2188 -0.4398 0.4331, 0.2254 -0.4417 0.4331, 0.218 -0.4406 0.4331, 0.2249 -0.4429 0.4331, 0.2182 -0.4442 0.4331, 0.2184 -0.4444 0.4331, 0.2238 -0.4442 0.4331, 0.2178 -0.4436 0.4331, 0.223 -0.4448 0.4331, 0.222 -0.4451 0.4331, 0.2208 -0.4452 0.4331, 0.2177 -0.4411 0.4331, 0.2176 -0.4419 0.4331, 0.2242 -0.4438 0.4331, 0.2175 -0.4424 0.4331, 0.2176 -0.4431 0.4331, 0.2191 -0.4449 0.4331, 0.2198 -0.4451 0.4331, 0.2198 -0.4451 0.4331
            ]
        }
        coordIndex [
            0,1,2,-1,1,3,4,-1,4,5,1,-1,1,5,6,-1,1,6,2,-1,0,2,7,-1,7,2,8,-1,7,8,9,-1,10,11,12,-1,10,12,13,-1,14,12,15,-1,15,12,16,-1,8,17,9,-1,9,17,18,-1,9,18,19,-1,19,18,20,-1,19,20,12,-1,12,20,21,-1,12,21,13,-1,11,22,12,-1,12,22,23,-1,12,23,16,-1,
        ]
    }
}
Shape{
    appearance Appearance {
        material  Material 	{
            diffuseColor 0.0 0.0 0.0
            specularColor 0.0 0.0 0.0
            ambientIntensity 0.2
            transparency 0
            shininess 0.5
        }
    }
    geometry IndexedFaceSet {
        ccw TRUE
        solid FALSE
        coord DEF co Coordinate {
            point [
                0.0874 -0.4509 0.437, 0.09 -0.4542 0.437, 0.0858 -0.4352 0.437, 0.1203 -0.4397 0.437, 0.1452 -0.4265 0.437, 0.1092 -0.4408 0.437, 0.1088 -0.4391 0.437, 0.0827 -0.4043 0.437, 0.0866 -0.4022 0.437, 0.0857 -0.3912 0.437, 0.1158 -0.4295 0.437, 0.1023 -0.4347 0.437, 0.1038 -0.4348 0.437, 0.0968 -0.3907 0.437, 0.1023 -0.4037 0.437, 0.105 -0.3981 0.437, 0.1055 -0.4354 0.437, 0.1069 -0.4364 0.437, 0.108 -0.4377 0.437, 0.0819 -0.4328 0.437, 0.0833 -0.4465 0.437, 0.0856 -0.4471 0.437, 0.0927 -0.3904 0.437, 0.1397 -0.4171 0.437, 0.1203 -0.4414 0.437, 0.1092 -0.4424 0.437, 0.1202 -0.4433 0.437, 0.1006 -0.4349 0.437, 0.0982 -0.424 0.437, 0.099 -0.4355 0.437, 0.0943 -0.4255 0.437, 0.0976 -0.4365 0.437, 0.0907 -0.428 0.437, 0.0969 -0.4372 0.437, 0.0877 -0.4314 0.437, 0.096 -0.4387 0.437, 0.0955 -0.4404 0.437, 0.0954 -0.4421 0.437, 0.109 -0.4247 0.437, 0.1047 -0.4236 0.437, 0.1025 -0.4235 0.437, 0.1511 -0.4089 0.437, 0.1525 -0.4089 0.437, 0.1598 -0.3993 0.437, 0.1559 -0.4093 0.437, 0.1607 -0.3996 0.437, 0.159 -0.4105 0.437, 0.1659 -0.4022 0.437, 0.1708 -0.4063 0.437, 0.1004 -0.3865 0.437, 0.109 -0.3933 0.437, 0.1046 -0.3829 0.437, 0.1138 -0.3898 0.437, 0.1092 -0.3801 0.437, 0.091 -0.4011 0.437, 0.0929 -0.401 0.437, 0.0948 -0.3905 0.437, 0.0971 -0.4016 0.437, 0.1011 -0.403 0.437, 0.1708 -0.4395 0.437, 0.1625 -0.4324 0.437, 0.166 -0.4436 0.437, 0.1599 -0.4346 0.437, 0.1605 -0.4462 0.437, 0.1568 -0.436 0.437, 0.1546 -0.4475 0.437, 0.1536 -0.4366 0.437, 0.1441 -0.4475 0.437, 0.1455 -0.4366 0.437, 0.1431 -0.4473 0.437, 0.1127 -0.4267 0.437, 0.1617 -0.4124 0.437, 0.1638 -0.4147 0.437, 0.1744 -0.4113 0.437, 0.1654 -0.4178 0.437, 0.1766 -0.4168 0.437, 0.1663 -0.4212 0.437, 0.1774 -0.4226 0.437, 0.1664 -0.4228 0.437, 0.1766 -0.4289 0.437, 0.1659 -0.4262 0.437, 0.1743 -0.4346 0.437, 0.1647 -0.4294 0.437, 0.1628 -0.4322 0.437, 0.1502 -0.3852 0.437, 0.1432 -0.3934 0.437, 0.1561 -0.3921 0.437, 0.1472 -0.3982 0.437, 0.15 -0.4039 0.437, 0.0756 -0.4145 0.437, 0.0639 -0.4175 0.437, 0.0751 -0.4188 0.437, 0.0639 -0.4192 0.437, 0.0753 -0.4216 0.437, 0.0647 -0.4262 0.437, 0.0766 -0.4259 0.437, 0.0673 -0.4328 0.437, 0.0787 -0.4295 0.437, 0.0714 -0.4386 0.437, 0.0769 -0.4433 0.437, 0.0957 -0.4438 0.437, 0.0964 -0.4453 0.437, 0.1175 -0.377 0.437, 0.1196 -0.3875 0.437, 0.126 -0.376 0.437, 0.1262 -0.3866 0.437, 0.1339 -0.3769 0.437, 0.1322 -0.3874 0.437, 0.1428 -0.3802 0.437, 0.1378 -0.3895 0.437, 0.1428 -0.393 0.437, 0.0791 -0.3938 0.437, 0.0735 -0.3978 0.437, 0.0796 -0.407 0.437, 0.0722 -0.3989 0.437, 0.0772 -0.4106 0.437, 0.068 -0.4044 0.437, 0.0651 -0.4108 0.437, 0.1191 -0.4477 0.437, 0.1088 -0.4441 0.437, 0.117 -0.4516 0.437, 0.108 -0.4456 0.437, 0.1143 -0.4547 0.437, 0.107 -0.4467 0.437, 0.1108 -0.4572 0.437, 0.1056 -0.4477 0.437, 0.1068 -0.4587 0.437, 0.1041 -0.4483 0.437, 0.1025 -0.4592 0.437, 0.1023 -0.4485 0.437, 0.1018 -0.4592 0.437, 0.102 -0.4485 0.437, 0.0976 -0.4586 0.437, 0.1004 -0.4483 0.437, 0.0935 -0.4568 0.437, 0.0988 -0.4476 0.437, 0.0974 -0.4465 0.437, 0.1447 -0.4365 0.437, 0.1404 -0.4456 0.437, 0.1408 -0.446 0.437, 0.1452 -0.4366 0.437, 0.1419 -0.4469 0.437, 0.139 -0.442 0.437, 0.1391 -0.4433 0.437, 0.1396 -0.4445 0.437, 0.1431 -0.4366 0.437, 0.1419 -0.4371 0.437, 0.139 -0.4413 0.437, 0.1408 -0.4379 0.437, 0.1401 -0.4387 0.437, 0.1394 -0.4399 0.437, 0.1445 -0.4365 0.437, 0.1774 -0.4226 0.4331, 0.1766 -0.4168 0.4331, 0.176 -0.4152 0.4331, 0.1744 -0.4113 0.4331, 0.172 -0.4079 0.4331, 0.1708 -0.4063 0.4331, 0.1659 -0.4022 0.4331, 0.1607 -0.3996 0.4331, 0.1598 -0.3993 0.4331, 0.1561 -0.3921 0.4331, 0.1502 -0.3852 0.4331, 0.1462 -0.3825 0.4331, 0.1428 -0.3802 0.4331, 0.1339 -0.3769 0.4331, 0.126 -0.376 0.4331, 0.1046 -0.3829 0.4331, 0.1053 -0.3825 0.4331, 0.1092 -0.3801 0.4331, 0.1175 -0.377 0.4331, 0.1004 -0.3865 0.4331, 0.0968 -0.3907 0.4331, 0.0948 -0.3905 0.4331, 0.0927 -0.3904 0.4331, 0.0857 -0.3912 0.4331, 0.0791 -0.3938 0.4331, 0.0735 -0.3978 0.4331, 0.0722 -0.3989 0.4331, 0.068 -0.4044 0.4331, 0.0664 -0.4079 0.4331, 0.0651 -0.4108 0.4331, 0.0643 -0.4152 0.4331, 0.0639 -0.4175 0.4331, 0.0639 -0.4192 0.4331, 0.0647 -0.4262 0.4331, 0.0673 -0.4328 0.4331, 0.0714 -0.4386 0.4331, 0.0769 -0.4433 0.4331, 0.0833 -0.4465 0.4331, 0.0856 -0.4471 0.4331, 0.0858 -0.4476 0.4331, 0.0874 -0.4509 0.4331, 0.09 -0.4542 0.4331, 0.0935 -0.4568 0.4331, 0.0951 -0.4575 0.4331, 0.0976 -0.4586 0.4331, 0.1018 -0.4592 0.4331, 0.1025 -0.4592 0.4331, 0.1203 -0.4414 0.4331, 0.1068 -0.4587 0.4331, 0.1099 -0.4575 0.4331, 0.1108 -0.4572 0.4331, 0.1143 -0.4547 0.4331, 0.117 -0.4516 0.4331, 0.1191 -0.4477 0.4331, 0.1192 -0.4476 0.4331, 0.1202 -0.4433 0.4331, 0.1203 -0.4397 0.4331, 0.1452 -0.4265 0.4331, 0.1397 -0.4171 0.4331, 0.1158 -0.4295 0.4331, 0.1127 -0.4267 0.4331, 0.109 -0.4247 0.4331, 0.1047 -0.4236 0.4331, 0.1025 -0.4235 0.4331, 0.0982 -0.424 0.4331, 0.0943 -0.4255 0.4331, 0.0907 -0.428 0.4331, 0.0877 -0.4314 0.4331, 0.0858 -0.4352 0.4331, 0.0819 -0.4328 0.4331, 0.0787 -0.4295 0.4331, 0.0766 -0.4259 0.4331, 0.0753 -0.4216 0.4331, 0.0751 -0.4188 0.4331, 0.0755 -0.4152 0.4331, 0.0756 -0.4145 0.4331, 0.0772 -0.4106 0.4331, 0.079 -0.4079 0.4331, 0.0796 -0.407 0.4331, 0.0827 -0.4043 0.4331, 0.0866 -0.4022 0.4331, 0.091 -0.4011 0.4331, 0.0929 -0.401 0.4331, 0.0971 -0.4016 0.4331, 0.1011 -0.403 0.4331, 0.1023 -0.4037 0.4331, 0.105 -0.3981 0.4331, 0.109 -0.3933 0.4331, 0.1138 -0.3898 0.4331, 0.1196 -0.3875 0.4331, 0.1262 -0.3866 0.4331, 0.1511 -0.4089 0.4331, 0.1509 -0.4079 0.4331, 0.15 -0.4039 0.4331, 0.1472 -0.3982 0.4331, 0.1432 -0.3934 0.4331, 0.1428 -0.393 0.4331, 0.1378 -0.3895 0.4331, 0.1322 -0.3874 0.4331, 0.1525 -0.4089 0.4331, 0.1559 -0.4093 0.4331, 0.159 -0.4105 0.4331, 0.1617 -0.4124 0.4331, 0.1638 -0.4147 0.4331, 0.1641 -0.4152 0.4331, 0.1654 -0.4178 0.4331, 0.1663 -0.4212 0.4331, 0.1664 -0.4228 0.4331, 0.1659 -0.4262 0.4331, 0.1647 -0.4294 0.4331, 0.1628 -0.4322 0.4331, 0.1625 -0.4324 0.4331, 0.1599 -0.4346 0.4331, 0.1568 -0.436 0.4331, 0.1536 -0.4366 0.4331, 0.1455 -0.4366 0.4331, 0.1452 -0.4366 0.4331, 0.1447 -0.4365 0.4331, 0.1445 -0.4365 0.4331, 0.1431 -0.4366 0.4331, 0.1419 -0.4371 0.4331, 0.1408 -0.4379 0.4331, 0.1401 -0.4387 0.4331, 0.1394 -0.4399 0.4331, 0.139 -0.4413 0.4331, 0.139 -0.442 0.4331, 0.1391 -0.4433 0.4331, 0.1396 -0.4445 0.4331, 0.1404 -0.4456 0.4331, 0.1408 -0.446 0.4331, 0.1419 -0.4469 0.4331, 0.1431 -0.4473 0.4331, 0.1441 -0.4475 0.4331, 0.1546 -0.4475 0.4331, 0.1605 -0.4462 0.4331, 0.166 -0.4436 0.4331, 0.1708 -0.4395 0.4331, 0.1743 -0.4346 0.4331, 0.1766 -0.4289 0.4331, 0.1023 -0.4347 0.4331, 0.1038 -0.4348 0.4331, 0.1055 -0.4354 0.4331, 0.1069 -0.4364 0.4331, 0.108 -0.4377 0.4331, 0.1088 -0.4391 0.4331, 0.1092 -0.4408 0.4331, 0.1092 -0.4424 0.4331, 0.1088 -0.4441 0.4331, 0.108 -0.4456 0.4331, 0.107 -0.4467 0.4331, 0.1056 -0.4477 0.4331, 0.1041 -0.4483 0.4331, 0.1023 -0.4485 0.4331, 0.102 -0.4485 0.4331, 0.1004 -0.4483 0.4331, 0.0988 -0.4476 0.4331, 0.0974 -0.4465 0.4331, 0.0964 -0.4453 0.4331, 0.0957 -0.4438 0.4331, 0.0954 -0.4421 0.4331, 0.0955 -0.4404 0.4331, 0.096 -0.4387 0.4331, 0.0969 -0.4372 0.4331, 0.0976 -0.4365 0.4331, 0.099 -0.4355 0.4331, 0.1006 -0.4349 0.4331, 0.1006 -0.4349 0.4331
            ]
        }
        coordIndex [
            0,1,2,-1,3,4,5,-1,5,4,6,-1,7,8,9,-1,10,11,12,-1,13,14,15,-1,12,16,10,-1,10,16,17,-1,10,17,18,-1,19,20,2,-1,2,20,21,-1,2,21,0,-1,9,8,22,-1,6,4,18,-1,18,4,23,-1,18,23,10,-1,3,5,24,-1,24,5,25,-1,24,25,26,-1,27,28,29,-1,29,28,30,-1,29,30,31,-1,31,30,32,-1,31,32,33,-1,33,32,34,-1,33,34,35,-1,35,34,2,-1,35,2,36,-1,36,2,37,-1,38,39,27,-1,27,39,40,-1,27,40,28,-1,41,42,43,-1,43,42,44,-1,43,44,45,-1,45,44,46,-1,45,46,47,-1,47,46,48,-1,13,15,49,-1,49,15,50,-1,49,50,51,-1,51,50,52,-1,51,52,53,-1,8,54,22,-1,22,54,55,-1,22,55,56,-1,56,55,57,-1,56,57,13,-1,13,57,58,-1,13,58,14,-1,59,60,61,-1,61,60,62,-1,61,62,63,-1,63,62,64,-1,63,64,65,-1,65,64,66,-1,65,66,67,-1,67,66,68,-1,67,68,69,-1,11,10,27,-1,27,10,70,-1,27,70,38,-1,46,71,48,-1,48,71,72,-1,48,72,73,-1,73,72,74,-1,73,74,75,-1,75,74,76,-1,75,76,77,-1,77,76,78,-1,77,78,79,-1,79,78,80,-1,79,80,81,-1,81,80,82,-1,81,82,59,-1,59,82,83,-1,59,83,60,-1,84,85,86,-1,86,85,87,-1,86,87,43,-1,43,87,88,-1,43,88,41,-1,89,90,91,-1,91,90,92,-1,91,92,93,-1,93,92,94,-1,93,94,95,-1,95,94,96,-1,95,96,97,-1,97,96,98,-1,97,98,19,-1,19,98,99,-1,19,99,20,-1,37,2,100,-1,100,2,1,-1,100,1,101,-1,53,52,102,-1,102,52,103,-1,102,103,104,-1,104,103,105,-1,104,105,106,-1,106,105,107,-1,106,107,108,-1,108,107,109,-1,108,109,84,-1,84,109,110,-1,84,110,85,-1,9,111,7,-1,7,111,112,-1,7,112,113,-1,113,112,114,-1,113,114,115,-1,115,114,116,-1,115,116,89,-1,89,116,117,-1,89,117,90,-1,26,25,118,-1,118,25,119,-1,118,119,120,-1,120,119,121,-1,120,121,122,-1,122,121,123,-1,122,123,124,-1,124,123,125,-1,124,125,126,-1,126,125,127,-1,126,127,128,-1,128,127,129,-1,128,129,130,-1,130,129,131,-1,130,131,132,-1,132,131,133,-1,132,133,134,-1,134,133,135,-1,134,135,1,-1,1,135,136,-1,1,136,101,-1,137,138,139,-1,68,140,69,-1,69,140,137,-1,69,137,141,-1,141,137,139,-1,142,143,137,-1,137,143,144,-1,137,144,138,-1,145,146,147,-1,146,148,147,-1,147,148,149,-1,147,149,150,-1,142,137,147,-1,147,137,151,-1,147,151,145,-1,77,152,153,-1,77,153,75,-1,75,153,154,-1,75,154,73,-1,154,155,73,-1,73,155,156,-1,73,156,48,-1,156,157,48,-1,48,157,158,-1,48,158,47,-1,47,158,159,-1,47,159,45,-1,45,159,160,-1,45,160,43,-1,43,160,161,-1,43,161,86,-1,86,161,162,-1,86,162,84,-1,84,162,108,-1,108,162,163,-1,163,164,108,-1,108,164,165,-1,108,165,106,-1,106,165,166,-1,106,166,104,-1,167,51,168,-1,168,51,53,-1,168,53,169,-1,169,53,102,-1,169,102,170,-1,170,102,104,-1,170,104,166,-1,51,167,171,-1,51,171,49,-1,49,171,172,-1,49,172,13,-1,13,172,173,-1,13,173,56,-1,56,173,174,-1,56,174,22,-1,22,174,175,-1,22,175,9,-1,9,175,176,-1,9,176,111,-1,111,176,177,-1,111,177,112,-1,112,177,178,-1,112,178,114,-1,117,116,179,-1,179,116,114,-1,179,114,178,-1,179,180,117,-1,117,180,181,-1,117,181,90,-1,90,181,182,-1,182,183,90,-1,90,183,184,-1,90,184,92,-1,92,184,185,-1,92,185,94,-1,94,185,186,-1,94,186,96,-1,96,186,187,-1,96,187,98,-1,98,187,188,-1,98,188,99,-1,99,188,189,-1,99,189,20,-1,20,189,190,-1,20,190,21,-1,21,190,191,-1,21,191,0,-1,191,192,0,-1,0,192,193,-1,0,193,1,-1,1,193,194,-1,1,194,134,-1,134,194,195,-1,134,195,132,-1,195,196,132,-1,132,196,197,-1,132,197,130,-1,130,197,198,-1,130,198,128,-1,199,24,26,-1,128,198,200,-1,128,200,126,-1,126,200,201,-1,126,201,124,-1,201,202,124,-1,124,202,203,-1,124,203,122,-1,122,203,204,-1,122,204,120,-1,120,204,205,-1,120,205,118,-1,118,205,206,-1,118,206,26,-1,26,206,207,-1,26,207,199,-1,3,24,208,-1,208,24,199,-1,4,3,209,-1,209,3,208,-1,23,4,210,-1,210,4,209,-1,10,23,211,-1,211,23,210,-1,10,211,212,-1,10,212,70,-1,70,212,213,-1,70,213,38,-1,38,213,214,-1,38,214,39,-1,39,214,215,-1,39,215,40,-1,40,215,216,-1,40,216,28,-1,28,216,217,-1,28,217,30,-1,30,217,218,-1,30,218,32,-1,32,218,219,-1,32,219,34,-1,34,219,220,-1,34,220,2,-1,2,220,221,-1,2,221,19,-1,19,221,222,-1,19,222,97,-1,97,222,223,-1,97,223,95,-1,95,223,224,-1,95,224,93,-1,93,224,225,-1,93,225,91,-1,225,226,91,-1,91,226,89,-1,226,227,89,-1,89,227,228,-1,89,228,115,-1,115,228,229,-1,115,229,113,-1,229,230,113,-1,113,230,231,-1,113,231,7,-1,7,231,232,-1,7,232,8,-1,8,232,233,-1,8,233,54,-1,54,233,234,-1,54,234,55,-1,55,234,235,-1,55,235,57,-1,57,235,236,-1,57,236,58,-1,58,236,237,-1,58,237,14,-1,14,237,238,-1,14,238,15,-1,15,238,239,-1,15,239,50,-1,50,239,240,-1,50,240,52,-1,52,240,241,-1,52,241,103,-1,103,241,242,-1,103,242,105,-1,243,41,244,-1,244,41,88,-1,244,88,245,-1,245,88,87,-1,245,87,246,-1,246,87,85,-1,246,85,247,-1,247,85,110,-1,247,110,248,-1,248,110,109,-1,248,109,249,-1,249,109,107,-1,249,107,250,-1,250,107,105,-1,250,105,242,-1,42,41,251,-1,251,41,243,-1,42,251,252,-1,42,252,44,-1,44,252,253,-1,44,253,46,-1,46,253,254,-1,46,254,71,-1,71,254,255,-1,71,255,72,-1,72,255,256,-1,72,256,74,-1,256,257,74,-1,74,257,258,-1,74,258,76,-1,76,258,259,-1,76,259,78,-1,78,259,260,-1,78,260,80,-1,80,260,261,-1,80,261,82,-1,82,261,262,-1,82,262,83,-1,83,262,263,-1,83,263,60,-1,60,263,264,-1,60,264,62,-1,62,264,265,-1,62,265,64,-1,64,265,266,-1,64,266,66,-1,68,66,267,-1,267,66,266,-1,68,267,268,-1,68,268,140,-1,140,268,269,-1,140,269,137,-1,137,269,270,-1,137,270,151,-1,151,270,271,-1,151,271,145,-1,145,271,272,-1,145,272,146,-1,146,272,273,-1,146,273,148,-1,148,273,274,-1,148,274,149,-1,149,274,275,-1,149,275,150,-1,150,275,276,-1,150,276,147,-1,147,276,277,-1,147,277,142,-1,142,277,278,-1,142,278,143,-1,143,278,279,-1,143,279,144,-1,144,279,280,-1,144,280,138,-1,138,280,281,-1,138,281,139,-1,139,281,282,-1,139,282,141,-1,141,282,283,-1,141,283,69,-1,69,283,284,-1,69,284,67,-1,65,67,285,-1,285,67,284,-1,65,285,286,-1,65,286,63,-1,63,286,287,-1,63,287,61,-1,61,287,288,-1,61,288,59,-1,59,288,289,-1,59,289,81,-1,81,289,290,-1,81,290,79,-1,79,290,152,-1,79,152,77,-1,11,291,292,-1,11,292,12,-1,12,292,293,-1,12,293,16,-1,16,293,294,-1,16,294,17,-1,17,294,295,-1,17,295,18,-1,18,295,296,-1,18,296,6,-1,6,296,297,-1,6,297,5,-1,5,297,298,-1,5,298,25,-1,25,298,299,-1,25,299,119,-1,119,299,300,-1,119,300,121,-1,121,300,301,-1,121,301,123,-1,123,301,302,-1,123,302,125,-1,125,302,303,-1,125,303,127,-1,127,303,304,-1,127,304,129,-1,129,304,305,-1,129,305,131,-1,131,305,306,-1,131,306,133,-1,133,306,307,-1,133,307,135,-1,135,307,308,-1,135,308,136,-1,136,308,309,-1,136,309,101,-1,101,309,310,-1,101,310,100,-1,100,310,311,-1,100,311,37,-1,37,311,312,-1,37,312,36,-1,36,312,313,-1,36,313,35,-1,35,313,314,-1,35,314,33,-1,33,314,315,-1,33,315,31,-1,31,315,316,-1,31,316,29,-1,29,316,317,-1,29,317,27,-1,27,317,291,-1,27,291,11,-1,
        ]
    }
}
Shape{
    appearance Appearance {
        material  Material 	{
            diffuseColor 0.7019607843137254 0.7019607843137254 0.7019607843137254
            specularColor 0.050980392156862744 0.050980392156862744 0.050980392156862744
            ambientIntensity 0.2
            transparency 0
            shininess 0.5
        }
    }
    geometry IndexedFaceSet {
        ccw TRUE
        solid FALSE
        coord DEF co Coordinate {
            point [
                0.102 -0.4485 0.4331, 0.0976 -0.4365 0.4331, 0.0969 -0.4372 0.4331, 0.1041 -0.4483 0.4331, 0.1056 -0.4477 0.4331, 0.1038 -0.4348 0.4331, 0.1023 -0.4347 0.4331, 0.1006 -0.4349 0.4331, 0.099 -0.4355 0.4331, 0.0957 -0.4438 0.4331, 0.0964 -0.4453 0.4331, 0.0974 -0.4465 0.4331, 0.1023 -0.4485 0.4331, 0.096 -0.4387 0.4331, 0.0955 -0.4404 0.4331, 0.0954 -0.4421 0.4331, 0.0988 -0.4476 0.4331, 0.1004 -0.4483 0.4331, 0.107 -0.4467 0.4331, 0.108 -0.4456 0.4331, 0.1088 -0.4441 0.4331, 0.1092 -0.4424 0.4331, 0.1092 -0.4408 0.4331, 0.1088 -0.4391 0.4331, 0.108 -0.4377 0.4331, 0.1069 -0.4364 0.4331, 0.1055 -0.4354 0.4331, 0.1055 -0.4354 0.4331
            ]
        }
        coordIndex [
            0,1,2,-1,3,4,5,-1,6,7,0,-1,0,7,8,-1,0,8,1,-1,9,10,2,-1,2,10,11,-1,6,0,5,-1,5,0,12,-1,5,12,3,-1,13,14,2,-1,2,14,15,-1,2,15,9,-1,11,16,2,-1,2,16,17,-1,2,17,0,-1,4,18,5,-1,5,18,19,-1,5,19,20,-1,20,21,5,-1,5,21,22,-1,5,22,23,-1,23,24,5,-1,5,24,25,-1,5,25,26,-1,
        ]
    }
}
Shape{
    appearance Appearance {
        material  Material 	{
            diffuseColor 0.0 0.0 0.0
            specularColor 0.0 0.0 0.0
            ambientIntensity 0.2
            transparency 0
            shininess 0.5
        }
    }
    geometry IndexedFaceSet {
        ccw TRUE
        solid FALSE
        coord DEF co Coordinate {
            point [
                0.2696 -0.4007 0.437, 0.2683 -0.4022 0.437, 0.2706 -0.4042 0.437, 0.268 -0.4025 0.437, 0.268 -0.4061 0.437, 0.2664 -0.4036 0.437, 0.2651 -0.4072 0.437, 0.2643 -0.4044 0.437, 0.2609 -0.4077 0.437, 0.2609 -0.4048 0.437, 0.254 -0.4077 0.437, 0.2573 -0.4048 0.437, 0.254 -0.3827 0.437, 0.2573 -0.3856 0.437, 0.2612 -0.3827 0.437, 0.261 -0.3856 0.437, 0.265 -0.3831 0.437, 0.2644 -0.3859 0.437, 0.268 -0.3842 0.437, 0.2665 -0.3867 0.437, 0.2706 -0.386 0.437, 0.2683 -0.3879 0.437, 0.2715 -0.3869 0.437, 0.269 -0.3886 0.437, 0.2731 -0.389 0.437, 0.2699 -0.39 0.437, 0.274 -0.3914 0.437, 0.2707 -0.3919 0.437, 0.2744 -0.3949 0.437, 0.271 -0.395 0.437, 0.2743 -0.397 0.437, 0.2709 -0.3965 0.437, 0.2736 -0.3998 0.437, 0.2705 -0.3988 0.437, 0.2723 -0.4023 0.437, 0.2706 -0.4042 0.4331, 0.2723 -0.4023 0.4331, 0.2736 -0.3998 0.4331, 0.2743 -0.397 0.4331, 0.2744 -0.3949 0.4331, 0.274 -0.3914 0.4331, 0.2731 -0.389 0.4331, 0.2715 -0.3869 0.4331, 0.2706 -0.386 0.4331, 0.268 -0.3842 0.4331, 0.265 -0.3831 0.4331, 0.2612 -0.3827 0.4331, 0.254 -0.3827 0.4331, 0.254 -0.4077 0.4331, 0.2609 -0.4077 0.4331, 0.2651 -0.4072 0.4331, 0.268 -0.4061 0.4331, 0.2683 -0.3879 0.4331, 0.269 -0.3886 0.4331, 0.2699 -0.39 0.4331, 0.2707 -0.3919 0.4331, 0.271 -0.395 0.4331, 0.261 -0.3856 0.4331, 0.2644 -0.3859 0.4331, 0.2665 -0.3867 0.4331, 0.2573 -0.3856 0.4331, 0.2573 -0.4048 0.4331, 0.2609 -0.4048 0.4331, 0.2683 -0.4022 0.4331, 0.268 -0.4025 0.4331, 0.2664 -0.4036 0.4331, 0.2643 -0.4044 0.4331, 0.2709 -0.3965 0.4331, 0.2705 -0.3988 0.4331, 0.2696 -0.4007 0.4331, 0.2696 -0.4007 0.4331
            ]
        }
        coordIndex [
            0,1,2,-1,2,1,3,-1,2,3,4,-1,4,3,5,-1,4,5,6,-1,6,5,7,-1,6,7,8,-1,8,7,9,-1,8,9,10,-1,10,9,11,-1,10,11,12,-1,12,11,13,-1,12,13,14,-1,14,13,15,-1,14,15,16,-1,16,15,17,-1,16,17,18,-1,18,17,19,-1,18,19,20,-1,20,19,21,-1,20,21,22,-1,22,21,23,-1,22,23,24,-1,24,23,25,-1,24,25,26,-1,26,25,27,-1,26,27,28,-1,28,27,29,-1,28,29,30,-1,30,29,31,-1,30,31,32,-1,32,31,33,-1,32,33,34,-1,34,33,0,-1,34,0,2,-1,2,35,36,-1,2,36,34,-1,34,36,37,-1,34,37,32,-1,32,37,38,-1,32,38,30,-1,30,38,39,-1,30,39,28,-1,28,39,40,-1,28,40,26,-1,26,40,41,-1,26,41,24,-1,24,41,42,-1,24,42,22,-1,22,42,43,-1,22,43,20,-1,20,43,44,-1,20,44,18,-1,18,44,45,-1,18,45,16,-1,16,45,46,-1,16,46,14,-1,12,14,47,-1,47,14,46,-1,10,12,48,-1,48,12,47,-1,8,10,49,-1,49,10,48,-1,8,49,50,-1,8,50,6,-1,6,50,51,-1,6,51,4,-1,4,51,35,-1,4,35,2,-1,21,52,53,-1,21,53,23,-1,23,53,54,-1,23,54,25,-1,25,54,55,-1,25,55,27,-1,27,55,56,-1,27,56,29,-1,15,57,58,-1,15,58,17,-1,17,58,59,-1,17,59,19,-1,19,59,52,-1,19,52,21,-1,15,13,57,-1,57,13,60,-1,13,11,60,-1,60,11,61,-1,11,9,61,-1,61,9,62,-1,1,63,64,-1,1,64,3,-1,3,64,65,-1,3,65,5,-1,5,65,66,-1,5,66,7,-1,7,66,62,-1,7,62,9,-1,29,56,67,-1,29,67,31,-1,31,67,68,-1,31,68,33,-1,33,68,69,-1,33,69,0,-1,0,69,63,-1,0,63,1,-1,
        ]
    }
}
Shape{
    appearance Appearance {
        material  Material 	{
            diffuseColor 0.7019607843137254 0.7019607843137254 0.7019607843137254
            specularColor 0.050980392156862744 0.050980392156862744 0.050980392156862744
            ambientIntensity 0.2
            transparency 0
            shininess 0.5
        }
    }
    geometry IndexedFaceSet {
        ccw TRUE
        solid FALSE
        coord DEF co Coordinate {
            point [
                0.2573 -0.3856 0.4331, 0.2573 -0.4048 0.4331, 0.261 -0.3856 0.4331, 0.2609 -0.4048 0.4331, 0.2643 -0.4044 0.4331, 0.2664 -0.4036 0.4331, 0.268 -0.4025 0.4331, 0.2683 -0.4022 0.4331, 0.2696 -0.4007 0.4331, 0.2705 -0.3988 0.4331, 0.271 -0.395 0.4331, 0.2683 -0.3879 0.4331, 0.2665 -0.3867 0.4331, 0.2707 -0.3919 0.4331, 0.2699 -0.39 0.4331, 0.269 -0.3886 0.4331, 0.2709 -0.3965 0.4331, 0.2644 -0.3859 0.4331, 0.2644 -0.3859 0.4331
            ]
        }
        coordIndex [
            0,1,2,-1,2,1,3,-1,3,4,2,-1,2,4,5,-1,2,5,6,-1,6,7,2,-1,2,7,8,-1,2,8,9,-1,10,11,12,-1,13,14,10,-1,10,14,15,-1,10,15,11,-1,9,16,2,-1,2,16,10,-1,2,10,17,-1,17,10,12,-1,
        ]
    }
}
Shape{
    appearance Appearance {
        material  Material 	{
            diffuseColor 0.0 0.0 0.0
            specularColor 0.0 0.0 0.0
            ambientIntensity 0.2
            transparency 0
            shininess 0.5
        }
    }
    geometry IndexedFaceSet {
        ccw TRUE
        solid FALSE
        coord DEF co Coordinate {
            point [
                0.2244 -0.4052 0.437, 0.2244 -0.4052 0.4331, 0.2221 -0.405 0.4331, 0.2221 -0.405 0.437, 0.2203 -0.4043 0.4331, 0.2203 -0.4043 0.437, 0.2186 -0.4032 0.4331, 0.2186 -0.4032 0.437, 0.218 -0.4026 0.4331, 0.218 -0.4026 0.437, 0.2168 -0.401 0.4331, 0.2168 -0.401 0.437, 0.2159 -0.3989 0.4331, 0.2159 -0.3989 0.437, 0.2155 -0.3964 0.4331, 0.2155 -0.3964 0.437, 0.2155 -0.3955 0.4331, 0.2155 -0.3955 0.437, 0.2159 -0.3921 0.4331, 0.2159 -0.3921 0.437, 0.2167 -0.3899 0.4331, 0.2167 -0.3899 0.437, 0.2179 -0.3881 0.4331, 0.2179 -0.3881 0.437, 0.2181 -0.3879 0.4331, 0.2181 -0.3879 0.437, 0.2198 -0.3866 0.4331, 0.2198 -0.3866 0.437, 0.2217 -0.3857 0.4331, 0.2217 -0.3857 0.437, 0.2239 -0.3852 0.4331, 0.2239 -0.3852 0.437, 0.2249 -0.3852 0.4331, 0.2249 -0.3852 0.437, 0.2308 -0.3867 0.4331, 0.2308 -0.3867 0.437, 0.2306 -0.3865 0.437, 0.228 -0.3855 0.4331, 0.228 -0.3855 0.437, 0.2298 -0.3862 0.4331, 0.2306 -0.3865 0.4331, 0.2308 -0.3833 0.437, 0.2308 -0.3833 0.4331, 0.2298 -0.383 0.4331, 0.2282 -0.3825 0.437, 0.2249 -0.3823 0.4331, 0.2249 -0.3823 0.437, 0.2276 -0.3825 0.4331, 0.2282 -0.3825 0.4331, 0.2232 -0.3825 0.4331, 0.2213 -0.3827 0.437, 0.2213 -0.3827 0.4331, 0.2187 -0.3837 0.4331, 0.2187 -0.3837 0.437, 0.2163 -0.3854 0.4331, 0.2163 -0.3854 0.437, 0.2157 -0.3859 0.4331, 0.2157 -0.3859 0.437, 0.2139 -0.3883 0.4331, 0.2139 -0.3883 0.437, 0.2132 -0.3899 0.4331, 0.2127 -0.3911 0.437, 0.2127 -0.3911 0.4331, 0.2122 -0.3944 0.4331, 0.2122 -0.3944 0.437, 0.2121 -0.3957 0.4331, 0.2121 -0.3957 0.437, 0.2126 -0.3997 0.4331, 0.2126 -0.3997 0.437, 0.2132 -0.4013 0.4331, 0.2136 -0.4023 0.437, 0.2136 -0.4023 0.4331, 0.2151 -0.4045 0.4331, 0.2151 -0.4045 0.437, 0.2153 -0.4047 0.4331, 0.2153 -0.4047 0.437, 0.2239 -0.4081 0.4331, 0.2239 -0.4081 0.437, 0.2221 -0.408 0.437, 0.2171 -0.4062 0.4331, 0.2171 -0.4062 0.437, 0.2194 -0.4074 0.4331, 0.2194 -0.4074 0.437, 0.2216 -0.4079 0.4331, 0.2221 -0.408 0.4331, 0.2308 -0.4067 0.4331, 0.2308 -0.4067 0.437, 0.2304 -0.4069 0.437, 0.2261 -0.4079 0.4331, 0.2277 -0.4078 0.437, 0.2277 -0.4078 0.4331, 0.2298 -0.4071 0.4331, 0.2304 -0.4069 0.4331, 0.2308 -0.4036 0.437, 0.2308 -0.4036 0.4331, 0.2298 -0.4041 0.4331, 0.2287 -0.4046 0.437, 0.2287 -0.4046 0.4331, 0.226 -0.4052 0.4331, 0.226 -0.4052 0.437, 0.3141 -0.4377 0.437, 0.3131 -0.4406 0.437, 0.3225 -0.4377 0.437, 0.3235 -0.4406 0.437, 0.3179 -0.4273 0.437, 0.3167 -0.4224 0.437, 0.3071 -0.4474 0.437, 0.3107 -0.4474 0.437, 0.3181 -0.4266 0.437, 0.3183 -0.4256 0.437, 0.3201 -0.4224 0.437, 0.3184 -0.4256 0.437, 0.3186 -0.4266 0.437, 0.3188 -0.4273 0.437, 0.3297 -0.4474 0.437, 0.3261 -0.4474 0.437, 0.3167 -0.4224 0.4331, 0.3201 -0.4224 0.4331, 0.3071 -0.4474 0.4331, 0.3107 -0.4474 0.4331, 0.3131 -0.4406 0.4331, 0.3235 -0.4406 0.4331, 0.3261 -0.4474 0.4331, 0.3297 -0.4474 0.4331, 0.3179 -0.4273 0.4331, 0.3181 -0.4266 0.4331, 0.3183 -0.4256 0.4331, 0.3141 -0.4377 0.4331, 0.3225 -0.4377 0.4331, 0.3188 -0.4273 0.4331, 0.3184 -0.4256 0.4331, 0.3186 -0.4266 0.4331, 0.3186 -0.4266 0.4331
            ]
        }
        coordIndex [
            0,1,2,-1,0,2,3,-1,3,2,4,-1,3,4,5,-1,5,4,6,-1,5,6,7,-1,7,6,8,-1,7,8,9,-1,9,8,10,-1,9,10,11,-1,11,10,12,-1,11,12,13,-1,13,12,14,-1,13,14,15,-1,15,14,16,-1,15,16,17,-1,17,16,18,-1,17,18,19,-1,19,18,20,-1,19,20,21,-1,21,20,22,-1,21,22,23,-1,23,22,24,-1,23,24,25,-1,25,24,26,-1,25,26,27,-1,27,26,28,-1,27,28,29,-1,29,28,30,-1,29,30,31,-1,31,30,32,-1,31,32,33,-1,34,35,36,-1,33,32,37,-1,33,37,38,-1,38,37,39,-1,38,39,36,-1,36,39,40,-1,36,40,34,-1,41,35,42,-1,42,35,34,-1,41,42,43,-1,41,43,44,-1,45,46,47,-1,47,46,44,-1,47,44,48,-1,48,44,43,-1,46,45,49,-1,46,49,50,-1,49,51,50,-1,50,51,52,-1,50,52,53,-1,53,52,54,-1,53,54,55,-1,55,54,56,-1,55,56,57,-1,57,56,58,-1,57,58,59,-1,59,58,60,-1,59,60,61,-1,60,62,61,-1,61,62,63,-1,61,63,64,-1,64,63,65,-1,64,65,66,-1,66,65,67,-1,66,67,68,-1,68,67,69,-1,68,69,70,-1,69,71,70,-1,70,71,72,-1,70,72,73,-1,73,72,74,-1,73,74,75,-1,76,77,78,-1,75,74,79,-1,75,79,80,-1,80,79,81,-1,80,81,82,-1,82,81,83,-1,82,83,78,-1,78,83,84,-1,78,84,76,-1,85,86,87,-1,76,88,77,-1,77,88,89,-1,88,90,89,-1,89,90,91,-1,89,91,87,-1,87,91,92,-1,87,92,85,-1,93,86,94,-1,94,86,85,-1,94,95,93,-1,93,95,96,-1,95,97,96,-1,96,97,98,-1,96,98,99,-1,99,98,1,-1,99,1,0,-1,19,21,59,-1,27,29,50,-1,59,21,57,-1,50,29,46,-1,50,53,27,-1,27,53,55,-1,27,55,25,-1,25,55,57,-1,25,57,23,-1,23,57,21,-1,29,31,46,-1,46,31,33,-1,46,33,44,-1,44,33,38,-1,44,38,41,-1,41,38,36,-1,41,36,35,-1,66,17,64,-1,64,17,19,-1,64,19,61,-1,61,19,59,-1,86,93,87,-1,87,93,96,-1,87,96,89,-1,89,96,99,-1,89,99,77,-1,77,99,0,-1,77,0,78,-1,78,0,3,-1,78,3,82,-1,82,3,5,-1,82,5,80,-1,80,5,7,-1,80,7,75,-1,75,7,9,-1,75,9,73,-1,73,9,11,-1,73,11,70,-1,70,11,68,-1,68,11,13,-1,68,13,66,-1,66,13,15,-1,66,15,17,-1,100,101,102,-1,102,101,103,-1,104,105,100,-1,100,105,106,-1,100,106,101,-1,101,106,107,-1,104,108,105,-1,105,108,109,-1,105,109,110,-1,110,109,111,-1,110,111,112,-1,112,113,110,-1,110,113,102,-1,110,102,114,-1,114,102,103,-1,114,103,115,-1,105,110,116,-1,116,110,117,-1,106,105,118,-1,118,105,116,-1,107,106,119,-1,119,106,118,-1,101,107,120,-1,120,107,119,-1,103,101,121,-1,121,101,120,-1,115,103,122,-1,122,103,121,-1,114,115,123,-1,123,115,122,-1,110,114,117,-1,117,114,123,-1,104,124,125,-1,104,125,108,-1,108,125,126,-1,108,126,109,-1,104,100,124,-1,124,100,127,-1,100,102,127,-1,127,102,128,-1,102,113,128,-1,128,113,129,-1,111,130,131,-1,111,131,112,-1,112,131,129,-1,112,129,113,-1,111,109,130,-1,130,109,126,-1,
        ]
    }
}
Shape{
    appearance Appearance {
        material  Material 	{
            diffuseColor 0.7019607843137254 0.7019607843137254 0.7019607843137254
            specularColor 0.050980392156862744 0.050980392156862744 0.050980392156862744
            ambientIntensity 0.2
            transparency 0
            shininess 0.5
        }
    }
    geometry IndexedFaceSet {
        ccw TRUE
        solid FALSE
        coord DEF co Coordinate {
            point [
                0.3184 -0.4256 0.4331, 0.3183 -0.4256 0.4331, 0.3186 -0.4266 0.4331, 0.3181 -0.4266 0.4331, 0.3188 -0.4273 0.4331, 0.3179 -0.4273 0.4331, 0.3225 -0.4377 0.4331, 0.3141 -0.4377 0.4331, 0.3141 -0.4377 0.4331
            ]
        }
        coordIndex [
            0,1,2,-1,2,1,3,-1,2,3,4,-1,4,3,5,-1,4,5,6,-1,6,5,7,-1,
        ]
    }
}
Shape{
    appearance Appearance {
        material  Material 	{
            diffuseColor 0.0 0.0 0.0
            specularColor 0.0 0.0 0.0
            ambientIntensity 0.2
            transparency 0
            shininess 0.5
        }
    }
    geometry IndexedFaceSet {
        ccw TRUE
        solid FALSE
        coord DEF co Coordinate {
            point [
                0.2806 -0.4445 0.437, 0.2806 -0.4445 0.4331, 0.2704 -0.4445 0.437, 0.2751 -0.4445 0.4331, 0.2704 -0.4445 0.4331, 0.2704 -0.4361 0.437, 0.2704 -0.4361 0.4331, 0.2794 -0.4361 0.437, 0.2751 -0.4361 0.4331, 0.2794 -0.4361 0.4331, 0.2794 -0.4333 0.437, 0.2794 -0.4333 0.4331, 0.2704 -0.4333 0.4331, 0.2704 -0.4333 0.437, 0.2751 -0.4333 0.4331, 0.2704 -0.4253 0.437, 0.2704 -0.4253 0.4331, 0.2801 -0.4253 0.4331, 0.2801 -0.4253 0.437, 0.2751 -0.4253 0.4331, 0.2801 -0.4224 0.437, 0.2801 -0.4224 0.4331, 0.2672 -0.4224 0.4331, 0.2672 -0.4224 0.437, 0.2751 -0.4224 0.4331, 0.2672 -0.4474 0.437, 0.2672 -0.4474 0.4331, 0.2806 -0.4474 0.437, 0.2751 -0.4474 0.4331, 0.2806 -0.4474 0.4331, 0.2011 -0.4445 0.437, 0.2113 -0.4445 0.437, 0.2011 -0.4445 0.4331, 0.2113 -0.4445 0.4331, 0.2011 -0.4361 0.437, 0.2011 -0.4361 0.4331, 0.2101 -0.4361 0.437, 0.2101 -0.4361 0.4331, 0.2101 -0.4333 0.437, 0.2101 -0.4333 0.4331, 0.2011 -0.4333 0.437, 0.2011 -0.4333 0.4331, 0.2011 -0.4253 0.437, 0.2011 -0.4253 0.4331, 0.2108 -0.4253 0.437, 0.2108 -0.4253 0.4331, 0.2108 -0.4224 0.437, 0.2108 -0.4224 0.4331, 0.1979 -0.4224 0.437, 0.1979 -0.4224 0.4331, 0.1979 -0.4474 0.437, 0.1979 -0.4474 0.4331, 0.2113 -0.4474 0.437, 0.2113 -0.4474 0.4331, 0.2828 -0.398 0.437, 0.2818 -0.4009 0.437, 0.2912 -0.398 0.437, 0.2922 -0.4009 0.437, 0.2865 -0.3876 0.437, 0.2853 -0.3827 0.437, 0.2758 -0.4077 0.437, 0.2794 -0.4077 0.437, 0.2868 -0.3869 0.437, 0.2869 -0.3859 0.437, 0.2888 -0.3827 0.437, 0.287 -0.3859 0.437, 0.2872 -0.3869 0.437, 0.2874 -0.3876 0.437, 0.2983 -0.4077 0.437, 0.2947 -0.4077 0.437, 0.2853 -0.3827 0.4331, 0.2888 -0.3827 0.4331, 0.2758 -0.4077 0.4331, 0.283 -0.3888 0.4331, 0.2794 -0.4077 0.4331, 0.2818 -0.4009 0.4331, 0.2922 -0.4009 0.4331, 0.283 -0.4009 0.4331, 0.2947 -0.4077 0.4331, 0.2983 -0.4077 0.4331, 0.2865 -0.3876 0.4331, 0.2868 -0.3869 0.4331, 0.2869 -0.3859 0.4331, 0.2828 -0.398 0.4331, 0.2912 -0.398 0.4331, 0.2874 -0.3876 0.4331, 0.287 -0.3859 0.4331, 0.2872 -0.3869 0.4331, 0.2872 -0.3869 0.4331
            ]
        }
        coordIndex [
            0,1,2,-1,2,1,3,-1,2,3,4,-1,5,2,6,-1,6,2,4,-1,5,6,7,-1,7,6,8,-1,7,8,9,-1,10,7,11,-1,11,7,9,-1,12,13,14,-1,14,13,10,-1,14,10,11,-1,15,13,16,-1,16,13,12,-1,17,18,19,-1,19,18,15,-1,19,15,16,-1,20,18,21,-1,21,18,17,-1,22,23,24,-1,24,23,20,-1,24,20,21,-1,25,23,26,-1,26,23,22,-1,25,26,27,-1,27,26,28,-1,27,28,29,-1,0,27,1,-1,1,27,29,-1,25,27,0,-1,0,2,25,-1,25,2,5,-1,25,5,23,-1,18,20,15,-1,15,20,23,-1,15,23,13,-1,13,23,5,-1,13,5,10,-1,10,5,7,-1,30,31,32,-1,32,31,33,-1,34,30,35,-1,35,30,32,-1,36,34,37,-1,37,34,35,-1,38,36,39,-1,39,36,37,-1,40,38,41,-1,41,38,39,-1,42,40,43,-1,43,40,41,-1,44,42,45,-1,45,42,43,-1,46,44,47,-1,47,44,45,-1,48,46,49,-1,49,46,47,-1,50,48,51,-1,51,48,49,-1,52,50,53,-1,53,50,51,-1,31,52,33,-1,33,52,53,-1,50,52,31,-1,31,30,50,-1,50,30,34,-1,50,34,48,-1,44,46,42,-1,42,46,48,-1,42,48,40,-1,40,48,34,-1,40,34,38,-1,38,34,36,-1,54,55,56,-1,56,55,57,-1,58,59,54,-1,54,59,60,-1,54,60,55,-1,55,60,61,-1,58,62,59,-1,59,62,63,-1,59,63,64,-1,64,63,65,-1,64,65,66,-1,66,67,64,-1,64,67,56,-1,64,56,68,-1,68,56,57,-1,68,57,69,-1,59,64,70,-1,70,64,71,-1,72,60,73,-1,73,60,59,-1,73,59,70,-1,61,60,74,-1,74,60,72,-1,55,61,75,-1,75,61,74,-1,76,57,77,-1,77,57,55,-1,77,55,75,-1,69,57,78,-1,78,57,76,-1,68,69,79,-1,79,69,78,-1,64,68,71,-1,71,68,79,-1,58,80,81,-1,58,81,62,-1,62,81,82,-1,62,82,63,-1,58,54,80,-1,80,54,83,-1,54,56,83,-1,83,56,84,-1,56,67,84,-1,84,67,85,-1,65,86,87,-1,65,87,66,-1,66,87,85,-1,66,85,67,-1,65,63,86,-1,86,63,82,-1,
        ]
    }
}
Shape{
    appearance Appearance {
        material  Material 	{
            diffuseColor 0.7019607843137254 0.7019607843137254 0.7019607843137254
            specularColor 0.050980392156862744 0.050980392156862744 0.050980392156862744
            ambientIntensity 0.2
            transparency 0
            shininess 0.5
        }
    }
    geometry IndexedFaceSet {
        ccw TRUE
        solid FALSE
        coord DEF co Coordinate {
            point [
                0.287 -0.3859 0.4331, 0.2869 -0.3859 0.4331, 0.2872 -0.3869 0.4331, 0.2868 -0.3869 0.4331, 0.2874 -0.3876 0.4331, 0.2865 -0.3876 0.4331, 0.2912 -0.398 0.4331, 0.2828 -0.398 0.4331, 0.2828 -0.398 0.4331
            ]
        }
        coordIndex [
            0,1,2,-1,2,1,3,-1,2,3,4,-1,4,3,5,-1,4,5,6,-1,6,5,7,-1,
        ]
    }
}
Shape{
    appearance Appearance {
        material  Material 	{
            diffuseColor 0.0 0.0 0.0
            specularColor 0.0 0.0 0.0
            ambientIntensity 0.2
            transparency 0
            shininess 0.5
        }
    }
    geometry IndexedFaceSet {
        ccw TRUE
        solid FALSE
        coord DEF co Coordinate {
            point [
                0.2391 -0.4048 0.4331, 0.2391 -0.4048 0.437, 0.2458 -0.4048 0.4331, 0.2493 -0.4048 0.437, 0.2493 -0.4048 0.4331, 0.2391 -0.3964 0.437, 0.2391 -0.3964 0.4331, 0.248 -0.3964 0.4331, 0.248 -0.3964 0.437, 0.2458 -0.3964 0.4331, 0.248 -0.3936 0.437, 0.248 -0.3936 0.4331, 0.2391 -0.3936 0.4331, 0.2391 -0.3936 0.437, 0.2458 -0.3936 0.4331, 0.2391 -0.3856 0.437, 0.2391 -0.3856 0.4331, 0.2487 -0.3856 0.437, 0.2458 -0.3856 0.4331, 0.2487 -0.3856 0.4331, 0.2487 -0.3827 0.437, 0.2487 -0.3827 0.4331, 0.2359 -0.3827 0.4331, 0.2359 -0.3827 0.437, 0.2458 -0.3827 0.4331, 0.2359 -0.4077 0.437, 0.2359 -0.4077 0.4331, 0.2493 -0.4077 0.437, 0.2458 -0.4077 0.4331, 0.2493 -0.4077 0.4331, 0.2011 -0.4048 0.437, 0.2111 -0.4048 0.437, 0.2011 -0.4048 0.4331, 0.2111 -0.4048 0.4331, 0.2011 -0.3827 0.437, 0.2011 -0.3827 0.4331, 0.1979 -0.3827 0.437, 0.1979 -0.3827 0.4331, 0.1979 -0.4077 0.437, 0.1979 -0.4077 0.4331, 0.2111 -0.4077 0.437, 0.2111 -0.4077 0.4331, 0.2111 -0.4077 0.4331
            ]
        }
        coordIndex [
            0,1,2,-1,2,1,3,-1,2,3,4,-1,5,1,6,-1,6,1,0,-1,7,8,9,-1,9,8,5,-1,9,5,6,-1,10,8,11,-1,11,8,7,-1,12,13,14,-1,14,13,10,-1,14,10,11,-1,15,13,16,-1,16,13,12,-1,15,16,17,-1,17,16,18,-1,17,18,19,-1,20,17,21,-1,21,17,19,-1,22,23,24,-1,24,23,20,-1,24,20,21,-1,25,23,26,-1,26,23,22,-1,25,26,27,-1,27,26,28,-1,27,28,29,-1,3,27,4,-1,4,27,29,-1,25,27,3,-1,3,1,25,-1,25,1,5,-1,25,5,23,-1,17,20,15,-1,15,20,23,-1,15,23,13,-1,13,23,5,-1,13,5,10,-1,10,5,8,-1,30,31,32,-1,32,31,33,-1,34,30,35,-1,35,30,32,-1,36,34,37,-1,37,34,35,-1,38,36,39,-1,39,36,37,-1,40,38,41,-1,41,38,39,-1,31,40,33,-1,33,40,41,-1,34,36,30,-1,30,36,38,-1,30,38,31,-1,31,38,40,-1,
        ]
    }
}