#VRML V2.0 utf8
# 3D model generated by easyeda2kicad.py (https://github.com/uPesy/easyeda2kicad.py)

Shape{
    appearance Appearance {
        material  Material 	{
            diffuseColor 1.0 1.0 1.0
            specularColor 0.8784313725490196 0.8784313725490196 0.8784313725490196
            ambientIntensity 0.2
            transparency 0
            shininess 0.5
        }
    }
    geometry IndexedFaceSet {
        ccw TRUE
        solid FALSE
        coord DEF co Coordinate {
            point [
                0.4862 -0.0591 0.0, 0.0328 -0.4528 0.0, 0.0328 -0.0769 0.0, 0.0332 -0.0715 0.0, 0.0328 -0.0645 0.0, 0.4862 0.0124 0.0, 0.6535 -0.315 0.0, 0.6535 -0.4528 0.0, 0.4862 -0.315 0.0, 0.4862 -0.1969 0.0, 0.6535 -0.1969 0.0, 0.6535 -0.0591 0.0, 0.4862 0.315 0.0, 0.4862 0.1969 0.0, 0.0328 0.0124 0.0, 0.6535 0.1969 0.0, 0.6535 0.0591 0.0, 0.4862 0.0591 0.0, 0.0323 -0.0376 0.0, 0.0323 0.0028 0.0, 0.0236 0.0028 0.0, 0.0236 -0.027 0.0, -0.0023 -0.027 0.0, -0.0023 0.0008 0.0, 0.0246 -0.0714 0.0, -0.0345 -0.0543 0.0, 0.0234 -0.0618 0.0, -0.0337 -0.0529 0.0, 0.0196 -0.0529 0.0, 0.0326 -0.062 0.0, 0.0301 -0.0529 0.0, -0.0109 -0.027 0.0, -0.0378 -0.027 0.0, -0.0109 0.0008 0.0, -0.0378 0.0047 0.0, -0.0465 -0.1182 0.0, -0.0464 -0.0843 0.0, -0.0378 -0.1182 0.0, -0.0438 -0.092 0.0, -0.0396 -0.0984 0.0, -0.0474 -0.0724 0.0, -0.0474 -0.0746 0.0, -0.1866 0.0124 0.0, -0.0465 -0.0376 0.0, -0.0424 -0.0529 0.0, -0.0458 -0.0613 0.0, 0.0237 -0.0791 0.0, 0.0216 -0.085 0.0, 0.0179 -0.0906 0.0, 0.0126 -0.0953 0.0, 0.0065 -0.0985 0.0, -0.002 -0.1006 0.0, -0.0079 -0.1009 0.0, -0.0165 -0.1001 0.0, -0.0232 -0.098 0.0, -0.0388 -0.0731 0.0, -0.0326 -0.0911 0.0, -0.038 -0.0804 0.0, -0.0358 -0.0862 0.0, -0.0287 -0.0947 0.0, -0.0376 -0.0627 0.0, 0.0115 -0.1073 0.0, 0.0189 -0.1027 0.0, 0.0323 -0.148 0.0, 0.0255 -0.0959 0.0, 0.0299 -0.0885 0.0, -0.0334 -0.1043 0.0, -0.0259 -0.1084 0.0, -0.0378 -0.148 0.0, -0.1866 -0.4528 0.0, -0.0465 -0.1586 0.0, 0.0323 -0.1586 0.0, 0.0325 -0.0799 0.0, -0.0465 0.0047 0.0, -0.0175 -0.1108 0.0, -0.0086 -0.1115 0.0, 0.0026 -0.1104 0.0, -0.0465 0.1007 0.0, -0.0465 0.0892 0.0, -0.0456 0.0512 0.0, -0.0465 0.0415 0.0, -0.0465 0.0201 0.0, -0.0166 0.0823 0.0, -0.0249 0.0795 0.0, -0.0244 0.1408 0.0, -0.0244 0.1082 0.0, -0.0465 0.1487 0.0, -0.1866 0.4528 0.0, -0.0319 0.075 0.0, -0.0381 0.0685 0.0, -0.0429 0.0603 0.0, 0.0328 0.4528 0.0, 0.0323 0.1295 0.0, -0.0465 0.1602 0.0, 0.0136 0.0785 0.0, 0.006 0.0818 0.0, 0.0323 0.119 0.0, -0.0022 0.0833 0.0, -0.0061 0.0834 0.0, 0.6535 0.4528 0.0, 0.6535 0.315 0.0, 0.0278 0.0629 0.0, 0.0228 0.0707 0.0, 0.0199 0.0737 0.0, 0.0323 0.0201 0.0, 0.0323 0.0423 0.0, 0.0311 0.0536 0.0, 0.0311 0.0536 0.0
            ]
        }
        coordIndex [
            0,1,2,-1,2,3,0,-1,0,3,4,-1,0,4,5,-1,6,7,8,-1,8,7,1,-1,8,1,9,-1,9,1,0,-1,9,0,10,-1,10,0,11,-1,12,13,14,-1,15,16,13,-1,13,16,17,-1,13,17,14,-1,18,19,14,-1,14,19,20,-1,21,22,20,-1,20,22,23,-1,24,25,26,-1,26,25,27,-1,26,27,28,-1,17,5,14,-1,14,5,4,-1,14,4,18,-1,18,4,29,-1,18,29,30,-1,31,32,33,-1,33,32,34,-1,35,36,37,-1,37,36,38,-1,37,38,39,-1,40,41,42,-1,30,28,18,-1,18,28,27,-1,18,27,43,-1,43,27,44,-1,43,44,45,-1,24,46,25,-1,25,46,47,-1,25,47,48,-1,48,49,25,-1,25,49,50,-1,25,50,51,-1,51,52,25,-1,25,52,53,-1,25,53,54,-1,55,56,57,-1,57,56,58,-1,54,59,25,-1,25,59,56,-1,25,56,60,-1,60,56,55,-1,61,62,63,-1,63,62,64,-1,63,64,65,-1,39,66,37,-1,37,66,67,-1,37,67,68,-1,41,36,42,-1,42,36,35,-1,42,35,69,-1,69,35,70,-1,69,70,1,-1,1,70,71,-1,1,71,2,-1,2,71,63,-1,2,63,72,-1,72,63,65,-1,34,73,42,-1,42,73,43,-1,42,43,40,-1,40,43,45,-1,67,74,68,-1,68,74,75,-1,68,75,63,-1,63,75,76,-1,63,76,61,-1,77,78,42,-1,79,80,42,-1,42,80,81,-1,82,83,78,-1,81,14,42,-1,42,14,20,-1,42,20,34,-1,34,20,23,-1,34,23,33,-1,84,85,86,-1,86,85,77,-1,86,77,87,-1,87,77,42,-1,83,88,78,-1,78,88,89,-1,78,89,42,-1,42,89,90,-1,42,90,79,-1,91,92,87,-1,87,92,93,-1,87,93,86,-1,94,95,96,-1,96,95,97,-1,96,97,78,-1,78,97,98,-1,78,98,82,-1,96,92,14,-1,14,92,91,-1,14,91,12,-1,12,91,99,-1,12,99,100,-1,101,102,96,-1,96,102,103,-1,96,103,94,-1,81,104,14,-1,14,104,105,-1,14,105,96,-1,96,105,106,-1,96,106,101,-1,
        ]
    }
}
Shape{
    appearance Appearance {
        material  Material 	{
            diffuseColor 0.25098039215686274 0.25098039215686274 0.25098039215686274
            specularColor 0.12549019607843137 0.12549019607843137 0.12549019607843137
            ambientIntensity 0.2
            transparency 0
            shininess 0.5
        }
    }
    geometry IndexedFaceSet {
        ccw TRUE
        solid FALSE
        coord DEF co Coordinate {
            point [
                0.4862 -0.1969 0.0039, 0.6496 -0.1969 0.0039, 0.4862 -0.315 0.0039, 0.6496 -0.315 0.0039, 0.4862 0.0591 0.0039, 0.6496 0.0591 0.0039, 0.4862 -0.0591 0.0039, 0.6496 -0.0591 0.0039, 0.4862 0.315 0.0039, 0.6496 0.315 0.0039, 0.4862 0.1969 0.0039, 0.6496 0.1969 0.0039, 0.6496 0.6496 0.0039, 0.6496 0.4528 0.0039, -0.6496 0.6496 0.0039, -0.1866 0.4528 0.0039, -0.4862 0.4528 0.0039, -0.6496 0.4528 0.0039, 0.6496 -0.4528 0.0039, 0.6496 -0.6496 0.0039, -0.1866 -0.4528 0.0039, -0.6496 -0.6496 0.0039, -0.4518 -0.4435 0.0039, -0.4684 -0.4504 0.0039, -0.4862 -0.4528 0.0039, -0.6496 -0.4528 0.0039, -0.4375 -0.4326 0.0039, -0.4266 -0.4183 0.0039, -0.4197 -0.4017 0.0039, -0.4173 -0.3839 0.0039, -0.4197 -0.366 0.0039, -0.4266 -0.3494 0.0039, -0.4375 -0.3351 0.0039, -0.4375 -0.0792 0.0039, -0.4266 -0.0935 0.0039, -0.4197 -0.1101 0.0039, -0.4375 -0.1767 0.0039, -0.4518 -0.1876 0.0039, -0.4518 -0.3242 0.0039, -0.4684 -0.3173 0.0039, -0.4375 0.1767 0.0039, -0.4266 0.1624 0.0039, -0.4197 0.1458 0.0039, -0.4375 0.0792 0.0039, -0.4518 0.0683 0.0039, -0.4518 -0.0683 0.0039, -0.4684 -0.0614 0.0039, -0.4266 0.4183 0.0039, -0.4375 0.4326 0.0039, -0.4518 0.4435 0.0039, -0.4684 0.4504 0.0039, -0.4266 -0.1624 0.0039, -0.4197 -0.1458 0.0039, -0.4173 -0.128 0.0039, -0.4266 0.0935 0.0039, -0.4197 0.1101 0.0039, -0.4173 0.128 0.0039, -0.4266 0.3494 0.0039, -0.4197 0.366 0.0039, -0.6496 -0.315 0.0039, -0.6496 -0.1969 0.0039, -0.4862 -0.315 0.0039, -0.4862 -0.1969 0.0039, -0.4684 -0.1945 0.0039, -0.4375 0.3351 0.0039, -0.4518 0.3242 0.0039, -0.4518 0.1876 0.0039, -0.4684 0.1945 0.0039, -0.4173 0.3839 0.0039, -0.4197 0.4017 0.0039, -0.6496 -0.0591 0.0039, -0.6496 0.0591 0.0039, -0.4862 -0.0591 0.0039, -0.4862 0.0591 0.0039, -0.4684 0.0614 0.0039, -0.6496 0.1969 0.0039, -0.6496 0.315 0.0039, -0.4862 0.1969 0.0039, -0.4862 0.315 0.0039, -0.4684 0.3173 0.0039, -0.6496 0.315 0.0787, -0.6496 0.1969 0.0787, -0.6496 0.2311 0.3976, -0.6496 0.2952 0.3976, -0.6496 0.0591 0.0787, -0.6496 -0.0591 0.0787, -0.6496 0.6496 0.3976, -0.6496 0.4528 0.0787, -0.6496 0.4097 0.3976, -0.6496 0.3453 0.3976, -0.6496 -0.1969 0.0787, -0.6496 -0.315 0.0787, -0.6496 -0.4528 0.0787, -0.6496 -0.6496 0.3976, -0.6496 -0.5726 0.3976, -0.6496 -0.4085 0.3976, -0.6496 -0.2896 0.3976, -0.6496 -0.1585 0.3976, -0.6496 0.0445 0.3976, -0.6496 0.1338 0.3976, 0.0274 -0.3818 0.3976, 0.0274 -0.3976 0.3976, 0.0281 -0.4085 0.3976, 0.0281 0.0724 0.3976, 0.0281 0.0445 0.3976, 0.6496 0.0445 0.3976, 0.0275 0.0994 0.3976, 0.0281 0.0937 0.3976, 0.0281 0.1338 0.3976, -0.0906 0.1136 0.3976, -0.0879 0.1243 0.3976, -0.0915 0.1338 0.3976, -0.0861 0.1281 0.3976, -0.0688 0.1281 0.3976, -0.0029 0.1281 0.3976, 0.0053 0.127 0.3976, 0.0109 0.1247 0.3976, 0.0161 0.121 0.3976, -0.0265 0.1158 0.3976, -0.0209 0.1219 0.3976, -0.0153 0.1254 0.3976, -0.0092 0.1274 0.3976, -0.0364 0.0992 0.3976, -0.0741 0.1195 0.3976, -0.0456 0.0821 0.3976, -0.0784 0.1055 0.3976, -0.0457 0.0819 0.3976, 0.0205 0.1159 0.3976, 0.0243 0.1093 0.3976, -0.0792 0.0966 0.3976, -0.0786 0.088 0.3976, -0.0769 0.082 0.3976, -0.0746 0.0778 0.3976, -0.0723 0.0753 0.3976, -0.0699 0.0738 0.3976, -0.0663 0.0724 0.3976, -0.0616 0.0719 0.3976, -0.0499 0.0768 0.3976, -0.0573 0.0725 0.3976, -0.0539 0.0738 0.3976, -0.0915 0.0886 0.3976, -0.0922 0.0984 0.3976, -0.238 0.1338 0.3976, -0.0915 0.1053 0.3976, -0.0353 0.07 0.3976, -0.042 0.0627 0.3976, 0.0083 0.0604 0.3976, 0.0256 0.0604 0.3976, -0.0915 0.0445 0.3976, -0.0686 0.057 0.3976, -0.0745 0.0591 0.3976, -0.238 0.0445 0.3976, -0.0913 0.086 0.3976, -0.088 0.0744 0.3976, -0.0253 0.0871 0.3976, 0.0129 0.0693 0.3976, -0.0195 0.0981 0.3976, 0.0153 0.0794 0.3976, 0.0158 0.0876 0.3976, -0.0795 0.0625 0.3976, -0.0838 0.067 0.3976, 0.0022 0.1119 0.3976, -0.0013 0.1122 0.3976, 0.0151 0.0958 0.3976, -0.048 0.0589 0.3976, -0.0541 0.0567 0.3976, -0.0603 0.0561 0.3976, 0.0131 0.102 0.3976, 0.0105 0.1064 0.3976, 0.0079 0.1092 0.3976, -0.0058 0.1117 0.3976, -0.0091 0.1105 0.3976, -0.012 0.1085 0.3976, -0.0152 0.1049 0.3976, 0.0054 0.1108 0.3976, 0.6496 0.1338 0.3976, 0.0288 0.0863 0.3976, 0.0282 0.0732 0.3976, -0.0265 -0.0916 0.3976, -0.0209 -0.0856 0.3976, -0.0688 -0.0793 0.3976, -0.0907 0.0009 0.3976, -0.0907 0.033 0.3976, -0.0781 -0.0399 0.3976, -0.0853 -0.0277 0.3976, -0.0861 -0.0793 0.3976, 0.0109 -0.0827 0.3976, 0.0255 -0.0174 0.3976, 0.0053 -0.0804 0.3976, 0.0207 -0.0312 0.3976, -0.0894 -0.0141 0.3976, -0.0879 -0.0831 0.3976, -0.0364 -0.1082 0.3976, -0.0741 -0.088 0.3976, -0.0456 -0.1253 0.3976, -0.0784 -0.1019 0.3976, -0.0457 -0.1255 0.3976, 0.0121 -0.044 0.3976, 0.012 -0.0442 0.3976, 0.0027 -0.0525 0.3976, -0.0302 -0.062 0.3976, -0.046 -0.0604 0.3976, -0.0583 -0.0562 0.3976, -0.0687 -0.0495 0.3976, 0.0161 -0.0864 0.3976, 0.0205 -0.0915 0.3976, 0.0274 -0.0003 0.3976, 0.0274 0.033 0.3976, -0.0153 -0.0821 0.3976, -0.0076 -0.0581 0.3976, -0.0092 -0.08 0.3976, -0.0029 -0.0793 0.3976, -0.0193 -0.0612 0.3976, -0.0792 -0.1108 0.3976, -0.0786 -0.1194 0.3976, -0.0769 -0.1254 0.3976, -0.0746 -0.1296 0.3976, -0.0723 -0.1321 0.3976, -0.0699 -0.1336 0.3976, -0.0663 -0.135 0.3976, -0.0616 -0.1355 0.3976, -0.0499 -0.1306 0.3976, -0.0573 -0.1349 0.3976, -0.0539 -0.1336 0.3976, -0.0906 -0.0939 0.3976, -0.0915 -0.1021 0.3976, -0.238 -0.1585 0.3976, 0.0083 -0.147 0.3976, -0.0915 -0.1585 0.3976, 0.0281 -0.1585 0.3976, -0.0353 -0.1374 0.3976, -0.042 -0.1447 0.3976, -0.0686 -0.1504 0.3976, -0.0745 -0.1483 0.3976, -0.088 -0.133 0.3976, -0.0913 -0.1214 0.3976, -0.0915 -0.1188 0.3976, -0.0922 -0.1091 0.3976, -0.0253 -0.1203 0.3976, 0.0129 -0.1381 0.3976, -0.0195 -0.1093 0.3976, 0.0153 -0.128 0.3976, 0.0158 -0.1198 0.3976, -0.0795 -0.1449 0.3976, -0.0838 -0.1404 0.3976, 0.0022 -0.0955 0.3976, -0.0013 -0.0952 0.3976, 0.0151 -0.1116 0.3976, -0.048 -0.1485 0.3976, -0.0541 -0.1507 0.3976, -0.0603 -0.1513 0.3976, 0.0131 -0.1054 0.3976, 0.0105 -0.101 0.3976, 0.0079 -0.0983 0.3976, -0.0058 -0.0957 0.3976, -0.0091 -0.0969 0.3976, -0.012 -0.0989 0.3976, -0.0152 -0.1026 0.3976, 0.0054 -0.0966 0.3976, 0.0281 -0.1137 0.3976, 0.0288 -0.1211 0.3976, 0.6496 -0.1585 0.3976, 0.0282 -0.1342 0.3976, 0.0281 -0.135 0.3976, 0.0256 -0.147 0.3976, 0.0243 -0.0981 0.3976, 0.0275 -0.108 0.3976, -0.5193 0.4706 0.3976, -0.5217 0.4528 0.3976, -0.5193 0.4349 0.3976, -0.5124 0.4183 0.3976, -0.5124 0.4872 0.3976, -0.5015 0.5015 0.3976, -0.4872 0.5124 0.3976, -0.4349 0.5193 0.3976, -0.238 0.6496 0.3976, -0.4528 0.5217 0.3976, -0.4706 0.5193 0.3976, -0.3862 0.4706 0.3976, -0.3839 0.4528 0.3976, -0.238 0.4097 0.3976, -0.3862 0.4349 0.3976, -0.4183 0.5124 0.3976, -0.404 0.5015 0.3976, -0.3931 0.4872 0.3976, -0.3931 0.4183 0.3976, -0.3997 0.4097 0.3976, -0.238 0.3453 0.3976, -0.404 0.404 0.3976, -0.4528 0.3839 0.3976, -0.4706 0.3862 0.3976, -0.4872 0.3931 0.3976, -0.5015 0.404 0.3976, -0.5058 0.4097 0.3976, -0.4183 0.3931 0.3976, -0.4349 0.3862 0.3976, -0.0139 -0.4893 0.3976, -0.0193 -0.4854 0.3976, -0.0308 -0.4828 0.3976, -0.0244 -0.4797 0.3976, -0.0268 -0.4759 0.3976, 0.0248 -0.4763 0.3976, 0.0281 -0.5726 0.3976, 0.0277 -0.4684 0.3976, 0.0281 -0.4652 0.3976, 0.021 -0.4823 0.3976, 0.0161 -0.487 0.3976, 0.01 -0.4905 0.3976, -0.008 -0.4918 0.3976, -0.0365 -0.4884 0.3976, -0.0665 -0.4946 0.3976, -0.0735 -0.4919 0.3976, -0.0915 -0.5726 0.3976, -0.08 -0.4875 0.3976, -0.0852 -0.4816 0.3976, -0.089 -0.4745 0.3976, -0.0915 -0.4659 0.3976, -0.238 -0.5726 0.3976, -0.0915 -0.4657 0.3976, -0.238 -0.4085 0.3976, -0.0922 -0.4574 0.3976, -0.0915 -0.4507 0.3976, 0.004 -0.4923 0.3976, -0.0011 -0.4927 0.3976, -0.0445 -0.493 0.3976, -0.0519 -0.4951 0.3976, -0.0576 -0.4956 0.3976, 0.0285 -0.4536 0.3976, 0.6496 -0.4085 0.3976, 0.0281 -0.452 0.3976, 0.6496 -0.5726 0.3976, 0.0288 -0.4588 0.3976, -0.0576 -0.4193 0.3976, -0.0496 -0.4203 0.3976, -0.0011 -0.425 0.3976, 0.0066 -0.4261 0.3976, 0.0128 -0.4286 0.3976, 0.0184 -0.4328 0.3976, -0.0307 -0.4343 0.3976, -0.0268 -0.442 0.3976, -0.0214 -0.4345 0.3976, 0.023 -0.4383 0.3976, 0.0264 -0.445 0.3976, -0.091 -0.4468 0.3976, -0.0879 -0.4379 0.3976, -0.0915 -0.4085 0.3976, -0.0831 -0.4306 0.3976, -0.0775 -0.4255 0.3976, -0.043 -0.423 0.3976, -0.0363 -0.4278 0.3976, -0.0705 -0.4216 0.3976, -0.0628 -0.4196 0.3976, -0.0157 -0.4296 0.3976, -0.0101 -0.4266 0.3976, -0.0046 -0.4253 0.3976, -0.0922 -0.2214 0.3976, -0.0915 -0.2146 0.3976, -0.0718 -0.2658 0.3976, -0.081 -0.2567 0.3976, -0.0915 -0.2896 0.3976, -0.0609 -0.2722 0.3976, 0.0233 -0.2487 0.3976, 0.0164 -0.259 0.3976, 0.0281 -0.2896 0.3976, 0.0065 -0.2678 0.3976, -0.0053 -0.2739 0.3976, -0.087 -0.2469 0.3976, -0.0908 -0.2356 0.3976, -0.0915 -0.2286 0.3976, -0.0185 -0.2773 0.3976, -0.0303 -0.2781 0.3976, -0.0474 -0.2765 0.3976, 0.0281 -0.2145 0.3976, 0.0288 -0.2233 0.3976, 0.6496 -0.2896 0.3976, 0.0281 -0.2299 0.3976, 0.0272 -0.2376 0.3976, -0.0024 -0.1717 0.3976, 0.0086 -0.1784 0.3976, 0.018 -0.1879 0.3976, 0.0245 -0.1991 0.3976, 0.0278 -0.2111 0.3976, -0.0906 -0.2069 0.3976, -0.0868 -0.1958 0.3976, -0.0807 -0.1862 0.3976, -0.0719 -0.1777 0.3976, -0.0609 -0.1711 0.3976, -0.0481 -0.1671 0.3976, -0.0331 -0.1657 0.3976, -0.0161 -0.1674 0.3976, 0.0281 0.3329 0.3976, 0.0275 0.3254 0.3976, 0.0281 0.2952 0.3976, 0.0227 0.3096 0.3976, 0.0068 0.3096 0.3976, -0.0288 0.3067 0.3976, -0.0823 0.3067 0.3976, -0.0915 0.2952 0.3976, -0.0898 0.3259 0.3976, -0.0915 0.3402 0.3976, 0.0158 0.3432 0.3976, 0.0156 0.3453 0.3976, -0.0288 0.3453 0.3976, 0.0145 0.3548 0.3976, -0.0123 0.3841 0.3976, -0.023 0.3867 0.3976, -0.0288 0.3485 0.3976, -0.0322 0.3874 0.3976, -0.0418 0.3485 0.3976, -0.0453 0.3862 0.3976, 0.0111 0.3637 0.3976, 0.0055 0.3719 0.3976, -0.0027 0.3791 0.3976, -0.0556 0.3831 0.3976, -0.0637 0.3786 0.3976, -0.0705 0.3722 0.3976, -0.075 0.3651 0.3976, -0.078 0.3568 0.3976, -0.0418 0.3453 0.3976, -0.0792 0.3453 0.3976, -0.0792 0.3452 0.3976, -0.074 0.3225 0.3976, -0.0418 0.3225 0.3976, -0.0747 0.3239 0.3976, -0.0781 0.3335 0.3976, 0.0286 0.3453 0.3976, 0.0288 0.3418 0.3976, 0.6496 0.3453 0.3976, 0.6496 0.2952 0.3976, -0.0865 0.3732 0.3976, -0.0915 0.4097 0.3976, -0.0906 0.3615 0.3976, -0.0915 0.3533 0.3976, -0.0794 0.3841 0.3976, -0.0697 0.3929 0.3976, -0.0581 0.399 0.3976, -0.0036 0.3967 0.3976, 0.0085 0.3886 0.3976, 0.0281 0.4097 0.3976, 0.0184 0.3776 0.3976, 0.0245 0.3661 0.3976, 0.028 0.3528 0.3976, 0.0281 0.3521 0.3976, -0.0454 0.4023 0.3976, -0.0332 0.4032 0.3976, -0.0168 0.4014 0.3976, 0.6496 -0.6496 0.3976, 0.0281 -0.6496 0.3976, -0.0915 -0.6496 0.3976, -0.238 -0.6496 0.3976, -0.238 -0.2896 0.3976, -0.0907 -0.3976 0.3976, 0.0086 -0.317 0.3976, 0.0086 -0.3165 0.3976, 0.0047 -0.3188 0.3976, 0.0004 -0.3169 0.3976, 0.0009 -0.3209 0.3976, -0.0907 -0.3789 0.3976, -0.0079 -0.317 0.3976, -0.0907 -0.317 0.3976, -0.0907 -0.3011 0.3976, 0.0274 -0.3011 0.3976, 0.0274 -0.3213 0.3976, -0.0706 -0.3823 0.3976, -0.0706 -0.3826 0.3976, -0.0665 -0.38 0.3976, -0.062 -0.3819 0.3976, -0.0625 -0.3775 0.3976, -0.0534 -0.3818 0.3976, 0.0144 0.1396 0.3976, 0.0144 0.1742 0.3976, -0.0907 0.1742 0.3976, -0.0907 0.19 0.3976, -0.0915 0.2311 0.3976, 0.0144 0.19 0.3976, 0.0144 0.2232 0.3976, 0.0281 0.2311 0.3976, 0.0274 0.2232 0.3976, 0.0274 0.1396 0.3976, -0.092 0.3453 0.3976, -0.238 0.2952 0.3976, -0.238 0.2311 0.3976, -0.0504 0.2836 0.3976, -0.0389 0.2836 0.3976, -0.0504 0.239 0.3976, -0.0389 0.239 0.3976, 0.0128 0.3224 0.3976, 0.0156 0.3369 0.3976, 0.6496 0.2311 0.3976, -0.0915 0.6496 0.3976, -0.0907 0.4738 0.3976, -0.0907 0.4896 0.3976, 0.0264 0.4447 0.3976, 0.0238 0.4357 0.3976, 0.0199 0.4288 0.3976, 0.0161 0.4244 0.3976, 0.0101 0.4202 0.3976, 0.0035 0.4176 0.3976, -0.0255 0.4201 0.3976, -0.0326 0.4249 0.3976, -0.0388 0.432 0.3976, -0.0922 0.3465 0.3976, 0.0281 0.6496 0.3976, 0.0274 0.4896 0.3976, 0.0274 0.4562 0.3976, -0.0059 0.4162 0.3976, -0.008 0.4162 0.3976, -0.0179 0.4173 0.3976, -0.0434 0.4406 0.3976, -0.0457 0.45 0.3976, -0.0461 0.4587 0.3976, -0.0461 0.4738 0.3976, 0.6496 0.4097 0.3976, 0.6496 0.6496 0.3976, 0.6496 -0.315 0.0787, 0.6496 -0.1969 0.0787, 0.6496 -0.0591 0.0787, 0.6496 0.0591 0.0787, 0.6496 -0.4528 0.0787, 0.6496 0.1969 0.0787, 0.6496 0.4528 0.0787, 0.6496 0.315 0.0787, -0.5015 0.404 0.3898, -0.4872 0.3931 0.3898, -0.4706 0.3862 0.3898, -0.4528 0.3839 0.3898, -0.4349 0.3862 0.3898, -0.4183 0.3931 0.3898, -0.404 0.404 0.3898, -0.3931 0.4183 0.3898, -0.3862 0.4349 0.3898, -0.3839 0.4528 0.3898, -0.3862 0.4706 0.3898, -0.3931 0.4872 0.3898, -0.404 0.5015 0.3898, -0.4183 0.5124 0.3898, -0.4349 0.5193 0.3898, -0.4528 0.5217 0.3898, -0.4706 0.5193 0.3898, -0.4872 0.5124 0.3898, -0.5015 0.5015 0.3898, -0.5124 0.4872 0.3898, -0.5193 0.4706 0.3898, -0.5217 0.4528 0.3898, -0.5193 0.4349 0.3898, -0.5124 0.4183 0.3898, -0.4528 0.4528 0.3898, -0.4528 0.4528 0.3898
            ]
        }
        coordIndex [
            0,1,2,-1,2,1,3,-1,4,5,6,-1,6,5,7,-1,8,9,10,-1,10,9,11,-1,12,13,14,-1,14,13,15,-1,16,17,14,-1,18,19,20,-1,20,19,21,-1,22,20,23,-1,23,20,21,-1,23,21,24,-1,24,21,25,-1,22,26,20,-1,20,26,27,-1,20,27,28,-1,28,29,20,-1,20,29,30,-1,20,30,15,-1,15,30,31,-1,15,31,32,-1,33,15,34,-1,34,15,35,-1,36,32,37,-1,37,32,38,-1,37,38,39,-1,40,15,41,-1,41,15,42,-1,43,33,44,-1,44,33,45,-1,44,45,46,-1,47,48,15,-1,15,48,49,-1,15,49,14,-1,14,49,50,-1,14,50,16,-1,36,51,32,-1,32,51,52,-1,32,52,15,-1,15,52,53,-1,15,53,35,-1,43,54,33,-1,33,54,55,-1,33,55,15,-1,15,55,56,-1,15,56,42,-1,15,57,58,-1,59,60,61,-1,61,60,62,-1,61,62,39,-1,39,62,63,-1,39,63,37,-1,57,15,64,-1,64,15,40,-1,64,40,65,-1,65,40,66,-1,65,66,67,-1,58,68,15,-1,15,68,69,-1,15,69,47,-1,70,71,72,-1,72,71,73,-1,72,73,46,-1,46,73,74,-1,46,74,44,-1,75,76,77,-1,77,76,78,-1,77,78,67,-1,67,78,79,-1,67,79,65,-1,76,75,80,-1,80,75,81,-1,80,82,83,-1,71,70,84,-1,84,70,85,-1,14,17,86,-1,86,17,87,-1,86,87,88,-1,88,87,80,-1,88,80,89,-1,89,80,83,-1,60,59,90,-1,90,59,91,-1,25,21,92,-1,92,21,93,-1,92,93,91,-1,91,93,94,-1,91,94,90,-1,90,94,95,-1,90,95,85,-1,85,95,96,-1,85,96,84,-1,84,96,97,-1,84,97,81,-1,81,97,98,-1,81,98,80,-1,80,98,99,-1,80,99,82,-1,100,101,102,-1,103,104,105,-1,106,107,108,-1,109,110,111,-1,111,110,112,-1,111,112,113,-1,114,115,108,-1,108,115,116,-1,108,116,117,-1,118,119,113,-1,113,119,120,-1,113,120,121,-1,118,113,122,-1,122,113,123,-1,122,123,124,-1,124,123,125,-1,124,125,126,-1,117,127,108,-1,108,127,128,-1,108,128,106,-1,125,129,126,-1,126,129,130,-1,126,130,131,-1,131,132,126,-1,126,132,133,-1,126,133,134,-1,134,135,126,-1,126,135,136,-1,126,136,137,-1,137,136,138,-1,137,138,139,-1,140,141,142,-1,142,141,143,-1,144,145,146,-1,103,147,104,-1,104,147,146,-1,104,146,148,-1,149,150,148,-1,142,151,140,-1,140,151,148,-1,140,148,152,-1,152,148,153,-1,144,146,154,-1,154,146,155,-1,154,155,156,-1,156,155,157,-1,156,157,158,-1,150,159,148,-1,148,159,160,-1,148,160,153,-1,161,162,163,-1,145,164,146,-1,146,164,165,-1,146,165,148,-1,148,165,166,-1,148,166,149,-1,167,168,169,-1,163,162,158,-1,158,162,170,-1,158,170,171,-1,171,172,158,-1,158,172,173,-1,158,173,156,-1,167,169,163,-1,163,169,174,-1,163,174,161,-1,175,176,105,-1,105,176,177,-1,105,177,103,-1,178,179,180,-1,181,182,148,-1,183,184,185,-1,186,187,188,-1,188,187,189,-1,184,190,185,-1,185,190,181,-1,185,181,191,-1,178,180,192,-1,192,180,193,-1,192,193,194,-1,194,193,195,-1,194,195,196,-1,189,197,188,-1,188,197,198,-1,188,198,199,-1,200,201,180,-1,180,201,202,-1,180,202,185,-1,185,202,203,-1,185,203,183,-1,186,204,187,-1,187,204,205,-1,187,205,206,-1,148,182,104,-1,104,182,207,-1,104,207,206,-1,179,208,209,-1,209,208,210,-1,209,210,199,-1,199,210,211,-1,199,211,188,-1,179,209,180,-1,180,209,212,-1,180,212,200,-1,195,213,196,-1,196,213,214,-1,196,214,215,-1,215,216,196,-1,196,216,217,-1,196,217,218,-1,218,219,196,-1,196,219,220,-1,196,220,221,-1,221,220,222,-1,221,222,223,-1,191,181,224,-1,224,181,148,-1,224,148,225,-1,225,148,151,-1,225,151,226,-1,227,228,229,-1,230,231,227,-1,232,233,228,-1,234,235,228,-1,228,235,236,-1,228,236,226,-1,226,236,237,-1,226,237,225,-1,230,227,238,-1,238,227,239,-1,238,239,240,-1,240,239,241,-1,240,241,242,-1,233,243,228,-1,228,243,244,-1,228,244,234,-1,245,246,247,-1,231,248,227,-1,227,248,249,-1,227,249,228,-1,228,249,250,-1,228,250,232,-1,251,252,253,-1,247,246,242,-1,242,246,254,-1,242,254,255,-1,255,256,242,-1,242,256,257,-1,242,257,240,-1,251,253,247,-1,247,253,258,-1,247,258,245,-1,259,260,261,-1,260,262,261,-1,261,262,263,-1,261,263,229,-1,229,263,264,-1,229,264,227,-1,205,265,206,-1,206,265,266,-1,206,266,104,-1,104,266,259,-1,104,259,105,-1,105,259,261,-1,267,86,268,-1,268,86,88,-1,268,88,269,-1,269,88,270,-1,267,271,86,-1,86,271,272,-1,86,272,273,-1,274,275,276,-1,276,275,86,-1,276,86,277,-1,277,86,273,-1,278,279,280,-1,280,279,281,-1,274,282,275,-1,275,282,283,-1,275,283,284,-1,281,285,280,-1,280,285,286,-1,280,286,287,-1,287,286,288,-1,289,290,89,-1,290,291,89,-1,89,291,292,-1,89,292,88,-1,88,292,293,-1,88,293,270,-1,288,294,287,-1,287,294,295,-1,287,295,289,-1,296,297,298,-1,298,297,299,-1,298,299,300,-1,301,302,303,-1,303,302,304,-1,301,305,302,-1,302,305,306,-1,302,306,307,-1,296,298,308,-1,308,298,309,-1,308,309,302,-1,310,311,312,-1,312,311,313,-1,312,313,314,-1,314,315,312,-1,312,315,316,-1,312,316,317,-1,317,316,318,-1,317,318,319,-1,319,318,320,-1,319,320,321,-1,307,322,302,-1,302,322,323,-1,302,323,308,-1,309,324,302,-1,302,324,325,-1,302,325,312,-1,312,325,326,-1,312,326,310,-1,327,328,329,-1,329,328,102,-1,302,330,304,-1,304,330,328,-1,304,328,331,-1,331,328,327,-1,332,333,102,-1,334,335,102,-1,102,335,336,-1,102,336,337,-1,338,339,340,-1,337,341,102,-1,102,341,342,-1,102,342,329,-1,343,344,345,-1,345,344,346,-1,345,346,347,-1,333,348,102,-1,102,348,349,-1,102,349,338,-1,347,350,345,-1,345,350,351,-1,345,351,332,-1,340,352,338,-1,338,352,353,-1,338,353,102,-1,102,353,354,-1,102,354,334,-1,226,355,356,-1,357,358,359,-1,357,359,360,-1,361,362,363,-1,363,362,364,-1,363,364,365,-1,358,366,359,-1,359,366,367,-1,359,367,368,-1,365,369,363,-1,363,369,370,-1,363,370,359,-1,359,370,371,-1,359,371,360,-1,372,373,374,-1,374,373,375,-1,374,375,363,-1,363,375,376,-1,363,376,361,-1,377,378,229,-1,229,378,379,-1,229,379,380,-1,374,261,372,-1,372,261,229,-1,372,229,381,-1,381,229,380,-1,226,356,228,-1,228,356,382,-1,228,382,383,-1,383,384,228,-1,228,384,385,-1,228,385,386,-1,386,387,228,-1,228,387,388,-1,228,388,229,-1,229,388,389,-1,229,389,377,-1,390,391,392,-1,392,391,393,-1,392,393,394,-1,395,396,397,-1,397,396,398,-1,397,398,399,-1,400,401,402,-1,402,401,403,-1,404,405,406,-1,406,405,407,-1,406,407,408,-1,408,407,409,-1,403,410,402,-1,402,410,411,-1,402,411,406,-1,406,411,412,-1,406,412,404,-1,409,413,408,-1,408,413,414,-1,408,414,415,-1,415,416,408,-1,408,416,417,-1,408,417,418,-1,418,417,419,-1,418,419,420,-1,421,422,423,-1,423,422,418,-1,423,418,424,-1,424,418,420,-1,425,426,427,-1,427,426,390,-1,427,390,428,-1,429,430,431,-1,431,430,432,-1,429,433,430,-1,430,433,434,-1,430,434,435,-1,436,437,438,-1,438,437,439,-1,439,440,438,-1,438,440,441,-1,438,441,442,-1,435,443,430,-1,430,443,444,-1,430,444,438,-1,438,444,445,-1,438,445,436,-1,446,330,447,-1,447,330,302,-1,447,302,448,-1,448,302,312,-1,448,312,449,-1,449,312,317,-1,355,226,368,-1,368,226,450,-1,368,450,359,-1,359,450,319,-1,359,319,345,-1,345,319,321,-1,345,321,343,-1,332,102,345,-1,345,102,101,-1,345,101,451,-1,452,453,454,-1,454,453,455,-1,454,455,456,-1,456,455,457,-1,457,455,458,-1,457,458,459,-1,451,457,345,-1,345,457,459,-1,345,459,359,-1,359,459,460,-1,359,460,363,-1,363,460,461,-1,363,461,462,-1,463,464,465,-1,465,464,466,-1,465,466,467,-1,467,466,462,-1,328,374,102,-1,102,374,363,-1,102,363,100,-1,100,363,462,-1,100,462,468,-1,468,462,466,-1,121,114,113,-1,113,114,108,-1,113,108,111,-1,111,108,469,-1,111,469,470,-1,470,471,111,-1,111,471,472,-1,111,472,473,-1,472,474,473,-1,473,474,475,-1,473,475,476,-1,476,475,477,-1,476,477,108,-1,108,477,478,-1,108,478,469,-1,479,287,399,-1,399,287,480,-1,399,480,397,-1,397,480,481,-1,397,481,473,-1,473,481,142,-1,473,142,111,-1,111,142,143,-1,111,143,109,-1,397,482,483,-1,482,397,484,-1,484,397,473,-1,484,473,485,-1,485,473,476,-1,485,476,483,-1,483,476,392,-1,483,392,397,-1,397,392,394,-1,397,394,395,-1,395,394,486,-1,395,486,402,-1,402,486,487,-1,402,487,400,-1,390,392,428,-1,428,392,476,-1,428,476,488,-1,488,476,108,-1,488,108,175,-1,175,108,107,-1,175,107,176,-1,289,89,287,-1,287,89,83,-1,287,83,480,-1,480,83,82,-1,480,82,481,-1,481,82,99,-1,481,99,142,-1,142,99,98,-1,142,98,151,-1,151,98,97,-1,151,97,226,-1,226,97,96,-1,226,96,450,-1,450,96,95,-1,450,95,319,-1,319,95,94,-1,319,94,317,-1,317,94,93,-1,317,93,449,-1,284,278,275,-1,275,278,280,-1,275,280,489,-1,430,490,491,-1,492,493,438,-1,438,493,494,-1,494,495,438,-1,438,495,496,-1,438,496,497,-1,498,499,430,-1,430,499,500,-1,479,501,287,-1,287,501,432,-1,287,432,280,-1,280,432,430,-1,280,430,489,-1,489,430,491,-1,489,491,502,-1,502,491,503,-1,502,503,438,-1,438,503,504,-1,438,504,492,-1,497,505,438,-1,438,505,506,-1,438,506,430,-1,430,506,507,-1,430,507,498,-1,500,508,430,-1,430,508,509,-1,430,509,490,-1,490,509,510,-1,490,510,511,-1,425,427,442,-1,442,427,512,-1,442,512,438,-1,438,512,513,-1,438,513,502,-1,3,1,514,-1,514,1,515,-1,7,5,516,-1,516,5,517,-1,514,374,518,-1,518,374,328,-1,19,18,446,-1,446,18,518,-1,446,518,330,-1,330,518,328,-1,519,513,512,-1,13,12,520,-1,520,12,513,-1,520,513,521,-1,521,513,519,-1,521,519,9,-1,9,519,11,-1,512,427,519,-1,519,427,428,-1,519,428,517,-1,517,428,488,-1,517,488,516,-1,516,488,175,-1,516,175,515,-1,515,175,105,-1,515,105,514,-1,514,105,261,-1,514,261,374,-1,86,275,14,-1,14,275,489,-1,14,489,12,-1,12,489,502,-1,12,502,513,-1,449,93,21,-1,19,446,447,-1,19,447,21,-1,21,447,448,-1,21,448,449,-1,522,292,523,-1,523,292,291,-1,523,291,524,-1,524,291,290,-1,524,290,525,-1,525,290,289,-1,525,289,526,-1,526,289,295,-1,526,295,527,-1,527,295,294,-1,527,294,528,-1,294,288,528,-1,528,288,286,-1,528,286,529,-1,529,286,285,-1,529,285,530,-1,530,285,281,-1,530,281,531,-1,531,281,279,-1,531,279,532,-1,532,279,278,-1,532,278,533,-1,533,278,284,-1,533,284,534,-1,534,284,283,-1,534,283,535,-1,535,283,282,-1,535,282,536,-1,536,282,274,-1,536,274,537,-1,537,274,276,-1,537,276,538,-1,538,276,277,-1,538,277,539,-1,539,277,273,-1,539,273,540,-1,540,273,272,-1,540,272,541,-1,541,272,271,-1,541,271,542,-1,542,271,267,-1,542,267,543,-1,543,267,268,-1,543,268,544,-1,544,268,269,-1,544,269,545,-1,545,269,270,-1,545,270,522,-1,522,270,293,-1,522,293,292,-1,529,530,546,-1,546,530,531,-1,546,531,532,-1,526,527,546,-1,546,527,528,-1,546,528,529,-1,523,524,546,-1,546,524,525,-1,546,525,526,-1,544,545,546,-1,546,545,522,-1,546,522,523,-1,541,542,546,-1,546,542,543,-1,546,543,544,-1,538,539,546,-1,546,539,540,-1,546,540,541,-1,535,536,546,-1,546,536,537,-1,546,537,538,-1,532,533,546,-1,546,533,534,-1,546,534,535,-1,
        ]
    }
}
Shape{
    appearance Appearance {
        material  Material 	{
            diffuseColor 0.6666666666666666 0.6666666666666666 0.6666666666666666
            specularColor 0.3333333333333333 0.3333333333333333 0.3333333333333333
            ambientIntensity 0.2
            transparency 0
            shininess 0.5
        }
    }
    geometry IndexedFaceSet {
        ccw TRUE
        solid FALSE
        coord DEF co Coordinate {
            point [
                -0.0922 -0.4574 0.3976, -0.0922 -0.4574 0.3937, -0.0915 -0.4507 0.3976, -0.091 -0.4468 0.3937, -0.091 -0.4468 0.3976, -0.0879 -0.4379 0.3937, -0.0879 -0.4379 0.3976, -0.0831 -0.4306 0.3937, -0.0831 -0.4306 0.3976, -0.0775 -0.4255 0.3937, -0.0775 -0.4255 0.3976, -0.0705 -0.4216 0.3937, -0.0705 -0.4216 0.3976, -0.0628 -0.4196 0.3937, -0.0628 -0.4196 0.3976, -0.0576 -0.4193 0.3937, -0.0576 -0.4193 0.3976, -0.0268 -0.442 0.3937, -0.0268 -0.442 0.3976, -0.0307 -0.4343 0.3976, -0.0307 -0.4343 0.3937, -0.0363 -0.4278 0.3976, -0.0363 -0.4278 0.3937, -0.043 -0.423 0.3976, -0.043 -0.423 0.3937, -0.0496 -0.4203 0.3976, -0.0496 -0.4203 0.3937, -0.0011 -0.425 0.3937, -0.0011 -0.425 0.3976, -0.0046 -0.4253 0.3976, -0.0046 -0.4253 0.3937, -0.0101 -0.4266 0.3976, -0.0101 -0.4266 0.3937, -0.0157 -0.4296 0.3976, -0.0157 -0.4296 0.3937, -0.0214 -0.4345 0.3976, -0.0214 -0.4345 0.3937, 0.0288 -0.4588 0.3937, 0.0288 -0.4588 0.3976, 0.0285 -0.4536 0.3976, 0.0285 -0.4536 0.3937, 0.0281 -0.452 0.3976, 0.0264 -0.445 0.3937, 0.0264 -0.445 0.3976, 0.023 -0.4383 0.3976, 0.023 -0.4383 0.3937, 0.0184 -0.4328 0.3976, 0.0184 -0.4328 0.3937, 0.0128 -0.4286 0.3976, 0.0128 -0.4286 0.3937, 0.0066 -0.4261 0.3976, 0.0066 -0.4261 0.3937, 0.0281 -0.4652 0.3976, 0.0277 -0.4684 0.3937, 0.0277 -0.4684 0.3976, 0.0248 -0.4763 0.3937, 0.0248 -0.4763 0.3976, 0.021 -0.4823 0.3937, 0.021 -0.4823 0.3976, 0.0161 -0.487 0.3937, 0.0161 -0.487 0.3976, 0.01 -0.4905 0.3937, 0.01 -0.4905 0.3976, 0.004 -0.4923 0.3937, 0.004 -0.4923 0.3976, -0.0011 -0.4927 0.3937, -0.0011 -0.4927 0.3976, -0.0268 -0.4759 0.3937, -0.0268 -0.4759 0.3976, -0.0244 -0.4797 0.3976, -0.0244 -0.4797 0.3937, -0.0193 -0.4854 0.3976, -0.0193 -0.4854 0.3937, -0.0139 -0.4893 0.3976, -0.0139 -0.4893 0.3937, -0.008 -0.4918 0.3976, -0.008 -0.4918 0.3937, -0.0576 -0.4956 0.3937, -0.0576 -0.4956 0.3976, -0.0519 -0.4951 0.3976, -0.0519 -0.4951 0.3937, -0.0445 -0.493 0.3976, -0.0445 -0.493 0.3937, -0.0365 -0.4884 0.3976, -0.0365 -0.4884 0.3937, -0.0308 -0.4828 0.3976, -0.0308 -0.4828 0.3937, -0.0915 -0.4657 0.3976, -0.0915 -0.4657 0.3937, -0.0915 -0.4659 0.3976, -0.089 -0.4745 0.3937, -0.089 -0.4745 0.3976, -0.0852 -0.4816 0.3976, -0.0852 -0.4816 0.3937, -0.08 -0.4875 0.3976, -0.08 -0.4875 0.3937, -0.0735 -0.4919 0.3976, -0.0735 -0.4919 0.3937, -0.0665 -0.4946 0.3976, -0.0665 -0.4946 0.3937, -0.0216 -0.4588 0.3937, -0.021 -0.4541 0.3937, -0.0346 -0.4574 0.3937, -0.0471 -0.4357 0.3937, -0.043 -0.4383 0.3937, -0.021 -0.4635 0.3937, -0.0399 -0.4415 0.3937, -0.0371 -0.4458 0.3937, -0.0352 -0.451 0.3937, 0.0154 -0.463 0.3937, 0.0158 -0.4588 0.3937, 0.0153 -0.454 0.3937, 0.014 -0.4505 0.3937, 0.0117 -0.4472 0.3937, 0.0089 -0.4446 0.3937, 0.005 -0.4423 0.3937, 0.0007 -0.4411 0.3937, -0.0568 -0.4812 0.3937, -0.051 -0.4805 0.3937, -0.0465 -0.4787 0.3937, -0.0424 -0.4758 0.3937, -0.0385 -0.4714 0.3937, -0.0362 -0.4668 0.3937, -0.0028 -0.4409 0.3937, -0.0079 -0.4415 0.3937, -0.0119 -0.443 0.3937, -0.0156 -0.4456 0.3937, -0.017 -0.447 0.3937, -0.0194 -0.4502 0.3937, -0.0521 -0.4341 0.3937, -0.0568 -0.4337 0.3937, -0.0627 -0.4343 0.3937, -0.0672 -0.4358 0.3937, -0.071 -0.4381 0.3937, -0.0745 -0.4417 0.3937, -0.0771 -0.4462 0.3937, -0.0788 -0.4519 0.3937, -0.0792 -0.4574 0.3937, -0.0786 -0.4638 0.3937, -0.0767 -0.4691 0.3937, -0.074 -0.4734 0.3937, -0.0708 -0.4765 0.3937, -0.0669 -0.479 0.3937, -0.0623 -0.4806 0.3937, 0.0022 -0.4763 0.3937, 0.0062 -0.4747 0.3937, 0.0099 -0.4722 0.3937, 0.0118 -0.4702 0.3937, 0.014 -0.4669 0.3937, -0.0348 -0.4614 0.3937, -0.0194 -0.4672 0.3937, -0.0169 -0.4706 0.3937, -0.0128 -0.4741 0.3937, -0.009 -0.4759 0.3937, -0.005 -0.4767 0.3937, -0.0028 -0.4769 0.3937, -0.0568 -0.4337 0.3976, -0.0521 -0.4341 0.3976, -0.0471 -0.4357 0.3976, -0.043 -0.4383 0.3976, -0.0399 -0.4415 0.3976, -0.0371 -0.4458 0.3976, -0.0352 -0.451 0.3976, -0.0346 -0.4574 0.3976, -0.0348 -0.4614 0.3976, -0.0362 -0.4668 0.3976, -0.0385 -0.4714 0.3976, -0.0424 -0.4758 0.3976, -0.0465 -0.4787 0.3976, -0.051 -0.4805 0.3976, -0.0568 -0.4812 0.3976, -0.0623 -0.4806 0.3976, -0.0669 -0.479 0.3976, -0.0708 -0.4765 0.3976, -0.074 -0.4734 0.3976, -0.0767 -0.4691 0.3976, -0.0786 -0.4638 0.3976, -0.0792 -0.4574 0.3976, -0.0788 -0.4519 0.3976, -0.0771 -0.4462 0.3976, -0.0745 -0.4417 0.3976, -0.071 -0.4381 0.3976, -0.0672 -0.4358 0.3976, -0.0627 -0.4343 0.3976, -0.0028 -0.4409 0.3976, 0.0007 -0.4411 0.3976, 0.005 -0.4423 0.3976, 0.0089 -0.4446 0.3976, 0.0117 -0.4472 0.3976, 0.014 -0.4505 0.3976, 0.0153 -0.454 0.3976, 0.0158 -0.4588 0.3976, 0.0154 -0.463 0.3976, 0.014 -0.4669 0.3976, 0.0118 -0.4702 0.3976, 0.0099 -0.4722 0.3976, 0.0062 -0.4747 0.3976, 0.0022 -0.4763 0.3976, -0.0028 -0.4769 0.3976, -0.005 -0.4767 0.3976, -0.009 -0.4759 0.3976, -0.0128 -0.4741 0.3976, -0.0169 -0.4706 0.3976, -0.0194 -0.4672 0.3976, -0.021 -0.4635 0.3976, -0.0216 -0.4588 0.3976, -0.021 -0.4541 0.3976, -0.0194 -0.4502 0.3976, -0.017 -0.447 0.3976, -0.0156 -0.4456 0.3976, -0.0119 -0.443 0.3976, -0.0079 -0.4415 0.3976, -0.0079 -0.4415 0.3976
            ]
        }
        coordIndex [
            0,1,2,-1,2,1,3,-1,2,3,4,-1,4,3,5,-1,4,5,6,-1,6,5,7,-1,6,7,8,-1,8,7,9,-1,8,9,10,-1,10,9,11,-1,10,11,12,-1,12,11,13,-1,12,13,14,-1,14,13,15,-1,14,15,16,-1,17,18,19,-1,17,19,20,-1,20,19,21,-1,20,21,22,-1,22,21,23,-1,22,23,24,-1,24,23,25,-1,24,25,26,-1,26,25,16,-1,26,16,15,-1,27,28,29,-1,27,29,30,-1,30,29,31,-1,30,31,32,-1,32,31,33,-1,32,33,34,-1,34,33,35,-1,34,35,36,-1,36,35,18,-1,36,18,17,-1,37,38,39,-1,37,39,40,-1,40,39,41,-1,40,41,42,-1,41,43,42,-1,42,43,44,-1,42,44,45,-1,45,44,46,-1,45,46,47,-1,47,46,48,-1,47,48,49,-1,49,48,50,-1,49,50,51,-1,51,50,28,-1,51,28,27,-1,38,37,52,-1,52,37,53,-1,52,53,54,-1,54,53,55,-1,54,55,56,-1,56,55,57,-1,56,57,58,-1,58,57,59,-1,58,59,60,-1,60,59,61,-1,60,61,62,-1,62,61,63,-1,62,63,64,-1,64,63,65,-1,64,65,66,-1,67,68,69,-1,67,69,70,-1,70,69,71,-1,70,71,72,-1,72,71,73,-1,72,73,74,-1,74,73,75,-1,74,75,76,-1,76,75,66,-1,76,66,65,-1,77,78,79,-1,77,79,80,-1,80,79,81,-1,80,81,82,-1,82,81,83,-1,82,83,84,-1,84,83,85,-1,84,85,86,-1,86,85,68,-1,86,68,67,-1,1,0,87,-1,1,87,88,-1,88,87,89,-1,88,89,90,-1,89,91,90,-1,90,91,92,-1,90,92,93,-1,93,92,94,-1,93,94,95,-1,95,94,96,-1,95,96,97,-1,97,96,98,-1,97,98,99,-1,99,98,78,-1,99,78,77,-1,100,101,102,-1,103,104,17,-1,100,102,105,-1,104,106,17,-1,17,106,107,-1,17,107,101,-1,101,107,108,-1,101,108,102,-1,55,53,109,-1,109,53,110,-1,110,53,37,-1,110,37,111,-1,111,37,40,-1,111,40,112,-1,112,40,42,-1,112,42,113,-1,113,42,45,-1,113,45,114,-1,114,45,47,-1,114,47,115,-1,115,47,49,-1,115,49,116,-1,117,80,118,-1,118,80,82,-1,118,82,119,-1,119,82,84,-1,119,84,120,-1,120,84,86,-1,120,86,121,-1,121,86,67,-1,121,67,122,-1,49,51,116,-1,116,51,27,-1,116,27,123,-1,123,27,30,-1,123,30,124,-1,124,30,32,-1,124,32,125,-1,125,32,34,-1,125,34,126,-1,126,34,36,-1,126,36,127,-1,127,36,17,-1,127,17,128,-1,128,17,101,-1,22,24,129,-1,129,24,26,-1,129,26,130,-1,130,26,15,-1,130,15,131,-1,131,15,13,-1,131,13,132,-1,132,13,11,-1,132,11,133,-1,133,11,9,-1,133,9,134,-1,134,9,7,-1,134,7,135,-1,135,7,5,-1,135,5,136,-1,136,5,3,-1,136,3,137,-1,137,3,1,-1,137,1,138,-1,138,1,88,-1,138,88,139,-1,139,88,90,-1,139,90,140,-1,140,90,93,-1,140,93,141,-1,141,93,95,-1,141,95,142,-1,142,95,97,-1,142,97,143,-1,143,97,99,-1,143,99,117,-1,117,99,77,-1,117,77,80,-1,144,61,145,-1,145,61,59,-1,145,59,146,-1,146,59,57,-1,146,57,147,-1,147,57,55,-1,147,55,148,-1,148,55,109,-1,102,149,105,-1,105,149,122,-1,105,122,150,-1,150,122,67,-1,150,67,151,-1,151,67,70,-1,151,70,152,-1,152,70,72,-1,152,72,153,-1,153,72,74,-1,153,74,154,-1,154,74,76,-1,154,76,155,-1,155,76,65,-1,155,65,144,-1,144,65,63,-1,144,63,61,-1,103,17,129,-1,129,17,20,-1,129,20,22,-1,130,156,157,-1,130,157,129,-1,129,157,158,-1,129,158,103,-1,103,158,159,-1,103,159,104,-1,104,159,160,-1,104,160,106,-1,106,160,161,-1,106,161,107,-1,107,161,162,-1,107,162,108,-1,108,162,163,-1,108,163,102,-1,102,163,164,-1,102,164,149,-1,149,164,165,-1,149,165,122,-1,122,165,166,-1,122,166,121,-1,121,166,167,-1,121,167,120,-1,120,167,168,-1,120,168,119,-1,119,168,169,-1,119,169,118,-1,118,169,170,-1,118,170,117,-1,117,170,171,-1,117,171,143,-1,143,171,172,-1,143,172,142,-1,142,172,173,-1,142,173,141,-1,141,173,174,-1,141,174,140,-1,140,174,175,-1,140,175,139,-1,139,175,176,-1,139,176,138,-1,138,176,177,-1,138,177,137,-1,137,177,178,-1,137,178,136,-1,136,178,179,-1,136,179,135,-1,135,179,180,-1,135,180,134,-1,134,180,181,-1,134,181,133,-1,133,181,182,-1,133,182,132,-1,132,182,183,-1,132,183,131,-1,131,183,156,-1,131,156,130,-1,123,184,185,-1,123,185,116,-1,116,185,186,-1,116,186,115,-1,115,186,187,-1,115,187,114,-1,114,187,188,-1,114,188,113,-1,113,188,189,-1,113,189,112,-1,112,189,190,-1,112,190,111,-1,111,190,191,-1,111,191,110,-1,110,191,192,-1,110,192,109,-1,109,192,193,-1,109,193,148,-1,148,193,194,-1,148,194,147,-1,147,194,195,-1,147,195,146,-1,146,195,196,-1,146,196,145,-1,145,196,197,-1,145,197,144,-1,144,197,198,-1,144,198,155,-1,155,198,199,-1,155,199,154,-1,154,199,200,-1,154,200,153,-1,153,200,201,-1,153,201,152,-1,152,201,202,-1,152,202,151,-1,151,202,203,-1,151,203,150,-1,150,203,204,-1,150,204,105,-1,105,204,205,-1,105,205,100,-1,100,205,206,-1,100,206,101,-1,101,206,207,-1,101,207,128,-1,128,207,208,-1,128,208,127,-1,127,208,209,-1,127,209,126,-1,126,209,210,-1,126,210,125,-1,125,210,211,-1,125,211,124,-1,124,211,184,-1,124,184,123,-1,
        ]
    }
}
Shape{
    appearance Appearance {
        material  Material 	{
            diffuseColor 0.25098039215686274 0.25098039215686274 0.25098039215686274
            specularColor 0.12549019607843137 0.12549019607843137 0.12549019607843137
            ambientIntensity 0.2
            transparency 0
            shininess 0.5
        }
    }
    geometry IndexedFaceSet {
        ccw TRUE
        solid FALSE
        coord DEF co Coordinate {
            point [
                -0.0346 -0.4574 0.3976, -0.0792 -0.4574 0.3976, -0.0348 -0.4614 0.3976, -0.0786 -0.4638 0.3976, -0.0708 -0.4765 0.3976, -0.0669 -0.479 0.3976, -0.0623 -0.4806 0.3976, -0.0568 -0.4812 0.3976, -0.0627 -0.4343 0.3976, -0.0568 -0.4337 0.3976, -0.0352 -0.451 0.3976, -0.0371 -0.4458 0.3976, -0.0399 -0.4415 0.3976, -0.043 -0.4383 0.3976, -0.0521 -0.4341 0.3976, -0.0471 -0.4357 0.3976, -0.0767 -0.4691 0.3976, -0.074 -0.4734 0.3976, -0.0672 -0.4358 0.3976, -0.071 -0.4381 0.3976, -0.0745 -0.4417 0.3976, -0.0424 -0.4758 0.3976, -0.0465 -0.4787 0.3976, -0.051 -0.4805 0.3976, -0.0385 -0.4714 0.3976, -0.0362 -0.4668 0.3976, -0.0771 -0.4462 0.3976, -0.0788 -0.4519 0.3976, -0.0788 -0.4519 0.3976
            ]
        }
        coordIndex [
            0,1,2,-1,2,1,3,-1,4,5,2,-1,2,5,6,-1,2,6,7,-1,8,0,9,-1,9,0,10,-1,9,10,11,-1,11,12,9,-1,9,12,13,-1,9,13,14,-1,14,13,15,-1,3,16,2,-1,2,16,17,-1,2,17,4,-1,8,18,0,-1,0,18,19,-1,0,19,20,-1,21,7,22,-1,22,7,23,-1,21,24,7,-1,7,24,25,-1,7,25,2,-1,20,26,0,-1,0,26,27,-1,0,27,1,-1,
        ]
    }
}
Shape{
    appearance Appearance {
        material  Material 	{
            diffuseColor 0.6666666666666666 0.6666666666666666 0.6666666666666666
            specularColor 0.3333333333333333 0.3333333333333333 0.3333333333333333
            ambientIntensity 0.2
            transparency 0
            shininess 0.5
        }
    }
    geometry IndexedFaceSet {
        ccw TRUE
        solid FALSE
        coord DEF co Coordinate {
            point [
                0.0274 -0.3976 0.3937, -0.0907 -0.3976 0.3937, 0.0274 -0.3976 0.3976, -0.0907 -0.3976 0.3976, -0.0907 -0.3789 0.3937, -0.0907 -0.3789 0.3976, 0.0009 -0.3209 0.3937, 0.0009 -0.3209 0.3976, 0.0086 -0.317 0.3937, 0.0086 -0.317 0.3976, 0.0047 -0.3188 0.3976, 0.0047 -0.3188 0.3937, 0.0086 -0.3165 0.3937, 0.0086 -0.3165 0.3976, -0.0079 -0.317 0.3937, -0.0079 -0.317 0.3976, 0.0004 -0.3169 0.3976, 0.0004 -0.3169 0.3937, -0.0907 -0.317 0.3937, -0.0907 -0.317 0.3976, -0.0907 -0.3011 0.3937, -0.0907 -0.3011 0.3976, 0.0274 -0.3011 0.3937, 0.0274 -0.3011 0.3976, 0.0274 -0.3213 0.3937, 0.0274 -0.3213 0.3976, -0.0625 -0.3775 0.3937, -0.0625 -0.3775 0.3976, -0.0706 -0.3823 0.3937, -0.0706 -0.3823 0.3976, -0.0665 -0.38 0.3976, -0.0665 -0.38 0.3937, -0.0706 -0.3826 0.3937, -0.0706 -0.3826 0.3976, -0.0534 -0.3818 0.3937, -0.0534 -0.3818 0.3976, -0.062 -0.3819 0.3976, -0.062 -0.3819 0.3937, 0.0274 -0.3818 0.3937, 0.0274 -0.3818 0.3976, -0.0331 -0.1657 0.3937, -0.0331 -0.1657 0.3976, -0.0481 -0.1671 0.3976, -0.0481 -0.1671 0.3937, -0.0609 -0.1711 0.3976, -0.0609 -0.1711 0.3937, -0.0719 -0.1777 0.3976, -0.0719 -0.1777 0.3937, -0.0807 -0.1862 0.3976, -0.0807 -0.1862 0.3937, -0.0868 -0.1958 0.3976, -0.0868 -0.1958 0.3937, -0.0906 -0.2069 0.3976, -0.0906 -0.2069 0.3937, -0.0922 -0.2214 0.3937, -0.0915 -0.2146 0.3976, -0.0922 -0.2214 0.3976, 0.0288 -0.2233 0.3937, 0.0288 -0.2233 0.3976, 0.0278 -0.2111 0.3937, 0.0281 -0.2145 0.3976, 0.0278 -0.2111 0.3976, 0.0245 -0.1991 0.3976, 0.0245 -0.1991 0.3937, 0.018 -0.1879 0.3976, 0.018 -0.1879 0.3937, 0.0086 -0.1784 0.3976, 0.0086 -0.1784 0.3937, -0.0024 -0.1717 0.3976, -0.0024 -0.1717 0.3937, -0.0161 -0.1674 0.3976, -0.0161 -0.1674 0.3937, -0.0303 -0.2781 0.3937, -0.0303 -0.2781 0.3976, -0.0185 -0.2773 0.3976, -0.0185 -0.2773 0.3937, -0.0053 -0.2739 0.3976, -0.0053 -0.2739 0.3937, 0.0065 -0.2678 0.3976, 0.0065 -0.2678 0.3937, 0.0164 -0.259 0.3976, 0.0164 -0.259 0.3937, 0.0233 -0.2487 0.3976, 0.0233 -0.2487 0.3937, 0.0272 -0.2376 0.3976, 0.0272 -0.2376 0.3937, 0.0281 -0.2299 0.3976, -0.0908 -0.2356 0.3937, -0.0915 -0.2286 0.3976, -0.0908 -0.2356 0.3976, -0.087 -0.2469 0.3976, -0.087 -0.2469 0.3937, -0.081 -0.2567 0.3976, -0.081 -0.2567 0.3937, -0.0718 -0.2658 0.3976, -0.0718 -0.2658 0.3937, -0.0609 -0.2722 0.3976, -0.0609 -0.2722 0.3937, -0.0474 -0.2765 0.3976, -0.0474 -0.2765 0.3937, -0.0318 -0.1816 0.3937, -0.0454 -0.1829 0.3937, -0.0561 -0.1862 0.3937, -0.0646 -0.1913 0.3937, -0.0712 -0.1977 0.3937, -0.0756 -0.2046 0.3937, -0.0784 -0.2128 0.3937, -0.0792 -0.2214 0.3937, -0.0781 -0.232 0.3937, -0.0753 -0.2402 0.3937, -0.0709 -0.2471 0.3937, -0.0654 -0.2526 0.3937, -0.0578 -0.2572 0.3937, -0.0466 -0.2609 0.3937, -0.032 -0.2623 0.3937, -0.0181 -0.2611 0.3937, -0.0074 -0.2581 0.3937, 0.0014 -0.2531 0.3937, 0.0076 -0.2474 0.3937, 0.0119 -0.2408 0.3937, 0.0147 -0.233 0.3937, 0.0158 -0.2224 0.3937, 0.0146 -0.2119 0.3937, 0.0116 -0.2039 0.3937, 0.0067 -0.1968 0.3937, -0.001 -0.19 0.3937, -0.0103 -0.1852 0.3937, -0.0231 -0.1821 0.3937, -0.0318 -0.1816 0.3976, -0.0231 -0.1821 0.3976, -0.0103 -0.1852 0.3976, -0.001 -0.19 0.3976, 0.0067 -0.1968 0.3976, 0.0116 -0.2039 0.3976, 0.0146 -0.2119 0.3976, 0.0158 -0.2224 0.3976, 0.0147 -0.233 0.3976, 0.0119 -0.2408 0.3976, 0.0076 -0.2474 0.3976, 0.0014 -0.2531 0.3976, -0.0074 -0.2581 0.3976, -0.0181 -0.2611 0.3976, -0.032 -0.2623 0.3976, -0.0466 -0.2609 0.3976, -0.0578 -0.2572 0.3976, -0.0654 -0.2526 0.3976, -0.0709 -0.2471 0.3976, -0.0753 -0.2402 0.3976, -0.0781 -0.232 0.3976, -0.0792 -0.2214 0.3976, -0.0784 -0.2128 0.3976, -0.0756 -0.2046 0.3976, -0.0712 -0.1977 0.3976, -0.0646 -0.1913 0.3976, -0.0561 -0.1862 0.3976, -0.0454 -0.1829 0.3976, -0.0861 -0.0793 0.3937, -0.0688 -0.0793 0.3937, -0.0861 -0.0793 0.3976, -0.0688 -0.0793 0.3976, -0.0792 -0.1108 0.3937, -0.0792 -0.1108 0.3976, -0.0784 -0.1019 0.3976, -0.0784 -0.1019 0.3937, -0.0741 -0.088 0.3976, -0.0741 -0.088 0.3937, -0.0616 -0.1355 0.3937, -0.0616 -0.1355 0.3976, -0.0663 -0.135 0.3976, -0.0663 -0.135 0.3937, -0.0699 -0.1336 0.3976, -0.0699 -0.1336 0.3937, -0.0723 -0.1321 0.3976, -0.0723 -0.1321 0.3937, -0.0746 -0.1296 0.3976, -0.0746 -0.1296 0.3937, -0.0769 -0.1254 0.3976, -0.0769 -0.1254 0.3937, -0.0786 -0.1194 0.3976, -0.0786 -0.1194 0.3937, -0.0364 -0.1082 0.3937, -0.0364 -0.1082 0.3976, -0.0456 -0.1253 0.3976, -0.0456 -0.1253 0.3937, -0.0457 -0.1255 0.3976, -0.0457 -0.1255 0.3937, -0.0499 -0.1306 0.3976, -0.0499 -0.1306 0.3937, -0.0539 -0.1336 0.3976, -0.0539 -0.1336 0.3937, -0.0573 -0.1349 0.3976, -0.0573 -0.1349 0.3937, -0.0029 -0.0793 0.3937, -0.0029 -0.0793 0.3976, -0.0092 -0.08 0.3976, -0.0092 -0.08 0.3937, -0.0153 -0.0821 0.3976, -0.0153 -0.0821 0.3937, -0.0209 -0.0856 0.3976, -0.0209 -0.0856 0.3937, -0.0265 -0.0916 0.3976, -0.0265 -0.0916 0.3937, 0.0288 -0.1211 0.3937, 0.0288 -0.1211 0.3976, 0.0275 -0.108 0.3937, 0.0281 -0.1137 0.3976, 0.0275 -0.108 0.3976, 0.0243 -0.0981 0.3976, 0.0243 -0.0981 0.3937, 0.0205 -0.0915 0.3976, 0.0205 -0.0915 0.3937, 0.0161 -0.0864 0.3976, 0.0161 -0.0864 0.3937, 0.0109 -0.0827 0.3976, 0.0109 -0.0827 0.3937, 0.0053 -0.0804 0.3976, 0.0053 -0.0804 0.3937, 0.0282 -0.1342 0.3937, 0.0256 -0.147 0.3937, 0.0256 -0.147 0.3976, 0.0281 -0.135 0.3976, 0.0282 -0.1342 0.3976, 0.0083 -0.147 0.3937, 0.0083 -0.147 0.3976, 0.0158 -0.1198 0.3937, 0.0158 -0.1198 0.3976, 0.0153 -0.128 0.3976, 0.0153 -0.128 0.3937, 0.0129 -0.1381 0.3976, 0.0129 -0.1381 0.3937, -0.0013 -0.0952 0.3937, -0.0013 -0.0952 0.3976, 0.0022 -0.0955 0.3976, 0.0022 -0.0955 0.3937, 0.0054 -0.0966 0.3976, 0.0054 -0.0966 0.3937, 0.0079 -0.0983 0.3976, 0.0079 -0.0983 0.3937, 0.0105 -0.101 0.3976, 0.0105 -0.101 0.3937, 0.0131 -0.1054 0.3976, 0.0131 -0.1054 0.3937, 0.0151 -0.1116 0.3976, 0.0151 -0.1116 0.3937, -0.0253 -0.1203 0.3937, -0.0253 -0.1203 0.3976, -0.0195 -0.1093 0.3976, -0.0195 -0.1093 0.3937, -0.0152 -0.1026 0.3976, -0.0152 -0.1026 0.3937, -0.012 -0.0989 0.3976, -0.012 -0.0989 0.3937, -0.0091 -0.0969 0.3976, -0.0091 -0.0969 0.3937, -0.0058 -0.0957 0.3976, -0.0058 -0.0957 0.3937, -0.0603 -0.1513 0.3937, -0.0603 -0.1513 0.3976, -0.0541 -0.1507 0.3976, -0.0541 -0.1507 0.3937, -0.048 -0.1485 0.3976, -0.048 -0.1485 0.3937, -0.042 -0.1447 0.3976, -0.042 -0.1447 0.3937, -0.0353 -0.1374 0.3976, -0.0353 -0.1374 0.3937, -0.0922 -0.1091 0.3937, -0.0922 -0.1091 0.3976, -0.0913 -0.1214 0.3937, -0.0915 -0.1188 0.3976, -0.0913 -0.1214 0.3976, -0.088 -0.133 0.3976, -0.088 -0.133 0.3937, -0.0838 -0.1404 0.3976, -0.0838 -0.1404 0.3937, -0.0795 -0.1449 0.3976, -0.0795 -0.1449 0.3937, -0.0745 -0.1483 0.3976, -0.0745 -0.1483 0.3937, -0.0686 -0.1504 0.3976, -0.0686 -0.1504 0.3937, -0.0879 -0.0831 0.3976, -0.0879 -0.0831 0.3937, -0.0906 -0.0939 0.3976, -0.0906 -0.0939 0.3937, -0.0915 -0.1021 0.3976, -0.0907 0.0009 0.3937, -0.0907 0.033 0.3937, -0.0907 0.0009 0.3976, -0.0907 0.033 0.3976, 0.0274 0.033 0.3937, 0.0274 0.033 0.3976, 0.0274 -0.0003 0.3937, 0.0274 -0.0003 0.3976, -0.0302 -0.062 0.3937, -0.0302 -0.062 0.3976, -0.0193 -0.0612 0.3976, -0.0193 -0.0612 0.3937, -0.0076 -0.0581 0.3976, -0.0076 -0.0581 0.3937, 0.0027 -0.0525 0.3976, 0.0027 -0.0525 0.3937, 0.012 -0.0442 0.3976, 0.012 -0.0442 0.3937, 0.0121 -0.044 0.3976, 0.0121 -0.044 0.3937, 0.0207 -0.0312 0.3976, 0.0207 -0.0312 0.3937, 0.0255 -0.0174 0.3976, 0.0255 -0.0174 0.3937, -0.0894 -0.0141 0.3976, -0.0894 -0.0141 0.3937, -0.0853 -0.0277 0.3976, -0.0853 -0.0277 0.3937, -0.0781 -0.0399 0.3976, -0.0781 -0.0399 0.3937, -0.0687 -0.0495 0.3976, -0.0687 -0.0495 0.3937, -0.0583 -0.0562 0.3976, -0.0583 -0.0562 0.3937, -0.046 -0.0604 0.3976, -0.046 -0.0604 0.3937, -0.0021 -0.0384 0.3937, 0.0039 -0.0326 0.3937, 0.0095 -0.024 0.3937, 0.0129 -0.0142 0.3937, 0.0144 -0.0002 0.3937, 0.0144 0.0172 0.3937, -0.0778 0.0172 0.3937, -0.0778 0.0004 0.3937, -0.0766 -0.0121 0.3937, -0.0735 -0.022 0.3937, -0.0687 -0.0301 0.3937, -0.0621 -0.0368 0.3937, -0.0541 -0.0416 0.3937, -0.0447 -0.0448 0.3937, -0.0305 -0.0462 0.3937, -0.0188 -0.0452 0.3937, -0.0094 -0.0424 0.3937, 0.0144 -0.0002 0.3976, 0.0144 0.0172 0.3976, 0.0129 -0.0142 0.3976, 0.0095 -0.024 0.3976, 0.0039 -0.0326 0.3976, -0.0021 -0.0384 0.3976, -0.0094 -0.0424 0.3976, -0.0188 -0.0452 0.3976, -0.0305 -0.0462 0.3976, -0.0447 -0.0448 0.3976, -0.0541 -0.0416 0.3976, -0.0621 -0.0368 0.3976, -0.0687 -0.0301 0.3976, -0.0735 -0.022 0.3976, -0.0766 -0.0121 0.3976, -0.0778 0.0004 0.3976, -0.0778 0.0172 0.3976, -0.0861 0.1281 0.3937, -0.0688 0.1281 0.3937, -0.0861 0.1281 0.3976, -0.0688 0.1281 0.3976, -0.0792 0.0966 0.3937, -0.0792 0.0966 0.3976, -0.0784 0.1055 0.3976, -0.0784 0.1055 0.3937, -0.0741 0.1195 0.3976, -0.0741 0.1195 0.3937, -0.0616 0.0719 0.3937, -0.0616 0.0719 0.3976, -0.0663 0.0724 0.3976, -0.0663 0.0724 0.3937, -0.0699 0.0738 0.3976, -0.0699 0.0738 0.3937, -0.0723 0.0753 0.3976, -0.0723 0.0753 0.3937, -0.0746 0.0778 0.3976, -0.0746 0.0778 0.3937, -0.0769 0.082 0.3976, -0.0769 0.082 0.3937, -0.0786 0.088 0.3976, -0.0786 0.088 0.3937, -0.0364 0.0992 0.3937, -0.0364 0.0992 0.3976, -0.0456 0.0821 0.3976, -0.0456 0.0821 0.3937, -0.0457 0.0819 0.3976, -0.0457 0.0819 0.3937, -0.0499 0.0768 0.3976, -0.0499 0.0768 0.3937, -0.0539 0.0738 0.3976, -0.0539 0.0738 0.3937, -0.0573 0.0725 0.3976, -0.0573 0.0725 0.3937, -0.0029 0.1281 0.3937, -0.0029 0.1281 0.3976, -0.0092 0.1274 0.3976, -0.0092 0.1274 0.3937, -0.0153 0.1254 0.3976, -0.0153 0.1254 0.3937, -0.0209 0.1219 0.3976, -0.0209 0.1219 0.3937, -0.0265 0.1158 0.3976, -0.0265 0.1158 0.3937, 0.0288 0.0863 0.3937, 0.0288 0.0863 0.3976, 0.0275 0.0994 0.3937, 0.0281 0.0937 0.3976, 0.0275 0.0994 0.3976, 0.0243 0.1093 0.3976, 0.0243 0.1093 0.3937, 0.0205 0.1159 0.3976, 0.0205 0.1159 0.3937, 0.0161 0.121 0.3976, 0.0161 0.121 0.3937, 0.0109 0.1247 0.3976, 0.0109 0.1247 0.3937, 0.0053 0.127 0.3976, 0.0053 0.127 0.3937, 0.0282 0.0732 0.3937, 0.0256 0.0604 0.3937, 0.0256 0.0604 0.3976, 0.0281 0.0724 0.3976, 0.0282 0.0732 0.3976, 0.0083 0.0604 0.3937, 0.0083 0.0604 0.3976, 0.0158 0.0876 0.3937, 0.0158 0.0876 0.3976, 0.0153 0.0794 0.3976, 0.0153 0.0794 0.3937, 0.0129 0.0693 0.3976, 0.0129 0.0693 0.3937, -0.0013 0.1122 0.3937, -0.0013 0.1122 0.3976, 0.0022 0.1119 0.3976, 0.0022 0.1119 0.3937, 0.0054 0.1108 0.3976, 0.0054 0.1108 0.3937, 0.0079 0.1092 0.3976, 0.0079 0.1092 0.3937, 0.0105 0.1064 0.3976, 0.0105 0.1064 0.3937, 0.0131 0.102 0.3976, 0.0131 0.102 0.3937, 0.0151 0.0958 0.3976, 0.0151 0.0958 0.3937, -0.0253 0.0871 0.3937, -0.0253 0.0871 0.3976, -0.0195 0.0981 0.3976, -0.0195 0.0981 0.3937, -0.0152 0.1049 0.3976, -0.0152 0.1049 0.3937, -0.012 0.1085 0.3976, -0.012 0.1085 0.3937, -0.0091 0.1105 0.3976, -0.0091 0.1105 0.3937, -0.0058 0.1117 0.3976, -0.0058 0.1117 0.3937, -0.0603 0.0561 0.3937, -0.0603 0.0561 0.3976, -0.0541 0.0567 0.3976, -0.0541 0.0567 0.3937, -0.048 0.0589 0.3976, -0.048 0.0589 0.3937, -0.042 0.0627 0.3976, -0.042 0.0627 0.3937, -0.0353 0.07 0.3976, -0.0353 0.07 0.3937, -0.0922 0.0984 0.3937, -0.0922 0.0984 0.3976, -0.0913 0.086 0.3937, -0.0915 0.0886 0.3976, -0.0913 0.086 0.3976, -0.088 0.0744 0.3976, -0.088 0.0744 0.3937, -0.0838 0.067 0.3976, -0.0838 0.067 0.3937, -0.0795 0.0625 0.3976, -0.0795 0.0625 0.3937, -0.0745 0.0591 0.3976, -0.0745 0.0591 0.3937, -0.0686 0.057 0.3976, -0.0686 0.057 0.3937, -0.0879 0.1243 0.3976, -0.0879 0.1243 0.3937, -0.0906 0.1136 0.3976, -0.0906 0.1136 0.3937, -0.0915 0.1053 0.3976, 0.0274 0.1396 0.3937, 0.0144 0.1396 0.3937, 0.0274 0.1396 0.3976, 0.0144 0.1396 0.3976, 0.0144 0.1742 0.3937, 0.0144 0.1742 0.3976, -0.0907 0.1742 0.3937, -0.0907 0.1742 0.3976, -0.0907 0.19 0.3937, -0.0907 0.19 0.3976, 0.0144 0.19 0.3937, 0.0144 0.19 0.3976, 0.0144 0.2232 0.3937, 0.0144 0.2232 0.3976, 0.0274 0.2232 0.3937, 0.0274 0.2232 0.3976, -0.0389 0.239 0.3937, -0.0504 0.239 0.3937, -0.0389 0.239 0.3976, -0.0504 0.239 0.3976, -0.0504 0.2836 0.3937, -0.0504 0.2836 0.3976, -0.0389 0.2836 0.3937, -0.0389 0.2836 0.3976, -0.0288 0.3067 0.3937, -0.0823 0.3067 0.3937, -0.0288 0.3067 0.3976, -0.0823 0.3067 0.3976, -0.0898 0.3259 0.3937, -0.0922 0.3465 0.3976, -0.092 0.3453 0.3976, -0.0922 0.3465 0.3937, -0.0915 0.3402 0.3976, -0.0898 0.3259 0.3976, -0.0332 0.4032 0.3937, -0.0332 0.4032 0.3976, -0.0454 0.4023 0.3976, -0.0454 0.4023 0.3937, -0.0581 0.399 0.3976, -0.0581 0.399 0.3937, -0.0697 0.3929 0.3976, -0.0697 0.3929 0.3937, -0.0794 0.3841 0.3976, -0.0794 0.3841 0.3937, -0.0865 0.3732 0.3976, -0.0865 0.3732 0.3937, -0.0906 0.3615 0.3976, -0.0906 0.3615 0.3937, -0.0915 0.3533 0.3976, 0.0281 0.3521 0.3976, 0.028 0.3528 0.3937, 0.0286 0.3453 0.3976, 0.0288 0.3418 0.3937, 0.0288 0.3418 0.3976, 0.028 0.3528 0.3976, 0.0245 0.3661 0.3976, 0.0245 0.3661 0.3937, 0.0184 0.3776 0.3976, 0.0184 0.3776 0.3937, 0.0085 0.3886 0.3976, 0.0085 0.3886 0.3937, -0.0036 0.3967 0.3976, -0.0036 0.3967 0.3937, -0.0168 0.4014 0.3976, -0.0168 0.4014 0.3937, 0.0281 0.3329 0.3976, 0.0275 0.3254 0.3937, 0.0275 0.3254 0.3976, 0.0227 0.3096 0.3937, 0.0227 0.3096 0.3976, 0.0068 0.3096 0.3937, 0.0068 0.3096 0.3976, 0.0158 0.3432 0.3937, 0.0158 0.3432 0.3976, 0.0156 0.3369 0.3976, 0.0156 0.3369 0.3937, 0.0128 0.3224 0.3976, 0.0128 0.3224 0.3937, 0.0156 0.3453 0.3976, 0.0145 0.3548 0.3937, 0.0145 0.3548 0.3976, 0.0111 0.3637 0.3937, 0.0111 0.3637 0.3976, 0.0055 0.3719 0.3937, 0.0055 0.3719 0.3976, -0.0027 0.3791 0.3937, -0.0027 0.3791 0.3976, -0.0123 0.3841 0.3937, -0.0123 0.3841 0.3976, -0.023 0.3867 0.3937, -0.023 0.3867 0.3976, -0.0322 0.3874 0.3937, -0.0322 0.3874 0.3976, -0.0792 0.3452 0.3937, -0.0792 0.3452 0.3976, -0.0792 0.3453 0.3976, -0.078 0.3568 0.3937, -0.078 0.3568 0.3976, -0.075 0.3651 0.3976, -0.075 0.3651 0.3937, -0.0705 0.3722 0.3976, -0.0705 0.3722 0.3937, -0.0637 0.3786 0.3976, -0.0637 0.3786 0.3937, -0.0556 0.3831 0.3976, -0.0556 0.3831 0.3937, -0.0453 0.3862 0.3976, -0.0453 0.3862 0.3937, -0.074 0.3225 0.3937, -0.074 0.3225 0.3976, -0.0747 0.3239 0.3976, -0.0747 0.3239 0.3937, -0.0781 0.3335 0.3976, -0.0781 0.3335 0.3937, -0.0418 0.3225 0.3937, -0.0418 0.3225 0.3976, -0.0418 0.3453 0.3976, -0.0418 0.3485 0.3937, -0.0418 0.3485 0.3976, -0.0288 0.3485 0.3937, -0.0288 0.3485 0.3976, -0.0288 0.3453 0.3976, -0.0461 0.4587 0.3937, -0.0461 0.4738 0.3937, -0.0461 0.4587 0.3976, -0.0461 0.4738 0.3976, -0.0907 0.4738 0.3937, -0.0907 0.4738 0.3976, -0.0907 0.4896 0.3937, -0.0907 0.4896 0.3976, 0.0274 0.4896 0.3937, 0.0274 0.4896 0.3976, 0.0274 0.4562 0.3937, 0.0274 0.4562 0.3976, -0.008 0.4162 0.3937, -0.008 0.4162 0.3976, -0.0059 0.4162 0.3976, -0.0059 0.4162 0.3937, 0.0035 0.4176 0.3976, 0.0035 0.4176 0.3937, 0.0101 0.4202 0.3976, 0.0101 0.4202 0.3937, 0.0161 0.4244 0.3976, 0.0161 0.4244 0.3937, 0.0199 0.4288 0.3976, 0.0199 0.4288 0.3937, 0.0238 0.4357 0.3976, 0.0238 0.4357 0.3937, 0.0264 0.4447 0.3976, 0.0264 0.4447 0.3937, -0.0457 0.45 0.3976, -0.0457 0.45 0.3937, -0.0434 0.4406 0.3976, -0.0434 0.4406 0.3937, -0.0388 0.432 0.3976, -0.0388 0.432 0.3937, -0.0326 0.4249 0.3976, -0.0326 0.4249 0.3937, -0.0255 0.4201 0.3976, -0.0255 0.4201 0.3937, -0.0179 0.4173 0.3976, -0.0179 0.4173 0.3937, -0.0308 0.4458 0.3937, -0.0325 0.4519 0.3937, -0.0331 0.4599 0.3937, -0.0331 0.4738 0.3937, 0.0144 0.4738 0.3937, -0.0283 0.4411 0.3937, -0.0249 0.4373 0.3937, -0.0208 0.4346 0.3937, -0.0162 0.4329 0.3937, -0.0091 0.432 0.3937, -0.0086 0.432 0.3937, -0.0026 0.4325 0.3937, 0.0022 0.434 0.3937, 0.0059 0.4361 0.3937, 0.0088 0.4387 0.3937, 0.0108 0.4416 0.3937, 0.013 0.4469 0.3937, 0.0143 0.4556 0.3937, 0.0144 0.4585 0.3937, 0.0144 0.4585 0.3976, 0.0144 0.4738 0.3976, 0.0143 0.4556 0.3976, 0.013 0.4469 0.3976, 0.0108 0.4416 0.3976, 0.0088 0.4387 0.3976, 0.0059 0.4361 0.3976, 0.0022 0.434 0.3976, -0.0026 0.4325 0.3976, -0.0086 0.432 0.3976, -0.0091 0.432 0.3976, -0.0162 0.4329 0.3976, -0.0208 0.4346 0.3976, -0.0249 0.4373 0.3976, -0.0283 0.4411 0.3976, -0.0308 0.4458 0.3976, -0.0325 0.4519 0.3976, -0.0331 0.4599 0.3976, -0.0331 0.4738 0.3976, -0.0331 0.4738 0.3976
            ]
        }
        coordIndex [
            0,1,2,-1,2,1,3,-1,1,4,3,-1,3,4,5,-1,4,6,5,-1,5,6,7,-1,8,9,10,-1,8,10,11,-1,11,10,7,-1,11,7,6,-1,8,12,9,-1,9,12,13,-1,14,15,16,-1,14,16,17,-1,17,16,13,-1,17,13,12,-1,14,18,15,-1,15,18,19,-1,18,20,19,-1,19,20,21,-1,20,22,21,-1,21,22,23,-1,22,24,23,-1,23,24,25,-1,24,26,25,-1,25,26,27,-1,28,29,30,-1,28,30,31,-1,31,30,27,-1,31,27,26,-1,28,32,29,-1,29,32,33,-1,34,35,36,-1,34,36,37,-1,37,36,33,-1,37,33,32,-1,34,38,35,-1,35,38,39,-1,38,0,39,-1,39,0,2,-1,0,38,1,-1,1,38,34,-1,20,18,22,-1,22,18,14,-1,14,17,22,-1,22,17,12,-1,22,12,24,-1,24,12,8,-1,34,37,1,-1,1,37,32,-1,1,32,4,-1,4,32,28,-1,28,31,4,-1,4,31,26,-1,4,26,6,-1,6,26,24,-1,6,24,11,-1,11,24,8,-1,40,41,42,-1,40,42,43,-1,43,42,44,-1,43,44,45,-1,45,44,46,-1,45,46,47,-1,47,46,48,-1,47,48,49,-1,49,48,50,-1,49,50,51,-1,51,50,52,-1,51,52,53,-1,53,52,54,-1,54,52,55,-1,54,55,56,-1,57,58,59,-1,59,58,60,-1,60,61,59,-1,59,61,62,-1,59,62,63,-1,63,62,64,-1,63,64,65,-1,65,64,66,-1,65,66,67,-1,67,66,68,-1,67,68,69,-1,69,68,70,-1,69,70,71,-1,71,70,41,-1,71,41,40,-1,72,73,74,-1,72,74,75,-1,75,74,76,-1,75,76,77,-1,77,76,78,-1,77,78,79,-1,79,78,80,-1,79,80,81,-1,81,80,82,-1,81,82,83,-1,83,82,84,-1,83,84,85,-1,85,84,57,-1,57,84,86,-1,57,86,58,-1,54,56,87,-1,87,56,88,-1,88,89,87,-1,87,89,90,-1,87,90,91,-1,91,90,92,-1,91,92,93,-1,93,92,94,-1,93,94,95,-1,95,94,96,-1,95,96,97,-1,97,96,98,-1,97,98,99,-1,99,98,73,-1,99,73,72,-1,100,40,101,-1,101,40,43,-1,101,43,102,-1,102,43,45,-1,102,45,103,-1,103,45,47,-1,103,47,104,-1,104,47,49,-1,104,49,105,-1,105,49,51,-1,105,51,106,-1,106,51,53,-1,106,53,107,-1,107,53,54,-1,107,54,108,-1,108,54,87,-1,108,87,109,-1,109,87,91,-1,109,91,110,-1,110,91,93,-1,110,93,111,-1,111,93,95,-1,111,95,112,-1,112,95,97,-1,112,97,113,-1,113,97,99,-1,113,99,114,-1,114,99,72,-1,114,72,115,-1,115,72,75,-1,115,75,116,-1,116,75,77,-1,116,77,117,-1,117,77,79,-1,117,79,118,-1,118,79,81,-1,118,81,119,-1,119,81,83,-1,119,83,120,-1,120,83,85,-1,120,85,121,-1,121,85,57,-1,121,57,122,-1,122,57,59,-1,122,59,123,-1,123,59,63,-1,123,63,124,-1,124,63,65,-1,124,65,125,-1,125,65,67,-1,125,67,126,-1,126,67,69,-1,126,69,127,-1,127,69,71,-1,127,71,100,-1,100,71,40,-1,100,128,129,-1,100,129,127,-1,127,129,130,-1,127,130,126,-1,126,130,131,-1,126,131,125,-1,125,131,132,-1,125,132,124,-1,124,132,133,-1,124,133,123,-1,123,133,134,-1,123,134,122,-1,122,134,135,-1,122,135,121,-1,121,135,136,-1,121,136,120,-1,120,136,137,-1,120,137,119,-1,119,137,138,-1,119,138,118,-1,118,138,139,-1,118,139,117,-1,117,139,140,-1,117,140,116,-1,116,140,141,-1,116,141,115,-1,115,141,142,-1,115,142,114,-1,114,142,143,-1,114,143,113,-1,113,143,144,-1,113,144,112,-1,112,144,145,-1,112,145,111,-1,111,145,146,-1,111,146,110,-1,110,146,147,-1,110,147,109,-1,109,147,148,-1,109,148,108,-1,108,148,149,-1,108,149,107,-1,107,149,150,-1,107,150,106,-1,106,150,151,-1,106,151,105,-1,105,151,152,-1,105,152,104,-1,104,152,153,-1,104,153,103,-1,103,153,154,-1,103,154,102,-1,102,154,155,-1,102,155,101,-1,101,155,128,-1,101,128,100,-1,156,157,158,-1,158,157,159,-1,160,161,162,-1,160,162,163,-1,163,162,164,-1,163,164,165,-1,165,164,159,-1,165,159,157,-1,166,167,168,-1,166,168,169,-1,169,168,170,-1,169,170,171,-1,171,170,172,-1,171,172,173,-1,173,172,174,-1,173,174,175,-1,175,174,176,-1,175,176,177,-1,177,176,178,-1,177,178,179,-1,179,178,161,-1,179,161,160,-1,180,181,182,-1,180,182,183,-1,183,182,184,-1,183,184,185,-1,185,184,186,-1,185,186,187,-1,187,186,188,-1,187,188,189,-1,189,188,190,-1,189,190,191,-1,191,190,167,-1,191,167,166,-1,192,193,194,-1,192,194,195,-1,195,194,196,-1,195,196,197,-1,197,196,198,-1,197,198,199,-1,199,198,200,-1,199,200,201,-1,201,200,181,-1,201,181,180,-1,202,203,204,-1,204,203,205,-1,205,206,204,-1,204,206,207,-1,204,207,208,-1,208,207,209,-1,208,209,210,-1,210,209,211,-1,210,211,212,-1,212,211,213,-1,212,213,214,-1,214,213,215,-1,214,215,216,-1,216,215,193,-1,216,193,192,-1,203,202,217,-1,218,219,220,-1,218,220,217,-1,217,220,221,-1,217,221,203,-1,218,222,219,-1,219,222,223,-1,224,225,226,-1,224,226,227,-1,227,226,228,-1,227,228,229,-1,229,228,223,-1,229,223,222,-1,230,231,232,-1,230,232,233,-1,233,232,234,-1,233,234,235,-1,235,234,236,-1,235,236,237,-1,237,236,238,-1,237,238,239,-1,239,238,240,-1,239,240,241,-1,241,240,242,-1,241,242,243,-1,243,242,225,-1,243,225,224,-1,244,245,246,-1,244,246,247,-1,247,246,248,-1,247,248,249,-1,249,248,250,-1,249,250,251,-1,251,250,252,-1,251,252,253,-1,253,252,254,-1,253,254,255,-1,255,254,231,-1,255,231,230,-1,256,257,258,-1,256,258,259,-1,259,258,260,-1,259,260,261,-1,261,260,262,-1,261,262,263,-1,263,262,264,-1,263,264,265,-1,265,264,245,-1,265,245,244,-1,266,267,268,-1,268,267,269,-1,269,270,268,-1,268,270,271,-1,268,271,272,-1,272,271,273,-1,272,273,274,-1,274,273,275,-1,274,275,276,-1,276,275,277,-1,276,277,278,-1,278,277,279,-1,278,279,280,-1,280,279,257,-1,280,257,256,-1,156,158,281,-1,156,281,282,-1,282,281,283,-1,282,283,284,-1,284,283,266,-1,266,283,285,-1,266,285,267,-1,157,156,165,-1,165,156,282,-1,165,282,163,-1,163,282,284,-1,163,284,160,-1,160,284,266,-1,160,266,179,-1,179,266,268,-1,179,268,177,-1,177,268,272,-1,177,272,175,-1,175,272,274,-1,175,274,173,-1,173,274,276,-1,173,276,171,-1,171,276,278,-1,171,278,169,-1,169,278,280,-1,169,280,166,-1,166,280,256,-1,166,256,191,-1,191,256,259,-1,191,259,189,-1,189,259,261,-1,189,261,187,-1,187,261,263,-1,187,263,185,-1,185,263,265,-1,185,265,183,-1,183,265,244,-1,183,244,180,-1,180,244,247,-1,180,247,201,-1,201,247,249,-1,201,249,199,-1,199,249,251,-1,199,251,197,-1,197,251,253,-1,197,253,195,-1,195,253,255,-1,195,255,192,-1,192,255,230,-1,192,230,216,-1,216,230,233,-1,216,233,214,-1,214,233,235,-1,214,235,212,-1,212,235,237,-1,212,237,210,-1,210,237,239,-1,210,239,208,-1,208,239,241,-1,208,241,204,-1,204,241,243,-1,204,243,202,-1,202,243,224,-1,202,224,217,-1,217,224,227,-1,217,227,218,-1,218,227,229,-1,218,229,222,-1,286,287,288,-1,288,287,289,-1,287,290,289,-1,289,290,291,-1,290,292,291,-1,291,292,293,-1,294,295,296,-1,294,296,297,-1,297,296,298,-1,297,298,299,-1,299,298,300,-1,299,300,301,-1,301,300,302,-1,301,302,303,-1,303,302,304,-1,303,304,305,-1,305,304,306,-1,305,306,307,-1,307,306,308,-1,307,308,309,-1,309,308,293,-1,309,293,292,-1,286,288,310,-1,286,310,311,-1,311,310,312,-1,311,312,313,-1,313,312,314,-1,313,314,315,-1,315,314,316,-1,315,316,317,-1,317,316,318,-1,317,318,319,-1,319,318,320,-1,319,320,321,-1,321,320,295,-1,321,295,294,-1,299,301,322,-1,322,301,303,-1,322,303,323,-1,323,303,305,-1,323,305,324,-1,324,305,307,-1,324,307,325,-1,325,307,309,-1,325,309,326,-1,326,309,292,-1,326,292,327,-1,327,292,290,-1,327,290,328,-1,328,290,287,-1,328,287,329,-1,329,287,286,-1,329,286,330,-1,330,286,311,-1,330,311,331,-1,331,311,313,-1,331,313,332,-1,332,313,315,-1,332,315,333,-1,333,315,317,-1,333,317,334,-1,334,317,319,-1,334,319,335,-1,335,319,321,-1,335,321,336,-1,336,321,294,-1,336,294,337,-1,337,294,297,-1,337,297,338,-1,338,297,299,-1,338,299,322,-1,326,327,339,-1,339,327,340,-1,326,339,341,-1,326,341,325,-1,325,341,342,-1,325,342,324,-1,324,342,343,-1,324,343,323,-1,323,343,344,-1,323,344,322,-1,322,344,345,-1,322,345,338,-1,338,345,346,-1,338,346,337,-1,337,346,347,-1,337,347,336,-1,336,347,348,-1,336,348,335,-1,335,348,349,-1,335,349,334,-1,334,349,350,-1,334,350,333,-1,333,350,351,-1,333,351,332,-1,332,351,352,-1,332,352,331,-1,331,352,353,-1,331,353,330,-1,330,353,354,-1,330,354,329,-1,328,329,355,-1,355,329,354,-1,327,328,340,-1,340,328,355,-1,356,357,358,-1,358,357,359,-1,360,361,362,-1,360,362,363,-1,363,362,364,-1,363,364,365,-1,365,364,359,-1,365,359,357,-1,366,367,368,-1,366,368,369,-1,369,368,370,-1,369,370,371,-1,371,370,372,-1,371,372,373,-1,373,372,374,-1,373,374,375,-1,375,374,376,-1,375,376,377,-1,377,376,378,-1,377,378,379,-1,379,378,361,-1,379,361,360,-1,380,381,382,-1,380,382,383,-1,383,382,384,-1,383,384,385,-1,385,384,386,-1,385,386,387,-1,387,386,388,-1,387,388,389,-1,389,388,390,-1,389,390,391,-1,391,390,367,-1,391,367,366,-1,392,393,394,-1,392,394,395,-1,395,394,396,-1,395,396,397,-1,397,396,398,-1,397,398,399,-1,399,398,400,-1,399,400,401,-1,401,400,381,-1,401,381,380,-1,402,403,404,-1,404,403,405,-1,405,406,404,-1,404,406,407,-1,404,407,408,-1,408,407,409,-1,408,409,410,-1,410,409,411,-1,410,411,412,-1,412,411,413,-1,412,413,414,-1,414,413,415,-1,414,415,416,-1,416,415,393,-1,416,393,392,-1,403,402,417,-1,418,419,420,-1,418,420,417,-1,417,420,421,-1,417,421,403,-1,418,422,419,-1,419,422,423,-1,424,425,426,-1,424,426,427,-1,427,426,428,-1,427,428,429,-1,429,428,423,-1,429,423,422,-1,430,431,432,-1,430,432,433,-1,433,432,434,-1,433,434,435,-1,435,434,436,-1,435,436,437,-1,437,436,438,-1,437,438,439,-1,439,438,440,-1,439,440,441,-1,441,440,442,-1,441,442,443,-1,443,442,425,-1,443,425,424,-1,444,445,446,-1,444,446,447,-1,447,446,448,-1,447,448,449,-1,449,448,450,-1,449,450,451,-1,451,450,452,-1,451,452,453,-1,453,452,454,-1,453,454,455,-1,455,454,431,-1,455,431,430,-1,456,457,458,-1,456,458,459,-1,459,458,460,-1,459,460,461,-1,461,460,462,-1,461,462,463,-1,463,462,464,-1,463,464,465,-1,465,464,445,-1,465,445,444,-1,466,467,468,-1,468,467,469,-1,469,470,468,-1,468,470,471,-1,468,471,472,-1,472,471,473,-1,472,473,474,-1,474,473,475,-1,474,475,476,-1,476,475,477,-1,476,477,478,-1,478,477,479,-1,478,479,480,-1,480,479,457,-1,480,457,456,-1,356,358,481,-1,356,481,482,-1,482,481,483,-1,482,483,484,-1,484,483,466,-1,466,483,485,-1,466,485,467,-1,357,356,365,-1,365,356,482,-1,365,482,363,-1,363,482,484,-1,363,484,360,-1,360,484,466,-1,360,466,379,-1,379,466,468,-1,379,468,377,-1,377,468,472,-1,377,472,375,-1,375,472,474,-1,375,474,373,-1,373,474,476,-1,373,476,371,-1,371,476,478,-1,371,478,369,-1,369,478,480,-1,369,480,366,-1,366,480,456,-1,366,456,391,-1,391,456,459,-1,391,459,389,-1,389,459,461,-1,389,461,387,-1,387,461,463,-1,387,463,385,-1,385,463,465,-1,385,465,383,-1,383,465,444,-1,383,444,380,-1,380,444,447,-1,380,447,401,-1,401,447,449,-1,401,449,399,-1,399,449,451,-1,399,451,397,-1,397,451,453,-1,397,453,395,-1,395,453,455,-1,395,455,392,-1,392,455,430,-1,392,430,416,-1,416,430,433,-1,416,433,414,-1,414,433,435,-1,414,435,412,-1,412,435,437,-1,412,437,410,-1,410,437,439,-1,410,439,408,-1,408,439,441,-1,408,441,404,-1,404,441,443,-1,404,443,402,-1,402,443,424,-1,402,424,417,-1,417,424,427,-1,417,427,418,-1,418,427,429,-1,418,429,422,-1,486,487,488,-1,488,487,489,-1,487,490,489,-1,489,490,491,-1,490,492,491,-1,491,492,493,-1,492,494,493,-1,493,494,495,-1,494,496,495,-1,495,496,497,-1,496,498,497,-1,497,498,499,-1,498,500,499,-1,499,500,501,-1,500,486,501,-1,501,486,488,-1,486,500,496,-1,496,500,498,-1,487,486,490,-1,490,486,496,-1,490,496,492,-1,492,496,494,-1,502,503,504,-1,504,503,505,-1,503,506,505,-1,505,506,507,-1,506,508,507,-1,507,508,509,-1,508,502,509,-1,509,502,504,-1,508,506,502,-1,502,506,503,-1,510,511,512,-1,512,511,513,-1,513,511,514,-1,515,516,517,-1,517,516,518,-1,517,518,514,-1,514,518,519,-1,514,519,513,-1,520,521,522,-1,520,522,523,-1,523,522,524,-1,523,524,525,-1,525,524,526,-1,525,526,527,-1,527,526,528,-1,527,528,529,-1,529,528,530,-1,529,530,531,-1,531,530,532,-1,531,532,533,-1,533,532,517,-1,517,532,534,-1,517,534,515,-1,535,536,537,-1,537,536,538,-1,537,538,539,-1,535,540,536,-1,536,540,541,-1,536,541,542,-1,542,541,543,-1,542,543,544,-1,544,543,545,-1,544,545,546,-1,546,545,547,-1,546,547,548,-1,548,547,549,-1,548,549,550,-1,550,549,521,-1,550,521,520,-1,539,538,551,-1,551,538,552,-1,551,552,553,-1,553,552,554,-1,553,554,555,-1,554,556,555,-1,555,556,557,-1,558,559,560,-1,558,560,561,-1,561,560,562,-1,561,562,563,-1,563,562,557,-1,563,557,556,-1,559,558,564,-1,564,558,565,-1,564,565,566,-1,566,565,567,-1,566,567,568,-1,568,567,569,-1,568,569,570,-1,570,569,571,-1,570,571,572,-1,572,571,573,-1,572,573,574,-1,574,573,575,-1,574,575,576,-1,576,575,577,-1,576,577,578,-1,579,580,581,-1,579,581,582,-1,581,583,582,-1,582,583,584,-1,582,584,585,-1,585,584,586,-1,585,586,587,-1,587,586,588,-1,587,588,589,-1,589,588,590,-1,589,590,591,-1,591,590,592,-1,591,592,593,-1,593,592,578,-1,593,578,577,-1,594,595,596,-1,594,596,597,-1,597,596,598,-1,597,598,599,-1,599,598,580,-1,599,580,579,-1,594,600,595,-1,595,600,601,-1,601,600,602,-1,602,600,603,-1,602,603,604,-1,603,605,604,-1,604,605,606,-1,510,512,605,-1,605,512,607,-1,605,607,606,-1,605,603,510,-1,510,603,600,-1,510,600,511,-1,511,600,594,-1,511,594,514,-1,556,554,563,-1,563,554,552,-1,563,552,561,-1,561,552,538,-1,594,597,514,-1,514,597,599,-1,514,599,517,-1,517,599,579,-1,517,579,533,-1,533,579,582,-1,533,582,531,-1,531,582,585,-1,531,585,529,-1,529,585,587,-1,529,587,527,-1,527,587,589,-1,527,589,525,-1,525,589,591,-1,525,591,523,-1,523,591,593,-1,523,593,520,-1,520,593,577,-1,520,577,550,-1,550,577,575,-1,550,575,548,-1,548,575,573,-1,548,573,546,-1,546,573,571,-1,546,571,544,-1,544,571,569,-1,544,569,542,-1,542,569,567,-1,542,567,536,-1,536,567,565,-1,536,565,538,-1,538,565,558,-1,538,558,561,-1,608,609,610,-1,610,609,611,-1,609,612,611,-1,611,612,613,-1,612,614,613,-1,613,614,615,-1,614,616,615,-1,615,616,617,-1,616,618,617,-1,617,618,619,-1,620,621,622,-1,620,622,623,-1,623,622,624,-1,623,624,625,-1,625,624,626,-1,625,626,627,-1,627,626,628,-1,627,628,629,-1,629,628,630,-1,629,630,631,-1,631,630,632,-1,631,632,633,-1,633,632,634,-1,633,634,635,-1,635,634,619,-1,635,619,618,-1,608,610,636,-1,608,636,637,-1,637,636,638,-1,637,638,639,-1,639,638,640,-1,639,640,641,-1,641,640,642,-1,641,642,643,-1,643,642,644,-1,643,644,645,-1,645,644,646,-1,645,646,647,-1,647,646,621,-1,647,621,620,-1,648,649,609,-1,609,649,650,-1,609,650,651,-1,612,609,614,-1,614,609,651,-1,614,651,616,-1,616,651,652,-1,616,652,618,-1,648,609,653,-1,653,609,608,-1,653,608,637,-1,637,639,653,-1,653,639,641,-1,653,641,654,-1,654,641,643,-1,654,643,655,-1,655,643,645,-1,655,645,656,-1,656,645,647,-1,656,647,657,-1,657,647,620,-1,657,620,658,-1,658,620,623,-1,658,623,659,-1,659,623,625,-1,659,625,660,-1,660,625,627,-1,660,627,661,-1,661,627,629,-1,661,629,662,-1,662,629,631,-1,662,631,663,-1,663,631,633,-1,663,633,664,-1,664,633,635,-1,664,635,665,-1,665,635,618,-1,665,618,666,-1,666,618,652,-1,666,652,667,-1,667,652,668,-1,666,667,669,-1,666,669,665,-1,665,669,670,-1,665,670,664,-1,664,670,671,-1,664,671,663,-1,663,671,672,-1,663,672,662,-1,662,672,673,-1,662,673,661,-1,661,673,674,-1,661,674,660,-1,660,674,675,-1,660,675,659,-1,659,675,676,-1,659,676,658,-1,658,676,677,-1,658,677,657,-1,657,677,678,-1,657,678,656,-1,656,678,679,-1,656,679,655,-1,655,679,680,-1,655,680,654,-1,654,680,681,-1,654,681,653,-1,653,681,682,-1,653,682,648,-1,648,682,683,-1,648,683,649,-1,649,683,684,-1,649,684,650,-1,651,650,685,-1,685,650,684,-1,652,651,668,-1,668,651,685,-1,
        ]
    }
}
Shape{
    appearance Appearance {
        material  Material 	{
            diffuseColor 0.25098039215686274 0.25098039215686274 0.25098039215686274
            specularColor 0.12549019607843137 0.12549019607843137 0.12549019607843137
            ambientIntensity 0.2
            transparency 0
            shininess 0.5
        }
    }
    geometry IndexedFaceSet {
        ccw TRUE
        solid FALSE
        coord DEF co Coordinate {
            point [
                0.0022 -0.4763 0.3976, 0.0062 -0.4747 0.3976, -0.0156 -0.4456 0.3976, 0.0099 -0.4722 0.3976, 0.0118 -0.4702 0.3976, -0.0128 -0.4741 0.3976, -0.009 -0.4759 0.3976, -0.017 -0.447 0.3976, -0.005 -0.4767 0.3976, -0.0028 -0.4769 0.3976, -0.0028 -0.4409 0.3976, 0.0007 -0.4411 0.3976, 0.014 -0.4669 0.3976, 0.0153 -0.454 0.3976, 0.014 -0.4505 0.3976, 0.0158 -0.4588 0.3976, 0.0117 -0.4472 0.3976, 0.0089 -0.4446 0.3976, -0.0079 -0.4415 0.3976, -0.0119 -0.443 0.3976, 0.0154 -0.463 0.3976, 0.005 -0.4423 0.3976, -0.0194 -0.4502 0.3976, -0.0194 -0.4672 0.3976, -0.0169 -0.4706 0.3976, -0.021 -0.4541 0.3976, -0.0216 -0.4588 0.3976, -0.021 -0.4635 0.3976, -0.0181 -0.2611 0.3976, -0.0231 -0.1821 0.3976, -0.032 -0.2623 0.3976, -0.0318 -0.1816 0.3976, -0.0466 -0.2609 0.3976, -0.0578 -0.2572 0.3976, 0.0116 -0.2039 0.3976, 0.0146 -0.2119 0.3976, 0.0158 -0.2224 0.3976, -0.0561 -0.1862 0.3976, -0.0646 -0.1913 0.3976, -0.0784 -0.2128 0.3976, -0.0712 -0.1977 0.3976, -0.0756 -0.2046 0.3976, -0.0753 -0.2402 0.3976, -0.0709 -0.2471 0.3976, -0.0654 -0.2526 0.3976, 0.0067 -0.1968 0.3976, -0.001 -0.19 0.3976, -0.0103 -0.1852 0.3976, -0.0454 -0.1829 0.3976, -0.0792 -0.2214 0.3976, -0.0781 -0.232 0.3976, -0.0074 -0.2581 0.3976, 0.0014 -0.2531 0.3976, 0.0076 -0.2474 0.3976, 0.0119 -0.2408 0.3976, 0.0147 -0.233 0.3976, 0.0144 0.0172 0.3976, -0.0778 0.0172 0.3976, 0.0144 -0.0002 0.3976, -0.0778 0.0004 0.3976, -0.0447 -0.0448 0.3976, -0.0305 -0.0462 0.3976, -0.0188 -0.0452 0.3976, -0.0094 -0.0424 0.3976, 0.0129 -0.0142 0.3976, -0.0766 -0.0121 0.3976, -0.0735 -0.022 0.3976, -0.0687 -0.0301 0.3976, -0.0021 -0.0384 0.3976, 0.0039 -0.0326 0.3976, 0.0095 -0.024 0.3976, -0.0621 -0.0368 0.3976, -0.0541 -0.0416 0.3976, 0.0144 0.4738 0.3976, -0.0331 0.4738 0.3976, 0.0144 0.4585 0.3976, -0.0331 0.4599 0.3976, -0.0325 0.4519 0.3976, -0.0308 0.4458 0.3976, -0.0283 0.4411 0.3976, -0.0162 0.4329 0.3976, -0.0091 0.432 0.3976, -0.0086 0.432 0.3976, 0.0143 0.4556 0.3976, -0.0026 0.4325 0.3976, 0.013 0.4469 0.3976, 0.0108 0.4416 0.3976, -0.0249 0.4373 0.3976, -0.0208 0.4346 0.3976, 0.0088 0.4387 0.3976, 0.0022 0.434 0.3976, 0.0059 0.4361 0.3976, 0.0059 0.4361 0.3976
            ]
        }
        coordIndex [
            0,1,2,-1,2,1,3,-1,2,3,4,-1,5,6,7,-1,7,6,8,-1,7,8,2,-1,2,8,9,-1,2,9,0,-1,10,4,11,-1,11,4,12,-1,13,14,15,-1,15,14,16,-1,15,16,17,-1,10,18,4,-1,4,18,19,-1,4,19,2,-1,12,20,11,-1,11,20,15,-1,11,15,21,-1,21,15,17,-1,22,23,7,-1,7,23,24,-1,7,24,5,-1,25,26,22,-1,22,26,27,-1,22,27,23,-1,28,29,30,-1,30,29,31,-1,30,31,32,-1,32,31,33,-1,34,29,35,-1,35,29,36,-1,37,38,39,-1,39,38,40,-1,39,40,41,-1,42,43,31,-1,31,43,44,-1,31,44,33,-1,34,45,29,-1,29,45,46,-1,29,46,47,-1,37,39,48,-1,48,39,49,-1,48,49,31,-1,31,49,50,-1,31,50,42,-1,28,51,29,-1,29,51,52,-1,29,52,53,-1,53,54,29,-1,29,54,55,-1,29,55,36,-1,56,57,58,-1,58,57,59,-1,60,61,58,-1,61,62,58,-1,58,62,63,-1,58,63,64,-1,59,65,58,-1,58,65,66,-1,58,66,67,-1,68,69,63,-1,63,69,70,-1,63,70,64,-1,67,71,58,-1,58,71,72,-1,58,72,60,-1,73,74,75,-1,75,74,76,-1,76,77,75,-1,75,77,78,-1,75,78,79,-1,80,81,75,-1,75,81,82,-1,75,82,83,-1,83,82,84,-1,83,84,85,-1,85,84,86,-1,79,87,75,-1,75,87,88,-1,75,88,80,-1,86,84,89,-1,89,84,90,-1,89,90,91,-1,
        ]
    }
}
Shape{
    appearance Appearance {
        material  Material 	{
            diffuseColor 1.0 1.0 1.0
            specularColor 0.8784313725490196 0.8784313725490196 0.8784313725490196
            ambientIntensity 0.2
            transparency 0
            shininess 0.5
        }
    }
    geometry IndexedFaceSet {
        ccw TRUE
        solid FALSE
        coord DEF co Coordinate {
            point [
                -0.6535 0.4528 0.0787, -0.6535 0.315 0.0787, -0.6496 0.4528 0.0787, -0.6496 0.315 0.0787, -0.6496 0.315 0.0039, -0.6535 0.315 0.0, -0.4862 0.315 0.0039, -0.4862 0.315 0.0, -0.4862 0.4528 0.0039, -0.4862 0.4528 0.0, -0.6496 0.4528 0.0039, -0.6535 0.4528 0.0, -0.4684 0.3173 0.0, -0.4684 0.3173 0.0039, -0.4518 0.3242 0.0, -0.4518 0.3242 0.0039, -0.4375 0.3351 0.0, -0.4375 0.3351 0.0039, -0.4266 0.3494 0.0, -0.4266 0.3494 0.0039, -0.4197 0.366 0.0, -0.4197 0.366 0.0039, -0.4173 0.3839 0.0, -0.4173 0.3839 0.0039, -0.4197 0.4017 0.0, -0.4197 0.4017 0.0039, -0.4266 0.4183 0.0, -0.4266 0.4183 0.0039, -0.4375 0.4326 0.0, -0.4375 0.4326 0.0039, -0.4518 0.4435 0.0, -0.4518 0.4435 0.0039, -0.4684 0.4504 0.0, -0.4684 0.4504 0.0039, -0.6535 0.1969 0.0787, -0.6535 0.0591 0.0787, -0.6496 0.1969 0.0787, -0.6496 0.0591 0.0787, -0.6496 0.0591 0.0039, -0.6535 0.0591 0.0, -0.4862 0.0591 0.0039, -0.4862 0.0591 0.0, -0.4862 0.1969 0.0039, -0.4862 0.1969 0.0, -0.6496 0.1969 0.0039, -0.6535 0.1969 0.0, -0.4684 0.0614 0.0, -0.4684 0.0614 0.0039, -0.4518 0.0683 0.0, -0.4518 0.0683 0.0039, -0.4375 0.0792 0.0, -0.4375 0.0792 0.0039, -0.4266 0.0935 0.0, -0.4266 0.0935 0.0039, -0.4197 0.1101 0.0, -0.4197 0.1101 0.0039, -0.4173 0.128 0.0, -0.4173 0.128 0.0039, -0.4197 0.1458 0.0, -0.4197 0.1458 0.0039, -0.4266 0.1624 0.0, -0.4266 0.1624 0.0039, -0.4375 0.1767 0.0, -0.4375 0.1767 0.0039, -0.4518 0.1876 0.0, -0.4518 0.1876 0.0039, -0.4684 0.1945 0.0, -0.4684 0.1945 0.0039, -0.6535 -0.0591 0.0787, -0.6535 -0.1969 0.0787, -0.6496 -0.0591 0.0787, -0.6496 -0.1969 0.0787, -0.6496 -0.1969 0.0039, -0.6535 -0.1969 0.0, -0.4862 -0.1969 0.0039, -0.4862 -0.1969 0.0, -0.4862 -0.0591 0.0039, -0.4862 -0.0591 0.0, -0.6496 -0.0591 0.0039, -0.6535 -0.0591 0.0, -0.4684 -0.1945 0.0, -0.4684 -0.1945 0.0039, -0.4518 -0.1876 0.0, -0.4518 -0.1876 0.0039, -0.4375 -0.1767 0.0, -0.4375 -0.1767 0.0039, -0.4266 -0.1624 0.0, -0.4266 -0.1624 0.0039, -0.4197 -0.1458 0.0, -0.4197 -0.1458 0.0039, -0.4173 -0.128 0.0, -0.4173 -0.128 0.0039, -0.4197 -0.1101 0.0, -0.4197 -0.1101 0.0039, -0.4266 -0.0935 0.0, -0.4266 -0.0935 0.0039, -0.4375 -0.0792 0.0, -0.4375 -0.0792 0.0039, -0.4518 -0.0683 0.0, -0.4518 -0.0683 0.0039, -0.4684 -0.0614 0.0, -0.4684 -0.0614 0.0039, -0.6535 -0.315 0.0787, -0.6535 -0.4528 0.0787, -0.6496 -0.315 0.0787, -0.6496 -0.4528 0.0787, -0.6496 -0.4528 0.0039, -0.6535 -0.4528 0.0, -0.4862 -0.4528 0.0039, -0.4862 -0.4528 0.0, -0.4862 -0.315 0.0039, -0.4862 -0.315 0.0, -0.6496 -0.315 0.0039, -0.6535 -0.315 0.0, -0.4684 -0.4504 0.0, -0.4684 -0.4504 0.0039, -0.4518 -0.4435 0.0, -0.4518 -0.4435 0.0039, -0.4375 -0.4326 0.0, -0.4375 -0.4326 0.0039, -0.4266 -0.4183 0.0, -0.4266 -0.4183 0.0039, -0.4197 -0.4017 0.0, -0.4197 -0.4017 0.0039, -0.4173 -0.3839 0.0, -0.4173 -0.3839 0.0039, -0.4197 -0.366 0.0, -0.4197 -0.366 0.0039, -0.4266 -0.3494 0.0, -0.4266 -0.3494 0.0039, -0.4375 -0.3351 0.0, -0.4375 -0.3351 0.0039, -0.4518 -0.3242 0.0, -0.4518 -0.3242 0.0039, -0.4684 -0.3173 0.0, -0.4684 -0.3173 0.0039, 0.6535 0.315 0.0787, 0.6535 0.4528 0.0787, 0.6496 0.315 0.0787, 0.6496 0.4528 0.0787, 0.6535 0.4528 0.0, 0.6535 0.315 0.0, 0.6496 0.4528 0.0039, -0.1866 0.4528 0.0039, -0.1866 0.4528 0.0, 0.4862 0.315 0.0039, 0.4862 0.315 0.0, 0.6496 0.315 0.0039, 0.6535 0.0591 0.0787, 0.6535 0.1969 0.0787, 0.6496 0.0591 0.0787, 0.6496 0.1969 0.0787, 0.6535 0.1969 0.0, 0.6535 0.0591 0.0, 0.6496 0.1969 0.0039, 0.4862 0.1969 0.0039, 0.4862 0.1969 0.0, 0.4862 0.0591 0.0039, 0.4862 0.0591 0.0, 0.6496 0.0591 0.0039, 0.6535 -0.1969 0.0787, 0.6535 -0.0591 0.0787, 0.6496 -0.1969 0.0787, 0.6496 -0.0591 0.0787, 0.6535 -0.0591 0.0, 0.6535 -0.1969 0.0, 0.6496 -0.0591 0.0039, 0.4862 -0.0591 0.0039, 0.4862 -0.0591 0.0, 0.4862 -0.1969 0.0039, 0.4862 -0.1969 0.0, 0.6496 -0.1969 0.0039, 0.6535 -0.4528 0.0787, 0.6535 -0.315 0.0787, 0.6496 -0.4528 0.0787, 0.6496 -0.315 0.0787, 0.6535 -0.315 0.0, 0.6535 -0.4528 0.0, 0.6496 -0.315 0.0039, 0.4862 -0.315 0.0039, 0.4862 -0.315 0.0, -0.1866 -0.4528 0.0039, -0.1866 -0.4528 0.0, 0.6496 -0.4528 0.0039, 0.6496 -0.4528 0.0039
            ]
        }
        coordIndex [
            0,1,2,-1,2,1,3,-1,3,1,4,-1,4,1,5,-1,4,5,6,-1,6,5,7,-1,8,9,10,-1,10,9,11,-1,10,11,2,-1,2,11,0,-1,1,0,5,-1,5,0,11,-1,6,7,12,-1,6,12,13,-1,13,12,14,-1,13,14,15,-1,15,14,16,-1,15,16,17,-1,17,16,18,-1,17,18,19,-1,19,18,20,-1,19,20,21,-1,21,20,22,-1,21,22,23,-1,23,22,24,-1,23,24,25,-1,25,24,26,-1,25,26,27,-1,27,26,28,-1,27,28,29,-1,29,28,30,-1,29,30,31,-1,31,30,32,-1,31,32,33,-1,33,32,9,-1,33,9,8,-1,7,5,11,-1,11,9,7,-1,7,9,32,-1,7,32,30,-1,30,28,7,-1,7,28,26,-1,7,26,24,-1,22,20,18,-1,18,16,22,-1,22,16,14,-1,22,14,24,-1,24,14,12,-1,24,12,7,-1,34,35,36,-1,36,35,37,-1,37,35,38,-1,38,35,39,-1,38,39,40,-1,40,39,41,-1,42,43,44,-1,44,43,45,-1,44,45,36,-1,36,45,34,-1,35,34,39,-1,39,34,45,-1,40,41,46,-1,40,46,47,-1,47,46,48,-1,47,48,49,-1,49,48,50,-1,49,50,51,-1,51,50,52,-1,51,52,53,-1,53,52,54,-1,53,54,55,-1,55,54,56,-1,55,56,57,-1,57,56,58,-1,57,58,59,-1,59,58,60,-1,59,60,61,-1,61,60,62,-1,61,62,63,-1,63,62,64,-1,63,64,65,-1,65,64,66,-1,65,66,67,-1,67,66,43,-1,67,43,42,-1,46,41,66,-1,39,45,41,-1,41,45,43,-1,41,43,66,-1,56,54,66,-1,66,54,52,-1,66,64,62,-1,52,50,66,-1,66,50,48,-1,66,48,46,-1,62,60,66,-1,66,60,58,-1,66,58,56,-1,68,69,70,-1,70,69,71,-1,71,69,72,-1,72,69,73,-1,72,73,74,-1,74,73,75,-1,76,77,78,-1,78,77,79,-1,78,79,70,-1,70,79,68,-1,69,68,73,-1,73,68,79,-1,74,75,80,-1,74,80,81,-1,81,80,82,-1,81,82,83,-1,83,82,84,-1,83,84,85,-1,85,84,86,-1,85,86,87,-1,87,86,88,-1,87,88,89,-1,89,88,90,-1,89,90,91,-1,91,90,92,-1,91,92,93,-1,93,92,94,-1,93,94,95,-1,95,94,96,-1,95,96,97,-1,97,96,98,-1,97,98,99,-1,99,98,100,-1,99,100,101,-1,101,100,77,-1,101,77,76,-1,73,79,75,-1,75,79,77,-1,75,77,80,-1,96,94,92,-1,90,88,77,-1,77,88,86,-1,96,92,98,-1,86,84,77,-1,77,84,82,-1,77,82,80,-1,90,77,92,-1,92,77,100,-1,92,100,98,-1,102,103,104,-1,104,103,105,-1,105,103,106,-1,106,103,107,-1,106,107,108,-1,108,107,109,-1,110,111,112,-1,112,111,113,-1,112,113,104,-1,104,113,102,-1,103,102,107,-1,107,102,113,-1,108,109,114,-1,108,114,115,-1,115,114,116,-1,115,116,117,-1,117,116,118,-1,117,118,119,-1,119,118,120,-1,119,120,121,-1,121,120,122,-1,121,122,123,-1,123,122,124,-1,123,124,125,-1,125,124,126,-1,125,126,127,-1,127,126,128,-1,127,128,129,-1,129,128,130,-1,129,130,131,-1,131,130,132,-1,131,132,133,-1,133,132,134,-1,133,134,135,-1,135,134,111,-1,135,111,110,-1,107,113,109,-1,109,113,111,-1,124,122,134,-1,134,132,130,-1,134,122,111,-1,111,122,120,-1,111,120,118,-1,118,116,111,-1,111,116,114,-1,111,114,109,-1,130,128,134,-1,134,128,126,-1,134,126,124,-1,136,137,138,-1,138,137,139,-1,137,136,140,-1,140,136,141,-1,139,137,142,-1,142,137,140,-1,142,140,143,-1,143,140,144,-1,145,146,147,-1,147,146,141,-1,147,141,138,-1,138,141,136,-1,148,149,150,-1,150,149,151,-1,149,148,152,-1,152,148,153,-1,151,149,154,-1,154,149,152,-1,154,152,155,-1,155,152,156,-1,157,158,159,-1,159,158,153,-1,159,153,150,-1,150,153,148,-1,160,161,162,-1,162,161,163,-1,161,160,164,-1,164,160,165,-1,163,161,166,-1,166,161,164,-1,166,164,167,-1,167,164,168,-1,169,170,171,-1,171,170,165,-1,171,165,162,-1,162,165,160,-1,172,173,174,-1,174,173,175,-1,173,172,176,-1,176,172,177,-1,175,173,178,-1,178,173,176,-1,178,176,179,-1,179,176,180,-1,181,182,183,-1,183,182,177,-1,183,177,174,-1,174,177,172,-1,155,156,145,-1,145,156,146,-1,167,168,157,-1,157,168,158,-1,179,180,169,-1,169,180,170,-1,144,182,143,-1,143,182,181,-1,
        ]
    }
}
Shape{
    appearance Appearance {
        material  Material 	{
            diffuseColor 0.25098039215686274 0.25098039215686274 0.25098039215686274
            specularColor 0.12549019607843137 0.12549019607843137 0.12549019607843137
            ambientIntensity 0.2
            transparency 0
            shininess 0.5
        }
    }
    geometry IndexedFaceSet {
        ccw TRUE
        solid FALSE
        coord DEF co Coordinate {
            point [
                0.0323 0.1295 0.0039, -0.0465 0.1602 0.0039, 0.0323 0.1295 0.0, -0.0465 0.1602 0.0, -0.0465 0.1487 0.0039, -0.0465 0.1487 0.0, -0.0244 0.1408 0.0039, -0.0244 0.1408 0.0, -0.0244 0.1082 0.0039, -0.0244 0.1082 0.0, -0.0465 0.1007 0.0039, -0.0465 0.1007 0.0, -0.0465 0.0892 0.0039, -0.0465 0.0892 0.0, 0.0323 0.119 0.0039, 0.0323 0.119 0.0, -0.0157 0.1109 0.0039, 0.0172 0.1226 0.0039, 0.0199 0.1234 0.0039, 0.0227 0.1239 0.0039, 0.0227 0.1241 0.0039, 0.0199 0.1247 0.0039, -0.0157 0.1372 0.0039, 0.0172 0.1254 0.0039, -0.0157 0.1109 0.0, -0.0157 0.1372 0.0, 0.0172 0.1226 0.0, 0.0199 0.1234 0.0, 0.0227 0.1239 0.0, 0.0227 0.1241 0.0, 0.0199 0.1247 0.0, 0.0172 0.1254 0.0, -0.0465 0.0415 0.0039, -0.0465 0.0201 0.0039, -0.0465 0.0415 0.0, -0.0465 0.0201 0.0, 0.0323 0.0201 0.0039, 0.0323 0.0201 0.0, 0.0323 0.0423 0.0039, 0.0323 0.0423 0.0, -0.0061 0.0834 0.0039, -0.0061 0.0834 0.0, -0.0022 0.0833 0.0, -0.0022 0.0833 0.0039, 0.006 0.0818 0.0, 0.006 0.0818 0.0039, 0.0136 0.0785 0.0, 0.0136 0.0785 0.0039, 0.0199 0.0737 0.0, 0.0199 0.0737 0.0039, 0.0228 0.0707 0.0, 0.0228 0.0707 0.0039, 0.0278 0.0629 0.0, 0.0278 0.0629 0.0039, 0.0311 0.0536 0.0, 0.0311 0.0536 0.0039, -0.0456 0.0512 0.0, -0.0456 0.0512 0.0039, -0.0429 0.0603 0.0, -0.0429 0.0603 0.0039, -0.0381 0.0685 0.0, -0.0381 0.0685 0.0039, -0.0319 0.075 0.0, -0.0319 0.075 0.0039, -0.0249 0.0795 0.0, -0.0249 0.0795 0.0039, -0.0166 0.0823 0.0, -0.0166 0.0823 0.0039, -0.0063 0.0729 0.0039, 0.0015 0.0722 0.0039, 0.0077 0.0704 0.0039, 0.0126 0.0676 0.0039, 0.0166 0.0638 0.0039, 0.0204 0.0581 0.0039, 0.0226 0.0516 0.0039, 0.0236 0.0422 0.0039, 0.0236 0.0306 0.0039, -0.0378 0.0306 0.0039, -0.0378 0.0418 0.0039, -0.0371 0.0501 0.0039, -0.035 0.0567 0.0039, -0.0318 0.062 0.0039, -0.0275 0.0664 0.0039, -0.0221 0.0698 0.0039, -0.0159 0.0719 0.0039, 0.0236 0.0422 0.0, 0.0236 0.0306 0.0, 0.0226 0.0516 0.0, 0.0204 0.0581 0.0, 0.0166 0.0638 0.0, 0.0126 0.0676 0.0, 0.0077 0.0704 0.0, 0.0015 0.0722 0.0, -0.0063 0.0729 0.0, -0.0159 0.0719 0.0, -0.0221 0.0698 0.0, -0.0275 0.0664 0.0, -0.0318 0.062 0.0, -0.035 0.0567 0.0, -0.0371 0.0501 0.0, -0.0378 0.0418 0.0, -0.0378 0.0306 0.0, -0.0378 0.0047 0.0039, -0.0465 0.0047 0.0039, -0.0378 0.0047 0.0, -0.0465 0.0047 0.0, -0.0465 -0.0376 0.0039, -0.0465 -0.0376 0.0, 0.0323 -0.0376 0.0039, 0.0323 -0.0376 0.0, 0.0323 0.0028 0.0039, 0.0323 0.0028 0.0, 0.0236 0.0028 0.0039, 0.0236 0.0028 0.0, 0.0236 -0.027 0.0039, 0.0236 -0.027 0.0, -0.0023 -0.027 0.0039, -0.0023 -0.027 0.0, -0.0023 0.0008 0.0039, -0.0023 0.0008 0.0, -0.0109 0.0008 0.0039, -0.0109 0.0008 0.0, -0.0109 -0.027 0.0039, -0.0109 -0.027 0.0, -0.0378 -0.027 0.0039, -0.0378 -0.027 0.0, -0.0337 -0.0529 0.0039, -0.0424 -0.0529 0.0039, -0.0337 -0.0529 0.0, -0.0424 -0.0529 0.0, -0.0474 -0.0746 0.0039, -0.0474 -0.0746 0.0, -0.0474 -0.0724 0.0, -0.0474 -0.0724 0.0039, -0.0458 -0.0613 0.0, -0.0458 -0.0613 0.0039, -0.0086 -0.1115 0.0039, -0.0086 -0.1115 0.0, -0.0175 -0.1108 0.0, -0.0175 -0.1108 0.0039, -0.0259 -0.1084 0.0, -0.0259 -0.1084 0.0039, -0.0334 -0.1043 0.0, -0.0334 -0.1043 0.0039, -0.0396 -0.0984 0.0, -0.0396 -0.0984 0.0039, -0.0438 -0.092 0.0, -0.0438 -0.092 0.0039, -0.0464 -0.0843 0.0, -0.0464 -0.0843 0.0039, 0.0332 -0.0715 0.0039, 0.0332 -0.0715 0.0, 0.0325 -0.0799 0.0039, 0.0328 -0.0769 0.0, 0.0325 -0.0799 0.0, 0.0299 -0.0885 0.0, 0.0299 -0.0885 0.0039, 0.0255 -0.0959 0.0, 0.0255 -0.0959 0.0039, 0.0189 -0.1027 0.0, 0.0189 -0.1027 0.0039, 0.0115 -0.1073 0.0, 0.0115 -0.1073 0.0039, 0.0026 -0.1104 0.0, 0.0026 -0.1104 0.0039, 0.0328 -0.0645 0.0, 0.0326 -0.062 0.0039, 0.0326 -0.062 0.0, 0.0301 -0.0529 0.0039, 0.0301 -0.0529 0.0, 0.0196 -0.0529 0.0039, 0.0196 -0.0529 0.0, 0.0246 -0.0714 0.0039, 0.0246 -0.0714 0.0, 0.0234 -0.0618 0.0, 0.0234 -0.0618 0.0039, -0.0079 -0.1009 0.0039, -0.0079 -0.1009 0.0, -0.002 -0.1006 0.0, -0.002 -0.1006 0.0039, 0.0065 -0.0985 0.0, 0.0065 -0.0985 0.0039, 0.0126 -0.0953 0.0, 0.0126 -0.0953 0.0039, 0.0179 -0.0906 0.0, 0.0179 -0.0906 0.0039, 0.0216 -0.085 0.0, 0.0216 -0.085 0.0039, 0.0237 -0.0791 0.0, 0.0237 -0.0791 0.0039, -0.0388 -0.0731 0.0039, -0.0388 -0.0731 0.0, -0.038 -0.0804 0.0, -0.038 -0.0804 0.0039, -0.0358 -0.0862 0.0, -0.0358 -0.0862 0.0039, -0.0326 -0.0911 0.0, -0.0326 -0.0911 0.0039, -0.0287 -0.0947 0.0, -0.0287 -0.0947 0.0039, -0.0232 -0.098 0.0, -0.0232 -0.098 0.0039, -0.0165 -0.1001 0.0, -0.0165 -0.1001 0.0039, -0.0345 -0.0543 0.0, -0.0345 -0.0543 0.0039, -0.0376 -0.0627 0.0, -0.0376 -0.0627 0.0039, -0.0378 -0.1182 0.0039, -0.0465 -0.1182 0.0039, -0.0378 -0.1182 0.0, -0.0465 -0.1182 0.0, -0.0465 -0.1586 0.0039, -0.0465 -0.1586 0.0, 0.0323 -0.1586 0.0039, 0.0323 -0.1586 0.0, 0.0323 -0.148 0.0039, 0.0323 -0.148 0.0, -0.0378 -0.148 0.0039, -0.0378 -0.148 0.0, -0.0378 -0.148 0.0
            ]
        }
        coordIndex [
            0,1,2,-1,2,1,3,-1,1,4,3,-1,3,4,5,-1,4,6,5,-1,5,6,7,-1,6,8,7,-1,7,8,9,-1,8,10,9,-1,9,10,11,-1,10,12,11,-1,11,12,13,-1,12,14,13,-1,13,14,15,-1,14,0,15,-1,15,0,2,-1,16,17,14,-1,12,10,8,-1,17,18,14,-1,14,18,19,-1,14,19,0,-1,0,19,20,-1,0,20,21,-1,14,12,16,-1,16,12,8,-1,16,8,22,-1,22,8,6,-1,21,23,0,-1,0,23,22,-1,0,22,1,-1,1,22,6,-1,1,6,4,-1,16,22,24,-1,24,22,25,-1,17,16,26,-1,26,16,24,-1,17,26,27,-1,17,27,18,-1,18,27,28,-1,18,28,19,-1,20,19,29,-1,29,19,28,-1,20,29,30,-1,20,30,21,-1,21,30,31,-1,21,31,23,-1,22,23,25,-1,25,23,31,-1,32,33,34,-1,34,33,35,-1,33,36,35,-1,35,36,37,-1,36,38,37,-1,37,38,39,-1,40,41,42,-1,40,42,43,-1,43,42,44,-1,43,44,45,-1,45,44,46,-1,45,46,47,-1,47,46,48,-1,47,48,49,-1,49,48,50,-1,49,50,51,-1,51,50,52,-1,51,52,53,-1,53,52,54,-1,53,54,55,-1,55,54,39,-1,55,39,38,-1,32,34,56,-1,32,56,57,-1,57,56,58,-1,57,58,59,-1,59,58,60,-1,59,60,61,-1,61,60,62,-1,61,62,63,-1,63,62,64,-1,63,64,65,-1,65,64,66,-1,65,66,67,-1,67,66,41,-1,67,41,40,-1,67,40,68,-1,68,40,43,-1,68,43,69,-1,69,43,45,-1,69,45,70,-1,70,45,47,-1,70,47,71,-1,71,47,49,-1,71,49,72,-1,72,49,51,-1,72,51,73,-1,73,51,53,-1,73,53,74,-1,74,53,55,-1,74,55,75,-1,75,55,38,-1,75,38,76,-1,76,38,36,-1,76,36,77,-1,77,36,33,-1,77,33,78,-1,78,33,32,-1,78,32,79,-1,79,32,57,-1,79,57,80,-1,80,57,59,-1,80,59,81,-1,81,59,61,-1,81,61,82,-1,82,61,63,-1,82,63,83,-1,83,63,65,-1,83,65,84,-1,84,65,67,-1,84,67,68,-1,75,76,85,-1,85,76,86,-1,75,85,87,-1,75,87,74,-1,74,87,88,-1,74,88,73,-1,73,88,89,-1,73,89,72,-1,72,89,90,-1,72,90,71,-1,71,90,91,-1,71,91,70,-1,70,91,92,-1,70,92,69,-1,69,92,93,-1,69,93,68,-1,68,93,94,-1,68,94,84,-1,84,94,95,-1,84,95,83,-1,83,95,96,-1,83,96,82,-1,82,96,97,-1,82,97,81,-1,81,97,98,-1,81,98,80,-1,80,98,99,-1,80,99,79,-1,79,99,100,-1,79,100,78,-1,77,78,101,-1,101,78,100,-1,76,77,86,-1,86,77,101,-1,102,103,104,-1,104,103,105,-1,103,106,105,-1,105,106,107,-1,106,108,107,-1,107,108,109,-1,108,110,109,-1,109,110,111,-1,110,112,111,-1,111,112,113,-1,112,114,113,-1,113,114,115,-1,114,116,115,-1,115,116,117,-1,116,118,117,-1,117,118,119,-1,118,120,119,-1,119,120,121,-1,120,122,121,-1,121,122,123,-1,122,124,123,-1,123,124,125,-1,124,102,125,-1,125,102,104,-1,106,103,102,-1,102,124,106,-1,106,124,122,-1,106,122,108,-1,112,110,114,-1,114,110,108,-1,114,108,116,-1,116,108,122,-1,116,122,118,-1,118,122,120,-1,126,127,128,-1,128,127,129,-1,130,131,132,-1,130,132,133,-1,133,132,134,-1,133,134,135,-1,135,134,129,-1,135,129,127,-1,136,137,138,-1,136,138,139,-1,139,138,140,-1,139,140,141,-1,141,140,142,-1,141,142,143,-1,143,142,144,-1,143,144,145,-1,145,144,146,-1,145,146,147,-1,147,146,148,-1,147,148,149,-1,149,148,131,-1,149,131,130,-1,150,151,152,-1,152,151,153,-1,153,154,152,-1,152,154,155,-1,152,155,156,-1,156,155,157,-1,156,157,158,-1,158,157,159,-1,158,159,160,-1,160,159,161,-1,160,161,162,-1,162,161,163,-1,162,163,164,-1,164,163,137,-1,164,137,136,-1,151,150,165,-1,165,150,166,-1,165,166,167,-1,167,166,168,-1,167,168,169,-1,168,170,169,-1,169,170,171,-1,172,173,174,-1,172,174,175,-1,175,174,171,-1,175,171,170,-1,176,177,178,-1,176,178,179,-1,179,178,180,-1,179,180,181,-1,181,180,182,-1,181,182,183,-1,183,182,184,-1,183,184,185,-1,185,184,186,-1,185,186,187,-1,187,186,188,-1,187,188,189,-1,189,188,173,-1,189,173,172,-1,190,191,192,-1,190,192,193,-1,193,192,194,-1,193,194,195,-1,195,194,196,-1,195,196,197,-1,197,196,198,-1,197,198,199,-1,199,198,200,-1,199,200,201,-1,201,200,202,-1,201,202,203,-1,203,202,177,-1,203,177,176,-1,126,128,204,-1,126,204,205,-1,205,204,206,-1,205,206,207,-1,207,206,191,-1,207,191,190,-1,193,130,190,-1,190,130,133,-1,190,133,207,-1,207,133,135,-1,207,135,205,-1,205,135,127,-1,205,127,126,-1,170,168,175,-1,175,168,166,-1,175,166,172,-1,172,166,150,-1,172,150,189,-1,189,150,152,-1,189,152,187,-1,187,152,156,-1,187,156,185,-1,185,156,158,-1,185,158,183,-1,183,158,160,-1,183,160,181,-1,181,160,162,-1,181,162,179,-1,179,162,164,-1,179,164,176,-1,176,164,136,-1,176,136,203,-1,203,136,139,-1,203,139,201,-1,201,139,141,-1,201,141,199,-1,199,141,143,-1,199,143,197,-1,197,143,145,-1,197,145,195,-1,195,145,147,-1,195,147,193,-1,193,147,149,-1,193,149,130,-1,208,209,210,-1,210,209,211,-1,209,212,211,-1,211,212,213,-1,212,214,213,-1,213,214,215,-1,214,216,215,-1,215,216,217,-1,216,218,217,-1,217,218,219,-1,218,208,219,-1,219,208,210,-1,216,214,218,-1,218,214,212,-1,218,212,208,-1,208,212,209,-1,
        ]
    }
}
Shape{
    appearance Appearance {
        material  Material 	{
            diffuseColor 1.0 1.0 1.0
            specularColor 0.8784313725490196 0.8784313725490196 0.8784313725490196
            ambientIntensity 0.2
            transparency 0
            shininess 0.5
        }
    }
    geometry IndexedFaceSet {
        ccw TRUE
        solid FALSE
        coord DEF co Coordinate {
            point [
                -0.0157 0.1109 0.0, -0.0157 0.1372 0.0, 0.0172 0.1226 0.0, 0.0172 0.1254 0.0, 0.0199 0.1234 0.0, 0.0199 0.1247 0.0, 0.0227 0.1239 0.0, 0.0227 0.1241 0.0, 0.0236 0.0422 0.0, 0.0236 0.0306 0.0, -0.0378 0.0306 0.0, -0.0159 0.0719 0.0, -0.0063 0.0729 0.0, -0.0221 0.0698 0.0, 0.0015 0.0722 0.0, 0.0077 0.0704 0.0, 0.0226 0.0516 0.0, -0.0378 0.0418 0.0, -0.0371 0.0501 0.0, -0.035 0.0567 0.0, 0.0126 0.0676 0.0, 0.0166 0.0638 0.0, 0.0204 0.0581 0.0, -0.0318 0.062 0.0, -0.0275 0.0664 0.0, -0.0275 0.0664 0.0
            ]
        }
        coordIndex [
            0,1,2,-1,2,1,3,-1,2,3,4,-1,4,3,5,-1,4,5,6,-1,6,5,7,-1,8,9,10,-1,11,12,8,-1,11,8,13,-1,12,14,8,-1,8,14,15,-1,8,15,16,-1,10,17,8,-1,8,17,18,-1,8,18,19,-1,20,21,15,-1,15,21,22,-1,15,22,16,-1,19,23,8,-1,8,23,24,-1,8,24,13,-1,
        ]
    }
}