#VRML V2.0 utf8
# 3D model generated by easyeda2kicad.py (https://github.com/uPesy/easyeda2kicad.py)

Shape{
    appearance Appearance {
        material  Material 	{
            diffuseColor 0.25098039215686274 0.25098039215686274 0.25098039215686274
            specularColor 0.12549019607843137 0.12549019607843137 0.12549019607843137
            ambientIntensity 0.2
            transparency 0
            shininess 0.5
        }
    }
    geometry IndexedFaceSet {
        ccw TRUE
        solid FALSE
        coord DEF co Coordinate {
            point [
                -0.0254 0.0705 -0.2205, -0.0254 0.0575 -0.2205, -0.0398 0.2848 -0.2205, -0.0283 -0.0347 -0.2205, -0.0398 -0.0484 -0.2205, -0.0283 -0.0477 -0.2205, 0.0351 -0.0477 -0.2205, 0.0582 -0.0415 -0.2205, 0.0582 -0.0286 -0.2205, 0.0351 0.0705 -0.2205, 0.0193 0.0056 -0.2205, 0.0193 -0.0347 -0.2205, -0.0225 0.0056 -0.2205, -0.0225 0.0186 -0.2205, 0.0193 0.0186 -0.2205, 0.0193 0.0575 -0.2205, 0.2166 -0.0477 -0.2205, 0.0976 -0.0484 -0.2205, 0.1561 -0.0477 -0.2205, 0.1052 -0.0476 -0.2205, 0.1167 -0.0436 -0.2205, 0.1397 0.0394 -0.2205, 0.1328 0.0505 -0.2205, 0.2008 0.0705 -0.2205, 0.0582 0.0672 -0.2205, 0.0582 0.0514 -0.2205, 0.0974 0.0576 -0.2205, 0.1063 0.0544 -0.2205, 0.0603 -0.0297 -0.2205, 0.1145 0.049 -0.2205, 0.1216 0.0411 -0.2205, 0.1302 0.0101 -0.2205, 0.129 -0.0026 -0.2205, 0.1258 -0.0128 -0.2205, 0.0995 -0.0349 -0.2205, 0.0885 -0.0361 -0.2205, 0.1081 -0.0317 -0.2205, 0.1153 -0.0268 -0.2205, 0.1209 -0.021 -0.2205, 0.0728 -0.0344 -0.2205, 0.0715 0.0571 -0.2205, 0.0858 0.0589 -0.2205, 0.1265 0.032 -0.2205, 0.1296 0.0193 -0.2205, 0.1262 -0.0376 -0.2205, 0.135 -0.0282 -0.2205, 0.1561 -0.0347 -0.2205, 0.1413 -0.017 -0.2205, 0.2008 -0.0347 -0.2205, 0.1221 0.0607 -0.2205, 0.1109 0.0671 -0.2205, 0.0977 0.0709 -0.2205, 0.1449 -0.0045 -0.2205, 0.146 0.0092 -0.2205, 0.1443 0.026 -0.2205, 0.086 0.0719 -0.2205, 0.0718 0.0709 -0.2205, 0.0827 -0.0484 -0.2205, 0.0874 -0.049 -0.2205, -0.0398 -0.2848 -0.2205, 0.0907 -0.0491 -0.2205, 0.2166 0.0705 -0.2205, 0.4994 0.2848 -0.2205, 0.4994 -0.0484 -0.2205, 0.4994 -0.2848 -0.2205, -0.4994 -0.2848 -0.2205, -0.4994 -0.0484 -0.2205, 0.0707 -0.0467 -0.2205, -0.155 -0.0477 -0.2205, -0.1405 -0.0153 -0.2205, -0.1337 -0.0258 -0.2205, -0.2443 -0.0477 -0.2205, -0.2616 -0.0477 -0.2205, -0.2155 0.0705 -0.2205, -0.4994 0.2848 -0.2205, -0.1997 0.0705 -0.2205, -0.124 -0.0351 -0.2205, -0.1117 -0.0423 -0.2205, -0.0981 -0.0464 -0.2205, -0.0834 -0.0477 -0.2205, -0.0513 -0.0477 -0.2205, -0.0513 0.0705 -0.2205, -0.0846 0.0705 -0.2205, -0.1286 0.055 -0.2205, -0.1369 0.0457 -0.2205, -0.1424 0.0356 -0.2205, -0.1017 0.0686 -0.2205, -0.1155 0.0638 -0.2205, -0.1284 0.0552 -0.2205, -0.1723 -0.0477 -0.2205, -0.1836 -0.0145 -0.2205, -0.2324 -0.0145 -0.2205, -0.1455 0.0239 -0.2205, -0.1464 0.0129 -0.2205, -0.1447 -0.0029 -0.2205, -0.4994 0.2848 0.2205, -0.4994 -0.2848 0.2205, -0.4133 0.2848 0.2205, -0.4133 -0.2848 0.2205, 0.5112 0.2848 -0.2097, 0.5295 0.3032 0.0, 0.5295 0.1201 0.0, 0.5112 -0.2848 -0.2097, 0.5295 -0.1201 0.0, 0.5295 -0.3032 -0.0, 0.5178 -0.315 0.0, -0.5178 -0.315 -0.0, 0.4994 -0.2966 -0.2097, -0.4994 -0.2966 -0.2097, -0.5112 -0.2848 -0.2097, -0.5295 -0.3032 -0.0, -0.5295 -0.1201 0.0, -0.5112 0.2848 -0.2097, -0.5295 0.1201 -0.0, -0.5295 0.3032 0.0, -0.5178 0.315 0.0, 0.5178 0.315 -0.0, -0.4994 0.2966 -0.2097, 0.4994 0.2966 -0.2097, 0.5261 0.1201 0.0394, 0.5112 0.2848 0.2097, 0.5261 -0.1201 0.0394, 0.5112 -0.2848 0.2097, -0.4994 0.2966 0.2097, 0.4994 0.2966 0.2097, -0.5261 -0.1201 0.0394, -0.5112 -0.2848 0.2097, -0.5261 0.1201 0.0394, -0.5112 0.2848 0.2097, 0.4994 -0.2966 0.2097, -0.4994 -0.2966 0.2097, 0.4994 -0.2848 0.2205, 0.4994 0.2848 0.2205, -0.3278 -0.2848 0.2205, -0.3278 0.2848 0.2205, -0.3278 0.2848 0.2205
            ]
        }
        coordIndex [
            0,1,2,-1,2,1,3,-1,2,3,4,-1,4,3,5,-1,4,5,6,-1,7,6,8,-1,8,6,9,-1,10,11,12,-1,12,11,3,-1,12,3,13,-1,13,3,1,-1,13,1,14,-1,14,1,15,-1,16,17,18,-1,18,17,19,-1,18,19,20,-1,21,22,23,-1,2,24,25,-1,26,27,28,-1,28,27,29,-1,28,29,30,-1,31,32,28,-1,28,32,33,-1,34,35,36,-1,36,35,37,-1,33,38,28,-1,28,38,37,-1,28,37,39,-1,39,37,35,-1,0,2,9,-1,9,2,25,-1,9,25,8,-1,8,25,40,-1,8,40,28,-1,28,40,41,-1,28,41,26,-1,30,42,28,-1,28,42,43,-1,28,43,31,-1,20,44,18,-1,18,44,45,-1,18,45,46,-1,46,45,47,-1,46,47,48,-1,49,50,2,-1,2,50,51,-1,47,52,48,-1,48,52,53,-1,48,53,23,-1,23,53,54,-1,23,54,21,-1,51,55,2,-1,2,55,56,-1,2,56,24,-1,57,58,59,-1,59,58,60,-1,59,60,17,-1,22,49,23,-1,23,49,2,-1,23,2,61,-1,61,2,62,-1,61,62,16,-1,16,62,63,-1,16,63,17,-1,17,63,64,-1,17,64,59,-1,65,66,59,-1,59,66,4,-1,59,4,57,-1,57,4,6,-1,57,6,67,-1,67,6,7,-1,68,69,70,-1,71,4,72,-1,72,4,66,-1,72,66,73,-1,73,66,74,-1,73,74,75,-1,75,74,2,-1,70,76,68,-1,68,76,77,-1,68,77,78,-1,79,80,4,-1,4,80,81,-1,4,81,2,-1,2,81,82,-1,83,84,75,-1,75,84,85,-1,82,86,2,-1,2,86,87,-1,2,87,75,-1,75,87,88,-1,75,88,83,-1,78,79,68,-1,68,79,4,-1,68,4,89,-1,89,4,71,-1,89,71,90,-1,90,71,91,-1,85,92,75,-1,75,92,93,-1,75,93,68,-1,68,93,94,-1,68,94,69,-1,95,96,97,-1,97,96,98,-1,99,100,101,-1,99,101,102,-1,102,101,103,-1,102,103,104,-1,105,106,107,-1,107,106,108,-1,109,110,111,-1,109,111,112,-1,112,111,113,-1,112,113,114,-1,115,116,117,-1,117,116,118,-1,101,100,119,-1,119,100,120,-1,119,120,121,-1,121,120,122,-1,121,122,103,-1,103,122,104,-1,123,124,115,-1,115,124,116,-1,111,110,125,-1,125,110,126,-1,125,126,127,-1,127,126,128,-1,127,128,113,-1,113,128,114,-1,129,130,105,-1,105,130,106,-1,131,132,133,-1,133,132,134,-1,
        ]
    }
}
Shape{
    appearance Appearance {
        material  Material 	{
            diffuseColor 1.0 1.0 1.0
            specularColor 0.5019607843137255 0.5019607843137255 0.5019607843137255
            ambientIntensity 0.2
            transparency 0
            shininess 0.5
        }
    }
    geometry IndexedFaceSet {
        ccw TRUE
        solid FALSE
        coord DEF co Coordinate {
            point [
                -0.562 0.1201 0.0394, -0.562 -0.1201 0.0394, -0.5261 0.1201 0.0394, -0.5261 -0.1201 0.0394, -0.5295 -0.1201 0.0, -0.562 -0.1201 0.0, -0.5295 0.1201 -0.0, -0.562 0.1201 0.0, -0.5726 0.1201 0.0381, -0.563 0.1201 -0.0001, -0.5825 0.1201 0.0342, -0.5639 0.1201 -0.0005, -0.5913 0.1201 0.028, -0.5647 0.1201 -0.001, -0.5982 0.1201 0.0199, -0.5653 0.1201 -0.0018, -0.6029 0.1201 0.0103, -0.5657 0.1201 -0.0026, -0.6051 0.1201 -0.0002, -0.5659 0.1201 -0.0036, -0.6208 0.1201 -0.1792, -0.5816 0.1201 -0.1827, -0.622 0.1201 -0.1849, -0.5848 0.1201 -0.1978, -0.6246 0.1201 -0.1901, -0.5917 0.1201 -0.2118, -0.6284 0.1201 -0.1946, -0.6018 0.1201 -0.2236, -0.6331 0.1201 -0.198, -0.6144 0.1201 -0.2326, -0.6386 0.1201 -0.2001, -0.6289 0.1201 -0.2382, -0.6443 0.1201 -0.2008, -0.6443 0.1201 -0.2402, -0.7244 0.1201 -0.2008, -0.7244 0.1201 -0.2402, -0.7244 -0.1201 -0.2008, -0.7244 -0.1201 -0.2402, -0.6443 -0.1201 -0.2008, -0.6443 -0.1201 -0.2402, -0.6386 -0.1201 -0.2001, -0.6289 -0.1201 -0.2382, -0.6331 -0.1201 -0.198, -0.6144 -0.1201 -0.2326, -0.6284 -0.1201 -0.1946, -0.6018 -0.1201 -0.2236, -0.6246 -0.1201 -0.1901, -0.5917 -0.1201 -0.2118, -0.622 -0.1201 -0.1849, -0.5848 -0.1201 -0.1978, -0.6208 -0.1201 -0.1792, -0.5816 -0.1201 -0.1827, -0.6051 -0.1201 -0.0002, -0.5659 -0.1201 -0.0036, -0.6029 -0.1201 0.0103, -0.5657 -0.1201 -0.0026, -0.5982 -0.1201 0.0199, -0.5653 -0.1201 -0.0018, -0.5913 -0.1201 0.028, -0.5647 -0.1201 -0.001, -0.5825 -0.1201 0.0342, -0.5639 -0.1201 -0.0005, -0.5726 -0.1201 0.0381, -0.563 -0.1201 -0.0001, 0.562 0.1201 0.0, 0.562 -0.1201 0.0, 0.5295 0.1201 0.0, 0.5295 -0.1201 0.0, 0.5261 -0.1201 0.0394, 0.562 -0.1201 0.0394, 0.5261 0.1201 0.0394, 0.562 0.1201 0.0394, 0.7244 0.1201 -0.2008, 0.7244 0.1201 -0.2402, 0.6443 0.1201 -0.2008, 0.6443 0.1201 -0.2402, 0.6386 0.1201 -0.2001, 0.6289 0.1201 -0.2382, 0.6331 0.1201 -0.198, 0.6144 0.1201 -0.2326, 0.6284 0.1201 -0.1946, 0.6018 0.1201 -0.2236, 0.6246 0.1201 -0.1901, 0.5917 0.1201 -0.2118, 0.622 0.1201 -0.1849, 0.5848 0.1201 -0.1978, 0.6208 0.1201 -0.1792, 0.5816 0.1201 -0.1827, 0.6051 0.1201 -0.0002, 0.5659 0.1201 -0.0036, 0.6029 0.1201 0.0103, 0.5657 0.1201 -0.0026, 0.5982 0.1201 0.0199, 0.5653 0.1201 -0.0018, 0.5913 0.1201 0.028, 0.5647 0.1201 -0.001, 0.5825 0.1201 0.0342, 0.5639 0.1201 -0.0005, 0.5726 0.1201 0.0381, 0.563 0.1201 -0.0001, 0.5726 -0.1201 0.0381, 0.563 -0.1201 -0.0001, 0.5825 -0.1201 0.0342, 0.5639 -0.1201 -0.0005, 0.5913 -0.1201 0.028, 0.5647 -0.1201 -0.001, 0.5982 -0.1201 0.0199, 0.5653 -0.1201 -0.0018, 0.6029 -0.1201 0.0103, 0.5657 -0.1201 -0.0026, 0.6051 -0.1201 -0.0002, 0.5659 -0.1201 -0.0036, 0.6208 -0.1201 -0.1792, 0.5816 -0.1201 -0.1827, 0.622 -0.1201 -0.1849, 0.5848 -0.1201 -0.1978, 0.6246 -0.1201 -0.1901, 0.5917 -0.1201 -0.2118, 0.6284 -0.1201 -0.1946, 0.6018 -0.1201 -0.2236, 0.6331 -0.1201 -0.198, 0.6144 -0.1201 -0.2326, 0.6386 -0.1201 -0.2001, 0.6289 -0.1201 -0.2382, 0.6443 -0.1201 -0.2008, 0.6443 -0.1201 -0.2402, 0.7244 -0.1201 -0.2008, 0.7244 -0.1201 -0.2402, 0.7244 -0.1201 -0.2402
            ]
        }
        coordIndex [
            0,1,2,-1,2,1,3,-1,4,5,6,-1,6,5,7,-1,2,6,0,-1,0,6,7,-1,0,7,8,-1,8,7,9,-1,8,9,10,-1,10,9,11,-1,10,11,12,-1,12,11,13,-1,12,13,14,-1,14,13,15,-1,14,15,16,-1,16,15,17,-1,16,17,18,-1,18,17,19,-1,18,19,20,-1,20,19,21,-1,20,21,22,-1,22,21,23,-1,22,23,24,-1,24,23,25,-1,24,25,26,-1,26,25,27,-1,26,27,28,-1,28,27,29,-1,28,29,30,-1,30,29,31,-1,30,31,32,-1,32,31,33,-1,32,33,34,-1,34,33,35,-1,36,37,38,-1,38,37,39,-1,38,39,40,-1,40,39,41,-1,40,41,42,-1,42,41,43,-1,42,43,44,-1,44,43,45,-1,44,45,46,-1,46,45,47,-1,46,47,48,-1,48,47,49,-1,48,49,50,-1,50,49,51,-1,50,51,52,-1,52,51,53,-1,52,53,54,-1,54,53,55,-1,54,55,56,-1,56,55,57,-1,56,57,58,-1,58,57,59,-1,58,59,60,-1,60,59,61,-1,60,61,62,-1,62,61,63,-1,62,63,1,-1,1,63,5,-1,1,5,3,-1,3,5,4,-1,35,33,37,-1,37,33,39,-1,34,35,36,-1,36,35,37,-1,32,34,38,-1,38,34,36,-1,32,38,30,-1,30,38,40,-1,30,40,28,-1,28,40,42,-1,28,42,26,-1,26,42,44,-1,26,44,24,-1,24,44,46,-1,24,46,22,-1,22,46,48,-1,22,48,20,-1,20,48,50,-1,18,20,52,-1,52,20,50,-1,18,52,54,-1,18,54,16,-1,16,54,56,-1,16,56,14,-1,14,56,58,-1,14,58,12,-1,12,58,60,-1,12,60,10,-1,10,60,62,-1,10,62,8,-1,8,62,1,-1,8,1,0,-1,7,5,9,-1,9,5,63,-1,9,63,11,-1,11,63,61,-1,11,61,13,-1,13,61,59,-1,13,59,15,-1,15,59,57,-1,15,57,17,-1,17,57,55,-1,17,55,19,-1,19,55,53,-1,21,19,51,-1,51,19,53,-1,21,51,49,-1,21,49,23,-1,23,49,47,-1,23,47,25,-1,25,47,45,-1,25,45,27,-1,27,45,43,-1,27,43,29,-1,29,43,41,-1,29,41,31,-1,31,41,39,-1,31,39,33,-1,64,65,66,-1,66,65,67,-1,68,69,70,-1,70,69,71,-1,72,73,74,-1,74,73,75,-1,74,75,76,-1,76,75,77,-1,76,77,78,-1,78,77,79,-1,78,79,80,-1,80,79,81,-1,80,81,82,-1,82,81,83,-1,82,83,84,-1,84,83,85,-1,84,85,86,-1,86,85,87,-1,86,87,88,-1,88,87,89,-1,88,89,90,-1,90,89,91,-1,90,91,92,-1,92,91,93,-1,92,93,94,-1,94,93,95,-1,94,95,96,-1,96,95,97,-1,96,97,98,-1,98,97,99,-1,98,99,71,-1,71,99,64,-1,71,64,70,-1,70,64,66,-1,68,67,69,-1,69,67,65,-1,69,65,100,-1,100,65,101,-1,100,101,102,-1,102,101,103,-1,102,103,104,-1,104,103,105,-1,104,105,106,-1,106,105,107,-1,106,107,108,-1,108,107,109,-1,108,109,110,-1,110,109,111,-1,110,111,112,-1,112,111,113,-1,112,113,114,-1,114,113,115,-1,114,115,116,-1,116,115,117,-1,116,117,118,-1,118,117,119,-1,118,119,120,-1,120,119,121,-1,120,121,122,-1,122,121,123,-1,122,123,124,-1,124,123,125,-1,124,125,126,-1,126,125,127,-1,75,73,125,-1,125,73,127,-1,75,125,123,-1,75,123,77,-1,77,123,121,-1,77,121,79,-1,79,121,119,-1,79,119,81,-1,81,119,117,-1,81,117,83,-1,83,117,115,-1,83,115,85,-1,85,115,113,-1,85,113,87,-1,89,87,111,-1,111,87,113,-1,89,111,91,-1,91,111,109,-1,91,109,93,-1,93,109,107,-1,93,107,95,-1,95,107,105,-1,95,105,97,-1,97,105,103,-1,97,103,99,-1,99,103,101,-1,99,101,64,-1,64,101,65,-1,71,69,100,-1,71,100,98,-1,98,100,102,-1,98,102,96,-1,96,102,104,-1,96,104,94,-1,94,104,106,-1,94,106,92,-1,92,106,108,-1,92,108,90,-1,90,108,110,-1,90,110,88,-1,86,88,112,-1,112,88,110,-1,86,112,84,-1,84,112,114,-1,84,114,82,-1,82,114,116,-1,82,116,80,-1,80,116,118,-1,80,118,78,-1,78,118,120,-1,78,120,76,-1,76,120,122,-1,76,122,74,-1,74,122,124,-1,72,74,126,-1,126,74,124,-1,73,72,127,-1,127,72,126,-1,
        ]
    }
}
Shape{
    appearance Appearance {
        material  Material 	{
            diffuseColor 0.25098039215686274 0.25098039215686274 0.25098039215686274
            specularColor 0.12549019607843137 0.12549019607843137 0.12549019607843137
            ambientIntensity 0.2
            transparency 0
            shininess 0.5
        }
    }
    geometry IndexedFaceSet {
        ccw TRUE
        solid FALSE
        coord DEF co Coordinate {
            point [
                -0.4994 -0.2877 0.2201, -0.4994 -0.2878 0.2201, -0.4133 -0.2879 0.2201, -0.4994 -0.2905 0.2191, -0.3278 -0.2879 0.2201, 0.4994 -0.2848 0.2205, -0.3278 -0.2848 0.2205, -0.3278 -0.2877 0.2201, -0.4133 -0.2877 0.2201, -0.4133 -0.2848 0.2205, -0.4994 -0.2848 0.2205, -0.4994 -0.2966 0.2097, 0.4994 -0.2966 0.2097, -0.4994 -0.296 0.2125, 0.4994 -0.296 0.2125, -0.4994 -0.296 0.2125, 0.4994 -0.296 0.2125, -0.4994 -0.2948 0.2151, 0.4994 -0.2948 0.2151, -0.4994 -0.2947 0.2151, 0.4994 -0.2947 0.2151, -0.4994 -0.2929 0.2173, 0.4994 -0.2929 0.2173, -0.4994 -0.2928 0.2174, 0.4994 -0.2928 0.2174, -0.4994 -0.2905 0.219, 0.4994 -0.2905 0.219, 0.4994 -0.2905 0.2191, 0.4994 -0.2878 0.2201, 0.4994 -0.2877 0.2201, 0.5093 -0.2848 0.2151, 0.5074 -0.2848 0.2173, 0.5072 -0.2869 0.2173, 0.5049 -0.2863 0.219, 0.5022 -0.2856 0.2201, 0.5019 -0.2863 0.2201, 0.5009 -0.2874 0.2201, 0.5015 -0.2869 0.2201, 0.5002 -0.2877 0.2201, 0.5023 -0.2848 0.2201, 0.5102 -0.2877 0.2125, 0.5108 -0.2879 0.2099, 0.5108 -0.2879 0.2099, 0.5096 -0.2907 0.2101, 0.5091 -0.2904 0.2125, 0.5096 -0.2907 0.2101, 0.5073 -0.2928 0.2125, 0.5077 -0.2931 0.2101, 0.505 -0.2945 0.2125, 0.5053 -0.295 0.2101, 0.5053 -0.295 0.2101, 0.5023 -0.2957 0.2125, 0.5025 -0.2962 0.2099, 0.5024 -0.2962 0.2099, 0.5074 -0.2848 0.2174, 0.5051 -0.2848 0.219, 0.505 -0.2848 0.2191, 0.5023 -0.2848 0.2201, 0.5043 -0.2877 0.219, 0.5034 -0.2888 0.219, 0.5022 -0.2897 0.219, 0.5009 -0.2903 0.219, 0.5064 -0.2889 0.2173, 0.5051 -0.2905 0.2173, 0.5034 -0.2918 0.2173, 0.5015 -0.2926 0.2173, 0.5106 -0.2848 0.2125, 0.5093 -0.2848 0.2151, 0.509 -0.2874 0.2151, 0.508 -0.2898 0.2151, 0.5064 -0.2919 0.2151, 0.5044 -0.2934 0.2151, 0.502 -0.2944 0.2151, 0.5106 -0.2848 0.2125, 0.5112 -0.2848 0.2097, -0.5016 -0.2945 0.2151, -0.5012 -0.2927 0.2173, -0.5007 -0.2903 0.219, -0.5001 -0.2877 0.2201, -0.5007 -0.2875 0.2201, -0.502 -0.2861 0.2201, -0.5017 -0.2867 0.2201, -0.5023 -0.2855 0.2201, -0.502 -0.2963 0.2099, -0.5019 -0.2958 0.2125, -0.5024 -0.2962 0.2099, -0.5043 -0.2949 0.2125, -0.5045 -0.2953 0.21, -0.5053 -0.295 0.2101, -0.5064 -0.2936 0.2125, -0.5067 -0.2939 0.2101, -0.5077 -0.2931 0.2101, -0.5082 -0.2918 0.2125, -0.5085 -0.2921 0.2101, -0.5096 -0.2907 0.2101, -0.5095 -0.2897 0.2125, -0.5099 -0.2899 0.21, -0.5108 -0.2879 0.2099, -0.5103 -0.2873 0.2125, -0.5108 -0.2875 0.2099, -0.5106 -0.2848 0.2125, -0.5112 -0.2848 0.2097, -0.5023 -0.2848 0.2201, -0.5029 -0.2893 0.219, -0.5038 -0.2884 0.219, -0.5045 -0.2873 0.219, -0.5049 -0.2861 0.219, -0.5019 -0.2899 0.219, -0.5012 -0.2871 0.2201, -0.5023 -0.2848 0.2201, -0.505 -0.2848 0.2191, -0.5051 -0.2848 0.219, -0.5074 -0.2848 0.2174, -0.5029 -0.2921 0.2173, -0.5044 -0.2911 0.2173, -0.5057 -0.2898 0.2173, -0.5066 -0.2883 0.2173, -0.5072 -0.2866 0.2173, -0.5037 -0.2938 0.2151, -0.5056 -0.2926 0.2151, -0.5072 -0.291 0.2151, -0.5083 -0.2891 0.2151, -0.5091 -0.2871 0.2151, -0.5074 -0.2848 0.2173, -0.5093 -0.2848 0.2151, -0.5093 -0.2848 0.2151, -0.5106 -0.2848 0.2125, 0.5295 -0.3032 -0.0, 0.5291 -0.3062 0.0, 0.5286 -0.3077 0.0, 0.528 -0.3091 0.0, 0.5271 -0.3104 0.0, 0.5261 -0.3115 0.0, 0.5249 -0.3125 0.0, 0.5237 -0.3134 0.0, 0.5223 -0.3141 0.0, 0.5208 -0.3146 0.0, 0.5178 -0.315 0.0, 0.5112 0.2848 0.2097, 0.5106 0.2848 0.2125, 0.5106 0.2848 0.2125, 0.5093 0.2848 0.2151, 0.5093 0.2848 0.2151, 0.5074 0.2848 0.2173, 0.5074 0.2848 0.2174, 0.5051 0.2848 0.219, 0.505 0.2848 0.2191, 0.5023 0.2848 0.2201, 0.5023 0.2848 0.2201, 0.4994 0.2848 0.2205, -0.3278 0.2848 0.2205, 0.4994 0.2877 0.2201, -0.3278 0.2879 0.2201, -0.4994 0.2905 0.2191, -0.4133 0.2879 0.2201, -0.4994 0.2878 0.2201, -0.4133 0.2877 0.2201, -0.4994 0.2877 0.2201, -0.4994 0.2848 0.2205, -0.4133 0.2848 0.2205, 0.4994 0.2966 0.2097, -0.4994 0.2966 0.2097, 0.4994 0.296 0.2125, -0.4994 0.296 0.2125, 0.4994 0.296 0.2125, -0.4994 0.296 0.2125, 0.4994 0.2948 0.2151, -0.4994 0.2948 0.2151, 0.4994 0.2947 0.2151, -0.4994 0.2947 0.2151, 0.4994 0.2929 0.2173, -0.4994 0.2929 0.2173, 0.4994 0.2928 0.2174, -0.4994 0.2928 0.2174, 0.4994 0.2905 0.219, -0.4994 0.2905 0.219, 0.4994 0.2905 0.2191, 0.4994 0.2878 0.2201, -0.3278 0.2877 0.2201, -0.5112 0.2848 0.2097, -0.5106 0.2848 0.2125, -0.5106 0.2848 0.2125, -0.5093 0.2848 0.2151, -0.5093 0.2848 0.2151, -0.5074 0.2848 0.2173, -0.5074 0.2848 0.2174, -0.5051 0.2848 0.219, -0.505 0.2848 0.2191, -0.5023 0.2848 0.2201, -0.5023 0.2848 0.2201, -0.5178 -0.315 -0.0, -0.5208 -0.3146 -0.0, -0.5223 -0.3141 -0.0, -0.5237 -0.3134 -0.0, -0.5249 -0.3125 -0.0, -0.5261 -0.3115 -0.0, -0.5271 -0.3104 -0.0, -0.528 -0.3091 -0.0, -0.5286 -0.3077 -0.0, -0.5291 -0.3062 -0.0, -0.5295 -0.3032 -0.0, 0.4994 -0.2966 -0.2097, 0.502 -0.2963 -0.2099, 0.5024 -0.2962 -0.2099, 0.5045 -0.2953 -0.21, 0.5053 -0.295 -0.2101, 0.5067 -0.2939 -0.2101, 0.5077 -0.2931 -0.2101, 0.5085 -0.2921 -0.2101, 0.5096 -0.2907 -0.2101, 0.5099 -0.2899 -0.21, 0.5108 -0.2879 -0.2099, 0.5108 -0.2875 -0.2099, 0.5112 -0.2848 -0.2097, 0.5016 0.2945 0.2151, 0.5012 0.2927 0.2173, 0.5007 0.2903 0.219, 0.5001 0.2877 0.2201, 0.5007 0.2875 0.2201, 0.502 0.2861 0.2201, 0.5017 0.2867 0.2201, 0.5023 0.2855 0.2201, 0.502 0.2963 0.2099, 0.5019 0.2958 0.2125, 0.5024 0.2962 0.2099, 0.5043 0.2949 0.2125, 0.5045 0.2953 0.21, 0.5053 0.295 0.2101, 0.5064 0.2936 0.2125, 0.5067 0.2939 0.2101, 0.5077 0.2931 0.2101, 0.5082 0.2918 0.2125, 0.5085 0.2921 0.2101, 0.5096 0.2907 0.2101, 0.5095 0.2897 0.2125, 0.5099 0.2899 0.21, 0.5108 0.2879 0.2099, 0.5103 0.2873 0.2125, 0.5108 0.2875 0.2099, 0.5029 0.2893 0.219, 0.5038 0.2884 0.219, 0.5045 0.2873 0.219, 0.5049 0.2861 0.219, 0.5019 0.2899 0.219, 0.5012 0.2871 0.2201, 0.5029 0.2921 0.2173, 0.5044 0.2911 0.2173, 0.5057 0.2898 0.2173, 0.5066 0.2883 0.2173, 0.5072 0.2866 0.2173, 0.5037 0.2938 0.2151, 0.5056 0.2926 0.2151, 0.5072 0.291 0.2151, 0.5083 0.2891 0.2151, 0.5091 0.2871 0.2151, -0.5072 0.2869 0.2173, -0.5049 0.2863 0.219, -0.5022 0.2856 0.2201, -0.5019 0.2863 0.2201, -0.5009 0.2874 0.2201, -0.5015 0.2869 0.2201, -0.5002 0.2877 0.2201, -0.5102 0.2877 0.2125, -0.5108 0.2879 0.2099, -0.5108 0.2879 0.2099, -0.5096 0.2907 0.2101, -0.5091 0.2904 0.2125, -0.5096 0.2907 0.2101, -0.5073 0.2928 0.2125, -0.5077 0.2931 0.2101, -0.505 0.2945 0.2125, -0.5053 0.295 0.2101, -0.5053 0.295 0.2101, -0.5023 0.2957 0.2125, -0.5025 0.2962 0.2099, -0.5024 0.2962 0.2099, -0.5043 0.2877 0.219, -0.5034 0.2888 0.219, -0.5022 0.2897 0.219, -0.5009 0.2903 0.219, -0.5064 0.2889 0.2173, -0.5051 0.2905 0.2173, -0.5034 0.2918 0.2173, -0.5015 0.2926 0.2173, -0.509 0.2874 0.2151, -0.508 0.2898 0.2151, -0.5064 0.2919 0.2151, -0.5044 0.2934 0.2151, -0.502 0.2944 0.2151, -0.5112 -0.2848 -0.2097, -0.5108 -0.2879 -0.2099, -0.5108 -0.2879 -0.2099, -0.5096 -0.2907 -0.2101, -0.5096 -0.2907 -0.2101, -0.5077 -0.2931 -0.2101, -0.5053 -0.295 -0.2101, -0.5053 -0.295 -0.2101, -0.5025 -0.2962 -0.2099, -0.5024 -0.2962 -0.2099, -0.4994 -0.2966 -0.2097, -0.0398 -0.2848 -0.2205, 0.4994 -0.2848 -0.2205, 0.4994 -0.2877 -0.2201, -0.4994 -0.2848 -0.2205, -0.4994 -0.2877 -0.2201, -0.4994 -0.2878 -0.2201, 0.4994 -0.2878 -0.2201, -0.4994 -0.2905 -0.2191, 0.4994 -0.2905 -0.2191, -0.4994 -0.2905 -0.219, 0.4994 -0.2905 -0.219, -0.4994 -0.2928 -0.2174, 0.4994 -0.2928 -0.2174, -0.4994 -0.2929 -0.2173, 0.4994 -0.2929 -0.2173, -0.4994 -0.2947 -0.2151, 0.4994 -0.2947 -0.2151, -0.4994 -0.2948 -0.2151, 0.4994 -0.2948 -0.2151, -0.4994 -0.296 -0.2125, 0.4994 -0.296 -0.2125, -0.4994 -0.296 -0.2125, 0.4994 -0.296 -0.2125, 0.5001 -0.2877 -0.2201, 0.5017 -0.2867 -0.2201, 0.5012 -0.2871 -0.2201, 0.505 -0.2848 -0.2191, 0.5051 -0.2848 -0.219, 0.5049 -0.2861 -0.219, 0.5074 -0.2848 -0.2174, 0.5074 -0.2848 -0.2173, 0.5072 -0.2866 -0.2173, 0.5091 -0.2871 -0.2151, 0.5103 -0.2873 -0.2125, 0.5095 -0.2897 -0.2125, 0.5043 -0.2949 -0.2125, 0.5019 -0.2958 -0.2125, 0.5082 -0.2918 -0.2125, 0.5106 -0.2848 -0.2125, 0.5106 -0.2848 -0.2125, 0.5093 -0.2848 -0.2151, 0.5093 -0.2848 -0.2151, 0.5016 -0.2945 -0.2151, 0.5083 -0.2891 -0.2151, 0.5012 -0.2927 -0.2173, 0.5066 -0.2883 -0.2173, 0.5072 -0.291 -0.2151, 0.5064 -0.2936 -0.2125, 0.5007 -0.2903 -0.219, 0.5056 -0.2926 -0.2151, 0.5057 -0.2898 -0.2173, 0.5045 -0.2873 -0.219, 0.5023 -0.2855 -0.2201, 0.5029 -0.2893 -0.219, 0.5037 -0.2938 -0.2151, 0.5029 -0.2921 -0.2173, 0.5019 -0.2899 -0.219, 0.5007 -0.2875 -0.2201, 0.5023 -0.2848 -0.2201, 0.5023 -0.2848 -0.2201, 0.5044 -0.2911 -0.2173, 0.5038 -0.2884 -0.219, 0.502 -0.2861 -0.2201, 0.5178 0.315 -0.0, 0.5208 0.3146 -0.0, 0.5223 0.3141 -0.0, 0.5237 0.3134 -0.0, 0.5249 0.3125 -0.0, 0.5261 0.3115 -0.0, 0.5271 0.3104 -0.0, 0.528 0.3091 -0.0, 0.5286 0.3077 -0.0, 0.5291 0.3062 -0.0, 0.5295 0.3032 0.0, -0.5295 0.3032 0.0, -0.5291 0.3062 0.0, -0.5286 0.3077 -0.0, -0.528 0.3091 -0.0, -0.5271 0.3104 -0.0, -0.5261 0.3115 -0.0, -0.5249 0.3125 -0.0, -0.5237 0.3134 0.0, -0.5223 0.3141 -0.0, -0.5208 0.3146 0.0, -0.5178 0.315 0.0, -0.5023 -0.2848 -0.2201, -0.5022 -0.2856 -0.2201, -0.5009 -0.2903 -0.219, -0.5015 -0.2926 -0.2173, -0.502 -0.2944 -0.2151, -0.5023 -0.2957 -0.2125, -0.505 -0.2945 -0.2125, -0.5106 -0.2848 -0.2125, -0.5102 -0.2877 -0.2125, -0.5106 -0.2848 -0.2125, -0.509 -0.2874 -0.2151, -0.5044 -0.2934 -0.2151, -0.5073 -0.2928 -0.2125, -0.5093 -0.2848 -0.2151, -0.5093 -0.2848 -0.2151, -0.5072 -0.2869 -0.2173, -0.5034 -0.2918 -0.2173, -0.5064 -0.2919 -0.2151, -0.5074 -0.2848 -0.2173, -0.5074 -0.2848 -0.2174, -0.5049 -0.2863 -0.219, -0.5051 -0.2905 -0.2173, -0.5022 -0.2897 -0.219, -0.5002 -0.2877 -0.2201, -0.5091 -0.2904 -0.2125, -0.508 -0.2898 -0.2151, -0.5064 -0.2889 -0.2173, -0.5043 -0.2877 -0.219, -0.5019 -0.2863 -0.2201, -0.5034 -0.2888 -0.219, -0.5009 -0.2874 -0.2201, -0.5015 -0.2869 -0.2201, -0.5051 -0.2848 -0.219, -0.505 -0.2848 -0.2191, -0.5023 -0.2848 -0.2201, 0.4994 -0.0484 -0.2205, 0.4994 0.2848 -0.2205, 0.5023 0.2848 -0.2201, 0.5023 0.2848 -0.2201, 0.505 0.2848 -0.2191, 0.5051 0.2848 -0.219, 0.5074 0.2848 -0.2174, 0.5074 0.2848 -0.2173, 0.5093 0.2848 -0.2151, 0.5093 0.2848 -0.2151, 0.5106 0.2848 -0.2125, 0.5106 0.2848 -0.2125, 0.5112 0.2848 -0.2097, 0.5108 0.2879 -0.2099, 0.5108 0.2879 -0.2099, 0.5096 0.2907 -0.2101, 0.5096 0.2907 -0.2101, 0.5077 0.2931 -0.2101, 0.5053 0.295 -0.2101, 0.5053 0.295 -0.2101, 0.5025 0.2962 -0.2099, 0.5024 0.2962 -0.2099, 0.4994 0.2966 -0.2097, -0.4994 0.2966 -0.2097, -0.5024 0.2962 -0.2099, -0.5025 0.2962 -0.2099, -0.5053 0.295 -0.2101, -0.5053 0.295 -0.2101, -0.5077 0.2931 -0.2101, -0.5096 0.2907 -0.2101, -0.5096 0.2907 -0.2101, -0.5108 0.2879 -0.2099, -0.5108 0.2879 -0.2099, -0.5112 0.2848 -0.2097, -0.4994 -0.0484 -0.2205, -0.5106 0.2848 -0.2125, -0.5106 0.2848 -0.2125, -0.5093 0.2848 -0.2151, -0.5093 0.2848 -0.2151, -0.5074 0.2848 -0.2173, -0.5074 0.2848 -0.2174, -0.5051 0.2848 -0.219, -0.505 0.2848 -0.2191, -0.5023 0.2848 -0.2201, -0.5023 0.2848 -0.2201, -0.4994 0.2848 -0.2205, 0.5022 0.2856 -0.2201, 0.4994 0.2905 -0.2191, 0.4994 0.2905 -0.219, 0.5009 0.2903 -0.219, 0.4994 0.2928 -0.2174, 0.4994 0.2929 -0.2173, 0.5015 0.2926 -0.2173, 0.502 0.2944 -0.2151, 0.5023 0.2957 -0.2125, 0.505 0.2945 -0.2125, 0.5102 0.2877 -0.2125, 0.4994 0.296 -0.2125, 0.4994 0.296 -0.2125, 0.4994 0.2948 -0.2151, 0.4994 0.2947 -0.2151, 0.509 0.2874 -0.2151, 0.5044 0.2934 -0.2151, 0.5073 0.2928 -0.2125, 0.5072 0.2869 -0.2173, 0.5034 0.2918 -0.2173, 0.5064 0.2919 -0.2151, 0.5049 0.2863 -0.219, 0.5051 0.2905 -0.2173, 0.5022 0.2897 -0.219, 0.5002 0.2877 -0.2201, 0.5091 0.2904 -0.2125, 0.508 0.2898 -0.2151, 0.5064 0.2889 -0.2173, 0.5043 0.2877 -0.219, 0.5019 0.2863 -0.2201, 0.4994 0.2877 -0.2201, 0.4994 0.2878 -0.2201, 0.5034 0.2888 -0.219, 0.5009 0.2874 -0.2201, 0.5015 0.2869 -0.2201, -0.4994 0.2877 -0.2201, -0.5002 0.2877 -0.2201, -0.5049 0.2863 -0.219, -0.5072 0.2869 -0.2173, -0.509 0.2874 -0.2151, -0.5102 0.2877 -0.2125, -0.5091 0.2904 -0.2125, -0.4994 0.296 -0.2125, -0.5023 0.2957 -0.2125, -0.4994 0.296 -0.2125, -0.502 0.2944 -0.2151, -0.508 0.2898 -0.2151, -0.5073 0.2928 -0.2125, -0.4994 0.2948 -0.2151, -0.4994 0.2947 -0.2151, -0.5015 0.2926 -0.2173, -0.5064 0.2889 -0.2173, -0.5064 0.2919 -0.2151, -0.4994 0.2929 -0.2173, -0.4994 0.2928 -0.2174, -0.5009 0.2903 -0.219, -0.5051 0.2905 -0.2173, -0.5043 0.2877 -0.219, -0.5022 0.2856 -0.2201, -0.505 0.2945 -0.2125, -0.5044 0.2934 -0.2151, -0.5034 0.2918 -0.2173, -0.5022 0.2897 -0.219, -0.5009 0.2874 -0.2201, -0.5034 0.2888 -0.219, -0.5019 0.2863 -0.2201, -0.5015 0.2869 -0.2201, -0.4994 0.2905 -0.219, -0.4994 0.2905 -0.2191, -0.4994 0.2878 -0.2201, -0.0398 0.2848 -0.2205, -0.0398 0.2848 -0.2205
            ]
        }
        coordIndex [
            0,1,2,-1,2,1,3,-1,2,3,4,-1,5,6,7,-1,2,8,0,-1,0,8,9,-1,0,9,10,-1,11,12,13,-1,13,12,14,-1,13,14,15,-1,15,14,16,-1,15,16,17,-1,17,16,18,-1,17,18,19,-1,19,18,20,-1,19,20,21,-1,21,20,22,-1,21,22,23,-1,23,22,24,-1,23,24,25,-1,25,24,26,-1,25,26,3,-1,3,26,27,-1,3,27,4,-1,4,27,28,-1,4,28,7,-1,7,28,29,-1,7,29,5,-1,30,31,32,-1,33,34,35,-1,5,36,37,-1,38,36,5,-1,35,34,5,-1,39,5,34,-1,40,41,42,-1,41,40,43,-1,43,40,44,-1,43,44,45,-1,45,44,46,-1,45,46,47,-1,47,46,48,-1,47,48,49,-1,49,48,50,-1,50,48,51,-1,50,51,52,-1,52,51,53,-1,53,51,14,-1,53,14,12,-1,29,38,5,-1,54,55,33,-1,33,55,56,-1,33,56,34,-1,34,56,57,-1,34,57,39,-1,58,37,59,-1,59,37,36,-1,59,36,60,-1,60,36,38,-1,60,38,61,-1,29,28,38,-1,38,28,27,-1,38,27,61,-1,61,27,26,-1,61,26,24,-1,32,58,62,-1,62,58,59,-1,62,59,63,-1,63,59,60,-1,63,60,64,-1,64,60,61,-1,64,61,65,-1,65,61,24,-1,66,67,68,-1,68,67,30,-1,30,32,68,-1,68,32,62,-1,68,62,69,-1,69,62,63,-1,69,63,70,-1,70,63,64,-1,70,64,71,-1,71,64,65,-1,71,65,72,-1,31,54,32,-1,32,54,33,-1,32,33,58,-1,58,33,35,-1,58,35,37,-1,37,35,5,-1,66,40,73,-1,73,40,42,-1,73,42,74,-1,24,22,65,-1,65,22,20,-1,65,20,72,-1,72,20,18,-1,72,18,16,-1,66,68,40,-1,40,68,69,-1,40,69,44,-1,44,69,70,-1,44,70,46,-1,46,70,71,-1,46,71,48,-1,48,71,72,-1,48,72,51,-1,51,72,16,-1,51,16,14,-1,15,17,75,-1,19,21,76,-1,77,78,79,-1,10,80,81,-1,82,80,10,-1,79,78,10,-1,0,10,78,-1,83,84,85,-1,85,84,86,-1,85,86,87,-1,87,86,88,-1,88,86,89,-1,88,89,90,-1,90,89,91,-1,91,89,92,-1,91,92,93,-1,93,92,94,-1,94,92,95,-1,94,95,96,-1,96,95,97,-1,97,95,98,-1,97,98,99,-1,99,98,100,-1,99,100,101,-1,102,82,10,-1,23,25,77,-1,77,25,3,-1,77,3,78,-1,78,3,1,-1,78,1,0,-1,103,81,104,-1,104,81,80,-1,104,80,105,-1,105,80,82,-1,105,82,106,-1,21,23,76,-1,76,23,77,-1,76,77,107,-1,107,77,79,-1,107,79,108,-1,108,79,10,-1,102,109,82,-1,82,109,110,-1,82,110,106,-1,106,110,111,-1,106,111,112,-1,113,103,114,-1,114,103,104,-1,114,104,115,-1,115,104,105,-1,115,105,116,-1,116,105,106,-1,116,106,117,-1,117,106,112,-1,75,113,118,-1,118,113,114,-1,118,114,119,-1,119,114,115,-1,119,115,120,-1,120,115,116,-1,120,116,121,-1,121,116,117,-1,121,117,122,-1,17,19,75,-1,75,19,76,-1,75,76,113,-1,113,76,107,-1,113,107,103,-1,103,107,108,-1,103,108,81,-1,81,108,10,-1,83,11,84,-1,84,11,13,-1,84,13,15,-1,112,123,117,-1,117,123,124,-1,117,124,122,-1,122,124,125,-1,122,125,126,-1,15,75,84,-1,84,75,118,-1,84,118,86,-1,86,118,119,-1,86,119,89,-1,89,119,120,-1,89,120,92,-1,92,120,121,-1,92,121,95,-1,95,121,122,-1,95,122,98,-1,98,122,126,-1,98,126,100,-1,74,42,127,-1,127,42,128,-1,128,42,129,-1,129,42,41,-1,129,41,130,-1,130,41,43,-1,130,43,131,-1,131,43,45,-1,131,45,132,-1,132,45,47,-1,132,47,133,-1,133,47,49,-1,133,49,134,-1,134,49,50,-1,134,50,135,-1,135,50,52,-1,135,52,136,-1,52,53,136,-1,136,53,12,-1,136,12,137,-1,74,138,73,-1,73,138,139,-1,73,139,66,-1,66,139,140,-1,66,140,67,-1,67,140,141,-1,67,141,30,-1,30,141,142,-1,30,142,31,-1,31,142,143,-1,31,143,54,-1,54,143,144,-1,54,144,55,-1,55,144,145,-1,55,145,56,-1,56,145,146,-1,56,146,57,-1,57,146,147,-1,57,147,39,-1,147,148,39,-1,39,148,149,-1,39,149,5,-1,150,149,151,-1,152,153,154,-1,154,153,155,-1,154,155,156,-1,155,157,156,-1,156,157,158,-1,156,158,159,-1,160,161,162,-1,162,161,163,-1,162,163,164,-1,164,163,165,-1,164,165,166,-1,166,165,167,-1,166,167,168,-1,168,167,169,-1,168,169,170,-1,170,169,171,-1,170,171,172,-1,172,171,173,-1,172,173,174,-1,174,173,175,-1,174,175,176,-1,176,175,153,-1,176,153,177,-1,177,153,152,-1,177,152,151,-1,151,152,178,-1,151,178,150,-1,179,101,180,-1,180,101,100,-1,180,100,181,-1,181,100,126,-1,181,126,182,-1,182,126,125,-1,182,125,183,-1,183,125,124,-1,183,124,184,-1,184,124,123,-1,184,123,185,-1,185,123,112,-1,185,112,186,-1,186,112,111,-1,186,111,187,-1,187,111,110,-1,187,110,188,-1,188,110,109,-1,188,109,189,-1,109,102,189,-1,189,102,10,-1,189,10,158,-1,190,11,83,-1,190,83,191,-1,191,83,85,-1,191,85,192,-1,192,85,87,-1,192,87,193,-1,193,87,88,-1,193,88,194,-1,194,88,90,-1,194,90,195,-1,195,90,91,-1,195,91,196,-1,196,91,93,-1,196,93,197,-1,197,93,94,-1,197,94,198,-1,198,94,96,-1,198,96,199,-1,199,96,97,-1,199,97,200,-1,200,97,99,-1,200,99,101,-1,137,201,202,-1,137,202,136,-1,136,202,203,-1,136,203,135,-1,135,203,204,-1,135,204,134,-1,134,204,205,-1,134,205,133,-1,133,205,206,-1,133,206,132,-1,132,206,207,-1,132,207,131,-1,131,207,208,-1,131,208,130,-1,130,208,209,-1,130,209,129,-1,129,209,210,-1,129,210,128,-1,128,210,211,-1,128,211,127,-1,127,211,212,-1,127,212,213,-1,164,166,214,-1,168,170,215,-1,216,217,218,-1,149,219,220,-1,221,219,149,-1,218,217,149,-1,151,149,217,-1,222,223,224,-1,224,223,225,-1,224,225,226,-1,226,225,227,-1,227,225,228,-1,227,228,229,-1,229,228,230,-1,230,228,231,-1,230,231,232,-1,232,231,233,-1,233,231,234,-1,233,234,235,-1,235,234,236,-1,236,234,237,-1,236,237,238,-1,238,237,139,-1,238,139,138,-1,148,221,149,-1,172,174,216,-1,216,174,176,-1,216,176,217,-1,217,176,177,-1,217,177,151,-1,239,220,240,-1,240,220,219,-1,240,219,241,-1,241,219,221,-1,241,221,242,-1,170,172,215,-1,215,172,216,-1,215,216,243,-1,243,216,218,-1,243,218,244,-1,244,218,149,-1,148,147,221,-1,221,147,146,-1,221,146,242,-1,242,146,145,-1,242,145,144,-1,245,239,246,-1,246,239,240,-1,246,240,247,-1,247,240,241,-1,247,241,248,-1,248,241,242,-1,248,242,249,-1,249,242,144,-1,214,245,250,-1,250,245,246,-1,250,246,251,-1,251,246,247,-1,251,247,252,-1,252,247,248,-1,252,248,253,-1,253,248,249,-1,253,249,254,-1,166,168,214,-1,214,168,215,-1,214,215,245,-1,245,215,243,-1,245,243,239,-1,239,243,244,-1,239,244,220,-1,220,244,149,-1,222,160,223,-1,223,160,162,-1,223,162,164,-1,144,143,249,-1,249,143,142,-1,249,142,254,-1,254,142,141,-1,254,141,140,-1,164,214,223,-1,223,214,250,-1,223,250,225,-1,225,250,251,-1,225,251,228,-1,228,251,252,-1,228,252,231,-1,231,252,253,-1,231,253,234,-1,234,253,254,-1,234,254,237,-1,237,254,140,-1,237,140,139,-1,183,184,255,-1,256,257,258,-1,158,259,260,-1,261,259,158,-1,258,257,158,-1,189,158,257,-1,262,263,264,-1,263,262,265,-1,265,262,266,-1,265,266,267,-1,267,266,268,-1,267,268,269,-1,269,268,270,-1,269,270,271,-1,271,270,272,-1,272,270,273,-1,272,273,274,-1,274,273,275,-1,275,273,163,-1,275,163,161,-1,157,261,158,-1,185,186,256,-1,256,186,187,-1,256,187,257,-1,257,187,188,-1,257,188,189,-1,276,260,277,-1,277,260,259,-1,277,259,278,-1,278,259,261,-1,278,261,279,-1,157,155,261,-1,261,155,153,-1,261,153,279,-1,279,153,175,-1,279,175,173,-1,255,276,280,-1,280,276,277,-1,280,277,281,-1,281,277,278,-1,281,278,282,-1,282,278,279,-1,282,279,283,-1,283,279,173,-1,181,182,284,-1,284,182,183,-1,183,255,284,-1,284,255,280,-1,284,280,285,-1,285,280,281,-1,285,281,286,-1,286,281,282,-1,286,282,287,-1,287,282,283,-1,287,283,288,-1,184,185,255,-1,255,185,256,-1,255,256,276,-1,276,256,258,-1,276,258,260,-1,260,258,158,-1,181,262,180,-1,180,262,264,-1,180,264,179,-1,173,171,283,-1,283,171,169,-1,283,169,288,-1,288,169,167,-1,288,167,165,-1,181,284,262,-1,262,284,285,-1,262,285,266,-1,266,285,286,-1,266,286,268,-1,268,286,287,-1,268,287,270,-1,270,287,288,-1,270,288,273,-1,273,288,165,-1,273,165,163,-1,289,290,200,-1,200,290,199,-1,199,290,198,-1,198,290,291,-1,198,291,197,-1,197,291,292,-1,197,292,196,-1,196,292,293,-1,196,293,195,-1,195,293,294,-1,195,294,194,-1,194,294,295,-1,194,295,193,-1,193,295,296,-1,193,296,192,-1,192,296,297,-1,192,297,191,-1,297,298,191,-1,191,298,299,-1,191,299,190,-1,300,301,302,-1,303,300,304,-1,304,300,302,-1,304,302,305,-1,305,302,306,-1,305,306,307,-1,307,306,308,-1,307,308,309,-1,309,308,310,-1,309,310,311,-1,311,310,312,-1,311,312,313,-1,313,312,314,-1,313,314,315,-1,315,314,316,-1,315,316,317,-1,317,316,318,-1,317,318,319,-1,319,318,320,-1,319,320,321,-1,321,320,322,-1,321,322,299,-1,299,322,201,-1,302,301,323,-1,324,325,301,-1,326,327,328,-1,329,330,331,-1,332,333,334,-1,205,204,335,-1,203,202,336,-1,336,202,201,-1,337,208,207,-1,334,210,209,-1,210,334,211,-1,211,334,333,-1,211,333,212,-1,213,212,338,-1,338,212,333,-1,338,333,339,-1,339,333,332,-1,339,332,340,-1,340,332,341,-1,201,322,336,-1,336,322,320,-1,336,320,342,-1,330,341,331,-1,331,341,332,-1,331,332,343,-1,343,332,334,-1,343,334,337,-1,337,334,209,-1,337,209,208,-1,320,318,342,-1,342,318,316,-1,342,316,344,-1,327,329,328,-1,328,329,331,-1,328,331,345,-1,345,331,343,-1,345,343,346,-1,346,343,337,-1,346,337,347,-1,347,337,207,-1,347,207,206,-1,316,314,344,-1,344,314,312,-1,344,312,348,-1,347,349,346,-1,346,349,350,-1,346,350,345,-1,345,350,351,-1,345,351,328,-1,328,351,352,-1,328,352,326,-1,325,324,353,-1,204,203,335,-1,335,203,336,-1,335,336,354,-1,354,336,342,-1,354,342,355,-1,355,342,344,-1,355,344,356,-1,356,344,348,-1,356,348,357,-1,357,348,323,-1,357,323,301,-1,301,358,352,-1,352,358,359,-1,352,359,326,-1,349,360,350,-1,350,360,361,-1,350,361,351,-1,351,361,362,-1,351,362,352,-1,352,362,301,-1,360,353,361,-1,361,353,324,-1,361,324,362,-1,362,324,301,-1,312,310,348,-1,348,310,308,-1,348,308,323,-1,323,308,306,-1,323,306,302,-1,206,205,347,-1,347,205,335,-1,347,335,349,-1,349,335,354,-1,349,354,360,-1,360,354,355,-1,360,355,353,-1,353,355,356,-1,353,356,325,-1,325,356,357,-1,325,357,301,-1,363,160,222,-1,363,222,364,-1,364,222,224,-1,364,224,365,-1,365,224,226,-1,365,226,366,-1,366,226,227,-1,366,227,367,-1,367,227,229,-1,367,229,368,-1,368,229,230,-1,368,230,369,-1,369,230,232,-1,369,232,370,-1,370,232,233,-1,370,233,371,-1,371,233,235,-1,371,235,372,-1,372,235,236,-1,372,236,373,-1,373,236,238,-1,373,238,138,-1,179,264,374,-1,374,264,375,-1,375,264,376,-1,376,264,263,-1,376,263,377,-1,377,263,265,-1,377,265,378,-1,378,265,267,-1,378,267,379,-1,379,267,269,-1,379,269,380,-1,380,269,271,-1,380,271,381,-1,381,271,272,-1,381,272,382,-1,382,272,274,-1,382,274,383,-1,274,275,383,-1,383,275,161,-1,383,161,384,-1,385,303,386,-1,307,309,387,-1,311,313,388,-1,389,390,391,-1,290,289,392,-1,292,291,393,-1,393,291,290,-1,298,297,390,-1,390,297,296,-1,390,296,391,-1,391,296,295,-1,391,295,294,-1,299,298,321,-1,321,298,390,-1,321,390,319,-1,319,390,389,-1,319,389,317,-1,317,389,315,-1,290,392,393,-1,393,392,394,-1,393,394,395,-1,313,315,388,-1,388,315,389,-1,388,389,396,-1,396,389,391,-1,396,391,397,-1,397,391,294,-1,394,398,395,-1,395,398,399,-1,395,399,400,-1,309,311,387,-1,387,311,388,-1,387,388,401,-1,401,388,396,-1,401,396,402,-1,402,396,397,-1,399,403,400,-1,400,403,404,-1,400,404,405,-1,402,406,401,-1,401,406,407,-1,401,407,387,-1,387,407,408,-1,387,408,307,-1,293,292,409,-1,409,292,393,-1,409,393,410,-1,410,393,395,-1,410,395,411,-1,411,395,400,-1,411,400,412,-1,412,400,405,-1,412,405,413,-1,413,405,386,-1,413,386,303,-1,303,304,408,-1,408,304,305,-1,408,305,307,-1,406,414,407,-1,407,414,415,-1,407,415,408,-1,408,415,303,-1,414,416,415,-1,415,416,303,-1,404,417,405,-1,405,417,418,-1,405,418,386,-1,386,418,419,-1,386,419,385,-1,294,293,397,-1,397,293,409,-1,397,409,402,-1,402,409,410,-1,402,410,406,-1,406,410,411,-1,406,411,414,-1,414,411,412,-1,414,412,416,-1,416,412,413,-1,416,413,303,-1,420,421,422,-1,301,420,358,-1,358,420,422,-1,358,422,359,-1,359,422,423,-1,359,423,326,-1,326,423,424,-1,326,424,327,-1,327,424,425,-1,327,425,329,-1,329,425,426,-1,329,426,330,-1,330,426,427,-1,330,427,341,-1,341,427,428,-1,341,428,340,-1,340,428,429,-1,340,429,339,-1,339,429,430,-1,339,430,338,-1,338,430,431,-1,338,431,213,-1,213,431,432,-1,432,433,373,-1,373,433,372,-1,372,433,371,-1,371,433,434,-1,371,434,370,-1,370,434,435,-1,370,435,369,-1,369,435,436,-1,369,436,368,-1,368,436,437,-1,368,437,367,-1,367,437,438,-1,367,438,366,-1,366,438,439,-1,366,439,365,-1,365,439,440,-1,365,440,364,-1,440,441,364,-1,364,441,442,-1,364,442,363,-1,443,444,384,-1,384,444,383,-1,383,444,382,-1,382,444,445,-1,382,445,381,-1,381,445,446,-1,381,446,380,-1,380,446,447,-1,380,447,379,-1,379,447,448,-1,379,448,378,-1,378,448,449,-1,378,449,377,-1,377,449,450,-1,377,450,376,-1,376,450,451,-1,376,451,375,-1,451,452,375,-1,375,452,453,-1,375,453,374,-1,454,303,385,-1,289,453,392,-1,392,453,455,-1,392,455,394,-1,394,455,456,-1,394,456,398,-1,398,456,457,-1,398,457,399,-1,399,457,458,-1,399,458,403,-1,403,458,459,-1,403,459,404,-1,404,459,460,-1,404,460,417,-1,417,460,461,-1,417,461,418,-1,418,461,462,-1,418,462,419,-1,419,462,463,-1,419,463,385,-1,385,463,464,-1,385,464,454,-1,454,464,465,-1,422,421,466,-1,467,468,469,-1,470,471,472,-1,473,474,475,-1,433,432,431,-1,435,434,476,-1,476,434,433,-1,441,440,474,-1,474,440,439,-1,474,439,475,-1,475,439,438,-1,475,438,437,-1,442,441,477,-1,477,441,474,-1,477,474,478,-1,478,474,473,-1,478,473,479,-1,479,473,480,-1,433,431,476,-1,476,431,430,-1,476,430,481,-1,471,480,472,-1,472,480,473,-1,472,473,482,-1,482,473,475,-1,482,475,483,-1,483,475,437,-1,430,429,481,-1,481,429,428,-1,481,428,484,-1,468,470,469,-1,469,470,472,-1,469,472,485,-1,485,472,482,-1,485,482,486,-1,486,482,483,-1,428,427,484,-1,484,427,426,-1,484,426,487,-1,486,488,485,-1,485,488,489,-1,485,489,469,-1,469,489,490,-1,469,490,467,-1,436,435,491,-1,491,435,476,-1,491,476,492,-1,492,476,481,-1,492,481,493,-1,493,481,484,-1,493,484,494,-1,494,484,487,-1,494,487,495,-1,495,487,466,-1,495,466,421,-1,421,496,490,-1,490,496,497,-1,490,497,467,-1,488,498,489,-1,489,498,499,-1,489,499,490,-1,490,499,421,-1,498,500,499,-1,499,500,421,-1,426,425,487,-1,487,425,424,-1,487,424,466,-1,466,424,423,-1,466,423,422,-1,437,436,483,-1,483,436,491,-1,483,491,486,-1,486,491,492,-1,486,492,488,-1,488,492,493,-1,488,493,498,-1,498,493,494,-1,498,494,500,-1,500,494,495,-1,500,495,421,-1,501,465,502,-1,462,461,503,-1,460,459,504,-1,505,506,507,-1,444,443,508,-1,446,445,509,-1,509,445,444,-1,452,451,506,-1,506,451,450,-1,506,450,507,-1,507,450,449,-1,507,449,448,-1,453,452,455,-1,455,452,506,-1,455,506,456,-1,456,506,505,-1,456,505,457,-1,457,505,458,-1,444,508,509,-1,509,508,510,-1,509,510,511,-1,459,458,504,-1,504,458,505,-1,504,505,512,-1,512,505,507,-1,512,507,513,-1,513,507,448,-1,510,514,511,-1,511,514,515,-1,511,515,516,-1,461,460,503,-1,503,460,504,-1,503,504,517,-1,517,504,512,-1,517,512,518,-1,518,512,513,-1,515,519,516,-1,516,519,520,-1,516,520,521,-1,518,522,517,-1,517,522,523,-1,517,523,503,-1,503,523,524,-1,503,524,462,-1,447,446,525,-1,525,446,509,-1,525,509,526,-1,526,509,511,-1,526,511,527,-1,527,511,516,-1,527,516,528,-1,528,516,521,-1,528,521,529,-1,529,521,502,-1,529,502,465,-1,465,464,524,-1,524,464,463,-1,524,463,462,-1,522,530,523,-1,523,530,531,-1,523,531,524,-1,524,531,465,-1,530,532,531,-1,531,532,465,-1,520,533,521,-1,521,533,534,-1,521,534,502,-1,502,534,535,-1,502,535,501,-1,448,447,513,-1,513,447,525,-1,513,525,518,-1,518,525,526,-1,518,526,522,-1,522,526,527,-1,522,527,530,-1,530,527,528,-1,530,528,532,-1,532,528,529,-1,532,529,465,-1,536,465,501,-1,443,442,508,-1,508,442,477,-1,508,477,510,-1,510,477,478,-1,510,478,514,-1,514,478,479,-1,514,479,515,-1,515,479,480,-1,515,480,519,-1,519,480,471,-1,519,471,520,-1,520,471,470,-1,520,470,533,-1,533,470,468,-1,533,468,534,-1,534,468,467,-1,534,467,535,-1,535,467,497,-1,535,497,501,-1,501,497,496,-1,501,496,536,-1,536,496,421,-1,
        ]
    }
}
Shape{
    appearance Appearance {
        material  Material 	{
            diffuseColor 0.5019607843137255 0.5019607843137255 0.5019607843137255
            specularColor 0.25098039215686274 0.25098039215686274 0.25098039215686274
            ambientIntensity 0.2
            transparency 0
            shininess 0.5
        }
    }
    geometry IndexedFaceSet {
        ccw TRUE
        solid FALSE
        coord DEF co Coordinate {
            point [
                -0.4133 -0.2848 0.2205, -0.4133 -0.2877 0.2201, -0.4133 -0.2879 0.2201, -0.4133 0.2848 0.2205, -0.4133 0.2879 0.2201, -0.4133 0.2877 0.2201, -0.3278 -0.2877 0.2201, -0.3278 -0.2848 0.2205, -0.3278 -0.2879 0.2201, -0.3278 0.2848 0.2205, -0.3278 0.2879 0.2201, -0.3278 0.2877 0.2201, -0.3278 0.2877 0.2201
            ]
        }
        coordIndex [
            0,1,2,-1,0,2,3,-1,3,2,4,-1,3,4,5,-1,6,7,8,-1,8,7,9,-1,8,9,10,-1,10,9,11,-1,4,2,10,-1,10,2,8,-1,
        ]
    }
}
Shape{
    appearance Appearance {
        material  Material 	{
            diffuseColor 1.0 1.0 1.0
            specularColor 0.5019607843137255 0.5019607843137255 0.5019607843137255
            ambientIntensity 0.2
            transparency 0
            shininess 0.5
        }
    }
    geometry IndexedFaceSet {
        ccw TRUE
        solid FALSE
        coord DEF co Coordinate {
            point [
                -0.2155 0.0705 -0.2201, -0.2616 -0.0477 -0.2201, -0.2155 0.0705 -0.2205, -0.2616 -0.0477 -0.2205, -0.2443 -0.0477 -0.2201, -0.2443 -0.0477 -0.2205, -0.2324 -0.0145 -0.2201, -0.2324 -0.0145 -0.2205, -0.1836 -0.0145 -0.2201, -0.1836 -0.0145 -0.2205, -0.1723 -0.0477 -0.2201, -0.1723 -0.0477 -0.2205, -0.155 -0.0477 -0.2201, -0.155 -0.0477 -0.2205, -0.1997 0.0705 -0.2201, -0.1997 0.0705 -0.2205, -0.1876 -0.0016 -0.2201, -0.2271 -0.0016 -0.2201, -0.2052 0.0478 -0.2201, -0.2063 0.0519 -0.2201, -0.2071 0.0561 -0.2201, -0.2075 0.0561 -0.2201, -0.2082 0.0519 -0.2201, -0.2093 0.0478 -0.2201, -0.1876 -0.0016 -0.2205, -0.2271 -0.0016 -0.2205, -0.2052 0.0478 -0.2205, -0.2063 0.0519 -0.2205, -0.2071 0.0561 -0.2205, -0.2075 0.0561 -0.2205, -0.2082 0.0519 -0.2205, -0.2093 0.0478 -0.2205, -0.0834 -0.0477 -0.2201, -0.0513 -0.0477 -0.2201, -0.0834 -0.0477 -0.2205, -0.0513 -0.0477 -0.2205, -0.0513 0.0705 -0.2201, -0.0513 0.0705 -0.2205, -0.0846 0.0705 -0.2201, -0.0846 0.0705 -0.2205, -0.1464 0.0129 -0.2201, -0.1464 0.0129 -0.2205, -0.1455 0.0239 -0.2205, -0.1455 0.0239 -0.2201, -0.1424 0.0356 -0.2205, -0.1424 0.0356 -0.2201, -0.1369 0.0457 -0.2205, -0.1369 0.0457 -0.2201, -0.1286 0.055 -0.2205, -0.1286 0.055 -0.2201, -0.1284 0.0552 -0.2205, -0.1284 0.0552 -0.2201, -0.1155 0.0638 -0.2205, -0.1155 0.0638 -0.2201, -0.1017 0.0686 -0.2205, -0.1017 0.0686 -0.2201, -0.0981 -0.0464 -0.2205, -0.0981 -0.0464 -0.2201, -0.1117 -0.0423 -0.2205, -0.1117 -0.0423 -0.2201, -0.124 -0.0351 -0.2205, -0.124 -0.0351 -0.2201, -0.1337 -0.0258 -0.2205, -0.1337 -0.0258 -0.2201, -0.1405 -0.0153 -0.2205, -0.1405 -0.0153 -0.2201, -0.1447 -0.0029 -0.2205, -0.1447 -0.0029 -0.2201, -0.1227 0.0409 -0.2201, -0.1169 0.047 -0.2201, -0.1083 0.0526 -0.2201, -0.0986 0.056 -0.2201, -0.0846 0.0575 -0.2201, -0.0672 0.0575 -0.2201, -0.0672 -0.0347 -0.2201, -0.0839 -0.0347 -0.2201, -0.0964 -0.0335 -0.2201, -0.1063 -0.0304 -0.2201, -0.1144 -0.0256 -0.2201, -0.121 -0.0191 -0.2201, -0.126 -0.011 -0.2201, -0.1294 0.0001 -0.2201, -0.1305 0.0125 -0.2201, -0.1295 0.0243 -0.2201, -0.1268 0.0336 -0.2201, -0.0846 0.0575 -0.2205, -0.0672 0.0575 -0.2205, -0.0986 0.056 -0.2205, -0.1083 0.0526 -0.2205, -0.1169 0.047 -0.2205, -0.1227 0.0409 -0.2205, -0.1268 0.0336 -0.2205, -0.1295 0.0243 -0.2205, -0.1305 0.0125 -0.2205, -0.1294 0.0001 -0.2205, -0.126 -0.011 -0.2205, -0.121 -0.0191 -0.2205, -0.1144 -0.0256 -0.2205, -0.1063 -0.0304 -0.2205, -0.0964 -0.0335 -0.2205, -0.0839 -0.0347 -0.2205, -0.0672 -0.0347 -0.2205, -0.0283 -0.0347 -0.2201, -0.0283 -0.0477 -0.2201, -0.0283 -0.0347 -0.2205, -0.0283 -0.0477 -0.2205, 0.0351 -0.0477 -0.2201, 0.0351 -0.0477 -0.2205, 0.0351 0.0705 -0.2201, 0.0351 0.0705 -0.2205, -0.0254 0.0705 -0.2201, -0.0254 0.0705 -0.2205, -0.0254 0.0575 -0.2201, -0.0254 0.0575 -0.2205, 0.0193 0.0575 -0.2201, 0.0193 0.0575 -0.2205, 0.0193 0.0186 -0.2201, 0.0193 0.0186 -0.2205, -0.0225 0.0186 -0.2201, -0.0225 0.0186 -0.2205, -0.0225 0.0056 -0.2201, -0.0225 0.0056 -0.2205, 0.0193 0.0056 -0.2201, 0.0193 0.0056 -0.2205, 0.0193 -0.0347 -0.2201, 0.0193 -0.0347 -0.2205, 0.0582 -0.0286 -0.2201, 0.0582 -0.0415 -0.2201, 0.0582 -0.0286 -0.2205, 0.0582 -0.0415 -0.2205, 0.0707 -0.0467 -0.2201, 0.0907 -0.0491 -0.2201, 0.0907 -0.0491 -0.2205, 0.0874 -0.049 -0.2205, 0.0874 -0.049 -0.2201, 0.0827 -0.0484 -0.2205, 0.0707 -0.0467 -0.2205, 0.0976 -0.0484 -0.2205, 0.1052 -0.0476 -0.2201, 0.1052 -0.0476 -0.2205, 0.1167 -0.0436 -0.2201, 0.1167 -0.0436 -0.2205, 0.1262 -0.0376 -0.2201, 0.1262 -0.0376 -0.2205, 0.135 -0.0282 -0.2201, 0.135 -0.0282 -0.2205, 0.1413 -0.017 -0.2201, 0.1413 -0.017 -0.2205, 0.1449 -0.0045 -0.2201, 0.1449 -0.0045 -0.2205, 0.146 0.0092 -0.2201, 0.146 0.0092 -0.2205, 0.086 0.0719 -0.2201, 0.086 0.0719 -0.2205, 0.0977 0.0709 -0.2205, 0.0977 0.0709 -0.2201, 0.1109 0.0671 -0.2205, 0.1109 0.0671 -0.2201, 0.1221 0.0607 -0.2205, 0.1221 0.0607 -0.2201, 0.1328 0.0505 -0.2205, 0.1328 0.0505 -0.2201, 0.1397 0.0394 -0.2205, 0.1397 0.0394 -0.2201, 0.1443 0.026 -0.2205, 0.1443 0.026 -0.2201, 0.0582 0.0672 -0.2201, 0.0582 0.0672 -0.2205, 0.0718 0.0709 -0.2205, 0.0718 0.0709 -0.2201, 0.0582 0.0514 -0.2201, 0.0582 0.0514 -0.2205, 0.0858 0.0589 -0.2201, 0.0858 0.0589 -0.2205, 0.0715 0.0571 -0.2205, 0.0715 0.0571 -0.2201, 0.1302 0.0101 -0.2201, 0.1302 0.0101 -0.2205, 0.1296 0.0193 -0.2205, 0.1296 0.0193 -0.2201, 0.1265 0.032 -0.2205, 0.1265 0.032 -0.2201, 0.1216 0.0411 -0.2205, 0.1216 0.0411 -0.2201, 0.1145 0.049 -0.2205, 0.1145 0.049 -0.2201, 0.1063 0.0544 -0.2205, 0.1063 0.0544 -0.2201, 0.0974 0.0576 -0.2205, 0.0974 0.0576 -0.2201, 0.0885 -0.0361 -0.2201, 0.0885 -0.0361 -0.2205, 0.0995 -0.0349 -0.2205, 0.0995 -0.0349 -0.2201, 0.1081 -0.0317 -0.2205, 0.1081 -0.0317 -0.2201, 0.1153 -0.0268 -0.2205, 0.1153 -0.0268 -0.2201, 0.1209 -0.021 -0.2205, 0.1209 -0.021 -0.2201, 0.1258 -0.0128 -0.2205, 0.1258 -0.0128 -0.2201, 0.129 -0.0026 -0.2205, 0.129 -0.0026 -0.2201, 0.0603 -0.0297 -0.2205, 0.0603 -0.0297 -0.2201, 0.0728 -0.0344 -0.2205, 0.0728 -0.0344 -0.2201, 0.1561 -0.0347 -0.2201, 0.1561 -0.0477 -0.2201, 0.1561 -0.0347 -0.2205, 0.1561 -0.0477 -0.2205, 0.2166 -0.0477 -0.2201, 0.2166 -0.0477 -0.2205, 0.2166 0.0705 -0.2201, 0.2166 0.0705 -0.2205, 0.2008 0.0705 -0.2201, 0.2008 0.0705 -0.2205, 0.2008 -0.0347 -0.2201, 0.2008 -0.0347 -0.2205, 0.2008 -0.0347 -0.2205
            ]
        }
        coordIndex [
            0,1,2,-1,2,1,3,-1,1,4,3,-1,3,4,5,-1,4,6,5,-1,5,6,7,-1,6,8,7,-1,7,8,9,-1,8,10,9,-1,9,10,11,-1,10,12,11,-1,11,12,13,-1,12,14,13,-1,13,14,15,-1,14,0,15,-1,15,0,2,-1,16,8,17,-1,17,8,6,-1,18,14,16,-1,16,14,12,-1,16,12,8,-1,8,12,10,-1,18,19,14,-1,14,19,20,-1,14,20,0,-1,0,20,21,-1,0,21,22,-1,22,23,0,-1,0,23,17,-1,0,17,1,-1,1,17,6,-1,1,6,4,-1,16,17,24,-1,24,17,25,-1,18,16,26,-1,26,16,24,-1,18,26,27,-1,18,27,19,-1,19,27,28,-1,19,28,20,-1,21,20,29,-1,29,20,28,-1,21,29,30,-1,21,30,22,-1,22,30,31,-1,22,31,23,-1,17,23,25,-1,25,23,31,-1,32,33,34,-1,34,33,35,-1,33,36,35,-1,35,36,37,-1,36,38,37,-1,37,38,39,-1,40,41,42,-1,40,42,43,-1,43,42,44,-1,43,44,45,-1,45,44,46,-1,45,46,47,-1,47,46,48,-1,47,48,49,-1,49,48,50,-1,49,50,51,-1,51,50,52,-1,51,52,53,-1,53,52,54,-1,53,54,55,-1,55,54,39,-1,55,39,38,-1,32,34,56,-1,32,56,57,-1,57,56,58,-1,57,58,59,-1,59,58,60,-1,59,60,61,-1,61,60,62,-1,61,62,63,-1,63,62,64,-1,63,64,65,-1,65,64,66,-1,65,66,67,-1,67,66,41,-1,67,41,40,-1,45,47,68,-1,68,47,49,-1,68,49,69,-1,69,49,51,-1,69,51,70,-1,70,51,53,-1,70,53,71,-1,71,53,55,-1,71,55,72,-1,72,55,38,-1,72,38,73,-1,73,38,36,-1,73,36,74,-1,74,36,33,-1,74,33,75,-1,75,33,32,-1,75,32,76,-1,76,32,57,-1,76,57,77,-1,77,57,59,-1,77,59,78,-1,78,59,61,-1,78,61,79,-1,79,61,63,-1,79,63,80,-1,80,63,65,-1,80,65,81,-1,81,65,67,-1,81,67,82,-1,82,67,40,-1,82,40,83,-1,83,40,43,-1,83,43,84,-1,84,43,45,-1,84,45,68,-1,72,73,85,-1,85,73,86,-1,72,85,87,-1,72,87,71,-1,71,87,88,-1,71,88,70,-1,70,88,89,-1,70,89,69,-1,69,89,90,-1,69,90,68,-1,68,90,91,-1,68,91,84,-1,84,91,92,-1,84,92,83,-1,83,92,93,-1,83,93,82,-1,82,93,94,-1,82,94,81,-1,81,94,95,-1,81,95,80,-1,80,95,96,-1,80,96,79,-1,79,96,97,-1,79,97,78,-1,78,97,98,-1,78,98,77,-1,77,98,99,-1,77,99,76,-1,76,99,100,-1,76,100,75,-1,74,75,101,-1,101,75,100,-1,73,74,86,-1,86,74,101,-1,102,103,104,-1,104,103,105,-1,103,106,105,-1,105,106,107,-1,106,108,107,-1,107,108,109,-1,108,110,109,-1,109,110,111,-1,110,112,111,-1,111,112,113,-1,112,114,113,-1,113,114,115,-1,114,116,115,-1,115,116,117,-1,116,118,117,-1,117,118,119,-1,118,120,119,-1,119,120,121,-1,120,122,121,-1,121,122,123,-1,122,124,123,-1,123,124,125,-1,124,102,125,-1,125,102,104,-1,106,103,102,-1,102,124,106,-1,106,124,122,-1,106,122,108,-1,112,110,114,-1,114,110,108,-1,114,108,116,-1,116,108,122,-1,116,122,118,-1,118,122,120,-1,126,127,128,-1,128,127,129,-1,129,127,130,-1,131,132,133,-1,131,133,134,-1,134,133,135,-1,134,135,130,-1,130,135,136,-1,130,136,129,-1,132,131,137,-1,137,131,138,-1,137,138,139,-1,139,138,140,-1,139,140,141,-1,141,140,142,-1,141,142,143,-1,143,142,144,-1,143,144,145,-1,145,144,146,-1,145,146,147,-1,147,146,148,-1,147,148,149,-1,149,148,150,-1,149,150,151,-1,152,153,154,-1,152,154,155,-1,155,154,156,-1,155,156,157,-1,157,156,158,-1,157,158,159,-1,159,158,160,-1,159,160,161,-1,161,160,162,-1,161,162,163,-1,163,162,164,-1,163,164,165,-1,165,164,151,-1,165,151,150,-1,166,167,168,-1,166,168,169,-1,169,168,153,-1,169,153,152,-1,166,170,167,-1,167,170,171,-1,172,173,174,-1,172,174,175,-1,175,174,171,-1,175,171,170,-1,176,177,178,-1,176,178,179,-1,179,178,180,-1,179,180,181,-1,181,180,182,-1,181,182,183,-1,183,182,184,-1,183,184,185,-1,185,184,186,-1,185,186,187,-1,187,186,188,-1,187,188,189,-1,189,188,173,-1,189,173,172,-1,190,191,192,-1,190,192,193,-1,193,192,194,-1,193,194,195,-1,195,194,196,-1,195,196,197,-1,197,196,198,-1,197,198,199,-1,199,198,200,-1,199,200,201,-1,201,200,202,-1,201,202,203,-1,203,202,177,-1,203,177,176,-1,126,128,204,-1,126,204,205,-1,205,204,206,-1,205,206,207,-1,207,206,191,-1,207,191,190,-1,193,131,190,-1,190,131,134,-1,190,134,207,-1,207,134,130,-1,207,130,205,-1,205,130,127,-1,205,127,126,-1,170,166,175,-1,175,166,169,-1,175,169,172,-1,172,169,152,-1,172,152,189,-1,189,152,155,-1,189,155,187,-1,187,155,157,-1,187,157,185,-1,185,157,159,-1,185,159,183,-1,183,159,161,-1,183,161,181,-1,181,161,163,-1,181,163,179,-1,179,163,165,-1,179,165,176,-1,176,165,150,-1,176,150,203,-1,203,150,148,-1,203,148,201,-1,201,148,146,-1,201,146,199,-1,199,146,144,-1,199,144,197,-1,197,144,142,-1,197,142,195,-1,195,142,140,-1,195,140,193,-1,193,140,138,-1,193,138,131,-1,208,209,210,-1,210,209,211,-1,209,212,211,-1,211,212,213,-1,212,214,213,-1,213,214,215,-1,214,216,215,-1,215,216,217,-1,216,218,217,-1,217,218,219,-1,218,208,219,-1,219,208,210,-1,216,214,218,-1,218,214,212,-1,218,212,208,-1,208,212,209,-1,
        ]
    }
}
Shape{
    appearance Appearance {
        material  Material 	{
            diffuseColor 0.25098039215686274 0.25098039215686274 0.25098039215686274
            specularColor 0.12549019607843137 0.12549019607843137 0.12549019607843137
            ambientIntensity 0.2
            transparency 0
            shininess 0.5
        }
    }
    geometry IndexedFaceSet {
        ccw TRUE
        solid FALSE
        coord DEF co Coordinate {
            point [
                -0.1876 -0.0016 -0.2205, -0.2271 -0.0016 -0.2205, -0.2052 0.0478 -0.2205, -0.2093 0.0478 -0.2205, -0.2063 0.0519 -0.2205, -0.2082 0.0519 -0.2205, -0.2071 0.0561 -0.2205, -0.2075 0.0561 -0.2205, -0.0672 0.0575 -0.2205, -0.0672 -0.0347 -0.2205, -0.0846 0.0575 -0.2205, -0.0839 -0.0347 -0.2205, -0.0964 -0.0335 -0.2205, -0.1305 0.0125 -0.2205, -0.1295 0.0243 -0.2205, -0.1268 0.0336 -0.2205, -0.0986 0.056 -0.2205, -0.1063 -0.0304 -0.2205, -0.1144 -0.0256 -0.2205, -0.121 -0.0191 -0.2205, -0.126 -0.011 -0.2205, -0.1294 0.0001 -0.2205, -0.1227 0.0409 -0.2205, -0.1169 0.047 -0.2205, -0.1083 0.0526 -0.2205, -0.1083 0.0526 -0.2205
            ]
        }
        coordIndex [
            0,1,2,-1,2,1,3,-1,2,3,4,-1,4,3,5,-1,4,5,6,-1,6,5,7,-1,8,9,10,-1,10,9,11,-1,10,11,12,-1,13,14,10,-1,10,14,15,-1,10,15,16,-1,12,17,10,-1,10,17,18,-1,10,18,19,-1,19,20,10,-1,10,20,21,-1,10,21,13,-1,22,23,15,-1,15,23,24,-1,15,24,16,-1,
        ]
    }
}