#VRML V2.0 utf8
# 3D model generated by easyeda2kicad.py (https://github.com/uPesy/easyeda2kicad.py)

Shape{
    appearance Appearance {
        material  Material 	{
            diffuseColor 0.6470588235294118 0.6196078431372549 0.5882352941176471
            specularColor 0.45098039215686275 0.43529411764705883 0.4117647058823529
            ambientIntensity 0.2
            transparency 0
            shininess 0.5
        }
    }
    geometry IndexedFaceSet {
        ccw TRUE
        solid FALSE
        coord DEF co Coordinate {
            point [
                -0.0466 0.1009 0.0, -0.0466 0.0793 0.0, -0.0706 0.4528 0.0, -0.0514 -0.0743 0.0, -0.0706 -0.0971 0.0, -0.0514 -0.0959 0.0, 0.0542 -0.0959 0.0, 0.0927 -0.0857 0.0, 0.0927 -0.0641 0.0, 0.0542 0.1009 0.0, 0.0278 -0.0071 0.0, 0.0278 -0.0743 0.0, -0.0418 -0.0071 0.0, -0.0418 0.0145 0.0, 0.0278 0.0145 0.0, 0.0278 0.0793 0.0, 0.3567 -0.0959 0.0, 0.1584 -0.0971 0.0, 0.2559 -0.0959 0.0, 0.1711 -0.0958 0.0, 0.1902 -0.0893 0.0, 0.2287 0.0491 0.0, 0.2172 0.0675 0.0, 0.3303 0.1009 0.0, 0.0927 0.0955 0.0, 0.0927 0.0691 0.0, 0.1581 0.0795 0.0, 0.1729 0.0742 0.0, 0.0962 -0.0661 0.0, 0.1865 0.0651 0.0, 0.1984 0.052 0.0, 0.2127 0.0004 0.0, 0.2107 -0.0209 0.0, 0.2053 -0.0379 0.0, 0.1615 -0.0747 0.0, 0.1432 -0.0767 0.0, 0.1759 -0.0694 0.0, 0.188 -0.0613 0.0, 0.1972 -0.0515 0.0, 0.1171 -0.0738 0.0, 0.1148 0.0786 0.0, 0.1388 0.0817 0.0, 0.2065 0.0368 0.0, 0.2117 0.0157 0.0, 0.206 -0.0792 0.0, 0.2208 -0.0636 0.0, 0.2559 -0.0743 0.0, 0.2313 -0.0449 0.0, 0.3303 -0.0743 0.0, 0.1994 0.0846 0.0, 0.1807 0.0953 0.0, 0.1587 0.1017 0.0, 0.2372 -0.024 0.0, 0.2391 -0.0012 0.0, 0.2363 0.0268 0.0, 0.139 0.1033 0.0, 0.1154 0.1017 0.0, 0.1335 -0.0971 0.0, 0.1414 -0.0983 0.0, -0.0706 -0.4528 0.0, 0.1468 -0.0983 0.0, 0.3567 0.1009 0.0, 0.6299 0.4528 0.0, 0.6299 -0.0971 0.0, 0.6299 -0.4528 0.0, -0.6299 -0.4528 0.0, -0.6299 -0.0971 0.0, 0.1136 -0.0944 0.0, -0.3916 -0.0407 0.0, -0.3102 -0.0407 0.0, -0.4115 -0.0959 0.0, -0.2914 -0.0959 0.0, -0.2626 -0.0959 0.0, -0.2384 -0.042 0.0, -0.2271 -0.0596 0.0, -0.4403 -0.0959 0.0, -0.3635 0.1009 0.0, -0.6299 0.4528 0.0, -0.3371 0.1009 0.0, -0.2109 -0.0751 0.0, -0.1904 -0.0871 0.0, -0.1677 -0.0938 0.0, -0.1433 -0.0959 0.0, -0.0898 -0.0959 0.0, -0.0898 0.1009 0.0, -0.1453 0.1009 0.0, -0.2184 0.0752 0.0, -0.2324 0.0598 0.0, -0.2415 0.0429 0.0, -0.1738 0.0979 0.0, -0.1968 0.0898 0.0, -0.2182 0.0754 0.0, -0.2468 0.0235 0.0, -0.2482 0.005 0.0, -0.2455 -0.0214 0.0, -0.2455 -0.0214 0.0
            ]
        }
        coordIndex [
            0,1,2,-1,2,1,3,-1,2,3,4,-1,4,3,5,-1,4,5,6,-1,7,6,8,-1,8,6,9,-1,10,11,12,-1,12,11,3,-1,12,3,13,-1,13,3,1,-1,13,1,14,-1,14,1,15,-1,16,17,18,-1,18,17,19,-1,18,19,20,-1,21,22,23,-1,2,24,25,-1,26,27,28,-1,28,27,29,-1,28,29,30,-1,31,32,28,-1,28,32,33,-1,34,35,36,-1,36,35,37,-1,33,38,28,-1,28,38,37,-1,28,37,39,-1,39,37,35,-1,0,2,9,-1,9,2,25,-1,9,25,8,-1,8,25,40,-1,8,40,28,-1,28,40,41,-1,28,41,26,-1,30,42,28,-1,28,42,43,-1,28,43,31,-1,20,44,18,-1,18,44,45,-1,18,45,46,-1,46,45,47,-1,46,47,48,-1,49,50,2,-1,2,50,51,-1,47,52,48,-1,48,52,53,-1,48,53,23,-1,23,53,54,-1,23,54,21,-1,51,55,2,-1,2,55,56,-1,2,56,24,-1,57,58,59,-1,59,58,60,-1,59,60,17,-1,22,49,23,-1,23,49,2,-1,23,2,61,-1,61,2,62,-1,61,62,16,-1,16,62,63,-1,16,63,17,-1,17,63,64,-1,17,64,59,-1,65,66,59,-1,59,66,4,-1,59,4,57,-1,57,4,6,-1,57,6,67,-1,67,6,7,-1,68,69,70,-1,70,69,71,-1,72,73,74,-1,75,66,76,-1,76,66,77,-1,76,77,78,-1,78,77,2,-1,74,79,72,-1,72,79,80,-1,72,80,81,-1,82,83,4,-1,4,83,84,-1,4,84,2,-1,2,84,85,-1,86,87,78,-1,78,87,88,-1,85,89,2,-1,2,89,90,-1,2,90,78,-1,78,90,91,-1,78,91,86,-1,81,82,72,-1,72,82,4,-1,72,4,71,-1,71,4,66,-1,71,66,70,-1,70,66,75,-1,88,92,78,-1,78,92,93,-1,78,93,72,-1,72,93,94,-1,72,94,73,-1,
        ]
    }
}
Shape{
    appearance Appearance {
        material  Material 	{
            diffuseColor 0.2235294117647059 0.2235294117647059 0.2235294117647059
            specularColor 0.11372549019607843 0.11372549019607843 0.11372549019607843
            ambientIntensity 0.2
            transparency 0
            shininess 0.5
        }
    }
    geometry IndexedFaceSet {
        ccw TRUE
        solid FALSE
        coord DEF co Coordinate {
            point [
                -0.6299 0.4528 0.0394, -0.8826 0.6661 0.0394, 0.6299 0.4528 0.0394, 0.8826 0.6661 0.0394, 0.6299 -0.4528 0.0394, 0.8826 -0.6661 0.0394, -0.6299 -0.4528 0.0394, -0.8826 -0.6661 0.0394, 0.4783 0.7677 0.3346, 0.4783 0.7677 0.4134, 0.7028 0.7677 0.3346, 0.7028 0.7677 0.4134, 0.0846 0.7677 0.3346, 0.0846 0.7677 0.4134, 0.3091 0.7677 0.3346, 0.3091 0.7677 0.4134, -0.3091 0.7677 0.3346, -0.3091 0.7677 0.4134, -0.0846 0.7677 0.3346, -0.0846 0.7677 0.4134, -0.7028 0.7677 0.3346, -0.7028 0.7677 0.4134, -0.4783 0.7677 0.3346, -0.4783 0.7677 0.4134, -0.9252 0.7677 0.3346, -0.9252 0.7677 0.4134, -0.872 0.7677 0.3346, -0.872 0.7677 0.4134, 0.4783 -0.7677 0.4134, 0.4783 -0.7677 0.3346, 0.7028 -0.7677 0.4134, 0.7028 -0.7677 0.3346, 0.0846 -0.7677 0.4134, 0.0846 -0.7677 0.3346, 0.3091 -0.7677 0.4134, 0.3091 -0.7677 0.3346, -0.3091 -0.7677 0.4134, -0.3091 -0.7677 0.3346, -0.0846 -0.7677 0.4134, -0.0846 -0.7677 0.3346, -0.7028 -0.7677 0.4134, -0.7028 -0.7677 0.3346, -0.4783 -0.7677 0.4134, -0.4783 -0.7677 0.3346, -0.9252 -0.7677 0.4134, -0.9252 -0.7677 0.3346, -0.872 -0.7677 0.4134, -0.872 -0.7677 0.3346, 0.9843 0.7087 0.4134, 0.9843 -0.7087 0.4134, 0.9843 0.7087 0.3346, 0.9843 -0.7087 0.3346, 0.872 0.7677 0.4134, 0.9252 0.7677 0.4134, 0.872 0.7677 0.3346, 0.9252 0.7677 0.3346, -0.9843 -0.7087 0.4134, -0.9843 0.7087 0.4134, -0.9843 -0.7087 0.3346, -0.9843 0.7087 0.3346, 0.872 -0.7677 0.3346, 0.9252 -0.7677 0.3346, 0.872 -0.7677 0.4134, 0.9252 -0.7677 0.4134, -0.6294 -0.5288 0.7087, 0.8826 -0.6661 0.7087, -0.6163 -0.5117 0.7087, -0.6081 -0.4918 0.7087, 0.8826 0.6661 0.7087, -0.6465 -0.3989 0.7087, -0.6294 -0.412 0.7087, -0.6163 -0.4291 0.7087, -0.6081 -0.449 0.7087, -0.6053 -0.4704 0.7087, -0.7092 -0.5501 0.7087, -0.7291 -0.5419 0.7087, -0.8826 -0.6661 0.7087, -0.6465 -0.5419 0.7087, -0.6664 -0.5501 0.7087, -0.6878 -0.5529 0.7087, -0.7461 -0.5288 0.7087, -0.7593 -0.5117 0.7087, -0.7675 -0.4918 0.7087, -0.7703 -0.4704 0.7087, -0.7675 -0.449 0.7087, -0.8826 0.6661 0.7087, -0.7593 -0.4291 0.7087, -0.7461 -0.412 0.7087, -0.6664 -0.3907 0.7087, -0.6878 -0.3879 0.7087, -0.7291 -0.3989 0.7087, -0.7092 -0.3907 0.7087, -0.9261 -0.7677 0.3346, -0.8826 -0.7243 0.0882, 0.8826 -0.7243 0.0882, 0.9261 -0.7677 0.3346, 0.9842 -0.7096 0.3346, 0.9408 -0.6661 0.0882, 0.9408 0.6661 0.0882, 0.9842 0.7096 0.3346, -0.9842 0.7096 0.3346, -0.9408 0.6661 0.0882, -0.9408 -0.6661 0.0882, -0.9842 -0.7096 0.3346, -0.8826 0.7243 0.0882, -0.9261 0.7677 0.3346, 0.8826 0.7243 0.0882, 0.9261 0.7677 0.3346, 0.8826 0.7243 0.6599, 0.9261 0.7677 0.4134, -0.8826 0.7243 0.6599, -0.9261 0.7677 0.4134, -0.9842 -0.7096 0.4134, -0.9408 -0.6661 0.6599, -0.9408 0.6661 0.6599, -0.9842 0.7096 0.4134, 0.9842 0.7096 0.4134, 0.9408 0.6661 0.6599, 0.9408 -0.6661 0.6599, 0.9842 -0.7096 0.4134, -0.8826 -0.7243 0.6599, -0.9261 -0.7677 0.4134, 0.8826 -0.7243 0.6599, 0.9261 -0.7677 0.4134, 0.8826 0.7205 0.6726, -0.8826 0.7205 0.6726, 0.8826 0.7203 0.673, -0.8826 0.7203 0.673, 0.8826 0.7137 0.6846, -0.8826 0.7137 0.6846, 0.8826 0.7134 0.6848, -0.8826 0.7134 0.6848, 0.8826 0.7042 0.6947, -0.8826 0.7042 0.6947, 0.8826 0.704 0.6948, -0.8826 0.704 0.6948, 0.8826 0.6927 0.7023, -0.8826 0.6927 0.7023, 0.8826 0.6926 0.7024, -0.8826 0.6926 0.7024, 0.8826 0.6798 0.7071, -0.8826 0.6798 0.7071, 0.8826 0.6797 0.7071, -0.8826 0.6797 0.7071, 0.8925 0.7029 0.6947, 0.8895 0.6918 0.7023, 0.8862 0.6793 0.7071, 0.8895 0.678 0.7071, 0.8945 0.6729 0.7071, 0.8923 0.6758 0.7071, 0.8959 0.6696 0.7071, 0.8967 0.7186 0.6726, 0.8976 0.7218 0.6621, 0.8974 0.7219 0.6621, 0.9112 0.7159 0.6634, 0.9098 0.7132 0.6726, 0.9113 0.7158 0.6634, 0.9211 0.7046 0.6726, 0.9232 0.7066 0.6639, 0.9297 0.6933 0.6726, 0.9323 0.6948 0.6634, 0.9324 0.6947 0.6634, 0.9352 0.6802 0.6726, 0.9384 0.681 0.6621, 0.9384 0.6809 0.6621, 0.937 0.6661 0.6726, 0.8963 0.6661 0.7071, 0.896 0.6892 0.7023, 0.9015 0.6849 0.7023, 0.9057 0.6794 0.7023, 0.9084 0.673 0.7023, 0.8963 0.6661 0.7071, 0.9091 0.6661 0.7024, 0.9093 0.6661 0.7023, 0.9206 0.6661 0.6948, 0.9017 0.6991 0.6947, 0.9096 0.6931 0.6947, 0.9157 0.6852 0.6947, 0.9195 0.676 0.6947, 0.8949 0.712 0.6846, 0.9064 0.7073 0.6846, 0.9163 0.6997 0.6846, 0.9238 0.6899 0.6846, 0.9286 0.6784 0.6846, 0.9208 0.6661 0.6947, 0.93 0.6661 0.6848, 0.9302 0.6661 0.6846, 0.9368 0.6661 0.673, -0.93 0.6661 0.6848, -0.9208 0.6661 0.6947, -0.9195 0.676 0.6947, -0.9084 0.673 0.7023, -0.8959 0.6696 0.7071, -0.8945 0.6729 0.7071, -0.8895 0.678 0.7071, -0.8923 0.6758 0.7071, -0.8862 0.6793 0.7071, -0.8963 0.6661 0.7071, -0.9352 0.6802 0.6726, -0.9384 0.681 0.6621, -0.9384 0.6809 0.6621, -0.9324 0.6947 0.6634, -0.9297 0.6933 0.6726, -0.9323 0.6948 0.6634, -0.9211 0.7046 0.6726, -0.9232 0.7066 0.6639, -0.9098 0.7132 0.6726, -0.9113 0.7158 0.6634, -0.9112 0.7159 0.6634, -0.8967 0.7186 0.6726, -0.8976 0.7218 0.6621, -0.8974 0.7219 0.6621, -0.9206 0.6661 0.6948, -0.9093 0.6661 0.7023, -0.9091 0.6661 0.7024, -0.8963 0.6661 0.7071, -0.9057 0.6794 0.7023, -0.9015 0.6849 0.7023, -0.896 0.6892 0.7023, -0.8895 0.6918 0.7023, -0.9157 0.6852 0.6947, -0.9096 0.6931 0.6947, -0.9017 0.6991 0.6947, -0.8925 0.7029 0.6947, -0.9368 0.6661 0.673, -0.9302 0.6661 0.6846, -0.9286 0.6784 0.6846, -0.9238 0.6899 0.6846, -0.9163 0.6997 0.6846, -0.9064 0.7073 0.6846, -0.8949 0.712 0.6846, -0.937 0.6661 0.6726, 0.937 -0.6661 0.6726, 0.9368 -0.6661 0.673, 0.9302 -0.6661 0.6846, 0.93 -0.6661 0.6848, 0.9208 -0.6661 0.6947, 0.9206 -0.6661 0.6948, 0.9093 -0.6661 0.7023, 0.9091 -0.6661 0.7024, 0.8963 -0.6661 0.7071, 0.8963 -0.6661 0.7071, 0.955 0.7597 0.4152, 0.9547 0.7598 0.4152, 0.9411 0.7655 0.4145, 0.9405 0.7656 0.4145, 0.967 0.7504 0.4155, 0.9762 0.7384 0.4152, 0.9763 0.7382 0.4152, 0.9821 0.7245 0.4145, 0.9822 0.7239 0.4145, -0.9762 0.7384 0.4152, -0.9763 0.7382 0.4152, -0.9821 0.7245 0.4145, -0.9822 0.7239 0.4145, -0.967 0.7504 0.4155, -0.955 0.7597 0.4152, -0.9547 0.7598 0.4152, -0.9411 0.7655 0.4145, -0.9405 0.7656 0.4145, -0.937 -0.6661 0.6726, -0.9368 -0.6661 0.673, -0.9302 -0.6661 0.6846, -0.93 -0.6661 0.6848, -0.9208 -0.6661 0.6947, -0.9206 -0.6661 0.6948, -0.9093 -0.6661 0.7023, -0.9091 -0.6661 0.7024, -0.8963 -0.6661 0.7071, -0.8963 -0.6661 0.7071, -0.8826 -0.7205 0.6726, 0.8826 -0.7205 0.6726, -0.8826 -0.7203 0.673, 0.8826 -0.7203 0.673, -0.8826 -0.7137 0.6846, 0.8826 -0.7137 0.6846, -0.8826 -0.7134 0.6848, 0.8826 -0.7134 0.6848, -0.8826 -0.7042 0.6947, 0.8826 -0.7042 0.6947, -0.8826 -0.704 0.6948, 0.8826 -0.704 0.6948, -0.8826 -0.6927 0.7023, 0.8826 -0.6927 0.7023, -0.8826 -0.6926 0.7024, 0.8826 -0.6926 0.7024, -0.8826 -0.6798 0.7071, 0.8826 -0.6798 0.7071, -0.8826 -0.6797 0.7071, 0.8826 -0.6797 0.7071, 0.9195 -0.676 0.6947, 0.9084 -0.673 0.7023, 0.8959 -0.6696 0.7071, 0.8945 -0.6729 0.7071, 0.8895 -0.678 0.7071, 0.8923 -0.6758 0.7071, 0.8862 -0.6793 0.7071, 0.9352 -0.6802 0.6726, 0.9384 -0.681 0.6621, 0.9384 -0.6809 0.6621, 0.9324 -0.6947 0.6634, 0.9297 -0.6933 0.6726, 0.9323 -0.6948 0.6634, 0.9211 -0.7046 0.6726, 0.9232 -0.7066 0.6639, 0.9098 -0.7132 0.6726, 0.9113 -0.7158 0.6634, 0.9112 -0.7159 0.6634, 0.8967 -0.7186 0.6726, 0.8976 -0.7218 0.6621, 0.8974 -0.7219 0.6621, 0.9057 -0.6794 0.7023, 0.9015 -0.6849 0.7023, 0.896 -0.6892 0.7023, 0.8895 -0.6918 0.7023, 0.9157 -0.6852 0.6947, 0.9096 -0.6931 0.6947, 0.9017 -0.6991 0.6947, 0.8925 -0.7029 0.6947, 0.9286 -0.6784 0.6846, 0.9238 -0.6899 0.6846, 0.9163 -0.6997 0.6846, 0.9064 -0.7073 0.6846, 0.8949 -0.712 0.6846, 0.9405 0.7656 0.3335, 0.9411 0.7655 0.3335, 0.9547 0.7598 0.3328, 0.955 0.7597 0.3328, 0.967 0.7504 0.3326, 0.9762 0.7384 0.3328, 0.9763 0.7382 0.3328, 0.9821 0.7245 0.3335, 0.9822 0.7239 0.3335, -0.9822 0.7239 0.3335, -0.9821 0.7245 0.3335, -0.9763 0.7382 0.3328, -0.9762 0.7384 0.3328, -0.967 0.7504 0.3326, -0.955 0.7597 0.3328, -0.9547 0.7598 0.3328, -0.9411 0.7655 0.3335, -0.9405 0.7656 0.3335, -0.8925 -0.7029 0.6947, -0.8895 -0.6918 0.7023, -0.8862 -0.6793 0.7071, -0.8895 -0.678 0.7071, -0.8945 -0.6729 0.7071, -0.8923 -0.6758 0.7071, -0.8959 -0.6696 0.7071, -0.8967 -0.7186 0.6726, -0.8976 -0.7218 0.6621, -0.8974 -0.7219 0.6621, -0.9112 -0.7159 0.6634, -0.9098 -0.7132 0.6726, -0.9113 -0.7158 0.6634, -0.9211 -0.7046 0.6726, -0.9232 -0.7066 0.6639, -0.9297 -0.6933 0.6726, -0.9323 -0.6948 0.6634, -0.9324 -0.6947 0.6634, -0.9352 -0.6802 0.6726, -0.9384 -0.681 0.6621, -0.9384 -0.6809 0.6621, -0.896 -0.6892 0.7023, -0.9015 -0.6849 0.7023, -0.9057 -0.6794 0.7023, -0.9084 -0.673 0.7023, -0.9017 -0.6991 0.6947, -0.9096 -0.6931 0.6947, -0.9157 -0.6852 0.6947, -0.9195 -0.676 0.6947, -0.8949 -0.712 0.6846, -0.9064 -0.7073 0.6846, -0.9163 -0.6997 0.6846, -0.9238 -0.6899 0.6846, -0.9286 -0.6784 0.6846, 0.9762 -0.7384 0.4152, 0.9763 -0.7382 0.4152, 0.9821 -0.7245 0.4145, 0.9822 -0.7239 0.4145, 0.967 -0.7504 0.4155, 0.955 -0.7597 0.4152, 0.9547 -0.7598 0.4152, 0.9411 -0.7655 0.4145, 0.9405 -0.7656 0.4145, 0.9388 0.6789 0.0863, 0.9384 0.6809 0.086, 0.9341 0.6909 0.085, 0.9324 0.6947 0.0846, 0.9271 0.7016 0.0843, 0.8955 0.7222 0.0863, 0.8974 0.7219 0.086, 0.9074 0.7175 0.085, 0.9112 0.7159 0.0846, 0.9181 0.7106 0.0843, 0.9232 0.7066 0.0841, -0.8826 0.7205 0.0754, 0.8826 0.7205 0.0754, -0.8826 0.7203 0.0751, 0.8826 0.7203 0.0751, -0.8826 0.7137 0.0634, 0.8826 0.7137 0.0634, -0.8826 0.7134 0.0632, 0.8826 0.7134 0.0632, -0.8826 0.7042 0.0533, 0.8826 0.7042 0.0533, -0.8826 0.704 0.0532, 0.8826 0.704 0.0532, -0.8826 0.6927 0.0457, 0.8826 0.6927 0.0457, -0.8826 0.6926 0.0457, 0.8826 0.6926 0.0457, -0.8826 0.6798 0.041, 0.8826 0.6798 0.041, -0.8826 0.6797 0.041, 0.8826 0.6797 0.041, -0.8974 0.7219 0.086, -0.8976 0.7218 0.086, -0.9112 0.7159 0.0846, -0.9113 0.7158 0.0846, -0.9232 0.7066 0.0841, -0.9323 0.6948 0.0846, -0.9324 0.6947 0.0846, -0.9384 0.681 0.086, -0.9384 0.6809 0.086, -0.955 -0.7597 0.4152, -0.9547 -0.7598 0.4152, -0.9411 -0.7655 0.4145, -0.9405 -0.7656 0.4145, -0.967 -0.7504 0.4155, -0.9762 -0.7384 0.4152, -0.9763 -0.7382 0.4152, -0.9821 -0.7245 0.4145, -0.9822 -0.7239 0.4145, 0.9405 -0.7656 0.3335, 0.9411 -0.7655 0.3335, 0.9547 -0.7598 0.3328, 0.955 -0.7597 0.3328, 0.967 -0.7504 0.3326, 0.9762 -0.7384 0.3328, 0.9763 -0.7382 0.3328, 0.9821 -0.7245 0.3335, 0.9822 -0.7239 0.3335, 0.8963 0.6661 0.041, 0.896 0.6691 0.041, 0.8912 0.6768 0.041, 0.8933 0.6746 0.041, 0.8886 0.6921 0.0457, 0.8911 0.7033 0.0533, 0.8932 0.7125 0.0634, 0.8947 0.7191 0.0754, 0.9062 0.7151 0.0754, 0.9316 0.6897 0.0754, 0.9357 0.6782 0.0754, 0.9165 0.7086 0.0754, 0.937 0.6661 0.0754, 0.9368 0.6661 0.0751, 0.929 0.6767 0.0634, 0.9033 0.709 0.0634, 0.9302 0.6661 0.0634, 0.93 0.6661 0.0632, 0.9198 0.6746 0.0533, 0.8992 0.7005 0.0533, 0.9123 0.7033 0.0634, 0.9252 0.7 0.0754, 0.9208 0.6661 0.0533, 0.9206 0.6661 0.0532, 0.9086 0.672 0.0457, 0.9198 0.6958 0.0634, 0.9064 0.6959 0.0533, 0.8942 0.6901 0.0457, 0.8857 0.6795 0.041, 0.9035 0.6827 0.0457, 0.9255 0.6867 0.0634, 0.917 0.6827 0.0533, 0.9066 0.6777 0.0457, 0.895 0.672 0.041, 0.9125 0.6899 0.0533, 0.8993 0.6869 0.0457, 0.8886 0.6784 0.041, 0.9093 0.6661 0.0457, 0.9091 0.6661 0.0457, 0.8963 0.6661 0.041, -0.8862 0.6793 0.041, -0.9091 0.6661 0.0457, -0.9093 0.6661 0.0457, -0.9084 0.673 0.0457, -0.9206 0.6661 0.0532, -0.9208 0.6661 0.0533, -0.9195 0.676 0.0533, -0.9286 0.6784 0.0634, -0.9352 0.6802 0.0754, -0.9297 0.6933 0.0754, -0.8967 0.7186 0.0754, -0.937 0.6661 0.0754, -0.9368 0.6661 0.0751, -0.9302 0.6661 0.0634, -0.93 0.6661 0.0632, -0.8949 0.712 0.0634, -0.9238 0.6899 0.0634, -0.9211 0.7046 0.0754, -0.8925 0.7029 0.0533, -0.9157 0.6852 0.0533, -0.9163 0.6997 0.0634, -0.8895 0.6918 0.0457, -0.9096 0.6931 0.0533, -0.9057 0.6794 0.0457, -0.8959 0.6696 0.041, -0.9098 0.7132 0.0754, -0.9064 0.7073 0.0634, -0.9017 0.6991 0.0533, -0.896 0.6892 0.0457, -0.8895 0.678 0.041, -0.8963 0.6661 0.041, -0.8963 0.6661 0.041, -0.9015 0.6849 0.0457, -0.8945 0.6729 0.041, -0.8923 0.6758 0.041, -0.9405 -0.7656 0.3335, -0.9411 -0.7655 0.3335, -0.9547 -0.7598 0.3328, -0.955 -0.7597 0.3328, -0.967 -0.7504 0.3326, -0.9762 -0.7384 0.3328, -0.9763 -0.7382 0.3328, -0.9821 -0.7245 0.3335, -0.9822 -0.7239 0.3335, 0.8974 -0.7219 0.086, 0.8976 -0.7218 0.086, 0.9112 -0.7159 0.0846, 0.9113 -0.7158 0.0846, 0.9232 -0.7066 0.0841, 0.9323 -0.6948 0.0846, 0.9324 -0.6947 0.0846, 0.9384 -0.681 0.086, 0.9384 -0.6809 0.086, 0.937 -0.6661 0.0754, 0.9368 -0.6661 0.0751, 0.9302 -0.6661 0.0634, 0.93 -0.6661 0.0632, 0.9208 -0.6661 0.0533, 0.9206 -0.6661 0.0532, 0.9093 -0.6661 0.0457, 0.9091 -0.6661 0.0457, 0.8963 -0.6661 0.041, 0.8963 -0.6661 0.041, -0.937 -0.6661 0.0754, -0.9368 -0.6661 0.0751, -0.9302 -0.6661 0.0634, -0.93 -0.6661 0.0632, -0.9208 -0.6661 0.0533, -0.9206 -0.6661 0.0532, -0.9093 -0.6661 0.0457, -0.9091 -0.6661 0.0457, -0.8963 -0.6661 0.041, -0.8963 -0.6661 0.041, -0.9384 -0.6809 0.086, -0.9384 -0.681 0.086, -0.9324 -0.6947 0.0846, -0.9323 -0.6948 0.0846, -0.9232 -0.7066 0.0841, -0.9113 -0.7158 0.0846, -0.9112 -0.7159 0.0846, -0.8976 -0.7218 0.086, -0.8974 -0.7219 0.086, 0.8826 -0.6797 0.041, 0.8862 -0.6793 0.041, 0.9084 -0.673 0.0457, 0.9195 -0.676 0.0533, 0.9286 -0.6784 0.0634, 0.9352 -0.6802 0.0754, 0.9297 -0.6933 0.0754, 0.8826 -0.7205 0.0754, 0.8967 -0.7186 0.0754, 0.8826 -0.7203 0.0751, 0.8949 -0.712 0.0634, 0.9238 -0.6899 0.0634, 0.9211 -0.7046 0.0754, 0.8826 -0.7137 0.0634, 0.8826 -0.7134 0.0632, 0.8925 -0.7029 0.0533, 0.9157 -0.6852 0.0533, 0.9163 -0.6997 0.0634, 0.8826 -0.7042 0.0533, 0.8826 -0.704 0.0532, 0.8895 -0.6918 0.0457, 0.9096 -0.6931 0.0533, 0.9057 -0.6794 0.0457, 0.8959 -0.6696 0.041, 0.9098 -0.7132 0.0754, 0.9064 -0.7073 0.0634, 0.9017 -0.6991 0.0533, 0.896 -0.6892 0.0457, 0.8895 -0.678 0.041, 0.9015 -0.6849 0.0457, 0.8945 -0.6729 0.041, 0.8923 -0.6758 0.041, 0.8826 -0.6927 0.0457, 0.8826 -0.6926 0.0457, 0.8826 -0.6798 0.041, -0.8959 -0.6696 0.041, -0.8826 -0.6926 0.0457, -0.8826 -0.6927 0.0457, -0.8895 -0.6918 0.0457, -0.8826 -0.704 0.0532, -0.8826 -0.7042 0.0533, -0.8925 -0.7029 0.0533, -0.8949 -0.712 0.0634, -0.8967 -0.7186 0.0754, -0.9098 -0.7132 0.0754, -0.9352 -0.6802 0.0754, -0.8826 -0.7205 0.0754, -0.8826 -0.7203 0.0751, -0.8826 -0.7137 0.0634, -0.8826 -0.7134 0.0632, -0.9286 -0.6784 0.0634, -0.9064 -0.7073 0.0634, -0.9211 -0.7046 0.0754, -0.9195 -0.676 0.0533, -0.9017 -0.6991 0.0533, -0.9163 -0.6997 0.0634, -0.9084 -0.673 0.0457, -0.9096 -0.6931 0.0533, -0.896 -0.6892 0.0457, -0.8862 -0.6793 0.041, -0.9297 -0.6933 0.0754, -0.9238 -0.6899 0.0634, -0.9157 -0.6852 0.0533, -0.9057 -0.6794 0.0457, -0.8945 -0.6729 0.041, -0.8826 -0.6797 0.041, -0.8826 -0.6798 0.041, -0.9015 -0.6849 0.0457, -0.8895 -0.678 0.041, -0.8923 -0.6758 0.041, -0.8923 -0.6758 0.041
            ]
        }
        coordIndex [
            0,1,2,-1,2,1,3,-1,2,3,4,-1,4,3,5,-1,4,5,6,-1,6,5,7,-1,6,7,0,-1,0,7,1,-1,8,9,10,-1,10,9,11,-1,12,13,14,-1,14,13,15,-1,16,17,18,-1,18,17,19,-1,20,21,22,-1,22,21,23,-1,24,25,26,-1,26,25,27,-1,28,29,30,-1,30,29,31,-1,32,33,34,-1,34,33,35,-1,36,37,38,-1,38,37,39,-1,40,41,42,-1,42,41,43,-1,44,45,46,-1,46,45,47,-1,48,49,50,-1,50,49,51,-1,52,53,54,-1,54,53,55,-1,56,57,58,-1,58,57,59,-1,60,61,62,-1,62,61,63,-1,64,65,66,-1,66,65,67,-1,68,69,70,-1,70,71,68,-1,68,71,72,-1,68,72,65,-1,65,72,73,-1,65,73,67,-1,74,75,76,-1,64,77,65,-1,65,77,78,-1,65,78,76,-1,76,78,79,-1,76,79,74,-1,75,80,76,-1,76,80,81,-1,76,81,82,-1,82,83,76,-1,76,83,84,-1,76,84,85,-1,85,84,86,-1,85,86,87,-1,69,68,88,-1,88,68,85,-1,88,85,89,-1,87,90,85,-1,85,90,91,-1,85,91,89,-1,45,92,93,-1,94,95,61,-1,61,60,94,-1,94,60,31,-1,94,31,29,-1,29,35,94,-1,94,35,33,-1,94,33,93,-1,33,39,93,-1,93,39,37,-1,93,37,43,-1,43,41,93,-1,93,41,47,-1,93,47,45,-1,51,96,97,-1,51,97,50,-1,50,97,98,-1,50,98,99,-1,59,100,101,-1,59,101,58,-1,58,101,102,-1,58,102,103,-1,104,105,24,-1,24,26,104,-1,104,26,20,-1,104,20,22,-1,12,106,18,-1,18,106,104,-1,18,104,16,-1,16,104,22,-1,12,14,106,-1,106,14,8,-1,106,8,10,-1,10,54,106,-1,106,54,55,-1,106,55,107,-1,108,109,53,-1,53,52,108,-1,108,52,11,-1,108,11,9,-1,19,110,13,-1,13,110,108,-1,13,108,15,-1,15,108,9,-1,19,17,110,-1,110,17,23,-1,110,23,21,-1,21,27,110,-1,110,27,25,-1,110,25,111,-1,56,112,113,-1,56,113,57,-1,57,113,114,-1,57,114,115,-1,48,116,117,-1,48,117,49,-1,49,117,118,-1,49,118,119,-1,120,121,44,-1,44,46,120,-1,120,46,40,-1,120,40,42,-1,32,122,38,-1,38,122,120,-1,38,120,36,-1,36,120,42,-1,32,34,122,-1,122,34,28,-1,122,28,30,-1,30,62,122,-1,122,62,63,-1,122,63,123,-1,108,110,124,-1,124,110,125,-1,124,125,126,-1,126,125,127,-1,126,127,128,-1,128,127,129,-1,128,129,130,-1,130,129,131,-1,130,131,132,-1,132,131,133,-1,132,133,134,-1,134,133,135,-1,134,135,136,-1,136,135,137,-1,136,137,138,-1,138,137,139,-1,138,139,140,-1,140,139,141,-1,140,141,142,-1,141,143,142,-1,142,143,85,-1,142,85,68,-1,130,132,144,-1,145,146,147,-1,68,148,149,-1,150,148,68,-1,147,146,68,-1,142,68,146,-1,151,152,153,-1,152,151,154,-1,154,151,155,-1,154,155,156,-1,156,155,157,-1,156,157,158,-1,158,157,159,-1,158,159,160,-1,160,159,161,-1,161,159,162,-1,161,162,163,-1,163,162,164,-1,164,162,165,-1,164,165,117,-1,166,150,68,-1,134,136,145,-1,145,136,138,-1,145,138,146,-1,146,138,140,-1,146,140,142,-1,167,149,168,-1,168,149,148,-1,168,148,169,-1,169,148,150,-1,169,150,170,-1,166,171,150,-1,150,171,172,-1,150,172,170,-1,170,172,173,-1,170,173,174,-1,144,167,175,-1,175,167,168,-1,175,168,176,-1,176,168,169,-1,176,169,177,-1,177,169,170,-1,177,170,178,-1,178,170,174,-1,126,128,179,-1,179,128,130,-1,130,144,179,-1,179,144,175,-1,179,175,180,-1,180,175,176,-1,180,176,181,-1,181,176,177,-1,181,177,182,-1,182,177,178,-1,182,178,183,-1,132,134,144,-1,144,134,145,-1,144,145,167,-1,167,145,147,-1,167,147,149,-1,149,147,68,-1,126,151,124,-1,124,151,153,-1,124,153,108,-1,174,184,178,-1,178,184,185,-1,178,185,183,-1,183,185,186,-1,183,186,187,-1,126,179,151,-1,151,179,180,-1,151,180,155,-1,155,180,181,-1,155,181,157,-1,157,181,182,-1,157,182,159,-1,159,182,183,-1,159,183,162,-1,162,183,187,-1,162,187,165,-1,188,189,190,-1,191,192,193,-1,85,194,195,-1,196,194,85,-1,193,192,85,-1,197,85,192,-1,198,199,200,-1,199,198,201,-1,201,198,202,-1,201,202,203,-1,203,202,204,-1,203,204,205,-1,205,204,206,-1,205,206,207,-1,207,206,208,-1,208,206,209,-1,208,209,210,-1,210,209,211,-1,211,209,125,-1,211,125,110,-1,143,196,85,-1,212,213,191,-1,191,213,214,-1,191,214,192,-1,192,214,215,-1,192,215,197,-1,216,195,217,-1,217,195,194,-1,217,194,218,-1,218,194,196,-1,218,196,219,-1,143,141,196,-1,196,141,139,-1,196,139,219,-1,219,139,137,-1,219,137,135,-1,190,216,220,-1,220,216,217,-1,220,217,221,-1,221,217,218,-1,221,218,222,-1,222,218,219,-1,222,219,223,-1,223,219,135,-1,224,225,226,-1,226,225,188,-1,188,190,226,-1,226,190,220,-1,226,220,227,-1,227,220,221,-1,227,221,228,-1,228,221,222,-1,228,222,229,-1,229,222,223,-1,229,223,230,-1,189,212,190,-1,190,212,191,-1,190,191,216,-1,216,191,193,-1,216,193,195,-1,195,193,85,-1,224,198,231,-1,231,198,200,-1,231,200,114,-1,135,133,223,-1,223,133,131,-1,223,131,230,-1,230,131,129,-1,230,129,127,-1,224,226,198,-1,198,226,227,-1,198,227,202,-1,202,227,228,-1,202,228,204,-1,204,228,229,-1,204,229,206,-1,206,229,230,-1,206,230,209,-1,209,230,127,-1,209,127,125,-1,118,117,232,-1,232,117,165,-1,232,165,233,-1,233,165,187,-1,233,187,234,-1,234,187,186,-1,234,186,235,-1,235,186,185,-1,235,185,236,-1,236,185,184,-1,236,184,237,-1,237,184,174,-1,237,174,238,-1,238,174,173,-1,238,173,239,-1,239,173,172,-1,239,172,240,-1,240,172,171,-1,240,171,241,-1,171,166,241,-1,241,166,68,-1,241,68,65,-1,242,243,153,-1,153,243,244,-1,153,244,108,-1,108,244,245,-1,108,245,109,-1,153,152,242,-1,242,152,154,-1,242,154,246,-1,246,154,156,-1,156,158,246,-1,246,158,160,-1,246,160,247,-1,247,160,161,-1,247,161,248,-1,248,161,163,-1,248,163,249,-1,249,163,164,-1,249,164,250,-1,250,164,117,-1,250,117,116,-1,251,252,200,-1,200,252,253,-1,200,253,114,-1,114,253,254,-1,114,254,115,-1,200,199,251,-1,251,199,201,-1,251,201,255,-1,255,201,203,-1,203,205,255,-1,255,205,207,-1,255,207,256,-1,256,207,208,-1,256,208,257,-1,257,208,210,-1,257,210,258,-1,258,210,211,-1,258,211,259,-1,259,211,110,-1,259,110,111,-1,114,113,231,-1,231,113,260,-1,231,260,224,-1,224,260,261,-1,224,261,225,-1,225,261,262,-1,225,262,188,-1,188,262,263,-1,188,263,189,-1,189,263,264,-1,189,264,212,-1,212,264,265,-1,212,265,213,-1,213,265,266,-1,213,266,214,-1,214,266,267,-1,214,267,215,-1,215,267,268,-1,215,268,197,-1,268,269,197,-1,197,269,76,-1,197,76,85,-1,120,122,270,-1,270,122,271,-1,270,271,272,-1,272,271,273,-1,272,273,274,-1,274,273,275,-1,274,275,276,-1,276,275,277,-1,276,277,278,-1,278,277,279,-1,278,279,280,-1,280,279,281,-1,280,281,282,-1,282,281,283,-1,282,283,284,-1,284,283,285,-1,284,285,286,-1,286,285,287,-1,286,287,288,-1,287,289,288,-1,288,289,65,-1,288,65,76,-1,235,236,290,-1,291,292,293,-1,65,294,295,-1,296,294,65,-1,293,292,65,-1,241,65,292,-1,297,298,299,-1,298,297,300,-1,300,297,301,-1,300,301,302,-1,302,301,303,-1,302,303,304,-1,304,303,305,-1,304,305,306,-1,306,305,307,-1,307,305,308,-1,307,308,309,-1,309,308,310,-1,310,308,271,-1,310,271,122,-1,289,296,65,-1,237,238,291,-1,291,238,239,-1,291,239,292,-1,292,239,240,-1,292,240,241,-1,311,295,312,-1,312,295,294,-1,312,294,313,-1,313,294,296,-1,313,296,314,-1,289,287,296,-1,296,287,285,-1,296,285,314,-1,314,285,283,-1,314,283,281,-1,290,311,315,-1,315,311,312,-1,315,312,316,-1,316,312,313,-1,316,313,317,-1,317,313,314,-1,317,314,318,-1,318,314,281,-1,233,234,319,-1,319,234,235,-1,235,290,319,-1,319,290,315,-1,319,315,320,-1,320,315,316,-1,320,316,321,-1,321,316,317,-1,321,317,322,-1,322,317,318,-1,322,318,323,-1,236,237,290,-1,290,237,291,-1,290,291,311,-1,311,291,293,-1,311,293,295,-1,295,293,65,-1,233,297,232,-1,232,297,299,-1,232,299,118,-1,281,279,318,-1,318,279,277,-1,318,277,323,-1,323,277,275,-1,323,275,273,-1,233,319,297,-1,297,319,320,-1,297,320,301,-1,301,320,321,-1,301,321,303,-1,303,321,322,-1,303,322,305,-1,305,322,323,-1,305,323,308,-1,308,323,273,-1,308,273,271,-1,55,53,107,-1,107,53,109,-1,107,109,324,-1,324,109,245,-1,324,245,325,-1,325,245,244,-1,325,244,326,-1,326,244,243,-1,326,243,327,-1,327,243,242,-1,327,242,328,-1,328,242,246,-1,328,246,329,-1,329,246,247,-1,329,247,330,-1,330,247,248,-1,330,248,331,-1,331,248,249,-1,331,249,332,-1,332,249,250,-1,332,250,99,-1,99,250,116,-1,99,116,50,-1,50,116,48,-1,59,57,100,-1,100,57,115,-1,100,115,333,-1,333,115,254,-1,333,254,334,-1,334,254,253,-1,334,253,335,-1,335,253,252,-1,335,252,336,-1,336,252,251,-1,336,251,337,-1,337,251,255,-1,337,255,338,-1,338,255,256,-1,338,256,339,-1,339,256,257,-1,339,257,340,-1,340,257,258,-1,340,258,341,-1,341,258,259,-1,341,259,105,-1,105,259,111,-1,105,111,24,-1,24,111,25,-1,276,278,342,-1,343,344,345,-1,76,346,347,-1,348,346,76,-1,345,344,76,-1,288,76,344,-1,349,350,351,-1,350,349,352,-1,352,349,353,-1,352,353,354,-1,354,353,355,-1,354,355,356,-1,356,355,357,-1,356,357,358,-1,358,357,359,-1,359,357,360,-1,359,360,361,-1,361,360,362,-1,362,360,260,-1,362,260,113,-1,269,348,76,-1,280,282,343,-1,343,282,284,-1,343,284,344,-1,344,284,286,-1,344,286,288,-1,363,347,364,-1,364,347,346,-1,364,346,365,-1,365,346,348,-1,365,348,366,-1,269,268,348,-1,348,268,267,-1,348,267,366,-1,366,267,266,-1,366,266,265,-1,342,363,367,-1,367,363,364,-1,367,364,368,-1,368,364,365,-1,368,365,369,-1,369,365,366,-1,369,366,370,-1,370,366,265,-1,272,274,371,-1,371,274,276,-1,276,342,371,-1,371,342,367,-1,371,367,372,-1,372,367,368,-1,372,368,373,-1,373,368,369,-1,373,369,374,-1,374,369,370,-1,374,370,375,-1,278,280,342,-1,342,280,343,-1,342,343,363,-1,363,343,345,-1,363,345,347,-1,347,345,76,-1,272,349,270,-1,270,349,351,-1,270,351,120,-1,265,264,370,-1,370,264,263,-1,370,263,375,-1,375,263,262,-1,375,262,261,-1,272,371,349,-1,349,371,372,-1,349,372,353,-1,353,372,373,-1,353,373,355,-1,355,373,374,-1,355,374,357,-1,357,374,375,-1,357,375,360,-1,360,375,261,-1,360,261,260,-1,376,377,299,-1,299,377,378,-1,299,378,118,-1,118,378,379,-1,118,379,119,-1,299,298,376,-1,376,298,300,-1,376,300,380,-1,380,300,302,-1,302,304,380,-1,380,304,306,-1,380,306,381,-1,381,306,307,-1,381,307,382,-1,382,307,309,-1,382,309,383,-1,383,309,310,-1,383,310,384,-1,384,310,122,-1,384,122,123,-1,99,98,332,-1,332,98,385,-1,332,385,331,-1,331,385,386,-1,331,386,330,-1,330,386,387,-1,330,387,329,-1,387,388,329,-1,329,388,389,-1,329,389,328,-1,106,107,390,-1,390,107,324,-1,390,324,391,-1,391,324,325,-1,391,325,392,-1,392,325,326,-1,392,326,393,-1,393,326,327,-1,393,327,394,-1,394,327,328,-1,394,328,395,-1,395,328,389,-1,104,106,396,-1,396,106,397,-1,396,397,398,-1,398,397,399,-1,398,399,400,-1,400,399,401,-1,400,401,402,-1,402,401,403,-1,402,403,404,-1,404,403,405,-1,404,405,406,-1,406,405,407,-1,406,407,408,-1,408,407,409,-1,408,409,410,-1,410,409,411,-1,410,411,412,-1,412,411,413,-1,412,413,414,-1,413,415,414,-1,414,415,3,-1,414,3,1,-1,338,339,416,-1,416,339,340,-1,416,340,104,-1,104,340,341,-1,104,341,105,-1,416,417,338,-1,338,417,418,-1,338,418,337,-1,337,418,419,-1,419,420,337,-1,337,420,421,-1,337,421,336,-1,336,421,422,-1,336,422,335,-1,335,422,423,-1,335,423,334,-1,334,423,424,-1,334,424,333,-1,333,424,101,-1,333,101,100,-1,425,426,351,-1,351,426,427,-1,351,427,120,-1,120,427,428,-1,120,428,121,-1,351,350,425,-1,425,350,352,-1,425,352,429,-1,429,352,354,-1,354,356,429,-1,429,356,358,-1,429,358,430,-1,430,358,359,-1,430,359,431,-1,431,359,361,-1,431,361,432,-1,432,361,362,-1,432,362,433,-1,433,362,113,-1,433,113,112,-1,63,61,123,-1,123,61,95,-1,123,95,384,-1,384,95,434,-1,384,434,383,-1,383,434,435,-1,383,435,382,-1,382,435,436,-1,382,436,381,-1,381,436,437,-1,381,437,380,-1,380,437,438,-1,380,438,376,-1,376,438,439,-1,376,439,377,-1,377,439,440,-1,377,440,378,-1,378,440,441,-1,378,441,379,-1,379,441,442,-1,379,442,119,-1,119,442,96,-1,119,96,49,-1,49,96,51,-1,443,3,444,-1,445,446,3,-1,411,409,447,-1,407,405,448,-1,449,450,451,-1,388,387,452,-1,386,385,453,-1,453,385,98,-1,454,394,395,-1,451,392,393,-1,392,451,391,-1,391,451,450,-1,391,450,390,-1,106,390,397,-1,397,390,450,-1,397,450,399,-1,399,450,449,-1,399,449,401,-1,401,449,403,-1,98,455,453,-1,453,455,456,-1,453,456,457,-1,405,403,448,-1,448,403,449,-1,448,449,458,-1,458,449,451,-1,458,451,454,-1,454,451,393,-1,454,393,394,-1,456,459,457,-1,457,459,460,-1,457,460,461,-1,409,407,447,-1,447,407,448,-1,447,448,462,-1,462,448,458,-1,462,458,463,-1,463,458,454,-1,463,454,464,-1,464,454,395,-1,464,395,389,-1,460,465,461,-1,461,465,466,-1,461,466,467,-1,464,468,463,-1,463,468,469,-1,463,469,462,-1,462,469,470,-1,462,470,447,-1,447,470,471,-1,447,471,411,-1,446,445,472,-1,387,386,452,-1,452,386,453,-1,452,453,473,-1,473,453,457,-1,473,457,474,-1,474,457,461,-1,474,461,475,-1,475,461,467,-1,475,467,476,-1,476,467,444,-1,476,444,3,-1,3,415,471,-1,471,415,413,-1,471,413,411,-1,468,477,469,-1,469,477,478,-1,469,478,470,-1,470,478,479,-1,470,479,471,-1,471,479,3,-1,477,472,478,-1,478,472,445,-1,478,445,479,-1,479,445,3,-1,466,480,467,-1,467,480,481,-1,467,481,444,-1,444,481,482,-1,444,482,443,-1,389,388,464,-1,464,388,452,-1,464,452,468,-1,468,452,473,-1,468,473,477,-1,477,473,474,-1,477,474,472,-1,472,474,475,-1,472,475,446,-1,446,475,476,-1,446,476,3,-1,414,1,483,-1,484,485,486,-1,487,488,489,-1,490,491,492,-1,416,104,396,-1,418,417,493,-1,493,417,416,-1,424,423,491,-1,491,423,422,-1,491,422,492,-1,492,422,421,-1,492,421,420,-1,101,424,494,-1,494,424,491,-1,494,491,495,-1,495,491,490,-1,495,490,496,-1,496,490,497,-1,416,396,493,-1,493,396,398,-1,493,398,498,-1,488,497,489,-1,489,497,490,-1,489,490,499,-1,499,490,492,-1,499,492,500,-1,500,492,420,-1,398,400,498,-1,498,400,402,-1,498,402,501,-1,485,487,486,-1,486,487,489,-1,486,489,502,-1,502,489,499,-1,502,499,503,-1,503,499,500,-1,402,404,501,-1,501,404,406,-1,501,406,504,-1,503,505,502,-1,502,505,506,-1,502,506,486,-1,486,506,507,-1,486,507,484,-1,419,418,508,-1,508,418,493,-1,508,493,509,-1,509,493,498,-1,509,498,510,-1,510,498,501,-1,510,501,511,-1,511,501,504,-1,511,504,512,-1,512,504,483,-1,512,483,1,-1,1,513,507,-1,507,513,514,-1,507,514,484,-1,505,515,506,-1,506,515,516,-1,506,516,507,-1,507,516,1,-1,515,517,516,-1,516,517,1,-1,406,408,504,-1,504,408,410,-1,504,410,483,-1,483,410,412,-1,483,412,414,-1,420,419,500,-1,500,419,508,-1,500,508,503,-1,503,508,509,-1,503,509,505,-1,505,509,510,-1,505,510,515,-1,515,510,511,-1,515,511,517,-1,517,511,512,-1,517,512,1,-1,45,44,92,-1,92,44,121,-1,92,121,518,-1,518,121,428,-1,518,428,519,-1,519,428,427,-1,519,427,520,-1,520,427,426,-1,520,426,521,-1,521,426,425,-1,521,425,522,-1,522,425,429,-1,522,429,523,-1,523,429,430,-1,523,430,524,-1,524,430,431,-1,524,431,525,-1,525,431,432,-1,525,432,526,-1,526,432,433,-1,526,433,103,-1,103,433,112,-1,103,112,58,-1,58,112,56,-1,437,436,527,-1,527,436,435,-1,527,435,94,-1,94,435,434,-1,94,434,95,-1,527,528,437,-1,437,528,529,-1,437,529,438,-1,438,529,530,-1,530,531,438,-1,438,531,532,-1,438,532,439,-1,439,532,533,-1,439,533,440,-1,440,533,534,-1,440,534,441,-1,441,534,535,-1,441,535,442,-1,442,535,97,-1,442,97,96,-1,98,97,455,-1,455,97,536,-1,455,536,456,-1,456,536,537,-1,456,537,459,-1,459,537,538,-1,459,538,460,-1,460,538,539,-1,460,539,465,-1,465,539,540,-1,465,540,466,-1,466,540,541,-1,466,541,480,-1,480,541,542,-1,480,542,481,-1,481,542,543,-1,481,543,482,-1,482,543,544,-1,482,544,443,-1,544,545,443,-1,443,545,5,-1,443,5,3,-1,102,101,546,-1,546,101,494,-1,546,494,547,-1,547,494,495,-1,547,495,548,-1,548,495,496,-1,548,496,549,-1,549,496,497,-1,549,497,550,-1,550,497,488,-1,550,488,551,-1,551,488,487,-1,551,487,552,-1,552,487,485,-1,552,485,553,-1,553,485,484,-1,553,484,554,-1,554,484,514,-1,554,514,555,-1,514,513,555,-1,555,513,1,-1,555,1,7,-1,523,524,556,-1,556,524,525,-1,556,525,102,-1,102,525,526,-1,102,526,103,-1,556,557,523,-1,523,557,558,-1,523,558,522,-1,522,558,559,-1,559,560,522,-1,522,560,561,-1,522,561,521,-1,521,561,562,-1,521,562,520,-1,520,562,563,-1,520,563,519,-1,519,563,564,-1,519,564,518,-1,518,564,93,-1,518,93,92,-1,565,5,566,-1,543,542,567,-1,541,540,568,-1,569,570,571,-1,527,94,572,-1,529,528,573,-1,573,528,527,-1,535,534,570,-1,570,534,533,-1,570,533,571,-1,571,533,532,-1,571,532,531,-1,97,535,536,-1,536,535,570,-1,536,570,537,-1,537,570,569,-1,537,569,538,-1,538,569,539,-1,527,572,573,-1,573,572,574,-1,573,574,575,-1,540,539,568,-1,568,539,569,-1,568,569,576,-1,576,569,571,-1,576,571,577,-1,577,571,531,-1,574,578,575,-1,575,578,579,-1,575,579,580,-1,542,541,567,-1,567,541,568,-1,567,568,581,-1,581,568,576,-1,581,576,582,-1,582,576,577,-1,579,583,580,-1,580,583,584,-1,580,584,585,-1,582,586,581,-1,581,586,587,-1,581,587,567,-1,567,587,588,-1,567,588,543,-1,530,529,589,-1,589,529,573,-1,589,573,590,-1,590,573,575,-1,590,575,591,-1,591,575,580,-1,591,580,592,-1,592,580,585,-1,592,585,593,-1,593,585,566,-1,593,566,5,-1,5,545,588,-1,588,545,544,-1,588,544,543,-1,586,594,587,-1,587,594,595,-1,587,595,588,-1,588,595,5,-1,594,596,595,-1,595,596,5,-1,584,597,585,-1,585,597,598,-1,585,598,566,-1,566,598,599,-1,566,599,565,-1,531,530,577,-1,577,530,589,-1,577,589,582,-1,582,589,590,-1,582,590,586,-1,586,590,591,-1,586,591,594,-1,594,591,592,-1,594,592,596,-1,596,592,593,-1,596,593,5,-1,555,7,600,-1,601,602,603,-1,604,605,606,-1,607,608,609,-1,556,102,546,-1,558,557,610,-1,610,557,556,-1,564,563,608,-1,608,563,562,-1,608,562,609,-1,609,562,561,-1,609,561,560,-1,93,564,611,-1,611,564,608,-1,611,608,612,-1,612,608,607,-1,612,607,613,-1,613,607,614,-1,556,546,610,-1,610,546,547,-1,610,547,615,-1,605,614,606,-1,606,614,607,-1,606,607,616,-1,616,607,609,-1,616,609,617,-1,617,609,560,-1,547,548,615,-1,615,548,549,-1,615,549,618,-1,602,604,603,-1,603,604,606,-1,603,606,619,-1,619,606,616,-1,619,616,620,-1,620,616,617,-1,549,550,618,-1,618,550,551,-1,618,551,621,-1,620,622,619,-1,619,622,623,-1,619,623,603,-1,603,623,624,-1,603,624,601,-1,559,558,625,-1,625,558,610,-1,625,610,626,-1,626,610,615,-1,626,615,627,-1,627,615,618,-1,627,618,628,-1,628,618,621,-1,628,621,629,-1,629,621,600,-1,629,600,7,-1,7,630,624,-1,624,630,631,-1,624,631,601,-1,622,632,623,-1,623,632,633,-1,623,633,624,-1,624,633,7,-1,632,634,633,-1,633,634,7,-1,551,552,621,-1,621,552,553,-1,621,553,600,-1,600,553,554,-1,600,554,555,-1,560,559,617,-1,617,559,625,-1,617,625,620,-1,620,625,626,-1,620,626,622,-1,622,626,627,-1,622,627,632,-1,632,627,628,-1,632,628,634,-1,634,628,629,-1,634,629,7,-1,94,93,572,-1,572,93,611,-1,572,611,574,-1,574,611,612,-1,574,612,578,-1,578,612,613,-1,578,613,579,-1,579,613,614,-1,579,614,583,-1,583,614,605,-1,583,605,584,-1,584,605,604,-1,584,604,597,-1,597,604,602,-1,597,602,598,-1,598,602,601,-1,598,601,599,-1,599,601,631,-1,599,631,565,-1,631,630,565,-1,565,630,7,-1,565,7,5,-1,
        ]
    }
}
Shape{
    appearance Appearance {
        material  Material 	{
            diffuseColor 0.8941176470588236 0.8941176470588236 0.8941176470588236
            specularColor 0.4470588235294118 0.4470588235294118 0.4470588235294118
            ambientIntensity 0.2
            transparency 0
            shininess 0.5
        }
    }
    geometry IndexedFaceSet {
        ccw TRUE
        solid FALSE
        coord DEF co Coordinate {
            point [
                -0.6053 -0.4704 0.7047, -0.6053 -0.4704 0.7087, -0.6081 -0.449 0.7047, -0.6081 -0.449 0.7087, -0.6163 -0.4291 0.7047, -0.6163 -0.4291 0.7087, -0.6294 -0.412 0.7047, -0.6294 -0.412 0.7087, -0.6465 -0.3989 0.7047, -0.6465 -0.3989 0.7087, -0.6664 -0.3907 0.7047, -0.6664 -0.3907 0.7087, -0.6878 -0.3879 0.7047, -0.6878 -0.3879 0.7087, -0.7092 -0.3907 0.7047, -0.7092 -0.3907 0.7087, -0.7291 -0.3989 0.7047, -0.7291 -0.3989 0.7087, -0.7461 -0.412 0.7047, -0.7461 -0.412 0.7087, -0.7593 -0.4291 0.7047, -0.7593 -0.4291 0.7087, -0.7675 -0.449 0.7047, -0.7675 -0.449 0.7087, -0.7703 -0.4704 0.7047, -0.7703 -0.4704 0.7087, -0.7675 -0.4918 0.7047, -0.7675 -0.4918 0.7087, -0.7593 -0.5117 0.7047, -0.7593 -0.5117 0.7087, -0.7461 -0.5288 0.7047, -0.7461 -0.5288 0.7087, -0.7291 -0.5419 0.7047, -0.7291 -0.5419 0.7087, -0.7092 -0.5501 0.7047, -0.7092 -0.5501 0.7087, -0.6878 -0.5529 0.7047, -0.6878 -0.5529 0.7087, -0.6664 -0.5501 0.7047, -0.6664 -0.5501 0.7087, -0.6465 -0.5419 0.7047, -0.6465 -0.5419 0.7087, -0.6294 -0.5288 0.7047, -0.6294 -0.5288 0.7087, -0.6163 -0.5117 0.7047, -0.6163 -0.5117 0.7087, -0.6081 -0.4918 0.7047, -0.6081 -0.4918 0.7087, -0.6878 -0.4704 0.7047, -0.6878 -0.4704 0.7047
            ]
        }
        coordIndex [
            0,1,2,-1,2,1,3,-1,2,3,4,-1,4,3,5,-1,4,5,6,-1,6,5,7,-1,6,7,8,-1,8,7,9,-1,8,9,10,-1,10,9,11,-1,10,11,12,-1,12,11,13,-1,12,13,14,-1,14,13,15,-1,14,15,16,-1,16,15,17,-1,16,17,18,-1,18,17,19,-1,18,19,20,-1,20,19,21,-1,20,21,22,-1,22,21,23,-1,22,23,24,-1,24,23,25,-1,24,25,26,-1,26,25,27,-1,26,27,28,-1,28,27,29,-1,28,29,30,-1,30,29,31,-1,30,31,32,-1,32,31,33,-1,32,33,34,-1,34,33,35,-1,34,35,36,-1,36,35,37,-1,36,37,38,-1,38,37,39,-1,38,39,40,-1,40,39,41,-1,40,41,42,-1,42,41,43,-1,42,43,44,-1,44,43,45,-1,44,45,46,-1,46,45,47,-1,46,47,0,-1,0,47,1,-1,44,46,48,-1,48,46,0,-1,48,0,2,-1,38,40,48,-1,48,40,42,-1,48,42,44,-1,32,34,48,-1,48,34,36,-1,48,36,38,-1,26,28,48,-1,48,28,30,-1,48,30,32,-1,20,22,48,-1,48,22,24,-1,48,24,26,-1,14,16,48,-1,48,16,18,-1,48,18,20,-1,8,10,48,-1,48,10,12,-1,48,12,14,-1,2,4,48,-1,48,4,6,-1,48,6,8,-1,
        ]
    }
}
Shape{
    appearance Appearance {
        material  Material 	{
            diffuseColor 0.6470588235294118 0.6196078431372549 0.5882352941176471
            specularColor 0.45098039215686275 0.43529411764705883 0.4117647058823529
            ambientIntensity 0.2
            transparency 0
            shininess 0.5
        }
    }
    geometry IndexedFaceSet {
        ccw TRUE
        solid FALSE
        coord DEF co Coordinate {
            point [
                -0.7028 -1.1811 0.0787, -0.7028 -1.0331 0.0787, -0.872 -1.1811 0.0787, -0.872 -1.0331 0.0787, -0.7028 -1.1811 -0.0, -0.872 -1.1811 -0.0, -0.7028 -1.0331 -0.0, -0.872 -1.0331 -0.0, -0.872 -1.007 0.0029, -0.7028 -1.007 0.0029, -0.872 -0.9821 0.0115, -0.7028 -0.9821 0.0115, -0.872 -0.9598 0.0254, -0.7028 -0.9598 0.0254, -0.872 -0.9412 0.0439, -0.7028 -0.9412 0.0439, -0.872 -0.927 0.0661, -0.7028 -0.927 0.0661, -0.872 -0.9182 0.0908, -0.7028 -0.9182 0.0908, -0.7028 -0.8675 0.3044, -0.872 -0.8675 0.3044, -0.7028 -0.8645 0.3126, -0.872 -0.8645 0.3126, -0.7028 -0.8598 0.32, -0.872 -0.8598 0.32, -0.7028 -0.8536 0.3262, -0.872 -0.8536 0.3262, -0.7028 -0.8461 0.3308, -0.872 -0.8461 0.3308, -0.7028 -0.8379 0.3337, -0.872 -0.8379 0.3337, -0.7028 -0.8291 0.3346, -0.872 -0.8291 0.3346, -0.7028 -0.7677 0.3346, -0.872 -0.7677 0.3346, -0.7028 -0.8291 0.4134, -0.7028 -0.7677 0.4134, -0.872 -0.8291 0.4134, -0.872 -0.7677 0.4134, -0.872 -0.8553 0.4105, -0.7028 -0.8553 0.4105, -0.872 -0.8801 0.4018, -0.7028 -0.8801 0.4018, -0.872 -0.9024 0.3879, -0.7028 -0.9024 0.3879, -0.872 -0.9211 0.3695, -0.7028 -0.9211 0.3695, -0.872 -0.9352 0.3473, -0.7028 -0.9352 0.3473, -0.872 -0.9441 0.3226, -0.7028 -0.9441 0.3226, -0.7028 -0.9948 0.109, -0.872 -0.9948 0.109, -0.7028 -0.9977 0.1008, -0.872 -0.9977 0.1008, -0.7028 -1.0024 0.0934, -0.872 -1.0024 0.0934, -0.7028 -1.0087 0.0872, -0.872 -1.0087 0.0872, -0.7028 -1.0161 0.0826, -0.872 -1.0161 0.0826, -0.7028 -1.0244 0.0797, -0.872 -1.0244 0.0797, -0.3091 -1.1811 0.0787, -0.3091 -1.0331 0.0787, -0.4783 -1.1811 0.0787, -0.4783 -1.0331 0.0787, -0.3091 -1.1811 -0.0, -0.4783 -1.1811 -0.0, -0.3091 -1.0331 -0.0, -0.4783 -1.0331 -0.0, -0.4783 -1.007 0.0029, -0.3091 -1.007 0.0029, -0.4783 -0.9821 0.0115, -0.3091 -0.9821 0.0115, -0.4783 -0.9598 0.0254, -0.3091 -0.9598 0.0254, -0.4783 -0.9412 0.0439, -0.3091 -0.9412 0.0439, -0.4783 -0.927 0.0661, -0.3091 -0.927 0.0661, -0.4783 -0.9182 0.0908, -0.3091 -0.9182 0.0908, -0.3091 -0.8675 0.3044, -0.4783 -0.8675 0.3044, -0.3091 -0.8645 0.3126, -0.4783 -0.8645 0.3126, -0.3091 -0.8598 0.32, -0.4783 -0.8598 0.32, -0.3091 -0.8536 0.3262, -0.4783 -0.8536 0.3262, -0.3091 -0.8461 0.3308, -0.4783 -0.8461 0.3308, -0.3091 -0.8379 0.3337, -0.4783 -0.8379 0.3337, -0.3091 -0.8291 0.3346, -0.4783 -0.8291 0.3346, -0.3091 -0.7677 0.3346, -0.4783 -0.7677 0.3346, -0.3091 -0.8291 0.4134, -0.3091 -0.7677 0.4134, -0.4783 -0.8291 0.4134, -0.4783 -0.7677 0.4134, -0.4783 -0.8553 0.4105, -0.3091 -0.8553 0.4105, -0.4783 -0.8801 0.4018, -0.3091 -0.8801 0.4018, -0.4783 -0.9024 0.3879, -0.3091 -0.9024 0.3879, -0.4783 -0.9211 0.3695, -0.3091 -0.9211 0.3695, -0.4783 -0.9352 0.3473, -0.3091 -0.9352 0.3473, -0.4783 -0.9441 0.3226, -0.3091 -0.9441 0.3226, -0.3091 -0.9948 0.109, -0.4783 -0.9948 0.109, -0.3091 -0.9977 0.1008, -0.4783 -0.9977 0.1008, -0.3091 -1.0024 0.0934, -0.4783 -1.0024 0.0934, -0.3091 -1.0087 0.0872, -0.4783 -1.0087 0.0872, -0.3091 -1.0161 0.0826, -0.4783 -1.0161 0.0826, -0.3091 -1.0244 0.0797, -0.4783 -1.0244 0.0797, 0.0846 -1.1811 0.0787, 0.0846 -1.0331 0.0787, -0.0846 -1.1811 0.0787, -0.0846 -1.0331 0.0787, 0.0846 -1.1811 -0.0, -0.0846 -1.1811 -0.0, 0.0846 -1.0331 -0.0, -0.0846 -1.0331 -0.0, -0.0846 -1.007 0.0029, 0.0846 -1.007 0.0029, -0.0846 -0.9821 0.0115, 0.0846 -0.9821 0.0115, -0.0846 -0.9598 0.0254, 0.0846 -0.9598 0.0254, -0.0846 -0.9412 0.0439, 0.0846 -0.9412 0.0439, -0.0846 -0.927 0.0661, 0.0846 -0.927 0.0661, -0.0846 -0.9182 0.0908, 0.0846 -0.9182 0.0908, 0.0846 -0.8675 0.3044, -0.0846 -0.8675 0.3044, 0.0846 -0.8645 0.3126, -0.0846 -0.8645 0.3126, 0.0846 -0.8598 0.32, -0.0846 -0.8598 0.32, 0.0846 -0.8536 0.3262, -0.0846 -0.8536 0.3262, 0.0846 -0.8461 0.3308, -0.0846 -0.8461 0.3308, 0.0846 -0.8379 0.3337, -0.0846 -0.8379 0.3337, 0.0846 -0.8291 0.3346, -0.0846 -0.8291 0.3346, 0.0846 -0.7677 0.3346, -0.0846 -0.7677 0.3346, 0.0846 -0.8291 0.4134, 0.0846 -0.7677 0.4134, -0.0846 -0.8291 0.4134, -0.0846 -0.7677 0.4134, -0.0846 -0.8553 0.4105, 0.0846 -0.8553 0.4105, -0.0846 -0.8801 0.4018, 0.0846 -0.8801 0.4018, -0.0846 -0.9024 0.3879, 0.0846 -0.9024 0.3879, -0.0846 -0.9211 0.3695, 0.0846 -0.9211 0.3695, -0.0846 -0.9352 0.3473, 0.0846 -0.9352 0.3473, -0.0846 -0.9441 0.3226, 0.0846 -0.9441 0.3226, 0.0846 -0.9948 0.109, -0.0846 -0.9948 0.109, 0.0846 -0.9977 0.1008, -0.0846 -0.9977 0.1008, 0.0846 -1.0024 0.0934, -0.0846 -1.0024 0.0934, 0.0846 -1.0087 0.0872, -0.0846 -1.0087 0.0872, 0.0846 -1.0161 0.0826, -0.0846 -1.0161 0.0826, 0.0846 -1.0244 0.0797, -0.0846 -1.0244 0.0797, 0.4783 -1.1811 0.0787, 0.4783 -1.0331 0.0787, 0.3091 -1.1811 0.0787, 0.3091 -1.0331 0.0787, 0.4783 -1.1811 -0.0, 0.3091 -1.1811 -0.0, 0.4783 -1.0331 -0.0, 0.3091 -1.0331 -0.0, 0.3091 -1.007 0.0029, 0.4783 -1.007 0.0029, 0.3091 -0.9821 0.0115, 0.4783 -0.9821 0.0115, 0.3091 -0.9598 0.0254, 0.4783 -0.9598 0.0254, 0.3091 -0.9412 0.0439, 0.4783 -0.9412 0.0439, 0.3091 -0.927 0.0661, 0.4783 -0.927 0.0661, 0.3091 -0.9182 0.0908, 0.4783 -0.9182 0.0908, 0.4783 -0.8675 0.3044, 0.3091 -0.8675 0.3044, 0.4783 -0.8645 0.3126, 0.3091 -0.8645 0.3126, 0.4783 -0.8598 0.32, 0.3091 -0.8598 0.32, 0.4783 -0.8536 0.3262, 0.3091 -0.8536 0.3262, 0.4783 -0.8461 0.3308, 0.3091 -0.8461 0.3308, 0.4783 -0.8379 0.3337, 0.3091 -0.8379 0.3337, 0.4783 -0.8291 0.3346, 0.3091 -0.8291 0.3346, 0.4783 -0.7677 0.3346, 0.3091 -0.7677 0.3346, 0.4783 -0.8291 0.4134, 0.4783 -0.7677 0.4134, 0.3091 -0.8291 0.4134, 0.3091 -0.7677 0.4134, 0.3091 -0.8553 0.4105, 0.4783 -0.8553 0.4105, 0.3091 -0.8801 0.4018, 0.4783 -0.8801 0.4018, 0.3091 -0.9024 0.3879, 0.4783 -0.9024 0.3879, 0.3091 -0.9211 0.3695, 0.4783 -0.9211 0.3695, 0.3091 -0.9352 0.3473, 0.4783 -0.9352 0.3473, 0.3091 -0.9441 0.3226, 0.4783 -0.9441 0.3226, 0.4783 -0.9948 0.109, 0.3091 -0.9948 0.109, 0.4783 -0.9977 0.1008, 0.3091 -0.9977 0.1008, 0.4783 -1.0024 0.0934, 0.3091 -1.0024 0.0934, 0.4783 -1.0087 0.0872, 0.3091 -1.0087 0.0872, 0.4783 -1.0161 0.0826, 0.3091 -1.0161 0.0826, 0.4783 -1.0244 0.0797, 0.3091 -1.0244 0.0797, 0.872 -1.1811 0.0787, 0.872 -1.0331 0.0787, 0.7028 -1.1811 0.0787, 0.7028 -1.0331 0.0787, 0.872 -1.1811 -0.0, 0.7028 -1.1811 -0.0, 0.872 -1.0331 -0.0, 0.7028 -1.0331 -0.0, 0.7028 -1.007 0.0029, 0.872 -1.007 0.0029, 0.7028 -0.9821 0.0115, 0.872 -0.9821 0.0115, 0.7028 -0.9598 0.0254, 0.872 -0.9598 0.0254, 0.7028 -0.9412 0.0439, 0.872 -0.9412 0.0439, 0.7028 -0.927 0.0661, 0.872 -0.927 0.0661, 0.7028 -0.9182 0.0908, 0.872 -0.9182 0.0908, 0.872 -0.8675 0.3044, 0.7028 -0.8675 0.3044, 0.872 -0.8645 0.3126, 0.7028 -0.8645 0.3126, 0.872 -0.8598 0.32, 0.7028 -0.8598 0.32, 0.872 -0.8536 0.3262, 0.7028 -0.8536 0.3262, 0.872 -0.8461 0.3308, 0.7028 -0.8461 0.3308, 0.872 -0.8379 0.3337, 0.7028 -0.8379 0.3337, 0.872 -0.8291 0.3346, 0.7028 -0.8291 0.3346, 0.872 -0.7677 0.3346, 0.7028 -0.7677 0.3346, 0.872 -0.8291 0.4134, 0.872 -0.7677 0.4134, 0.7028 -0.8291 0.4134, 0.7028 -0.7677 0.4134, 0.7028 -0.8553 0.4105, 0.872 -0.8553 0.4105, 0.7028 -0.8801 0.4018, 0.872 -0.8801 0.4018, 0.7028 -0.9024 0.3879, 0.872 -0.9024 0.3879, 0.7028 -0.9211 0.3695, 0.872 -0.9211 0.3695, 0.7028 -0.9352 0.3473, 0.872 -0.9352 0.3473, 0.7028 -0.9441 0.3226, 0.872 -0.9441 0.3226, 0.872 -0.9948 0.109, 0.7028 -0.9948 0.109, 0.872 -0.9977 0.1008, 0.7028 -0.9977 0.1008, 0.872 -1.0024 0.0934, 0.7028 -1.0024 0.0934, 0.872 -1.0087 0.0872, 0.7028 -1.0087 0.0872, 0.872 -1.0161 0.0826, 0.7028 -1.0161 0.0826, 0.872 -1.0244 0.0797, 0.7028 -1.0244 0.0797, -0.7028 1.0331 0.0787, -0.7028 1.1811 0.0787, -0.872 1.0331 0.0787, -0.872 1.1811 0.0787, -0.7028 1.0244 0.0797, -0.872 1.0244 0.0797, -0.7028 1.0161 0.0826, -0.872 1.0161 0.0826, -0.7028 1.0087 0.0872, -0.872 1.0087 0.0872, -0.7028 1.0024 0.0934, -0.872 1.0024 0.0934, -0.7028 0.9977 0.1008, -0.872 0.9977 0.1008, -0.7028 0.9948 0.109, -0.872 0.9948 0.109, -0.7028 0.9441 0.3226, -0.872 0.9441 0.3226, -0.872 0.9352 0.3473, -0.7028 0.9352 0.3473, -0.872 0.9211 0.3695, -0.7028 0.9211 0.3695, -0.872 0.9024 0.3879, -0.7028 0.9024 0.3879, -0.872 0.8801 0.4018, -0.7028 0.8801 0.4018, -0.872 0.8553 0.4105, -0.7028 0.8553 0.4105, -0.872 0.8291 0.4134, -0.7028 0.8291 0.4134, -0.7028 0.7677 0.4134, -0.872 0.7677 0.4134, -0.7028 0.8291 0.3346, -0.7028 0.7677 0.3346, -0.872 0.8291 0.3346, -0.872 0.7677 0.3346, -0.7028 0.8379 0.3337, -0.872 0.8379 0.3337, -0.7028 0.8461 0.3308, -0.872 0.8461 0.3308, -0.7028 0.8536 0.3262, -0.872 0.8536 0.3262, -0.7028 0.8598 0.32, -0.872 0.8598 0.32, -0.7028 0.8645 0.3126, -0.872 0.8645 0.3126, -0.7028 0.8675 0.3044, -0.872 0.8675 0.3044, -0.7028 0.9182 0.0908, -0.872 0.9182 0.0908, -0.872 0.927 0.0661, -0.7028 0.927 0.0661, -0.872 0.9412 0.0439, -0.7028 0.9412 0.0439, -0.872 0.9598 0.0254, -0.7028 0.9598 0.0254, -0.872 0.9821 0.0115, -0.7028 0.9821 0.0115, -0.872 1.007 0.0029, -0.7028 1.007 0.0029, -0.872 1.0331 -0.0, -0.7028 1.0331 -0.0, -0.7028 1.1811 -0.0, -0.872 1.1811 -0.0, -0.3091 1.0331 0.0787, -0.3091 1.1811 0.0787, -0.4783 1.0331 0.0787, -0.4783 1.1811 0.0787, -0.3091 1.0244 0.0797, -0.4783 1.0244 0.0797, -0.3091 1.0161 0.0826, -0.4783 1.0161 0.0826, -0.3091 1.0087 0.0872, -0.4783 1.0087 0.0872, -0.3091 1.0024 0.0934, -0.4783 1.0024 0.0934, -0.3091 0.9977 0.1008, -0.4783 0.9977 0.1008, -0.3091 0.9948 0.109, -0.4783 0.9948 0.109, -0.3091 0.9441 0.3226, -0.4783 0.9441 0.3226, -0.4783 0.9352 0.3473, -0.3091 0.9352 0.3473, -0.4783 0.9211 0.3695, -0.3091 0.9211 0.3695, -0.4783 0.9024 0.3879, -0.3091 0.9024 0.3879, -0.4783 0.8801 0.4018, -0.3091 0.8801 0.4018, -0.4783 0.8553 0.4105, -0.3091 0.8553 0.4105, -0.4783 0.8291 0.4134, -0.3091 0.8291 0.4134, -0.3091 0.7677 0.4134, -0.4783 0.7677 0.4134, -0.3091 0.8291 0.3346, -0.3091 0.7677 0.3346, -0.4783 0.8291 0.3346, -0.4783 0.7677 0.3346, -0.3091 0.8379 0.3337, -0.4783 0.8379 0.3337, -0.3091 0.8461 0.3308, -0.4783 0.8461 0.3308, -0.3091 0.8536 0.3262, -0.4783 0.8536 0.3262, -0.3091 0.8598 0.32, -0.4783 0.8598 0.32, -0.3091 0.8645 0.3126, -0.4783 0.8645 0.3126, -0.3091 0.8675 0.3044, -0.4783 0.8675 0.3044, -0.3091 0.9182 0.0908, -0.4783 0.9182 0.0908, -0.4783 0.927 0.0661, -0.3091 0.927 0.0661, -0.4783 0.9412 0.0439, -0.3091 0.9412 0.0439, -0.4783 0.9598 0.0254, -0.3091 0.9598 0.0254, -0.4783 0.9821 0.0115, -0.3091 0.9821 0.0115, -0.4783 1.007 0.0029, -0.3091 1.007 0.0029, -0.4783 1.0331 -0.0, -0.3091 1.0331 -0.0, -0.3091 1.1811 -0.0, -0.4783 1.1811 -0.0, 0.0846 1.0331 0.0787, 0.0846 1.1811 0.0787, -0.0846 1.0331 0.0787, -0.0846 1.1811 0.0787, 0.0846 1.0244 0.0797, -0.0846 1.0244 0.0797, 0.0846 1.0161 0.0826, -0.0846 1.0161 0.0826, 0.0846 1.0087 0.0872, -0.0846 1.0087 0.0872, 0.0846 1.0024 0.0934, -0.0846 1.0024 0.0934, 0.0846 0.9977 0.1008, -0.0846 0.9977 0.1008, 0.0846 0.9948 0.109, -0.0846 0.9948 0.109, 0.0846 0.9441 0.3226, -0.0846 0.9441 0.3226, -0.0846 0.9352 0.3473, 0.0846 0.9352 0.3473, -0.0846 0.9211 0.3695, 0.0846 0.9211 0.3695, -0.0846 0.9024 0.3879, 0.0846 0.9024 0.3879, -0.0846 0.8801 0.4018, 0.0846 0.8801 0.4018, -0.0846 0.8553 0.4105, 0.0846 0.8553 0.4105, -0.0846 0.8291 0.4134, 0.0846 0.8291 0.4134, 0.0846 0.7677 0.4134, -0.0846 0.7677 0.4134, 0.0846 0.8291 0.3346, 0.0846 0.7677 0.3346, -0.0846 0.8291 0.3346, -0.0846 0.7677 0.3346, 0.0846 0.8379 0.3337, -0.0846 0.8379 0.3337, 0.0846 0.8461 0.3308, -0.0846 0.8461 0.3308, 0.0846 0.8536 0.3262, -0.0846 0.8536 0.3262, 0.0846 0.8598 0.32, -0.0846 0.8598 0.32, 0.0846 0.8645 0.3126, -0.0846 0.8645 0.3126, 0.0846 0.8675 0.3044, -0.0846 0.8675 0.3044, 0.0846 0.9182 0.0908, -0.0846 0.9182 0.0908, -0.0846 0.927 0.0661, 0.0846 0.927 0.0661, -0.0846 0.9412 0.0439, 0.0846 0.9412 0.0439, -0.0846 0.9598 0.0254, 0.0846 0.9598 0.0254, -0.0846 0.9821 0.0115, 0.0846 0.9821 0.0115, -0.0846 1.007 0.0029, 0.0846 1.007 0.0029, -0.0846 1.0331 -0.0, 0.0846 1.0331 -0.0, 0.0846 1.1811 -0.0, -0.0846 1.1811 -0.0, 0.4783 1.0331 0.0787, 0.4783 1.1811 0.0787, 0.3091 1.0331 0.0787, 0.3091 1.1811 0.0787, 0.4783 1.0244 0.0797, 0.3091 1.0244 0.0797, 0.4783 1.0161 0.0826, 0.3091 1.0161 0.0826, 0.4783 1.0087 0.0872, 0.3091 1.0087 0.0872, 0.4783 1.0024 0.0934, 0.3091 1.0024 0.0934, 0.4783 0.9977 0.1008, 0.3091 0.9977 0.1008, 0.4783 0.9948 0.109, 0.3091 0.9948 0.109, 0.4783 0.9441 0.3226, 0.3091 0.9441 0.3226, 0.3091 0.9352 0.3473, 0.4783 0.9352 0.3473, 0.3091 0.9211 0.3695, 0.4783 0.9211 0.3695, 0.3091 0.9024 0.3879, 0.4783 0.9024 0.3879, 0.3091 0.8801 0.4018, 0.4783 0.8801 0.4018, 0.3091 0.8553 0.4105, 0.4783 0.8553 0.4105, 0.3091 0.8291 0.4134, 0.4783 0.8291 0.4134, 0.4783 0.7677 0.4134, 0.3091 0.7677 0.4134, 0.4783 0.8291 0.3346, 0.4783 0.7677 0.3346, 0.3091 0.8291 0.3346, 0.3091 0.7677 0.3346, 0.4783 0.8379 0.3337, 0.3091 0.8379 0.3337, 0.4783 0.8461 0.3308, 0.3091 0.8461 0.3308, 0.4783 0.8536 0.3262, 0.3091 0.8536 0.3262, 0.4783 0.8598 0.32, 0.3091 0.8598 0.32, 0.4783 0.8645 0.3126, 0.3091 0.8645 0.3126, 0.4783 0.8675 0.3044, 0.3091 0.8675 0.3044, 0.4783 0.9182 0.0908, 0.3091 0.9182 0.0908, 0.3091 0.927 0.0661, 0.4783 0.927 0.0661, 0.3091 0.9412 0.0439, 0.4783 0.9412 0.0439, 0.3091 0.9598 0.0254, 0.4783 0.9598 0.0254, 0.3091 0.9821 0.0115, 0.4783 0.9821 0.0115, 0.3091 1.007 0.0029, 0.4783 1.007 0.0029, 0.3091 1.0331 -0.0, 0.4783 1.0331 -0.0, 0.4783 1.1811 -0.0, 0.3091 1.1811 -0.0, 0.872 1.0331 0.0787, 0.872 1.1811 0.0787, 0.7028 1.0331 0.0787, 0.7028 1.1811 0.0787, 0.872 1.0244 0.0797, 0.7028 1.0244 0.0797, 0.872 1.0161 0.0826, 0.7028 1.0161 0.0826, 0.872 1.0087 0.0872, 0.7028 1.0087 0.0872, 0.872 1.0024 0.0934, 0.7028 1.0024 0.0934, 0.872 0.9977 0.1008, 0.7028 0.9977 0.1008, 0.872 0.9948 0.109, 0.7028 0.9948 0.109, 0.872 0.9441 0.3226, 0.7028 0.9441 0.3226, 0.7028 0.9352 0.3473, 0.872 0.9352 0.3473, 0.7028 0.9211 0.3695, 0.872 0.9211 0.3695, 0.7028 0.9024 0.3879, 0.872 0.9024 0.3879, 0.7028 0.8801 0.4018, 0.872 0.8801 0.4018, 0.7028 0.8553 0.4105, 0.872 0.8553 0.4105, 0.7028 0.8291 0.4134, 0.872 0.8291 0.4134, 0.872 0.7677 0.4134, 0.7028 0.7677 0.4134, 0.872 0.8291 0.3346, 0.872 0.7677 0.3346, 0.7028 0.8291 0.3346, 0.7028 0.7677 0.3346, 0.872 0.8379 0.3337, 0.7028 0.8379 0.3337, 0.872 0.8461 0.3308, 0.7028 0.8461 0.3308, 0.872 0.8536 0.3262, 0.7028 0.8536 0.3262, 0.872 0.8598 0.32, 0.7028 0.8598 0.32, 0.872 0.8645 0.3126, 0.7028 0.8645 0.3126, 0.872 0.8675 0.3044, 0.7028 0.8675 0.3044, 0.872 0.9182 0.0908, 0.7028 0.9182 0.0908, 0.7028 0.927 0.0661, 0.872 0.927 0.0661, 0.7028 0.9412 0.0439, 0.872 0.9412 0.0439, 0.7028 0.9598 0.0254, 0.872 0.9598 0.0254, 0.7028 0.9821 0.0115, 0.872 0.9821 0.0115, 0.7028 1.007 0.0029, 0.872 1.007 0.0029, 0.7028 1.0331 -0.0, 0.872 1.0331 -0.0, 0.872 1.1811 -0.0, 0.7028 1.1811 -0.0, -0.6299 0.4528 0.0394, -0.6299 0.4528 0.0, -0.6299 -0.4528 0.0394, -0.6299 -0.4528 0.0, 0.6299 -0.4528 0.0394, 0.6299 -0.4528 0.0, 0.6299 0.4528 0.0394, 0.6299 0.4528 0.0, 0.6299 0.4528 0.0
            ]
        }
        coordIndex [
            0,1,2,-1,2,1,3,-1,4,0,5,-1,5,0,2,-1,6,4,7,-1,7,4,5,-1,6,7,8,-1,6,8,9,-1,9,8,10,-1,9,10,11,-1,11,10,12,-1,11,12,13,-1,13,12,14,-1,13,14,15,-1,15,14,16,-1,15,16,17,-1,17,16,18,-1,17,18,19,-1,20,19,21,-1,21,19,18,-1,20,21,22,-1,22,21,23,-1,22,23,24,-1,24,23,25,-1,24,25,26,-1,26,25,27,-1,26,27,28,-1,28,27,29,-1,28,29,30,-1,30,29,31,-1,30,31,32,-1,32,31,33,-1,34,32,35,-1,35,32,33,-1,36,37,38,-1,38,37,39,-1,36,38,40,-1,36,40,41,-1,41,40,42,-1,41,42,43,-1,43,42,44,-1,43,44,45,-1,45,44,46,-1,45,46,47,-1,47,46,48,-1,47,48,49,-1,49,48,50,-1,49,50,51,-1,52,51,53,-1,53,51,50,-1,52,53,54,-1,54,53,55,-1,54,55,56,-1,56,55,57,-1,56,57,58,-1,58,57,59,-1,58,59,60,-1,60,59,61,-1,60,61,62,-1,62,61,63,-1,62,63,1,-1,1,63,3,-1,0,4,1,-1,1,4,6,-1,1,6,62,-1,62,6,9,-1,62,9,60,-1,60,9,11,-1,60,11,58,-1,58,11,13,-1,58,13,56,-1,56,13,15,-1,56,15,54,-1,54,15,17,-1,54,17,52,-1,52,17,19,-1,52,19,51,-1,51,19,20,-1,51,20,49,-1,49,20,22,-1,49,22,47,-1,47,22,24,-1,47,24,45,-1,45,24,26,-1,45,26,43,-1,43,26,28,-1,43,28,41,-1,41,28,30,-1,41,30,36,-1,36,30,32,-1,36,32,37,-1,37,32,34,-1,39,35,38,-1,38,35,33,-1,38,33,40,-1,40,33,31,-1,40,31,42,-1,42,31,29,-1,42,29,44,-1,44,29,27,-1,44,27,46,-1,46,27,25,-1,46,25,48,-1,48,25,23,-1,48,23,50,-1,50,23,21,-1,50,21,53,-1,53,21,18,-1,53,18,55,-1,55,18,16,-1,55,16,57,-1,57,16,14,-1,57,14,59,-1,59,14,12,-1,59,12,61,-1,61,12,10,-1,61,10,63,-1,63,10,8,-1,63,8,3,-1,3,8,7,-1,3,7,2,-1,2,7,5,-1,64,65,66,-1,66,65,67,-1,68,64,69,-1,69,64,66,-1,70,68,71,-1,71,68,69,-1,70,71,72,-1,70,72,73,-1,73,72,74,-1,73,74,75,-1,75,74,76,-1,75,76,77,-1,77,76,78,-1,77,78,79,-1,79,78,80,-1,79,80,81,-1,81,80,82,-1,81,82,83,-1,84,83,85,-1,85,83,82,-1,84,85,86,-1,86,85,87,-1,86,87,88,-1,88,87,89,-1,88,89,90,-1,90,89,91,-1,90,91,92,-1,92,91,93,-1,92,93,94,-1,94,93,95,-1,94,95,96,-1,96,95,97,-1,98,96,99,-1,99,96,97,-1,100,101,102,-1,102,101,103,-1,100,102,104,-1,100,104,105,-1,105,104,106,-1,105,106,107,-1,107,106,108,-1,107,108,109,-1,109,108,110,-1,109,110,111,-1,111,110,112,-1,111,112,113,-1,113,112,114,-1,113,114,115,-1,116,115,117,-1,117,115,114,-1,116,117,118,-1,118,117,119,-1,118,119,120,-1,120,119,121,-1,120,121,122,-1,122,121,123,-1,122,123,124,-1,124,123,125,-1,124,125,126,-1,126,125,127,-1,126,127,65,-1,65,127,67,-1,64,68,65,-1,65,68,70,-1,65,70,126,-1,126,70,73,-1,126,73,124,-1,124,73,75,-1,124,75,122,-1,122,75,77,-1,122,77,120,-1,120,77,79,-1,120,79,118,-1,118,79,81,-1,118,81,116,-1,116,81,83,-1,116,83,115,-1,115,83,84,-1,115,84,113,-1,113,84,86,-1,113,86,111,-1,111,86,88,-1,111,88,109,-1,109,88,90,-1,109,90,107,-1,107,90,92,-1,107,92,105,-1,105,92,94,-1,105,94,100,-1,100,94,96,-1,100,96,101,-1,101,96,98,-1,103,99,102,-1,102,99,97,-1,102,97,104,-1,104,97,95,-1,104,95,106,-1,106,95,93,-1,106,93,108,-1,108,93,91,-1,108,91,110,-1,110,91,89,-1,110,89,112,-1,112,89,87,-1,112,87,114,-1,114,87,85,-1,114,85,117,-1,117,85,82,-1,117,82,119,-1,119,82,80,-1,119,80,121,-1,121,80,78,-1,121,78,123,-1,123,78,76,-1,123,76,125,-1,125,76,74,-1,125,74,127,-1,127,74,72,-1,127,72,67,-1,67,72,71,-1,67,71,66,-1,66,71,69,-1,128,129,130,-1,130,129,131,-1,132,128,133,-1,133,128,130,-1,134,132,135,-1,135,132,133,-1,134,135,136,-1,134,136,137,-1,137,136,138,-1,137,138,139,-1,139,138,140,-1,139,140,141,-1,141,140,142,-1,141,142,143,-1,143,142,144,-1,143,144,145,-1,145,144,146,-1,145,146,147,-1,148,147,149,-1,149,147,146,-1,148,149,150,-1,150,149,151,-1,150,151,152,-1,152,151,153,-1,152,153,154,-1,154,153,155,-1,154,155,156,-1,156,155,157,-1,156,157,158,-1,158,157,159,-1,158,159,160,-1,160,159,161,-1,162,160,163,-1,163,160,161,-1,164,165,166,-1,166,165,167,-1,164,166,168,-1,164,168,169,-1,169,168,170,-1,169,170,171,-1,171,170,172,-1,171,172,173,-1,173,172,174,-1,173,174,175,-1,175,174,176,-1,175,176,177,-1,177,176,178,-1,177,178,179,-1,180,179,181,-1,181,179,178,-1,180,181,182,-1,182,181,183,-1,182,183,184,-1,184,183,185,-1,184,185,186,-1,186,185,187,-1,186,187,188,-1,188,187,189,-1,188,189,190,-1,190,189,191,-1,190,191,129,-1,129,191,131,-1,128,132,129,-1,129,132,134,-1,129,134,190,-1,190,134,137,-1,190,137,188,-1,188,137,139,-1,188,139,186,-1,186,139,141,-1,186,141,184,-1,184,141,143,-1,184,143,182,-1,182,143,145,-1,182,145,180,-1,180,145,147,-1,180,147,179,-1,179,147,148,-1,179,148,177,-1,177,148,150,-1,177,150,175,-1,175,150,152,-1,175,152,173,-1,173,152,154,-1,173,154,171,-1,171,154,156,-1,171,156,169,-1,169,156,158,-1,169,158,164,-1,164,158,160,-1,164,160,165,-1,165,160,162,-1,167,163,166,-1,166,163,161,-1,166,161,168,-1,168,161,159,-1,168,159,170,-1,170,159,157,-1,170,157,172,-1,172,157,155,-1,172,155,174,-1,174,155,153,-1,174,153,176,-1,176,153,151,-1,176,151,178,-1,178,151,149,-1,178,149,181,-1,181,149,146,-1,181,146,183,-1,183,146,144,-1,183,144,185,-1,185,144,142,-1,185,142,187,-1,187,142,140,-1,187,140,189,-1,189,140,138,-1,189,138,191,-1,191,138,136,-1,191,136,131,-1,131,136,135,-1,131,135,130,-1,130,135,133,-1,192,193,194,-1,194,193,195,-1,196,192,197,-1,197,192,194,-1,198,196,199,-1,199,196,197,-1,198,199,200,-1,198,200,201,-1,201,200,202,-1,201,202,203,-1,203,202,204,-1,203,204,205,-1,205,204,206,-1,205,206,207,-1,207,206,208,-1,207,208,209,-1,209,208,210,-1,209,210,211,-1,212,211,213,-1,213,211,210,-1,212,213,214,-1,214,213,215,-1,214,215,216,-1,216,215,217,-1,216,217,218,-1,218,217,219,-1,218,219,220,-1,220,219,221,-1,220,221,222,-1,222,221,223,-1,222,223,224,-1,224,223,225,-1,226,224,227,-1,227,224,225,-1,228,229,230,-1,230,229,231,-1,228,230,232,-1,228,232,233,-1,233,232,234,-1,233,234,235,-1,235,234,236,-1,235,236,237,-1,237,236,238,-1,237,238,239,-1,239,238,240,-1,239,240,241,-1,241,240,242,-1,241,242,243,-1,244,243,245,-1,245,243,242,-1,244,245,246,-1,246,245,247,-1,246,247,248,-1,248,247,249,-1,248,249,250,-1,250,249,251,-1,250,251,252,-1,252,251,253,-1,252,253,254,-1,254,253,255,-1,254,255,193,-1,193,255,195,-1,192,196,193,-1,193,196,198,-1,193,198,254,-1,254,198,201,-1,254,201,252,-1,252,201,203,-1,252,203,250,-1,250,203,205,-1,250,205,248,-1,248,205,207,-1,248,207,246,-1,246,207,209,-1,246,209,244,-1,244,209,211,-1,244,211,243,-1,243,211,212,-1,243,212,241,-1,241,212,214,-1,241,214,239,-1,239,214,216,-1,239,216,237,-1,237,216,218,-1,237,218,235,-1,235,218,220,-1,235,220,233,-1,233,220,222,-1,233,222,228,-1,228,222,224,-1,228,224,229,-1,229,224,226,-1,231,227,230,-1,230,227,225,-1,230,225,232,-1,232,225,223,-1,232,223,234,-1,234,223,221,-1,234,221,236,-1,236,221,219,-1,236,219,238,-1,238,219,217,-1,238,217,240,-1,240,217,215,-1,240,215,242,-1,242,215,213,-1,242,213,245,-1,245,213,210,-1,245,210,247,-1,247,210,208,-1,247,208,249,-1,249,208,206,-1,249,206,251,-1,251,206,204,-1,251,204,253,-1,253,204,202,-1,253,202,255,-1,255,202,200,-1,255,200,195,-1,195,200,199,-1,195,199,194,-1,194,199,197,-1,256,257,258,-1,258,257,259,-1,260,256,261,-1,261,256,258,-1,262,260,263,-1,263,260,261,-1,262,263,264,-1,262,264,265,-1,265,264,266,-1,265,266,267,-1,267,266,268,-1,267,268,269,-1,269,268,270,-1,269,270,271,-1,271,270,272,-1,271,272,273,-1,273,272,274,-1,273,274,275,-1,276,275,277,-1,277,275,274,-1,276,277,278,-1,278,277,279,-1,278,279,280,-1,280,279,281,-1,280,281,282,-1,282,281,283,-1,282,283,284,-1,284,283,285,-1,284,285,286,-1,286,285,287,-1,286,287,288,-1,288,287,289,-1,290,288,291,-1,291,288,289,-1,292,293,294,-1,294,293,295,-1,292,294,296,-1,292,296,297,-1,297,296,298,-1,297,298,299,-1,299,298,300,-1,299,300,301,-1,301,300,302,-1,301,302,303,-1,303,302,304,-1,303,304,305,-1,305,304,306,-1,305,306,307,-1,308,307,309,-1,309,307,306,-1,308,309,310,-1,310,309,311,-1,310,311,312,-1,312,311,313,-1,312,313,314,-1,314,313,315,-1,314,315,316,-1,316,315,317,-1,316,317,318,-1,318,317,319,-1,318,319,257,-1,257,319,259,-1,256,260,257,-1,257,260,262,-1,257,262,318,-1,318,262,265,-1,318,265,316,-1,316,265,267,-1,316,267,314,-1,314,267,269,-1,314,269,312,-1,312,269,271,-1,312,271,310,-1,310,271,273,-1,310,273,308,-1,308,273,275,-1,308,275,307,-1,307,275,276,-1,307,276,305,-1,305,276,278,-1,305,278,303,-1,303,278,280,-1,303,280,301,-1,301,280,282,-1,301,282,299,-1,299,282,284,-1,299,284,297,-1,297,284,286,-1,297,286,292,-1,292,286,288,-1,292,288,293,-1,293,288,290,-1,295,291,294,-1,294,291,289,-1,294,289,296,-1,296,289,287,-1,296,287,298,-1,298,287,285,-1,298,285,300,-1,300,285,283,-1,300,283,302,-1,302,283,281,-1,302,281,304,-1,304,281,279,-1,304,279,306,-1,306,279,277,-1,306,277,309,-1,309,277,274,-1,309,274,311,-1,311,274,272,-1,311,272,313,-1,313,272,270,-1,313,270,315,-1,315,270,268,-1,315,268,317,-1,317,268,266,-1,317,266,319,-1,319,266,264,-1,319,264,259,-1,259,264,263,-1,259,263,258,-1,258,263,261,-1,320,321,322,-1,322,321,323,-1,320,322,324,-1,324,322,325,-1,324,325,326,-1,326,325,327,-1,326,327,328,-1,328,327,329,-1,328,329,330,-1,330,329,331,-1,330,331,332,-1,332,331,333,-1,332,333,334,-1,334,333,335,-1,336,334,337,-1,337,334,335,-1,336,337,338,-1,336,338,339,-1,339,338,340,-1,339,340,341,-1,341,340,342,-1,341,342,343,-1,343,342,344,-1,343,344,345,-1,345,344,346,-1,345,346,347,-1,347,346,348,-1,347,348,349,-1,350,349,351,-1,351,349,348,-1,352,353,354,-1,354,353,355,-1,352,354,356,-1,356,354,357,-1,356,357,358,-1,358,357,359,-1,358,359,360,-1,360,359,361,-1,360,361,362,-1,362,361,363,-1,362,363,364,-1,364,363,365,-1,364,365,366,-1,366,365,367,-1,368,366,369,-1,369,366,367,-1,368,369,370,-1,368,370,371,-1,371,370,372,-1,371,372,373,-1,373,372,374,-1,373,374,375,-1,375,374,376,-1,375,376,377,-1,377,376,378,-1,377,378,379,-1,379,378,380,-1,379,380,381,-1,382,381,383,-1,383,381,380,-1,321,382,323,-1,323,382,383,-1,350,353,349,-1,349,353,352,-1,349,352,347,-1,347,352,356,-1,347,356,345,-1,345,356,358,-1,345,358,343,-1,343,358,360,-1,343,360,341,-1,341,360,362,-1,341,362,339,-1,339,362,364,-1,339,364,336,-1,336,364,366,-1,336,366,334,-1,334,366,368,-1,334,368,332,-1,332,368,371,-1,332,371,330,-1,330,371,373,-1,330,373,328,-1,328,373,375,-1,328,375,326,-1,326,375,377,-1,326,377,324,-1,324,377,379,-1,324,379,320,-1,320,379,381,-1,320,381,321,-1,321,381,382,-1,323,383,322,-1,322,383,380,-1,322,380,325,-1,325,380,378,-1,325,378,327,-1,327,378,376,-1,327,376,329,-1,329,376,374,-1,329,374,331,-1,331,374,372,-1,331,372,333,-1,333,372,370,-1,333,370,335,-1,335,370,369,-1,335,369,337,-1,337,369,367,-1,337,367,338,-1,338,367,365,-1,338,365,340,-1,340,365,363,-1,340,363,342,-1,342,363,361,-1,342,361,344,-1,344,361,359,-1,344,359,346,-1,346,359,357,-1,346,357,348,-1,348,357,354,-1,348,354,351,-1,351,354,355,-1,384,385,386,-1,386,385,387,-1,384,386,388,-1,388,386,389,-1,388,389,390,-1,390,389,391,-1,390,391,392,-1,392,391,393,-1,392,393,394,-1,394,393,395,-1,394,395,396,-1,396,395,397,-1,396,397,398,-1,398,397,399,-1,400,398,401,-1,401,398,399,-1,400,401,402,-1,400,402,403,-1,403,402,404,-1,403,404,405,-1,405,404,406,-1,405,406,407,-1,407,406,408,-1,407,408,409,-1,409,408,410,-1,409,410,411,-1,411,410,412,-1,411,412,413,-1,414,413,415,-1,415,413,412,-1,416,417,418,-1,418,417,419,-1,416,418,420,-1,420,418,421,-1,420,421,422,-1,422,421,423,-1,422,423,424,-1,424,423,425,-1,424,425,426,-1,426,425,427,-1,426,427,428,-1,428,427,429,-1,428,429,430,-1,430,429,431,-1,432,430,433,-1,433,430,431,-1,432,433,434,-1,432,434,435,-1,435,434,436,-1,435,436,437,-1,437,436,438,-1,437,438,439,-1,439,438,440,-1,439,440,441,-1,441,440,442,-1,441,442,443,-1,443,442,444,-1,443,444,445,-1,446,445,447,-1,447,445,444,-1,385,446,387,-1,387,446,447,-1,414,417,413,-1,413,417,416,-1,413,416,411,-1,411,416,420,-1,411,420,409,-1,409,420,422,-1,409,422,407,-1,407,422,424,-1,407,424,405,-1,405,424,426,-1,405,426,403,-1,403,426,428,-1,403,428,400,-1,400,428,430,-1,400,430,398,-1,398,430,432,-1,398,432,396,-1,396,432,435,-1,396,435,394,-1,394,435,437,-1,394,437,392,-1,392,437,439,-1,392,439,390,-1,390,439,441,-1,390,441,388,-1,388,441,443,-1,388,443,384,-1,384,443,445,-1,384,445,385,-1,385,445,446,-1,387,447,386,-1,386,447,444,-1,386,444,389,-1,389,444,442,-1,389,442,391,-1,391,442,440,-1,391,440,393,-1,393,440,438,-1,393,438,395,-1,395,438,436,-1,395,436,397,-1,397,436,434,-1,397,434,399,-1,399,434,433,-1,399,433,401,-1,401,433,431,-1,401,431,402,-1,402,431,429,-1,402,429,404,-1,404,429,427,-1,404,427,406,-1,406,427,425,-1,406,425,408,-1,408,425,423,-1,408,423,410,-1,410,423,421,-1,410,421,412,-1,412,421,418,-1,412,418,415,-1,415,418,419,-1,448,449,450,-1,450,449,451,-1,448,450,452,-1,452,450,453,-1,452,453,454,-1,454,453,455,-1,454,455,456,-1,456,455,457,-1,456,457,458,-1,458,457,459,-1,458,459,460,-1,460,459,461,-1,460,461,462,-1,462,461,463,-1,464,462,465,-1,465,462,463,-1,464,465,466,-1,464,466,467,-1,467,466,468,-1,467,468,469,-1,469,468,470,-1,469,470,471,-1,471,470,472,-1,471,472,473,-1,473,472,474,-1,473,474,475,-1,475,474,476,-1,475,476,477,-1,478,477,479,-1,479,477,476,-1,480,481,482,-1,482,481,483,-1,480,482,484,-1,484,482,485,-1,484,485,486,-1,486,485,487,-1,486,487,488,-1,488,487,489,-1,488,489,490,-1,490,489,491,-1,490,491,492,-1,492,491,493,-1,492,493,494,-1,494,493,495,-1,496,494,497,-1,497,494,495,-1,496,497,498,-1,496,498,499,-1,499,498,500,-1,499,500,501,-1,501,500,502,-1,501,502,503,-1,503,502,504,-1,503,504,505,-1,505,504,506,-1,505,506,507,-1,507,506,508,-1,507,508,509,-1,510,509,511,-1,511,509,508,-1,449,510,451,-1,451,510,511,-1,478,481,477,-1,477,481,480,-1,477,480,475,-1,475,480,484,-1,475,484,473,-1,473,484,486,-1,473,486,471,-1,471,486,488,-1,471,488,469,-1,469,488,490,-1,469,490,467,-1,467,490,492,-1,467,492,464,-1,464,492,494,-1,464,494,462,-1,462,494,496,-1,462,496,460,-1,460,496,499,-1,460,499,458,-1,458,499,501,-1,458,501,456,-1,456,501,503,-1,456,503,454,-1,454,503,505,-1,454,505,452,-1,452,505,507,-1,452,507,448,-1,448,507,509,-1,448,509,449,-1,449,509,510,-1,451,511,450,-1,450,511,508,-1,450,508,453,-1,453,508,506,-1,453,506,455,-1,455,506,504,-1,455,504,457,-1,457,504,502,-1,457,502,459,-1,459,502,500,-1,459,500,461,-1,461,500,498,-1,461,498,463,-1,463,498,497,-1,463,497,465,-1,465,497,495,-1,465,495,466,-1,466,495,493,-1,466,493,468,-1,468,493,491,-1,468,491,470,-1,470,491,489,-1,470,489,472,-1,472,489,487,-1,472,487,474,-1,474,487,485,-1,474,485,476,-1,476,485,482,-1,476,482,479,-1,479,482,483,-1,512,513,514,-1,514,513,515,-1,512,514,516,-1,516,514,517,-1,516,517,518,-1,518,517,519,-1,518,519,520,-1,520,519,521,-1,520,521,522,-1,522,521,523,-1,522,523,524,-1,524,523,525,-1,524,525,526,-1,526,525,527,-1,528,526,529,-1,529,526,527,-1,528,529,530,-1,528,530,531,-1,531,530,532,-1,531,532,533,-1,533,532,534,-1,533,534,535,-1,535,534,536,-1,535,536,537,-1,537,536,538,-1,537,538,539,-1,539,538,540,-1,539,540,541,-1,542,541,543,-1,543,541,540,-1,544,545,546,-1,546,545,547,-1,544,546,548,-1,548,546,549,-1,548,549,550,-1,550,549,551,-1,550,551,552,-1,552,551,553,-1,552,553,554,-1,554,553,555,-1,554,555,556,-1,556,555,557,-1,556,557,558,-1,558,557,559,-1,560,558,561,-1,561,558,559,-1,560,561,562,-1,560,562,563,-1,563,562,564,-1,563,564,565,-1,565,564,566,-1,565,566,567,-1,567,566,568,-1,567,568,569,-1,569,568,570,-1,569,570,571,-1,571,570,572,-1,571,572,573,-1,574,573,575,-1,575,573,572,-1,513,574,515,-1,515,574,575,-1,542,545,541,-1,541,545,544,-1,541,544,539,-1,539,544,548,-1,539,548,537,-1,537,548,550,-1,537,550,535,-1,535,550,552,-1,535,552,533,-1,533,552,554,-1,533,554,531,-1,531,554,556,-1,531,556,528,-1,528,556,558,-1,528,558,526,-1,526,558,560,-1,526,560,524,-1,524,560,563,-1,524,563,522,-1,522,563,565,-1,522,565,520,-1,520,565,567,-1,520,567,518,-1,518,567,569,-1,518,569,516,-1,516,569,571,-1,516,571,512,-1,512,571,573,-1,512,573,513,-1,513,573,574,-1,515,575,514,-1,514,575,572,-1,514,572,517,-1,517,572,570,-1,517,570,519,-1,519,570,568,-1,519,568,521,-1,521,568,566,-1,521,566,523,-1,523,566,564,-1,523,564,525,-1,525,564,562,-1,525,562,527,-1,527,562,561,-1,527,561,529,-1,529,561,559,-1,529,559,530,-1,530,559,557,-1,530,557,532,-1,532,557,555,-1,532,555,534,-1,534,555,553,-1,534,553,536,-1,536,553,551,-1,536,551,538,-1,538,551,549,-1,538,549,540,-1,540,549,546,-1,540,546,543,-1,543,546,547,-1,576,577,578,-1,578,577,579,-1,576,578,580,-1,580,578,581,-1,580,581,582,-1,582,581,583,-1,582,583,584,-1,584,583,585,-1,584,585,586,-1,586,585,587,-1,586,587,588,-1,588,587,589,-1,588,589,590,-1,590,589,591,-1,592,590,593,-1,593,590,591,-1,592,593,594,-1,592,594,595,-1,595,594,596,-1,595,596,597,-1,597,596,598,-1,597,598,599,-1,599,598,600,-1,599,600,601,-1,601,600,602,-1,601,602,603,-1,603,602,604,-1,603,604,605,-1,606,605,607,-1,607,605,604,-1,608,609,610,-1,610,609,611,-1,608,610,612,-1,612,610,613,-1,612,613,614,-1,614,613,615,-1,614,615,616,-1,616,615,617,-1,616,617,618,-1,618,617,619,-1,618,619,620,-1,620,619,621,-1,620,621,622,-1,622,621,623,-1,624,622,625,-1,625,622,623,-1,624,625,626,-1,624,626,627,-1,627,626,628,-1,627,628,629,-1,629,628,630,-1,629,630,631,-1,631,630,632,-1,631,632,633,-1,633,632,634,-1,633,634,635,-1,635,634,636,-1,635,636,637,-1,638,637,639,-1,639,637,636,-1,577,638,579,-1,579,638,639,-1,606,609,605,-1,605,609,608,-1,605,608,603,-1,603,608,612,-1,603,612,601,-1,601,612,614,-1,601,614,599,-1,599,614,616,-1,599,616,597,-1,597,616,618,-1,597,618,595,-1,595,618,620,-1,595,620,592,-1,592,620,622,-1,592,622,590,-1,590,622,624,-1,590,624,588,-1,588,624,627,-1,588,627,586,-1,586,627,629,-1,586,629,584,-1,584,629,631,-1,584,631,582,-1,582,631,633,-1,582,633,580,-1,580,633,635,-1,580,635,576,-1,576,635,637,-1,576,637,577,-1,577,637,638,-1,579,639,578,-1,578,639,636,-1,578,636,581,-1,581,636,634,-1,581,634,583,-1,583,634,632,-1,583,632,585,-1,585,632,630,-1,585,630,587,-1,587,630,628,-1,587,628,589,-1,589,628,626,-1,589,626,591,-1,591,626,625,-1,591,625,593,-1,593,625,623,-1,593,623,594,-1,594,623,621,-1,594,621,596,-1,596,621,619,-1,596,619,598,-1,598,619,617,-1,598,617,600,-1,600,617,615,-1,600,615,602,-1,602,615,613,-1,602,613,604,-1,604,613,610,-1,604,610,607,-1,607,610,611,-1,640,641,642,-1,642,641,643,-1,642,643,644,-1,644,643,645,-1,644,645,646,-1,646,645,647,-1,646,647,640,-1,640,647,641,-1,
        ]
    }
}
Shape{
    appearance Appearance {
        material  Material 	{
            diffuseColor 0.2235294117647059 0.2235294117647059 0.2235294117647059
            specularColor 0.11372549019607843 0.11372549019607843 0.11372549019607843
            ambientIntensity 0.2
            transparency 0
            shininess 0.5
        }
    }
    geometry IndexedFaceSet {
        ccw TRUE
        solid FALSE
        coord DEF co Coordinate {
            point [
                -0.3635 0.1009 0.0039, -0.4403 -0.0959 0.0039, -0.3635 0.1009 0.0, -0.4403 -0.0959 0.0, -0.4115 -0.0959 0.0039, -0.4115 -0.0959 0.0, -0.3916 -0.0407 0.0039, -0.3916 -0.0407 0.0, -0.3102 -0.0407 0.0039, -0.3102 -0.0407 0.0, -0.2914 -0.0959 0.0039, -0.2914 -0.0959 0.0, -0.2626 -0.0959 0.0039, -0.2626 -0.0959 0.0, -0.3371 0.1009 0.0039, -0.3371 0.1009 0.0, -0.3169 -0.0191 0.0039, -0.3827 -0.0191 0.0039, -0.3462 0.0631 0.0039, -0.3481 0.0699 0.0039, -0.3494 0.0769 0.0039, -0.35 0.0769 0.0039, -0.3513 0.0699 0.0039, -0.3531 0.0631 0.0039, -0.3169 -0.0191 0.0, -0.3827 -0.0191 0.0, -0.3462 0.0631 0.0, -0.3481 0.0699 0.0, -0.3494 0.0769 0.0, -0.35 0.0769 0.0, -0.3513 0.0699 0.0, -0.3531 0.0631 0.0, -0.1433 -0.0959 0.0039, -0.0898 -0.0959 0.0039, -0.1433 -0.0959 0.0, -0.0898 -0.0959 0.0, -0.0898 0.1009 0.0039, -0.0898 0.1009 0.0, -0.1453 0.1009 0.0039, -0.1453 0.1009 0.0, -0.2482 0.005 0.0039, -0.2482 0.005 0.0, -0.2468 0.0235 0.0, -0.2468 0.0235 0.0039, -0.2415 0.0429 0.0, -0.2415 0.0429 0.0039, -0.2324 0.0598 0.0, -0.2324 0.0598 0.0039, -0.2184 0.0752 0.0, -0.2184 0.0752 0.0039, -0.2182 0.0754 0.0, -0.2182 0.0754 0.0039, -0.1968 0.0898 0.0, -0.1968 0.0898 0.0039, -0.1738 0.0979 0.0, -0.1738 0.0979 0.0039, -0.1677 -0.0938 0.0, -0.1677 -0.0938 0.0039, -0.1904 -0.0871 0.0, -0.1904 -0.0871 0.0039, -0.2109 -0.0751 0.0, -0.2109 -0.0751 0.0039, -0.2271 -0.0596 0.0, -0.2271 -0.0596 0.0039, -0.2384 -0.042 0.0, -0.2384 -0.042 0.0039, -0.2455 -0.0214 0.0, -0.2455 -0.0214 0.0039, -0.2087 0.0517 0.0039, -0.1992 0.0618 0.0039, -0.1848 0.0711 0.0039, -0.1685 0.0768 0.0039, -0.1452 0.0793 0.0039, -0.1162 0.0793 0.0039, -0.1162 -0.0743 0.0039, -0.1441 -0.0743 0.0039, -0.1649 -0.0724 0.0039, -0.1815 -0.0672 0.0039, -0.1949 -0.0593 0.0039, -0.2059 -0.0484 0.0039, -0.2142 -0.0348 0.0039, -0.22 -0.0163 0.0039, -0.2218 0.0044 0.0039, -0.2202 0.024 0.0039, -0.2156 0.0396 0.0039, -0.1452 0.0793 0.0, -0.1162 0.0793 0.0, -0.1685 0.0768 0.0, -0.1848 0.0711 0.0, -0.1992 0.0618 0.0, -0.2087 0.0517 0.0, -0.2156 0.0396 0.0, -0.2202 0.024 0.0, -0.2218 0.0044 0.0, -0.22 -0.0163 0.0, -0.2142 -0.0348 0.0, -0.2059 -0.0484 0.0, -0.1949 -0.0593 0.0, -0.1815 -0.0672 0.0, -0.1649 -0.0724 0.0, -0.1441 -0.0743 0.0, -0.1162 -0.0743 0.0, -0.0514 -0.0743 0.0039, -0.0514 -0.0959 0.0039, -0.0514 -0.0743 0.0, -0.0514 -0.0959 0.0, 0.0542 -0.0959 0.0039, 0.0542 -0.0959 0.0, 0.0542 0.1009 0.0039, 0.0542 0.1009 0.0, -0.0466 0.1009 0.0039, -0.0466 0.1009 0.0, -0.0466 0.0793 0.0039, -0.0466 0.0793 0.0, 0.0278 0.0793 0.0039, 0.0278 0.0793 0.0, 0.0278 0.0145 0.0039, 0.0278 0.0145 0.0, -0.0418 0.0145 0.0039, -0.0418 0.0145 0.0, -0.0418 -0.0071 0.0039, -0.0418 -0.0071 0.0, 0.0278 -0.0071 0.0039, 0.0278 -0.0071 0.0, 0.0278 -0.0743 0.0039, 0.0278 -0.0743 0.0, 0.0927 -0.0641 0.0039, 0.0927 -0.0857 0.0039, 0.0927 -0.0641 0.0, 0.0927 -0.0857 0.0, 0.1136 -0.0944 0.0039, 0.1468 -0.0983 0.0039, 0.1468 -0.0983 0.0, 0.1414 -0.0983 0.0, 0.1414 -0.0983 0.0039, 0.1335 -0.0971 0.0, 0.1136 -0.0944 0.0, 0.2391 -0.0012 0.0039, 0.2391 -0.0012 0.0, 0.2372 -0.024 0.0, 0.2372 -0.024 0.0039, 0.2313 -0.0449 0.0, 0.2313 -0.0449 0.0039, 0.2208 -0.0636 0.0, 0.2208 -0.0636 0.0039, 0.206 -0.0792 0.0, 0.206 -0.0792 0.0039, 0.1902 -0.0893 0.0, 0.1902 -0.0893 0.0039, 0.1711 -0.0958 0.0, 0.1711 -0.0958 0.0039, 0.1584 -0.0971 0.0, 0.139 0.1033 0.0039, 0.139 0.1033 0.0, 0.1587 0.1017 0.0, 0.1587 0.1017 0.0039, 0.1807 0.0953 0.0, 0.1807 0.0953 0.0039, 0.1994 0.0846 0.0, 0.1994 0.0846 0.0039, 0.2172 0.0675 0.0, 0.2172 0.0675 0.0039, 0.2287 0.0491 0.0, 0.2287 0.0491 0.0039, 0.2363 0.0268 0.0, 0.2363 0.0268 0.0039, 0.0927 0.0955 0.0039, 0.0927 0.0955 0.0, 0.1154 0.1017 0.0, 0.1154 0.1017 0.0039, 0.0927 0.0691 0.0039, 0.0927 0.0691 0.0, 0.1388 0.0817 0.0039, 0.1388 0.0817 0.0, 0.1148 0.0786 0.0, 0.1148 0.0786 0.0039, 0.2127 0.0004 0.0039, 0.2127 0.0004 0.0, 0.2117 0.0157 0.0, 0.2117 0.0157 0.0039, 0.2065 0.0368 0.0, 0.2065 0.0368 0.0039, 0.1984 0.052 0.0, 0.1984 0.052 0.0039, 0.1865 0.0651 0.0, 0.1865 0.0651 0.0039, 0.1729 0.0742 0.0, 0.1729 0.0742 0.0039, 0.1581 0.0795 0.0, 0.1581 0.0795 0.0039, 0.1432 -0.0767 0.0039, 0.1432 -0.0767 0.0, 0.1615 -0.0747 0.0, 0.1615 -0.0747 0.0039, 0.1759 -0.0694 0.0, 0.1759 -0.0694 0.0039, 0.188 -0.0613 0.0, 0.188 -0.0613 0.0039, 0.1972 -0.0515 0.0, 0.1972 -0.0515 0.0039, 0.2053 -0.0379 0.0, 0.2053 -0.0379 0.0039, 0.2107 -0.0209 0.0, 0.2107 -0.0209 0.0039, 0.0962 -0.0661 0.0, 0.0962 -0.0661 0.0039, 0.1171 -0.0738 0.0, 0.1171 -0.0738 0.0039, 0.2559 -0.0743 0.0039, 0.2559 -0.0959 0.0039, 0.2559 -0.0743 0.0, 0.2559 -0.0959 0.0, 0.3567 -0.0959 0.0039, 0.3567 -0.0959 0.0, 0.3567 0.1009 0.0039, 0.3567 0.1009 0.0, 0.3303 0.1009 0.0039, 0.3303 0.1009 0.0, 0.3303 -0.0743 0.0039, 0.3303 -0.0743 0.0, 0.3303 -0.0743 0.0
            ]
        }
        coordIndex [
            0,1,2,-1,2,1,3,-1,1,4,3,-1,3,4,5,-1,4,6,5,-1,5,6,7,-1,6,8,7,-1,7,8,9,-1,8,10,9,-1,9,10,11,-1,10,12,11,-1,11,12,13,-1,12,14,13,-1,13,14,15,-1,14,0,15,-1,15,0,2,-1,16,8,17,-1,17,8,6,-1,18,14,16,-1,16,14,12,-1,16,12,8,-1,8,12,10,-1,18,19,14,-1,14,19,20,-1,14,20,0,-1,0,20,21,-1,0,21,22,-1,22,23,0,-1,0,23,17,-1,0,17,1,-1,1,17,6,-1,1,6,4,-1,16,17,24,-1,24,17,25,-1,18,16,26,-1,26,16,24,-1,18,26,27,-1,18,27,19,-1,19,27,28,-1,19,28,20,-1,21,20,29,-1,29,20,28,-1,21,29,30,-1,21,30,22,-1,22,30,31,-1,22,31,23,-1,17,23,25,-1,25,23,31,-1,32,33,34,-1,34,33,35,-1,33,36,35,-1,35,36,37,-1,36,38,37,-1,37,38,39,-1,40,41,42,-1,40,42,43,-1,43,42,44,-1,43,44,45,-1,45,44,46,-1,45,46,47,-1,47,46,48,-1,47,48,49,-1,49,48,50,-1,49,50,51,-1,51,50,52,-1,51,52,53,-1,53,52,54,-1,53,54,55,-1,55,54,39,-1,55,39,38,-1,32,34,56,-1,32,56,57,-1,57,56,58,-1,57,58,59,-1,59,58,60,-1,59,60,61,-1,61,60,62,-1,61,62,63,-1,63,62,64,-1,63,64,65,-1,65,64,66,-1,65,66,67,-1,67,66,41,-1,67,41,40,-1,45,47,68,-1,68,47,49,-1,68,49,69,-1,69,49,51,-1,69,51,70,-1,70,51,53,-1,70,53,71,-1,71,53,55,-1,71,55,72,-1,72,55,38,-1,72,38,73,-1,73,38,36,-1,73,36,74,-1,74,36,33,-1,74,33,75,-1,75,33,32,-1,75,32,76,-1,76,32,57,-1,76,57,77,-1,77,57,59,-1,77,59,78,-1,78,59,61,-1,78,61,79,-1,79,61,63,-1,79,63,80,-1,80,63,65,-1,80,65,81,-1,81,65,67,-1,81,67,82,-1,82,67,40,-1,82,40,83,-1,83,40,43,-1,83,43,84,-1,84,43,45,-1,84,45,68,-1,72,73,85,-1,85,73,86,-1,72,85,87,-1,72,87,71,-1,71,87,88,-1,71,88,70,-1,70,88,89,-1,70,89,69,-1,69,89,90,-1,69,90,68,-1,68,90,91,-1,68,91,84,-1,84,91,92,-1,84,92,83,-1,83,92,93,-1,83,93,82,-1,82,93,94,-1,82,94,81,-1,81,94,95,-1,81,95,80,-1,80,95,96,-1,80,96,79,-1,79,96,97,-1,79,97,78,-1,78,97,98,-1,78,98,77,-1,77,98,99,-1,77,99,76,-1,76,99,100,-1,76,100,75,-1,74,75,101,-1,101,75,100,-1,73,74,86,-1,86,74,101,-1,102,103,104,-1,104,103,105,-1,103,106,105,-1,105,106,107,-1,106,108,107,-1,107,108,109,-1,108,110,109,-1,109,110,111,-1,110,112,111,-1,111,112,113,-1,112,114,113,-1,113,114,115,-1,114,116,115,-1,115,116,117,-1,116,118,117,-1,117,118,119,-1,118,120,119,-1,119,120,121,-1,120,122,121,-1,121,122,123,-1,122,124,123,-1,123,124,125,-1,124,102,125,-1,125,102,104,-1,106,103,102,-1,102,124,106,-1,106,124,122,-1,106,122,108,-1,112,110,114,-1,114,110,108,-1,114,108,116,-1,116,108,122,-1,116,122,118,-1,118,122,120,-1,126,127,128,-1,128,127,129,-1,129,127,130,-1,131,132,133,-1,131,133,134,-1,134,133,135,-1,134,135,130,-1,130,135,136,-1,130,136,129,-1,137,138,139,-1,137,139,140,-1,140,139,141,-1,140,141,142,-1,142,141,143,-1,142,143,144,-1,144,143,145,-1,144,145,146,-1,146,145,147,-1,146,147,148,-1,148,147,149,-1,148,149,150,-1,150,149,131,-1,131,149,151,-1,131,151,132,-1,152,153,154,-1,152,154,155,-1,155,154,156,-1,155,156,157,-1,157,156,158,-1,157,158,159,-1,159,158,160,-1,159,160,161,-1,161,160,162,-1,161,162,163,-1,163,162,164,-1,163,164,165,-1,165,164,138,-1,165,138,137,-1,166,167,168,-1,166,168,169,-1,169,168,153,-1,169,153,152,-1,166,170,167,-1,167,170,171,-1,172,173,174,-1,172,174,175,-1,175,174,171,-1,175,171,170,-1,176,177,178,-1,176,178,179,-1,179,178,180,-1,179,180,181,-1,181,180,182,-1,181,182,183,-1,183,182,184,-1,183,184,185,-1,185,184,186,-1,185,186,187,-1,187,186,188,-1,187,188,189,-1,189,188,173,-1,189,173,172,-1,190,191,192,-1,190,192,193,-1,193,192,194,-1,193,194,195,-1,195,194,196,-1,195,196,197,-1,197,196,198,-1,197,198,199,-1,199,198,200,-1,199,200,201,-1,201,200,202,-1,201,202,203,-1,203,202,177,-1,203,177,176,-1,126,128,204,-1,126,204,205,-1,205,204,206,-1,205,206,207,-1,207,206,191,-1,207,191,190,-1,193,131,190,-1,190,131,134,-1,190,134,207,-1,207,134,130,-1,207,130,205,-1,205,130,127,-1,205,127,126,-1,170,166,175,-1,175,166,169,-1,175,169,172,-1,172,169,152,-1,172,152,189,-1,189,152,155,-1,189,155,187,-1,187,155,157,-1,187,157,185,-1,185,157,159,-1,185,159,183,-1,183,159,161,-1,183,161,181,-1,181,161,163,-1,181,163,179,-1,179,163,165,-1,179,165,176,-1,176,165,137,-1,176,137,203,-1,203,137,140,-1,203,140,201,-1,201,140,142,-1,201,142,199,-1,199,142,144,-1,199,144,197,-1,197,144,146,-1,197,146,195,-1,195,146,148,-1,195,148,193,-1,193,148,150,-1,193,150,131,-1,208,209,210,-1,210,209,211,-1,209,212,211,-1,211,212,213,-1,212,214,213,-1,213,214,215,-1,214,216,215,-1,215,216,217,-1,216,218,217,-1,217,218,219,-1,218,208,219,-1,219,208,210,-1,216,214,218,-1,218,214,212,-1,218,212,208,-1,208,212,209,-1,
        ]
    }
}
Shape{
    appearance Appearance {
        material  Material 	{
            diffuseColor 0.6470588235294118 0.6196078431372549 0.5882352941176471
            specularColor 0.45098039215686275 0.43529411764705883 0.4117647058823529
            ambientIntensity 0.2
            transparency 0
            shininess 0.5
        }
    }
    geometry IndexedFaceSet {
        ccw TRUE
        solid FALSE
        coord DEF co Coordinate {
            point [
                -0.3169 -0.0191 0.0, -0.3827 -0.0191 0.0, -0.3462 0.0631 0.0, -0.3531 0.0631 0.0, -0.3481 0.0699 0.0, -0.3513 0.0699 0.0, -0.3494 0.0769 0.0, -0.35 0.0769 0.0, -0.1162 0.0793 0.0, -0.1162 -0.0743 0.0, -0.1452 0.0793 0.0, -0.1441 -0.0743 0.0, -0.1649 -0.0724 0.0, -0.2218 0.0044 0.0, -0.2202 0.024 0.0, -0.2156 0.0396 0.0, -0.1685 0.0768 0.0, -0.1815 -0.0672 0.0, -0.1949 -0.0593 0.0, -0.2059 -0.0484 0.0, -0.2142 -0.0348 0.0, -0.22 -0.0163 0.0, -0.2087 0.0517 0.0, -0.1992 0.0618 0.0, -0.1848 0.0711 0.0, -0.1848 0.0711 0.0
            ]
        }
        coordIndex [
            0,1,2,-1,2,1,3,-1,2,3,4,-1,4,3,5,-1,4,5,6,-1,6,5,7,-1,8,9,10,-1,10,9,11,-1,10,11,12,-1,13,14,10,-1,10,14,15,-1,10,15,16,-1,12,17,10,-1,10,17,18,-1,10,18,19,-1,19,20,10,-1,10,20,21,-1,10,21,13,-1,22,23,15,-1,15,23,24,-1,15,24,16,-1,
        ]
    }
}