#VRML V2.0 utf8
# 3D model generated by easyeda2kicad.py (https://github.com/uPesy/easyeda2kicad.py)

Shape{
    appearance Appearance {
        material  Material 	{
            diffuseColor 0.2235294117647059 0.2235294117647059 0.2235294117647059
            specularColor 0.11372549019607843 0.11372549019607843 0.11372549019607843
            ambientIntensity 0.2
            transparency 0
            shininess 0.5
        }
    }
    geometry IndexedFaceSet {
        ccw TRUE
        solid FALSE
        coord DEF co Coordinate {
            point [
                0.082 0.0642 -0.2362, 0.0936 0.0629 -0.2362, 0.0564 -0.0245 -0.2362, 0.1128 -0.0384 -0.2362, 0.1523 -0.0424 -0.2362, 0.1014 -0.0424 -0.2362, 0.0938 -0.0431 -0.2362, 0.0676 0.0623 -0.2362, 0.0543 -0.0233 -0.2362, 0.0543 0.0566 -0.2362, 0.0428 0.8661 -0.2362, 0.0543 0.0724 -0.2362, 0.1025 0.0597 -0.2362, 0.1106 0.0542 -0.2362, 0.1178 0.0463 -0.2362, 0.1263 0.0154 -0.2362, 0.1252 0.0026 -0.2362, 0.1219 -0.0076 -0.2362, 0.0957 -0.0297 -0.2362, 0.0846 -0.0309 -0.2362, 0.1043 -0.0265 -0.2362, 0.1115 -0.0216 -0.2362, 0.1171 -0.0158 -0.2362, 0.069 -0.0292 -0.2362, 0.136 0.0446 -0.2362, 0.129 0.0556 -0.2362, 0.1969 0.0757 -0.2362, 0.2128 0.0757 -0.2362, 1.0335 0.8661 -0.2362, 0.2128 -0.0424 -0.2362, 1.0335 -0.0431 -0.2362, 0.1226 0.0372 -0.2362, 0.1258 0.0246 -0.2362, 0.1223 -0.0323 -0.2362, 0.1312 -0.023 -0.2362, 0.1523 -0.0295 -0.2362, 0.1375 -0.0118 -0.2362, 0.1969 -0.0295 -0.2362, 0.1184 0.0659 -0.2362, 0.1072 0.0723 -0.2362, 0.094 0.0762 -0.2362, 0.1411 0.0007 -0.2362, 0.1422 0.0144 -0.2362, 0.1405 0.0312 -0.2362, 0.0821 0.0771 -0.2362, 0.068 0.0761 -0.2362, 0.0543 -0.0363 -0.2362, 0.0669 -0.0415 -0.2362, 0.0428 -0.0431 -0.2362, 0.0789 -0.0431 -0.2362, 0.0428 -0.8661 -0.2362, 0.0836 -0.0438 -0.2362, 1.0335 -0.8661 -0.2362, 0.0868 -0.0439 -0.2362, -0.0551 -0.0424 -0.2362, -0.0321 -0.0295 -0.2362, -0.0321 -0.0424 -0.2362, 0.0313 -0.0424 -0.2362, 0.0313 0.0757 -0.2362, -0.0292 0.0757 -0.2362, -1.0335 0.8661 -0.2362, -0.1588 -0.0424 -0.2362, -0.1443 -0.0101 -0.2362, -0.1375 -0.0206 -0.2362, -0.2035 0.0757 -0.2362, -0.2193 0.0757 -0.2362, -1.0335 -0.0431 -0.2362, 0.0154 0.0627 -0.2362, 0.0154 0.0238 -0.2362, -0.0292 0.0627 -0.2362, -0.0263 0.0238 -0.2362, -0.0263 0.0109 -0.2362, 0.0154 0.0109 -0.2362, 0.0154 -0.0295 -0.2362, -0.1278 -0.0299 -0.2362, -0.1155 -0.0371 -0.2362, -0.1019 -0.0411 -0.2362, -0.0551 0.0757 -0.2362, -0.1055 0.0739 -0.2362, -0.1194 0.069 -0.2362, -0.1322 0.0604 -0.2362, -0.0885 0.0757 -0.2362, -0.1323 0.0603 -0.2362, -0.1407 0.051 -0.2362, -0.1462 0.0409 -0.2362, -0.1493 0.0292 -0.2362, -0.1502 0.0181 -0.2362, -0.1485 0.0023 -0.2362, -0.2654 -0.0424 -0.2362, -0.2481 -0.0424 -0.2362, -0.0873 -0.0424 -0.2362, -0.2362 -0.0093 -0.2362, -0.1874 -0.0093 -0.2362, -0.1761 -0.0424 -0.2362, -1.0335 -0.8661 -0.2362, 1.2303 0.7595 0.748, 1.2303 1.063 0.748, 0.6054 1.063 0.748, -0.5531 -0.689 0.748, -0.5945 -0.689 0.748, -0.5945 -0.7047 0.748, 0.8017 -0.878 0.748, 0.7729 -0.878 0.748, 0.7729 -0.9234 0.748, 0.7489 -0.9234 0.748, 0.7489 -0.878 0.748, 0.6054 -0.9234 0.748, 0.6577 -0.878 0.748, 0.7729 -0.7267 0.748, 0.7729 -0.8563 0.748, 0.8017 -0.8563 0.748, 0.6054 -0.7241 0.748, 1.2303 -0.7241 0.748, 1.2303 -0.9234 0.748, 0.6577 -0.8575 0.748, 0.7116 -0.7868 0.748, 0.7473 -0.7267 0.748, 0.7489 -0.9236 0.748, 0.6054 -0.9951 0.748, 0.7729 -0.9236 0.748, 1.2303 -0.9951 0.748, -0.7406 -0.9234 0.748, -0.5945 -0.9234 0.748, -0.7406 -0.7279 0.748, -0.5945 -0.7241 0.748, -0.8102 -0.7591 0.748, -0.7798 -0.7468 0.748, -0.7798 -0.7241 0.748, -0.7786 -0.7464 0.748, -0.7499 -0.7279 0.748, -0.8776 -0.7241 0.748, -0.8776 -0.9234 0.748, -0.8102 -0.7831 0.748, -0.8065 -0.7821 0.748, -0.7798 -0.9234 0.748, -0.7828 -0.7722 0.748, -0.7798 -0.7701 0.748, -0.7646 -0.9234 0.748, -0.7646 -0.7599 0.748, -0.7646 -0.9272 0.748, -0.7798 -0.9951 0.748, -0.7406 -0.9272 0.748, -0.5945 -0.9951 0.748, 1.2303 0.7237 0.748, 0.6054 0.7237 0.748, 0.9469 0.689 0.748, 0.6054 0.689 0.748, 1.2303 -0.7047 0.748, 0.9469 -0.689 0.748, 0.6054 -0.7047 0.748, 0.6054 -0.689 0.748, 0.5531 -0.689 0.748, 0.5531 0.689 0.748, 0.5 0.7237 0.748, 0.5 -0.7047 0.748, 0.3815 -0.689 0.748, 0.3815 -0.7047 0.748, 0.4469 -0.689 0.748, 0.4469 0.689 0.748, 0.3815 0.689 0.748, 0.3815 0.7237 0.748, 0.127 0.7237 0.748, 0.127 0.689 0.748, 0.127 -0.7047 0.748, 0.127 -0.689 0.748, 0.0531 -0.689 0.748, 0.0531 0.689 0.748, -0.0 0.7237 0.748, -0.0 -0.7047 0.748, -0.9469 0.689 0.748, -0.8776 0.689 0.748, -0.8776 0.7237 0.748, -0.7798 0.689 0.748, -0.7798 0.7237 0.748, -0.5945 0.689 0.748, -0.5945 0.7237 0.748, -0.5531 0.689 0.748, -0.3673 0.7237 0.748, -1.0886 -0.7047 0.748, -0.9469 -0.689 0.748, -1.0886 0.7237 0.748, -0.1092 -0.7047 0.748, -0.0531 -0.689 0.748, -0.0531 0.689 0.748, -0.1092 0.689 0.748, -0.1092 0.7237 0.748, -0.4469 -0.689 0.748, -0.3673 -0.7047 0.748, -0.3673 -0.689 0.748, -0.1092 -0.689 0.748, -0.8492 0.9178 0.748, -0.8343 0.9125 0.748, -0.7798 1.063 0.748, -0.8117 0.7856 0.748, -0.8236 0.7735 0.748, -0.7798 0.7595 0.748, -0.803 0.8002 0.748, -0.8682 0.9198 0.748, -0.8776 1.063 0.748, -0.8776 0.919 0.748, -0.8367 0.7654 0.748, -0.8519 0.7604 0.748, -0.8611 0.7595 0.748, -0.8206 0.9032 0.748, -0.8089 0.8901 0.748, -0.8007 0.8744 0.748, -0.7963 0.8568 0.748, -0.7952 0.841 0.748, -0.7973 0.8183 0.748, -0.937 0.8783 0.748, -0.928 0.893 0.748, -1.0886 1.063 0.748, -0.9158 0.9052 0.748, -0.9013 0.9137 0.748, -0.8853 0.9184 0.748, -0.9049 0.7656 0.748, -0.9177 0.7739 0.748, -1.0886 0.7595 0.748, -0.9291 0.7856 0.748, -0.9378 0.8003 0.748, -0.9431 0.8173 0.748, -0.945 0.8373 0.748, -0.9428 0.8601 0.748, -0.8708 0.7585 0.748, -0.8776 0.7592 0.748, -0.8798 0.7595 0.748, -0.8901 0.7606 0.748, -0.3673 -0.9234 0.748, -0.2805 -0.766 0.748, -0.3673 -0.7241 0.748, -0.2805 -0.742 0.748, -0.2671 -0.7307 0.748, -0.2065 -0.7241 0.748, -0.1996 -0.7263 0.748, -0.1092 -0.7241 0.748, -0.1877 -0.7337 0.748, -0.1653 -0.8981 0.748, -0.1855 -0.8182 0.748, -0.2043 -0.8361 0.748, -0.1653 -0.9197 0.748, -0.1092 -0.9234 0.748, -0.2878 -0.9197 0.748, -0.2878 -0.91 0.748, -0.2861 -0.8914 0.748, -0.2812 -0.8769 0.748, -0.2732 -0.8645 0.748, -0.2571 -0.8484 0.748, -0.1798 -0.7419 0.748, -0.1744 -0.751 0.748, -0.1712 -0.7615 0.748, -0.1701 -0.7732 0.748, -0.1721 -0.7913 0.748, -0.1776 -0.8064 0.748, -0.2364 -0.8328 0.748, -0.2343 -0.8313 0.748, -0.2739 -0.7596 0.748, -0.2141 -0.8433 0.748, -0.2448 -0.8658 0.748, -0.2543 -0.8752 0.748, -0.2587 -0.8818 0.748, -0.261 -0.8889 0.748, -0.2619 -0.8981 0.748, -0.1992 -0.7973 0.748, -0.1954 -0.7865 0.748, -0.2603 -0.75 0.748, -0.2067 -0.8081 0.748, -0.1941 -0.7752 0.748, -0.195 -0.7666 0.748, -0.1973 -0.7601 0.748, -0.2114 -0.7463 0.748, -0.2206 -0.7432 0.748, -0.232 -0.7421 0.748, -0.2468 -0.7443 0.748, -0.2007 -0.7546 0.748, -0.2053 -0.7501 0.748, -0.2538 -0.7242 0.748, -0.2535 -0.7241 0.748, -0.2383 -0.7209 0.748, -0.2296 -0.7205 0.748, -0.2129 -0.7221 0.748, 0.2345 -0.7241 0.748, 0.127 -0.7241 0.748, 0.2233 -0.7274 0.748, 0.208 -0.7365 0.748, 0.3143 -0.8795 0.748, 0.3099 -0.891 0.748, 0.3815 -0.9234 0.748, 0.3026 -0.9015 0.748, 0.2916 -0.911 0.748, 0.2783 -0.9178 0.748, 0.2201 -0.8079 0.748, 0.2008 -0.8865 0.748, 0.2201 -0.8295 0.748, 0.217 -0.8959 0.748, 0.2364 -0.8295 0.748, 0.2058 -0.9156 0.748, 0.2008 -0.9129 0.748, 0.127 -0.9234 0.748, 0.208 -0.7581 0.748, 0.219 -0.7505 0.748, 0.2355 -0.8079 0.748, 0.2328 -0.7449 0.748, 0.2517 -0.8067 0.748, 0.2824 -0.7751 0.748, 0.2825 -0.7742 0.748, 0.2338 -0.9006 0.748, 0.246 -0.9015 0.748, 0.255 -0.8309 0.748, 0.2693 -0.8348 0.748, 0.3036 -0.8329 0.748, 0.3097 -0.8407 0.748, 0.3815 -0.7241 0.748, 0.314 -0.8501 0.748, 0.2594 -0.9224 0.748, 0.246 -0.9232 0.748, 0.2227 -0.921 0.748, 0.2589 -0.9004 0.748, 0.2897 -0.8658 0.748, 0.2888 -0.8569 0.748, 0.2865 -0.8502 0.748, 0.2627 -0.8038 0.748, 0.2706 -0.7996 0.748, 0.2755 -0.7952 0.748, 0.279 -0.7901 0.748, 0.2813 -0.784 0.748, 0.2698 -0.7482 0.748, 0.2628 -0.7452 0.748, 0.2818 -0.7661 0.748, 0.2514 -0.7432 0.748, 0.2466 -0.7431 0.748, 0.3046 -0.7485 0.748, 0.3078 -0.7577 0.748, 0.3159 -0.8603 0.748, 0.3161 -0.8643 0.748, 0.2733 -0.7507 0.748, 0.2799 -0.7598 0.748, 0.2771 -0.7549 0.748, 0.2726 -0.7241 0.748, 0.2817 -0.727 0.748, 0.2942 -0.8255 0.748, 0.3042 -0.7908 0.748, 0.2989 -0.7993 0.748, 0.269 -0.8973 0.748, 0.2761 -0.8932 0.748, 0.2889 -0.8737 0.748, 0.2819 -0.888 0.748, 0.2864 -0.8812 0.748, 0.2916 -0.7329 0.748, 0.2995 -0.7405 0.748, 0.3089 -0.7681 0.748, 0.3076 -0.7806 0.748, 0.2687 -0.8171 0.748, 0.2687 -0.8176 0.748, 0.273 -0.8158 0.748, 0.2832 -0.8206 0.748, 0.2873 -0.8093 0.748, 0.2957 -0.8028 0.748, 0.2827 -0.8443 0.748, 0.2774 -0.8394 0.748, 0.2532 -0.7215 0.748, 0.269 -0.723 0.748, 0.2394 -0.7226 0.748, -0.8776 -0.9951 0.748, -1.062 -0.9951 0.748, -0.9941 -1.063 0.748, -1.0886 -0.9685 0.748, -1.0886 -0.9234 0.748, -1.1337 -0.9234 0.748, -1.0886 -0.7241 0.748, -1.2303 -0.8268 0.748, 0.6054 0.7595 0.748, 0.5 1.063 0.748, 0.5 0.7595 0.748, 0.3815 1.063 0.748, 0.3815 0.7595 0.748, 0.127 1.063 0.748, 0.127 0.7595 0.748, -0.0 1.063 0.748, -0.0 0.7595 0.748, -0.1092 1.063 0.748, -0.1092 0.7595 0.748, -0.3673 1.063 0.748, -0.3673 0.7595 0.748, -0.5945 1.063 0.748, -0.5945 0.7595 0.748, -0.6358 0.7604 0.748, -0.6608 0.7604 0.748, -0.7433 0.7604 0.748, -0.7433 0.893 0.748, -0.7439 0.893 0.748, -0.7409 0.8877 0.748, -0.7434 0.8819 0.748, -0.7381 0.8827 0.748, -0.7644 0.7604 0.748, -0.7644 0.9179 0.748, -0.7375 0.9179 0.748, -0.7433 0.8709 0.748, -0.6563 0.7873 0.748, -0.6559 0.7873 0.748, -0.6593 0.7928 0.748, -0.6567 0.7987 0.748, -0.6358 0.9179 0.748, -0.6569 0.9179 0.748, -0.6569 0.8102 0.748, -0.6626 0.7982 0.748, 0.5 -0.7241 0.748, -0.0 -0.7241 0.748, -0.7798 -0.689 0.748, -0.7798 -0.7047 0.748, -0.8776 -0.689 0.748, -0.8776 -0.7047 0.748, -1.2303 1.063 0.748, -1.2303 0.7595 0.748, -1.2303 0.7237 0.748, -1.2303 -0.7047 0.748, -1.2303 -0.7241 0.748, 0.5 -0.9234 0.748, -0.0 -0.9234 0.748, -0.4469 0.689 0.748, -0.3673 0.689 0.748, -0.3673 -0.9951 0.748, -0.1092 -0.9951 0.748, -0.0 -0.9951 0.748, 0.127 -0.9951 0.748, 0.3815 -0.9951 0.748, 0.5 -0.9951 0.748, -0.8776 -1.063 0.748, -0.7798 -1.063 0.748, -0.5945 -1.063 0.748, -0.3673 -1.063 0.748, -0.1092 -1.063 0.748, -0.0 -1.063 0.748, 0.127 -1.063 0.748, 0.3815 -1.063 0.748, 0.5 -1.063 0.748, 0.6054 -1.063 0.748, 1.2303 -1.063 0.748, 1.2303 -1.063 0.748
            ]
        }
        coordIndex [
            0,1,2,-1,3,4,5,-1,5,4,6,-1,0,2,7,-1,7,2,8,-1,7,8,9,-1,9,8,10,-1,9,10,11,-1,1,12,2,-1,2,12,13,-1,2,13,14,-1,15,16,2,-1,2,16,17,-1,18,19,20,-1,20,19,21,-1,17,22,2,-1,2,22,21,-1,2,21,23,-1,23,21,19,-1,24,25,26,-1,26,25,10,-1,26,10,27,-1,27,10,28,-1,27,28,29,-1,29,28,30,-1,14,31,2,-1,2,31,32,-1,2,32,15,-1,3,33,4,-1,4,33,34,-1,4,34,35,-1,35,34,36,-1,35,36,37,-1,25,38,10,-1,10,38,39,-1,10,39,40,-1,36,41,37,-1,37,41,42,-1,37,42,26,-1,26,42,43,-1,26,43,24,-1,40,44,10,-1,10,44,45,-1,10,45,11,-1,46,47,48,-1,48,47,49,-1,48,49,50,-1,50,49,51,-1,50,51,52,-1,52,51,53,-1,52,53,30,-1,30,53,6,-1,30,6,29,-1,29,6,4,-1,54,55,56,-1,48,57,58,-1,59,60,58,-1,58,60,10,-1,58,10,48,-1,48,10,8,-1,48,8,46,-1,61,62,63,-1,64,65,60,-1,60,65,66,-1,67,68,69,-1,69,68,70,-1,71,72,73,-1,63,74,61,-1,61,74,75,-1,61,75,76,-1,73,55,71,-1,71,55,54,-1,71,54,70,-1,70,54,77,-1,70,77,69,-1,78,79,64,-1,64,79,80,-1,78,64,81,-1,81,64,60,-1,81,60,77,-1,77,60,59,-1,77,59,69,-1,80,82,64,-1,64,82,83,-1,64,83,84,-1,84,85,64,-1,64,85,86,-1,64,86,61,-1,61,86,87,-1,61,87,62,-1,88,89,48,-1,90,54,48,-1,48,54,56,-1,48,56,57,-1,91,92,89,-1,89,92,93,-1,89,93,48,-1,48,93,61,-1,48,61,90,-1,90,61,76,-1,65,88,66,-1,66,88,48,-1,66,48,94,-1,94,48,50,-1,95,96,97,-1,98,99,100,-1,101,102,103,-1,104,105,106,-1,106,105,107,-1,108,109,110,-1,111,108,112,-1,112,108,110,-1,112,110,113,-1,114,115,111,-1,111,115,116,-1,111,116,108,-1,117,118,119,-1,119,118,120,-1,119,120,103,-1,103,120,113,-1,103,113,101,-1,101,113,110,-1,121,122,123,-1,123,122,124,-1,125,126,127,-1,127,126,128,-1,127,128,129,-1,130,131,132,-1,132,131,133,-1,133,131,134,-1,133,134,135,-1,135,134,136,-1,136,134,137,-1,136,137,138,-1,139,140,141,-1,141,140,142,-1,141,142,121,-1,143,144,145,-1,145,144,146,-1,143,145,147,-1,147,145,148,-1,147,148,149,-1,149,148,150,-1,149,150,151,-1,146,144,152,-1,152,144,153,-1,152,153,151,-1,151,153,154,-1,151,154,149,-1,155,156,157,-1,157,156,154,-1,157,154,158,-1,158,154,153,-1,158,153,159,-1,153,160,159,-1,159,160,161,-1,159,161,162,-1,163,164,165,-1,162,161,166,-1,166,161,167,-1,166,167,165,-1,165,167,168,-1,165,168,163,-1,169,170,171,-1,171,170,172,-1,171,172,173,-1,173,172,174,-1,173,174,175,-1,175,174,176,-1,175,176,177,-1,178,179,180,-1,180,179,169,-1,181,168,182,-1,182,168,183,-1,183,168,167,-1,183,167,184,-1,184,167,185,-1,184,185,177,-1,186,187,188,-1,188,187,181,-1,188,181,189,-1,189,181,182,-1,190,191,192,-1,193,194,195,-1,193,195,196,-1,190,192,197,-1,197,192,198,-1,197,198,199,-1,194,200,195,-1,195,200,201,-1,195,201,202,-1,191,203,192,-1,192,203,204,-1,192,204,205,-1,205,206,192,-1,192,206,207,-1,192,207,195,-1,195,207,208,-1,195,208,196,-1,209,210,211,-1,210,212,211,-1,211,212,213,-1,211,213,198,-1,198,213,214,-1,198,214,199,-1,215,216,217,-1,217,216,218,-1,217,218,219,-1,219,220,217,-1,217,220,221,-1,217,221,211,-1,211,221,222,-1,211,222,209,-1,223,224,171,-1,171,224,225,-1,169,171,180,-1,180,171,225,-1,180,225,217,-1,217,225,226,-1,217,226,215,-1,227,228,229,-1,229,228,230,-1,229,230,231,-1,232,233,234,-1,234,233,235,-1,236,237,238,-1,236,239,240,-1,240,239,241,-1,240,241,227,-1,227,241,242,-1,242,243,227,-1,227,243,244,-1,227,244,228,-1,228,244,245,-1,228,245,246,-1,235,247,234,-1,234,247,248,-1,234,248,249,-1,249,250,234,-1,234,250,251,-1,234,251,236,-1,236,251,252,-1,236,252,237,-1,246,253,228,-1,228,253,254,-1,228,254,255,-1,238,256,236,-1,236,256,257,-1,236,257,258,-1,258,259,236,-1,236,259,260,-1,236,260,261,-1,262,263,264,-1,255,254,264,-1,264,254,265,-1,264,265,262,-1,263,266,264,-1,264,266,267,-1,264,267,268,-1,269,270,264,-1,264,270,271,-1,264,271,272,-1,268,273,264,-1,264,273,274,-1,264,274,269,-1,231,275,229,-1,229,275,276,-1,229,276,187,-1,276,277,187,-1,187,277,278,-1,187,278,181,-1,181,278,279,-1,181,279,232,-1,280,281,282,-1,282,281,283,-1,284,285,286,-1,285,287,286,-1,286,287,288,-1,286,288,289,-1,290,291,292,-1,292,291,293,-1,292,293,294,-1,295,296,297,-1,297,296,291,-1,297,291,298,-1,298,291,290,-1,298,290,299,-1,299,290,300,-1,299,300,301,-1,301,300,302,-1,301,303,304,-1,293,305,294,-1,294,305,306,-1,294,306,307,-1,307,306,308,-1,309,310,311,-1,311,310,312,-1,289,313,286,-1,286,313,314,-1,286,314,297,-1,297,314,315,-1,297,315,295,-1,316,317,306,-1,306,317,318,-1,306,318,319,-1,302,320,301,-1,301,320,321,-1,301,321,322,-1,322,323,301,-1,301,323,324,-1,301,324,303,-1,325,326,327,-1,327,326,328,-1,327,328,304,-1,304,328,329,-1,304,329,301,-1,311,330,331,-1,312,332,286,-1,286,332,333,-1,286,333,284,-1,325,327,334,-1,334,327,335,-1,334,335,336,-1,311,337,338,-1,309,311,339,-1,339,311,340,-1,339,340,341,-1,316,342,317,-1,317,342,343,-1,317,343,344,-1,344,343,345,-1,344,345,346,-1,338,347,311,-1,311,347,348,-1,311,348,330,-1,331,349,311,-1,311,349,350,-1,311,350,340,-1,351,352,353,-1,353,352,354,-1,353,354,355,-1,355,354,339,-1,355,339,356,-1,356,339,341,-1,319,357,306,-1,306,357,358,-1,306,358,308,-1,359,360,156,-1,156,360,337,-1,155,164,156,-1,156,164,163,-1,156,163,359,-1,359,163,361,-1,362,363,364,-1,365,366,367,-1,367,366,368,-1,367,368,369,-1,95,97,370,-1,370,97,371,-1,370,371,372,-1,372,371,373,-1,372,373,374,-1,374,373,375,-1,374,375,376,-1,376,375,377,-1,376,377,378,-1,378,377,379,-1,378,379,380,-1,380,379,381,-1,380,381,382,-1,382,381,383,-1,382,383,384,-1,385,386,384,-1,384,386,387,-1,384,387,195,-1,388,389,390,-1,390,389,391,-1,390,391,392,-1,387,393,195,-1,195,393,394,-1,195,394,192,-1,192,394,395,-1,392,391,386,-1,386,391,396,-1,386,396,387,-1,397,398,399,-1,399,398,400,-1,385,384,401,-1,401,384,383,-1,401,383,402,-1,402,383,192,-1,402,192,403,-1,403,192,395,-1,403,395,400,-1,400,395,404,-1,400,404,399,-1,223,171,202,-1,202,171,173,-1,202,173,195,-1,195,173,175,-1,195,175,384,-1,384,175,177,-1,384,177,382,-1,382,177,185,-1,382,185,380,-1,380,185,167,-1,380,167,378,-1,378,167,161,-1,378,161,376,-1,376,161,160,-1,376,160,374,-1,374,160,153,-1,374,153,372,-1,372,153,144,-1,372,144,370,-1,370,144,143,-1,370,143,95,-1,337,311,156,-1,156,311,405,-1,156,405,154,-1,154,405,111,-1,154,111,149,-1,149,111,112,-1,149,112,147,-1,232,234,181,-1,181,234,406,-1,181,406,168,-1,168,406,281,-1,168,281,163,-1,163,281,280,-1,163,280,361,-1,99,407,100,-1,100,407,408,-1,100,408,124,-1,124,408,127,-1,124,127,123,-1,123,127,129,-1,407,409,408,-1,408,409,410,-1,408,410,127,-1,127,410,130,-1,127,130,125,-1,125,130,132,-1,211,411,217,-1,217,411,412,-1,217,412,180,-1,180,412,413,-1,180,413,178,-1,178,413,414,-1,178,414,368,-1,368,414,415,-1,368,415,369,-1,312,286,311,-1,311,286,416,-1,311,416,405,-1,405,416,106,-1,405,106,111,-1,111,106,107,-1,111,107,114,-1,236,240,234,-1,234,240,417,-1,234,417,406,-1,406,417,297,-1,406,297,281,-1,281,297,298,-1,281,298,283,-1,122,227,124,-1,124,227,229,-1,124,229,100,-1,100,229,187,-1,100,187,98,-1,98,187,186,-1,98,186,176,-1,176,186,418,-1,176,418,177,-1,177,418,419,-1,177,419,184,-1,409,179,410,-1,410,179,178,-1,410,178,130,-1,130,178,368,-1,130,368,131,-1,131,368,366,-1,131,366,363,-1,363,366,365,-1,121,142,122,-1,122,142,420,-1,122,420,227,-1,227,420,421,-1,227,421,240,-1,240,421,422,-1,240,422,417,-1,417,422,423,-1,417,423,297,-1,297,423,424,-1,297,424,286,-1,286,424,425,-1,286,425,416,-1,416,425,118,-1,416,118,106,-1,106,118,117,-1,106,117,104,-1,363,362,131,-1,131,362,140,-1,131,140,134,-1,134,140,139,-1,134,139,137,-1,364,426,362,-1,362,426,427,-1,362,427,140,-1,140,427,428,-1,140,428,142,-1,142,428,429,-1,142,429,420,-1,420,429,430,-1,420,430,421,-1,421,430,431,-1,421,431,422,-1,422,431,432,-1,422,432,423,-1,423,432,433,-1,423,433,424,-1,424,433,434,-1,424,434,425,-1,425,434,435,-1,425,435,118,-1,118,435,436,-1,118,436,120,-1,
        ]
    }
}
Shape{
    appearance Appearance {
        material  Material 	{
            diffuseColor 0.25098039215686274 0.25098039215686274 0.25098039215686274
            specularColor 0.12549019607843137 0.12549019607843137 0.12549019607843137
            ambientIntensity 0.2
            transparency 0
            shininess 0.5
        }
    }
    geometry IndexedFaceSet {
        ccw TRUE
        solid FALSE
        coord DEF co Coordinate {
            point [
                0.5531 0.689 0.748, 0.5531 0.348 0.5512, 0.6054 0.689 0.748, 0.9469 0.348 0.5512, 0.9469 0.689 0.748, 0.5531 -0.348 0.5512, 0.5571 -0.2693 0.5512, 0.5571 0.0457 0.5512, 0.9429 -0.2693 0.5512, 0.9469 -0.348 0.5512, 0.9429 0.0457 0.5512, 0.9469 -0.689 0.748, 0.6054 -0.689 0.748, 0.5531 -0.689 0.748, 0.5531 -0.689 0.748
            ]
        }
        coordIndex [
            0,1,2,-1,2,1,3,-1,2,3,4,-1,5,6,7,-1,6,5,8,-1,8,5,9,-1,8,9,10,-1,10,9,3,-1,10,3,7,-1,7,3,1,-1,7,1,5,-1,11,9,12,-1,12,9,5,-1,12,5,13,-1,5,1,13,-1,13,1,0,-1,11,4,9,-1,9,4,3,-1,
        ]
    }
}
Shape{
    appearance Appearance {
        material  Material 	{
            diffuseColor 1.0 1.0 1.0
            specularColor 0.5019607843137255 0.5019607843137255 0.5019607843137255
            ambientIntensity 0.2
            transparency 0
            shininess 0.5
        }
    }
    geometry IndexedFaceSet {
        ccw TRUE
        solid FALSE
        coord DEF co Coordinate {
            point [
                0.5571 0.0457 0.7087, 0.9429 0.0457 0.7087, 0.5571 0.0457 0.5512, 0.9429 0.0457 0.5512, 0.9429 -0.2693 0.7087, 0.5571 -0.2693 0.7087, 0.9429 -0.2693 0.5512, 0.5571 -0.2693 0.5512, 0.5571 -0.2693 0.5512
            ]
        }
        coordIndex [
            0,1,2,-1,2,1,3,-1,4,1,5,-1,5,1,0,-1,1,4,3,-1,3,4,6,-1,4,5,6,-1,6,5,7,-1,5,0,7,-1,7,0,2,-1,
        ]
    }
}
Shape{
    appearance Appearance {
        material  Material 	{
            diffuseColor 0.25098039215686274 0.25098039215686274 0.25098039215686274
            specularColor 0.12549019607843137 0.12549019607843137 0.12549019607843137
            ambientIntensity 0.2
            transparency 0
            shininess 0.5
        }
    }
    geometry IndexedFaceSet {
        ccw TRUE
        solid FALSE
        coord DEF co Coordinate {
            point [
                0.0531 0.689 0.748, 0.0531 0.348 0.5512, 0.127 0.689 0.748, 0.4469 0.348 0.5512, 0.3815 0.689 0.748, 0.4469 0.689 0.748, 0.0531 -0.348 0.5512, 0.0571 -0.2693 0.5512, 0.0571 0.0457 0.5512, 0.4429 -0.2693 0.5512, 0.4469 -0.348 0.5512, 0.4429 0.0457 0.5512, 0.4469 -0.689 0.748, 0.3815 -0.689 0.748, 0.127 -0.689 0.748, 0.0531 -0.689 0.748, 0.0531 -0.689 0.748
            ]
        }
        coordIndex [
            0,1,2,-1,2,1,3,-1,2,3,4,-1,4,3,5,-1,6,7,8,-1,7,6,9,-1,9,6,10,-1,9,10,11,-1,11,10,3,-1,11,3,8,-1,8,3,1,-1,8,1,6,-1,12,10,13,-1,13,10,6,-1,13,6,14,-1,14,6,15,-1,6,1,15,-1,15,1,0,-1,12,5,10,-1,10,5,3,-1,
        ]
    }
}
Shape{
    appearance Appearance {
        material  Material 	{
            diffuseColor 1.0 1.0 1.0
            specularColor 0.5019607843137255 0.5019607843137255 0.5019607843137255
            ambientIntensity 0.2
            transparency 0
            shininess 0.5
        }
    }
    geometry IndexedFaceSet {
        ccw TRUE
        solid FALSE
        coord DEF co Coordinate {
            point [
                0.0571 0.0457 0.7087, 0.4429 0.0457 0.7087, 0.0571 0.0457 0.5512, 0.4429 0.0457 0.5512, 0.4429 -0.2693 0.7087, 0.0571 -0.2693 0.7087, 0.4429 -0.2693 0.5512, 0.0571 -0.2693 0.5512, 0.0571 -0.2693 0.5512
            ]
        }
        coordIndex [
            0,1,2,-1,2,1,3,-1,4,1,5,-1,5,1,0,-1,1,4,3,-1,3,4,6,-1,4,5,6,-1,6,5,7,-1,5,0,7,-1,7,0,2,-1,
        ]
    }
}
Shape{
    appearance Appearance {
        material  Material 	{
            diffuseColor 0.25098039215686274 0.25098039215686274 0.25098039215686274
            specularColor 0.12549019607843137 0.12549019607843137 0.12549019607843137
            ambientIntensity 0.2
            transparency 0
            shininess 0.5
        }
    }
    geometry IndexedFaceSet {
        ccw TRUE
        solid FALSE
        coord DEF co Coordinate {
            point [
                -0.9469 -0.348 0.5512, -0.9429 -0.2693 0.5512, -0.9429 0.0457 0.5512, -0.5571 -0.2693 0.5512, -0.5531 -0.348 0.5512, -0.5571 0.0457 0.5512, -0.5531 0.348 0.5512, -0.9469 0.348 0.5512, -0.8776 -1.063 0.748, -0.9941 -1.063 0.748, -0.9941 -1.063 0.6299, -0.1614 -1.063 -0.0394, 0.1614 -1.063 -0.0394, -0.1614 -1.063 0.0197, 0.1614 -1.063 0.0197, -1.2303 -1.063 -0.0394, -0.8386 -1.063 -0.0394, -1.2303 -1.063 0.6299, -0.8386 -1.063 0.0197, -0.6614 -1.063 0.0197, 0.3815 -1.063 0.748, 0.127 -1.063 0.748, 0.3386 -1.063 0.0197, 1.2303 -1.063 0.748, 0.6054 -1.063 0.748, 0.5 -1.063 0.748, 0.8386 -1.063 -0.0394, 1.2303 -1.063 -0.0394, 0.8386 -1.063 0.0197, 0.6614 -1.063 0.0197, 0.6614 -1.063 -0.0394, 0.3386 -1.063 -0.0394, -0.0 -1.063 0.748, -0.1092 -1.063 0.748, -0.3386 -1.063 0.0197, -0.3673 -1.063 0.748, -0.5945 -1.063 0.748, -0.7798 -1.063 0.748, -0.3386 -1.063 -0.0394, -0.6614 -1.063 -0.0394, 0.6614 1.063 -0.0394, 0.3386 1.063 -0.0394, 0.6614 1.063 0.0197, 0.3386 1.063 0.0197, 0.127 1.063 0.748, 0.3815 1.063 0.748, 0.1614 1.063 -0.0394, -0.1614 1.063 -0.0394, 0.1614 1.063 0.0197, -0.1614 1.063 0.0197, 1.2303 1.063 -0.0394, 0.8386 1.063 -0.0394, 1.2303 1.063 0.748, 0.8386 1.063 0.0197, 0.6054 1.063 0.748, 0.5 1.063 0.748, -0.3386 1.063 -0.0394, -0.6614 1.063 -0.0394, -0.3386 1.063 0.0197, -0.6614 1.063 0.0197, -0.7798 1.063 0.748, -0.5945 1.063 0.748, -0.3673 1.063 0.748, -0.1092 1.063 0.748, -0.0 1.063 0.748, -0.8386 1.063 -0.0394, -1.2303 1.063 -0.0394, -0.8386 1.063 0.0197, -1.2303 1.063 0.748, -1.0886 1.063 0.748, -0.8776 1.063 0.748, 1.2303 0.7595 0.748, 1.2303 0.7237 0.748, 1.2303 -0.7047 0.748, 1.2303 -0.7241 0.748, 1.2303 -0.9234 0.748, 1.2303 -0.9951 0.748, -1.2303 0.7595 0.748, -1.2303 -0.8268 0.6299, -1.2303 -0.8268 0.748, -1.2303 -0.7241 0.748, -1.2303 -0.7047 0.748, -1.2303 0.7237 0.748, -1.2303 0.7237 0.748
            ]
        }
        coordIndex [
            0,1,2,-1,1,0,3,-1,3,0,4,-1,3,4,5,-1,5,4,6,-1,5,6,2,-1,2,6,7,-1,2,7,0,-1,8,9,10,-1,11,12,13,-1,13,12,14,-1,15,16,17,-1,17,16,18,-1,17,18,10,-1,10,18,19,-1,13,20,21,-1,22,23,14,-1,14,23,24,-1,14,24,13,-1,13,24,25,-1,13,25,20,-1,26,27,28,-1,28,27,23,-1,28,23,29,-1,29,23,22,-1,29,22,30,-1,30,22,31,-1,21,32,13,-1,13,32,33,-1,13,33,34,-1,33,35,34,-1,34,35,36,-1,34,36,37,-1,37,8,34,-1,34,8,10,-1,34,10,38,-1,38,10,19,-1,38,19,39,-1,40,41,42,-1,42,41,43,-1,42,44,45,-1,46,47,48,-1,48,47,49,-1,50,51,52,-1,52,51,53,-1,52,53,54,-1,54,53,42,-1,54,42,55,-1,55,42,45,-1,56,57,58,-1,58,57,59,-1,58,60,49,-1,49,60,61,-1,49,61,48,-1,48,61,62,-1,48,62,43,-1,43,62,63,-1,43,63,42,-1,42,63,64,-1,42,64,44,-1,65,66,67,-1,67,66,68,-1,67,68,59,-1,59,68,69,-1,59,69,58,-1,58,69,70,-1,58,70,60,-1,52,71,50,-1,50,71,72,-1,50,72,27,-1,27,72,73,-1,27,73,74,-1,74,75,27,-1,27,75,76,-1,27,76,23,-1,77,68,66,-1,15,17,66,-1,66,17,78,-1,79,80,78,-1,78,80,81,-1,78,81,66,-1,66,81,82,-1,66,82,77,-1,
        ]
    }
}
Shape{
    appearance Appearance {
        material  Material 	{
            diffuseColor 0.2235294117647059 0.2235294117647059 0.2235294117647059
            specularColor 0.11372549019607843 0.11372549019607843 0.11372549019607843
            ambientIntensity 0.2
            transparency 0
            shininess 0.5
        }
    }
    geometry IndexedFaceSet {
        ccw TRUE
        solid FALSE
        coord DEF co Coordinate {
            point [
                0.8386 1.063 -0.0394, 1.2303 1.063 -0.0394, 1.0335 0.8661 -0.2362, -1.2303 1.063 -0.0394, -0.8386 1.063 -0.0394, -1.0335 0.8661 -0.2362, -0.6614 1.063 -0.0394, 0.0428 0.8661 -0.2362, -0.3386 1.063 -0.0394, -0.1614 1.063 -0.0394, 0.1614 1.063 -0.0394, 0.3386 1.063 -0.0394, 0.6614 1.063 -0.0394, 1.0335 -0.0431 -0.2362, 1.2303 -1.063 -0.0394, 1.0335 -0.8661 -0.2362, -1.0335 -0.8661 -0.2362, -1.2303 -1.063 -0.0394, -1.0335 -0.0431 -0.2362, -0.8386 -1.063 -0.0394, 0.8386 -1.063 -0.0394, 0.6614 -1.063 -0.0394, 0.0428 -0.8661 -0.2362, 0.3386 -1.063 -0.0394, 0.1614 -1.063 -0.0394, -0.1614 -1.063 -0.0394, -0.3386 -1.063 -0.0394, -0.6614 -1.063 -0.0394, -0.6614 -1.063 -0.0394
            ]
        }
        coordIndex [
            0,1,2,-1,3,4,5,-1,5,4,6,-1,5,6,7,-1,7,6,8,-1,7,8,9,-1,9,10,7,-1,7,10,11,-1,7,11,2,-1,2,11,12,-1,2,12,0,-1,2,1,13,-1,13,1,14,-1,13,14,15,-1,16,17,18,-1,18,17,3,-1,18,3,5,-1,19,17,16,-1,14,20,15,-1,15,20,21,-1,15,21,22,-1,22,21,23,-1,22,23,24,-1,24,25,22,-1,22,25,26,-1,22,26,16,-1,16,26,27,-1,16,27,19,-1,
        ]
    }
}
Shape{
    appearance Appearance {
        material  Material 	{
            diffuseColor 1.0 1.0 1.0
            specularColor 0.5019607843137255 0.5019607843137255 0.5019607843137255
            ambientIntensity 0.2
            transparency 0
            shininess 0.5
        }
    }
    geometry IndexedFaceSet {
        ccw TRUE
        solid FALSE
        coord DEF co Coordinate {
            point [
                0.3386 -1.6614 -0.185, 0.3386 -1.3228 -0.185, 0.1614 -1.6614 -0.185, 0.1614 -1.3228 -0.185, 0.3386 -1.6614 -0.2441, 0.1614 -1.6614 -0.2441, 0.3386 -1.3228 -0.2441, 0.1614 -1.3228 -0.2441, 0.1614 -1.3038 -0.2418, 0.3386 -1.3038 -0.2418, 0.1614 -1.2859 -0.2349, 0.3386 -1.2859 -0.2349, 0.1614 -1.2701 -0.2239, 0.3386 -1.2701 -0.2239, 0.1614 -1.2576 -0.2094, 0.3386 -1.2576 -0.2094, 0.1614 -1.2488 -0.1923, 0.3386 -1.2488 -0.1923, 0.3386 -1.1979 -0.0523, 0.1614 -1.1979 -0.0523, 0.3386 -1.1957 -0.048, 0.1614 -1.1957 -0.048, 0.3386 -1.1926 -0.0444, 0.1614 -1.1926 -0.0444, 0.3386 -1.1886 -0.0417, 0.1614 -1.1886 -0.0417, 0.3386 -1.1842 -0.04, 0.1614 -1.1842 -0.04, 0.3386 -1.1794 -0.0394, 0.1614 -1.1794 -0.0394, 0.3386 -1.063 -0.0394, 0.1614 -1.063 -0.0394, 0.3386 -1.1794 0.0197, 0.3386 -1.063 0.0197, 0.1614 -1.1794 0.0197, 0.1614 -1.063 0.0197, 0.1614 -1.1985 0.0173, 0.3386 -1.1985 0.0173, 0.1614 -1.2164 0.0105, 0.3386 -1.2164 0.0105, 0.1614 -1.2321 -0.0005, 0.3386 -1.2321 -0.0005, 0.1614 -1.2447 -0.015, 0.3386 -1.2447 -0.015, 0.1614 -1.2534 -0.0321, 0.3386 -1.2534 -0.0321, 0.3386 -1.3043 -0.1721, 0.1614 -1.3043 -0.1721, 0.3386 -1.3065 -0.1764, 0.1614 -1.3065 -0.1764, 0.3386 -1.3097 -0.18, 0.1614 -1.3097 -0.18, 0.3386 -1.3136 -0.1827, 0.1614 -1.3136 -0.1827, 0.3386 -1.3181 -0.1845, 0.1614 -1.3181 -0.1845, 0.3386 1.3228 -0.185, 0.3386 1.6614 -0.185, 0.1614 1.3228 -0.185, 0.1614 1.6614 -0.185, 0.3386 1.3181 -0.1845, 0.1614 1.3181 -0.1845, 0.3386 1.3136 -0.1827, 0.1614 1.3136 -0.1827, 0.3386 1.3097 -0.18, 0.1614 1.3097 -0.18, 0.3386 1.3065 -0.1764, 0.1614 1.3065 -0.1764, 0.3386 1.3043 -0.1721, 0.1614 1.3043 -0.1721, 0.3386 1.2534 -0.0321, 0.1614 1.2534 -0.0321, 0.1614 1.2447 -0.015, 0.3386 1.2447 -0.015, 0.1614 1.2321 -0.0005, 0.3386 1.2321 -0.0005, 0.1614 1.2164 0.0105, 0.3386 1.2164 0.0105, 0.1614 1.1985 0.0173, 0.3386 1.1985 0.0173, 0.1614 1.1794 0.0197, 0.3386 1.1794 0.0197, 0.3386 1.063 0.0197, 0.1614 1.063 0.0197, 0.3386 1.1794 -0.0394, 0.3386 1.063 -0.0394, 0.1614 1.1794 -0.0394, 0.1614 1.063 -0.0394, 0.3386 1.1842 -0.04, 0.1614 1.1842 -0.04, 0.3386 1.1886 -0.0417, 0.1614 1.1886 -0.0417, 0.3386 1.1926 -0.0444, 0.1614 1.1926 -0.0444, 0.3386 1.1957 -0.048, 0.1614 1.1957 -0.048, 0.3386 1.1979 -0.0523, 0.1614 1.1979 -0.0523, 0.3386 1.2488 -0.1923, 0.1614 1.2488 -0.1923, 0.1614 1.2576 -0.2094, 0.3386 1.2576 -0.2094, 0.1614 1.2701 -0.2239, 0.3386 1.2701 -0.2239, 0.1614 1.2859 -0.2349, 0.3386 1.2859 -0.2349, 0.1614 1.3038 -0.2418, 0.3386 1.3038 -0.2418, 0.1614 1.3228 -0.2441, 0.3386 1.3228 -0.2441, 0.3386 1.6614 -0.2441, 0.1614 1.6614 -0.2441, -0.1614 1.3228 -0.185, -0.1614 1.6614 -0.185, -0.3386 1.3228 -0.185, -0.3386 1.6614 -0.185, -0.1614 1.3181 -0.1845, -0.3386 1.3181 -0.1845, -0.1614 1.3136 -0.1827, -0.3386 1.3136 -0.1827, -0.1614 1.3097 -0.18, -0.3386 1.3097 -0.18, -0.1614 1.3065 -0.1764, -0.3386 1.3065 -0.1764, -0.1614 1.3043 -0.1721, -0.3386 1.3043 -0.1721, -0.1614 1.2534 -0.0321, -0.3386 1.2534 -0.0321, -0.3386 1.2447 -0.015, -0.1614 1.2447 -0.015, -0.3386 1.2321 -0.0005, -0.1614 1.2321 -0.0005, -0.3386 1.2164 0.0105, -0.1614 1.2164 0.0105, -0.3386 1.1985 0.0173, -0.1614 1.1985 0.0173, -0.3386 1.1794 0.0197, -0.1614 1.1794 0.0197, -0.1614 1.063 0.0197, -0.3386 1.063 0.0197, -0.1614 1.1794 -0.0394, -0.1614 1.063 -0.0394, -0.3386 1.1794 -0.0394, -0.3386 1.063 -0.0394, -0.1614 1.1842 -0.04, -0.3386 1.1842 -0.04, -0.1614 1.1886 -0.0417, -0.3386 1.1886 -0.0417, -0.1614 1.1926 -0.0444, -0.3386 1.1926 -0.0444, -0.1614 1.1957 -0.048, -0.3386 1.1957 -0.048, -0.1614 1.1979 -0.0523, -0.3386 1.1979 -0.0523, -0.1614 1.2488 -0.1923, -0.3386 1.2488 -0.1923, -0.3386 1.2576 -0.2094, -0.1614 1.2576 -0.2094, -0.3386 1.2701 -0.2239, -0.1614 1.2701 -0.2239, -0.3386 1.2859 -0.2349, -0.1614 1.2859 -0.2349, -0.3386 1.3038 -0.2418, -0.1614 1.3038 -0.2418, -0.3386 1.3228 -0.2441, -0.1614 1.3228 -0.2441, -0.1614 1.6614 -0.2441, -0.3386 1.6614 -0.2441, -0.6614 1.3228 -0.185, -0.6614 1.6614 -0.185, -0.8386 1.3228 -0.185, -0.8386 1.6614 -0.185, -0.6614 1.3181 -0.1845, -0.8386 1.3181 -0.1845, -0.6614 1.3136 -0.1827, -0.8386 1.3136 -0.1827, -0.6614 1.3097 -0.18, -0.8386 1.3097 -0.18, -0.6614 1.3065 -0.1764, -0.8386 1.3065 -0.1764, -0.6614 1.3043 -0.1721, -0.8386 1.3043 -0.1721, -0.6614 1.2534 -0.0321, -0.8386 1.2534 -0.0321, -0.8386 1.2447 -0.015, -0.6614 1.2447 -0.015, -0.8386 1.2321 -0.0005, -0.6614 1.2321 -0.0005, -0.8386 1.2164 0.0105, -0.6614 1.2164 0.0105, -0.8386 1.1985 0.0173, -0.6614 1.1985 0.0173, -0.8386 1.1794 0.0197, -0.6614 1.1794 0.0197, -0.6614 1.063 0.0197, -0.8386 1.063 0.0197, -0.6614 1.1794 -0.0394, -0.6614 1.063 -0.0394, -0.8386 1.1794 -0.0394, -0.8386 1.063 -0.0394, -0.6614 1.1842 -0.04, -0.8386 1.1842 -0.04, -0.6614 1.1886 -0.0417, -0.8386 1.1886 -0.0417, -0.6614 1.1926 -0.0444, -0.8386 1.1926 -0.0444, -0.6614 1.1957 -0.048, -0.8386 1.1957 -0.048, -0.6614 1.1979 -0.0523, -0.8386 1.1979 -0.0523, -0.6614 1.2488 -0.1923, -0.8386 1.2488 -0.1923, -0.8386 1.2576 -0.2094, -0.6614 1.2576 -0.2094, -0.8386 1.2701 -0.2239, -0.6614 1.2701 -0.2239, -0.8386 1.2859 -0.2349, -0.6614 1.2859 -0.2349, -0.8386 1.3038 -0.2418, -0.6614 1.3038 -0.2418, -0.8386 1.3228 -0.2441, -0.6614 1.3228 -0.2441, -0.6614 1.6614 -0.2441, -0.8386 1.6614 -0.2441, 0.8386 1.3228 -0.185, 0.8386 1.6614 -0.185, 0.6614 1.3228 -0.185, 0.6614 1.6614 -0.185, 0.8386 1.3181 -0.1845, 0.6614 1.3181 -0.1845, 0.8386 1.3136 -0.1827, 0.6614 1.3136 -0.1827, 0.8386 1.3097 -0.18, 0.6614 1.3097 -0.18, 0.8386 1.3065 -0.1764, 0.6614 1.3065 -0.1764, 0.8386 1.3043 -0.1721, 0.6614 1.3043 -0.1721, 0.8386 1.2534 -0.0321, 0.6614 1.2534 -0.0321, 0.6614 1.2447 -0.015, 0.8386 1.2447 -0.015, 0.6614 1.2321 -0.0005, 0.8386 1.2321 -0.0005, 0.6614 1.2164 0.0105, 0.8386 1.2164 0.0105, 0.6614 1.1985 0.0173, 0.8386 1.1985 0.0173, 0.6614 1.1794 0.0197, 0.8386 1.1794 0.0197, 0.8386 1.063 0.0197, 0.6614 1.063 0.0197, 0.8386 1.1794 -0.0394, 0.8386 1.063 -0.0394, 0.6614 1.1794 -0.0394, 0.6614 1.063 -0.0394, 0.8386 1.1842 -0.04, 0.6614 1.1842 -0.04, 0.8386 1.1886 -0.0417, 0.6614 1.1886 -0.0417, 0.8386 1.1926 -0.0444, 0.6614 1.1926 -0.0444, 0.8386 1.1957 -0.048, 0.6614 1.1957 -0.048, 0.8386 1.1979 -0.0523, 0.6614 1.1979 -0.0523, 0.8386 1.2488 -0.1923, 0.6614 1.2488 -0.1923, 0.6614 1.2576 -0.2094, 0.8386 1.2576 -0.2094, 0.6614 1.2701 -0.2239, 0.8386 1.2701 -0.2239, 0.6614 1.2859 -0.2349, 0.8386 1.2859 -0.2349, 0.6614 1.3038 -0.2418, 0.8386 1.3038 -0.2418, 0.6614 1.3228 -0.2441, 0.8386 1.3228 -0.2441, 0.8386 1.6614 -0.2441, 0.6614 1.6614 -0.2441, -0.1614 -1.6614 -0.185, -0.1614 -1.3228 -0.185, -0.3386 -1.6614 -0.185, -0.3386 -1.3228 -0.185, -0.1614 -1.6614 -0.2441, -0.3386 -1.6614 -0.2441, -0.1614 -1.3228 -0.2441, -0.3386 -1.3228 -0.2441, -0.3386 -1.3038 -0.2418, -0.1614 -1.3038 -0.2418, -0.3386 -1.2859 -0.2349, -0.1614 -1.2859 -0.2349, -0.3386 -1.2701 -0.2239, -0.1614 -1.2701 -0.2239, -0.3386 -1.2576 -0.2094, -0.1614 -1.2576 -0.2094, -0.3386 -1.2488 -0.1923, -0.1614 -1.2488 -0.1923, -0.1614 -1.1979 -0.0523, -0.3386 -1.1979 -0.0523, -0.1614 -1.1957 -0.048, -0.3386 -1.1957 -0.048, -0.1614 -1.1926 -0.0444, -0.3386 -1.1926 -0.0444, -0.1614 -1.1886 -0.0417, -0.3386 -1.1886 -0.0417, -0.1614 -1.1842 -0.04, -0.3386 -1.1842 -0.04, -0.1614 -1.1794 -0.0394, -0.3386 -1.1794 -0.0394, -0.1614 -1.063 -0.0394, -0.3386 -1.063 -0.0394, -0.1614 -1.1794 0.0197, -0.1614 -1.063 0.0197, -0.3386 -1.1794 0.0197, -0.3386 -1.063 0.0197, -0.3386 -1.1985 0.0173, -0.1614 -1.1985 0.0173, -0.3386 -1.2164 0.0105, -0.1614 -1.2164 0.0105, -0.3386 -1.2321 -0.0005, -0.1614 -1.2321 -0.0005, -0.3386 -1.2447 -0.015, -0.1614 -1.2447 -0.015, -0.3386 -1.2534 -0.0321, -0.1614 -1.2534 -0.0321, -0.1614 -1.3043 -0.1721, -0.3386 -1.3043 -0.1721, -0.1614 -1.3065 -0.1764, -0.3386 -1.3065 -0.1764, -0.1614 -1.3097 -0.18, -0.3386 -1.3097 -0.18, -0.1614 -1.3136 -0.1827, -0.3386 -1.3136 -0.1827, -0.1614 -1.3181 -0.1845, -0.3386 -1.3181 -0.1845, -0.6614 -1.6614 -0.185, -0.6614 -1.3228 -0.185, -0.8386 -1.6614 -0.185, -0.8386 -1.3228 -0.185, -0.6614 -1.6614 -0.2441, -0.8386 -1.6614 -0.2441, -0.6614 -1.3228 -0.2441, -0.8386 -1.3228 -0.2441, -0.8386 -1.3038 -0.2418, -0.6614 -1.3038 -0.2418, -0.8386 -1.2859 -0.2349, -0.6614 -1.2859 -0.2349, -0.8386 -1.2701 -0.2239, -0.6614 -1.2701 -0.2239, -0.8386 -1.2576 -0.2094, -0.6614 -1.2576 -0.2094, -0.8386 -1.2488 -0.1923, -0.6614 -1.2488 -0.1923, -0.6614 -1.1979 -0.0523, -0.8386 -1.1979 -0.0523, -0.6614 -1.1957 -0.048, -0.8386 -1.1957 -0.048, -0.6614 -1.1926 -0.0444, -0.8386 -1.1926 -0.0444, -0.6614 -1.1886 -0.0417, -0.8386 -1.1886 -0.0417, -0.6614 -1.1842 -0.04, -0.8386 -1.1842 -0.04, -0.6614 -1.1794 -0.0394, -0.8386 -1.1794 -0.0394, -0.6614 -1.063 -0.0394, -0.8386 -1.063 -0.0394, -0.6614 -1.1794 0.0197, -0.6614 -1.063 0.0197, -0.8386 -1.1794 0.0197, -0.8386 -1.063 0.0197, -0.8386 -1.1985 0.0173, -0.6614 -1.1985 0.0173, -0.8386 -1.2164 0.0105, -0.6614 -1.2164 0.0105, -0.8386 -1.2321 -0.0005, -0.6614 -1.2321 -0.0005, -0.8386 -1.2447 -0.015, -0.6614 -1.2447 -0.015, -0.8386 -1.2534 -0.0321, -0.6614 -1.2534 -0.0321, -0.6614 -1.3043 -0.1721, -0.8386 -1.3043 -0.1721, -0.6614 -1.3065 -0.1764, -0.8386 -1.3065 -0.1764, -0.6614 -1.3097 -0.18, -0.8386 -1.3097 -0.18, -0.6614 -1.3136 -0.1827, -0.8386 -1.3136 -0.1827, -0.6614 -1.3181 -0.1845, -0.8386 -1.3181 -0.1845, 0.8386 -1.6614 -0.185, 0.8386 -1.3228 -0.185, 0.6614 -1.6614 -0.185, 0.6614 -1.3228 -0.185, 0.8386 -1.6614 -0.2441, 0.6614 -1.6614 -0.2441, 0.8386 -1.3228 -0.2441, 0.6614 -1.3228 -0.2441, 0.6614 -1.3038 -0.2418, 0.8386 -1.3038 -0.2418, 0.6614 -1.2859 -0.2349, 0.8386 -1.2859 -0.2349, 0.6614 -1.2701 -0.2239, 0.8386 -1.2701 -0.2239, 0.6614 -1.2576 -0.2094, 0.8386 -1.2576 -0.2094, 0.6614 -1.2488 -0.1923, 0.8386 -1.2488 -0.1923, 0.8386 -1.1979 -0.0523, 0.6614 -1.1979 -0.0523, 0.8386 -1.1957 -0.048, 0.6614 -1.1957 -0.048, 0.8386 -1.1926 -0.0444, 0.6614 -1.1926 -0.0444, 0.8386 -1.1886 -0.0417, 0.6614 -1.1886 -0.0417, 0.8386 -1.1842 -0.04, 0.6614 -1.1842 -0.04, 0.8386 -1.1794 -0.0394, 0.6614 -1.1794 -0.0394, 0.8386 -1.063 -0.0394, 0.6614 -1.063 -0.0394, 0.8386 -1.1794 0.0197, 0.8386 -1.063 0.0197, 0.6614 -1.1794 0.0197, 0.6614 -1.063 0.0197, 0.6614 -1.1985 0.0173, 0.8386 -1.1985 0.0173, 0.6614 -1.2164 0.0105, 0.8386 -1.2164 0.0105, 0.6614 -1.2321 -0.0005, 0.8386 -1.2321 -0.0005, 0.6614 -1.2447 -0.015, 0.8386 -1.2447 -0.015, 0.6614 -1.2534 -0.0321, 0.8386 -1.2534 -0.0321, 0.8386 -1.3043 -0.1721, 0.6614 -1.3043 -0.1721, 0.8386 -1.3065 -0.1764, 0.6614 -1.3065 -0.1764, 0.8386 -1.3097 -0.18, 0.6614 -1.3097 -0.18, 0.8386 -1.3136 -0.1827, 0.6614 -1.3136 -0.1827, 0.8386 -1.3181 -0.1845, 0.6614 -1.3181 -0.1845, 0.6614 -1.3181 -0.1845
            ]
        }
        coordIndex [
            0,1,2,-1,2,1,3,-1,4,0,5,-1,5,0,2,-1,6,4,7,-1,7,4,5,-1,6,7,8,-1,6,8,9,-1,9,8,10,-1,9,10,11,-1,11,10,12,-1,11,12,13,-1,13,12,14,-1,13,14,15,-1,15,14,16,-1,15,16,17,-1,18,17,19,-1,19,17,16,-1,18,19,20,-1,20,19,21,-1,20,21,22,-1,22,21,23,-1,22,23,24,-1,24,23,25,-1,24,25,26,-1,26,25,27,-1,26,27,28,-1,28,27,29,-1,30,28,31,-1,31,28,29,-1,32,33,34,-1,34,33,35,-1,32,34,36,-1,32,36,37,-1,37,36,38,-1,37,38,39,-1,39,38,40,-1,39,40,41,-1,41,40,42,-1,41,42,43,-1,43,42,44,-1,43,44,45,-1,46,45,47,-1,47,45,44,-1,46,47,48,-1,48,47,49,-1,48,49,50,-1,50,49,51,-1,50,51,52,-1,52,51,53,-1,52,53,54,-1,54,53,55,-1,54,55,1,-1,1,55,3,-1,30,33,28,-1,28,33,32,-1,28,32,26,-1,26,32,37,-1,26,37,24,-1,24,37,39,-1,24,39,22,-1,22,39,41,-1,22,41,20,-1,20,41,43,-1,20,43,18,-1,18,43,45,-1,18,45,17,-1,17,45,46,-1,17,46,15,-1,15,46,48,-1,15,48,13,-1,13,48,50,-1,13,50,11,-1,11,50,52,-1,11,52,9,-1,9,52,54,-1,9,54,6,-1,6,54,1,-1,6,1,4,-1,4,1,0,-1,5,2,7,-1,7,2,3,-1,7,3,8,-1,8,3,55,-1,8,55,10,-1,10,55,53,-1,10,53,12,-1,12,53,51,-1,12,51,14,-1,14,51,49,-1,14,49,16,-1,16,49,47,-1,16,47,19,-1,19,47,44,-1,19,44,21,-1,21,44,42,-1,21,42,23,-1,23,42,40,-1,23,40,25,-1,25,40,38,-1,25,38,27,-1,27,38,36,-1,27,36,29,-1,29,36,34,-1,29,34,31,-1,31,34,35,-1,56,57,58,-1,58,57,59,-1,56,58,60,-1,60,58,61,-1,60,61,62,-1,62,61,63,-1,62,63,64,-1,64,63,65,-1,64,65,66,-1,66,65,67,-1,66,67,68,-1,68,67,69,-1,70,68,71,-1,71,68,69,-1,70,71,72,-1,70,72,73,-1,73,72,74,-1,73,74,75,-1,75,74,76,-1,75,76,77,-1,77,76,78,-1,77,78,79,-1,79,78,80,-1,79,80,81,-1,82,81,83,-1,83,81,80,-1,84,85,86,-1,86,85,87,-1,84,86,88,-1,88,86,89,-1,88,89,90,-1,90,89,91,-1,90,91,92,-1,92,91,93,-1,92,93,94,-1,94,93,95,-1,94,95,96,-1,96,95,97,-1,98,96,99,-1,99,96,97,-1,98,99,100,-1,98,100,101,-1,101,100,102,-1,101,102,103,-1,103,102,104,-1,103,104,105,-1,105,104,106,-1,105,106,107,-1,107,106,108,-1,107,108,109,-1,110,109,111,-1,111,109,108,-1,57,110,59,-1,59,110,111,-1,110,57,109,-1,109,57,56,-1,109,56,107,-1,107,56,60,-1,107,60,105,-1,105,60,62,-1,105,62,103,-1,103,62,64,-1,103,64,101,-1,101,64,66,-1,101,66,98,-1,98,66,68,-1,98,68,96,-1,96,68,70,-1,96,70,94,-1,94,70,73,-1,94,73,92,-1,92,73,75,-1,92,75,90,-1,90,75,77,-1,90,77,88,-1,88,77,79,-1,88,79,84,-1,84,79,81,-1,84,81,85,-1,85,81,82,-1,87,83,86,-1,86,83,80,-1,86,80,89,-1,89,80,78,-1,89,78,91,-1,91,78,76,-1,91,76,93,-1,93,76,74,-1,93,74,95,-1,95,74,72,-1,95,72,97,-1,97,72,71,-1,97,71,99,-1,99,71,69,-1,99,69,100,-1,100,69,67,-1,100,67,102,-1,102,67,65,-1,102,65,104,-1,104,65,63,-1,104,63,106,-1,106,63,61,-1,106,61,108,-1,108,61,58,-1,108,58,111,-1,111,58,59,-1,112,113,114,-1,114,113,115,-1,112,114,116,-1,116,114,117,-1,116,117,118,-1,118,117,119,-1,118,119,120,-1,120,119,121,-1,120,121,122,-1,122,121,123,-1,122,123,124,-1,124,123,125,-1,126,124,127,-1,127,124,125,-1,126,127,128,-1,126,128,129,-1,129,128,130,-1,129,130,131,-1,131,130,132,-1,131,132,133,-1,133,132,134,-1,133,134,135,-1,135,134,136,-1,135,136,137,-1,138,137,139,-1,139,137,136,-1,140,141,142,-1,142,141,143,-1,140,142,144,-1,144,142,145,-1,144,145,146,-1,146,145,147,-1,146,147,148,-1,148,147,149,-1,148,149,150,-1,150,149,151,-1,150,151,152,-1,152,151,153,-1,154,152,155,-1,155,152,153,-1,154,155,156,-1,154,156,157,-1,157,156,158,-1,157,158,159,-1,159,158,160,-1,159,160,161,-1,161,160,162,-1,161,162,163,-1,163,162,164,-1,163,164,165,-1,166,165,167,-1,167,165,164,-1,113,166,115,-1,115,166,167,-1,166,113,165,-1,165,113,112,-1,165,112,163,-1,163,112,116,-1,163,116,161,-1,161,116,118,-1,161,118,159,-1,159,118,120,-1,159,120,157,-1,157,120,122,-1,157,122,154,-1,154,122,124,-1,154,124,152,-1,152,124,126,-1,152,126,150,-1,150,126,129,-1,150,129,148,-1,148,129,131,-1,148,131,146,-1,146,131,133,-1,146,133,144,-1,144,133,135,-1,144,135,140,-1,140,135,137,-1,140,137,141,-1,141,137,138,-1,143,139,142,-1,142,139,136,-1,142,136,145,-1,145,136,134,-1,145,134,147,-1,147,134,132,-1,147,132,149,-1,149,132,130,-1,149,130,151,-1,151,130,128,-1,151,128,153,-1,153,128,127,-1,153,127,155,-1,155,127,125,-1,155,125,156,-1,156,125,123,-1,156,123,158,-1,158,123,121,-1,158,121,160,-1,160,121,119,-1,160,119,162,-1,162,119,117,-1,162,117,164,-1,164,117,114,-1,164,114,167,-1,167,114,115,-1,168,169,170,-1,170,169,171,-1,168,170,172,-1,172,170,173,-1,172,173,174,-1,174,173,175,-1,174,175,176,-1,176,175,177,-1,176,177,178,-1,178,177,179,-1,178,179,180,-1,180,179,181,-1,182,180,183,-1,183,180,181,-1,182,183,184,-1,182,184,185,-1,185,184,186,-1,185,186,187,-1,187,186,188,-1,187,188,189,-1,189,188,190,-1,189,190,191,-1,191,190,192,-1,191,192,193,-1,194,193,195,-1,195,193,192,-1,196,197,198,-1,198,197,199,-1,196,198,200,-1,200,198,201,-1,200,201,202,-1,202,201,203,-1,202,203,204,-1,204,203,205,-1,204,205,206,-1,206,205,207,-1,206,207,208,-1,208,207,209,-1,210,208,211,-1,211,208,209,-1,210,211,212,-1,210,212,213,-1,213,212,214,-1,213,214,215,-1,215,214,216,-1,215,216,217,-1,217,216,218,-1,217,218,219,-1,219,218,220,-1,219,220,221,-1,222,221,223,-1,223,221,220,-1,169,222,171,-1,171,222,223,-1,222,169,221,-1,221,169,168,-1,221,168,219,-1,219,168,172,-1,219,172,217,-1,217,172,174,-1,217,174,215,-1,215,174,176,-1,215,176,213,-1,213,176,178,-1,213,178,210,-1,210,178,180,-1,210,180,208,-1,208,180,182,-1,208,182,206,-1,206,182,185,-1,206,185,204,-1,204,185,187,-1,204,187,202,-1,202,187,189,-1,202,189,200,-1,200,189,191,-1,200,191,196,-1,196,191,193,-1,196,193,197,-1,197,193,194,-1,199,195,198,-1,198,195,192,-1,198,192,201,-1,201,192,190,-1,201,190,203,-1,203,190,188,-1,203,188,205,-1,205,188,186,-1,205,186,207,-1,207,186,184,-1,207,184,209,-1,209,184,183,-1,209,183,211,-1,211,183,181,-1,211,181,212,-1,212,181,179,-1,212,179,214,-1,214,179,177,-1,214,177,216,-1,216,177,175,-1,216,175,218,-1,218,175,173,-1,218,173,220,-1,220,173,170,-1,220,170,223,-1,223,170,171,-1,224,225,226,-1,226,225,227,-1,224,226,228,-1,228,226,229,-1,228,229,230,-1,230,229,231,-1,230,231,232,-1,232,231,233,-1,232,233,234,-1,234,233,235,-1,234,235,236,-1,236,235,237,-1,238,236,239,-1,239,236,237,-1,238,239,240,-1,238,240,241,-1,241,240,242,-1,241,242,243,-1,243,242,244,-1,243,244,245,-1,245,244,246,-1,245,246,247,-1,247,246,248,-1,247,248,249,-1,250,249,251,-1,251,249,248,-1,252,253,254,-1,254,253,255,-1,252,254,256,-1,256,254,257,-1,256,257,258,-1,258,257,259,-1,258,259,260,-1,260,259,261,-1,260,261,262,-1,262,261,263,-1,262,263,264,-1,264,263,265,-1,266,264,267,-1,267,264,265,-1,266,267,268,-1,266,268,269,-1,269,268,270,-1,269,270,271,-1,271,270,272,-1,271,272,273,-1,273,272,274,-1,273,274,275,-1,275,274,276,-1,275,276,277,-1,278,277,279,-1,279,277,276,-1,225,278,227,-1,227,278,279,-1,278,225,277,-1,277,225,224,-1,277,224,275,-1,275,224,228,-1,275,228,273,-1,273,228,230,-1,273,230,271,-1,271,230,232,-1,271,232,269,-1,269,232,234,-1,269,234,266,-1,266,234,236,-1,266,236,264,-1,264,236,238,-1,264,238,262,-1,262,238,241,-1,262,241,260,-1,260,241,243,-1,260,243,258,-1,258,243,245,-1,258,245,256,-1,256,245,247,-1,256,247,252,-1,252,247,249,-1,252,249,253,-1,253,249,250,-1,255,251,254,-1,254,251,248,-1,254,248,257,-1,257,248,246,-1,257,246,259,-1,259,246,244,-1,259,244,261,-1,261,244,242,-1,261,242,263,-1,263,242,240,-1,263,240,265,-1,265,240,239,-1,265,239,267,-1,267,239,237,-1,267,237,268,-1,268,237,235,-1,268,235,270,-1,270,235,233,-1,270,233,272,-1,272,233,231,-1,272,231,274,-1,274,231,229,-1,274,229,276,-1,276,229,226,-1,276,226,279,-1,279,226,227,-1,280,281,282,-1,282,281,283,-1,284,280,285,-1,285,280,282,-1,286,284,287,-1,287,284,285,-1,286,287,288,-1,286,288,289,-1,289,288,290,-1,289,290,291,-1,291,290,292,-1,291,292,293,-1,293,292,294,-1,293,294,295,-1,295,294,296,-1,295,296,297,-1,298,297,299,-1,299,297,296,-1,298,299,300,-1,300,299,301,-1,300,301,302,-1,302,301,303,-1,302,303,304,-1,304,303,305,-1,304,305,306,-1,306,305,307,-1,306,307,308,-1,308,307,309,-1,310,308,311,-1,311,308,309,-1,312,313,314,-1,314,313,315,-1,312,314,316,-1,312,316,317,-1,317,316,318,-1,317,318,319,-1,319,318,320,-1,319,320,321,-1,321,320,322,-1,321,322,323,-1,323,322,324,-1,323,324,325,-1,326,325,327,-1,327,325,324,-1,326,327,328,-1,328,327,329,-1,328,329,330,-1,330,329,331,-1,330,331,332,-1,332,331,333,-1,332,333,334,-1,334,333,335,-1,334,335,281,-1,281,335,283,-1,310,313,308,-1,308,313,312,-1,308,312,306,-1,306,312,317,-1,306,317,304,-1,304,317,319,-1,304,319,302,-1,302,319,321,-1,302,321,300,-1,300,321,323,-1,300,323,298,-1,298,323,325,-1,298,325,297,-1,297,325,326,-1,297,326,295,-1,295,326,328,-1,295,328,293,-1,293,328,330,-1,293,330,291,-1,291,330,332,-1,291,332,289,-1,289,332,334,-1,289,334,286,-1,286,334,281,-1,286,281,284,-1,284,281,280,-1,285,282,287,-1,287,282,283,-1,287,283,288,-1,288,283,335,-1,288,335,290,-1,290,335,333,-1,290,333,292,-1,292,333,331,-1,292,331,294,-1,294,331,329,-1,294,329,296,-1,296,329,327,-1,296,327,299,-1,299,327,324,-1,299,324,301,-1,301,324,322,-1,301,322,303,-1,303,322,320,-1,303,320,305,-1,305,320,318,-1,305,318,307,-1,307,318,316,-1,307,316,309,-1,309,316,314,-1,309,314,311,-1,311,314,315,-1,336,337,338,-1,338,337,339,-1,340,336,341,-1,341,336,338,-1,342,340,343,-1,343,340,341,-1,342,343,344,-1,342,344,345,-1,345,344,346,-1,345,346,347,-1,347,346,348,-1,347,348,349,-1,349,348,350,-1,349,350,351,-1,351,350,352,-1,351,352,353,-1,354,353,355,-1,355,353,352,-1,354,355,356,-1,356,355,357,-1,356,357,358,-1,358,357,359,-1,358,359,360,-1,360,359,361,-1,360,361,362,-1,362,361,363,-1,362,363,364,-1,364,363,365,-1,366,364,367,-1,367,364,365,-1,368,369,370,-1,370,369,371,-1,368,370,372,-1,368,372,373,-1,373,372,374,-1,373,374,375,-1,375,374,376,-1,375,376,377,-1,377,376,378,-1,377,378,379,-1,379,378,380,-1,379,380,381,-1,382,381,383,-1,383,381,380,-1,382,383,384,-1,384,383,385,-1,384,385,386,-1,386,385,387,-1,386,387,388,-1,388,387,389,-1,388,389,390,-1,390,389,391,-1,390,391,337,-1,337,391,339,-1,366,369,364,-1,364,369,368,-1,364,368,362,-1,362,368,373,-1,362,373,360,-1,360,373,375,-1,360,375,358,-1,358,375,377,-1,358,377,356,-1,356,377,379,-1,356,379,354,-1,354,379,381,-1,354,381,353,-1,353,381,382,-1,353,382,351,-1,351,382,384,-1,351,384,349,-1,349,384,386,-1,349,386,347,-1,347,386,388,-1,347,388,345,-1,345,388,390,-1,345,390,342,-1,342,390,337,-1,342,337,340,-1,340,337,336,-1,341,338,343,-1,343,338,339,-1,343,339,344,-1,344,339,391,-1,344,391,346,-1,346,391,389,-1,346,389,348,-1,348,389,387,-1,348,387,350,-1,350,387,385,-1,350,385,352,-1,352,385,383,-1,352,383,355,-1,355,383,380,-1,355,380,357,-1,357,380,378,-1,357,378,359,-1,359,378,376,-1,359,376,361,-1,361,376,374,-1,361,374,363,-1,363,374,372,-1,363,372,365,-1,365,372,370,-1,365,370,367,-1,367,370,371,-1,392,393,394,-1,394,393,395,-1,396,392,397,-1,397,392,394,-1,398,396,399,-1,399,396,397,-1,398,399,400,-1,398,400,401,-1,401,400,402,-1,401,402,403,-1,403,402,404,-1,403,404,405,-1,405,404,406,-1,405,406,407,-1,407,406,408,-1,407,408,409,-1,410,409,411,-1,411,409,408,-1,410,411,412,-1,412,411,413,-1,412,413,414,-1,414,413,415,-1,414,415,416,-1,416,415,417,-1,416,417,418,-1,418,417,419,-1,418,419,420,-1,420,419,421,-1,422,420,423,-1,423,420,421,-1,424,425,426,-1,426,425,427,-1,424,426,428,-1,424,428,429,-1,429,428,430,-1,429,430,431,-1,431,430,432,-1,431,432,433,-1,433,432,434,-1,433,434,435,-1,435,434,436,-1,435,436,437,-1,438,437,439,-1,439,437,436,-1,438,439,440,-1,440,439,441,-1,440,441,442,-1,442,441,443,-1,442,443,444,-1,444,443,445,-1,444,445,446,-1,446,445,447,-1,446,447,393,-1,393,447,395,-1,422,425,420,-1,420,425,424,-1,420,424,418,-1,418,424,429,-1,418,429,416,-1,416,429,431,-1,416,431,414,-1,414,431,433,-1,414,433,412,-1,412,433,435,-1,412,435,410,-1,410,435,437,-1,410,437,409,-1,409,437,438,-1,409,438,407,-1,407,438,440,-1,407,440,405,-1,405,440,442,-1,405,442,403,-1,403,442,444,-1,403,444,401,-1,401,444,446,-1,401,446,398,-1,398,446,393,-1,398,393,396,-1,396,393,392,-1,397,394,399,-1,399,394,395,-1,399,395,400,-1,400,395,447,-1,400,447,402,-1,402,447,445,-1,402,445,404,-1,404,445,443,-1,404,443,406,-1,406,443,441,-1,406,441,408,-1,408,441,439,-1,408,439,411,-1,411,439,436,-1,411,436,413,-1,413,436,434,-1,413,434,415,-1,415,434,432,-1,415,432,417,-1,417,432,430,-1,417,430,419,-1,419,430,428,-1,419,428,421,-1,421,428,426,-1,421,426,423,-1,423,426,427,-1,
        ]
    }
}
Shape{
    appearance Appearance {
        material  Material 	{
            diffuseColor 0.25098039215686274 0.25098039215686274 0.25098039215686274
            specularColor 0.12549019607843137 0.12549019607843137 0.12549019607843137
            ambientIntensity 0.2
            transparency 0
            shininess 0.5
        }
    }
    geometry IndexedFaceSet {
        ccw TRUE
        solid FALSE
        coord DEF co Coordinate {
            point [
                -0.5531 -0.689 0.748, -0.5531 0.689 0.748, -0.5531 -0.348 0.5512, -0.5531 0.348 0.5512, -0.9469 -0.348 0.5512, -0.9469 0.348 0.5512, -0.9469 -0.689 0.748, -0.9469 0.689 0.748, -0.8776 -0.689 0.748, -0.5945 -0.689 0.748, -0.7798 -0.689 0.748, -0.8776 0.689 0.748, -0.5945 0.689 0.748, -0.7798 0.689 0.748, -0.7798 0.689 0.748
            ]
        }
        coordIndex [
            0,1,2,-1,2,1,3,-1,4,5,6,-1,6,5,7,-1,4,6,8,-1,0,2,9,-1,9,2,4,-1,9,4,10,-1,10,4,8,-1,11,7,5,-1,3,1,12,-1,3,12,5,-1,5,12,13,-1,5,13,11,-1,
        ]
    }
}
Shape{
    appearance Appearance {
        material  Material 	{
            diffuseColor 1.0 1.0 1.0
            specularColor 0.5019607843137255 0.5019607843137255 0.5019607843137255
            ambientIntensity 0.2
            transparency 0
            shininess 0.5
        }
    }
    geometry IndexedFaceSet {
        ccw TRUE
        solid FALSE
        coord DEF co Coordinate {
            point [
                -0.9429 -0.2693 0.7087, -0.9429 0.0457 0.7087, -0.9429 -0.2693 0.5512, -0.9429 0.0457 0.5512, -0.5571 -0.2693 0.7087, -0.5571 -0.2693 0.5512, -0.5571 0.0457 0.7087, -0.5571 0.0457 0.5512, -0.4429 -0.2693 0.7087, -0.4429 0.0457 0.7087, -0.4429 -0.2693 0.5512, -0.4429 0.0457 0.5512, -0.0571 -0.2693 0.7087, -0.0571 -0.2693 0.5512, -0.0571 0.0457 0.7087, -0.0571 0.0457 0.5512, -0.0571 0.0457 0.5512
            ]
        }
        coordIndex [
            0,1,2,-1,2,1,3,-1,4,0,5,-1,5,0,2,-1,6,4,7,-1,7,4,5,-1,1,6,3,-1,3,6,7,-1,4,6,0,-1,0,6,1,-1,8,9,10,-1,10,9,11,-1,12,8,13,-1,13,8,10,-1,14,12,15,-1,15,12,13,-1,12,14,8,-1,8,14,9,-1,9,14,11,-1,11,14,15,-1,
        ]
    }
}
Shape{
    appearance Appearance {
        material  Material 	{
            diffuseColor 0.25098039215686274 0.25098039215686274 0.25098039215686274
            specularColor 0.12549019607843137 0.12549019607843137 0.12549019607843137
            ambientIntensity 0.2
            transparency 0
            shininess 0.5
        }
    }
    geometry IndexedFaceSet {
        ccw TRUE
        solid FALSE
        coord DEF co Coordinate {
            point [
                -0.0531 -0.689 0.748, -0.0531 0.689 0.748, -0.0531 -0.348 0.5512, -0.0531 0.348 0.5512, -0.4469 -0.348 0.5512, -0.4469 0.348 0.5512, -0.4469 -0.689 0.748, -0.4469 0.689 0.748, -0.1092 -0.689 0.748, -0.3673 -0.689 0.748, -0.4429 -0.2693 0.5512, -0.4429 0.0457 0.5512, -0.0571 -0.2693 0.5512, -0.0571 0.0457 0.5512, -0.3673 0.689 0.748, -0.1092 0.689 0.748, -0.1092 0.689 0.748
            ]
        }
        coordIndex [
            0,1,2,-1,2,1,3,-1,4,5,6,-1,6,5,7,-1,0,2,8,-1,8,2,4,-1,8,4,9,-1,9,4,6,-1,4,10,11,-1,10,4,12,-1,12,4,2,-1,12,2,13,-1,13,2,3,-1,13,3,11,-1,11,3,5,-1,11,5,4,-1,7,5,14,-1,14,5,3,-1,14,3,15,-1,15,3,1,-1,
        ]
    }
}
Shape{
    appearance Appearance {
        material  Material 	{
            diffuseColor 0.7529411764705882 0.7529411764705882 0.7529411764705882
            specularColor 0.3764705882352941 0.3764705882352941 0.3764705882352941
            ambientIntensity 0.2
            transparency 0
            shininess 0.5
        }
    }
    geometry IndexedFaceSet {
        ccw TRUE
        solid FALSE
        coord DEF co Coordinate {
            point [
                -0.7406 -0.9272 0.7476, -0.7646 -0.9272 0.7476, -0.7406 -0.9272 0.748, -0.7646 -0.9272 0.748, -0.7646 -0.9234 0.748, -0.7646 -0.7599 0.7476, -0.7646 -0.7599 0.748, -0.7798 -0.7701 0.748, -0.7828 -0.7722 0.7476, -0.7828 -0.7722 0.748, -0.8065 -0.7821 0.7476, -0.8065 -0.7821 0.748, -0.8102 -0.7831 0.7476, -0.8102 -0.7831 0.748, -0.8102 -0.7591 0.7476, -0.8102 -0.7591 0.748, -0.7798 -0.7468 0.748, -0.7786 -0.7464 0.7476, -0.7786 -0.7464 0.748, -0.7499 -0.7279 0.7476, -0.7499 -0.7279 0.748, -0.7406 -0.7279 0.7476, -0.7406 -0.7279 0.748, -0.7406 -0.9234 0.748, -0.945 0.8373 0.7476, -0.945 0.8373 0.748, -0.9431 0.8173 0.748, -0.9431 0.8173 0.7476, -0.9378 0.8003 0.748, -0.9378 0.8003 0.7476, -0.9291 0.7856 0.748, -0.9291 0.7856 0.7476, -0.9177 0.7739 0.748, -0.9177 0.7739 0.7476, -0.9049 0.7656 0.748, -0.9049 0.7656 0.7476, -0.8901 0.7606 0.748, -0.8901 0.7606 0.7476, -0.8798 0.7595 0.748, -0.8708 0.7585 0.7476, -0.8776 0.7592 0.748, -0.8708 0.7585 0.748, -0.8853 0.9184 0.7476, -0.8682 0.9198 0.7476, -0.8776 0.919 0.748, -0.8682 0.9198 0.748, -0.8853 0.9184 0.748, -0.9013 0.9137 0.748, -0.9013 0.9137 0.7476, -0.9158 0.9052 0.748, -0.9158 0.9052 0.7476, -0.928 0.893 0.748, -0.928 0.893 0.7476, -0.937 0.8783 0.748, -0.937 0.8783 0.7476, -0.9428 0.8601 0.748, -0.9428 0.8601 0.7476, -0.7952 0.841 0.7476, -0.7952 0.841 0.748, -0.7963 0.8568 0.748, -0.7963 0.8568 0.7476, -0.8007 0.8744 0.748, -0.8007 0.8744 0.7476, -0.8089 0.8901 0.748, -0.8089 0.8901 0.7476, -0.8206 0.9032 0.748, -0.8206 0.9032 0.7476, -0.8343 0.9125 0.748, -0.8343 0.9125 0.7476, -0.8492 0.9178 0.748, -0.8492 0.9178 0.7476, -0.8519 0.7604 0.7476, -0.8611 0.7595 0.748, -0.8519 0.7604 0.748, -0.8367 0.7654 0.748, -0.8367 0.7654 0.7476, -0.8236 0.7735 0.748, -0.8236 0.7735 0.7476, -0.8117 0.7856 0.748, -0.8117 0.7856 0.7476, -0.803 0.8002 0.748, -0.803 0.8002 0.7476, -0.7973 0.8183 0.748, -0.7973 0.8183 0.7476, -0.9238 0.839 0.7476, -0.9221 0.8209 0.7476, -0.9176 0.8066 0.7476, -0.9109 0.7953 0.7476, -0.9024 0.7865 0.7476, -0.8931 0.7806 0.7476, -0.8823 0.7769 0.7476, -0.8707 0.7758 0.7476, -0.8566 0.7773 0.7476, -0.8456 0.781 0.7476, -0.8365 0.7869 0.7476, -0.8292 0.7943 0.7476, -0.823 0.8043 0.7476, -0.8181 0.8193 0.7476, -0.8163 0.8387 0.7476, -0.8178 0.8573 0.7476, -0.8219 0.8716 0.7476, -0.8284 0.8834 0.7476, -0.8361 0.8916 0.7476, -0.8449 0.8973 0.7476, -0.8553 0.901 0.7476, -0.8694 0.9026 0.7476, -0.8835 0.9009 0.7476, -0.894 0.8969 0.7476, -0.9035 0.8904 0.7476, -0.9126 0.8801 0.7476, -0.919 0.8677 0.7476, -0.9232 0.8503 0.7476, -0.9238 0.839 0.748, -0.9232 0.8503 0.748, -0.919 0.8677 0.748, -0.9126 0.8801 0.748, -0.9035 0.8904 0.748, -0.894 0.8969 0.748, -0.8835 0.9009 0.748, -0.8694 0.9026 0.748, -0.8553 0.901 0.748, -0.8449 0.8973 0.748, -0.8361 0.8916 0.748, -0.8284 0.8834 0.748, -0.8219 0.8716 0.748, -0.8178 0.8573 0.748, -0.8163 0.8387 0.748, -0.8181 0.8193 0.748, -0.823 0.8043 0.748, -0.8292 0.7943 0.748, -0.8365 0.7869 0.748, -0.8456 0.781 0.748, -0.8566 0.7773 0.748, -0.8707 0.7758 0.748, -0.8823 0.7769 0.748, -0.8931 0.7806 0.748, -0.9024 0.7865 0.748, -0.9109 0.7953 0.748, -0.9176 0.8066 0.748, -0.9221 0.8209 0.748, -0.6358 0.9179 0.7476, -0.6358 0.7604 0.7476, -0.6358 0.9179 0.748, -0.6358 0.7604 0.748, -0.6608 0.7604 0.7476, -0.6608 0.7604 0.748, -0.7381 0.8827 0.7476, -0.7381 0.8827 0.748, -0.7433 0.893 0.7476, -0.7433 0.893 0.748, -0.7409 0.8877 0.748, -0.7409 0.8877 0.7476, -0.7439 0.893 0.7476, -0.7439 0.893 0.748, -0.7433 0.8709 0.7476, -0.7433 0.8709 0.748, -0.7434 0.8819 0.748, -0.7434 0.8819 0.7476, -0.7433 0.7604 0.7476, -0.7433 0.7604 0.748, -0.7644 0.7604 0.7476, -0.7644 0.7604 0.748, -0.7644 0.9179 0.7476, -0.7644 0.9179 0.748, -0.7375 0.9179 0.7476, -0.7375 0.9179 0.748, -0.6626 0.7982 0.7476, -0.6626 0.7982 0.748, -0.6563 0.7873 0.7476, -0.6563 0.7873 0.748, -0.6593 0.7928 0.748, -0.6593 0.7928 0.7476, -0.6559 0.7873 0.7476, -0.6559 0.7873 0.748, -0.6569 0.8102 0.7476, -0.6569 0.8102 0.748, -0.6567 0.7987 0.748, -0.6567 0.7987 0.7476, -0.6569 0.9179 0.7476, -0.6569 0.9179 0.748, -0.1941 -0.7752 0.7476, -0.1941 -0.7752 0.748, -0.1954 -0.7865 0.748, -0.1954 -0.7865 0.7476, -0.1992 -0.7973 0.748, -0.1992 -0.7973 0.7476, -0.2067 -0.8081 0.748, -0.2067 -0.8081 0.7476, -0.2343 -0.8313 0.748, -0.2343 -0.8313 0.7476, -0.232 -0.7421 0.7476, -0.232 -0.7421 0.748, -0.2206 -0.7432 0.748, -0.2206 -0.7432 0.7476, -0.2114 -0.7463 0.748, -0.2114 -0.7463 0.7476, -0.2053 -0.7501 0.748, -0.2053 -0.7501 0.7476, -0.2007 -0.7546 0.748, -0.2007 -0.7546 0.7476, -0.1973 -0.7601 0.748, -0.1973 -0.7601 0.7476, -0.195 -0.7666 0.748, -0.195 -0.7666 0.7476, -0.2805 -0.766 0.7476, -0.2805 -0.766 0.748, -0.2739 -0.7596 0.748, -0.2739 -0.7596 0.7476, -0.2603 -0.75 0.748, -0.2603 -0.75 0.7476, -0.2468 -0.7443 0.748, -0.2468 -0.7443 0.7476, -0.2805 -0.742 0.7476, -0.2805 -0.742 0.748, -0.2296 -0.7205 0.7476, -0.2296 -0.7205 0.748, -0.2383 -0.7209 0.748, -0.2535 -0.7241 0.748, -0.2538 -0.7242 0.7476, -0.2383 -0.7209 0.7476, -0.2538 -0.7242 0.748, -0.2671 -0.7307 0.748, -0.2671 -0.7307 0.7476, -0.2129 -0.7221 0.7476, -0.1701 -0.7732 0.7476, -0.1701 -0.7732 0.748, -0.1712 -0.7615 0.748, -0.1712 -0.7615 0.7476, -0.1744 -0.751 0.748, -0.1744 -0.751 0.7476, -0.1798 -0.7419 0.748, -0.1798 -0.7419 0.7476, -0.1877 -0.7337 0.748, -0.1877 -0.7337 0.7476, -0.1996 -0.7263 0.748, -0.1996 -0.7263 0.7476, -0.2065 -0.7241 0.748, -0.2129 -0.7221 0.748, -0.2141 -0.8433 0.7476, -0.2141 -0.8433 0.748, -0.2043 -0.8361 0.748, -0.2043 -0.8361 0.7476, -0.1855 -0.8182 0.748, -0.1855 -0.8182 0.7476, -0.1776 -0.8064 0.748, -0.1776 -0.8064 0.7476, -0.1721 -0.7913 0.748, -0.1721 -0.7913 0.7476, -0.2619 -0.8981 0.7476, -0.2619 -0.8981 0.748, -0.261 -0.8889 0.748, -0.261 -0.8889 0.7476, -0.2587 -0.8818 0.748, -0.2587 -0.8818 0.7476, -0.2543 -0.8752 0.748, -0.2543 -0.8752 0.7476, -0.2448 -0.8658 0.748, -0.2448 -0.8658 0.7476, -0.1653 -0.8981 0.7476, -0.1653 -0.8981 0.748, -0.1653 -0.9197 0.7476, -0.1653 -0.9197 0.748, -0.2878 -0.9197 0.7476, -0.2878 -0.9197 0.748, -0.2878 -0.91 0.7476, -0.2878 -0.91 0.748, -0.2364 -0.8328 0.748, -0.2364 -0.8328 0.7476, -0.2571 -0.8484 0.748, -0.2571 -0.8484 0.7476, -0.2732 -0.8645 0.748, -0.2732 -0.8645 0.7476, -0.2812 -0.8769 0.748, -0.2812 -0.8769 0.7476, -0.2861 -0.8914 0.748, -0.2861 -0.8914 0.7476, 0.2008 -0.9129 0.7476, 0.2008 -0.8865 0.7476, 0.2008 -0.9129 0.748, 0.2008 -0.8865 0.748, 0.246 -0.9015 0.7476, 0.246 -0.9015 0.748, 0.2338 -0.9006 0.748, 0.2338 -0.9006 0.7476, 0.217 -0.8959 0.748, 0.217 -0.8959 0.7476, 0.2897 -0.8658 0.7476, 0.2897 -0.8658 0.748, 0.2889 -0.8737 0.748, 0.2889 -0.8737 0.7476, 0.2864 -0.8812 0.748, 0.2864 -0.8812 0.7476, 0.2819 -0.888 0.748, 0.2819 -0.888 0.7476, 0.2761 -0.8932 0.748, 0.2761 -0.8932 0.7476, 0.269 -0.8973 0.748, 0.269 -0.8973 0.7476, 0.2589 -0.9004 0.748, 0.2589 -0.9004 0.7476, 0.2364 -0.8295 0.7476, 0.2364 -0.8295 0.748, 0.255 -0.8309 0.748, 0.255 -0.8309 0.7476, 0.2693 -0.8348 0.748, 0.2693 -0.8348 0.7476, 0.2774 -0.8394 0.748, 0.2774 -0.8394 0.7476, 0.2827 -0.8443 0.748, 0.2827 -0.8443 0.7476, 0.2865 -0.8502 0.748, 0.2865 -0.8502 0.7476, 0.2888 -0.8569 0.748, 0.2888 -0.8569 0.7476, 0.2201 -0.8295 0.7476, 0.2201 -0.8295 0.748, 0.2201 -0.8079 0.7476, 0.2201 -0.8079 0.748, 0.2355 -0.8079 0.7476, 0.2355 -0.8079 0.748, 0.2825 -0.7742 0.7476, 0.2825 -0.7742 0.748, 0.2824 -0.7751 0.748, 0.2824 -0.7751 0.7476, 0.2813 -0.784 0.748, 0.2813 -0.784 0.7476, 0.279 -0.7901 0.748, 0.279 -0.7901 0.7476, 0.2755 -0.7952 0.748, 0.2755 -0.7952 0.7476, 0.2706 -0.7996 0.748, 0.2706 -0.7996 0.7476, 0.2627 -0.8038 0.748, 0.2627 -0.8038 0.7476, 0.2517 -0.8067 0.748, 0.2517 -0.8067 0.7476, 0.2466 -0.7431 0.7476, 0.2466 -0.7431 0.748, 0.2514 -0.7432 0.748, 0.2514 -0.7432 0.7476, 0.2628 -0.7452 0.748, 0.2628 -0.7452 0.7476, 0.2698 -0.7482 0.748, 0.2698 -0.7482 0.7476, 0.2733 -0.7507 0.748, 0.2733 -0.7507 0.7476, 0.2771 -0.7549 0.748, 0.2771 -0.7549 0.7476, 0.2799 -0.7598 0.748, 0.2799 -0.7598 0.7476, 0.2818 -0.7661 0.748, 0.2818 -0.7661 0.7476, 0.208 -0.7581 0.7476, 0.208 -0.7581 0.748, 0.219 -0.7505 0.748, 0.219 -0.7505 0.7476, 0.2328 -0.7449 0.748, 0.2328 -0.7449 0.7476, 0.208 -0.7365 0.7476, 0.208 -0.7365 0.748, 0.2233 -0.7274 0.7476, 0.2532 -0.7215 0.7476, 0.2532 -0.7215 0.748, 0.2394 -0.7226 0.748, 0.2394 -0.7226 0.7476, 0.2345 -0.7241 0.748, 0.2233 -0.7274 0.748, 0.269 -0.723 0.7476, 0.3089 -0.7681 0.7476, 0.3089 -0.7681 0.748, 0.3078 -0.7577 0.748, 0.3078 -0.7577 0.7476, 0.3046 -0.7485 0.748, 0.3046 -0.7485 0.7476, 0.2995 -0.7405 0.748, 0.2995 -0.7405 0.7476, 0.2916 -0.7329 0.748, 0.2916 -0.7329 0.7476, 0.2817 -0.727 0.748, 0.2817 -0.727 0.7476, 0.2726 -0.7241 0.748, 0.269 -0.723 0.748, 0.2687 -0.8171 0.7476, 0.2687 -0.8171 0.748, 0.273 -0.8158 0.748, 0.273 -0.8158 0.7476, 0.2873 -0.8093 0.748, 0.2873 -0.8093 0.7476, 0.2957 -0.8028 0.748, 0.2957 -0.8028 0.7476, 0.2989 -0.7993 0.748, 0.2989 -0.7993 0.7476, 0.3042 -0.7908 0.748, 0.3042 -0.7908 0.7476, 0.3076 -0.7806 0.748, 0.3076 -0.7806 0.7476, 0.2687 -0.8176 0.7476, 0.2687 -0.8176 0.748, 0.3161 -0.8643 0.7476, 0.3161 -0.8643 0.748, 0.3159 -0.8603 0.748, 0.3159 -0.8603 0.7476, 0.314 -0.8501 0.748, 0.314 -0.8501 0.7476, 0.3097 -0.8407 0.748, 0.3097 -0.8407 0.7476, 0.3036 -0.8329 0.748, 0.3036 -0.8329 0.7476, 0.2942 -0.8255 0.748, 0.2942 -0.8255 0.7476, 0.2832 -0.8206 0.748, 0.2832 -0.8206 0.7476, 0.246 -0.9232 0.7476, 0.246 -0.9232 0.748, 0.2594 -0.9224 0.748, 0.2594 -0.9224 0.7476, 0.2783 -0.9178 0.748, 0.2783 -0.9178 0.7476, 0.2916 -0.911 0.748, 0.2916 -0.911 0.7476, 0.3026 -0.9015 0.748, 0.3026 -0.9015 0.7476, 0.3099 -0.891 0.748, 0.3099 -0.891 0.7476, 0.3143 -0.8795 0.748, 0.3143 -0.8795 0.7476, 0.2058 -0.9156 0.748, 0.2058 -0.9156 0.7476, 0.2227 -0.921 0.748, 0.2227 -0.921 0.7476, 0.7473 -0.7267 0.7476, 0.7729 -0.7267 0.7476, 0.7473 -0.7267 0.748, 0.7729 -0.7267 0.748, 0.7729 -0.8563 0.7476, 0.7729 -0.8563 0.748, 0.8017 -0.8563 0.7476, 0.8017 -0.8563 0.748, 0.8017 -0.878 0.7476, 0.8017 -0.878 0.748, 0.7729 -0.878 0.7476, 0.7729 -0.878 0.748, 0.7729 -0.9234 0.748, 0.7729 -0.9236 0.7476, 0.7729 -0.9236 0.748, 0.7489 -0.9236 0.7476, 0.7489 -0.9236 0.748, 0.7489 -0.9234 0.748, 0.7489 -0.878 0.7476, 0.7489 -0.878 0.748, 0.6577 -0.878 0.7476, 0.6577 -0.878 0.748, 0.6577 -0.8575 0.7476, 0.6577 -0.8575 0.748, 0.7116 -0.7868 0.748, 0.7116 -0.7868 0.7476, 0.7489 -0.7628 0.7476, 0.7489 -0.8563 0.7476, 0.7193 -0.811 0.7476, 0.6856 -0.8563 0.7476, 0.6856 -0.8563 0.748, 0.7193 -0.811 0.748, 0.7489 -0.7628 0.748, 0.7489 -0.8563 0.748, 0.7489 -0.8563 0.748
            ]
        }
        coordIndex [
            0,1,2,-1,2,1,3,-1,3,1,4,-1,4,1,5,-1,4,5,6,-1,6,5,7,-1,7,5,8,-1,7,8,9,-1,9,8,10,-1,9,10,11,-1,11,10,12,-1,11,12,13,-1,12,14,13,-1,13,14,15,-1,15,14,16,-1,16,14,17,-1,16,17,18,-1,18,17,19,-1,18,19,20,-1,19,21,20,-1,20,21,22,-1,22,21,23,-1,23,21,0,-1,23,0,2,-1,1,0,5,-1,5,0,21,-1,21,19,5,-1,5,19,17,-1,5,17,8,-1,8,17,14,-1,8,14,10,-1,10,14,12,-1,24,25,26,-1,24,26,27,-1,27,26,28,-1,27,28,29,-1,29,28,30,-1,29,30,31,-1,31,30,32,-1,31,32,33,-1,33,32,34,-1,33,34,35,-1,35,34,36,-1,35,36,37,-1,37,36,38,-1,37,38,39,-1,39,38,40,-1,39,40,41,-1,42,43,44,-1,44,43,45,-1,44,46,42,-1,42,46,47,-1,42,47,48,-1,48,47,49,-1,48,49,50,-1,50,49,51,-1,50,51,52,-1,52,51,53,-1,52,53,54,-1,54,53,55,-1,54,55,56,-1,56,55,25,-1,56,25,24,-1,57,58,59,-1,57,59,60,-1,60,59,61,-1,60,61,62,-1,62,61,63,-1,62,63,64,-1,64,63,65,-1,64,65,66,-1,66,65,67,-1,66,67,68,-1,68,67,69,-1,68,69,70,-1,70,69,45,-1,70,45,43,-1,71,39,72,-1,72,39,41,-1,72,73,71,-1,71,73,74,-1,71,74,75,-1,75,74,76,-1,75,76,77,-1,77,76,78,-1,77,78,79,-1,79,78,80,-1,79,80,81,-1,81,80,82,-1,81,82,83,-1,83,82,58,-1,83,58,57,-1,84,24,85,-1,85,24,27,-1,85,27,86,-1,86,27,29,-1,86,29,87,-1,87,29,31,-1,87,31,88,-1,88,31,33,-1,88,33,89,-1,89,33,35,-1,89,35,90,-1,90,35,37,-1,90,37,91,-1,91,37,39,-1,91,39,92,-1,92,39,71,-1,92,71,93,-1,93,71,75,-1,93,75,94,-1,94,75,77,-1,94,77,95,-1,95,77,79,-1,95,79,96,-1,96,79,81,-1,96,81,97,-1,97,81,83,-1,97,83,98,-1,98,83,57,-1,98,57,99,-1,99,57,60,-1,99,60,100,-1,100,60,62,-1,100,62,101,-1,101,62,64,-1,101,64,102,-1,102,64,66,-1,102,66,103,-1,103,66,68,-1,103,68,104,-1,104,68,70,-1,104,70,105,-1,105,70,43,-1,105,43,106,-1,106,43,42,-1,106,42,107,-1,107,42,48,-1,107,48,108,-1,108,48,50,-1,108,50,109,-1,109,50,52,-1,109,52,110,-1,110,52,54,-1,110,54,111,-1,111,54,56,-1,111,56,84,-1,84,56,24,-1,84,112,113,-1,84,113,111,-1,111,113,114,-1,111,114,110,-1,110,114,115,-1,110,115,109,-1,109,115,116,-1,109,116,108,-1,108,116,117,-1,108,117,107,-1,107,117,118,-1,107,118,106,-1,106,118,119,-1,106,119,105,-1,105,119,120,-1,105,120,104,-1,104,120,121,-1,104,121,103,-1,103,121,122,-1,103,122,102,-1,102,122,123,-1,102,123,101,-1,101,123,124,-1,101,124,100,-1,100,124,125,-1,100,125,99,-1,99,125,126,-1,99,126,98,-1,98,126,127,-1,98,127,97,-1,97,127,128,-1,97,128,96,-1,96,128,129,-1,96,129,95,-1,95,129,130,-1,95,130,94,-1,94,130,131,-1,94,131,93,-1,93,131,132,-1,93,132,92,-1,92,132,133,-1,92,133,91,-1,91,133,134,-1,91,134,90,-1,90,134,135,-1,90,135,89,-1,89,135,136,-1,89,136,88,-1,88,136,137,-1,88,137,87,-1,87,137,138,-1,87,138,86,-1,86,138,139,-1,86,139,85,-1,85,139,112,-1,85,112,84,-1,140,141,142,-1,142,141,143,-1,141,144,143,-1,143,144,145,-1,144,146,145,-1,145,146,147,-1,148,149,150,-1,148,150,151,-1,151,150,147,-1,151,147,146,-1,148,152,149,-1,149,152,153,-1,154,155,156,-1,154,156,157,-1,157,156,153,-1,157,153,152,-1,154,158,155,-1,155,158,159,-1,158,160,159,-1,159,160,161,-1,160,162,161,-1,161,162,163,-1,162,164,163,-1,163,164,165,-1,164,166,165,-1,165,166,167,-1,168,169,170,-1,168,170,171,-1,171,170,167,-1,171,167,166,-1,168,172,169,-1,169,172,173,-1,174,175,176,-1,174,176,177,-1,177,176,173,-1,177,173,172,-1,174,178,175,-1,175,178,179,-1,178,140,179,-1,179,140,142,-1,140,178,141,-1,141,178,174,-1,160,158,162,-1,162,158,154,-1,154,157,162,-1,162,157,152,-1,162,152,164,-1,164,152,148,-1,174,177,141,-1,141,177,172,-1,141,172,144,-1,144,172,168,-1,168,171,144,-1,144,171,166,-1,144,166,146,-1,146,166,164,-1,146,164,151,-1,151,164,148,-1,180,181,182,-1,180,182,183,-1,183,182,184,-1,183,184,185,-1,185,184,186,-1,185,186,187,-1,187,186,188,-1,187,188,189,-1,190,191,192,-1,190,192,193,-1,193,192,194,-1,193,194,195,-1,195,194,196,-1,195,196,197,-1,197,196,198,-1,197,198,199,-1,199,198,200,-1,199,200,201,-1,201,200,202,-1,201,202,203,-1,203,202,181,-1,203,181,180,-1,204,205,206,-1,204,206,207,-1,207,206,208,-1,207,208,209,-1,209,208,210,-1,209,210,211,-1,211,210,191,-1,211,191,190,-1,204,212,205,-1,205,212,213,-1,214,215,216,-1,217,218,216,-1,216,218,219,-1,216,219,214,-1,217,220,218,-1,218,220,221,-1,218,221,222,-1,222,221,213,-1,222,213,212,-1,215,214,223,-1,224,225,226,-1,224,226,227,-1,227,226,228,-1,227,228,229,-1,229,228,230,-1,229,230,231,-1,231,230,232,-1,231,232,233,-1,233,232,234,-1,233,234,235,-1,235,234,236,-1,235,236,223,-1,223,236,237,-1,223,237,215,-1,238,239,240,-1,238,240,241,-1,241,240,242,-1,241,242,243,-1,243,242,244,-1,243,244,245,-1,245,244,246,-1,245,246,247,-1,247,246,225,-1,247,225,224,-1,248,249,250,-1,248,250,251,-1,251,250,252,-1,251,252,253,-1,253,252,254,-1,253,254,255,-1,255,254,256,-1,255,256,257,-1,257,256,239,-1,257,239,238,-1,248,258,249,-1,249,258,259,-1,258,260,259,-1,259,260,261,-1,260,262,261,-1,261,262,263,-1,262,264,263,-1,263,264,265,-1,189,188,266,-1,189,266,267,-1,267,266,268,-1,267,268,269,-1,269,268,270,-1,269,270,271,-1,271,270,272,-1,271,272,273,-1,273,272,274,-1,273,274,275,-1,275,274,265,-1,275,265,264,-1,260,258,262,-1,262,258,248,-1,190,219,211,-1,211,219,218,-1,211,218,209,-1,209,218,222,-1,209,222,207,-1,207,222,212,-1,207,212,204,-1,187,189,238,-1,238,189,267,-1,238,267,257,-1,257,267,269,-1,257,269,255,-1,255,269,271,-1,255,271,253,-1,253,271,273,-1,253,273,251,-1,251,273,275,-1,251,275,248,-1,248,275,264,-1,248,264,262,-1,238,241,187,-1,187,241,243,-1,187,243,185,-1,185,243,245,-1,185,245,183,-1,183,245,247,-1,183,247,180,-1,180,247,224,-1,180,224,203,-1,203,224,227,-1,203,227,201,-1,201,227,229,-1,201,229,199,-1,199,229,231,-1,199,231,197,-1,197,231,233,-1,197,233,195,-1,195,233,235,-1,195,235,193,-1,193,235,223,-1,193,223,190,-1,190,223,214,-1,190,214,219,-1,276,277,278,-1,278,277,279,-1,280,281,282,-1,280,282,283,-1,283,282,284,-1,283,284,285,-1,285,284,279,-1,285,279,277,-1,286,287,288,-1,286,288,289,-1,289,288,290,-1,289,290,291,-1,291,290,292,-1,291,292,293,-1,293,292,294,-1,293,294,295,-1,295,294,296,-1,295,296,297,-1,297,296,298,-1,297,298,299,-1,299,298,281,-1,299,281,280,-1,300,301,302,-1,300,302,303,-1,303,302,304,-1,303,304,305,-1,305,304,306,-1,305,306,307,-1,307,306,308,-1,307,308,309,-1,309,308,310,-1,309,310,311,-1,311,310,312,-1,311,312,313,-1,313,312,287,-1,313,287,286,-1,300,314,301,-1,301,314,315,-1,314,316,315,-1,315,316,317,-1,316,318,317,-1,317,318,319,-1,320,321,322,-1,320,322,323,-1,323,322,324,-1,323,324,325,-1,325,324,326,-1,325,326,327,-1,327,326,328,-1,327,328,329,-1,329,328,330,-1,329,330,331,-1,331,330,332,-1,331,332,333,-1,333,332,334,-1,333,334,335,-1,335,334,319,-1,335,319,318,-1,336,337,338,-1,336,338,339,-1,339,338,340,-1,339,340,341,-1,341,340,342,-1,341,342,343,-1,343,342,344,-1,343,344,345,-1,345,344,346,-1,345,346,347,-1,347,346,348,-1,347,348,349,-1,349,348,350,-1,349,350,351,-1,351,350,321,-1,351,321,320,-1,352,353,354,-1,352,354,355,-1,355,354,356,-1,355,356,357,-1,357,356,337,-1,357,337,336,-1,352,358,353,-1,353,358,359,-1,359,358,360,-1,361,362,363,-1,361,363,364,-1,364,363,365,-1,364,365,360,-1,360,365,366,-1,360,366,359,-1,362,361,367,-1,368,369,370,-1,368,370,371,-1,371,370,372,-1,371,372,373,-1,373,372,374,-1,373,374,375,-1,375,374,376,-1,375,376,377,-1,377,376,378,-1,377,378,379,-1,379,378,380,-1,379,380,367,-1,367,380,381,-1,367,381,362,-1,382,383,384,-1,382,384,385,-1,385,384,386,-1,385,386,387,-1,387,386,388,-1,387,388,389,-1,389,388,390,-1,389,390,391,-1,391,390,392,-1,391,392,393,-1,393,392,394,-1,393,394,395,-1,395,394,369,-1,395,369,368,-1,382,396,383,-1,383,396,397,-1,398,399,400,-1,398,400,401,-1,401,400,402,-1,401,402,403,-1,403,402,404,-1,403,404,405,-1,405,404,406,-1,405,406,407,-1,407,406,408,-1,407,408,409,-1,409,408,410,-1,409,410,411,-1,411,410,397,-1,411,397,396,-1,412,413,414,-1,412,414,415,-1,415,414,416,-1,415,416,417,-1,417,416,418,-1,417,418,419,-1,419,418,420,-1,419,420,421,-1,421,420,422,-1,421,422,423,-1,423,422,424,-1,423,424,425,-1,425,424,399,-1,425,399,398,-1,276,278,426,-1,276,426,427,-1,427,426,428,-1,427,428,429,-1,429,428,413,-1,429,413,412,-1,316,314,318,-1,318,314,300,-1,318,300,335,-1,335,300,303,-1,277,276,285,-1,285,276,427,-1,285,427,283,-1,283,427,429,-1,283,429,280,-1,280,429,412,-1,280,412,299,-1,299,412,415,-1,299,415,297,-1,297,415,417,-1,297,417,295,-1,295,417,419,-1,295,419,293,-1,293,419,421,-1,293,421,291,-1,291,421,423,-1,291,423,289,-1,289,423,425,-1,289,425,286,-1,425,398,286,-1,286,398,401,-1,286,401,313,-1,313,401,403,-1,313,403,311,-1,311,403,405,-1,311,405,309,-1,309,405,407,-1,309,407,307,-1,307,407,409,-1,307,409,305,-1,305,409,411,-1,305,411,303,-1,303,411,396,-1,303,396,335,-1,335,396,382,-1,335,382,333,-1,333,382,385,-1,333,385,331,-1,331,385,387,-1,331,387,329,-1,329,387,389,-1,329,389,327,-1,327,389,391,-1,327,391,325,-1,325,391,393,-1,325,393,323,-1,323,393,395,-1,323,395,320,-1,320,395,368,-1,320,368,351,-1,351,368,371,-1,351,371,349,-1,349,371,373,-1,349,373,347,-1,347,373,375,-1,347,375,345,-1,345,375,377,-1,345,377,343,-1,343,377,379,-1,343,379,341,-1,341,379,367,-1,341,367,339,-1,339,367,361,-1,339,361,336,-1,336,361,364,-1,336,364,357,-1,357,364,360,-1,357,360,355,-1,355,360,358,-1,355,358,352,-1,430,431,432,-1,432,431,433,-1,431,434,433,-1,433,434,435,-1,434,436,435,-1,435,436,437,-1,436,438,437,-1,437,438,439,-1,438,440,439,-1,439,440,441,-1,441,440,442,-1,442,440,443,-1,442,443,444,-1,443,445,444,-1,444,445,446,-1,446,445,447,-1,447,445,448,-1,447,448,449,-1,448,450,449,-1,449,450,451,-1,450,452,451,-1,451,452,453,-1,430,432,454,-1,430,454,455,-1,455,454,453,-1,455,453,452,-1,456,457,434,-1,445,443,448,-1,448,443,440,-1,434,431,456,-1,456,431,430,-1,456,430,458,-1,458,430,455,-1,458,455,459,-1,438,436,440,-1,440,436,434,-1,440,434,448,-1,448,434,457,-1,448,457,450,-1,450,457,459,-1,450,459,452,-1,452,459,455,-1,459,460,461,-1,459,461,458,-1,458,461,462,-1,458,462,456,-1,457,456,463,-1,463,456,462,-1,459,457,460,-1,460,457,463,-1,
        ]
    }
}
Shape{
    appearance Appearance {
        material  Material 	{
            diffuseColor 0.2235294117647059 0.2235294117647059 0.2235294117647059
            specularColor 0.11372549019607843 0.11372549019607843 0.11372549019607843
            ambientIntensity 0.2
            transparency 0
            shininess 0.5
        }
    }
    geometry IndexedFaceSet {
        ccw TRUE
        solid FALSE
        coord DEF co Coordinate {
            point [
                -0.9238 0.839 0.748, -0.8163 0.8387 0.748, -0.9232 0.8503 0.748, -0.8178 0.8573 0.748, -0.8365 0.7869 0.748, -0.8292 0.7943 0.748, -0.8456 0.781 0.748, -0.823 0.8043 0.748, -0.8181 0.8193 0.748, -0.894 0.8969 0.748, -0.8835 0.9009 0.748, -0.8694 0.9026 0.748, -0.9176 0.8066 0.748, -0.9109 0.7953 0.748, -0.8823 0.7769 0.748, -0.9024 0.7865 0.748, -0.8931 0.7806 0.748, -0.9221 0.8209 0.748, -0.8707 0.7758 0.748, -0.8566 0.7773 0.748, -0.9035 0.8904 0.748, -0.9126 0.8801 0.748, -0.919 0.8677 0.748, -0.8219 0.8716 0.748, -0.8284 0.8834 0.748, -0.8361 0.8916 0.748, -0.8449 0.8973 0.748, -0.8553 0.901 0.748, 0.6856 -0.8563 0.748, 0.7489 -0.8563 0.748, 0.7193 -0.811 0.748, 0.7489 -0.7628 0.748, 0.7489 -0.7628 0.748
            ]
        }
        coordIndex [
            0,1,2,-1,2,1,3,-1,4,5,0,-1,4,0,6,-1,5,7,0,-1,0,7,8,-1,0,8,1,-1,9,2,10,-1,10,2,11,-1,12,13,14,-1,14,13,15,-1,14,15,16,-1,12,14,17,-1,17,14,18,-1,17,18,0,-1,0,18,19,-1,0,19,6,-1,9,20,2,-1,2,20,21,-1,2,21,22,-1,3,23,2,-1,2,23,24,-1,2,24,25,-1,25,26,2,-1,2,26,27,-1,2,27,11,-1,28,29,30,-1,30,29,31,-1,
        ]
    }
}
Shape{
    appearance Appearance {
        material  Material 	{
            diffuseColor 0.0 0.0 0.0
            specularColor 0.0 0.0 0.0
            ambientIntensity 0.2
            transparency 0
            shininess 0.5
        }
    }
    geometry IndexedFaceSet {
        ccw TRUE
        solid FALSE
        coord DEF co Coordinate {
            point [
                -0.2193 0.0757 -0.2358, -0.2654 -0.0424 -0.2358, -0.2193 0.0757 -0.2362, -0.2654 -0.0424 -0.2362, -0.2481 -0.0424 -0.2358, -0.2481 -0.0424 -0.2362, -0.2362 -0.0093 -0.2358, -0.2362 -0.0093 -0.2362, -0.1874 -0.0093 -0.2358, -0.1874 -0.0093 -0.2362, -0.1761 -0.0424 -0.2358, -0.1761 -0.0424 -0.2362, -0.1588 -0.0424 -0.2358, -0.1588 -0.0424 -0.2362, -0.2035 0.0757 -0.2358, -0.2035 0.0757 -0.2362, -0.1914 0.0037 -0.2358, -0.2309 0.0037 -0.2358, -0.209 0.053 -0.2358, -0.2101 0.0571 -0.2358, -0.2109 0.0613 -0.2358, -0.2113 0.0613 -0.2358, -0.2121 0.0571 -0.2358, -0.2131 0.053 -0.2358, -0.1914 0.0037 -0.2362, -0.2309 0.0037 -0.2362, -0.209 0.053 -0.2362, -0.2101 0.0571 -0.2362, -0.2109 0.0613 -0.2362, -0.2113 0.0613 -0.2362, -0.2121 0.0571 -0.2362, -0.2131 0.053 -0.2362, -0.0873 -0.0424 -0.2358, -0.0551 -0.0424 -0.2358, -0.0873 -0.0424 -0.2362, -0.0551 -0.0424 -0.2362, -0.0551 0.0757 -0.2358, -0.0551 0.0757 -0.2362, -0.0885 0.0757 -0.2358, -0.0885 0.0757 -0.2362, -0.1502 0.0181 -0.2358, -0.1502 0.0181 -0.2362, -0.1493 0.0292 -0.2362, -0.1493 0.0292 -0.2358, -0.1462 0.0409 -0.2362, -0.1462 0.0409 -0.2358, -0.1407 0.051 -0.2362, -0.1407 0.051 -0.2358, -0.1323 0.0603 -0.2362, -0.1323 0.0603 -0.2358, -0.1322 0.0604 -0.2362, -0.1322 0.0604 -0.2358, -0.1194 0.069 -0.2362, -0.1194 0.069 -0.2358, -0.1055 0.0739 -0.2362, -0.1055 0.0739 -0.2358, -0.1019 -0.0411 -0.2362, -0.1019 -0.0411 -0.2358, -0.1155 -0.0371 -0.2362, -0.1155 -0.0371 -0.2358, -0.1278 -0.0299 -0.2362, -0.1278 -0.0299 -0.2358, -0.1375 -0.0206 -0.2362, -0.1375 -0.0206 -0.2358, -0.1443 -0.0101 -0.2362, -0.1443 -0.0101 -0.2358, -0.1485 0.0023 -0.2362, -0.1485 0.0023 -0.2358, -0.1265 0.0462 -0.2358, -0.1208 0.0523 -0.2358, -0.1121 0.0578 -0.2358, -0.1024 0.0612 -0.2358, -0.0884 0.0627 -0.2358, -0.071 0.0627 -0.2358, -0.071 -0.0295 -0.2358, -0.0877 -0.0295 -0.2358, -0.1002 -0.0283 -0.2358, -0.1101 -0.0252 -0.2358, -0.1182 -0.0204 -0.2358, -0.1248 -0.0139 -0.2358, -0.1298 -0.0057 -0.2358, -0.1333 0.0054 -0.2358, -0.1344 0.0178 -0.2358, -0.1334 0.0295 -0.2358, -0.1306 0.0389 -0.2358, -0.0884 0.0627 -0.2362, -0.071 0.0627 -0.2362, -0.1024 0.0612 -0.2362, -0.1121 0.0578 -0.2362, -0.1208 0.0523 -0.2362, -0.1265 0.0462 -0.2362, -0.1306 0.0389 -0.2362, -0.1334 0.0295 -0.2362, -0.1344 0.0178 -0.2362, -0.1333 0.0054 -0.2362, -0.1298 -0.0057 -0.2362, -0.1248 -0.0139 -0.2362, -0.1182 -0.0204 -0.2362, -0.1101 -0.0252 -0.2362, -0.1002 -0.0283 -0.2362, -0.0877 -0.0295 -0.2362, -0.071 -0.0295 -0.2362, -0.0321 -0.0295 -0.2358, -0.0321 -0.0424 -0.2358, -0.0321 -0.0295 -0.2362, -0.0321 -0.0424 -0.2362, 0.0313 -0.0424 -0.2358, 0.0313 -0.0424 -0.2362, 0.0313 0.0757 -0.2358, 0.0313 0.0757 -0.2362, -0.0292 0.0757 -0.2358, -0.0292 0.0757 -0.2362, -0.0292 0.0627 -0.2358, -0.0292 0.0627 -0.2362, 0.0154 0.0627 -0.2358, 0.0154 0.0627 -0.2362, 0.0154 0.0238 -0.2358, 0.0154 0.0238 -0.2362, -0.0263 0.0238 -0.2358, -0.0263 0.0238 -0.2362, -0.0263 0.0109 -0.2358, -0.0263 0.0109 -0.2362, 0.0154 0.0109 -0.2358, 0.0154 0.0109 -0.2362, 0.0154 -0.0295 -0.2358, 0.0154 -0.0295 -0.2362, 0.0543 -0.0233 -0.2358, 0.0543 -0.0363 -0.2358, 0.0543 -0.0233 -0.2362, 0.0543 -0.0363 -0.2362, 0.0669 -0.0415 -0.2358, 0.0868 -0.0439 -0.2358, 0.0868 -0.0439 -0.2362, 0.0836 -0.0438 -0.2362, 0.0836 -0.0438 -0.2358, 0.0789 -0.0431 -0.2362, 0.0669 -0.0415 -0.2362, 0.0938 -0.0431 -0.2362, 0.1014 -0.0424 -0.2358, 0.1014 -0.0424 -0.2362, 0.1128 -0.0384 -0.2358, 0.1128 -0.0384 -0.2362, 0.1223 -0.0323 -0.2358, 0.1223 -0.0323 -0.2362, 0.1312 -0.023 -0.2358, 0.1312 -0.023 -0.2362, 0.1375 -0.0118 -0.2358, 0.1375 -0.0118 -0.2362, 0.1411 0.0007 -0.2358, 0.1411 0.0007 -0.2362, 0.1422 0.0144 -0.2358, 0.1422 0.0144 -0.2362, 0.0821 0.0771 -0.2358, 0.0821 0.0771 -0.2362, 0.094 0.0762 -0.2362, 0.094 0.0762 -0.2358, 0.1072 0.0723 -0.2362, 0.1072 0.0723 -0.2358, 0.1184 0.0659 -0.2362, 0.1184 0.0659 -0.2358, 0.129 0.0556 -0.2362, 0.129 0.0556 -0.2358, 0.136 0.0446 -0.2362, 0.136 0.0446 -0.2358, 0.1405 0.0312 -0.2362, 0.1405 0.0312 -0.2358, 0.0543 0.0724 -0.2358, 0.0543 0.0724 -0.2362, 0.068 0.0761 -0.2362, 0.068 0.0761 -0.2358, 0.0543 0.0566 -0.2358, 0.0543 0.0566 -0.2362, 0.082 0.0642 -0.2358, 0.082 0.0642 -0.2362, 0.0676 0.0623 -0.2362, 0.0676 0.0623 -0.2358, 0.1263 0.0154 -0.2358, 0.1263 0.0154 -0.2362, 0.1258 0.0246 -0.2362, 0.1258 0.0246 -0.2358, 0.1226 0.0372 -0.2362, 0.1226 0.0372 -0.2358, 0.1178 0.0463 -0.2362, 0.1178 0.0463 -0.2358, 0.1106 0.0542 -0.2362, 0.1106 0.0542 -0.2358, 0.1025 0.0597 -0.2362, 0.1025 0.0597 -0.2358, 0.0936 0.0629 -0.2362, 0.0936 0.0629 -0.2358, 0.0846 -0.0309 -0.2358, 0.0846 -0.0309 -0.2362, 0.0957 -0.0297 -0.2362, 0.0957 -0.0297 -0.2358, 0.1043 -0.0265 -0.2362, 0.1043 -0.0265 -0.2358, 0.1115 -0.0216 -0.2362, 0.1115 -0.0216 -0.2358, 0.1171 -0.0158 -0.2362, 0.1171 -0.0158 -0.2358, 0.1219 -0.0076 -0.2362, 0.1219 -0.0076 -0.2358, 0.1252 0.0026 -0.2362, 0.1252 0.0026 -0.2358, 0.0564 -0.0245 -0.2362, 0.0564 -0.0245 -0.2358, 0.069 -0.0292 -0.2362, 0.069 -0.0292 -0.2358, 0.1523 -0.0295 -0.2358, 0.1523 -0.0424 -0.2358, 0.1523 -0.0295 -0.2362, 0.1523 -0.0424 -0.2362, 0.2128 -0.0424 -0.2358, 0.2128 -0.0424 -0.2362, 0.2128 0.0757 -0.2358, 0.2128 0.0757 -0.2362, 0.1969 0.0757 -0.2358, 0.1969 0.0757 -0.2362, 0.1969 -0.0295 -0.2358, 0.1969 -0.0295 -0.2362, 0.1969 -0.0295 -0.2362
            ]
        }
        coordIndex [
            0,1,2,-1,2,1,3,-1,1,4,3,-1,3,4,5,-1,4,6,5,-1,5,6,7,-1,6,8,7,-1,7,8,9,-1,8,10,9,-1,9,10,11,-1,10,12,11,-1,11,12,13,-1,12,14,13,-1,13,14,15,-1,14,0,15,-1,15,0,2,-1,16,8,17,-1,17,8,6,-1,18,14,16,-1,16,14,12,-1,16,12,8,-1,8,12,10,-1,18,19,14,-1,14,19,20,-1,14,20,0,-1,0,20,21,-1,0,21,22,-1,22,23,0,-1,0,23,17,-1,0,17,1,-1,1,17,6,-1,1,6,4,-1,16,17,24,-1,24,17,25,-1,18,16,26,-1,26,16,24,-1,18,26,27,-1,18,27,19,-1,19,27,28,-1,19,28,20,-1,21,20,29,-1,29,20,28,-1,21,29,30,-1,21,30,22,-1,22,30,31,-1,22,31,23,-1,17,23,25,-1,25,23,31,-1,32,33,34,-1,34,33,35,-1,33,36,35,-1,35,36,37,-1,36,38,37,-1,37,38,39,-1,40,41,42,-1,40,42,43,-1,43,42,44,-1,43,44,45,-1,45,44,46,-1,45,46,47,-1,47,46,48,-1,47,48,49,-1,49,48,50,-1,49,50,51,-1,51,50,52,-1,51,52,53,-1,53,52,54,-1,53,54,55,-1,55,54,39,-1,55,39,38,-1,32,34,56,-1,32,56,57,-1,57,56,58,-1,57,58,59,-1,59,58,60,-1,59,60,61,-1,61,60,62,-1,61,62,63,-1,63,62,64,-1,63,64,65,-1,65,64,66,-1,65,66,67,-1,67,66,41,-1,67,41,40,-1,45,47,68,-1,68,47,49,-1,68,49,69,-1,69,49,51,-1,69,51,70,-1,70,51,53,-1,70,53,71,-1,71,53,55,-1,71,55,72,-1,72,55,38,-1,72,38,73,-1,73,38,36,-1,73,36,74,-1,74,36,33,-1,74,33,75,-1,75,33,32,-1,75,32,76,-1,76,32,57,-1,76,57,77,-1,77,57,59,-1,77,59,78,-1,78,59,61,-1,78,61,79,-1,79,61,63,-1,79,63,80,-1,80,63,65,-1,80,65,81,-1,81,65,67,-1,81,67,82,-1,82,67,40,-1,82,40,83,-1,83,40,43,-1,83,43,84,-1,84,43,45,-1,84,45,68,-1,72,73,85,-1,85,73,86,-1,72,85,87,-1,72,87,71,-1,71,87,88,-1,71,88,70,-1,70,88,89,-1,70,89,69,-1,69,89,90,-1,69,90,68,-1,68,90,91,-1,68,91,84,-1,84,91,92,-1,84,92,83,-1,83,92,93,-1,83,93,82,-1,82,93,94,-1,82,94,81,-1,81,94,95,-1,81,95,80,-1,80,95,96,-1,80,96,79,-1,79,96,97,-1,79,97,78,-1,78,97,98,-1,78,98,77,-1,77,98,99,-1,77,99,76,-1,76,99,100,-1,76,100,75,-1,74,75,101,-1,101,75,100,-1,73,74,86,-1,86,74,101,-1,102,103,104,-1,104,103,105,-1,103,106,105,-1,105,106,107,-1,106,108,107,-1,107,108,109,-1,108,110,109,-1,109,110,111,-1,110,112,111,-1,111,112,113,-1,112,114,113,-1,113,114,115,-1,114,116,115,-1,115,116,117,-1,116,118,117,-1,117,118,119,-1,118,120,119,-1,119,120,121,-1,120,122,121,-1,121,122,123,-1,122,124,123,-1,123,124,125,-1,124,102,125,-1,125,102,104,-1,106,103,102,-1,102,124,106,-1,106,124,122,-1,106,122,108,-1,112,110,114,-1,114,110,108,-1,114,108,116,-1,116,108,122,-1,116,122,118,-1,118,122,120,-1,126,127,128,-1,128,127,129,-1,129,127,130,-1,131,132,133,-1,131,133,134,-1,134,133,135,-1,134,135,130,-1,130,135,136,-1,130,136,129,-1,132,131,137,-1,137,131,138,-1,137,138,139,-1,139,138,140,-1,139,140,141,-1,141,140,142,-1,141,142,143,-1,143,142,144,-1,143,144,145,-1,145,144,146,-1,145,146,147,-1,147,146,148,-1,147,148,149,-1,149,148,150,-1,149,150,151,-1,152,153,154,-1,152,154,155,-1,155,154,156,-1,155,156,157,-1,157,156,158,-1,157,158,159,-1,159,158,160,-1,159,160,161,-1,161,160,162,-1,161,162,163,-1,163,162,164,-1,163,164,165,-1,165,164,151,-1,165,151,150,-1,166,167,168,-1,166,168,169,-1,169,168,153,-1,169,153,152,-1,166,170,167,-1,167,170,171,-1,172,173,174,-1,172,174,175,-1,175,174,171,-1,175,171,170,-1,176,177,178,-1,176,178,179,-1,179,178,180,-1,179,180,181,-1,181,180,182,-1,181,182,183,-1,183,182,184,-1,183,184,185,-1,185,184,186,-1,185,186,187,-1,187,186,188,-1,187,188,189,-1,189,188,173,-1,189,173,172,-1,190,191,192,-1,190,192,193,-1,193,192,194,-1,193,194,195,-1,195,194,196,-1,195,196,197,-1,197,196,198,-1,197,198,199,-1,199,198,200,-1,199,200,201,-1,201,200,202,-1,201,202,203,-1,203,202,177,-1,203,177,176,-1,126,128,204,-1,126,204,205,-1,205,204,206,-1,205,206,207,-1,207,206,191,-1,207,191,190,-1,193,131,190,-1,190,131,134,-1,190,134,207,-1,207,134,130,-1,207,130,205,-1,205,130,127,-1,205,127,126,-1,170,166,175,-1,175,166,169,-1,175,169,172,-1,172,169,152,-1,172,152,189,-1,189,152,155,-1,189,155,187,-1,187,155,157,-1,187,157,185,-1,185,157,159,-1,185,159,183,-1,183,159,161,-1,183,161,181,-1,181,161,163,-1,181,163,179,-1,179,163,165,-1,179,165,176,-1,176,165,150,-1,176,150,203,-1,203,150,148,-1,203,148,201,-1,201,148,146,-1,201,146,199,-1,199,146,144,-1,199,144,197,-1,197,144,142,-1,197,142,195,-1,195,142,140,-1,195,140,193,-1,193,140,138,-1,193,138,131,-1,208,209,210,-1,210,209,211,-1,209,212,211,-1,211,212,213,-1,212,214,213,-1,213,214,215,-1,214,216,215,-1,215,216,217,-1,216,218,217,-1,217,218,219,-1,218,208,219,-1,219,208,210,-1,216,214,218,-1,218,214,212,-1,218,212,208,-1,208,212,209,-1,
        ]
    }
}
Shape{
    appearance Appearance {
        material  Material 	{
            diffuseColor 0.2235294117647059 0.2235294117647059 0.2235294117647059
            specularColor 0.11372549019607843 0.11372549019607843 0.11372549019607843
            ambientIntensity 0.2
            transparency 0
            shininess 0.5
        }
    }
    geometry IndexedFaceSet {
        ccw TRUE
        solid FALSE
        coord DEF co Coordinate {
            point [
                -0.1914 0.0037 -0.2362, -0.2309 0.0037 -0.2362, -0.209 0.053 -0.2362, -0.2131 0.053 -0.2362, -0.2101 0.0571 -0.2362, -0.2121 0.0571 -0.2362, -0.2109 0.0613 -0.2362, -0.2113 0.0613 -0.2362, -0.071 0.0627 -0.2362, -0.071 -0.0295 -0.2362, -0.0884 0.0627 -0.2362, -0.0877 -0.0295 -0.2362, -0.1002 -0.0283 -0.2362, -0.1344 0.0178 -0.2362, -0.1334 0.0295 -0.2362, -0.1306 0.0389 -0.2362, -0.1024 0.0612 -0.2362, -0.1101 -0.0252 -0.2362, -0.1182 -0.0204 -0.2362, -0.1248 -0.0139 -0.2362, -0.1298 -0.0057 -0.2362, -0.1333 0.0054 -0.2362, -0.1265 0.0462 -0.2362, -0.1208 0.0523 -0.2362, -0.1121 0.0578 -0.2362, -0.1121 0.0578 -0.2362
            ]
        }
        coordIndex [
            0,1,2,-1,2,1,3,-1,2,3,4,-1,4,3,5,-1,4,5,6,-1,6,5,7,-1,8,9,10,-1,10,9,11,-1,10,11,12,-1,13,14,10,-1,10,14,15,-1,10,15,16,-1,12,17,10,-1,10,17,18,-1,10,18,19,-1,19,20,10,-1,10,20,21,-1,10,21,13,-1,22,23,15,-1,15,23,24,-1,15,24,16,-1,
        ]
    }
}
Shape{
    appearance Appearance {
        material  Material 	{
            diffuseColor 0.25098039215686274 0.25098039215686274 0.25098039215686274
            specularColor 0.12549019607843137 0.12549019607843137 0.12549019607843137
            ambientIntensity 0.2
            transparency 0
            shininess 0.5
        }
    }
    geometry IndexedFaceSet {
        ccw TRUE
        solid FALSE
        coord DEF co Coordinate {
            point [
                -0.9941 -1.063 0.748, -1.062 -0.9951 0.748, -0.9941 -1.063 0.6299, -1.0886 -0.9685 0.748, -1.2303 -0.8268 0.6299, -1.1337 -0.9234 0.748, -1.2303 -0.8268 0.748, -1.2303 -1.063 0.6299, -1.2303 -1.063 0.6299
            ]
        }
        coordIndex [
            0,1,2,-1,2,1,3,-1,2,3,4,-1,4,3,5,-1,4,5,6,-1,7,2,4,-1,
        ]
    }
}