#VRML V2.0 utf8
# 3D model generated by easyeda2kicad.py (https://github.com/uPesy/easyeda2kicad.py)

Shape{
    appearance Appearance {
        material  Material 	{
            diffuseColor 1.0 1.0 1.0
            specularColor 0.30196078431372547 0.30196078431372547 0.30196078431372547
            ambientIntensity 0.2
            transparency 0
            shininess 0.5
        }
    }
    geometry IndexedFaceSet {
        ccw TRUE
        solid FALSE
        coord DEF co Coordinate {
            point [
                0.3878 0.2922 1.0433, 0.3878 -0.0622 1.0433, 0.3878 0.2922 0.8465, 0.3878 -0.0622 0.8465, 0.1122 0.2922 1.0433, 0.1122 0.2922 0.8465, 0.1122 -0.0622 1.0433, 0.1122 -0.0622 0.8465, 0.8878 0.2922 1.0433, 0.8878 -0.0622 1.0433, 0.8878 0.2922 0.8465, 0.8878 -0.0622 0.8465, 0.6122 0.2922 1.0433, 0.6122 0.2922 0.8465, 0.6122 -0.0622 1.0433, 0.6122 -0.0622 0.8465, -0.1122 0.2922 1.0433, -0.1122 -0.0622 1.0433, -0.1122 0.2922 0.8465, -0.1122 -0.0622 0.8465, -0.3878 0.2922 1.0433, -0.3878 0.2922 0.8465, -0.3878 -0.0622 1.0433, -0.3878 -0.0622 0.8465, -0.6122 0.2922 1.0433, -0.6122 -0.0622 1.0433, -0.6122 0.2922 0.8465, -0.6122 -0.0622 0.8465, -0.8878 0.2922 1.0433, -0.8878 0.2922 0.8465, -0.8878 -0.0622 1.0433, -0.8878 -0.0622 0.8465, -0.8878 -0.0622 0.8465
            ]
        }
        coordIndex [
            0,1,2,-1,2,1,3,-1,4,0,5,-1,5,0,2,-1,6,4,7,-1,7,4,5,-1,1,6,3,-1,3,6,7,-1,4,6,0,-1,0,6,1,-1,7,5,3,-1,3,5,2,-1,8,9,10,-1,10,9,11,-1,12,8,13,-1,13,8,10,-1,14,12,15,-1,15,12,13,-1,9,14,11,-1,11,14,15,-1,12,14,8,-1,8,14,9,-1,15,13,11,-1,11,13,10,-1,16,17,18,-1,18,17,19,-1,20,16,21,-1,21,16,18,-1,22,20,23,-1,23,20,21,-1,17,22,19,-1,19,22,23,-1,20,22,16,-1,16,22,17,-1,23,21,19,-1,19,21,18,-1,24,25,26,-1,26,25,27,-1,28,24,29,-1,29,24,26,-1,30,28,31,-1,31,28,29,-1,25,30,27,-1,27,30,31,-1,28,30,24,-1,24,30,25,-1,31,29,27,-1,27,29,26,-1,
        ]
    }
}
Shape{
    appearance Appearance {
        material  Material 	{
            diffuseColor 0.10980392156862745 0.10980392156862745 0.10980392156862745
            specularColor 0.0784313725490196 0.0784313725490196 0.0784313725490196
            ambientIntensity 0.2
            transparency 0
            shininess 0.5
        }
    }
    geometry IndexedFaceSet {
        ccw TRUE
        solid FALSE
        coord DEF co Coordinate {
            point [
                -0.0175 0.013 0.0394, -0.0175 0.0 0.0394, -0.029 -0.0007 0.0394, 0.0459 0.0 0.0394, 0.069 0.0061 0.0394, 0.069 0.0191 0.0394, 0.0459 0.1181 0.0394, -0.0117 0.0533 0.0394, 0.0301 0.0533 0.0394, 0.0301 0.013 0.0394, 0.2116 0.013 0.0394, 0.1669 0.013 0.0394, 0.2116 0.1181 0.0394, -0.029 1.063 0.0394, 0.2274 0.1181 0.0394, 1.1516 1.063 0.0394, 0.2274 0.0 0.0394, 1.1516 -0.0007 0.0394, -0.0146 0.1051 0.0394, -0.0146 0.1181 0.0394, -0.0117 0.0663 0.0394, 0.0301 0.0663 0.0394, 0.0301 0.1051 0.0394, 0.1083 0.1053 0.0394, 0.1171 0.1021 0.0394, 0.0711 0.0179 0.0394, 0.1253 0.0966 0.0394, 0.1324 0.0887 0.0394, 0.141 0.0578 0.0394, 0.1398 0.045 0.0394, 0.1366 0.0348 0.0394, 0.1103 0.0128 0.0394, 0.0993 0.0115 0.0394, 0.1189 0.0159 0.0394, 0.1262 0.0208 0.0394, 0.1317 0.0267 0.0394, 0.0836 0.0133 0.0394, 0.1373 0.0796 0.0394, 0.1404 0.067 0.0394, 0.1437 0.098 0.0394, 0.133 0.1083 0.0394, 0.1275 0.004 0.0394, 0.1669 0.0 0.0394, 0.116 0.0001 0.0394, 0.1084 -0.0007 0.0394, 0.137 0.0101 0.0394, 0.1458 0.0194 0.0394, 0.1521 0.0306 0.0394, 0.1557 0.0431 0.0394, 0.1218 0.1148 0.0394, 0.1086 0.1186 0.0394, 0.0968 0.1196 0.0394, 0.1568 0.0568 0.0394, 0.1551 0.0736 0.0394, 0.1506 0.087 0.0394, 0.0826 0.1186 0.0394, 0.069 0.1149 0.0394, 0.069 0.099 0.0394, 0.0823 0.1047 0.0394, 0.0966 0.1066 0.0394, 0.1015 -0.0014 0.0394, 1.1516 -1.063 0.0394, 0.0982 -0.0014 0.0394, -0.029 -1.063 0.0394, 0.0935 -0.0007 0.0394, -1.1516 -1.063 0.0394, -1.1516 -0.0007 0.0394, 0.0816 0.001 0.0394, -0.1442 0.0 0.0394, -0.1297 0.0324 0.0394, -0.1229 0.0218 0.0394, -0.2335 0.0 0.0394, -0.2508 0.0 0.0394, -0.2047 0.1181 0.0394, -1.1516 1.063 0.0394, -0.1889 0.1181 0.0394, -0.1132 0.0125 0.0394, -0.1008 0.0053 0.0394, -0.0872 0.0013 0.0394, -0.0726 0.0 0.0394, -0.0405 0.0 0.0394, -0.0405 0.1181 0.0394, -0.0738 0.1181 0.0394, -0.1177 0.1027 0.0394, -0.126 0.0934 0.0394, -0.1315 0.0833 0.0394, -0.0909 0.1163 0.0394, -0.1047 0.1114 0.0394, -0.1176 0.1028 0.0394, -0.1615 0.0 0.0394, -0.1728 0.0331 0.0394, -0.2216 0.0331 0.0394, -0.1347 0.0717 0.0394, -0.1356 0.0605 0.0394, -0.1339 0.0447 0.0394, 1.2303 1.1417 0.2362, 0.8386 1.1417 0.2362, 1.2303 1.1417 0.9646, 0.8386 1.1417 0.315, 1.0335 1.1417 0.9646, 0.6614 1.1417 0.315, 1.0335 1.1417 1.0433, -1.2303 1.1417 1.0433, 0.1614 1.1417 0.315, 0.3386 1.1417 0.315, 0.3386 1.1417 0.2362, 0.6614 1.1417 0.2362, 0.1614 1.1417 0.2362, -0.1614 1.1417 0.2362, -0.1614 1.1417 0.315, -0.3386 1.1417 0.315, -0.8386 1.1417 0.2362, -1.2303 1.1417 0.2362, -0.8386 1.1417 0.315, -0.6614 1.1417 0.315, -0.6614 1.1417 0.2362, -0.3386 1.1417 0.2362, -1.0335 -1.1417 0.9646, -0.3386 -1.1417 0.2362, -1.0335 -1.1417 1.0433, -0.3386 -1.1417 0.315, -0.1614 -1.1417 0.2362, 0.1614 -1.1417 0.2362, -0.1614 -1.1417 0.315, 0.1614 -1.1417 0.315, 1.2303 -1.1417 1.0433, 0.3386 -1.1417 0.315, -1.2303 -1.1417 0.2362, -0.8386 -1.1417 0.2362, -1.2303 -1.1417 0.9646, -0.8386 -1.1417 0.315, -0.6614 -1.1417 0.315, -0.6614 -1.1417 0.2362, 0.8386 -1.1417 0.2362, 1.2303 -1.1417 0.2362, 0.8386 -1.1417 0.315, 0.6614 -1.1417 0.315, 0.6614 -1.1417 0.2362, 0.3386 -1.1417 0.2362, 0.3386 -1.1417 0.2362
            ]
        }
        coordIndex [
            0,1,2,-1,2,1,3,-1,4,3,5,-1,5,3,6,-1,7,8,9,-1,10,11,12,-1,12,11,13,-1,12,13,14,-1,14,13,15,-1,14,15,16,-1,16,15,17,-1,18,2,19,-1,19,2,13,-1,19,13,6,-1,9,0,7,-1,7,0,2,-1,7,2,20,-1,20,2,18,-1,20,18,21,-1,21,18,22,-1,23,24,25,-1,25,24,26,-1,25,26,27,-1,28,29,25,-1,25,29,30,-1,31,32,33,-1,33,32,34,-1,30,35,25,-1,25,35,34,-1,25,34,36,-1,36,34,32,-1,27,37,25,-1,25,37,38,-1,25,38,28,-1,13,39,40,-1,41,42,43,-1,43,42,44,-1,41,45,42,-1,42,45,46,-1,42,46,11,-1,11,46,47,-1,11,47,48,-1,40,49,13,-1,13,49,50,-1,13,50,51,-1,48,52,11,-1,11,52,53,-1,11,53,13,-1,13,53,54,-1,13,54,39,-1,51,55,13,-1,13,55,56,-1,13,56,6,-1,6,56,57,-1,6,57,5,-1,5,57,58,-1,5,58,25,-1,25,58,59,-1,25,59,23,-1,42,16,44,-1,44,16,17,-1,44,17,60,-1,60,17,61,-1,60,61,62,-1,62,61,63,-1,62,63,64,-1,65,66,63,-1,63,66,2,-1,63,2,64,-1,64,2,3,-1,64,3,67,-1,67,3,4,-1,68,69,70,-1,71,2,72,-1,72,2,66,-1,72,66,73,-1,73,66,74,-1,73,74,75,-1,75,74,13,-1,70,76,68,-1,68,76,77,-1,68,77,78,-1,79,80,2,-1,2,80,81,-1,2,81,13,-1,13,81,82,-1,83,84,75,-1,75,84,85,-1,82,86,13,-1,13,86,87,-1,13,87,75,-1,75,87,88,-1,75,88,83,-1,78,79,68,-1,68,79,2,-1,68,2,89,-1,89,2,71,-1,89,71,90,-1,90,71,91,-1,85,92,75,-1,75,92,93,-1,75,93,68,-1,68,93,94,-1,68,94,69,-1,95,96,97,-1,97,96,98,-1,97,98,99,-1,99,98,100,-1,99,100,101,-1,101,100,102,-1,103,102,104,-1,104,102,100,-1,104,100,105,-1,105,100,106,-1,107,108,103,-1,103,108,109,-1,103,109,102,-1,102,109,110,-1,111,112,113,-1,113,112,102,-1,113,102,114,-1,114,102,110,-1,114,110,115,-1,115,110,116,-1,117,118,119,-1,119,118,120,-1,121,122,123,-1,123,122,124,-1,120,123,119,-1,119,123,124,-1,119,124,125,-1,125,124,126,-1,127,128,129,-1,129,128,130,-1,129,130,117,-1,117,130,131,-1,117,131,118,-1,118,131,132,-1,133,134,135,-1,135,134,125,-1,135,125,136,-1,136,125,126,-1,136,126,137,-1,137,126,138,-1,
        ]
    }
}
Shape{
    appearance Appearance {
        material  Material 	{
            diffuseColor 0.20392156862745098 0.20392156862745098 0.20392156862745098
            specularColor 0.1411764705882353 0.1411764705882353 0.1411764705882353
            ambientIntensity 0.2
            transparency 0
            shininess 0.5
        }
    }
    geometry IndexedFaceSet {
        ccw TRUE
        solid FALSE
        coord DEF co Coordinate {
            point [
                0.4075 0.689 0.9646, 0.0925 0.689 0.9646, 0.4075 0.2922 0.9646, 0.0925 0.2922 0.9646, -0.0925 0.689 0.9646, -0.4075 0.689 0.9646, -0.0925 0.2922 0.9646, -0.4075 0.2922 0.9646, -0.4075 -0.689 0.9646, -0.0925 -0.689 0.9646, -0.4075 -0.2984 0.9646, -0.0925 -0.2984 0.9646, -0.5925 0.689 0.9646, -0.9075 0.689 0.9646, -0.5925 0.2922 0.9646, -0.9075 0.2922 0.9646, -0.9075 -0.689 0.9646, -0.5925 -0.689 0.9646, -0.9075 -0.2984 0.9646, -0.5925 -0.2984 0.9646, 0.5925 -0.689 0.9646, 0.9075 -0.689 0.9646, 0.5925 -0.2984 0.9646, 0.9075 -0.2984 0.9646, 0.9075 0.689 0.9646, 0.5925 0.689 0.9646, 0.9075 0.2922 0.9646, 0.5925 0.2922 0.9646, 0.5925 0.2922 0.9646
            ]
        }
        coordIndex [
            0,1,2,-1,2,1,3,-1,4,5,6,-1,6,5,7,-1,8,9,10,-1,10,9,11,-1,12,13,14,-1,14,13,15,-1,16,17,18,-1,18,17,19,-1,20,21,22,-1,22,21,23,-1,24,25,26,-1,26,25,27,-1,
        ]
    }
}
Shape{
    appearance Appearance {
        material  Material 	{
            diffuseColor 0.10980392156862745 0.10980392156862745 0.10980392156862745
            specularColor 0.0784313725490196 0.0784313725490196 0.0784313725490196
            ambientIntensity 0.2
            transparency 0
            shininess 0.5
        }
    }
    geometry IndexedFaceSet {
        ccw TRUE
        solid FALSE
        coord DEF co Coordinate {
            point [
                1.2303 0.9449 1.0433, 1.2303 -1.1417 1.0433, 1.2303 0.9449 0.9646, 1.2303 -1.1417 0.2362, 1.2303 1.1417 0.9646, 1.2303 1.1417 0.2362, -1.2303 -0.9449 1.0433, -1.2303 1.1417 1.0433, -1.2303 -0.9449 0.9646, -1.2303 1.1417 0.2362, -1.2303 -1.1417 0.9646, -1.2303 -1.1417 0.2362, 0.9075 -0.689 1.0433, 0.5925 -0.689 1.0433, -1.0335 -1.1417 1.0433, -0.5925 -0.689 1.0433, 0.9075 0.689 1.0433, 0.5925 0.689 1.0433, 1.0335 1.1417 1.0433, -0.9075 -0.689 1.0433, -0.9075 0.689 1.0433, -0.5925 0.689 1.0433, 0.0925 -0.689 1.0433, 0.4075 -0.689 1.0433, 0.4075 0.689 1.0433, -0.0925 0.689 1.0433, -0.4075 0.689 1.0433, -0.4075 -0.689 1.0433, -0.0925 -0.689 1.0433, 0.0925 0.689 1.0433, 0.0925 0.689 1.0433
            ]
        }
        coordIndex [
            0,1,2,-1,2,1,3,-1,2,3,4,-1,4,3,5,-1,6,7,8,-1,8,7,9,-1,8,9,10,-1,10,9,11,-1,1,12,13,-1,14,1,15,-1,12,1,16,-1,16,1,0,-1,16,0,17,-1,17,0,18,-1,17,18,7,-1,14,15,6,-1,6,15,19,-1,6,19,7,-1,7,19,20,-1,7,20,21,-1,22,1,23,-1,23,1,13,-1,23,13,24,-1,25,7,26,-1,26,7,21,-1,26,21,27,-1,21,15,27,-1,27,15,1,-1,27,1,28,-1,28,1,22,-1,28,22,25,-1,25,22,29,-1,25,29,7,-1,7,29,24,-1,7,24,17,-1,17,24,13,-1,
        ]
    }
}
Shape{
    appearance Appearance {
        material  Material 	{
            diffuseColor 0.20392156862745098 0.20392156862745098 0.20392156862745098
            specularColor 0.1411764705882353 0.1411764705882353 0.1411764705882353
            ambientIntensity 0.2
            transparency 0
            shininess 0.5
        }
    }
    geometry IndexedFaceSet {
        ccw TRUE
        solid FALSE
        coord DEF co Coordinate {
            point [
                1.2303 0.9449 0.9646, 1.0335 1.1417 0.9646, 1.2303 0.9449 1.0433, 1.0335 1.1417 1.0433, 1.2303 1.1417 0.9646, -1.2303 -0.9449 0.9646, -1.0335 -1.1417 0.9646, -1.2303 -0.9449 1.0433, -1.0335 -1.1417 1.0433, -1.2303 -1.1417 0.9646, 0.4075 -0.689 1.0433, 0.4075 0.689 1.0433, 0.4075 0.2922 0.9646, 0.4075 0.689 0.9646, 0.4075 -0.689 0.9646, 0.4075 -0.2984 0.9646, 0.4075 -0.2984 0.8465, 0.4075 0.2922 0.8465, 0.0925 -0.689 0.9646, 0.0925 -0.689 1.0433, 0.0925 0.2922 0.9646, 0.0925 0.689 0.9646, 0.0925 0.689 1.0433, 0.0925 -0.2984 0.9646, 0.0925 -0.2984 0.8465, 0.0925 0.2922 0.8465, -0.0925 -0.689 1.0433, -0.0925 0.689 1.0433, -0.0925 0.2922 0.9646, -0.0925 0.689 0.9646, -0.0925 -0.689 0.9646, -0.0925 -0.2984 0.9646, -0.0925 -0.2984 0.8465, -0.0925 0.2922 0.8465, -0.4075 -0.689 0.9646, -0.4075 -0.689 1.0433, -0.4075 0.689 1.0433, -0.4075 -0.2984 0.9646, -0.4075 0.689 0.9646, -0.4075 0.2922 0.9646, -0.4075 0.2922 0.8465, -0.4075 -0.2984 0.8465, -0.5925 -0.689 1.0433, -0.5925 0.689 1.0433, -0.5925 0.2922 0.9646, -0.5925 0.689 0.9646, -0.5925 -0.689 0.9646, -0.5925 -0.2984 0.9646, -0.5925 -0.2984 0.8465, -0.5925 0.2922 0.8465, -0.9075 -0.689 0.9646, -0.9075 -0.689 1.0433, -0.9075 0.689 1.0433, -0.9075 -0.2984 0.9646, -0.9075 0.689 0.9646, -0.9075 0.2922 0.9646, -0.9075 0.2922 0.8465, -0.9075 -0.2984 0.8465, 0.9075 -0.689 0.9646, 0.5925 -0.689 0.9646, 0.9075 -0.689 1.0433, 0.5925 -0.689 1.0433, 0.5925 0.689 1.0433, 0.5925 -0.2984 0.9646, 0.5925 0.689 0.9646, 0.5925 0.2922 0.9646, 0.5925 0.2922 0.8465, 0.5925 -0.2984 0.8465, 0.9075 0.689 0.9646, 0.9075 0.689 1.0433, 0.9075 0.2922 0.9646, 0.9075 -0.2984 0.9646, 0.9075 -0.2984 0.8465, 0.9075 0.2922 0.8465, 0.9075 0.2922 0.8465
            ]
        }
        coordIndex [
            0,1,2,-1,2,1,3,-1,0,4,1,-1,5,6,7,-1,7,6,8,-1,9,6,5,-1,10,11,12,-1,12,11,13,-1,14,10,15,-1,15,10,12,-1,15,12,16,-1,16,12,17,-1,14,18,10,-1,10,18,19,-1,20,21,22,-1,19,18,23,-1,24,25,23,-1,23,25,20,-1,23,20,19,-1,19,20,22,-1,21,13,22,-1,22,13,11,-1,18,14,23,-1,23,14,15,-1,26,27,28,-1,28,27,29,-1,30,26,31,-1,31,26,28,-1,31,28,32,-1,32,28,33,-1,30,34,26,-1,26,34,35,-1,36,35,37,-1,37,35,34,-1,38,36,39,-1,39,36,37,-1,39,37,40,-1,40,37,41,-1,38,29,36,-1,36,29,27,-1,42,43,44,-1,44,43,45,-1,46,42,47,-1,47,42,44,-1,47,44,48,-1,48,44,49,-1,46,50,42,-1,42,50,51,-1,52,51,53,-1,53,51,50,-1,54,52,55,-1,55,52,53,-1,55,53,56,-1,56,53,57,-1,54,45,52,-1,52,45,43,-1,58,59,60,-1,60,59,61,-1,62,61,63,-1,63,61,59,-1,64,62,65,-1,65,62,63,-1,65,63,66,-1,66,63,67,-1,64,68,62,-1,62,68,69,-1,60,69,70,-1,70,69,68,-1,58,60,71,-1,71,60,70,-1,71,70,72,-1,72,70,73,-1,72,67,71,-1,71,67,63,-1,66,73,65,-1,65,73,70,-1,73,66,72,-1,72,66,67,-1,48,57,47,-1,47,57,53,-1,56,49,55,-1,55,49,44,-1,56,57,49,-1,49,57,48,-1,32,41,31,-1,31,41,37,-1,40,33,39,-1,39,33,28,-1,40,41,33,-1,33,41,32,-1,16,24,15,-1,15,24,23,-1,25,17,20,-1,20,17,12,-1,25,24,17,-1,17,24,16,-1,
        ]
    }
}
Shape{
    appearance Appearance {
        material  Material 	{
            diffuseColor 0.10980392156862745 0.10980392156862745 0.10980392156862745
            specularColor 0.0784313725490196 0.0784313725490196 0.0784313725490196
            ambientIntensity 0.2
            transparency 0
            shininess 0.5
        }
    }
    geometry IndexedFaceSet {
        ccw TRUE
        solid FALSE
        coord DEF co Coordinate {
            point [
                -1.1516 -1.063 0.0394, -1.2303 -1.1417 0.2362, -1.1516 -0.0007 0.0394, -1.2303 1.1417 0.2362, -1.1516 1.063 0.0394, -0.8386 -1.1417 0.2362, 0.1614 -1.1417 0.2362, -0.1614 -1.1417 0.2362, -0.029 -1.063 0.0394, -0.3386 -1.1417 0.2362, -0.6614 -1.1417 0.2362, 1.2303 -1.1417 0.2362, 0.8386 -1.1417 0.2362, 1.1516 -1.063 0.0394, 0.6614 -1.1417 0.2362, 0.3386 -1.1417 0.2362, 0.8386 1.1417 0.2362, 1.2303 1.1417 0.2362, 1.1516 1.063 0.0394, -0.8386 1.1417 0.2362, -0.6614 1.1417 0.2362, -0.029 1.063 0.0394, -0.3386 1.1417 0.2362, -0.1614 1.1417 0.2362, 0.1614 1.1417 0.2362, 0.3386 1.1417 0.2362, 0.6614 1.1417 0.2362, 1.1516 -0.0007 0.0394, 1.1516 -0.0007 0.0394
            ]
        }
        coordIndex [
            0,1,2,-1,2,1,3,-1,2,3,4,-1,5,1,0,-1,6,7,8,-1,8,7,9,-1,8,9,0,-1,0,9,10,-1,0,10,5,-1,11,12,13,-1,13,12,14,-1,13,14,8,-1,8,14,15,-1,8,15,6,-1,16,17,18,-1,3,19,4,-1,4,19,20,-1,4,20,21,-1,21,20,22,-1,21,22,23,-1,23,24,21,-1,21,24,25,-1,21,25,18,-1,18,25,26,-1,18,26,16,-1,18,17,27,-1,27,17,11,-1,27,11,13,-1,
        ]
    }
}
Shape{
    appearance Appearance {
        material  Material 	{
            diffuseColor 0.9686274509803922 0.8784313725490196 0.6
            specularColor 0.6784313725490196 0.615686274509804 0.4196078431372549
            ambientIntensity 0.2
            transparency 0
            shininess 0.5
        }
    }
    geometry IndexedFaceSet {
        ccw TRUE
        solid FALSE
        coord DEF co Coordinate {
            point [
                0.1614 -1.6614 0.0787, 0.1614 -1.6614 0.0, 0.3386 -1.6614 0.0787, 0.3386 -1.6614 0.0, 0.1614 -1.4655 0.0, 0.1614 -1.5109 0.0787, 0.3386 -1.4655 0.0, 0.3386 -1.5109 0.0787, 0.1614 -1.3063 0.315, 0.1614 -1.1417 0.315, 0.1614 -1.3063 0.2362, 0.1614 -1.1417 0.2362, 0.3386 -1.3063 0.2362, 0.3386 -1.1417 0.2362, 0.3386 -1.3063 0.315, 0.3386 -1.1417 0.315, 0.1614 -1.3342 0.2247, 0.1614 -1.3404 0.2165, 0.1614 -1.4086 0.2559, 0.1614 -1.3309 0.3124, 0.1614 -1.3165 0.2349, 0.1614 -1.3544 0.3047, 0.1614 -1.326 0.2309, 0.1614 -1.3758 0.2924, 0.1614 -1.3941 0.2759, 0.3386 -1.3165 0.2349, 0.3386 -1.326 0.2309, 0.3386 -1.3342 0.2247, 0.3386 -1.3404 0.2165, 0.3386 -1.3309 0.3124, 0.3386 -1.4086 0.2559, 0.3386 -1.3941 0.2759, 0.3386 -1.3758 0.2924, 0.3386 -1.3544 0.3047, -0.3386 -1.6614 0.0787, -0.3386 -1.6614 0.0, -0.1614 -1.6614 0.0787, -0.1614 -1.6614 0.0, -0.3386 -1.4655 0.0, -0.3386 -1.5109 0.0787, -0.1614 -1.4655 0.0, -0.1614 -1.5109 0.0787, -0.3386 -1.3063 0.315, -0.3386 -1.1417 0.315, -0.3386 -1.3063 0.2362, -0.3386 -1.1417 0.2362, -0.1614 -1.3063 0.2362, -0.1614 -1.1417 0.2362, -0.1614 -1.3063 0.315, -0.1614 -1.1417 0.315, -0.3386 -1.3342 0.2247, -0.3386 -1.3404 0.2165, -0.3386 -1.4086 0.2559, -0.3386 -1.3309 0.3124, -0.3386 -1.3165 0.2349, -0.3386 -1.3544 0.3047, -0.3386 -1.326 0.2309, -0.3386 -1.3758 0.2924, -0.3386 -1.3941 0.2759, -0.1614 -1.3165 0.2349, -0.1614 -1.326 0.2309, -0.1614 -1.3342 0.2247, -0.1614 -1.3404 0.2165, -0.1614 -1.3309 0.3124, -0.1614 -1.4086 0.2559, -0.1614 -1.3941 0.2759, -0.1614 -1.3758 0.2924, -0.1614 -1.3544 0.3047, -0.8386 -1.6614 0.0787, -0.8386 -1.6614 0.0, -0.6614 -1.6614 0.0787, -0.6614 -1.6614 0.0, -0.8386 -1.4655 0.0, -0.8386 -1.5109 0.0787, -0.6614 -1.4655 0.0, -0.6614 -1.5109 0.0787, -0.8386 -1.3063 0.315, -0.8386 -1.1417 0.315, -0.8386 -1.3063 0.2362, -0.8386 -1.1417 0.2362, -0.6614 -1.3063 0.2362, -0.6614 -1.1417 0.2362, -0.6614 -1.3063 0.315, -0.6614 -1.1417 0.315, -0.8386 -1.3342 0.2247, -0.8386 -1.3404 0.2165, -0.8386 -1.4086 0.2559, -0.8386 -1.3309 0.3124, -0.8386 -1.3165 0.2349, -0.8386 -1.3544 0.3047, -0.8386 -1.326 0.2309, -0.8386 -1.3758 0.2924, -0.8386 -1.3941 0.2759, -0.6614 -1.3165 0.2349, -0.6614 -1.326 0.2309, -0.6614 -1.3342 0.2247, -0.6614 -1.3404 0.2165, -0.6614 -1.3309 0.3124, -0.6614 -1.4086 0.2559, -0.6614 -1.3941 0.2759, -0.6614 -1.3758 0.2924, -0.6614 -1.3544 0.3047, 0.6614 -1.6614 0.0787, 0.6614 -1.6614 0.0, 0.8386 -1.6614 0.0787, 0.8386 -1.6614 0.0, 0.6614 -1.4655 0.0, 0.6614 -1.5109 0.0787, 0.8386 -1.4655 0.0, 0.8386 -1.5109 0.0787, 0.6614 -1.3063 0.315, 0.6614 -1.1417 0.315, 0.6614 -1.3063 0.2362, 0.6614 -1.1417 0.2362, 0.8386 -1.3063 0.2362, 0.8386 -1.1417 0.2362, 0.8386 -1.3063 0.315, 0.8386 -1.1417 0.315, 0.6614 -1.3342 0.2247, 0.6614 -1.3404 0.2165, 0.6614 -1.4086 0.2559, 0.6614 -1.3309 0.3124, 0.6614 -1.3165 0.2349, 0.6614 -1.3544 0.3047, 0.6614 -1.326 0.2309, 0.6614 -1.3758 0.2924, 0.6614 -1.3941 0.2759, 0.8386 -1.3165 0.2349, 0.8386 -1.326 0.2309, 0.8386 -1.3342 0.2247, 0.8386 -1.3404 0.2165, 0.8386 -1.3309 0.3124, 0.8386 -1.4086 0.2559, 0.8386 -1.3941 0.2759, 0.8386 -1.3758 0.2924, 0.8386 -1.3544 0.3047, 0.1614 1.6614 0.0, 0.1614 1.6614 0.0787, 0.3386 1.6614 0.0, 0.3386 1.6614 0.0787, 0.3386 1.4655 0.0, 0.3386 1.5109 0.0787, 0.1614 1.4655 0.0, 0.1614 1.5109 0.0787, 0.3386 1.3063 0.315, 0.3386 1.1417 0.315, 0.3386 1.3063 0.2362, 0.3386 1.1417 0.2362, 0.1614 1.3063 0.2362, 0.1614 1.1417 0.2362, 0.1614 1.3063 0.315, 0.1614 1.1417 0.315, 0.3386 1.3404 0.2165, 0.3386 1.4086 0.2559, 0.3386 1.3356 0.2232, 0.3386 1.3941 0.2759, 0.3386 1.3295 0.2287, 0.3386 1.3758 0.2924, 0.3386 1.3224 0.2328, 0.3386 1.3544 0.3047, 0.3386 1.3145 0.2354, 0.3386 1.3309 0.3124, 0.1614 1.3145 0.2354, 0.1614 1.3224 0.2328, 0.1614 1.3295 0.2287, 0.1614 1.3356 0.2232, 0.1614 1.3404 0.2165, 0.1614 1.3309 0.3124, 0.1614 1.3544 0.3047, 0.1614 1.3758 0.2924, 0.1614 1.3941 0.2759, 0.1614 1.4086 0.2559, -0.3386 1.6614 0.0, -0.3386 1.6614 0.0787, -0.1614 1.6614 0.0, -0.1614 1.6614 0.0787, -0.1614 1.4655 0.0, -0.1614 1.5109 0.0787, -0.3386 1.4655 0.0, -0.3386 1.5109 0.0787, -0.1614 1.3063 0.315, -0.1614 1.1417 0.315, -0.1614 1.3063 0.2362, -0.1614 1.1417 0.2362, -0.3386 1.3063 0.2362, -0.3386 1.1417 0.2362, -0.3386 1.3063 0.315, -0.3386 1.1417 0.315, -0.1614 1.3404 0.2165, -0.1614 1.4086 0.2559, -0.1614 1.3356 0.2232, -0.1614 1.3941 0.2759, -0.1614 1.3295 0.2287, -0.1614 1.3758 0.2924, -0.1614 1.3224 0.2328, -0.1614 1.3544 0.3047, -0.1614 1.3145 0.2354, -0.1614 1.3309 0.3124, -0.3386 1.3145 0.2354, -0.3386 1.3224 0.2328, -0.3386 1.3295 0.2287, -0.3386 1.3356 0.2232, -0.3386 1.3404 0.2165, -0.3386 1.3309 0.3124, -0.3386 1.3544 0.3047, -0.3386 1.3758 0.2924, -0.3386 1.3941 0.2759, -0.3386 1.4086 0.2559, -0.8386 1.6614 0.0, -0.8386 1.6614 0.0787, -0.6614 1.6614 0.0, -0.6614 1.6614 0.0787, -0.6614 1.4655 0.0, -0.6614 1.5109 0.0787, -0.8386 1.4655 0.0, -0.8386 1.5109 0.0787, -0.6614 1.3063 0.315, -0.6614 1.1417 0.315, -0.6614 1.3063 0.2362, -0.6614 1.1417 0.2362, -0.8386 1.3063 0.2362, -0.8386 1.1417 0.2362, -0.8386 1.3063 0.315, -0.8386 1.1417 0.315, -0.6614 1.3404 0.2165, -0.6614 1.4086 0.2559, -0.6614 1.3356 0.2232, -0.6614 1.3941 0.2759, -0.6614 1.3295 0.2287, -0.6614 1.3758 0.2924, -0.6614 1.3224 0.2328, -0.6614 1.3544 0.3047, -0.6614 1.3145 0.2354, -0.6614 1.3309 0.3124, -0.8386 1.3145 0.2354, -0.8386 1.3224 0.2328, -0.8386 1.3295 0.2287, -0.8386 1.3356 0.2232, -0.8386 1.3404 0.2165, -0.8386 1.3309 0.3124, -0.8386 1.3544 0.3047, -0.8386 1.3758 0.2924, -0.8386 1.3941 0.2759, -0.8386 1.4086 0.2559, 0.6614 1.6614 0.0, 0.6614 1.6614 0.0787, 0.8386 1.6614 0.0, 0.8386 1.6614 0.0787, 0.8386 1.4655 0.0, 0.8386 1.5109 0.0787, 0.6614 1.4655 0.0, 0.6614 1.5109 0.0787, 0.8386 1.3063 0.315, 0.8386 1.1417 0.315, 0.8386 1.3063 0.2362, 0.8386 1.1417 0.2362, 0.6614 1.3063 0.2362, 0.6614 1.1417 0.2362, 0.6614 1.3063 0.315, 0.6614 1.1417 0.315, 0.8386 1.3404 0.2165, 0.8386 1.4086 0.2559, 0.8386 1.3356 0.2232, 0.8386 1.3941 0.2759, 0.8386 1.3295 0.2287, 0.8386 1.3758 0.2924, 0.8386 1.3224 0.2328, 0.8386 1.3544 0.3047, 0.8386 1.3145 0.2354, 0.8386 1.3309 0.3124, 0.6614 1.3145 0.2354, 0.6614 1.3224 0.2328, 0.6614 1.3295 0.2287, 0.6614 1.3356 0.2232, 0.6614 1.3404 0.2165, 0.6614 1.3309 0.3124, 0.6614 1.3544 0.3047, 0.6614 1.3758 0.2924, 0.6614 1.3941 0.2759, 0.6614 1.4086 0.2559, 0.6614 1.4086 0.2559
            ]
        }
        coordIndex [
            0,1,2,-1,2,1,3,-1,1,0,4,-1,4,0,5,-1,3,1,6,-1,6,1,4,-1,2,3,7,-1,7,3,6,-1,0,2,5,-1,5,2,7,-1,8,9,10,-1,10,9,11,-1,10,11,12,-1,12,11,13,-1,12,13,14,-1,14,13,15,-1,15,9,14,-1,14,9,8,-1,16,17,18,-1,8,10,19,-1,19,10,20,-1,19,20,21,-1,21,20,22,-1,21,22,23,-1,23,22,16,-1,23,16,24,-1,24,16,18,-1,10,12,20,-1,20,12,25,-1,20,25,22,-1,22,25,26,-1,22,26,16,-1,16,26,27,-1,16,27,17,-1,17,27,28,-1,12,14,25,-1,25,14,29,-1,25,29,26,-1,30,28,31,-1,31,28,27,-1,31,27,32,-1,32,27,26,-1,32,26,33,-1,33,26,29,-1,18,30,31,-1,18,31,24,-1,24,31,32,-1,24,32,23,-1,23,32,33,-1,23,33,21,-1,21,33,29,-1,21,29,19,-1,19,29,14,-1,19,14,8,-1,5,18,4,-1,4,18,17,-1,4,17,6,-1,6,17,28,-1,6,28,7,-1,7,28,30,-1,7,30,5,-1,5,30,18,-1,34,35,36,-1,36,35,37,-1,35,34,38,-1,38,34,39,-1,37,35,40,-1,40,35,38,-1,36,37,41,-1,41,37,40,-1,34,36,39,-1,39,36,41,-1,42,43,44,-1,44,43,45,-1,44,45,46,-1,46,45,47,-1,46,47,48,-1,48,47,49,-1,49,43,48,-1,48,43,42,-1,50,51,52,-1,42,44,53,-1,53,44,54,-1,53,54,55,-1,55,54,56,-1,55,56,57,-1,57,56,50,-1,57,50,58,-1,58,50,52,-1,44,46,54,-1,54,46,59,-1,54,59,56,-1,56,59,60,-1,56,60,50,-1,50,60,61,-1,50,61,51,-1,51,61,62,-1,46,48,59,-1,59,48,63,-1,59,63,60,-1,64,62,65,-1,65,62,61,-1,65,61,66,-1,66,61,60,-1,66,60,67,-1,67,60,63,-1,52,64,65,-1,52,65,58,-1,58,65,66,-1,58,66,57,-1,57,66,67,-1,57,67,55,-1,55,67,63,-1,55,63,53,-1,53,63,48,-1,53,48,42,-1,39,52,38,-1,38,52,51,-1,38,51,40,-1,40,51,62,-1,40,62,41,-1,41,62,64,-1,41,64,39,-1,39,64,52,-1,68,69,70,-1,70,69,71,-1,69,68,72,-1,72,68,73,-1,71,69,74,-1,74,69,72,-1,70,71,75,-1,75,71,74,-1,68,70,73,-1,73,70,75,-1,76,77,78,-1,78,77,79,-1,78,79,80,-1,80,79,81,-1,80,81,82,-1,82,81,83,-1,83,77,82,-1,82,77,76,-1,84,85,86,-1,76,78,87,-1,87,78,88,-1,87,88,89,-1,89,88,90,-1,89,90,91,-1,91,90,84,-1,91,84,92,-1,92,84,86,-1,78,80,88,-1,88,80,93,-1,88,93,90,-1,90,93,94,-1,90,94,84,-1,84,94,95,-1,84,95,85,-1,85,95,96,-1,80,82,93,-1,93,82,97,-1,93,97,94,-1,98,96,99,-1,99,96,95,-1,99,95,100,-1,100,95,94,-1,100,94,101,-1,101,94,97,-1,86,98,99,-1,86,99,92,-1,92,99,100,-1,92,100,91,-1,91,100,101,-1,91,101,89,-1,89,101,97,-1,89,97,87,-1,87,97,82,-1,87,82,76,-1,73,86,72,-1,72,86,85,-1,72,85,74,-1,74,85,96,-1,74,96,75,-1,75,96,98,-1,75,98,73,-1,73,98,86,-1,102,103,104,-1,104,103,105,-1,103,102,106,-1,106,102,107,-1,105,103,108,-1,108,103,106,-1,104,105,109,-1,109,105,108,-1,102,104,107,-1,107,104,109,-1,110,111,112,-1,112,111,113,-1,112,113,114,-1,114,113,115,-1,114,115,116,-1,116,115,117,-1,117,111,116,-1,116,111,110,-1,118,119,120,-1,110,112,121,-1,121,112,122,-1,121,122,123,-1,123,122,124,-1,123,124,125,-1,125,124,118,-1,125,118,126,-1,126,118,120,-1,112,114,122,-1,122,114,127,-1,122,127,124,-1,124,127,128,-1,124,128,118,-1,118,128,129,-1,118,129,119,-1,119,129,130,-1,114,116,127,-1,127,116,131,-1,127,131,128,-1,132,130,133,-1,133,130,129,-1,133,129,134,-1,134,129,128,-1,134,128,135,-1,135,128,131,-1,120,132,133,-1,120,133,126,-1,126,133,134,-1,126,134,125,-1,125,134,135,-1,125,135,123,-1,123,135,131,-1,123,131,121,-1,121,131,116,-1,121,116,110,-1,107,120,106,-1,106,120,119,-1,106,119,108,-1,108,119,130,-1,108,130,109,-1,109,130,132,-1,109,132,107,-1,107,132,120,-1,136,137,138,-1,138,137,139,-1,138,139,140,-1,140,139,141,-1,136,138,142,-1,142,138,140,-1,137,136,143,-1,143,136,142,-1,139,137,141,-1,141,137,143,-1,144,145,146,-1,146,145,147,-1,146,147,148,-1,148,147,149,-1,148,149,150,-1,150,149,151,-1,151,145,150,-1,150,145,144,-1,152,153,154,-1,154,153,155,-1,154,155,156,-1,156,155,157,-1,156,157,158,-1,158,157,159,-1,158,159,160,-1,160,159,161,-1,160,161,146,-1,146,161,144,-1,146,148,160,-1,160,148,162,-1,160,162,158,-1,158,162,163,-1,158,163,156,-1,156,163,164,-1,156,164,154,-1,154,164,165,-1,154,165,152,-1,152,165,166,-1,148,150,162,-1,162,150,167,-1,162,167,163,-1,163,167,168,-1,163,168,164,-1,164,168,169,-1,164,169,165,-1,165,169,170,-1,165,170,166,-1,166,170,171,-1,153,171,170,-1,153,170,155,-1,155,170,169,-1,155,169,157,-1,157,169,168,-1,157,168,159,-1,159,168,167,-1,159,167,161,-1,161,167,150,-1,161,150,144,-1,141,153,140,-1,140,153,152,-1,140,152,142,-1,142,152,166,-1,142,166,143,-1,143,166,171,-1,143,171,141,-1,141,171,153,-1,172,173,174,-1,174,173,175,-1,174,175,176,-1,176,175,177,-1,172,174,178,-1,178,174,176,-1,173,172,179,-1,179,172,178,-1,175,173,177,-1,177,173,179,-1,180,181,182,-1,182,181,183,-1,182,183,184,-1,184,183,185,-1,184,185,186,-1,186,185,187,-1,187,181,186,-1,186,181,180,-1,188,189,190,-1,190,189,191,-1,190,191,192,-1,192,191,193,-1,192,193,194,-1,194,193,195,-1,194,195,196,-1,196,195,197,-1,196,197,182,-1,182,197,180,-1,182,184,196,-1,196,184,198,-1,196,198,194,-1,194,198,199,-1,194,199,192,-1,192,199,200,-1,192,200,190,-1,190,200,201,-1,190,201,188,-1,188,201,202,-1,184,186,198,-1,198,186,203,-1,198,203,199,-1,199,203,204,-1,199,204,200,-1,200,204,205,-1,200,205,201,-1,201,205,206,-1,201,206,202,-1,202,206,207,-1,189,207,206,-1,189,206,191,-1,191,206,205,-1,191,205,193,-1,193,205,204,-1,193,204,195,-1,195,204,203,-1,195,203,197,-1,197,203,186,-1,197,186,180,-1,177,189,176,-1,176,189,188,-1,176,188,178,-1,178,188,202,-1,178,202,179,-1,179,202,207,-1,179,207,177,-1,177,207,189,-1,208,209,210,-1,210,209,211,-1,210,211,212,-1,212,211,213,-1,208,210,214,-1,214,210,212,-1,209,208,215,-1,215,208,214,-1,211,209,213,-1,213,209,215,-1,216,217,218,-1,218,217,219,-1,218,219,220,-1,220,219,221,-1,220,221,222,-1,222,221,223,-1,223,217,222,-1,222,217,216,-1,224,225,226,-1,226,225,227,-1,226,227,228,-1,228,227,229,-1,228,229,230,-1,230,229,231,-1,230,231,232,-1,232,231,233,-1,232,233,218,-1,218,233,216,-1,218,220,232,-1,232,220,234,-1,232,234,230,-1,230,234,235,-1,230,235,228,-1,228,235,236,-1,228,236,226,-1,226,236,237,-1,226,237,224,-1,224,237,238,-1,220,222,234,-1,234,222,239,-1,234,239,235,-1,235,239,240,-1,235,240,236,-1,236,240,241,-1,236,241,237,-1,237,241,242,-1,237,242,238,-1,238,242,243,-1,225,243,242,-1,225,242,227,-1,227,242,241,-1,227,241,229,-1,229,241,240,-1,229,240,231,-1,231,240,239,-1,231,239,233,-1,233,239,222,-1,233,222,216,-1,213,225,212,-1,212,225,224,-1,212,224,214,-1,214,224,238,-1,214,238,215,-1,215,238,243,-1,215,243,213,-1,213,243,225,-1,244,245,246,-1,246,245,247,-1,246,247,248,-1,248,247,249,-1,244,246,250,-1,250,246,248,-1,245,244,251,-1,251,244,250,-1,247,245,249,-1,249,245,251,-1,252,253,254,-1,254,253,255,-1,254,255,256,-1,256,255,257,-1,256,257,258,-1,258,257,259,-1,259,253,258,-1,258,253,252,-1,260,261,262,-1,262,261,263,-1,262,263,264,-1,264,263,265,-1,264,265,266,-1,266,265,267,-1,266,267,268,-1,268,267,269,-1,268,269,254,-1,254,269,252,-1,254,256,268,-1,268,256,270,-1,268,270,266,-1,266,270,271,-1,266,271,264,-1,264,271,272,-1,264,272,262,-1,262,272,273,-1,262,273,260,-1,260,273,274,-1,256,258,270,-1,270,258,275,-1,270,275,271,-1,271,275,276,-1,271,276,272,-1,272,276,277,-1,272,277,273,-1,273,277,278,-1,273,278,274,-1,274,278,279,-1,261,279,278,-1,261,278,263,-1,263,278,277,-1,263,277,265,-1,265,277,276,-1,265,276,267,-1,267,276,275,-1,267,275,269,-1,269,275,258,-1,269,258,252,-1,249,261,248,-1,248,261,260,-1,248,260,250,-1,250,260,274,-1,250,274,251,-1,251,274,279,-1,251,279,249,-1,249,279,261,-1,
        ]
    }
}
Shape{
    appearance Appearance {
        material  Material 	{
            diffuseColor 1.0 1.0 1.0
            specularColor 0.8784313725490196 0.8784313725490196 0.8784313725490196
            ambientIntensity 0.2
            transparency 0
            shininess 0.5
        }
    }
    geometry IndexedFaceSet {
        ccw TRUE
        solid FALSE
        coord DEF co Coordinate {
            point [
                -0.1767 0.0461 0.0433, -0.1728 0.0331 0.0433, -0.2162 0.0461 0.0433, -0.2216 0.0331 0.0433, -0.1944 0.0954 0.0433, -0.1889 0.1181 0.0433, -0.1442 0.0 0.0433, -0.1615 0.0 0.0433, -0.1955 0.0995 0.0433, -0.1963 0.1037 0.0433, -0.2047 0.1181 0.0433, -0.1966 0.1037 0.0433, -0.1974 0.0995 0.0433, -0.1985 0.0954 0.0433, -0.2508 0.0 0.0433, -0.2335 0.0 0.0433, -0.2216 0.0331 0.0394, -0.2335 0.0 0.0394, -0.1728 0.0331 0.0394, -0.1615 0.0 0.0394, -0.1442 0.0 0.0394, -0.1889 0.1181 0.0394, -0.2047 0.1181 0.0394, -0.2508 0.0 0.0394, -0.1985 0.0954 0.0394, -0.1974 0.0995 0.0394, -0.1966 0.1037 0.0394, -0.1963 0.1037 0.0394, -0.1955 0.0995 0.0394, -0.1944 0.0954 0.0394, -0.1767 0.0461 0.0394, -0.2162 0.0461 0.0394, -0.0738 0.1181 0.0433, -0.0738 0.1181 0.0394, -0.0405 0.1181 0.0433, -0.0405 0.1181 0.0394, -0.0909 0.1163 0.0433, -0.0909 0.1163 0.0394, -0.1047 0.1114 0.0433, -0.1047 0.1114 0.0394, -0.1176 0.1028 0.0433, -0.1176 0.1028 0.0394, -0.1177 0.1027 0.0433, -0.1177 0.1027 0.0394, -0.126 0.0934 0.0433, -0.126 0.0934 0.0394, -0.1315 0.0833 0.0433, -0.1315 0.0833 0.0394, -0.1347 0.0717 0.0433, -0.1347 0.0717 0.0394, -0.1356 0.0605 0.0433, -0.1356 0.0605 0.0394, -0.1339 0.0447 0.0433, -0.1339 0.0447 0.0394, -0.1297 0.0324 0.0433, -0.1297 0.0324 0.0394, -0.1229 0.0218 0.0433, -0.1229 0.0218 0.0394, -0.1132 0.0125 0.0433, -0.1132 0.0125 0.0394, -0.1008 0.0053 0.0433, -0.1008 0.0053 0.0394, -0.0872 0.0013 0.0433, -0.0872 0.0013 0.0394, -0.0726 0.0 0.0433, -0.0726 0.0 0.0394, -0.0405 0.0 0.0433, -0.0405 0.0 0.0394, -0.1119 0.0886 0.0433, -0.1061 0.0947 0.0433, -0.0975 0.1002 0.0433, -0.0877 0.1037 0.0433, -0.0738 0.1051 0.0433, -0.0563 0.1051 0.0433, -0.0563 0.013 0.0433, -0.0731 0.013 0.0433, -0.0856 0.0141 0.0433, -0.0955 0.0172 0.0433, -0.1036 0.022 0.0433, -0.1102 0.0286 0.0433, -0.1152 0.0367 0.0433, -0.1186 0.0478 0.0433, -0.1197 0.0602 0.0433, -0.1187 0.072 0.0433, -0.116 0.0813 0.0433, -0.0731 0.013 0.0394, -0.0563 0.013 0.0394, -0.0856 0.0141 0.0394, -0.0955 0.0172 0.0394, -0.1036 0.022 0.0394, -0.1102 0.0286 0.0394, -0.1152 0.0367 0.0394, -0.1186 0.0478 0.0394, -0.1197 0.0602 0.0394, -0.1187 0.072 0.0394, -0.116 0.0813 0.0394, -0.1119 0.0886 0.0394, -0.1061 0.0947 0.0394, -0.0975 0.1002 0.0394, -0.0877 0.1037 0.0394, -0.0738 0.1051 0.0394, -0.0563 0.1051 0.0394, 0.0459 0.1181 0.0433, 0.0459 0.1181 0.0394, 0.0459 0.0 0.0433, 0.0459 0.0 0.0394, -0.0146 0.1181 0.0433, -0.0146 0.1181 0.0394, -0.0146 0.1051 0.0433, -0.0146 0.1051 0.0394, 0.0301 0.1051 0.0433, 0.0301 0.1051 0.0394, 0.0301 0.0663 0.0433, 0.0301 0.0663 0.0394, -0.0117 0.0663 0.0433, -0.0117 0.0663 0.0394, -0.0117 0.0533 0.0433, -0.0117 0.0533 0.0394, 0.0301 0.0533 0.0433, 0.0301 0.0533 0.0394, 0.0301 0.013 0.0433, 0.0301 0.013 0.0394, -0.0175 0.013 0.0433, -0.0175 0.013 0.0394, -0.0175 0.0 0.0433, -0.0175 0.0 0.0394, 0.1084 -0.0007 0.0394, 0.1015 -0.0014 0.0394, 0.1015 -0.0014 0.0433, 0.116 0.0001 0.0394, 0.116 0.0001 0.0433, 0.1275 0.004 0.0433, 0.1275 0.004 0.0394, 0.137 0.0101 0.0433, 0.137 0.0101 0.0394, 0.1458 0.0194 0.0433, 0.1458 0.0194 0.0394, 0.1521 0.0306 0.0433, 0.1521 0.0306 0.0394, 0.1557 0.0431 0.0433, 0.1557 0.0431 0.0394, 0.1568 0.0568 0.0433, 0.1568 0.0568 0.0394, 0.1551 0.0736 0.0433, 0.1551 0.0736 0.0394, 0.1506 0.087 0.0433, 0.1506 0.087 0.0394, 0.1437 0.098 0.0433, 0.1437 0.098 0.0394, 0.133 0.1083 0.0433, 0.133 0.1083 0.0394, 0.1218 0.1148 0.0433, 0.1218 0.1148 0.0394, 0.1086 0.1186 0.0433, 0.1086 0.1186 0.0394, 0.0968 0.1196 0.0433, 0.0968 0.1196 0.0394, 0.0826 0.1186 0.0433, 0.0826 0.1186 0.0394, 0.069 0.1149 0.0433, 0.069 0.1149 0.0394, 0.069 0.099 0.0433, 0.069 0.099 0.0394, 0.0823 0.1047 0.0433, 0.0823 0.1047 0.0394, 0.0966 0.1066 0.0433, 0.0966 0.1066 0.0394, 0.1083 0.1053 0.0433, 0.1083 0.1053 0.0394, 0.1171 0.1021 0.0433, 0.1171 0.1021 0.0394, 0.1253 0.0966 0.0433, 0.1253 0.0966 0.0394, 0.1324 0.0887 0.0433, 0.1324 0.0887 0.0394, 0.1373 0.0796 0.0433, 0.1373 0.0796 0.0394, 0.1404 0.067 0.0433, 0.1404 0.067 0.0394, 0.141 0.0578 0.0433, 0.141 0.0578 0.0394, 0.1398 0.045 0.0433, 0.1398 0.045 0.0394, 0.1366 0.0348 0.0433, 0.1366 0.0348 0.0394, 0.1317 0.0267 0.0433, 0.1317 0.0267 0.0394, 0.1262 0.0208 0.0433, 0.1262 0.0208 0.0394, 0.1189 0.0159 0.0433, 0.1189 0.0159 0.0394, 0.1103 0.0128 0.0433, 0.1103 0.0128 0.0394, 0.0993 0.0115 0.0433, 0.0993 0.0115 0.0394, 0.0836 0.0133 0.0433, 0.0836 0.0133 0.0394, 0.0711 0.0179 0.0433, 0.0711 0.0179 0.0394, 0.069 0.0191 0.0433, 0.069 0.0191 0.0394, 0.069 0.0061 0.0433, 0.069 0.0061 0.0394, 0.0816 0.001 0.0394, 0.0816 0.001 0.0433, 0.0935 -0.0007 0.0394, 0.0982 -0.0014 0.0433, 0.0982 -0.0014 0.0394, 0.2274 0.1181 0.0433, 0.2274 0.1181 0.0394, 0.2274 0.0 0.0433, 0.2274 0.0 0.0394, 0.2116 0.1181 0.0433, 0.2116 0.1181 0.0394, 0.2116 0.013 0.0433, 0.2116 0.013 0.0394, 0.1669 0.013 0.0433, 0.1669 0.013 0.0394, 0.1669 0.0 0.0433, 0.1669 0.0 0.0394, 0.1669 0.0 0.0394
            ]
        }
        coordIndex [
            0,1,2,-1,2,1,3,-1,4,5,0,-1,0,5,6,-1,0,6,1,-1,1,6,7,-1,4,8,5,-1,5,8,9,-1,5,9,10,-1,10,9,11,-1,10,11,12,-1,12,13,10,-1,10,13,2,-1,10,2,14,-1,14,2,3,-1,14,3,15,-1,3,16,15,-1,15,16,17,-1,1,18,3,-1,3,18,16,-1,7,19,1,-1,1,19,18,-1,6,20,7,-1,7,20,19,-1,5,21,6,-1,6,21,20,-1,10,22,5,-1,5,22,21,-1,14,23,10,-1,10,23,22,-1,14,15,23,-1,23,15,17,-1,24,13,12,-1,24,12,25,-1,25,12,11,-1,25,11,26,-1,9,27,11,-1,11,27,26,-1,27,9,8,-1,27,8,28,-1,28,8,4,-1,28,4,29,-1,0,30,4,-1,4,30,29,-1,2,31,0,-1,0,31,30,-1,24,31,13,-1,13,31,2,-1,32,33,34,-1,34,33,35,-1,33,32,36,-1,33,36,37,-1,37,36,38,-1,37,38,39,-1,39,38,40,-1,39,40,41,-1,41,40,42,-1,41,42,43,-1,43,42,44,-1,43,44,45,-1,45,44,46,-1,45,46,47,-1,47,46,48,-1,47,48,49,-1,49,48,50,-1,49,50,51,-1,51,50,52,-1,51,52,53,-1,53,52,54,-1,53,54,55,-1,55,54,56,-1,55,56,57,-1,57,56,58,-1,57,58,59,-1,59,58,60,-1,59,60,61,-1,61,60,62,-1,61,62,63,-1,63,62,64,-1,63,64,65,-1,66,67,64,-1,64,67,65,-1,66,34,67,-1,67,34,35,-1,46,44,68,-1,68,44,42,-1,68,42,69,-1,69,42,40,-1,69,40,70,-1,70,40,38,-1,70,38,71,-1,71,38,36,-1,71,36,72,-1,72,36,32,-1,72,32,73,-1,73,32,34,-1,73,34,74,-1,74,34,66,-1,74,66,75,-1,75,66,64,-1,75,64,76,-1,76,64,62,-1,76,62,77,-1,77,62,60,-1,77,60,78,-1,78,60,58,-1,78,58,79,-1,79,58,56,-1,79,56,80,-1,80,56,54,-1,80,54,81,-1,81,54,52,-1,81,52,82,-1,82,52,50,-1,82,50,83,-1,83,50,48,-1,83,48,84,-1,84,48,46,-1,84,46,68,-1,75,85,74,-1,74,85,86,-1,85,75,76,-1,85,76,87,-1,87,76,77,-1,87,77,88,-1,88,77,78,-1,88,78,89,-1,89,78,79,-1,89,79,90,-1,90,79,80,-1,90,80,91,-1,91,80,81,-1,91,81,92,-1,92,81,82,-1,92,82,93,-1,93,82,83,-1,93,83,94,-1,94,83,84,-1,94,84,95,-1,95,84,68,-1,95,68,96,-1,96,68,69,-1,96,69,97,-1,97,69,70,-1,97,70,98,-1,98,70,71,-1,98,71,99,-1,99,71,72,-1,99,72,100,-1,73,101,72,-1,72,101,100,-1,86,101,74,-1,74,101,73,-1,102,103,104,-1,104,103,105,-1,106,107,102,-1,102,107,103,-1,108,109,106,-1,106,109,107,-1,110,111,108,-1,108,111,109,-1,112,113,110,-1,110,113,111,-1,114,115,112,-1,112,115,113,-1,116,117,114,-1,114,117,115,-1,118,119,116,-1,116,119,117,-1,120,121,118,-1,118,121,119,-1,122,123,120,-1,120,123,121,-1,124,125,122,-1,122,125,123,-1,124,104,125,-1,125,104,105,-1,104,124,122,-1,122,120,104,-1,104,120,118,-1,104,118,102,-1,108,106,110,-1,110,106,102,-1,110,102,112,-1,112,102,118,-1,112,118,114,-1,114,118,116,-1,126,127,128,-1,126,128,129,-1,128,130,129,-1,129,130,131,-1,129,131,132,-1,132,131,133,-1,132,133,134,-1,134,133,135,-1,134,135,136,-1,136,135,137,-1,136,137,138,-1,138,137,139,-1,138,139,140,-1,140,139,141,-1,140,141,142,-1,142,141,143,-1,142,143,144,-1,144,143,145,-1,144,145,146,-1,146,145,147,-1,146,147,148,-1,148,147,149,-1,148,149,150,-1,150,149,151,-1,150,151,152,-1,152,151,153,-1,152,153,154,-1,154,153,155,-1,154,155,156,-1,156,155,157,-1,156,157,158,-1,158,157,159,-1,158,159,160,-1,161,162,159,-1,159,162,160,-1,162,161,163,-1,162,163,164,-1,164,163,165,-1,164,165,166,-1,166,165,167,-1,166,167,168,-1,168,167,169,-1,168,169,170,-1,170,169,171,-1,170,171,172,-1,172,171,173,-1,172,173,174,-1,174,173,175,-1,174,175,176,-1,176,175,177,-1,176,177,178,-1,178,177,179,-1,178,179,180,-1,180,179,181,-1,180,181,182,-1,182,181,183,-1,182,183,184,-1,184,183,185,-1,184,185,186,-1,186,185,187,-1,186,187,188,-1,188,187,189,-1,188,189,190,-1,190,189,191,-1,190,191,192,-1,192,191,193,-1,192,193,194,-1,194,193,195,-1,194,195,196,-1,196,195,197,-1,196,197,198,-1,198,197,199,-1,198,199,200,-1,201,202,199,-1,199,202,200,-1,203,202,204,-1,204,202,201,-1,203,204,205,-1,205,204,206,-1,205,206,207,-1,207,206,128,-1,207,128,127,-1,191,128,193,-1,193,128,206,-1,193,206,195,-1,195,206,204,-1,195,204,197,-1,197,204,201,-1,197,201,199,-1,161,159,163,-1,163,159,157,-1,163,157,165,-1,165,157,155,-1,165,155,167,-1,167,155,153,-1,167,153,169,-1,169,153,151,-1,169,151,171,-1,171,151,149,-1,171,149,173,-1,173,149,147,-1,173,147,175,-1,175,147,145,-1,175,145,177,-1,177,145,143,-1,177,143,179,-1,179,143,141,-1,179,141,181,-1,181,141,139,-1,181,139,183,-1,183,139,137,-1,183,137,185,-1,185,137,135,-1,185,135,187,-1,187,135,133,-1,187,133,189,-1,189,133,131,-1,189,131,191,-1,191,131,130,-1,191,130,128,-1,208,209,210,-1,210,209,211,-1,212,213,208,-1,208,213,209,-1,214,215,212,-1,212,215,213,-1,216,217,214,-1,214,217,215,-1,218,219,216,-1,216,219,217,-1,218,210,219,-1,219,210,211,-1,212,208,214,-1,214,208,210,-1,214,210,216,-1,216,210,218,-1,
        ]
    }
}
Shape{
    appearance Appearance {
        material  Material 	{
            diffuseColor 0.10980392156862745 0.10980392156862745 0.10980392156862745
            specularColor 0.0784313725490196 0.0784313725490196 0.0784313725490196
            ambientIntensity 0.2
            transparency 0
            shininess 0.5
        }
    }
    geometry IndexedFaceSet {
        ccw TRUE
        solid FALSE
        coord DEF co Coordinate {
            point [
                -0.1767 0.0461 0.0394, -0.2162 0.0461 0.0394, -0.1944 0.0954 0.0394, -0.1985 0.0954 0.0394, -0.1955 0.0995 0.0394, -0.1974 0.0995 0.0394, -0.1963 0.1037 0.0394, -0.1966 0.1037 0.0394, -0.0563 0.1051 0.0394, -0.0563 0.013 0.0394, -0.0738 0.1051 0.0394, -0.0731 0.013 0.0394, -0.0856 0.0141 0.0394, -0.1197 0.0602 0.0394, -0.1187 0.072 0.0394, -0.116 0.0813 0.0394, -0.0877 0.1037 0.0394, -0.0955 0.0172 0.0394, -0.1036 0.022 0.0394, -0.1102 0.0286 0.0394, -0.1152 0.0367 0.0394, -0.1186 0.0478 0.0394, -0.1119 0.0886 0.0394, -0.1061 0.0947 0.0394, -0.0975 0.1002 0.0394, -0.0975 0.1002 0.0394
            ]
        }
        coordIndex [
            0,1,2,-1,2,1,3,-1,2,3,4,-1,4,3,5,-1,4,5,6,-1,6,5,7,-1,8,9,10,-1,10,9,11,-1,10,11,12,-1,13,14,10,-1,10,14,15,-1,10,15,16,-1,12,17,10,-1,10,17,18,-1,10,18,19,-1,19,20,10,-1,10,20,21,-1,10,21,13,-1,22,23,15,-1,15,23,24,-1,15,24,16,-1,
        ]
    }
}