#VRML V2.0 utf8
# 3D model generated by easyeda2kicad.py (https://github.com/uPesy/easyeda2kicad.py)

Shape{
    appearance Appearance {
        material  Material 	{
            diffuseColor 0.43137254901960786 0.35294117647058826 0.37254901960784315
            specularColor 0.30196078431372547 0.24705882352941178 0.25882352941176473
            ambientIntensity 0.2
            transparency 0
            shininess 0.5
        }
    }
    geometry IndexedFaceSet {
        ccw TRUE
        solid FALSE
        coord DEF co Coordinate {
            point [
                -1.1417 0.2244 0.7559, -1.1417 0.2244 0.5591, -1.0709 0.2244 0.7559, -1.0709 0.2244 0.5591, -1.1417 -0.6063 0.7559, -1.0709 -0.6063 0.7559, -1.1417 -0.6063 1.5276, -1.0709 -0.6063 1.5276, -1.1417 0.2244 1.5276, -1.0709 0.2244 1.5276, -1.1417 0.2244 1.7244, -1.0709 0.2244 1.7244, -1.1417 0.9173 1.7244, -1.0709 0.9173 1.7244, -1.1417 0.9173 0.5591, -1.0709 0.9173 0.5591, 1.1417 0.9173 0.5591, 1.1417 0.2244 0.5591, 1.0709 0.9173 0.5591, 1.0709 0.2244 0.5591, 1.1417 0.9173 1.7244, 1.0709 0.9173 1.7244, 1.1417 0.2244 1.7244, 1.0709 0.2244 1.7244, 1.1417 0.2244 1.5276, 1.0709 0.2244 1.5276, 1.1417 -0.6063 1.5276, 1.0709 -0.6063 1.5276, 1.1417 -0.6063 0.7559, 1.0709 -0.6063 0.7559, 1.1417 0.2244 0.7559, 1.0709 0.2244 0.7559, 1.063 -0.6102 2.2835, -1.063 -0.6102 2.2835, 1.063 -0.9252 2.2835, -1.063 -0.9252 2.2835, -1.1417 -0.9252 0.0787, -1.1417 -0.9252 2.2047, -1.1417 -0.6102 0.0787, -1.1417 -0.6102 2.2047, 1.063 -0.9252 0.0, -1.063 -0.9252 0.0, 1.063 -0.6102 0.0, -1.063 -0.6102 0.0, 1.1417 -0.6102 0.0787, 1.1417 -0.6102 2.2047, 1.1417 -0.9252 0.0787, 1.1417 -0.9252 2.2047, 1.063 -1.0039 2.2047, -1.063 -1.0039 2.2047, 1.063 -1.0039 0.0787, -1.063 -1.0039 0.0787, 1.1024 -0.6102 0.0105, 1.0834 -0.6102 0.0027, 1.1024 -0.6102 2.2729, 1.0834 -0.6102 2.2808, 1.1187 -0.6102 2.2604, 1.1312 -0.6102 2.2441, 1.139 -0.6102 2.2251, 1.139 -0.6102 0.0584, -1.0834 -0.6102 0.0027, -1.1024 -0.6102 0.0105, -1.1187 -0.6102 0.0231, -1.1312 -0.6102 0.0394, -1.139 -0.6102 0.0584, -1.1312 -0.6102 2.2441, -1.1187 -0.6102 2.2604, -1.1024 -0.6102 2.2729, 1.1312 -0.6102 0.0394, 1.1187 -0.6102 0.0231, -1.139 -0.6102 2.2251, -1.0834 -0.6102 2.2808, -1.139 -0.9252 0.0584, -1.1312 -0.9252 0.0394, -1.1187 -0.9252 0.0231, -1.1024 -0.9252 0.0105, -1.0834 -0.9252 0.0027, -1.0834 -1.0013 2.2047, -1.0834 -1.0013 0.0787, -1.1024 -0.9934 2.2047, -1.1024 -0.9934 0.0787, -1.1187 -0.9809 2.2047, -1.1187 -0.9809 0.0787, -1.1312 -0.9646 2.2047, -1.1312 -0.9646 0.0787, -1.139 -0.9456 2.2047, -1.139 -0.9456 0.0787, -1.0834 -0.9252 2.2808, -1.1024 -0.9252 2.2729, -1.1187 -0.9252 2.2604, -1.1312 -0.9252 2.2441, -1.139 -0.9252 2.2251, -1.063 -0.9456 0.0027, -1.0827 -0.9456 0.0053, -1.0827 -0.9934 0.0446, -1.0732 -1.0013 0.0611, -1.0774 -1.0013 0.0643, -1.0827 -1.0013 0.0735, -1.0683 -1.0013 0.0591, -1.0732 -0.9934 0.0407, -1.0774 -0.9809 0.025, -1.063 -1.0013 0.0584, -1.0908 -0.9934 0.0509, -1.0806 -1.0013 0.0686, -1.0971 -0.9934 0.0591, -1.101 -0.9934 0.0686, -1.063 -0.9934 0.0394, -1.063 -0.9809 0.0231, -1.063 -0.9646 0.0105, -1.0908 -0.9809 0.0305, -1.1024 -0.9809 0.0394, -1.1112 -0.9809 0.0509, -1.1168 -0.9809 0.0643, -1.0806 -0.9646 0.0129, -1.0971 -0.9646 0.0197, -1.1112 -0.9646 0.0305, -1.122 -0.9646 0.0446, -1.1289 -0.9646 0.0611, -1.101 -0.9456 0.0129, -1.1168 -0.9456 0.025, -1.1289 -0.9456 0.0407, -1.1365 -0.9456 0.0591, -1.1365 -0.9456 2.2244, -1.0971 -0.9934 2.2244, -1.0806 -1.0013 2.2149, -1.0774 -1.0013 2.2191, -1.063 -1.0013 2.2251, -1.0683 -1.0013 2.2244, -1.0827 -1.0013 2.21, -1.101 -0.9934 2.2149, -1.1168 -0.9809 2.2191, -1.0908 -0.9934 2.2326, -1.0732 -1.0013 2.2224, -1.0827 -0.9934 2.2388, -1.0732 -0.9934 2.2428, -1.063 -0.9934 2.2441, -1.1112 -0.9809 2.2326, -1.1024 -0.9809 2.2441, -1.0908 -0.9809 2.2529, -1.0774 -0.9809 2.2585, -1.063 -0.9809 2.2604, -1.1289 -0.9646 2.2224, -1.122 -0.9646 2.2388, -1.1112 -0.9646 2.2529, -1.0971 -0.9646 2.2638, -1.0806 -0.9646 2.2706, -1.063 -0.9646 2.2729, -1.1289 -0.9456 2.2428, -1.1168 -0.9456 2.2585, -1.101 -0.9456 2.2706, -1.0827 -0.9456 2.2782, -1.063 -0.9456 2.2808, 1.0834 -0.9252 0.0027, 1.1024 -0.9252 0.0105, 1.1187 -0.9252 0.0231, 1.1312 -0.9252 0.0394, 1.139 -0.9252 0.0584, 1.063 -1.0013 0.0584, 1.063 -0.9934 0.0394, 1.063 -0.9809 0.0231, 1.063 -0.9646 0.0105, 1.063 -0.9456 0.0027, 1.063 -1.0013 2.2251, 1.063 -0.9934 2.2441, 1.063 -0.9809 2.2604, 1.063 -0.9646 2.2729, 1.063 -0.9456 2.2808, 1.139 -0.9252 2.2251, 1.1312 -0.9252 2.2441, 1.1187 -0.9252 2.2604, 1.1024 -0.9252 2.2729, 1.0834 -0.9252 2.2808, 1.139 -0.9456 0.0787, 1.1365 -0.9456 0.0591, 1.0971 -0.9934 0.0591, 1.0806 -1.0013 0.0686, 1.0774 -1.0013 0.0643, 1.0683 -1.0013 0.0591, 1.0827 -1.0013 0.0735, 1.101 -0.9934 0.0686, 1.1168 -0.9809 0.0643, 1.0834 -1.0013 0.0787, 1.0908 -0.9934 0.0509, 1.0732 -1.0013 0.0611, 1.0827 -0.9934 0.0446, 1.0732 -0.9934 0.0407, 1.1024 -0.9934 0.0787, 1.1187 -0.9809 0.0787, 1.1312 -0.9646 0.0787, 1.1112 -0.9809 0.0509, 1.1024 -0.9809 0.0394, 1.0908 -0.9809 0.0305, 1.0774 -0.9809 0.025, 1.1289 -0.9646 0.0611, 1.122 -0.9646 0.0446, 1.1112 -0.9646 0.0305, 1.0971 -0.9646 0.0197, 1.0806 -0.9646 0.0129, 1.1289 -0.9456 0.0407, 1.1168 -0.9456 0.025, 1.101 -0.9456 0.0129, 1.0827 -0.9456 0.0053, 1.0827 -0.9456 2.2782, 1.0827 -0.9934 2.2388, 1.0732 -1.0013 2.2224, 1.0774 -1.0013 2.2191, 1.0834 -1.0013 2.2047, 1.0827 -1.0013 2.21, 1.0683 -1.0013 2.2244, 1.0732 -0.9934 2.2428, 1.0774 -0.9809 2.2585, 1.0908 -0.9934 2.2326, 1.0806 -1.0013 2.2149, 1.0971 -0.9934 2.2244, 1.101 -0.9934 2.2149, 1.1024 -0.9934 2.2047, 1.0908 -0.9809 2.2529, 1.1024 -0.9809 2.2441, 1.1112 -0.9809 2.2326, 1.1168 -0.9809 2.2191, 1.1187 -0.9809 2.2047, 1.0806 -0.9646 2.2706, 1.0971 -0.9646 2.2638, 1.1112 -0.9646 2.2529, 1.122 -0.9646 2.2388, 1.1289 -0.9646 2.2224, 1.1312 -0.9646 2.2047, 1.101 -0.9456 2.2706, 1.1168 -0.9456 2.2585, 1.1289 -0.9456 2.2428, 1.1365 -0.9456 2.2244, 1.139 -0.9456 2.2047, 1.139 -0.9456 2.2047
            ]
        }
        coordIndex [
            0,1,2,-1,2,1,3,-1,4,0,5,-1,5,0,2,-1,6,4,7,-1,7,4,5,-1,8,6,9,-1,9,6,7,-1,10,8,11,-1,11,8,9,-1,12,10,13,-1,13,10,11,-1,14,12,15,-1,15,12,13,-1,1,14,3,-1,3,14,15,-1,14,1,12,-1,12,1,0,-1,10,12,8,-1,8,12,0,-1,8,0,6,-1,6,0,4,-1,2,3,15,-1,13,11,9,-1,7,5,9,-1,9,5,2,-1,9,2,13,-1,13,2,15,-1,16,17,18,-1,18,17,19,-1,20,16,21,-1,21,16,18,-1,22,20,23,-1,23,20,21,-1,24,22,25,-1,25,22,23,-1,26,24,27,-1,27,24,25,-1,28,26,29,-1,29,26,27,-1,30,28,31,-1,31,28,29,-1,17,30,19,-1,19,30,31,-1,30,17,16,-1,20,22,24,-1,26,28,24,-1,24,28,30,-1,24,30,20,-1,20,30,16,-1,18,19,21,-1,21,19,31,-1,23,21,25,-1,25,21,31,-1,25,31,27,-1,27,31,29,-1,32,33,34,-1,34,33,35,-1,36,37,38,-1,38,37,39,-1,40,41,42,-1,42,41,43,-1,44,45,46,-1,46,45,47,-1,48,49,50,-1,50,49,51,-1,52,53,42,-1,32,42,33,-1,33,42,38,-1,33,38,39,-1,54,45,55,-1,55,45,32,-1,56,57,54,-1,54,57,58,-1,54,58,45,-1,32,45,42,-1,42,45,44,-1,42,44,59,-1,42,43,38,-1,38,43,60,-1,38,60,61,-1,61,62,38,-1,38,62,63,-1,38,63,64,-1,65,66,67,-1,59,68,42,-1,42,68,69,-1,42,69,52,-1,39,70,33,-1,33,70,65,-1,33,65,71,-1,71,65,67,-1,36,38,64,-1,36,64,72,-1,72,64,63,-1,72,63,73,-1,73,63,62,-1,73,62,74,-1,74,62,61,-1,74,61,75,-1,75,61,60,-1,75,60,76,-1,76,60,43,-1,76,43,41,-1,51,49,77,-1,51,77,78,-1,78,77,79,-1,78,79,80,-1,80,79,81,-1,80,81,82,-1,82,81,83,-1,82,83,84,-1,84,83,85,-1,84,85,86,-1,86,85,37,-1,86,37,36,-1,35,33,71,-1,35,71,87,-1,87,71,67,-1,87,67,88,-1,88,67,66,-1,88,66,89,-1,89,66,65,-1,89,65,90,-1,90,65,70,-1,90,70,91,-1,91,70,39,-1,91,39,37,-1,41,92,93,-1,94,95,96,-1,51,78,97,-1,96,95,51,-1,98,51,95,-1,98,95,99,-1,99,95,94,-1,99,94,100,-1,101,51,98,-1,102,103,104,-1,104,103,97,-1,104,97,105,-1,105,97,78,-1,105,78,80,-1,101,98,106,-1,106,98,99,-1,106,99,107,-1,107,99,100,-1,107,100,108,-1,109,102,110,-1,110,102,104,-1,110,104,111,-1,111,104,105,-1,111,105,112,-1,112,105,80,-1,112,80,82,-1,113,109,114,-1,114,109,110,-1,114,110,115,-1,115,110,111,-1,115,111,116,-1,116,111,112,-1,116,112,117,-1,117,112,82,-1,117,82,84,-1,92,113,93,-1,93,113,114,-1,93,114,118,-1,118,114,115,-1,118,115,119,-1,119,115,116,-1,119,116,120,-1,120,116,117,-1,120,117,121,-1,121,117,84,-1,121,84,86,-1,41,93,76,-1,76,93,118,-1,76,118,75,-1,75,118,119,-1,75,119,74,-1,74,119,120,-1,74,120,73,-1,73,120,121,-1,73,121,72,-1,72,121,86,-1,72,86,36,-1,103,51,97,-1,92,108,113,-1,113,108,100,-1,113,100,109,-1,109,100,94,-1,109,94,102,-1,102,94,96,-1,102,96,103,-1,103,96,51,-1,37,85,122,-1,123,124,125,-1,49,126,127,-1,125,124,49,-1,128,49,124,-1,128,124,129,-1,129,124,123,-1,129,123,130,-1,77,49,128,-1,131,132,133,-1,133,132,127,-1,133,127,134,-1,134,127,126,-1,134,126,135,-1,77,128,79,-1,79,128,129,-1,79,129,81,-1,81,129,130,-1,81,130,83,-1,136,131,137,-1,137,131,133,-1,137,133,138,-1,138,133,134,-1,138,134,139,-1,139,134,135,-1,139,135,140,-1,141,136,142,-1,142,136,137,-1,142,137,143,-1,143,137,138,-1,143,138,144,-1,144,138,139,-1,144,139,145,-1,145,139,140,-1,145,140,146,-1,85,141,122,-1,122,141,142,-1,122,142,147,-1,147,142,143,-1,147,143,148,-1,148,143,144,-1,148,144,149,-1,149,144,145,-1,149,145,150,-1,150,145,146,-1,150,146,151,-1,37,122,91,-1,91,122,147,-1,91,147,90,-1,90,147,148,-1,90,148,89,-1,89,148,149,-1,89,149,88,-1,88,149,150,-1,88,150,87,-1,87,150,151,-1,87,151,35,-1,132,49,127,-1,85,83,141,-1,141,83,130,-1,141,130,136,-1,136,130,123,-1,136,123,131,-1,131,123,125,-1,131,125,132,-1,132,125,49,-1,40,42,53,-1,40,53,152,-1,152,53,52,-1,152,52,153,-1,153,52,69,-1,153,69,154,-1,154,69,68,-1,154,68,155,-1,155,68,59,-1,155,59,156,-1,156,59,44,-1,156,44,46,-1,50,51,101,-1,50,101,157,-1,157,101,106,-1,157,106,158,-1,158,106,107,-1,158,107,159,-1,159,107,108,-1,159,108,160,-1,160,108,92,-1,160,92,161,-1,161,92,41,-1,161,41,40,-1,49,48,162,-1,49,162,126,-1,126,162,163,-1,126,163,135,-1,135,163,164,-1,135,164,140,-1,140,164,165,-1,140,165,146,-1,146,165,166,-1,146,166,151,-1,151,166,34,-1,151,34,35,-1,47,45,58,-1,47,58,167,-1,167,58,57,-1,167,57,168,-1,168,57,56,-1,168,56,169,-1,169,56,54,-1,169,54,170,-1,170,54,55,-1,170,55,171,-1,171,55,32,-1,171,32,34,-1,46,172,173,-1,174,175,176,-1,50,157,177,-1,176,175,50,-1,178,50,175,-1,178,175,179,-1,179,175,174,-1,179,174,180,-1,181,50,178,-1,182,183,184,-1,184,183,177,-1,184,177,185,-1,185,177,157,-1,185,157,158,-1,181,178,186,-1,186,178,179,-1,186,179,187,-1,187,179,180,-1,187,180,188,-1,189,182,190,-1,190,182,184,-1,190,184,191,-1,191,184,185,-1,191,185,192,-1,192,185,158,-1,192,158,159,-1,193,189,194,-1,194,189,190,-1,194,190,195,-1,195,190,191,-1,195,191,196,-1,196,191,192,-1,196,192,197,-1,197,192,159,-1,197,159,160,-1,172,193,173,-1,173,193,194,-1,173,194,198,-1,198,194,195,-1,198,195,199,-1,199,195,196,-1,199,196,200,-1,200,196,197,-1,200,197,201,-1,201,197,160,-1,201,160,161,-1,46,173,156,-1,156,173,198,-1,156,198,155,-1,155,198,199,-1,155,199,154,-1,154,199,200,-1,154,200,153,-1,153,200,201,-1,153,201,152,-1,152,201,161,-1,152,161,40,-1,183,50,177,-1,172,188,193,-1,193,188,180,-1,193,180,189,-1,189,180,174,-1,189,174,182,-1,182,174,176,-1,182,176,183,-1,183,176,50,-1,34,166,202,-1,203,204,205,-1,48,206,207,-1,205,204,48,-1,208,48,204,-1,208,204,209,-1,209,204,203,-1,209,203,210,-1,162,48,208,-1,211,212,213,-1,213,212,207,-1,213,207,214,-1,214,207,206,-1,214,206,215,-1,162,208,163,-1,163,208,209,-1,163,209,164,-1,164,209,210,-1,164,210,165,-1,216,211,217,-1,217,211,213,-1,217,213,218,-1,218,213,214,-1,218,214,219,-1,219,214,215,-1,219,215,220,-1,221,216,222,-1,222,216,217,-1,222,217,223,-1,223,217,218,-1,223,218,224,-1,224,218,219,-1,224,219,225,-1,225,219,220,-1,225,220,226,-1,166,221,202,-1,202,221,222,-1,202,222,227,-1,227,222,223,-1,227,223,228,-1,228,223,224,-1,228,224,229,-1,229,224,225,-1,229,225,230,-1,230,225,226,-1,230,226,231,-1,34,202,171,-1,171,202,227,-1,171,227,170,-1,170,227,228,-1,170,228,169,-1,169,228,229,-1,169,229,168,-1,168,229,230,-1,168,230,167,-1,167,230,231,-1,167,231,47,-1,212,48,207,-1,166,165,221,-1,221,165,210,-1,221,210,216,-1,216,210,203,-1,216,203,211,-1,211,203,205,-1,211,205,212,-1,212,205,48,-1,48,50,181,-1,48,181,206,-1,206,181,186,-1,206,186,215,-1,215,186,187,-1,215,187,220,-1,220,187,188,-1,220,188,226,-1,226,188,172,-1,226,172,231,-1,231,172,46,-1,231,46,47,-1,
        ]
    }
}
Shape{
    appearance Appearance {
        material  Material 	{
            diffuseColor 1.0 1.0 1.0
            specularColor 0.30196078431372547 0.30196078431372547 0.30196078431372547
            ambientIntensity 0.2
            transparency 0
            shininess 0.5
        }
    }
    geometry IndexedFaceSet {
        ccw TRUE
        solid FALSE
        coord DEF co Coordinate {
            point [
                -0.4921 -2.9331 1.5354, -0.4921 -2.5787 1.5354, -0.4921 -2.9331 0.748, -0.4921 -2.5787 0.748, 0.4921 -2.185 0.748, 0.4921 -1.9094 0.748, 0.4921 -2.185 1.5354, 0.4921 -1.9094 1.5354, -0.6299 -1.9094 0.748, -0.7087 -1.9094 0.748, -0.7087 -1.9094 0.5512, 0.7087 -1.9094 1.7323, -0.7087 -1.9094 1.7323, -0.6299 -1.9094 1.5354, -0.7087 -1.9094 1.5354, -0.4921 -1.9094 0.748, 0.7087 -1.9094 0.5512, -0.4921 -1.9094 1.5354, -0.7087 -1.0039 1.5354, -0.7087 -1.0039 1.7323, -0.7087 -1.0039 0.748, -0.7087 -1.0039 0.5512, 0.7087 -1.0039 0.5512, 0.7087 -1.0039 1.7323, -0.6299 -1.0039 0.748, -0.6299 -1.0039 1.5354, -0.4921 -2.185 1.5354, -0.4921 -2.185 0.748, -0.3937 -2.185 0.748, 0.4921 -2.9331 0.748, -0.3937 -2.5787 0.748, 0.3937 -2.185 0.748, 0.4921 -2.5787 0.748, 0.3937 -2.5787 0.748, 0.4921 -2.9331 1.5354, 0.4921 -2.5787 1.5354, 0.3937 -2.185 1.5354, 0.3937 -2.5787 1.5354, -0.3937 -2.185 1.5354, -0.3937 -2.5787 1.5354, -0.4528 -2.9724 1.4961, -0.4528 -2.9724 0.7874, 0.4528 -2.9724 1.4961, 0.4528 -2.9724 0.7874, -0.4629 -2.9711 0.7772, 0.4629 -2.9711 0.7772, -0.4724 -2.9672 0.7677, 0.4724 -2.9672 0.7677, -0.4806 -2.9609 0.7596, 0.4806 -2.9609 0.7596, 0.484 -2.957 0.7562, -0.484 -2.957 0.7562, -0.4869 -2.9528 0.7533, -0.4918 -2.9382 0.7484, 0.4918 -2.9382 0.7484, -0.4908 -2.9433 0.7494, 0.4908 -2.9433 0.7494, -0.4891 -2.9481 0.751, 0.4891 -2.9481 0.751, 0.4869 -2.9528 0.7533, 0.4615 -2.9713 1.5048, 0.4629 -2.9711 1.5063, 0.4697 -2.9683 1.513, 0.4724 -2.9672 1.5157, 0.4771 -2.9636 1.5204, 0.4806 -2.9609 1.5239, 0.4835 -2.9576 1.5268, 0.4867 -2.9526 1.53, 0.4882 -2.9502 1.5315, 0.4908 -2.9433 1.5341, 0.4919 -2.9375 1.5352, 0.4911 -2.9418 1.5344, -0.4908 -2.9433 1.5341, -0.4911 -2.9418 1.5344, -0.4919 -2.9375 1.5352, -0.4882 -2.9502 1.5315, -0.4867 -2.9526 1.53, -0.4723 -2.967 1.5156, -0.4773 -2.9639 1.5206, -0.4804 -2.9607 1.5237, -0.4835 -2.9576 1.5268, -0.4615 -2.9715 1.5048, -0.4629 -2.971 1.5062, -0.4698 -2.9685 1.5131, -0.4698 -2.9685 1.5131
            ]
        }
        coordIndex [
            0,1,2,-1,2,1,3,-1,4,5,6,-1,6,5,7,-1,8,9,10,-1,11,12,13,-1,13,12,14,-1,13,8,15,-1,15,8,10,-1,15,10,5,-1,5,10,16,-1,5,16,7,-1,7,16,11,-1,7,11,17,-1,17,11,13,-1,17,13,15,-1,14,12,18,-1,18,12,19,-1,20,21,9,-1,9,21,10,-1,16,10,22,-1,22,10,21,-1,11,16,23,-1,23,16,22,-1,12,11,19,-1,19,11,23,-1,21,20,24,-1,18,19,25,-1,25,19,23,-1,25,23,24,-1,24,23,22,-1,24,22,21,-1,14,18,13,-1,13,18,25,-1,13,25,8,-1,8,25,24,-1,8,24,9,-1,9,24,20,-1,26,17,27,-1,27,17,15,-1,28,27,15,-1,2,3,29,-1,29,3,30,-1,5,4,31,-1,32,29,33,-1,33,29,30,-1,33,30,31,-1,31,30,28,-1,31,28,5,-1,5,28,15,-1,29,32,34,-1,34,32,35,-1,36,6,7,-1,34,35,0,-1,0,35,37,-1,17,26,38,-1,1,0,39,-1,39,0,37,-1,39,37,38,-1,38,37,36,-1,38,36,17,-1,17,36,7,-1,40,41,42,-1,42,41,43,-1,3,1,30,-1,30,1,39,-1,30,39,28,-1,28,39,38,-1,28,38,27,-1,27,38,26,-1,4,6,31,-1,31,6,36,-1,31,36,33,-1,33,36,37,-1,33,37,32,-1,32,37,35,-1,43,41,44,-1,43,44,45,-1,45,44,46,-1,45,46,47,-1,47,46,48,-1,47,48,49,-1,49,48,50,-1,50,48,51,-1,50,51,52,-1,2,29,53,-1,53,29,54,-1,53,54,55,-1,55,54,56,-1,55,56,57,-1,57,56,58,-1,57,58,52,-1,52,58,59,-1,52,59,50,-1,60,42,43,-1,60,43,61,-1,61,43,45,-1,61,45,62,-1,62,45,63,-1,63,45,47,-1,63,47,64,-1,64,47,49,-1,64,49,65,-1,65,49,66,-1,66,49,50,-1,66,50,67,-1,67,50,59,-1,67,59,68,-1,68,59,58,-1,68,58,69,-1,34,70,29,-1,29,70,71,-1,29,71,54,-1,54,71,69,-1,54,69,56,-1,56,69,58,-1,72,73,53,-1,53,73,2,-1,2,73,74,-1,2,74,0,-1,53,55,72,-1,72,55,57,-1,72,57,75,-1,75,57,52,-1,75,52,76,-1,76,52,51,-1,48,46,77,-1,77,78,48,-1,48,78,79,-1,48,79,51,-1,51,79,80,-1,51,80,76,-1,44,41,40,-1,40,81,44,-1,44,81,82,-1,44,82,46,-1,46,82,83,-1,46,83,77,-1,42,60,40,-1,40,60,81,-1,62,83,82,-1,81,60,82,-1,82,60,61,-1,82,61,62,-1,83,62,77,-1,77,62,63,-1,77,63,64,-1,80,79,64,-1,64,79,78,-1,64,78,77,-1,64,65,80,-1,80,65,66,-1,80,66,76,-1,76,66,67,-1,76,67,75,-1,75,67,68,-1,75,68,72,-1,72,68,69,-1,72,69,73,-1,73,69,71,-1,73,71,74,-1,74,71,70,-1,74,70,0,-1,0,70,34,-1,
        ]
    }
}
Shape{
    appearance Appearance {
        material  Material 	{
            diffuseColor 0.10980392156862745 0.10980392156862745 0.10980392156862745
            specularColor 0.0784313725490196 0.0784313725490196 0.0784313725490196
            ambientIntensity 0.2
            transparency 0
            shininess 0.5
        }
    }
    geometry IndexedFaceSet {
        ccw TRUE
        solid FALSE
        coord DEF co Coordinate {
            point [
                0.0268 0.1315 0.0, 0.0191 0.1269 0.0, 0.0268 0.1401 0.0, 0.0191 1.0039 0.0, 0.0452 0.1985 0.0, 0.0282 0.1394 0.0, 0.0356 0.1972 0.0, 0.0268 0.1934 0.0, 0.0268 0.204 0.0, 0.1218 0.1361 0.0, 0.0921 0.1361 0.0, 0.1218 0.2062 0.0, 0.1324 0.2062 0.0, 1.063 1.0039 -0.0, 0.1324 0.1274 0.0, 1.063 0.1269 0.0, 0.053 0.1976 0.0, 0.0588 0.1955 0.0, 0.0644 0.1918 0.0, 0.0691 0.1865 0.0, 0.0724 0.1804 0.0, 0.0744 0.1719 0.0, 0.0748 0.166 0.0, 0.074 0.1574 0.0, 0.0719 0.1507 0.0, 0.047 0.1351 0.0, 0.0649 0.1413 0.0, 0.0543 0.1359 0.0, 0.0601 0.138 0.0, 0.0686 0.1452 0.0, 0.0365 0.1363 0.0, 0.0658 0.1301 0.0, 0.0921 0.1274 0.0, 0.0581 0.1275 0.0, 0.0531 0.1269 0.0, 0.0765 0.1929 0.0, 0.0696 0.1995 0.0, 0.0623 0.2038 0.0, 0.0536 0.2064 0.0, 0.0722 0.1342 0.0, 0.0779 0.1403 0.0, 0.0821 0.1477 0.0, 0.0846 0.1561 0.0, 0.0453 0.2071 0.0, 0.0359 0.2065 0.0, 0.0854 0.1653 0.0, 0.0842 0.1765 0.0, 0.0812 0.1855 0.0, 0.0352 0.1281 0.0, 0.0431 0.1269 0.0, 0.0191 -0.6063 0.0, 0.0463 0.1265 0.0, 1.063 -0.6063 0.0, 0.0484 0.1265 0.0, -0.1451 0.2062 0.0, -1.063 1.0039 0.0, -0.1557 0.2062 0.0, -1.063 0.1269 0.0, -0.0999 0.1938 0.0, -0.1046 0.1876 0.0, -0.1079 0.18 0.0, -0.1094 0.1717 0.0, -0.1153 0.1274 0.0, -0.1096 0.1678 0.0, -0.0462 0.2062 0.0, -0.0684 0.2062 0.0, -0.0798 0.2049 0.0, -0.089 0.2017 0.0, -0.0968 0.1966 0.0, 0.0009 0.1975 0.0, 0.0009 0.1716 0.0, -0.0289 0.1975 0.0, -0.027 0.1716 0.0, -0.1085 0.1572 0.0, -0.1057 0.149 0.0, -0.1012 0.1421 0.0, 0.0009 0.163 0.0, 0.0009 0.1361 0.0, -0.027 0.163 0.0, -0.0308 0.1361 0.0, -0.0462 0.1274 0.0, -0.0948 0.1359 0.0, -0.0866 0.1311 0.0, -0.0776 0.1283 0.0, -0.0308 0.1274 0.0, 0.0114 0.1274 0.0, 0.0114 0.2062 0.0, -0.0289 0.2062 0.0, -0.0676 0.1274 0.0, -0.1864 0.1274 0.0, -0.1749 0.1274 0.0, -0.1269 0.1274 0.0, -0.1344 0.1495 0.0, -0.1669 0.1495 0.0, -1.063 -0.6063 0.0, -1.063 1.0039 0.5512, -1.1417 1.0039 0.5512, -1.1417 1.0039 0.0787, -1.139 1.0039 0.0584, -1.0834 1.0039 0.0027, -1.1024 1.0039 0.0105, -0.5118 1.0039 0.3543, 1.063 1.0039 1.7323, -0.2756 1.0039 0.3543, 0.2756 1.0039 0.3543, -0.2756 1.0039 0.2756, 1.063 1.0039 2.2835, -1.063 1.0039 1.7323, -1.063 1.0039 2.2835, -1.1417 1.0039 1.7323, -1.1417 1.0039 2.2047, -1.1187 1.0039 0.0231, -1.1312 1.0039 0.0394, 1.1417 1.0039 2.2047, 1.1417 1.0039 1.7323, 1.0834 1.0039 0.0027, 1.1417 1.0039 0.0787, 1.1417 1.0039 0.5512, -1.1312 1.0039 2.2441, -1.1187 1.0039 2.2604, -1.1024 1.0039 2.2729, -1.139 1.0039 2.2251, -1.0834 1.0039 2.2808, 1.063 1.0039 0.5512, 0.5118 1.0039 0.2756, 0.5118 1.0039 0.3543, 0.2756 1.0039 0.2756, 1.139 1.0039 0.0584, 1.1312 1.0039 0.0394, 1.1024 1.0039 0.0105, 1.1187 1.0039 0.0231, 1.1187 1.0039 2.2604, 1.1312 1.0039 2.2441, 1.1024 1.0039 2.2729, 1.139 1.0039 2.2251, -0.5118 1.0039 0.2756, 1.0834 1.0039 2.2808, -1.1417 -0.6063 2.2047, -1.1417 0.2165 1.7323, -1.1417 -0.6063 1.7323, -1.1417 -0.1949 1.7323, -1.1417 -0.1949 1.5354, -1.1417 0.2165 1.5354, -1.1024 -0.6063 1.7323, 1.063 -0.6063 2.2835, -1.063 -0.6063 2.2835, 1.0834 -0.6063 2.2808, 1.1417 -0.6063 2.2047, -1.1024 -0.6063 2.2729, -1.1187 -0.6063 2.2604, -1.1312 -0.6063 2.2441, -1.139 -0.6063 2.2251, -1.1024 -0.6063 0.5512, -1.1417 -0.6063 0.5512, -1.1417 -0.6063 0.0787, -1.1024 -0.6063 1.5354, -1.063 -0.6063 1.5354, 1.063 -0.6063 1.5354, 1.1024 -0.6063 1.5354, 1.1024 -0.6063 1.7323, -1.0834 -0.6063 2.2808, 1.1312 -0.6063 2.2441, 1.1187 -0.6063 2.2604, 1.1024 -0.6063 2.2729, -1.1312 -0.6063 0.0394, -1.1187 -0.6063 0.0231, -1.1024 -0.6063 0.0105, -1.139 -0.6063 0.0584, -1.0834 -0.6063 0.0027, 1.1024 -0.6063 0.5512, 1.1417 -0.6063 0.0787, 1.1417 -0.6063 0.5512, -1.1024 -0.6063 0.748, -1.063 -0.6063 0.748, 1.139 -0.6063 2.2251, 1.1024 -0.6063 0.0105, 1.1187 -0.6063 0.0231, 1.1312 -0.6063 0.0394, 1.1024 -0.6063 0.748, 1.063 -0.6063 0.748, 1.1417 -0.6063 1.7323, 1.0834 -0.6063 0.0027, 1.139 -0.6063 0.0584, 1.1417 0.0197 0.2756, 1.1417 0.5709 0.2756, 1.1417 0.0197 0.3543, 1.1417 0.5709 0.3543, 1.1417 0.8071 0.2756, 1.1417 0.8071 0.3543, 1.1417 0.2165 0.5512, 1.1417 -0.2165 0.2756, 1.1417 -0.2165 0.3543, 1.1417 -0.1949 0.5512, 1.1417 -0.1949 0.748, 1.1417 0.2165 0.748, 1.1417 0.2165 0.748
            ]
        }
        coordIndex [
            0,1,2,-1,2,1,3,-1,4,5,6,-1,6,5,2,-1,6,2,7,-1,7,2,3,-1,7,3,8,-1,9,10,11,-1,11,10,3,-1,11,3,12,-1,12,3,13,-1,12,13,14,-1,14,13,15,-1,4,16,5,-1,5,16,17,-1,5,17,18,-1,18,19,5,-1,5,19,20,-1,5,20,21,-1,21,22,5,-1,5,22,23,-1,5,23,24,-1,25,26,27,-1,27,26,28,-1,24,29,5,-1,5,29,26,-1,5,26,30,-1,30,26,25,-1,31,32,33,-1,33,32,34,-1,35,36,3,-1,3,36,37,-1,3,37,38,-1,31,39,32,-1,32,39,40,-1,32,40,10,-1,10,40,41,-1,10,41,42,-1,38,43,3,-1,3,43,44,-1,3,44,8,-1,42,45,10,-1,10,45,46,-1,10,46,3,-1,3,46,47,-1,3,47,35,-1,0,48,1,-1,1,48,49,-1,1,49,50,-1,50,49,51,-1,50,51,52,-1,52,51,53,-1,52,53,15,-1,15,53,34,-1,15,34,14,-1,14,34,32,-1,3,54,55,-1,55,54,56,-1,55,56,57,-1,58,59,54,-1,59,60,54,-1,54,60,61,-1,54,61,62,-1,62,61,63,-1,3,64,65,-1,65,66,3,-1,3,66,67,-1,3,67,54,-1,54,67,68,-1,54,68,58,-1,69,70,71,-1,71,70,72,-1,63,73,62,-1,62,73,74,-1,62,74,75,-1,76,77,78,-1,78,77,79,-1,78,79,80,-1,75,81,62,-1,62,81,82,-1,62,82,83,-1,84,85,1,-1,1,85,86,-1,1,86,3,-1,3,86,87,-1,3,87,64,-1,64,87,71,-1,64,71,80,-1,80,71,72,-1,80,72,78,-1,79,84,80,-1,80,84,1,-1,80,1,88,-1,89,90,1,-1,83,88,62,-1,62,88,1,-1,62,1,91,-1,91,1,90,-1,91,90,92,-1,92,90,93,-1,50,94,1,-1,1,94,57,-1,1,57,89,-1,89,57,56,-1,95,3,55,-1,96,95,97,-1,97,95,55,-1,97,55,98,-1,55,99,100,-1,101,102,103,-1,103,102,104,-1,103,104,105,-1,106,107,108,-1,108,107,109,-1,108,109,110,-1,100,111,55,-1,55,111,112,-1,55,112,98,-1,113,114,102,-1,115,13,116,-1,116,13,3,-1,116,3,117,-1,118,119,120,-1,110,121,108,-1,108,121,118,-1,108,118,122,-1,122,118,120,-1,123,124,102,-1,102,124,125,-1,102,125,104,-1,126,124,3,-1,3,124,123,-1,3,123,117,-1,116,127,115,-1,115,127,128,-1,115,128,129,-1,129,128,130,-1,131,132,133,-1,133,132,134,-1,133,134,113,-1,104,126,105,-1,105,126,3,-1,105,3,135,-1,135,3,95,-1,135,95,101,-1,101,95,107,-1,101,107,102,-1,102,107,106,-1,102,106,113,-1,113,106,136,-1,113,136,133,-1,110,109,137,-1,137,109,138,-1,139,137,140,-1,140,137,138,-1,140,138,141,-1,141,138,142,-1,143,144,145,-1,146,144,147,-1,148,149,150,-1,139,143,137,-1,137,143,145,-1,137,145,151,-1,152,153,50,-1,50,153,154,-1,50,154,94,-1,143,155,156,-1,157,158,159,-1,151,145,150,-1,150,145,160,-1,150,160,148,-1,161,162,163,-1,164,165,166,-1,154,167,94,-1,94,167,164,-1,94,164,168,-1,168,164,166,-1,50,52,169,-1,169,52,170,-1,169,170,171,-1,172,152,173,-1,173,152,50,-1,173,50,156,-1,146,147,163,-1,163,147,174,-1,163,174,161,-1,175,176,177,-1,169,178,50,-1,50,178,179,-1,50,179,156,-1,156,179,157,-1,156,157,143,-1,143,157,159,-1,143,159,144,-1,144,159,180,-1,144,180,147,-1,52,181,170,-1,170,181,175,-1,170,175,182,-1,182,175,177,-1,183,184,185,-1,185,184,186,-1,187,116,188,-1,188,116,117,-1,188,117,186,-1,186,117,189,-1,186,189,185,-1,187,184,116,-1,116,184,183,-1,116,183,170,-1,170,183,190,-1,170,190,171,-1,171,190,191,-1,171,191,192,-1,192,191,185,-1,192,185,193,-1,193,185,189,-1,193,189,194,-1,
        ]
    }
}
Shape{
    appearance Appearance {
        material  Material 	{
            diffuseColor 0.43137254901960786 0.35294117647058826 0.37254901960784315
            specularColor 0.30196078431372547 0.24705882352941178 0.25882352941176473
            ambientIntensity 0.2
            transparency 0
            shininess 0.5
        }
    }
    geometry IndexedFaceSet {
        ccw TRUE
        solid FALSE
        coord DEF co Coordinate {
            point [
                1.1417 0.2165 0.748, 1.063 0.2165 0.748, 1.1417 -0.1949 0.748, 1.063 -0.6063 0.748, 1.1024 -0.6063 0.748, 1.1024 -0.6063 0.748
            ]
        }
        coordIndex [
            0,1,2,-1,2,1,3,-1,2,3,4,-1,
        ]
    }
}
Shape{
    appearance Appearance {
        material  Material 	{
            diffuseColor 0.10980392156862745 0.10980392156862745 0.10980392156862745
            specularColor 0.0784313725490196 0.0784313725490196 0.0784313725490196
            ambientIntensity 0.2
            transparency 0
            shininess 0.5
        }
    }
    geometry IndexedFaceSet {
        ccw TRUE
        solid FALSE
        coord DEF co Coordinate {
            point [
                1.1417 -0.6063 2.2047, 1.1417 -0.6063 1.7323, 1.1417 1.0039 2.2047, 1.1417 -0.1949 1.7323, 1.1417 1.0039 1.7323, 1.1417 0.2165 1.7323, 1.1417 0.2165 1.5354, 1.1417 -0.1949 1.5354, -1.1417 -0.1949 0.748, -1.1417 0.2165 0.748, -1.1417 0.2165 0.5512, -1.1417 0.0197 0.2756, -1.1417 1.0039 0.0787, -1.1417 -0.6063 0.0787, -1.1417 -0.1949 0.5512, -1.1417 0.0197 0.3543, -1.1417 -0.6063 0.5512, -1.1417 -0.2165 0.3543, -1.1417 -0.2165 0.2756, -1.1417 0.5709 0.2756, -1.1417 0.5709 0.3543, -1.1417 0.8071 0.3543, -1.1417 1.0039 0.5512, -1.1417 0.8071 0.2756, 1.063 1.0039 2.2835, -1.063 1.0039 2.2835, 1.063 -0.6063 2.2835, -1.063 -0.6063 2.2835, -1.063 -0.6063 2.2835
            ]
        }
        coordIndex [
            0,1,2,-1,2,1,3,-1,4,2,5,-1,5,2,3,-1,5,3,6,-1,6,3,7,-1,8,9,10,-1,11,12,13,-1,8,10,14,-1,14,10,15,-1,14,15,16,-1,16,15,17,-1,16,17,13,-1,13,17,18,-1,13,18,11,-1,12,11,19,-1,19,11,15,-1,19,15,20,-1,20,15,10,-1,20,10,21,-1,21,10,22,-1,21,22,23,-1,23,22,12,-1,23,12,19,-1,24,25,26,-1,26,25,27,-1,
        ]
    }
}
Shape{
    appearance Appearance {
        material  Material 	{
            diffuseColor 0.43137254901960786 0.35294117647058826 0.37254901960784315
            specularColor 0.30196078431372547 0.24705882352941178 0.25882352941176473
            ambientIntensity 0.2
            transparency 0
            shininess 0.5
        }
    }
    geometry IndexedFaceSet {
        ccw TRUE
        solid FALSE
        coord DEF co Coordinate {
            point [
                1.063 0.2165 1.5354, 1.063 0.2165 1.7323, 1.1417 0.2165 1.5354, 1.1417 0.2165 1.7323, 1.063 1.0039 1.7323, 1.1417 1.0039 1.7323, 1.063 1.0039 0.5512, 1.063 0.2165 0.5512, 1.1417 1.0039 0.5512, 1.1417 0.2165 0.5512, 1.063 0.2165 0.748, 1.1417 0.2165 0.748, 1.1024 -0.6063 1.5354, 1.063 -0.6063 1.5354, 1.1417 -0.1949 1.5354, 1.1417 -0.1949 1.5354
            ]
        }
        coordIndex [
            0,1,2,-1,2,1,3,-1,1,4,3,-1,3,4,5,-1,6,7,8,-1,8,7,9,-1,7,10,9,-1,9,10,11,-1,12,13,14,-1,14,13,0,-1,14,0,2,-1,
        ]
    }
}
Shape{
    appearance Appearance {
        material  Material 	{
            diffuseColor 0.10980392156862745 0.10980392156862745 0.10980392156862745
            specularColor 0.0784313725490196 0.0784313725490196 0.0784313725490196
            ambientIntensity 0.2
            transparency 0
            shininess 0.5
        }
    }
    geometry IndexedFaceSet {
        ccw TRUE
        solid FALSE
        coord DEF co Coordinate {
            point [
                1.063 1.0039 1.7323, 1.063 0.2165 1.7323, 1.063 1.0039 0.5512, 1.063 0.2165 1.5354, 1.063 0.2165 0.5512, 1.063 0.2165 0.748, 1.063 -0.6063 0.748, 1.063 -0.6063 1.5354, 1.1417 -0.1949 1.7323, 1.1024 -0.6063 1.7323, 1.1417 -0.1949 1.5354, 1.1024 -0.6063 1.5354, 1.1024 -0.6063 1.5354
            ]
        }
        coordIndex [
            0,1,2,-1,2,1,3,-1,4,2,5,-1,5,2,3,-1,5,3,6,-1,6,3,7,-1,8,9,10,-1,10,9,11,-1,
        ]
    }
}
Shape{
    appearance Appearance {
        material  Material 	{
            diffuseColor 0.43137254901960786 0.35294117647058826 0.37254901960784315
            specularColor 0.30196078431372547 0.24705882352941178 0.25882352941176473
            ambientIntensity 0.2
            transparency 0
            shininess 0.5
        }
    }
    geometry IndexedFaceSet {
        ccw TRUE
        solid FALSE
        coord DEF co Coordinate {
            point [
                1.1417 -0.1949 1.7323, 1.1417 -0.6063 1.7323, 1.1024 -0.6063 1.7323, 1.1024 -0.6063 1.7323
            ]
        }
        coordIndex [
            0,1,2,-1,
        ]
    }
}
Shape{
    appearance Appearance {
        material  Material 	{
            diffuseColor 0.10980392156862745 0.10980392156862745 0.10980392156862745
            specularColor 0.0784313725490196 0.0784313725490196 0.0784313725490196
            ambientIntensity 0.2
            transparency 0
            shininess 0.5
        }
    }
    geometry IndexedFaceSet {
        ccw TRUE
        solid FALSE
        coord DEF co Coordinate {
            point [
                1.1024 -0.6063 0.5512, 1.1417 -0.1949 0.5512, 1.1024 -0.6063 0.748, 1.1417 -0.1949 0.748, 1.1417 -0.1949 0.748
            ]
        }
        coordIndex [
            0,1,2,-1,2,1,3,-1,
        ]
    }
}
Shape{
    appearance Appearance {
        material  Material 	{
            diffuseColor 0.43137254901960786 0.35294117647058826 0.37254901960784315
            specularColor 0.30196078431372547 0.24705882352941178 0.25882352941176473
            ambientIntensity 0.2
            transparency 0
            shininess 0.5
        }
    }
    geometry IndexedFaceSet {
        ccw TRUE
        solid FALSE
        coord DEF co Coordinate {
            point [
                1.1024 -0.6063 0.5512, 1.1417 -0.6063 0.5512, 1.1417 -0.1949 0.5512, -1.063 0.2165 1.7323, -1.063 0.2165 1.5354, -1.1417 0.2165 1.7323, -1.1417 0.2165 1.5354, -1.063 1.0039 1.7323, -1.1417 1.0039 1.7323, -1.063 0.2165 0.5512, -1.063 1.0039 0.5512, -1.1417 0.2165 0.5512, -1.1417 1.0039 0.5512, -1.063 0.2165 0.748, -1.1417 0.2165 0.748, -1.1417 -0.1949 0.5512, -1.1417 -0.6063 0.5512, -1.1024 -0.6063 0.5512, -1.1024 -0.6063 0.5512
            ]
        }
        coordIndex [
            0,1,2,-1,3,4,5,-1,5,4,6,-1,7,3,8,-1,8,3,5,-1,9,10,11,-1,11,10,12,-1,13,9,14,-1,14,9,11,-1,15,16,17,-1,
        ]
    }
}
Shape{
    appearance Appearance {
        material  Material 	{
            diffuseColor 0.10980392156862745 0.10980392156862745 0.10980392156862745
            specularColor 0.0784313725490196 0.0784313725490196 0.0784313725490196
            ambientIntensity 0.2
            transparency 0
            shininess 0.5
        }
    }
    geometry IndexedFaceSet {
        ccw TRUE
        solid FALSE
        coord DEF co Coordinate {
            point [
                -1.1417 -0.1949 0.5512, -1.1024 -0.6063 0.5512, -1.1417 -0.1949 0.748, -1.1024 -0.6063 0.748, -1.1024 -0.6063 0.748
            ]
        }
        coordIndex [
            0,1,2,-1,2,1,3,-1,
        ]
    }
}
Shape{
    appearance Appearance {
        material  Material 	{
            diffuseColor 0.43137254901960786 0.35294117647058826 0.37254901960784315
            specularColor 0.30196078431372547 0.24705882352941178 0.25882352941176473
            ambientIntensity 0.2
            transparency 0
            shininess 0.5
        }
    }
    geometry IndexedFaceSet {
        ccw TRUE
        solid FALSE
        coord DEF co Coordinate {
            point [
                -1.1024 -0.6063 0.748, -1.063 -0.6063 0.748, -1.1417 -0.1949 0.748, -1.063 0.2165 0.748, -1.1417 0.2165 0.748, -1.1417 0.2165 0.748
            ]
        }
        coordIndex [
            0,1,2,-1,2,1,3,-1,2,3,4,-1,
        ]
    }
}
Shape{
    appearance Appearance {
        material  Material 	{
            diffuseColor 0.10980392156862745 0.10980392156862745 0.10980392156862745
            specularColor 0.0784313725490196 0.0784313725490196 0.0784313725490196
            ambientIntensity 0.2
            transparency 0
            shininess 0.5
        }
    }
    geometry IndexedFaceSet {
        ccw TRUE
        solid FALSE
        coord DEF co Coordinate {
            point [
                -1.063 1.0039 0.5512, -1.063 0.2165 0.5512, -1.063 1.0039 1.7323, -1.063 0.2165 0.748, -1.063 0.2165 1.7323, -1.063 0.2165 1.5354, -1.063 -0.6063 1.5354, -1.063 -0.6063 0.748, -1.063 -0.6063 0.748
            ]
        }
        coordIndex [
            0,1,2,-1,2,1,3,-1,4,2,5,-1,5,2,3,-1,5,3,6,-1,6,3,7,-1,
        ]
    }
}
Shape{
    appearance Appearance {
        material  Material 	{
            diffuseColor 0.43137254901960786 0.35294117647058826 0.37254901960784315
            specularColor 0.30196078431372547 0.24705882352941178 0.25882352941176473
            ambientIntensity 0.2
            transparency 0
            shininess 0.5
        }
    }
    geometry IndexedFaceSet {
        ccw TRUE
        solid FALSE
        coord DEF co Coordinate {
            point [
                -1.1417 0.2165 1.5354, -1.063 0.2165 1.5354, -1.1417 -0.1949 1.5354, -1.063 -0.6063 1.5354, -1.1024 -0.6063 1.5354, -1.1024 -0.6063 1.5354
            ]
        }
        coordIndex [
            0,1,2,-1,2,1,3,-1,2,3,4,-1,
        ]
    }
}
Shape{
    appearance Appearance {
        material  Material 	{
            diffuseColor 0.10980392156862745 0.10980392156862745 0.10980392156862745
            specularColor 0.0784313725490196 0.0784313725490196 0.0784313725490196
            ambientIntensity 0.2
            transparency 0
            shininess 0.5
        }
    }
    geometry IndexedFaceSet {
        ccw TRUE
        solid FALSE
        coord DEF co Coordinate {
            point [
                -1.1024 -0.6063 1.7323, -1.1417 -0.1949 1.7323, -1.1024 -0.6063 1.5354, -1.1417 -0.1949 1.5354, -1.1417 -0.1949 1.5354
            ]
        }
        coordIndex [
            0,1,2,-1,2,1,3,-1,
        ]
    }
}
Shape{
    appearance Appearance {
        material  Material 	{
            diffuseColor 0.43137254901960786 0.35294117647058826 0.37254901960784315
            specularColor 0.30196078431372547 0.24705882352941178 0.25882352941176473
            ambientIntensity 0.2
            transparency 0
            shininess 0.5
        }
    }
    geometry IndexedFaceSet {
        ccw TRUE
        solid FALSE
        coord DEF co Coordinate {
            point [
                -1.1024 -0.6063 1.7323, -1.1417 -0.6063 1.7323, -1.1417 -0.1949 1.7323, -1.1417 -0.1949 1.7323
            ]
        }
        coordIndex [
            0,1,2,-1,
        ]
    }
}
Shape{
    appearance Appearance {
        material  Material 	{
            diffuseColor 0.10980392156862745 0.10980392156862745 0.10980392156862745
            specularColor 0.0784313725490196 0.0784313725490196 0.0784313725490196
            ambientIntensity 0.2
            transparency 0
            shininess 0.5
        }
    }
    geometry IndexedFaceSet {
        ccw TRUE
        solid FALSE
        coord DEF co Coordinate {
            point [
                1.1417 -0.6063 2.2047, 1.1417 1.0039 2.2047, 1.139 1.0039 2.2251, 1.139 -0.6063 2.2251, 1.1312 1.0039 2.2441, 1.1312 -0.6063 2.2441, 1.1187 1.0039 2.2604, 1.1187 -0.6063 2.2604, 1.1024 1.0039 2.2729, 1.1024 -0.6063 2.2729, 1.0834 1.0039 2.2808, 1.0834 -0.6063 2.2808, 1.063 1.0039 2.2835, 1.063 -0.6063 2.2835, -1.063 -0.6063 2.2835, -1.063 1.0039 2.2835, -1.0834 1.0039 2.2808, -1.0834 -0.6063 2.2808, -1.1024 1.0039 2.2729, -1.1024 -0.6063 2.2729, -1.1187 1.0039 2.2604, -1.1187 -0.6063 2.2604, -1.1312 1.0039 2.2441, -1.1312 -0.6063 2.2441, -1.139 1.0039 2.2251, -1.139 -0.6063 2.2251, -1.1417 1.0039 2.2047, -1.1417 -0.6063 2.2047, -1.063 0.1269 0.0, -1.063 -0.6063 0.0, -1.0834 -0.6063 0.0027, -1.0834 1.0039 0.0027, -1.1024 -0.6063 0.0105, -1.1024 1.0039 0.0105, -1.1187 -0.6063 0.0231, -1.1187 1.0039 0.0231, -1.1312 -0.6063 0.0394, -1.1312 1.0039 0.0394, -1.139 -0.6063 0.0584, -1.139 1.0039 0.0584, -1.1417 -0.6063 0.0787, -1.1417 1.0039 0.0787, -1.063 1.0039 0.0, 1.063 0.1269 0.0, 1.063 1.0039 -0.0, 1.0834 1.0039 0.0027, 1.0834 -0.6063 0.0027, 1.063 -0.6063 0.0, 1.1024 1.0039 0.0105, 1.1024 -0.6063 0.0105, 1.1187 1.0039 0.0231, 1.1187 -0.6063 0.0231, 1.1312 1.0039 0.0394, 1.1312 -0.6063 0.0394, 1.139 1.0039 0.0584, 1.139 -0.6063 0.0584, 1.1417 1.0039 0.0787, 1.1417 -0.6063 0.0787, 1.1417 -0.6063 0.0787
            ]
        }
        coordIndex [
            0,1,2,-1,0,2,3,-1,3,2,4,-1,3,4,5,-1,5,4,6,-1,5,6,7,-1,7,6,8,-1,7,8,9,-1,9,8,10,-1,9,10,11,-1,11,10,12,-1,11,12,13,-1,14,15,16,-1,14,16,17,-1,17,16,18,-1,17,18,19,-1,19,18,20,-1,19,20,21,-1,21,20,22,-1,21,22,23,-1,23,22,24,-1,23,24,25,-1,25,24,26,-1,25,26,27,-1,28,29,30,-1,31,32,33,-1,33,32,34,-1,33,34,35,-1,35,34,36,-1,35,36,37,-1,37,36,38,-1,37,38,39,-1,39,38,40,-1,39,40,41,-1,42,28,31,-1,31,28,30,-1,31,30,32,-1,43,44,45,-1,46,47,43,-1,43,45,46,-1,46,45,48,-1,46,48,49,-1,49,48,50,-1,49,50,51,-1,51,50,52,-1,51,52,53,-1,53,52,54,-1,53,54,55,-1,55,54,56,-1,55,56,57,-1,
        ]
    }
}
Shape{
    appearance Appearance {
        material  Material 	{
            diffuseColor 0.43137254901960786 0.35294117647058826 0.37254901960784315
            specularColor 0.30196078431372547 0.24705882352941178 0.25882352941176473
            ambientIntensity 0.2
            transparency 0
            shininess 0.5
        }
    }
    geometry IndexedFaceSet {
        ccw TRUE
        solid FALSE
        coord DEF co Coordinate {
            point [
                0.1324 0.2062 0.0039, 0.1324 0.2062 0.0, 0.1324 0.1274 0.0039, 0.1324 0.1274 0.0, 0.1324 0.1274 0.0
            ]
        }
        coordIndex [
            0,1,2,-1,2,1,3,-1,
        ]
    }
}
Shape{
    appearance Appearance {
        material  Material 	{
            diffuseColor 1.0 1.0 1.0
            specularColor 0.8784313725490196 0.8784313725490196 0.8784313725490196
            ambientIntensity 0.2
            transparency 0
            shininess 0.5
        }
    }
    geometry IndexedFaceSet {
        ccw TRUE
        solid FALSE
        coord DEF co Coordinate {
            point [
                0.1218 0.2062 0.0039, 0.1218 0.2062 0.0, 0.1324 0.2062 0.0039, 0.1324 0.2062 0.0, 0.1218 0.1361 0.0039, 0.1218 0.1361 0.0, 0.1218 0.1361 0.0
            ]
        }
        coordIndex [
            0,1,2,-1,2,1,3,-1,4,5,0,-1,0,5,1,-1,
        ]
    }
}
Shape{
    appearance Appearance {
        material  Material 	{
            diffuseColor 0.43137254901960786 0.35294117647058826 0.37254901960784315
            specularColor 0.30196078431372547 0.24705882352941178 0.25882352941176473
            ambientIntensity 0.2
            transparency 0
            shininess 0.5
        }
    }
    geometry IndexedFaceSet {
        ccw TRUE
        solid FALSE
        coord DEF co Coordinate {
            point [
                0.0921 0.1361 0.0039, 0.0921 0.1361 0.0, 0.1218 0.1361 0.0039, 0.1218 0.1361 0.0, 0.1218 0.1361 0.0
            ]
        }
        coordIndex [
            0,1,2,-1,2,1,3,-1,
        ]
    }
}
Shape{
    appearance Appearance {
        material  Material 	{
            diffuseColor 1.0 1.0 1.0
            specularColor 0.30196078431372547 0.30196078431372547 0.30196078431372547
            ambientIntensity 0.2
            transparency 0
            shininess 0.5
        }
    }
    geometry IndexedFaceSet {
        ccw TRUE
        solid FALSE
        coord DEF co Coordinate {
            point [
                0.0921 0.1274 0.0039, 0.0921 0.1274 0.0, 0.0921 0.1361 0.0039, 0.0921 0.1361 0.0, 0.1324 0.1274 0.0039, 0.1324 0.1274 0.0, 0.1218 0.2062 0.0039, 0.1324 0.2062 0.0039, 0.1218 0.1361 0.0039, 0.1218 0.1361 0.0039
            ]
        }
        coordIndex [
            0,1,2,-1,2,1,3,-1,0,4,1,-1,1,4,5,-1,6,7,8,-1,8,7,4,-1,8,4,2,-1,2,4,0,-1,
        ]
    }
}
Shape{
    appearance Appearance {
        material  Material 	{
            diffuseColor 1.0 1.0 1.0
            specularColor 0.8784313725490196 0.8784313725490196 0.8784313725490196
            ambientIntensity 0.2
            transparency 0
            shininess 0.5
        }
    }
    geometry IndexedFaceSet {
        ccw TRUE
        solid FALSE
        coord DEF co Coordinate {
            point [
                0.0531 0.1269 0.0, 0.0484 0.1265 0.0, 0.0484 0.1265 0.0039, 0.0581 0.1275 0.0, 0.0581 0.1275 0.0039, 0.0658 0.1301 0.0039, 0.0658 0.1301 0.0, 0.0722 0.1342 0.0039, 0.0722 0.1342 0.0, 0.0779 0.1403 0.0039, 0.0779 0.1403 0.0, 0.0821 0.1477 0.0039, 0.0821 0.1477 0.0, 0.0846 0.1561 0.0039, 0.0846 0.1561 0.0, 0.0854 0.1653 0.0039, 0.0854 0.1653 0.0, 0.0842 0.1765 0.0039, 0.0842 0.1765 0.0, 0.0812 0.1855 0.0039, 0.0812 0.1855 0.0, 0.0765 0.1929 0.0039, 0.0765 0.1929 0.0, 0.0696 0.1995 0.0039, 0.0696 0.1995 0.0, 0.0623 0.2038 0.0039, 0.0623 0.2038 0.0, 0.0536 0.2064 0.0039, 0.0536 0.2064 0.0, 0.0453 0.2071 0.0039, 0.0453 0.2071 0.0, 0.0453 0.2071 0.0
            ]
        }
        coordIndex [
            0,1,2,-1,0,2,3,-1,2,4,3,-1,3,4,5,-1,3,5,6,-1,6,5,7,-1,6,7,8,-1,8,7,9,-1,8,9,10,-1,10,9,11,-1,10,11,12,-1,12,11,13,-1,12,13,14,-1,14,13,15,-1,14,15,16,-1,16,15,17,-1,16,17,18,-1,18,17,19,-1,18,19,20,-1,20,19,21,-1,20,21,22,-1,22,21,23,-1,22,23,24,-1,24,23,25,-1,24,25,26,-1,26,25,27,-1,26,27,28,-1,28,27,29,-1,28,29,30,-1,
        ]
    }
}
Shape{
    appearance Appearance {
        material  Material 	{
            diffuseColor 0.43137254901960786 0.35294117647058826 0.37254901960784315
            specularColor 0.30196078431372547 0.24705882352941178 0.25882352941176473
            ambientIntensity 0.2
            transparency 0
            shininess 0.5
        }
    }
    geometry IndexedFaceSet {
        ccw TRUE
        solid FALSE
        coord DEF co Coordinate {
            point [
                0.0453 0.2071 0.0, 0.0453 0.2071 0.0039, 0.0359 0.2065 0.0039, 0.0359 0.2065 0.0, 0.0268 0.204 0.0039, 0.0268 0.204 0.0, 0.0268 0.204 0.0
            ]
        }
        coordIndex [
            0,1,2,-1,0,2,3,-1,3,2,4,-1,3,4,5,-1,
        ]
    }
}
Shape{
    appearance Appearance {
        material  Material 	{
            diffuseColor 1.0 1.0 1.0
            specularColor 0.30196078431372547 0.30196078431372547 0.30196078431372547
            ambientIntensity 0.2
            transparency 0
            shininess 0.5
        }
    }
    geometry IndexedFaceSet {
        ccw TRUE
        solid FALSE
        coord DEF co Coordinate {
            point [
                0.0268 0.1934 0.0039, 0.0268 0.1934 0.0, 0.0268 0.204 0.0039, 0.0268 0.204 0.0, 0.0356 0.1972 0.0039, 0.0356 0.1972 0.0, 0.0452 0.1985 0.0039, 0.0452 0.1985 0.0, 0.053 0.1976 0.0039, 0.053 0.1976 0.0, 0.0588 0.1955 0.0039, 0.0588 0.1955 0.0, 0.0644 0.1918 0.0039, 0.0644 0.1918 0.0, 0.0691 0.1865 0.0039, 0.0691 0.1865 0.0, 0.0724 0.1804 0.0039, 0.0724 0.1804 0.0, 0.0744 0.1719 0.0039, 0.0744 0.1719 0.0, 0.0748 0.166 0.0039, 0.0748 0.166 0.0, 0.0748 0.166 0.0
            ]
        }
        coordIndex [
            0,1,2,-1,2,1,3,-1,1,0,4,-1,1,4,5,-1,5,4,6,-1,5,6,7,-1,7,6,8,-1,7,8,9,-1,9,8,10,-1,9,10,11,-1,11,10,12,-1,11,12,13,-1,13,12,14,-1,13,14,15,-1,15,14,16,-1,15,16,17,-1,17,16,18,-1,17,18,19,-1,19,18,20,-1,19,20,21,-1,
        ]
    }
}
Shape{
    appearance Appearance {
        material  Material 	{
            diffuseColor 0.43137254901960786 0.35294117647058826 0.37254901960784315
            specularColor 0.30196078431372547 0.24705882352941178 0.25882352941176473
            ambientIntensity 0.2
            transparency 0
            shininess 0.5
        }
    }
    geometry IndexedFaceSet {
        ccw TRUE
        solid FALSE
        coord DEF co Coordinate {
            point [
                0.0748 0.166 0.0, 0.0748 0.166 0.0039, 0.074 0.1574 0.0039, 0.074 0.1574 0.0, 0.0719 0.1507 0.0039, 0.0719 0.1507 0.0, 0.0686 0.1452 0.0039, 0.0686 0.1452 0.0, 0.0649 0.1413 0.0039, 0.0649 0.1413 0.0, 0.0601 0.138 0.0039, 0.0601 0.138 0.0, 0.0543 0.1359 0.0039, 0.0543 0.1359 0.0, 0.047 0.1351 0.0039, 0.047 0.1351 0.0, 0.047 0.1351 0.0
            ]
        }
        coordIndex [
            0,1,2,-1,0,2,3,-1,3,2,4,-1,3,4,5,-1,5,4,6,-1,5,6,7,-1,7,6,8,-1,7,8,9,-1,9,8,10,-1,9,10,11,-1,11,10,12,-1,11,12,13,-1,13,12,14,-1,13,14,15,-1,
        ]
    }
}
Shape{
    appearance Appearance {
        material  Material 	{
            diffuseColor 1.0 1.0 1.0
            specularColor 0.8784313725490196 0.8784313725490196 0.8784313725490196
            ambientIntensity 0.2
            transparency 0
            shininess 0.5
        }
    }
    geometry IndexedFaceSet {
        ccw TRUE
        solid FALSE
        coord DEF co Coordinate {
            point [
                0.047 0.1351 0.0, 0.047 0.1351 0.0039, 0.0365 0.1363 0.0039, 0.0365 0.1363 0.0, 0.0282 0.1394 0.0039, 0.0282 0.1394 0.0, 0.0268 0.1401 0.0039, 0.0268 0.1401 0.0, 0.0268 0.1315 0.0039, 0.0268 0.1315 0.0, 0.0268 0.1315 0.0
            ]
        }
        coordIndex [
            0,1,2,-1,0,2,3,-1,3,2,4,-1,3,4,5,-1,5,4,6,-1,5,6,7,-1,8,9,6,-1,6,9,7,-1,
        ]
    }
}
Shape{
    appearance Appearance {
        material  Material 	{
            diffuseColor 1.0 1.0 1.0
            specularColor 0.30196078431372547 0.30196078431372547 0.30196078431372547
            ambientIntensity 0.2
            transparency 0
            shininess 0.5
        }
    }
    geometry IndexedFaceSet {
        ccw TRUE
        solid FALSE
        coord DEF co Coordinate {
            point [
                0.0352 0.1281 0.0, 0.0268 0.1315 0.0, 0.0352 0.1281 0.0039, 0.0268 0.1315 0.0039, 0.0431 0.1269 0.0, 0.0463 0.1265 0.0039, 0.0463 0.1265 0.0, 0.0484 0.1265 0.0039, 0.0484 0.1265 0.0, 0.0484 0.1265 0.0
            ]
        }
        coordIndex [
            0,1,2,-1,2,1,3,-1,0,2,4,-1,4,2,5,-1,4,5,6,-1,6,5,7,-1,6,7,8,-1,
        ]
    }
}
Shape{
    appearance Appearance {
        material  Material 	{
            diffuseColor 1.0 1.0 1.0
            specularColor 0.8784313725490196 0.8784313725490196 0.8784313725490196
            ambientIntensity 0.2
            transparency 0
            shininess 0.5
        }
    }
    geometry IndexedFaceSet {
        ccw TRUE
        solid FALSE
        coord DEF co Coordinate {
            point [
                0.0543 0.1359 0.0039, 0.0484 0.1265 0.0039, 0.047 0.1351 0.0039, 0.0463 0.1265 0.0039, 0.0365 0.1363 0.0039, 0.0352 0.1281 0.0039, 0.0282 0.1394 0.0039, 0.0268 0.1315 0.0039, 0.0268 0.1401 0.0039, 0.0268 0.1934 0.0039, 0.0268 0.204 0.0039, 0.0356 0.1972 0.0039, 0.0359 0.2065 0.0039, 0.0452 0.1985 0.0039, 0.0453 0.2071 0.0039, 0.053 0.1976 0.0039, 0.0536 0.2064 0.0039, 0.0588 0.1955 0.0039, 0.0623 0.2038 0.0039, 0.0644 0.1918 0.0039, 0.0696 0.1995 0.0039, 0.0691 0.1865 0.0039, 0.0765 0.1929 0.0039, 0.0724 0.1804 0.0039, 0.0812 0.1855 0.0039, 0.0744 0.1719 0.0039, 0.0842 0.1765 0.0039, 0.0748 0.166 0.0039, 0.0854 0.1653 0.0039, 0.074 0.1574 0.0039, 0.0846 0.1561 0.0039, 0.0719 0.1507 0.0039, 0.0821 0.1477 0.0039, 0.0686 0.1452 0.0039, 0.0779 0.1403 0.0039, 0.0649 0.1413 0.0039, 0.0722 0.1342 0.0039, 0.0601 0.138 0.0039, 0.0658 0.1301 0.0039, 0.0581 0.1275 0.0039, 0.0581 0.1275 0.0039
            ]
        }
        coordIndex [
            0,1,2,-1,2,1,3,-1,2,3,4,-1,4,3,5,-1,4,5,6,-1,6,5,7,-1,6,7,8,-1,9,10,11,-1,11,10,12,-1,11,12,13,-1,13,12,14,-1,13,14,15,-1,15,14,16,-1,15,16,17,-1,17,16,18,-1,17,18,19,-1,19,18,20,-1,19,20,21,-1,21,20,22,-1,21,22,23,-1,23,22,24,-1,23,24,25,-1,25,24,26,-1,25,26,27,-1,27,26,28,-1,27,28,29,-1,29,28,30,-1,29,30,31,-1,31,30,32,-1,31,32,33,-1,33,32,34,-1,33,34,35,-1,35,34,36,-1,35,36,37,-1,37,36,38,-1,37,38,0,-1,0,38,39,-1,0,39,1,-1,
        ]
    }
}
Shape{
    appearance Appearance {
        material  Material 	{
            diffuseColor 1.0 1.0 1.0
            specularColor 0.30196078431372547 0.30196078431372547 0.30196078431372547
            ambientIntensity 0.2
            transparency 0
            shininess 0.5
        }
    }
    geometry IndexedFaceSet {
        ccw TRUE
        solid FALSE
        coord DEF co Coordinate {
            point [
                0.0114 0.2062 0.0039, 0.0114 0.2062 0.0, 0.0114 0.1274 0.0039, 0.0114 0.1274 0.0, -0.0289 0.2062 0.0039, -0.0289 0.2062 0.0, -0.0289 0.2062 0.0
            ]
        }
        coordIndex [
            0,1,2,-1,2,1,3,-1,4,5,0,-1,0,5,1,-1,
        ]
    }
}
Shape{
    appearance Appearance {
        material  Material 	{
            diffuseColor 1.0 1.0 1.0
            specularColor 0.8784313725490196 0.8784313725490196 0.8784313725490196
            ambientIntensity 0.2
            transparency 0
            shininess 0.5
        }
    }
    geometry IndexedFaceSet {
        ccw TRUE
        solid FALSE
        coord DEF co Coordinate {
            point [
                -0.0289 0.1975 0.0039, -0.0289 0.1975 0.0, -0.0289 0.2062 0.0039, -0.0289 0.2062 0.0, 0.0009 0.1975 0.0039, 0.0009 0.1975 0.0, 0.0009 0.1975 0.0
            ]
        }
        coordIndex [
            0,1,2,-1,2,1,3,-1,4,5,0,-1,0,5,1,-1,
        ]
    }
}
Shape{
    appearance Appearance {
        material  Material 	{
            diffuseColor 1.0 1.0 1.0
            specularColor 0.30196078431372547 0.30196078431372547 0.30196078431372547
            ambientIntensity 0.2
            transparency 0
            shininess 0.5
        }
    }
    geometry IndexedFaceSet {
        ccw TRUE
        solid FALSE
        coord DEF co Coordinate {
            point [
                0.0009 0.1716 0.0039, 0.0009 0.1716 0.0, 0.0009 0.1975 0.0039, 0.0009 0.1975 0.0, 0.0009 0.1975 0.0
            ]
        }
        coordIndex [
            0,1,2,-1,2,1,3,-1,
        ]
    }
}
Shape{
    appearance Appearance {
        material  Material 	{
            diffuseColor 1.0 1.0 1.0
            specularColor 0.8784313725490196 0.8784313725490196 0.8784313725490196
            ambientIntensity 0.2
            transparency 0
            shininess 0.5
        }
    }
    geometry IndexedFaceSet {
        ccw TRUE
        solid FALSE
        coord DEF co Coordinate {
            point [
                -0.027 0.1716 0.0039, -0.027 0.1716 0.0, 0.0009 0.1716 0.0039, 0.0009 0.1716 0.0, -0.027 0.163 0.0039, -0.027 0.163 0.0, 0.0009 0.163 0.0039, 0.0009 0.163 0.0, 0.0009 0.163 0.0
            ]
        }
        coordIndex [
            0,1,2,-1,2,1,3,-1,4,5,0,-1,0,5,1,-1,6,7,4,-1,4,7,5,-1,
        ]
    }
}
Shape{
    appearance Appearance {
        material  Material 	{
            diffuseColor 1.0 1.0 1.0
            specularColor 0.30196078431372547 0.30196078431372547 0.30196078431372547
            ambientIntensity 0.2
            transparency 0
            shininess 0.5
        }
    }
    geometry IndexedFaceSet {
        ccw TRUE
        solid FALSE
        coord DEF co Coordinate {
            point [
                0.0009 0.1361 0.0039, 0.0009 0.1361 0.0, 0.0009 0.163 0.0039, 0.0009 0.163 0.0, -0.0308 0.1361 0.0039, -0.0308 0.1361 0.0, -0.0308 0.1361 0.0
            ]
        }
        coordIndex [
            0,1,2,-1,2,1,3,-1,4,5,0,-1,0,5,1,-1,
        ]
    }
}
Shape{
    appearance Appearance {
        material  Material 	{
            diffuseColor 1.0 1.0 1.0
            specularColor 0.8784313725490196 0.8784313725490196 0.8784313725490196
            ambientIntensity 0.2
            transparency 0
            shininess 0.5
        }
    }
    geometry IndexedFaceSet {
        ccw TRUE
        solid FALSE
        coord DEF co Coordinate {
            point [
                -0.0308 0.1274 0.0039, -0.0308 0.1274 0.0, -0.0308 0.1361 0.0039, -0.0308 0.1361 0.0, 0.0114 0.1274 0.0039, 0.0114 0.1274 0.0, 0.0009 0.1361 0.0039, 0.0009 0.163 0.0039, 0.0114 0.2062 0.0039, -0.0289 0.1975 0.0039, -0.0289 0.2062 0.0039, 0.0009 0.1975 0.0039, 0.0009 0.1716 0.0039, -0.027 0.1716 0.0039, -0.027 0.163 0.0039, -0.0684 0.2062 0.0039, -0.0684 0.2062 0.0, -0.0462 0.2062 0.0039, -0.0462 0.2062 0.0, -0.0798 0.2049 0.0039, -0.0798 0.2049 0.0, -0.089 0.2017 0.0039, -0.089 0.2017 0.0, -0.0968 0.1966 0.0039, -0.0968 0.1966 0.0, -0.0999 0.1938 0.0039, -0.0999 0.1938 0.0, -0.1046 0.1876 0.0039, -0.1046 0.1876 0.0, -0.1079 0.18 0.0039, -0.1079 0.18 0.0, -0.1094 0.1717 0.0039, -0.1094 0.1717 0.0, -0.1096 0.1678 0.0039, -0.1096 0.1678 0.0, -0.1085 0.1572 0.0039, -0.1085 0.1572 0.0, -0.1057 0.149 0.0039, -0.1057 0.149 0.0, -0.1012 0.1421 0.0039, -0.1012 0.1421 0.0, -0.0948 0.1359 0.0039, -0.0948 0.1359 0.0, -0.0866 0.1311 0.0039, -0.0866 0.1311 0.0, -0.0776 0.1283 0.0039, -0.0776 0.1283 0.0, -0.0676 0.1274 0.0039, -0.0676 0.1274 0.0, -0.0462 0.1274 0.0039, -0.0462 0.1274 0.0, -0.099 0.1676 0.0039, -0.0983 0.1754 0.0039, -0.0965 0.1816 0.0039, -0.0938 0.1864 0.0039, -0.09 0.1905 0.0039, -0.0842 0.1942 0.0039, -0.0777 0.1965 0.0039, -0.0684 0.1975 0.0039, -0.0568 0.1975 0.0039, -0.0568 0.1361 0.0039, -0.0679 0.1361 0.0039, -0.0763 0.1368 0.0039, -0.0829 0.1389 0.0039, -0.0882 0.1421 0.0039, -0.0927 0.1464 0.0039, -0.096 0.1518 0.0039, -0.098 0.1581 0.0039, -0.0679 0.1361 0.0, -0.0568 0.1361 0.0, -0.0763 0.1368 0.0, -0.0829 0.1389 0.0, -0.0882 0.1421 0.0, -0.0927 0.1464 0.0, -0.096 0.1518 0.0, -0.098 0.1581 0.0, -0.099 0.1676 0.0, -0.0983 0.1754 0.0, -0.0965 0.1816 0.0, -0.0938 0.1864 0.0, -0.09 0.1905 0.0, -0.0842 0.1942 0.0, -0.0777 0.1965 0.0, -0.0684 0.1975 0.0, -0.0568 0.1975 0.0, -0.137 0.1581 0.0039, -0.1488 0.191 0.0039, -0.1451 0.2062 0.0039, -0.1153 0.1274 0.0039, -0.1269 0.1274 0.0039, -0.1344 0.1495 0.0039, -0.1495 0.1938 0.0039, -0.15 0.1966 0.0039, -0.1557 0.2062 0.0039, -0.1503 0.1966 0.0039, -0.1508 0.1938 0.0039, -0.1515 0.191 0.0039, -0.1634 0.1581 0.0039, -0.1864 0.1274 0.0039, -0.1749 0.1274 0.0039, -0.1669 0.1495 0.0039, -0.1669 0.1495 0.0, -0.1749 0.1274 0.0, -0.1344 0.1495 0.0, -0.1269 0.1274 0.0, -0.1153 0.1274 0.0, -0.1451 0.2062 0.0, -0.1557 0.2062 0.0, -0.1864 0.1274 0.0, -0.1515 0.191 0.0, -0.1508 0.1938 0.0, -0.1503 0.1966 0.0, -0.15 0.1966 0.0, -0.1495 0.1938 0.0, -0.1488 0.191 0.0, -0.137 0.1581 0.0, -0.1634 0.1581 0.0, -0.1634 0.1581 0.0
            ]
        }
        coordIndex [
            0,1,2,-1,2,1,3,-1,0,4,1,-1,1,4,5,-1,4,0,2,-1,2,6,4,-1,4,6,7,-1,4,7,8,-1,9,10,11,-1,11,10,8,-1,11,8,12,-1,12,8,7,-1,12,7,13,-1,13,7,14,-1,15,16,17,-1,17,16,18,-1,16,15,19,-1,16,19,20,-1,20,19,21,-1,20,21,22,-1,22,21,23,-1,22,23,24,-1,24,23,25,-1,24,25,26,-1,26,25,27,-1,26,27,28,-1,28,27,29,-1,28,29,30,-1,30,29,31,-1,30,31,32,-1,32,31,33,-1,32,33,34,-1,34,33,35,-1,34,35,36,-1,36,35,37,-1,36,37,38,-1,38,37,39,-1,38,39,40,-1,40,39,41,-1,40,41,42,-1,42,41,43,-1,42,43,44,-1,44,43,45,-1,44,45,46,-1,46,45,47,-1,46,47,48,-1,49,50,47,-1,47,50,48,-1,49,17,50,-1,50,17,18,-1,35,33,51,-1,51,33,31,-1,51,31,52,-1,52,31,29,-1,52,29,53,-1,53,29,27,-1,53,27,54,-1,54,27,25,-1,54,25,55,-1,55,25,23,-1,55,23,56,-1,56,23,21,-1,56,21,57,-1,57,21,19,-1,57,19,58,-1,58,19,15,-1,58,15,59,-1,59,15,17,-1,59,17,60,-1,60,17,49,-1,60,49,61,-1,61,49,47,-1,61,47,62,-1,62,47,45,-1,62,45,63,-1,63,45,43,-1,63,43,64,-1,64,43,41,-1,64,41,65,-1,65,41,39,-1,65,39,66,-1,66,39,37,-1,66,37,67,-1,67,37,35,-1,67,35,51,-1,61,68,60,-1,60,68,69,-1,68,61,62,-1,68,62,70,-1,70,62,63,-1,70,63,71,-1,71,63,64,-1,71,64,72,-1,72,64,65,-1,72,65,73,-1,73,65,66,-1,73,66,74,-1,74,66,67,-1,74,67,75,-1,75,67,51,-1,75,51,76,-1,76,51,52,-1,76,52,77,-1,77,52,53,-1,77,53,78,-1,78,53,54,-1,78,54,79,-1,79,54,55,-1,79,55,80,-1,80,55,56,-1,80,56,81,-1,81,56,57,-1,81,57,82,-1,82,57,58,-1,82,58,83,-1,59,84,58,-1,58,84,83,-1,69,84,60,-1,60,84,59,-1,85,86,87,-1,88,89,90,-1,86,91,87,-1,87,91,92,-1,87,92,93,-1,93,92,94,-1,93,94,95,-1,95,96,93,-1,93,96,97,-1,93,97,98,-1,99,98,100,-1,100,98,97,-1,100,97,90,-1,90,97,85,-1,90,85,88,-1,88,85,87,-1,100,101,99,-1,99,101,102,-1,90,103,100,-1,100,103,101,-1,89,104,90,-1,90,104,103,-1,88,105,89,-1,89,105,104,-1,87,106,88,-1,88,106,105,-1,93,107,87,-1,87,107,106,-1,98,108,93,-1,93,108,107,-1,98,99,108,-1,108,99,102,-1,109,96,95,-1,109,95,110,-1,110,95,94,-1,110,94,111,-1,92,112,94,-1,94,112,111,-1,112,92,91,-1,112,91,113,-1,113,91,86,-1,113,86,114,-1,85,115,86,-1,86,115,114,-1,97,116,85,-1,85,116,115,-1,109,116,96,-1,96,116,97,-1,
        ]
    }
}
Shape{
    appearance Appearance {
        material  Material 	{
            diffuseColor 0.10980392156862745 0.10980392156862745 0.10980392156862745
            specularColor 0.0784313725490196 0.0784313725490196 0.0784313725490196
            ambientIntensity 0.2
            transparency 0
            shininess 0.5
        }
    }
    geometry IndexedFaceSet {
        ccw TRUE
        solid FALSE
        coord DEF co Coordinate {
            point [
                -0.0568 0.1975 0.0, -0.0568 0.1361 0.0, -0.0684 0.1975 0.0, -0.0679 0.1361 0.0, -0.098 0.1581 0.0, -0.099 0.1676 0.0, -0.0983 0.1754 0.0, -0.0965 0.1816 0.0, -0.0777 0.1965 0.0, -0.0763 0.1368 0.0, -0.0829 0.1389 0.0, -0.0882 0.1421 0.0, -0.0938 0.1864 0.0, -0.09 0.1905 0.0, -0.0842 0.1942 0.0, -0.0927 0.1464 0.0, -0.096 0.1518 0.0, -0.137 0.1581 0.0, -0.1634 0.1581 0.0, -0.1488 0.191 0.0, -0.1515 0.191 0.0, -0.1495 0.1938 0.0, -0.1508 0.1938 0.0, -0.15 0.1966 0.0, -0.1503 0.1966 0.0, -0.1503 0.1966 0.0
            ]
        }
        coordIndex [
            0,1,2,-1,2,1,3,-1,4,5,2,-1,5,6,2,-1,2,6,7,-1,2,7,8,-1,3,9,2,-1,2,9,10,-1,2,10,11,-1,12,13,7,-1,7,13,14,-1,7,14,8,-1,11,15,2,-1,2,15,16,-1,2,16,4,-1,17,18,19,-1,19,18,20,-1,19,20,21,-1,21,20,22,-1,21,22,23,-1,23,22,24,-1,
        ]
    }
}
Shape{
    appearance Appearance {
        material  Material 	{
            diffuseColor 0.7764705882352941 0.7568627450980392 0.7372549019607844
            specularColor 0.38823529411764707 0.3764705882352941 0.3686274509803922
            ambientIntensity 0.2
            transparency 0
            shininess 0.5
        }
    }
    geometry IndexedFaceSet {
        ccw TRUE
        solid FALSE
        coord DEF co Coordinate {
            point [
                -0.3346 1.0433 -0.7874, -0.4528 1.0433 -0.7874, -0.3346 1.122 -0.7874, -0.4528 1.122 -0.7874, -0.2756 1.0433 -0.5512, -0.2756 1.122 -0.5512, -0.2756 1.0433 0.2756, -0.2756 1.122 0.315, -0.2756 1.1207 0.3252, -0.2756 1.1168 0.3346, -0.2756 1.1105 0.3428, -0.5118 1.0433 -0.5512, -0.5118 1.0433 0.2756, -0.5118 1.1105 0.3428, -0.5118 1.1168 0.3346, -0.5118 1.122 -0.5512, -0.5118 1.122 0.315, -0.5118 1.1207 0.3252, -0.5118 1.0827 0.3543, -0.5118 1.0039 0.3543, -0.2756 1.0827 0.3543, -0.2756 1.0039 0.3543, -0.5118 1.0039 0.2756, -0.5118 1.0929 0.353, -0.5118 1.1024 0.3491, -0.2756 1.0039 0.2756, -0.2756 1.1024 0.3491, -0.2756 1.0929 0.353, 0.4528 1.0433 -0.7874, 0.3346 1.0433 -0.7874, 0.4528 1.122 -0.7874, 0.3346 1.122 -0.7874, 0.5118 1.0433 -0.5512, 0.5118 1.122 -0.5512, 0.5118 1.0433 0.2756, 0.5118 1.122 0.315, 0.5118 1.1207 0.3252, 0.5118 1.1168 0.3346, 0.5118 1.1105 0.3428, 0.2756 1.0433 -0.5512, 0.2756 1.0433 0.2756, 0.2756 1.1105 0.3428, 0.2756 1.1168 0.3346, 0.2756 1.122 -0.5512, 0.2756 1.122 0.315, 0.2756 1.1207 0.3252, 0.2756 1.0827 0.3543, 0.2756 1.0039 0.3543, 0.5118 1.0827 0.3543, 0.5118 1.0039 0.3543, 0.2756 1.0039 0.2756, 0.2756 1.0929 0.353, 0.2756 1.1024 0.3491, 0.5118 1.0039 0.2756, 0.5118 1.1024 0.3491, 0.5118 1.0929 0.353, -1.2402 0.6299 -0.7874, -1.2402 0.748 -0.7874, -1.1614 0.6299 -0.7874, -1.1614 0.748 -0.7874, -1.1614 0.5709 -0.5512, -1.1614 0.8071 -0.5512, -1.1614 0.5709 0.2756, -1.1614 0.8071 0.2756, -1.2286 0.5709 0.3428, -1.2349 0.5709 0.3346, -1.2402 0.5709 -0.5512, -1.2402 0.5709 0.315, -1.2388 0.5709 0.3252, -1.2402 0.8071 0.315, -1.2402 0.8071 -0.5512, -1.2388 0.8071 0.3252, -1.2349 0.8071 0.3346, -1.2286 0.8071 0.3428, -1.2205 0.8071 0.3491, -1.1417 0.8071 0.3543, -1.1417 0.8071 0.2756, -1.2008 0.8071 0.3543, -1.211 0.8071 0.353, -1.2008 0.5709 0.3543, -1.1417 0.5709 0.3543, -1.1417 0.5709 0.2756, -1.211 0.5709 0.353, -1.2205 0.5709 0.3491, -1.2402 -0.1575 -0.7874, -1.2402 -0.0394 -0.7874, -1.1614 -0.1575 -0.7874, -1.1614 -0.0394 -0.7874, -1.1614 0.0197 -0.5512, -1.2402 0.0197 -0.5512, -1.1614 0.0197 0.2756, -1.2402 0.0197 0.315, -1.2388 0.0197 0.3252, -1.2349 0.0197 0.3346, -1.2286 0.0197 0.3428, -1.1614 -0.2165 -0.5512, -1.1614 -0.2165 0.2756, -1.2286 -0.2165 0.3428, -1.2349 -0.2165 0.3346, -1.2402 -0.2165 -0.5512, -1.2402 -0.2165 0.315, -1.2388 -0.2165 0.3252, -1.2008 -0.2165 0.3543, -1.1417 -0.2165 0.3543, -1.2008 0.0197 0.3543, -1.1417 0.0197 0.3543, -1.1417 -0.2165 0.2756, -1.211 -0.2165 0.353, -1.2205 -0.2165 0.3491, -1.1417 0.0197 0.2756, -1.2205 0.0197 0.3491, -1.211 0.0197 0.353, 1.1614 0.6299 -0.7874, 1.1614 0.748 -0.7874, 1.2402 0.6299 -0.7874, 1.2402 0.748 -0.7874, 1.2402 0.5709 -0.5512, 1.2402 0.8071 -0.5512, 1.2402 0.5709 0.315, 1.2402 0.8071 0.315, 1.1614 0.5709 -0.5512, 1.1614 0.5709 0.2756, 1.2388 0.5709 0.3252, 1.2349 0.5709 0.3346, 1.2286 0.5709 0.3428, 1.1614 0.8071 0.2756, 1.1614 0.8071 -0.5512, 1.2286 0.8071 0.3428, 1.2349 0.8071 0.3346, 1.2388 0.8071 0.3252, 1.1417 0.8071 0.2756, 1.1417 0.8071 0.3543, 1.2008 0.8071 0.3543, 1.211 0.8071 0.353, 1.2205 0.8071 0.3491, 1.1417 0.5709 0.2756, 1.2205 0.5709 0.3491, 1.1417 0.5709 0.3543, 1.2008 0.5709 0.3543, 1.211 0.5709 0.353, 1.1614 -0.1575 -0.7874, 1.1614 -0.0394 -0.7874, 1.2402 -0.1575 -0.7874, 1.2402 -0.0394 -0.7874, 1.1614 -0.2165 -0.5512, 1.2402 -0.2165 -0.5512, 1.1614 -0.2165 0.2756, 1.2402 -0.2165 0.315, 1.2388 -0.2165 0.3252, 1.2349 -0.2165 0.3346, 1.2286 -0.2165 0.3428, 1.1614 0.0197 0.2756, 1.1614 0.0197 -0.5512, 1.2286 0.0197 0.3428, 1.2349 0.0197 0.3346, 1.2402 0.0197 -0.5512, 1.2402 0.0197 0.315, 1.2388 0.0197 0.3252, 1.2008 0.0197 0.3543, 1.1417 0.0197 0.3543, 1.2008 -0.2165 0.3543, 1.1417 -0.2165 0.3543, 1.1417 0.0197 0.2756, 1.211 0.0197 0.353, 1.2205 0.0197 0.3491, 1.1417 -0.2165 0.2756, 1.2205 -0.2165 0.3491, 1.211 -0.2165 0.353, 1.211 -0.2165 0.353
            ]
        }
        coordIndex [
            0,1,2,-1,2,1,3,-1,4,5,6,-1,6,5,7,-1,7,8,6,-1,6,8,9,-1,6,9,10,-1,1,0,11,-1,11,0,4,-1,11,4,12,-1,12,4,6,-1,12,13,14,-1,15,11,16,-1,16,11,12,-1,16,12,17,-1,17,12,14,-1,16,7,15,-1,15,7,5,-1,15,5,3,-1,3,5,2,-1,18,19,20,-1,20,19,21,-1,22,19,12,-1,12,19,18,-1,18,23,12,-1,12,23,24,-1,12,24,13,-1,6,25,12,-1,12,25,22,-1,21,25,20,-1,20,25,6,-1,10,26,6,-1,6,26,27,-1,6,27,20,-1,28,29,30,-1,30,29,31,-1,32,33,34,-1,34,33,35,-1,35,36,34,-1,34,36,37,-1,34,37,38,-1,29,28,39,-1,39,28,32,-1,39,32,40,-1,40,32,34,-1,40,41,42,-1,43,39,44,-1,44,39,40,-1,44,40,45,-1,45,40,42,-1,44,35,43,-1,43,35,33,-1,43,33,31,-1,31,33,30,-1,46,47,48,-1,48,47,49,-1,50,47,40,-1,40,47,46,-1,46,51,40,-1,40,51,52,-1,40,52,41,-1,34,53,40,-1,40,53,50,-1,34,38,54,-1,49,53,48,-1,48,53,34,-1,48,34,55,-1,55,34,54,-1,56,57,58,-1,58,57,59,-1,58,59,60,-1,60,59,61,-1,60,61,62,-1,62,61,63,-1,62,64,65,-1,66,60,67,-1,67,60,62,-1,67,62,68,-1,68,62,65,-1,67,69,66,-1,66,69,70,-1,66,70,56,-1,56,70,57,-1,61,70,63,-1,63,70,69,-1,69,71,63,-1,63,71,72,-1,63,72,73,-1,63,73,74,-1,75,76,77,-1,77,76,63,-1,77,63,78,-1,78,63,74,-1,79,80,77,-1,77,80,75,-1,81,80,62,-1,62,80,79,-1,79,82,62,-1,62,82,83,-1,62,83,64,-1,63,76,62,-1,62,76,81,-1,84,85,86,-1,86,85,87,-1,88,89,90,-1,90,89,91,-1,91,92,90,-1,90,92,93,-1,90,93,94,-1,86,87,95,-1,95,87,88,-1,95,88,96,-1,96,88,90,-1,96,97,98,-1,99,95,100,-1,100,95,96,-1,100,96,101,-1,101,96,98,-1,100,91,99,-1,99,91,89,-1,99,89,84,-1,84,89,85,-1,102,103,104,-1,104,103,105,-1,106,103,96,-1,96,103,102,-1,102,107,96,-1,96,107,108,-1,96,108,97,-1,90,109,96,-1,96,109,106,-1,90,94,110,-1,105,109,104,-1,104,109,90,-1,104,90,111,-1,111,90,110,-1,112,113,114,-1,114,113,115,-1,114,115,116,-1,116,115,117,-1,116,117,118,-1,118,117,119,-1,120,116,121,-1,121,116,118,-1,118,122,121,-1,121,122,123,-1,121,123,124,-1,121,125,120,-1,120,125,126,-1,120,126,112,-1,112,126,113,-1,125,127,128,-1,117,126,119,-1,119,126,125,-1,119,125,129,-1,129,125,128,-1,130,131,125,-1,125,131,132,-1,132,133,125,-1,125,133,134,-1,125,134,127,-1,121,135,125,-1,125,135,130,-1,121,124,136,-1,137,135,138,-1,138,135,121,-1,138,121,139,-1,139,121,136,-1,132,131,138,-1,138,131,137,-1,140,141,142,-1,142,141,143,-1,144,145,146,-1,146,145,147,-1,147,148,146,-1,146,148,149,-1,146,149,150,-1,146,151,144,-1,144,151,152,-1,144,152,140,-1,140,152,141,-1,151,153,154,-1,155,152,156,-1,156,152,151,-1,156,151,157,-1,157,151,154,-1,142,143,145,-1,145,143,155,-1,145,155,147,-1,147,155,156,-1,158,159,160,-1,160,159,161,-1,162,159,151,-1,151,159,158,-1,158,163,151,-1,151,163,164,-1,151,164,153,-1,146,165,151,-1,151,165,162,-1,146,150,166,-1,161,165,160,-1,160,165,146,-1,160,146,167,-1,167,146,166,-1,91,100,101,-1,91,101,92,-1,92,101,98,-1,92,98,93,-1,93,98,97,-1,93,97,94,-1,94,97,108,-1,94,108,110,-1,110,108,107,-1,110,107,111,-1,111,107,102,-1,111,102,104,-1,69,67,68,-1,69,68,71,-1,71,68,65,-1,71,65,72,-1,72,65,64,-1,72,64,73,-1,73,64,83,-1,73,83,74,-1,74,83,82,-1,74,82,78,-1,78,82,79,-1,78,79,77,-1,7,16,17,-1,7,17,8,-1,8,17,14,-1,8,14,9,-1,9,14,13,-1,9,13,10,-1,10,13,24,-1,10,24,26,-1,26,24,23,-1,26,23,27,-1,27,23,18,-1,27,18,20,-1,35,44,45,-1,35,45,36,-1,36,45,42,-1,36,42,37,-1,37,42,41,-1,37,41,38,-1,38,41,52,-1,38,52,54,-1,54,52,51,-1,54,51,55,-1,55,51,46,-1,55,46,48,-1,118,119,129,-1,118,129,122,-1,122,129,128,-1,122,128,123,-1,123,128,127,-1,123,127,124,-1,124,127,134,-1,124,134,136,-1,136,134,133,-1,136,133,139,-1,139,133,132,-1,139,132,138,-1,147,156,157,-1,147,157,148,-1,148,157,154,-1,148,154,149,-1,149,154,153,-1,149,153,150,-1,150,153,164,-1,150,164,166,-1,166,164,163,-1,166,163,167,-1,167,163,158,-1,167,158,160,-1,99,84,95,-1,95,84,86,-1,88,87,89,-1,89,87,85,-1,66,56,60,-1,60,56,58,-1,61,59,70,-1,70,59,57,-1,144,140,145,-1,145,140,142,-1,155,143,152,-1,152,143,141,-1,120,112,116,-1,116,112,114,-1,117,115,126,-1,126,115,113,-1,32,28,33,-1,33,28,30,-1,43,31,39,-1,39,31,29,-1,4,0,5,-1,5,0,2,-1,15,3,11,-1,11,3,1,-1,
        ]
    }
}