#VRML V2.0 utf8
# 3D model generated by easyeda2kicad.py (https://github.com/uPesy/easyeda2kicad.py)

Shape{
    appearance Appearance {
        material  Material 	{
            diffuseColor 0.7529411764705882 0.7529411764705882 0.7529411764705882
            specularColor 0.3764705882352941 0.3764705882352941 0.3764705882352941
            ambientIntensity 0.2
            transparency 0
            shininess 0.5
        }
    }
    geometry IndexedFaceSet {
        ccw TRUE
        solid FALSE
        coord DEF co Coordinate {
            point [
                -1.065 -0.4134 -0.1457, -1.2795 -0.4134 -0.1457, -1.2795 -0.0575 -0.1457, 0.0607 0.0498 -0.1457, 0.0723 0.0485 -0.1457, 0.0351 -0.0389 -0.1457, 0.0575 -0.0575 -0.1457, 0.0215 -0.0575 -0.1457, 0.0456 -0.0558 -0.1457, 0.033 -0.0507 -0.1457, 0.1915 -0.0568 -0.1457, 0.0725 -0.0575 -0.1457, 0.131 -0.0568 -0.1457, 0.0801 -0.0567 -0.1457, 0.0915 -0.0528 -0.1457, 0.0463 0.0479 -0.1457, 0.033 -0.0377 -0.1457, 0.033 0.0422 -0.1457, 0.0215 0.6594 -0.1457, 0.033 0.0581 -0.1457, 0.0812 0.0453 -0.1457, 0.0893 0.0398 -0.1457, 0.0965 0.032 -0.1457, 0.105 0.001 -0.1457, 0.1038 -0.0118 -0.1457, 0.1006 -0.0219 -0.1457, 0.0744 -0.044 -0.1457, 0.0633 -0.0453 -0.1457, 0.083 -0.0409 -0.1457, 0.0902 -0.036 -0.1457, 0.0958 -0.0301 -0.1457, 0.0477 -0.0435 -0.1457, 0.1013 0.0228 -0.1457, 0.1045 0.0102 -0.1457, 0.101 -0.0467 -0.1457, 0.1099 -0.0374 -0.1457, 0.131 -0.0438 -0.1457, 0.1162 -0.0261 -0.1457, 0.1756 -0.0438 -0.1457, 0.1077 0.0413 -0.1457, 0.0971 0.0515 -0.1457, 0.0858 0.058 -0.1457, 0.0727 0.0618 -0.1457, 0.1197 -0.0136 -0.1457, 0.1209 0.0 -0.1457, 0.1756 0.0613 -0.1457, 0.1192 0.0168 -0.1457, 0.1147 0.0302 -0.1457, 0.0608 0.0628 -0.1457, 0.0467 0.0618 -0.1457, 0.0623 -0.0582 -0.1457, 0.0655 -0.0582 -0.1457, 0.0215 -0.6594 -0.1457, 0.1915 0.0613 -0.1457, 0.4921 0.6594 -0.1457, 0.4921 -0.0575 -0.1457, 0.4921 -0.6594 -0.1457, -1.065 -0.6594 -0.1457, -0.0505 0.0613 -0.1457, -1.065 0.6594 -0.1457, 0.01 0.0613 -0.1457, -0.1802 -0.0568 -0.1457, -0.1656 -0.0244 -0.1457, -0.1588 -0.035 -0.1457, -0.2867 -0.0568 -0.1457, -1.065 0.4134 -0.1457, -0.2406 0.0613 -0.1457, -0.2248 0.0613 -0.1457, -0.0059 0.0484 -0.1457, -0.0059 0.0095 -0.1457, -0.0505 0.0484 -0.1457, -0.0476 0.0095 -0.1457, -0.0476 -0.0035 -0.1457, -0.0764 -0.0568 -0.1457, -0.0764 0.0613 -0.1457, -0.1491 -0.0443 -0.1457, -0.1368 -0.0514 -0.1457, -0.1232 -0.0555 -0.1457, -0.1268 0.0595 -0.1457, -0.1407 0.0547 -0.1457, -0.1535 0.046 -0.1457, -0.1098 0.0613 -0.1457, -0.2695 -0.0568 -0.1457, -0.1086 -0.0568 -0.1457, -0.1536 0.0459 -0.1457, -0.162 0.0367 -0.1457, -0.1675 0.0265 -0.1457, -0.1706 0.0149 -0.1457, -0.1715 0.0038 -0.1457, -0.1699 -0.012 -0.1457, -1.2795 0.4134 -0.1457, -0.0059 -0.0035 -0.1457, -0.0059 -0.0438 -0.1457, -0.0534 -0.0438 -0.1457, -0.0534 -0.0568 -0.1457, 0.01 -0.0568 -0.1457, -0.2575 -0.0237 -0.1457, -0.2087 -0.0237 -0.1457, -0.1974 -0.0568 -0.1457, -0.1974 -0.0568 -0.1457
            ]
        }
        coordIndex [
            0,1,2,-1,3,4,5,-1,6,7,8,-1,8,7,9,-1,10,11,12,-1,12,11,13,-1,12,13,14,-1,3,5,15,-1,15,5,16,-1,15,16,17,-1,17,16,18,-1,17,18,19,-1,4,20,5,-1,5,20,21,-1,5,21,22,-1,23,24,5,-1,5,24,25,-1,26,27,28,-1,28,27,29,-1,25,30,5,-1,5,30,29,-1,5,29,31,-1,31,29,27,-1,22,32,5,-1,5,32,33,-1,5,33,23,-1,14,34,12,-1,12,34,35,-1,12,35,36,-1,36,35,37,-1,36,37,38,-1,39,40,18,-1,18,40,41,-1,18,41,42,-1,37,43,38,-1,38,43,44,-1,38,44,45,-1,45,44,46,-1,45,46,47,-1,42,48,18,-1,18,48,49,-1,18,49,19,-1,50,51,52,-1,52,51,11,-1,47,39,45,-1,45,39,18,-1,45,18,53,-1,53,18,54,-1,53,54,10,-1,10,54,55,-1,10,55,11,-1,11,55,56,-1,11,56,52,-1,57,7,52,-1,52,7,6,-1,52,6,50,-1,58,59,60,-1,60,59,18,-1,60,18,7,-1,7,18,16,-1,7,16,9,-1,61,62,63,-1,64,65,66,-1,66,65,59,-1,66,59,67,-1,68,69,70,-1,70,69,71,-1,72,73,71,-1,71,73,74,-1,71,74,70,-1,63,75,61,-1,61,75,76,-1,61,76,77,-1,78,79,67,-1,67,79,80,-1,78,67,81,-1,81,67,59,-1,81,59,74,-1,74,59,58,-1,74,58,70,-1,64,82,7,-1,7,83,73,-1,80,84,67,-1,67,84,85,-1,67,85,86,-1,86,87,67,-1,67,87,88,-1,67,88,61,-1,61,88,89,-1,61,89,62,-1,57,0,7,-1,7,0,2,-1,7,2,64,-1,64,2,90,-1,64,90,65,-1,91,92,72,-1,72,92,93,-1,72,93,73,-1,73,93,94,-1,73,94,7,-1,7,94,95,-1,7,95,60,-1,96,97,82,-1,82,97,98,-1,82,98,7,-1,7,98,61,-1,7,61,83,-1,83,61,77,-1,
        ]
    }
}
Shape{
    appearance Appearance {
        material  Material 	{
            diffuseColor 0.25098039215686274 0.25098039215686274 0.25098039215686274
            specularColor 0.12549019607843137 0.12549019607843137 0.12549019607843137
            ambientIntensity 0.2
            transparency 0
            shininess 0.5
        }
    }
    geometry IndexedFaceSet {
        ccw TRUE
        solid FALSE
        coord DEF co Coordinate {
            point [
                1.1634 -0.1673 0.0, 1.1634 -0.1673 -0.1378, 1.1634 0.1673 0.0, 1.1634 0.1673 -0.1378, 1.1634 0.874 -0.1378, 1.1634 0.874 0.0, 1.1634 0.6594 -0.1378, 1.1634 0.6594 0.0, -1.1634 -0.874 -0.1378, -1.1634 -0.874 0.0, -1.1634 -0.4134 -0.1378, -1.1634 -0.4134 0.0, 1.1376 0.8482 0.2953, 1.1634 -0.874 0.0, 1.1634 -0.6594 -0.0, 1.1376 -0.8482 0.2953, -1.1376 0.8482 0.2953, -1.1634 0.874 0.0, -1.1634 0.4134 0.0, -1.1376 -0.8482 0.2953, 0.9879 -0.7027 0.2953, 0.9808 -0.72 0.2953, 0.9693 -0.7349 0.2953, 0.9545 -0.7463 0.2953, 0.9371 -0.7535 0.2953, 0.9879 -0.6655 0.2953, 0.9904 -0.6841 0.2953, 0.8563 -0.72 0.2953, 0.8492 -0.7027 0.2953, 0.8678 -0.7349 0.2953, 0.8563 -0.6482 0.2953, 0.8492 -0.6655 0.2953, 0.8467 -0.6841 0.2953, 0.9185 -0.756 0.2953, 0.9 -0.7535 0.2953, 0.8826 -0.7463 0.2953, 0.9 -0.6147 0.2953, 0.8826 -0.6219 0.2953, 0.8678 -0.6333 0.2953, 0.9185 -0.6123 0.2953, 0.9371 -0.6147 0.2953, 0.9545 -0.6219 0.2953, 0.9693 -0.6333 0.2953, 0.9808 -0.6482 0.2953, 1.1634 -0.874 -0.1378, 1.1634 -0.6594 -0.1378, -1.1634 0.874 -0.1378, -1.1634 0.4134 -0.1378, 0.8465 -0.6594 -0.1378, 0.8465 0.1673 -0.1378, 0.4921 -0.6594 -0.1378, 0.8465 0.6594 -0.1378, 0.4921 0.6594 -0.1378, -1.065 0.4134 -0.1378, -1.065 0.6594 -0.1378, -1.065 -0.4134 -0.1378, -1.065 -0.6594 -0.1378, 0.8465 -0.1673 -0.1378, 0.8465 -0.1673 -0.1378
            ]
        }
        coordIndex [
            0,1,2,-1,2,1,3,-1,4,5,6,-1,6,5,7,-1,8,9,10,-1,10,9,11,-1,7,5,12,-1,13,14,15,-1,15,14,0,-1,15,0,12,-1,12,0,2,-1,12,2,7,-1,16,12,17,-1,17,12,5,-1,16,17,18,-1,16,18,19,-1,19,18,11,-1,19,11,9,-1,15,19,13,-1,13,19,9,-1,15,20,21,-1,21,22,15,-1,15,22,23,-1,15,23,24,-1,12,25,15,-1,15,25,26,-1,15,26,20,-1,19,27,28,-1,27,19,29,-1,30,16,31,-1,31,16,19,-1,31,19,32,-1,32,19,28,-1,24,33,15,-1,15,33,34,-1,15,34,19,-1,19,34,35,-1,19,35,29,-1,36,12,37,-1,37,12,16,-1,37,16,38,-1,38,16,30,-1,36,39,12,-1,12,39,40,-1,12,40,41,-1,41,42,12,-1,12,42,43,-1,12,43,25,-1,13,44,14,-1,14,44,45,-1,8,44,9,-1,9,44,13,-1,17,46,18,-1,18,46,47,-1,4,46,5,-1,5,46,17,-1,48,45,44,-1,49,50,51,-1,51,50,52,-1,53,47,54,-1,54,47,46,-1,54,46,52,-1,52,46,4,-1,52,4,51,-1,51,4,6,-1,10,55,8,-1,8,55,56,-1,8,56,50,-1,44,8,48,-1,48,8,50,-1,48,50,57,-1,57,50,49,-1,57,49,1,-1,1,49,3,-1,
        ]
    }
}
Shape{
    appearance Appearance {
        material  Material 	{
            diffuseColor 0.7529411764705882 0.7529411764705882 0.7529411764705882
            specularColor 0.3764705882352941 0.3764705882352941 0.3764705882352941
            ambientIntensity 0.2
            transparency 0
            shininess 0.5
        }
    }
    geometry IndexedFaceSet {
        ccw TRUE
        solid FALSE
        coord DEF co Coordinate {
            point [
                -1.065 -0.4134 -0.1457, -1.065 -0.6594 -0.1457, -1.065 -0.4134 -0.1378, -1.065 -0.6594 -0.1378, 0.4921 -0.6594 -0.1457, 0.4921 -0.6594 -0.1378, 0.0215 -0.6594 -0.1457, 0.4921 0.6594 -0.1457, 0.4921 0.6594 -0.1378, 0.4921 -0.0575 -0.1457, -1.065 0.6594 -0.1457, -1.065 0.6594 -0.1378, 0.0215 0.6594 -0.1457, -1.065 0.4134 -0.1457, -1.065 0.4134 -0.1378, -1.1634 -0.4134 -0.1378, -1.1634 -0.4134 0.0, -1.2795 -0.4134 0.0, -1.2795 -0.4134 -0.1457, -1.1634 0.4134 -0.1378, -1.2795 0.4134 -0.1457, -1.1634 0.4134 0.0, -1.2795 0.4134 0.0, -1.2795 -0.0575 -0.1457, 0.8465 -0.1673 -0.1457, 0.8465 -0.6594 -0.1457, 0.8465 -0.1673 -0.1378, 0.8465 -0.6594 -0.1378, 1.2795 -0.1673 -0.1457, 1.2795 -0.1673 0.0, 1.2795 -0.6594 -0.1457, 1.2795 -0.6594 0.0, 1.1634 -0.1673 -0.1378, 1.1634 -0.1673 0.0, 1.1634 -0.6594 -0.1378, 1.1634 -0.6594 -0.0, 1.2795 0.1673 0.0, 1.2795 0.6594 0.0, 1.1634 0.1673 0.0, 1.1634 0.6594 0.0, 0.8465 0.6594 -0.1457, 0.8465 0.1673 -0.1457, 0.8465 0.6594 -0.1378, 0.8465 0.1673 -0.1378, 1.1634 0.1673 -0.1378, 1.2795 0.1673 -0.1457, 1.2795 0.6594 -0.1457, 1.1634 0.6594 -0.1378, 0.9904 -0.6841 0.2913, 0.9904 -0.6841 0.2953, 0.9879 -0.6655 0.2913, 0.9879 -0.6655 0.2953, 0.9808 -0.6482 0.2913, 0.9808 -0.6482 0.2953, 0.9693 -0.6333 0.2913, 0.9693 -0.6333 0.2953, 0.9545 -0.6219 0.2913, 0.9545 -0.6219 0.2953, 0.9371 -0.6147 0.2913, 0.9371 -0.6147 0.2953, 0.9185 -0.6123 0.2913, 0.9185 -0.6123 0.2953, 0.9 -0.6147 0.2913, 0.9 -0.6147 0.2953, 0.8826 -0.6219 0.2913, 0.8826 -0.6219 0.2953, 0.8678 -0.6333 0.2913, 0.8678 -0.6333 0.2953, 0.8563 -0.6482 0.2913, 0.8563 -0.6482 0.2953, 0.8492 -0.6655 0.2913, 0.8492 -0.6655 0.2953, 0.8467 -0.6841 0.2913, 0.8467 -0.6841 0.2953, 0.8492 -0.7027 0.2913, 0.8492 -0.7027 0.2953, 0.8563 -0.72 0.2913, 0.8563 -0.72 0.2953, 0.8678 -0.7349 0.2913, 0.8678 -0.7349 0.2953, 0.8826 -0.7463 0.2913, 0.8826 -0.7463 0.2953, 0.9 -0.7535 0.2913, 0.9 -0.7535 0.2953, 0.9185 -0.756 0.2913, 0.9185 -0.756 0.2953, 0.9371 -0.7535 0.2913, 0.9371 -0.7535 0.2953, 0.9545 -0.7463 0.2913, 0.9545 -0.7463 0.2953, 0.9693 -0.7349 0.2913, 0.9693 -0.7349 0.2953, 0.9808 -0.72 0.2913, 0.9808 -0.72 0.2953, 0.9879 -0.7027 0.2913, 0.9879 -0.7027 0.2953, 0.9185 -0.6841 0.2913, 0.9185 -0.6841 0.2913
            ]
        }
        coordIndex [
            0,1,2,-1,2,1,3,-1,4,5,6,-1,6,5,3,-1,6,3,1,-1,7,8,9,-1,9,8,5,-1,9,5,4,-1,10,11,12,-1,12,11,8,-1,12,8,7,-1,10,13,11,-1,11,13,14,-1,0,2,15,-1,16,17,15,-1,15,17,18,-1,15,18,0,-1,14,13,19,-1,19,13,20,-1,19,20,21,-1,21,20,22,-1,22,20,17,-1,17,20,23,-1,17,23,18,-1,22,17,21,-1,21,17,16,-1,24,25,26,-1,26,25,27,-1,28,29,30,-1,30,29,31,-1,24,26,32,-1,33,29,32,-1,32,29,28,-1,32,28,24,-1,27,25,34,-1,34,25,30,-1,34,30,35,-1,35,30,31,-1,31,29,35,-1,35,29,33,-1,25,24,30,-1,30,24,28,-1,36,37,38,-1,38,37,39,-1,40,41,42,-1,42,41,43,-1,43,41,44,-1,44,41,45,-1,44,45,38,-1,38,45,36,-1,46,37,45,-1,45,37,36,-1,40,42,47,-1,39,37,47,-1,47,37,46,-1,47,46,40,-1,46,45,40,-1,40,45,41,-1,48,49,50,-1,50,49,51,-1,50,51,52,-1,52,51,53,-1,52,53,54,-1,54,53,55,-1,54,55,56,-1,56,55,57,-1,56,57,58,-1,58,57,59,-1,58,59,60,-1,60,59,61,-1,60,61,62,-1,62,61,63,-1,62,63,64,-1,64,63,65,-1,64,65,66,-1,66,65,67,-1,66,67,68,-1,68,67,69,-1,68,69,70,-1,70,69,71,-1,70,71,72,-1,72,71,73,-1,72,73,74,-1,74,73,75,-1,74,75,76,-1,76,75,77,-1,76,77,78,-1,78,77,79,-1,78,79,80,-1,80,79,81,-1,80,81,82,-1,82,81,83,-1,82,83,84,-1,84,83,85,-1,84,85,86,-1,86,85,87,-1,86,87,88,-1,88,87,89,-1,88,89,90,-1,90,89,91,-1,90,91,92,-1,92,91,93,-1,92,93,94,-1,94,93,95,-1,94,95,48,-1,48,95,49,-1,92,94,96,-1,96,94,48,-1,96,48,50,-1,86,88,96,-1,96,88,90,-1,96,90,92,-1,80,82,96,-1,96,82,84,-1,96,84,86,-1,74,76,96,-1,96,76,78,-1,96,78,80,-1,68,70,96,-1,96,70,72,-1,96,72,74,-1,62,64,96,-1,96,64,66,-1,96,66,68,-1,56,58,96,-1,96,58,60,-1,96,60,62,-1,50,52,96,-1,96,52,54,-1,96,54,56,-1,
        ]
    }
}
Shape{
    appearance Appearance {
        material  Material 	{
            diffuseColor 0.0 0.0 0.0
            specularColor 0.0 0.0 0.0
            ambientIntensity 0.2
            transparency 0
            shininess 0.5
        }
    }
    geometry IndexedFaceSet {
        ccw TRUE
        solid FALSE
        coord DEF co Coordinate {
            point [
                -0.2575 -0.0237 -0.1417, -0.2575 -0.0237 -0.1457, -0.2695 -0.0568 -0.1417, -0.2695 -0.0568 -0.1457, -0.2087 -0.0237 -0.1417, -0.2087 -0.0237 -0.1457, -0.1974 -0.0568 -0.1417, -0.1974 -0.0568 -0.1457, -0.1802 -0.0568 -0.1417, -0.1802 -0.0568 -0.1457, -0.2248 0.0613 -0.1417, -0.2248 0.0613 -0.1457, -0.2406 0.0613 -0.1417, -0.2406 0.0613 -0.1457, -0.2867 -0.0568 -0.1417, -0.2867 -0.0568 -0.1457, -0.2127 -0.0107 -0.1417, -0.2522 -0.0107 -0.1417, -0.2303 0.0386 -0.1417, -0.2315 0.0427 -0.1417, -0.2322 0.0469 -0.1417, -0.2326 0.0469 -0.1417, -0.2334 0.0428 -0.1417, -0.2344 0.0386 -0.1417, -0.2326 0.0469 -0.1457, -0.2334 0.0428 -0.1457, -0.2344 0.0386 -0.1457, -0.2322 0.0469 -0.1457, -0.2303 0.0386 -0.1457, -0.2315 0.0427 -0.1457, -0.2127 -0.0107 -0.1457, -0.2522 -0.0107 -0.1457, -0.1098 0.0613 -0.1417, -0.1098 0.0613 -0.1457, -0.0764 0.0613 -0.1417, -0.0764 0.0613 -0.1457, -0.1715 0.0038 -0.1417, -0.1715 0.0038 -0.1457, -0.1706 0.0149 -0.1457, -0.1706 0.0149 -0.1417, -0.1675 0.0265 -0.1457, -0.1675 0.0265 -0.1417, -0.162 0.0367 -0.1457, -0.162 0.0367 -0.1417, -0.1536 0.0459 -0.1457, -0.1536 0.0459 -0.1417, -0.1535 0.046 -0.1457, -0.1535 0.046 -0.1417, -0.1407 0.0547 -0.1457, -0.1407 0.0547 -0.1417, -0.1268 0.0595 -0.1457, -0.1268 0.0595 -0.1417, -0.1086 -0.0568 -0.1417, -0.1086 -0.0568 -0.1457, -0.1232 -0.0555 -0.1457, -0.1232 -0.0555 -0.1417, -0.1368 -0.0514 -0.1457, -0.1368 -0.0514 -0.1417, -0.1491 -0.0443 -0.1457, -0.1491 -0.0443 -0.1417, -0.1588 -0.035 -0.1457, -0.1588 -0.035 -0.1417, -0.1656 -0.0244 -0.1457, -0.1656 -0.0244 -0.1417, -0.1699 -0.012 -0.1457, -0.1699 -0.012 -0.1417, -0.0764 -0.0568 -0.1417, -0.0764 -0.0568 -0.1457, -0.1478 0.0318 -0.1417, -0.1421 0.0379 -0.1417, -0.1334 0.0435 -0.1417, -0.1237 0.0469 -0.1417, -0.1097 0.0484 -0.1417, -0.0923 0.0484 -0.1417, -0.0923 -0.0438 -0.1417, -0.1091 -0.0438 -0.1417, -0.1215 -0.0427 -0.1417, -0.1315 -0.0396 -0.1417, -0.1395 -0.0348 -0.1417, -0.1461 -0.0282 -0.1417, -0.1511 -0.0201 -0.1417, -0.1546 -0.009 -0.1417, -0.1557 0.0034 -0.1417, -0.1547 0.0152 -0.1417, -0.1519 0.0245 -0.1417, -0.1091 -0.0438 -0.1457, -0.0923 -0.0438 -0.1457, -0.1557 0.0034 -0.1457, -0.1546 -0.009 -0.1457, -0.1511 -0.0201 -0.1457, -0.1461 -0.0282 -0.1457, -0.1395 -0.0348 -0.1457, -0.1315 -0.0396 -0.1457, -0.1215 -0.0427 -0.1457, -0.1097 0.0484 -0.1457, -0.1237 0.0469 -0.1457, -0.1334 0.0435 -0.1457, -0.1421 0.0379 -0.1457, -0.1478 0.0318 -0.1457, -0.1519 0.0245 -0.1457, -0.1547 0.0152 -0.1457, -0.0923 0.0484 -0.1457, 0.01 0.0613 -0.1417, 0.01 0.0613 -0.1457, 0.01 -0.0568 -0.1417, 0.01 -0.0568 -0.1457, -0.0505 0.0613 -0.1417, -0.0505 0.0613 -0.1457, -0.0505 0.0484 -0.1417, -0.0505 0.0484 -0.1457, -0.0059 0.0484 -0.1417, -0.0059 0.0484 -0.1457, -0.0059 0.0095 -0.1417, -0.0059 0.0095 -0.1457, -0.0476 0.0095 -0.1417, -0.0476 0.0095 -0.1457, -0.0476 -0.0035 -0.1417, -0.0476 -0.0035 -0.1457, -0.0059 -0.0035 -0.1417, -0.0059 -0.0035 -0.1457, -0.0059 -0.0438 -0.1417, -0.0059 -0.0438 -0.1457, -0.0534 -0.0438 -0.1417, -0.0534 -0.0438 -0.1457, -0.0534 -0.0568 -0.1417, -0.0534 -0.0568 -0.1457, 0.1209 0.0 -0.1417, 0.1209 0.0 -0.1457, 0.1197 -0.0136 -0.1457, 0.1197 -0.0136 -0.1417, 0.1162 -0.0261 -0.1457, 0.1162 -0.0261 -0.1417, 0.1099 -0.0374 -0.1457, 0.1099 -0.0374 -0.1417, 0.101 -0.0467 -0.1457, 0.101 -0.0467 -0.1417, 0.0915 -0.0528 -0.1457, 0.0915 -0.0528 -0.1417, 0.0801 -0.0567 -0.1457, 0.0801 -0.0567 -0.1417, 0.0655 -0.0582 -0.1417, 0.0725 -0.0575 -0.1457, 0.0655 -0.0582 -0.1457, 0.0608 0.0628 -0.1417, 0.0608 0.0628 -0.1457, 0.0727 0.0618 -0.1457, 0.0727 0.0618 -0.1417, 0.0858 0.058 -0.1457, 0.0858 0.058 -0.1417, 0.0971 0.0515 -0.1457, 0.0971 0.0515 -0.1417, 0.1077 0.0413 -0.1457, 0.1077 0.0413 -0.1417, 0.1147 0.0302 -0.1457, 0.1147 0.0302 -0.1417, 0.1192 0.0168 -0.1457, 0.1192 0.0168 -0.1417, 0.033 0.0581 -0.1417, 0.033 0.0581 -0.1457, 0.0467 0.0618 -0.1457, 0.0467 0.0618 -0.1417, 0.033 0.0422 -0.1417, 0.033 0.0422 -0.1457, 0.0607 0.0498 -0.1417, 0.0607 0.0498 -0.1457, 0.0463 0.0479 -0.1457, 0.0463 0.0479 -0.1417, 0.105 0.001 -0.1417, 0.105 0.001 -0.1457, 0.1045 0.0102 -0.1457, 0.1045 0.0102 -0.1417, 0.1013 0.0228 -0.1457, 0.1013 0.0228 -0.1417, 0.0965 0.032 -0.1457, 0.0965 0.032 -0.1417, 0.0893 0.0398 -0.1457, 0.0893 0.0398 -0.1417, 0.0812 0.0453 -0.1457, 0.0812 0.0453 -0.1417, 0.0723 0.0485 -0.1457, 0.0723 0.0485 -0.1417, 0.0633 -0.0453 -0.1417, 0.0633 -0.0453 -0.1457, 0.0744 -0.044 -0.1457, 0.0744 -0.044 -0.1417, 0.083 -0.0409 -0.1457, 0.083 -0.0409 -0.1417, 0.0902 -0.036 -0.1457, 0.0902 -0.036 -0.1417, 0.0958 -0.0301 -0.1457, 0.0958 -0.0301 -0.1417, 0.1006 -0.0219 -0.1457, 0.1006 -0.0219 -0.1417, 0.1038 -0.0118 -0.1457, 0.1038 -0.0118 -0.1417, 0.033 -0.0377 -0.1417, 0.033 -0.0377 -0.1457, 0.0351 -0.0389 -0.1457, 0.0351 -0.0389 -0.1417, 0.0477 -0.0435 -0.1457, 0.0477 -0.0435 -0.1417, 0.033 -0.0507 -0.1417, 0.033 -0.0507 -0.1457, 0.0456 -0.0558 -0.1417, 0.0623 -0.0582 -0.1457, 0.0623 -0.0582 -0.1417, 0.0575 -0.0575 -0.1457, 0.0456 -0.0558 -0.1457, 0.1915 0.0613 -0.1417, 0.1915 0.0613 -0.1457, 0.1915 -0.0568 -0.1417, 0.1915 -0.0568 -0.1457, 0.1756 0.0613 -0.1417, 0.1756 0.0613 -0.1457, 0.1756 -0.0438 -0.1417, 0.1756 -0.0438 -0.1457, 0.131 -0.0438 -0.1417, 0.131 -0.0438 -0.1457, 0.131 -0.0568 -0.1417, 0.131 -0.0568 -0.1457, 0.131 -0.0568 -0.1457
            ]
        }
        coordIndex [
            0,1,2,-1,2,1,3,-1,4,5,0,-1,0,5,1,-1,6,7,4,-1,4,7,5,-1,8,9,6,-1,6,9,7,-1,10,11,8,-1,8,11,9,-1,12,13,10,-1,10,13,11,-1,14,15,12,-1,12,15,13,-1,14,2,15,-1,15,2,3,-1,16,4,17,-1,17,4,0,-1,18,10,16,-1,16,10,8,-1,16,8,4,-1,4,8,6,-1,18,19,10,-1,10,19,20,-1,10,20,12,-1,12,20,21,-1,12,21,22,-1,22,23,12,-1,12,23,17,-1,12,17,14,-1,14,17,0,-1,14,0,2,-1,21,24,25,-1,21,25,22,-1,22,25,26,-1,22,26,23,-1,20,27,21,-1,21,27,24,-1,18,28,29,-1,18,29,19,-1,19,29,27,-1,19,27,20,-1,16,30,18,-1,18,30,28,-1,17,31,16,-1,16,31,30,-1,26,31,23,-1,23,31,17,-1,32,33,34,-1,34,33,35,-1,36,37,38,-1,36,38,39,-1,39,38,40,-1,39,40,41,-1,41,40,42,-1,41,42,43,-1,43,42,44,-1,43,44,45,-1,45,44,46,-1,45,46,47,-1,47,46,48,-1,47,48,49,-1,49,48,50,-1,49,50,51,-1,51,50,33,-1,51,33,32,-1,52,53,54,-1,52,54,55,-1,55,54,56,-1,55,56,57,-1,57,56,58,-1,57,58,59,-1,59,58,60,-1,59,60,61,-1,61,60,62,-1,61,62,63,-1,63,62,64,-1,63,64,65,-1,65,64,37,-1,65,37,36,-1,66,67,52,-1,52,67,53,-1,66,34,67,-1,67,34,35,-1,41,43,68,-1,68,43,45,-1,68,45,69,-1,69,45,47,-1,69,47,70,-1,70,47,49,-1,70,49,71,-1,71,49,51,-1,71,51,72,-1,72,51,32,-1,72,32,73,-1,73,32,34,-1,73,34,74,-1,74,34,66,-1,74,66,75,-1,75,66,52,-1,75,52,76,-1,76,52,55,-1,76,55,77,-1,77,55,57,-1,77,57,78,-1,78,57,59,-1,78,59,79,-1,79,59,61,-1,79,61,80,-1,80,61,63,-1,80,63,81,-1,81,63,65,-1,81,65,82,-1,82,65,36,-1,82,36,83,-1,83,36,39,-1,83,39,84,-1,84,39,41,-1,84,41,68,-1,75,85,74,-1,74,85,86,-1,82,87,88,-1,82,88,81,-1,81,88,89,-1,81,89,80,-1,80,89,90,-1,80,90,79,-1,79,90,91,-1,79,91,78,-1,78,91,92,-1,78,92,77,-1,77,92,93,-1,77,93,76,-1,76,93,85,-1,76,85,75,-1,72,94,95,-1,72,95,71,-1,71,95,96,-1,71,96,70,-1,70,96,97,-1,70,97,69,-1,69,97,98,-1,69,98,68,-1,68,98,99,-1,68,99,84,-1,84,99,100,-1,84,100,83,-1,83,100,87,-1,83,87,82,-1,73,101,72,-1,72,101,94,-1,86,101,74,-1,74,101,73,-1,102,103,104,-1,104,103,105,-1,106,107,102,-1,102,107,103,-1,108,109,106,-1,106,109,107,-1,110,111,108,-1,108,111,109,-1,112,113,110,-1,110,113,111,-1,114,115,112,-1,112,115,113,-1,116,117,114,-1,114,117,115,-1,118,119,116,-1,116,119,117,-1,120,121,118,-1,118,121,119,-1,122,123,120,-1,120,123,121,-1,124,125,122,-1,122,125,123,-1,124,104,125,-1,125,104,105,-1,104,124,122,-1,122,120,104,-1,104,120,118,-1,104,118,102,-1,108,106,110,-1,110,106,102,-1,110,102,112,-1,112,102,118,-1,112,118,114,-1,114,118,116,-1,126,127,128,-1,126,128,129,-1,129,128,130,-1,129,130,131,-1,131,130,132,-1,131,132,133,-1,133,132,134,-1,133,134,135,-1,135,134,136,-1,135,136,137,-1,137,136,138,-1,137,138,139,-1,139,138,140,-1,140,138,141,-1,140,141,142,-1,143,144,145,-1,143,145,146,-1,146,145,147,-1,146,147,148,-1,148,147,149,-1,148,149,150,-1,150,149,151,-1,150,151,152,-1,152,151,153,-1,152,153,154,-1,154,153,155,-1,154,155,156,-1,156,155,127,-1,156,127,126,-1,157,158,159,-1,157,159,160,-1,160,159,144,-1,160,144,143,-1,161,162,157,-1,157,162,158,-1,163,164,165,-1,163,165,166,-1,166,165,162,-1,166,162,161,-1,167,168,169,-1,167,169,170,-1,170,169,171,-1,170,171,172,-1,172,171,173,-1,172,173,174,-1,174,173,175,-1,174,175,176,-1,176,175,177,-1,176,177,178,-1,178,177,179,-1,178,179,180,-1,180,179,164,-1,180,164,163,-1,181,182,183,-1,181,183,184,-1,184,183,185,-1,184,185,186,-1,186,185,187,-1,186,187,188,-1,188,187,189,-1,188,189,190,-1,190,189,191,-1,190,191,192,-1,192,191,193,-1,192,193,194,-1,194,193,168,-1,194,168,167,-1,195,196,197,-1,195,197,198,-1,198,197,199,-1,198,199,200,-1,200,199,182,-1,200,182,181,-1,201,202,195,-1,195,202,196,-1,202,201,203,-1,140,142,204,-1,140,204,205,-1,205,204,206,-1,205,206,203,-1,203,206,207,-1,203,207,202,-1,184,140,181,-1,181,140,205,-1,181,205,200,-1,200,205,203,-1,200,203,198,-1,198,203,201,-1,198,201,195,-1,161,157,166,-1,166,157,160,-1,166,160,163,-1,163,160,143,-1,163,143,180,-1,180,143,146,-1,180,146,178,-1,178,146,148,-1,178,148,176,-1,176,148,150,-1,176,150,174,-1,174,150,152,-1,174,152,172,-1,172,152,154,-1,172,154,170,-1,170,154,156,-1,170,156,167,-1,167,156,126,-1,167,126,194,-1,194,126,129,-1,194,129,192,-1,192,129,131,-1,192,131,190,-1,190,131,133,-1,190,133,188,-1,188,133,135,-1,188,135,186,-1,186,135,137,-1,186,137,184,-1,184,137,139,-1,184,139,140,-1,208,209,210,-1,210,209,211,-1,212,213,208,-1,208,213,209,-1,214,215,212,-1,212,215,213,-1,216,217,214,-1,214,217,215,-1,218,219,216,-1,216,219,217,-1,218,210,219,-1,219,210,211,-1,212,208,214,-1,214,208,210,-1,214,210,216,-1,216,210,218,-1,
        ]
    }
}
Shape{
    appearance Appearance {
        material  Material 	{
            diffuseColor 0.7529411764705882 0.7529411764705882 0.7529411764705882
            specularColor 0.3764705882352941 0.3764705882352941 0.3764705882352941
            ambientIntensity 0.2
            transparency 0
            shininess 0.5
        }
    }
    geometry IndexedFaceSet {
        ccw TRUE
        solid FALSE
        coord DEF co Coordinate {
            point [
                -0.2127 -0.0107 -0.1457, -0.2522 -0.0107 -0.1457, -0.2303 0.0386 -0.1457, -0.2344 0.0386 -0.1457, -0.2315 0.0427 -0.1457, -0.2334 0.0428 -0.1457, -0.2322 0.0469 -0.1457, -0.2326 0.0469 -0.1457, -0.0923 0.0484 -0.1457, -0.0923 -0.0438 -0.1457, -0.1097 0.0484 -0.1457, -0.1091 -0.0438 -0.1457, -0.1215 -0.0427 -0.1457, -0.1557 0.0034 -0.1457, -0.1547 0.0152 -0.1457, -0.1519 0.0245 -0.1457, -0.1237 0.0469 -0.1457, -0.1315 -0.0396 -0.1457, -0.1395 -0.0348 -0.1457, -0.1461 -0.0282 -0.1457, -0.1511 -0.0201 -0.1457, -0.1546 -0.009 -0.1457, -0.1478 0.0318 -0.1457, -0.1421 0.0379 -0.1457, -0.1334 0.0435 -0.1457, -0.1334 0.0435 -0.1457
            ]
        }
        coordIndex [
            0,1,2,-1,2,1,3,-1,2,3,4,-1,4,3,5,-1,4,5,6,-1,6,5,7,-1,8,9,10,-1,10,9,11,-1,10,11,12,-1,13,14,10,-1,10,14,15,-1,10,15,16,-1,12,17,10,-1,10,17,18,-1,10,18,19,-1,19,20,10,-1,10,20,21,-1,10,21,13,-1,22,23,15,-1,15,23,24,-1,15,24,16,-1,
        ]
    }
}