#VRML V2.0 utf8
# 3D model generated by easyeda2kicad.py (https://github.com/uPesy/easyeda2kicad.py)

Shape{
    appearance Appearance {
        material  Material 	{
            diffuseColor 0.6666666666666666 0.6666666666666666 0.6666666666666666
            specularColor 0.4666666666666667 0.4666666666666667 0.4666666666666667
            ambientIntensity 0.2
            transparency 0
            shininess 0.5
        }
    }
    geometry IndexedFaceSet {
        ccw TRUE
        solid FALSE
        coord DEF co Coordinate {
            point [
                -0.4326 -0.1799 0.0, -0.4248 -0.1808 0.0, -0.4496 -0.239 0.0, -0.412 -0.2483 0.0, -0.3857 -0.251 0.0, -0.4197 -0.2509 0.0, -0.4247 -0.2514 0.0, -0.4422 -0.1811 0.0, -0.451 -0.2382 0.0, -0.451 -0.1849 0.0, -0.4587 1.1102 0.0, -0.451 -0.1744 0.0, -0.4189 -0.1829 0.0, -0.4135 -0.1865 0.0, -0.4087 -0.1918 0.0, -0.403 -0.2124 0.0, -0.4038 -0.2209 0.0, -0.406 -0.2277 0.0, -0.4235 -0.2424 0.0, -0.4308 -0.2433 0.0, -0.4177 -0.2403 0.0, -0.4129 -0.2371 0.0, -0.4092 -0.2332 0.0, -0.4413 -0.2421 0.0, -0.3966 -0.193 0.0, -0.4012 -0.1856 0.0, -0.356 -0.1722 0.0, -0.3454 -0.1722 0.0, -0.1969 1.1102 0.0, -0.3454 -0.251 0.0, -0.1969 -0.2514 0.0, -0.4055 -0.1979 0.0, -0.4034 -0.2063 0.0, -0.4057 -0.2442 0.0, -0.3998 -0.238 0.0, -0.3857 -0.2423 0.0, -0.3956 -0.2305 0.0, -0.356 -0.2423 0.0, -0.4083 -0.1788 0.0, -0.4158 -0.1744 0.0, -0.4246 -0.1719 0.0, -0.3932 -0.2222 0.0, -0.3925 -0.2131 0.0, -0.3936 -0.2019 0.0, -0.4325 -0.1713 0.0, -0.4419 -0.1719 0.0, -0.451 -0.2469 0.0, -0.4426 -0.2503 0.0, -0.4587 -0.2514 0.0, -0.4347 -0.2514 0.0, -0.4587 -1.1102 0.0, -0.4315 -0.2519 0.0, -0.1969 -1.1102 0.0, -0.4294 -0.2519 0.0, -0.524 -0.251 0.0, -0.5086 -0.2423 0.0, -0.5086 -0.251 0.0, -0.4664 -0.251 0.0, -0.4664 -0.1722 0.0, -0.5067 -0.1722 0.0, -0.8031 1.1102 0.0, -0.5931 -0.251 0.0, -0.5835 -0.2294 0.0, -0.5789 -0.2364 0.0, -0.6642 -0.251 0.0, -0.8031 -0.2514 0.0, -0.6335 -0.1722 0.0, -0.6229 -0.1722 0.0, -0.477 -0.1809 0.0, -0.477 -0.2068 0.0, -0.5067 -0.1809 0.0, -0.5048 -0.2068 0.0, -0.5048 -0.2154 0.0, -0.477 -0.2154 0.0, -0.477 -0.2423 0.0, -0.5725 -0.2426 0.0, -0.5642 -0.2474 0.0, -0.5552 -0.2501 0.0, -0.524 -0.1722 0.0, -0.5462 -0.1722 0.0, -0.5576 -0.1734 0.0, -0.581 -0.1887 0.0, -0.5847 -0.1954 0.0, -0.5454 -0.251 0.0, -0.5868 -0.2032 0.0, -0.5874 -0.2106 0.0, -0.5863 -0.2211 0.0, -0.5668 -0.1767 0.0, -0.5754 -0.1824 0.0, -0.5755 -0.1825 0.0, -0.6447 -0.2289 0.0, -0.6122 -0.2289 0.0, -0.6527 -0.251 0.0, -0.6047 -0.251 0.0, -0.8031 -1.1102 0.0, 0.8031 1.1102 0.7047, 0.8031 1.3071 0.7047, 0.8031 1.1102 0.0, 0.8031 1.3071 -0.0039, 0.8031 -1.1102 0.0, 0.8031 -1.3071 -0.0039, 0.8031 -1.1102 0.7047, 0.8031 -1.3071 0.7047, 0.9961 -1.1102 0.7047, 1.1969 -1.3071 0.7047, 1.1969 1.3071 0.7047, 0.9961 1.1102 0.7047, 1.047 1.1035 0.7047, 1.1353 -1.0526 0.7047, 1.1665 -1.0118 0.7047, 1.1862 -0.9643 0.7047, 1.0945 -1.0839 0.7047, 1.047 -1.1035 0.7047, 1.0945 1.0839 0.7047, 1.1353 1.0526 0.7047, 1.1665 1.0118 0.7047, 1.1862 0.9643 0.7047, 1.1929 0.9134 0.7047, 1.1929 -0.9134 0.7047, 1.1969 1.3071 -0.0039, 1.1969 -1.3071 -0.0039, -0.8031 1.3071 -0.0039, -0.8031 1.3071 0.7047, -0.8031 1.1102 0.7047, -0.8031 -1.1102 0.7047, -0.8031 -1.3071 0.7047, -0.8031 -1.3071 -0.0039, -0.9961 1.1102 0.7047, -1.1969 1.3071 0.7047, -1.047 1.1035 0.7047, -1.0945 1.0839 0.7047, -1.047 -1.1035 0.7047, -1.0945 -1.0839 0.7047, -1.1969 -1.3071 0.7047, -1.1353 -1.0526 0.7047, -1.1665 -1.0118 0.7047, -0.9961 -1.1102 0.7047, -1.1862 0.9643 0.7047, -1.1665 1.0118 0.7047, -1.1353 1.0526 0.7047, -1.1862 -0.9643 0.7047, -1.1929 -0.9134 0.7047, -1.1929 0.9134 0.7047, -1.1969 -1.3071 -0.0039, -1.1969 1.3071 -0.0039, -0.9961 1.1102 0.7835, 0.1969 1.1102 0.0, 0.1969 1.1102 0.7047, -0.1969 1.1102 0.7047, 0.9961 1.1102 0.7835, -0.1969 -1.1102 0.7047, 0.1969 -1.1102 0.7047, 0.1969 -1.1102 0.0, 0.9961 -1.1102 0.7835, -0.9961 -1.1102 0.7835, 1.1929 0.9134 0.7835, 1.1929 -0.9134 0.7835, -1.1929 -0.9134 0.7835, -1.1929 0.9134 0.7835, -0.9961 -0.9134 0.9803, -0.8247 -0.8116 0.9803, -0.8484 -0.8018 0.9803, -0.8688 -0.7861 0.9803, -0.8845 -0.7657 0.9803, -0.8943 -0.742 0.9803, -0.7008 -0.7165 0.9803, -0.7041 -0.742 0.9803, 0.9961 -0.9134 0.9803, -0.714 -0.7657 0.9803, -0.7296 -0.7861 0.9803, -0.75 -0.8018 0.9803, -0.7737 -0.8116 0.9803, -0.7992 -0.815 0.9803, -0.8688 -0.6469 0.9803, -0.8484 -0.6313 0.9803, -0.9961 0.9134 0.9803, -0.8247 -0.6215 0.9803, -0.8976 -0.7165 0.9803, -0.8943 -0.6911 0.9803, -0.8845 -0.6673 0.9803, -0.75 -0.6313 0.9803, 0.9961 0.9134 0.9803, -0.7737 -0.6215 0.9803, -0.7992 -0.6181 0.9803, -0.7296 -0.6469 0.9803, -0.714 -0.6673 0.9803, -0.7041 -0.6911 0.9803, -1.0399 1.1053 0.7835, -1.0468 1.1029 0.7835, -1.0815 1.0907 0.7835, -1.0939 1.0829 0.7835, -1.1188 1.0673 0.7835, -1.1344 1.0517 0.7835, -1.15 1.0361 0.7835, -1.1656 1.0112 0.7835, -1.1734 0.9988 0.7835, -1.1856 0.9641 0.7835, -1.188 0.9572 0.7835, 0.9961 1.1053 0.8273, -0.9961 1.1053 0.8273, 0.9961 1.1029 0.8342, -0.9961 1.1029 0.8342, 0.9961 1.0907 0.8689, -0.9961 1.0907 0.8689, 0.9961 1.0829 0.8813, -0.9961 1.0829 0.8813, 0.9961 1.0673 0.9062, -0.9961 1.0673 0.9062, 0.9961 1.0517 0.9218, -0.9961 1.0517 0.9218, 0.9961 1.0361 0.9374, -0.9961 1.0361 0.9374, 0.9961 1.0112 0.953, -0.9961 1.0112 0.953, 0.9961 0.9988 0.9608, -0.9961 0.9988 0.9608, 0.9961 0.9641 0.973, -0.9961 0.9641 0.973, 0.9961 0.9572 0.9754, -0.9961 0.9572 0.9754, 1.188 0.9572 0.7835, 1.1856 0.9641 0.7835, 1.1734 0.9988 0.7835, 1.1656 1.0112 0.7835, 1.15 1.0361 0.7835, 1.1344 1.0517 0.7835, 1.1188 1.0673 0.7835, 1.0939 1.0829 0.7835, 1.0815 1.0907 0.7835, 1.0468 1.1029 0.7835, 1.0399 1.1053 0.7835, -1.0793 1.0863 0.8273, -1.1157 1.0634 0.8273, -1.1461 1.033 0.8273, -1.169 0.9967 0.8273, -1.1832 0.9561 0.8273, -1.0388 0.9231 0.9754, -1.0399 0.9134 0.9754, -1.0793 0.9324 0.9608, -1.0815 0.9134 0.9608, -1.0468 0.9134 0.973, -1.0058 0.9561 0.9754, -1.0151 0.9967 0.9608, -1.0234 1.033 0.9374, -1.1461 0.9476 0.9062, -1.1344 0.9134 0.9218, -1.1157 0.9407 0.9374, -1.1188 0.9134 0.9374, -1.0939 0.9134 0.953, -1.0303 1.0634 0.9062, -1.169 0.9529 0.8689, -1.1656 0.9134 0.8813, -1.15 0.9134 0.9062, -1.0355 1.0863 0.8689, -1.1856 0.9134 0.8342, -1.1734 0.9134 0.8689, -1.188 0.9134 0.8273, -1.1559 0.9903 0.8689, -1.1347 0.9802 0.9062, -1.1066 0.9666 0.9374, -1.073 0.9504 0.9608, -1.0355 0.9324 0.9754, -1.1347 1.024 0.8689, -1.1164 1.0093 0.9062, -1.092 0.9899 0.9374, -1.0628 0.9666 0.9608, -1.0303 0.9407 0.9754, -1.1066 1.052 0.8689, -1.092 1.0337 0.9062, -1.0726 1.0093 0.9374, -1.0493 0.9802 0.9608, -1.0234 0.9476 0.9754, -1.073 1.0732 0.8689, -1.0628 1.052 0.9062, -1.0493 1.024 0.9374, -1.0331 0.9903 0.9608, -1.0151 0.9529 0.9754, -1.0388 1.1005 0.8273, 1.169 0.9967 0.8273, 1.1461 1.033 0.8273, 1.1157 1.0634 0.8273, 1.0793 1.0863 0.8273, 1.0388 1.1005 0.8273, 1.0058 0.9561 0.9754, 1.0151 0.9967 0.9608, 1.0399 0.9134 0.9754, 1.0388 0.9231 0.9754, 1.0468 0.9134 0.973, 1.0793 0.9324 0.9608, 1.0815 0.9134 0.9608, 1.0939 0.9134 0.953, 1.1157 0.9407 0.9374, 1.0303 1.0634 0.9062, 1.0234 1.033 0.9374, 1.1188 0.9134 0.9374, 1.1344 0.9134 0.9218, 1.1461 0.9476 0.9062, 1.0355 1.0863 0.8689, 1.15 0.9134 0.9062, 1.1656 0.9134 0.8813, 1.169 0.9529 0.8689, 1.073 1.0732 0.8689, 1.0628 1.052 0.9062, 1.0493 1.024 0.9374, 1.0331 0.9903 0.9608, 1.0151 0.9529 0.9754, 1.1066 1.052 0.8689, 1.092 1.0337 0.9062, 1.0726 1.0093 0.9374, 1.0493 0.9802 0.9608, 1.0234 0.9476 0.9754, 1.1347 1.024 0.8689, 1.1164 1.0093 0.9062, 1.092 0.9899 0.9374, 1.0628 0.9666 0.9608, 1.0303 0.9407 0.9754, 1.1559 0.9903 0.8689, 1.1347 0.9802 0.9062, 1.1066 0.9666 0.9374, 1.073 0.9504 0.9608, 1.0355 0.9324 0.9754, 1.1832 0.9561 0.8273, 1.1734 0.9134 0.8689, 1.1856 0.9134 0.8342, 1.188 0.9134 0.8273, -1.188 -0.9572 0.7835, -1.1856 -0.9641 0.7835, -1.1734 -0.9988 0.7835, -1.1656 -1.0112 0.7835, -1.15 -1.0361 0.7835, -1.1344 -1.0517 0.7835, -1.1188 -1.0673 0.7835, -1.0939 -1.0829 0.7835, -1.0815 -1.0907 0.7835, -1.0468 -1.1029 0.7835, -1.0399 -1.1053 0.7835, -1.188 -0.9134 0.8273, -1.1856 -0.9134 0.8342, -1.1734 -0.9134 0.8689, -1.1656 -0.9134 0.8813, -1.15 -0.9134 0.9062, -1.1344 -0.9134 0.9218, -1.1188 -0.9134 0.9374, -1.0939 -0.9134 0.953, -1.0815 -0.9134 0.9608, -1.0468 -0.9134 0.973, -1.0399 -0.9134 0.9754, 1.188 -0.9134 0.8273, 1.1856 -0.9134 0.8342, 1.1734 -0.9134 0.8689, 1.1656 -0.9134 0.8813, 1.15 -0.9134 0.9062, 1.1344 -0.9134 0.9218, 1.1188 -0.9134 0.9374, 1.0939 -0.9134 0.953, 1.0815 -0.9134 0.9608, 1.0468 -0.9134 0.973, 1.0399 -0.9134 0.9754, 1.0399 -1.1053 0.7835, 1.0468 -1.1029 0.7835, 1.0815 -1.0907 0.7835, 1.0939 -1.0829 0.7835, 1.1188 -1.0673 0.7835, 1.1344 -1.0517 0.7835, 1.15 -1.0361 0.7835, 1.1656 -1.0112 0.7835, 1.1734 -0.9988 0.7835, 1.1856 -0.9641 0.7835, 1.188 -0.9572 0.7835, -1.169 -0.9967 0.8273, -1.1461 -1.033 0.8273, -1.1157 -1.0634 0.8273, -1.0793 -1.0863 0.8273, -1.0388 -1.1005 0.8273, -1.0058 -0.9561 0.9754, -0.9961 -0.9572 0.9754, -1.0151 -0.9967 0.9608, -0.9961 -0.9988 0.9608, -0.9961 -0.9641 0.973, -1.0388 -0.9231 0.9754, -1.0793 -0.9324 0.9608, -1.1157 -0.9407 0.9374, -1.0303 -1.0634 0.9062, -0.9961 -1.0517 0.9218, -1.0234 -1.033 0.9374, -0.9961 -1.0361 0.9374, -0.9961 -1.0112 0.953, -1.1461 -0.9476 0.9062, -1.0355 -1.0863 0.8689, -0.9961 -1.0829 0.8813, -0.9961 -1.0673 0.9062, -1.169 -0.9529 0.8689, -0.9961 -1.1029 0.8342, -0.9961 -1.0907 0.8689, -0.9961 -1.1053 0.8273, -1.073 -1.0732 0.8689, -1.0628 -1.052 0.9062, -1.0493 -1.024 0.9374, -1.0331 -0.9903 0.9608, -1.0151 -0.9529 0.9754, -1.1066 -1.052 0.8689, -1.092 -1.0337 0.9062, -1.0726 -1.0093 0.9374, -1.0493 -0.9802 0.9608, -1.0234 -0.9476 0.9754, -1.1347 -1.024 0.8689, -1.1164 -1.0093 0.9062, -1.092 -0.9899 0.9374, -1.0628 -0.9666 0.9608, -1.0303 -0.9407 0.9754, -1.1559 -0.9903 0.8689, -1.1347 -0.9802 0.9062, -1.1066 -0.9666 0.9374, -1.073 -0.9504 0.9608, -1.0355 -0.9324 0.9754, -1.1832 -0.9561 0.8273, 1.0793 -1.0863 0.8273, 1.1157 -1.0634 0.8273, 1.1461 -1.033 0.8273, 1.169 -0.9967 0.8273, 1.1832 -0.9561 0.8273, 1.0388 -0.9231 0.9754, 1.0793 -0.9324 0.9608, 0.9961 -0.9572 0.9754, 1.0058 -0.9561 0.9754, 0.9961 -0.9641 0.973, 1.0151 -0.9967 0.9608, 0.9961 -0.9988 0.9608, 0.9961 -1.0112 0.953, 1.0234 -1.033 0.9374, 1.1461 -0.9476 0.9062, 1.1157 -0.9407 0.9374, 0.9961 -1.0361 0.9374, 0.9961 -1.0517 0.9218, 1.0303 -1.0634 0.9062, 1.169 -0.9529 0.8689, 0.9961 -1.0673 0.9062, 0.9961 -1.0829 0.8813, 1.0355 -1.0863 0.8689, 1.1559 -0.9903 0.8689, 1.1347 -0.9802 0.9062, 1.1066 -0.9666 0.9374, 1.073 -0.9504 0.9608, 1.0355 -0.9324 0.9754, 1.1347 -1.024 0.8689, 1.1164 -1.0093 0.9062, 1.092 -0.9899 0.9374, 1.0628 -0.9666 0.9608, 1.0303 -0.9407 0.9754, 1.1066 -1.052 0.8689, 1.092 -1.0337 0.9062, 1.0726 -1.0093 0.9374, 1.0493 -0.9802 0.9608, 1.0234 -0.9476 0.9754, 1.073 -1.0732 0.8689, 1.0628 -1.052 0.9062, 1.0493 -1.024 0.9374, 1.0331 -0.9903 0.9608, 1.0151 -0.9529 0.9754, 1.0388 -1.1005 0.8273, 0.9961 -1.0907 0.8689, 0.9961 -1.1029 0.8342, 0.9961 -1.1053 0.8273, 0.1181 1.7008 0.7047, 0.1969 1.622 0.7047, 0.1942 1.6424 0.7047, 0.1575 1.6902 0.7047, 0.1385 1.6981 0.7047, 0.1738 1.6777 0.7047, 0.1863 1.6614 0.7047, -0.1385 1.6981 0.7047, -0.1969 1.622 0.7047, -0.1181 1.7008 0.7047, -0.1575 1.6902 0.7047, -0.1738 1.6777 0.7047, -0.1942 1.6424 0.7047, -0.1863 1.6614 0.7047, 0.1969 -1.622 0.7047, -0.1969 -1.622 0.7047, -0.1891 -1.6562 0.7047, -0.1797 -1.6711 0.7047, -0.1672 -1.6836 0.7047, 0.1385 -1.6981 0.7047, 0.1575 -1.6902 0.7047, -0.1523 -1.693 0.7047, -0.1949 -1.6396 0.7047, -0.1356 -1.6988 0.7047, -0.1181 -1.7008 0.7047, 0.1181 -1.7008 0.7047, 0.1738 -1.6777 0.7047, 0.1863 -1.6614 0.7047, 0.1942 -1.6424 0.7047, -0.1969 -1.622 -0.0039, -0.1969 1.622 -0.0039, 0.1969 -1.622 -0.0039, 0.1969 1.622 -0.0039, 0.1181 -1.7008 -0.0039, -0.1181 -1.7008 -0.0039, 0.1181 1.7008 -0.0039, -0.1181 1.7008 -0.0039, 0.1385 1.6981 -0.0039, 0.1575 1.6902 -0.0039, 0.1738 1.6777 -0.0039, 0.1385 -1.6981 -0.0039, -0.1356 -1.6988 -0.0039, -0.1672 -1.6836 -0.0039, -0.1797 -1.6711 -0.0039, -0.1891 -1.6562 -0.0039, 0.1863 1.6614 -0.0039, 0.1942 1.6424 -0.0039, 0.1863 -1.6614 -0.0039, 0.1738 -1.6777 -0.0039, 0.1575 -1.6902 -0.0039, -0.1523 -1.693 -0.0039, -0.1949 -1.6396 -0.0039, 0.1942 -1.6424 -0.0039, -0.1863 1.6614 -0.0039, -0.1738 1.6777 -0.0039, -0.1942 1.6424 -0.0039, -0.1575 1.6902 -0.0039, -0.1385 1.6981 -0.0039, -1.2953 1.3071 0.7087, -1.2953 1.3071 -0.0079, -0.7047 1.3071 -0.0079, -0.7047 1.3071 0.7087, -1.1969 1.5039 -0.0039, -1.2953 1.5039 -0.0079, -1.1969 1.5039 0.7047, -1.2953 1.5039 0.7087, -0.8031 1.5039 0.7047, -0.7047 1.5039 0.7087, -0.8031 1.5039 -0.0039, -0.7047 1.5039 -0.0079, -0.8031 1.622 0.7047, -0.8031 1.622 -0.0039, -0.8058 1.6424 -0.0039, -0.8058 1.6424 0.7047, -0.8137 1.6614 -0.0039, -0.8137 1.6614 0.7047, -0.8262 1.6777 -0.0039, -0.8262 1.6777 0.7047, -0.8425 1.6902 -0.0039, -0.8425 1.6902 0.7047, -0.8615 1.6981 -0.0039, -0.8615 1.6981 0.7047, -0.8819 1.7008 -0.0039, -0.8819 1.7008 0.7047, -1.1181 1.7008 -0.0039, -1.1181 1.7008 0.7047, -1.1385 1.6981 -0.0039, -1.1385 1.6981 0.7047, -1.1575 1.6902 -0.0039, -1.1575 1.6902 0.7047, -1.1738 1.6777 -0.0039, -1.1738 1.6777 0.7047, -1.1863 1.6614 -0.0039, -1.1863 1.6614 0.7047, -1.1942 1.6424 -0.0039, -1.1942 1.6424 0.7047, -1.1969 1.622 -0.0039, -1.1969 1.622 0.7047, 1.2953 1.5039 0.7087, 1.1969 1.5039 0.7047, 0.8031 1.5039 0.7047, 1.1969 1.5039 -0.0039, 1.2953 1.5039 -0.0079, 0.8031 1.5039 -0.0039, 0.7047 1.5039 -0.0079, 0.7047 1.5039 0.7087, 1.2953 1.3071 -0.0079, 1.2953 1.3071 0.7087, 0.7047 1.3071 0.7087, 0.7047 1.3071 -0.0079, 1.1969 1.622 0.7047, 1.1969 1.622 -0.0039, 1.1942 1.6424 -0.0039, 1.1942 1.6424 0.7047, 1.1863 1.6614 -0.0039, 1.1863 1.6614 0.7047, 1.1738 1.6777 -0.0039, 1.1738 1.6777 0.7047, 1.1575 1.6902 -0.0039, 1.1575 1.6902 0.7047, 1.1385 1.6981 -0.0039, 1.1385 1.6981 0.7047, 1.1181 1.7008 -0.0039, 1.1181 1.7008 0.7047, 0.8819 1.7008 -0.0039, 0.8819 1.7008 0.7047, 0.8615 1.6981 -0.0039, 0.8615 1.6981 0.7047, 0.8425 1.6902 -0.0039, 0.8425 1.6902 0.7047, 0.8262 1.6777 -0.0039, 0.8262 1.6777 0.7047, 0.8137 1.6614 -0.0039, 0.8137 1.6614 0.7047, 0.8058 1.6424 -0.0039, 0.8058 1.6424 0.7047, 0.8031 1.622 -0.0039, 0.8031 1.622 0.7047, 0.7047 -1.3071 0.7087, 1.2953 -1.3071 0.7087, 0.7047 -1.3071 -0.0079, 1.2953 -1.3071 -0.0079, 0.8031 -1.5039 -0.0039, 0.7047 -1.5039 -0.0079, 1.2953 -1.5039 -0.0079, 0.7047 -1.5039 0.7087, 0.8031 -1.5039 0.7047, 1.2953 -1.5039 0.7087, 1.1969 -1.5039 0.7047, 1.1969 -1.5039 -0.0039, 0.8031 -1.622 0.7047, 0.8031 -1.622 -0.0039, 0.8051 -1.6396 -0.0039, 0.8051 -1.6396 0.7047, 0.8109 -1.6562 -0.0039, 0.8109 -1.6562 0.7047, 0.8203 -1.6711 -0.0039, 0.8203 -1.6711 0.7047, 0.8328 -1.6836 -0.0039, 0.8328 -1.6836 0.7047, 0.8477 -1.693 -0.0039, 0.8477 -1.693 0.7047, 0.8644 -1.6988 -0.0039, 0.8644 -1.6988 0.7047, 0.8819 -1.7008 -0.0039, 0.8819 -1.7008 0.7047, 1.1181 -1.7008 0.7047, 1.1181 -1.7008 -0.0039, 1.1385 -1.6981 -0.0039, 1.1385 -1.6981 0.7047, 1.1575 -1.6902 -0.0039, 1.1575 -1.6902 0.7047, 1.1738 -1.6777 -0.0039, 1.1738 -1.6777 0.7047, 1.1863 -1.6614 -0.0039, 1.1863 -1.6614 0.7047, 1.1942 -1.6424 -0.0039, 1.1942 -1.6424 0.7047, 1.1969 -1.622 -0.0039, 1.1969 -1.622 0.7047, -0.8031 -1.5039 0.7047, -0.7047 -1.5039 0.7087, -1.1969 -1.5039 0.7047, -1.2953 -1.5039 0.7087, -1.1969 -1.5039 -0.0039, -1.2953 -1.5039 -0.0079, -0.8031 -1.5039 -0.0039, -0.7047 -1.5039 -0.0079, -0.7047 -1.3071 -0.0079, -1.2953 -1.3071 -0.0079, -1.2953 -1.3071 0.7087, -0.7047 -1.3071 0.7087, -1.1969 -1.622 0.7047, -1.1969 -1.622 -0.0039, -1.1949 -1.6396 -0.0039, -1.1949 -1.6396 0.7047, -1.1891 -1.6562 -0.0039, -1.1891 -1.6562 0.7047, -1.1797 -1.6711 -0.0039, -1.1797 -1.6711 0.7047, -1.1672 -1.6836 -0.0039, -1.1672 -1.6836 0.7047, -1.1523 -1.693 -0.0039, -1.1523 -1.693 0.7047, -1.1356 -1.6988 -0.0039, -1.1356 -1.6988 0.7047, -1.1181 -1.7008 -0.0039, -1.1181 -1.7008 0.7047, -0.8819 -1.7008 0.7047, -0.8819 -1.7008 -0.0039, -0.8615 -1.6981 -0.0039, -0.8615 -1.6981 0.7047, -0.8425 -1.6902 -0.0039, -0.8425 -1.6902 0.7047, -0.8262 -1.6777 -0.0039, -0.8262 -1.6777 0.7047, -0.8137 -1.6614 -0.0039, -0.8137 -1.6614 0.7047, -0.8058 -1.6424 -0.0039, -0.8058 -1.6424 0.7047, -0.8031 -1.622 -0.0039, -0.8031 -1.622 0.7047, -0.8031 -1.622 0.7047
            ]
        }
        coordIndex [
            0,1,2,-1,3,4,5,-1,5,4,6,-1,0,2,7,-1,7,2,8,-1,7,8,9,-1,9,8,10,-1,9,10,11,-1,1,12,2,-1,2,12,13,-1,2,13,14,-1,15,16,2,-1,2,16,17,-1,18,19,20,-1,20,19,21,-1,17,22,2,-1,2,22,21,-1,2,21,23,-1,23,21,19,-1,24,25,26,-1,26,25,10,-1,26,10,27,-1,27,10,28,-1,27,28,29,-1,29,28,30,-1,14,31,2,-1,2,31,32,-1,2,32,15,-1,3,33,4,-1,4,33,34,-1,4,34,35,-1,35,34,36,-1,35,36,37,-1,25,38,10,-1,10,38,39,-1,10,39,40,-1,36,41,37,-1,37,41,42,-1,37,42,26,-1,26,42,43,-1,26,43,24,-1,40,44,10,-1,10,44,45,-1,10,45,11,-1,46,47,48,-1,48,47,49,-1,48,49,50,-1,50,49,51,-1,50,51,52,-1,52,51,53,-1,52,53,30,-1,30,53,6,-1,30,6,29,-1,29,6,4,-1,54,55,56,-1,48,57,58,-1,59,60,58,-1,58,60,10,-1,58,10,48,-1,48,10,8,-1,48,8,46,-1,61,62,63,-1,64,65,66,-1,66,65,60,-1,66,60,67,-1,68,69,70,-1,70,69,71,-1,72,73,74,-1,63,75,61,-1,61,75,76,-1,61,76,77,-1,59,70,78,-1,78,70,71,-1,78,71,54,-1,54,71,72,-1,54,72,55,-1,55,72,74,-1,59,78,60,-1,60,78,79,-1,60,79,80,-1,67,81,82,-1,83,54,48,-1,48,54,56,-1,48,56,57,-1,82,84,67,-1,67,84,85,-1,67,85,61,-1,61,85,86,-1,61,86,62,-1,80,87,60,-1,60,87,88,-1,60,88,67,-1,67,88,89,-1,67,89,81,-1,90,91,92,-1,92,91,93,-1,92,93,48,-1,48,93,61,-1,48,61,83,-1,83,61,77,-1,64,92,65,-1,65,92,48,-1,65,48,94,-1,94,48,50,-1,95,96,97,-1,97,96,98,-1,97,98,99,-1,99,98,100,-1,99,100,101,-1,101,100,102,-1,101,102,103,-1,103,102,104,-1,96,95,105,-1,105,95,106,-1,105,106,107,-1,108,104,109,-1,109,104,110,-1,108,111,104,-1,104,111,112,-1,104,112,103,-1,107,113,105,-1,105,113,114,-1,105,114,115,-1,115,116,105,-1,105,116,117,-1,105,117,104,-1,104,117,118,-1,104,118,110,-1,119,105,120,-1,120,105,104,-1,98,119,100,-1,100,119,120,-1,121,122,123,-1,124,125,94,-1,94,125,126,-1,94,126,65,-1,65,126,121,-1,65,121,60,-1,60,121,123,-1,123,122,127,-1,127,122,128,-1,127,128,129,-1,129,128,130,-1,131,132,133,-1,133,132,134,-1,133,134,135,-1,125,124,133,-1,133,124,136,-1,133,136,131,-1,137,138,128,-1,128,138,139,-1,128,139,130,-1,135,140,133,-1,133,140,141,-1,133,141,128,-1,128,141,142,-1,128,142,137,-1,133,128,143,-1,143,128,144,-1,143,144,126,-1,126,144,121,-1,123,127,145,-1,97,146,95,-1,95,146,147,-1,148,28,10,-1,106,95,149,-1,149,95,147,-1,149,147,145,-1,145,147,148,-1,145,148,123,-1,123,148,10,-1,123,10,60,-1,50,52,150,-1,151,152,99,-1,103,153,101,-1,101,153,154,-1,154,136,124,-1,94,50,124,-1,124,50,150,-1,124,150,154,-1,154,150,151,-1,154,151,101,-1,101,151,99,-1,99,152,97,-1,97,152,146,-1,117,155,118,-1,118,155,156,-1,141,157,142,-1,142,157,158,-1,159,160,161,-1,161,162,159,-1,159,162,163,-1,159,163,164,-1,165,166,167,-1,167,166,168,-1,167,168,169,-1,169,170,167,-1,167,170,171,-1,167,171,159,-1,159,171,172,-1,159,172,160,-1,173,174,175,-1,175,174,176,-1,164,177,159,-1,159,177,178,-1,159,178,175,-1,175,178,179,-1,175,179,173,-1,180,181,182,-1,182,181,175,-1,182,175,183,-1,183,175,176,-1,180,184,181,-1,181,184,185,-1,181,185,167,-1,167,185,186,-1,167,186,165,-1,145,127,187,-1,187,127,129,-1,187,129,188,-1,188,129,189,-1,189,129,130,-1,189,130,190,-1,190,130,191,-1,191,130,139,-1,191,139,192,-1,192,139,193,-1,193,139,138,-1,193,138,194,-1,194,138,195,-1,195,138,137,-1,195,137,196,-1,196,137,197,-1,197,137,142,-1,197,142,158,-1,149,145,198,-1,198,145,199,-1,198,199,200,-1,200,199,201,-1,200,201,202,-1,202,201,203,-1,202,203,204,-1,204,203,205,-1,204,205,206,-1,206,205,207,-1,206,207,208,-1,208,207,209,-1,208,209,210,-1,210,209,211,-1,210,211,212,-1,212,211,213,-1,212,213,214,-1,214,213,215,-1,214,215,216,-1,216,215,217,-1,216,217,218,-1,218,217,219,-1,218,219,181,-1,181,219,175,-1,155,117,220,-1,220,117,116,-1,220,116,221,-1,221,116,222,-1,222,116,115,-1,222,115,223,-1,223,115,224,-1,224,115,114,-1,224,114,225,-1,225,114,226,-1,226,114,113,-1,226,113,227,-1,227,113,228,-1,228,113,107,-1,228,107,229,-1,229,107,230,-1,230,107,106,-1,230,106,149,-1,188,189,231,-1,190,191,232,-1,192,193,233,-1,194,195,234,-1,196,197,235,-1,175,236,237,-1,238,239,236,-1,236,239,240,-1,236,240,237,-1,175,219,241,-1,241,219,217,-1,241,217,242,-1,217,215,242,-1,242,215,213,-1,242,213,243,-1,244,245,246,-1,246,245,247,-1,246,247,238,-1,238,247,248,-1,238,248,239,-1,213,211,243,-1,243,211,209,-1,243,209,249,-1,250,251,244,-1,244,251,252,-1,244,252,245,-1,209,207,249,-1,249,207,205,-1,249,205,253,-1,235,254,250,-1,250,254,255,-1,250,255,251,-1,197,158,235,-1,235,158,256,-1,235,256,254,-1,195,196,234,-1,234,196,235,-1,234,235,257,-1,257,235,250,-1,257,250,258,-1,258,250,244,-1,258,244,259,-1,259,244,246,-1,259,246,260,-1,260,246,238,-1,260,238,261,-1,261,238,236,-1,261,236,175,-1,193,194,233,-1,233,194,234,-1,233,234,262,-1,262,234,257,-1,262,257,263,-1,263,257,258,-1,263,258,264,-1,264,258,259,-1,264,259,265,-1,265,259,260,-1,265,260,266,-1,266,260,261,-1,266,261,175,-1,191,192,232,-1,232,192,233,-1,232,233,267,-1,267,233,262,-1,267,262,268,-1,268,262,263,-1,268,263,269,-1,269,263,264,-1,269,264,270,-1,270,264,265,-1,270,265,271,-1,271,265,266,-1,271,266,175,-1,189,190,231,-1,231,190,232,-1,231,232,272,-1,272,232,267,-1,272,267,273,-1,273,267,268,-1,273,268,274,-1,274,268,269,-1,274,269,275,-1,275,269,270,-1,275,270,276,-1,276,270,271,-1,276,271,175,-1,187,188,277,-1,277,188,231,-1,277,231,253,-1,253,231,272,-1,253,272,249,-1,249,272,273,-1,249,273,243,-1,243,273,274,-1,243,274,242,-1,242,274,275,-1,242,275,241,-1,241,275,276,-1,241,276,175,-1,205,203,253,-1,253,203,201,-1,253,201,277,-1,277,201,199,-1,277,199,187,-1,187,199,145,-1,221,222,278,-1,223,224,279,-1,225,226,280,-1,227,228,281,-1,229,230,282,-1,181,283,218,-1,284,214,283,-1,283,214,216,-1,283,216,218,-1,181,285,286,-1,286,285,287,-1,286,287,288,-1,287,289,288,-1,288,289,290,-1,288,290,291,-1,292,208,293,-1,293,208,210,-1,293,210,284,-1,284,210,212,-1,284,212,214,-1,290,294,291,-1,291,294,295,-1,291,295,296,-1,297,204,292,-1,292,204,206,-1,292,206,208,-1,295,298,296,-1,296,298,299,-1,296,299,300,-1,282,200,297,-1,297,200,202,-1,297,202,204,-1,230,149,282,-1,282,149,198,-1,282,198,200,-1,228,229,281,-1,281,229,282,-1,281,282,301,-1,301,282,297,-1,301,297,302,-1,302,297,292,-1,302,292,303,-1,303,292,293,-1,303,293,304,-1,304,293,284,-1,304,284,305,-1,305,284,283,-1,305,283,181,-1,226,227,280,-1,280,227,281,-1,280,281,306,-1,306,281,301,-1,306,301,307,-1,307,301,302,-1,307,302,308,-1,308,302,303,-1,308,303,309,-1,309,303,304,-1,309,304,310,-1,310,304,305,-1,310,305,181,-1,224,225,279,-1,279,225,280,-1,279,280,311,-1,311,280,306,-1,311,306,312,-1,312,306,307,-1,312,307,313,-1,313,307,308,-1,313,308,314,-1,314,308,309,-1,314,309,315,-1,315,309,310,-1,315,310,181,-1,222,223,278,-1,278,223,279,-1,278,279,316,-1,316,279,311,-1,316,311,317,-1,317,311,312,-1,317,312,318,-1,318,312,313,-1,318,313,319,-1,319,313,314,-1,319,314,320,-1,320,314,315,-1,320,315,181,-1,220,221,321,-1,321,221,278,-1,321,278,300,-1,300,278,316,-1,300,316,296,-1,296,316,317,-1,296,317,291,-1,291,317,318,-1,291,318,288,-1,288,318,319,-1,288,319,286,-1,286,319,320,-1,286,320,181,-1,299,322,300,-1,300,322,323,-1,300,323,321,-1,321,323,324,-1,321,324,220,-1,220,324,155,-1,157,141,325,-1,325,141,140,-1,325,140,326,-1,326,140,327,-1,327,140,135,-1,327,135,328,-1,328,135,329,-1,329,135,134,-1,329,134,330,-1,330,134,331,-1,331,134,132,-1,331,132,332,-1,332,132,333,-1,333,132,131,-1,333,131,334,-1,334,131,335,-1,335,131,136,-1,335,136,154,-1,158,157,256,-1,256,157,336,-1,256,336,254,-1,254,336,337,-1,254,337,255,-1,255,337,338,-1,255,338,251,-1,251,338,339,-1,251,339,252,-1,252,339,340,-1,252,340,245,-1,245,340,341,-1,245,341,247,-1,247,341,342,-1,247,342,248,-1,248,342,343,-1,248,343,239,-1,239,343,344,-1,239,344,240,-1,240,344,345,-1,240,345,237,-1,237,345,346,-1,237,346,175,-1,175,346,159,-1,156,155,347,-1,347,155,324,-1,347,324,348,-1,348,324,323,-1,348,323,349,-1,349,323,322,-1,349,322,350,-1,350,322,299,-1,350,299,351,-1,351,299,298,-1,351,298,352,-1,352,298,295,-1,352,295,353,-1,353,295,294,-1,353,294,354,-1,354,294,290,-1,354,290,355,-1,355,290,289,-1,355,289,356,-1,356,289,287,-1,356,287,357,-1,357,287,285,-1,357,285,167,-1,167,285,181,-1,153,103,358,-1,358,103,112,-1,358,112,359,-1,359,112,360,-1,360,112,111,-1,360,111,361,-1,361,111,362,-1,362,111,108,-1,362,108,363,-1,363,108,364,-1,364,108,109,-1,364,109,365,-1,365,109,366,-1,366,109,110,-1,366,110,367,-1,367,110,368,-1,368,110,118,-1,368,118,156,-1,326,327,369,-1,328,329,370,-1,330,331,371,-1,332,333,372,-1,334,335,373,-1,159,374,375,-1,376,377,374,-1,374,377,378,-1,374,378,375,-1,159,346,379,-1,379,346,345,-1,379,345,380,-1,345,344,380,-1,380,344,343,-1,380,343,381,-1,382,383,384,-1,384,383,385,-1,384,385,376,-1,376,385,386,-1,376,386,377,-1,343,342,381,-1,381,342,341,-1,381,341,387,-1,388,389,382,-1,382,389,390,-1,382,390,383,-1,341,340,387,-1,387,340,339,-1,387,339,391,-1,373,392,388,-1,388,392,393,-1,388,393,389,-1,335,154,373,-1,373,154,394,-1,373,394,392,-1,333,334,372,-1,372,334,373,-1,372,373,395,-1,395,373,388,-1,395,388,396,-1,396,388,382,-1,396,382,397,-1,397,382,384,-1,397,384,398,-1,398,384,376,-1,398,376,399,-1,399,376,374,-1,399,374,159,-1,331,332,371,-1,371,332,372,-1,371,372,400,-1,400,372,395,-1,400,395,401,-1,401,395,396,-1,401,396,402,-1,402,396,397,-1,402,397,403,-1,403,397,398,-1,403,398,404,-1,404,398,399,-1,404,399,159,-1,329,330,370,-1,370,330,371,-1,370,371,405,-1,405,371,400,-1,405,400,406,-1,406,400,401,-1,406,401,407,-1,407,401,402,-1,407,402,408,-1,408,402,403,-1,408,403,409,-1,409,403,404,-1,409,404,159,-1,327,328,369,-1,369,328,370,-1,369,370,410,-1,410,370,405,-1,410,405,411,-1,411,405,406,-1,411,406,412,-1,412,406,407,-1,412,407,413,-1,413,407,408,-1,413,408,414,-1,414,408,409,-1,414,409,159,-1,325,326,415,-1,415,326,369,-1,415,369,391,-1,391,369,410,-1,391,410,387,-1,387,410,411,-1,387,411,381,-1,381,411,412,-1,381,412,380,-1,380,412,413,-1,380,413,379,-1,379,413,414,-1,379,414,159,-1,339,338,391,-1,391,338,337,-1,391,337,415,-1,415,337,336,-1,415,336,325,-1,325,336,157,-1,359,360,416,-1,361,362,417,-1,363,364,418,-1,365,366,419,-1,367,368,420,-1,167,421,357,-1,422,355,421,-1,421,355,356,-1,421,356,357,-1,167,423,424,-1,424,423,425,-1,424,425,426,-1,425,427,426,-1,426,427,428,-1,426,428,429,-1,430,352,431,-1,431,352,353,-1,431,353,422,-1,422,353,354,-1,422,354,355,-1,428,432,429,-1,429,432,433,-1,429,433,434,-1,435,350,430,-1,430,350,351,-1,430,351,352,-1,433,436,434,-1,434,436,437,-1,434,437,438,-1,420,348,435,-1,435,348,349,-1,435,349,350,-1,368,156,420,-1,420,156,347,-1,420,347,348,-1,366,367,419,-1,419,367,420,-1,419,420,439,-1,439,420,435,-1,439,435,440,-1,440,435,430,-1,440,430,441,-1,441,430,431,-1,441,431,442,-1,442,431,422,-1,442,422,443,-1,443,422,421,-1,443,421,167,-1,364,365,418,-1,418,365,419,-1,418,419,444,-1,444,419,439,-1,444,439,445,-1,445,439,440,-1,445,440,446,-1,446,440,441,-1,446,441,447,-1,447,441,442,-1,447,442,448,-1,448,442,443,-1,448,443,167,-1,362,363,417,-1,417,363,418,-1,417,418,449,-1,449,418,444,-1,449,444,450,-1,450,444,445,-1,450,445,451,-1,451,445,446,-1,451,446,452,-1,452,446,447,-1,452,447,453,-1,453,447,448,-1,453,448,167,-1,360,361,416,-1,416,361,417,-1,416,417,454,-1,454,417,449,-1,454,449,455,-1,455,449,450,-1,455,450,456,-1,456,450,451,-1,456,451,457,-1,457,451,452,-1,457,452,458,-1,458,452,453,-1,458,453,167,-1,358,359,459,-1,459,359,416,-1,459,416,438,-1,438,416,454,-1,438,454,434,-1,434,454,455,-1,434,455,429,-1,429,455,456,-1,429,456,426,-1,426,456,457,-1,426,457,424,-1,424,457,458,-1,424,458,167,-1,437,460,438,-1,438,460,461,-1,438,461,459,-1,459,461,462,-1,459,462,358,-1,358,462,153,-1,154,153,394,-1,394,153,462,-1,394,462,392,-1,392,462,461,-1,392,461,393,-1,393,461,460,-1,393,460,389,-1,389,460,437,-1,389,437,390,-1,390,437,436,-1,390,436,383,-1,383,436,433,-1,383,433,385,-1,385,433,432,-1,385,432,386,-1,386,432,428,-1,386,428,377,-1,377,428,427,-1,377,427,378,-1,378,427,425,-1,378,425,375,-1,375,425,423,-1,375,423,159,-1,159,423,167,-1,463,464,465,-1,466,467,468,-1,468,467,463,-1,468,463,469,-1,469,463,465,-1,470,471,472,-1,472,471,148,-1,472,148,463,-1,463,148,147,-1,463,147,464,-1,470,473,471,-1,471,473,474,-1,471,474,475,-1,475,474,476,-1,151,150,477,-1,477,150,478,-1,479,480,481,-1,482,483,477,-1,484,478,481,-1,481,478,485,-1,481,485,479,-1,484,486,478,-1,478,486,487,-1,478,487,477,-1,477,487,488,-1,477,488,482,-1,489,490,483,-1,483,490,491,-1,483,491,477,-1,28,148,471,-1,478,150,492,-1,492,150,52,-1,471,493,28,-1,28,493,492,-1,28,492,30,-1,30,492,52,-1,151,477,152,-1,152,477,494,-1,152,494,146,-1,146,494,495,-1,146,495,147,-1,147,495,464,-1,488,487,496,-1,496,487,497,-1,498,499,463,-1,463,499,472,-1,500,501,502,-1,503,496,494,-1,494,496,497,-1,494,497,495,-1,492,497,504,-1,505,506,507,-1,500,502,498,-1,498,502,508,-1,498,508,509,-1,510,511,512,-1,504,513,492,-1,492,513,505,-1,492,505,514,-1,514,505,507,-1,509,495,498,-1,498,495,497,-1,498,497,499,-1,499,497,492,-1,499,492,493,-1,503,494,512,-1,512,494,515,-1,512,515,510,-1,516,517,518,-1,518,517,519,-1,518,519,493,-1,493,519,520,-1,493,520,499,-1,488,496,503,-1,488,503,482,-1,482,503,512,-1,482,512,483,-1,483,512,511,-1,483,511,489,-1,489,511,510,-1,489,510,490,-1,490,510,515,-1,490,515,491,-1,491,515,494,-1,491,494,477,-1,478,492,514,-1,478,514,485,-1,485,514,507,-1,485,507,479,-1,479,507,506,-1,479,506,480,-1,480,506,505,-1,480,505,481,-1,481,505,513,-1,481,513,484,-1,484,513,504,-1,484,504,486,-1,486,504,497,-1,486,497,487,-1,464,495,509,-1,464,509,465,-1,465,509,508,-1,465,508,469,-1,469,508,502,-1,469,502,468,-1,468,502,501,-1,468,501,466,-1,466,501,500,-1,466,500,467,-1,467,500,498,-1,467,498,463,-1,472,499,520,-1,472,520,470,-1,470,520,519,-1,470,519,473,-1,473,519,517,-1,473,517,474,-1,474,517,516,-1,474,516,476,-1,476,516,518,-1,476,518,475,-1,475,518,493,-1,475,493,471,-1,128,521,144,-1,144,521,522,-1,144,522,121,-1,121,522,523,-1,121,523,122,-1,122,523,524,-1,122,524,128,-1,128,524,521,-1,525,526,527,-1,527,526,528,-1,527,528,529,-1,529,528,530,-1,529,530,531,-1,531,530,532,-1,531,532,525,-1,525,532,526,-1,521,528,522,-1,522,528,526,-1,530,524,532,-1,532,524,523,-1,524,530,521,-1,521,530,528,-1,532,523,526,-1,526,523,522,-1,533,534,535,-1,533,535,536,-1,536,535,537,-1,536,537,538,-1,538,537,539,-1,538,539,540,-1,540,539,541,-1,540,541,542,-1,542,541,543,-1,542,543,544,-1,544,543,545,-1,544,545,546,-1,545,547,546,-1,546,547,548,-1,548,547,549,-1,548,549,550,-1,550,549,551,-1,550,551,552,-1,552,551,553,-1,552,553,554,-1,554,553,555,-1,554,555,556,-1,556,555,557,-1,556,557,558,-1,558,557,559,-1,558,559,560,-1,549,547,559,-1,559,547,525,-1,555,553,551,-1,525,547,531,-1,531,547,545,-1,531,545,534,-1,549,559,551,-1,551,559,557,-1,551,557,555,-1,541,539,543,-1,543,539,537,-1,543,537,545,-1,545,537,535,-1,545,535,534,-1,560,559,527,-1,527,559,525,-1,529,533,546,-1,546,533,536,-1,529,546,527,-1,527,546,548,-1,527,548,560,-1,560,548,550,-1,560,550,552,-1,536,538,546,-1,546,538,540,-1,546,540,544,-1,544,540,542,-1,554,556,552,-1,552,556,558,-1,552,558,560,-1,534,533,531,-1,531,533,529,-1,561,562,563,-1,562,561,564,-1,564,561,565,-1,564,565,566,-1,566,565,567,-1,566,567,563,-1,563,567,568,-1,563,568,561,-1,569,119,98,-1,119,569,105,-1,105,569,570,-1,105,570,96,-1,96,570,571,-1,96,571,98,-1,98,571,572,-1,98,572,569,-1,561,570,565,-1,565,570,569,-1,571,568,572,-1,572,568,567,-1,568,571,561,-1,561,571,570,-1,572,567,569,-1,569,567,565,-1,573,574,575,-1,573,575,576,-1,576,575,577,-1,576,577,578,-1,578,577,579,-1,578,579,580,-1,580,579,581,-1,580,581,582,-1,582,581,583,-1,582,583,584,-1,584,583,585,-1,584,585,586,-1,585,587,586,-1,586,587,588,-1,588,587,589,-1,588,589,590,-1,590,589,591,-1,590,591,592,-1,592,591,593,-1,592,593,594,-1,594,593,595,-1,594,595,596,-1,596,595,597,-1,596,597,598,-1,598,597,599,-1,598,599,600,-1,589,587,599,-1,599,587,566,-1,595,593,591,-1,566,587,564,-1,564,587,585,-1,564,585,574,-1,589,599,591,-1,591,599,597,-1,591,597,595,-1,581,579,583,-1,583,579,577,-1,583,577,585,-1,585,577,575,-1,585,575,574,-1,564,574,562,-1,562,574,573,-1,562,573,586,-1,586,573,576,-1,562,586,563,-1,563,586,588,-1,563,588,600,-1,600,588,590,-1,600,590,592,-1,576,578,586,-1,586,578,580,-1,586,580,584,-1,584,580,582,-1,594,596,592,-1,592,596,598,-1,592,598,600,-1,563,600,566,-1,566,600,599,-1,102,601,602,-1,601,102,603,-1,603,102,100,-1,603,100,604,-1,604,100,120,-1,604,120,602,-1,602,120,104,-1,602,104,102,-1,605,606,607,-1,606,605,608,-1,608,605,609,-1,608,609,610,-1,610,609,611,-1,610,611,607,-1,607,611,612,-1,607,612,605,-1,602,610,604,-1,604,610,607,-1,608,601,606,-1,606,601,603,-1,601,608,602,-1,602,608,610,-1,606,603,607,-1,607,603,604,-1,613,614,615,-1,613,615,616,-1,616,615,617,-1,616,617,618,-1,618,617,619,-1,618,619,620,-1,620,619,621,-1,620,621,622,-1,622,621,623,-1,622,623,624,-1,624,623,625,-1,624,625,626,-1,626,625,627,-1,626,627,628,-1,629,628,630,-1,630,628,627,-1,629,630,631,-1,629,631,632,-1,632,631,633,-1,632,633,634,-1,634,633,635,-1,634,635,636,-1,636,635,637,-1,636,637,638,-1,638,637,639,-1,638,639,640,-1,640,639,641,-1,640,641,642,-1,605,612,641,-1,617,615,627,-1,637,635,633,-1,615,614,627,-1,627,614,605,-1,627,605,630,-1,630,605,641,-1,630,641,631,-1,625,623,621,-1,631,641,633,-1,633,641,639,-1,633,639,637,-1,625,621,627,-1,627,621,619,-1,627,619,617,-1,642,641,611,-1,611,641,612,-1,609,613,628,-1,628,613,616,-1,628,622,626,-1,626,622,624,-1,609,628,611,-1,611,628,629,-1,611,629,642,-1,642,629,632,-1,642,632,634,-1,616,618,628,-1,628,618,620,-1,628,620,622,-1,636,638,634,-1,634,638,640,-1,634,640,642,-1,614,613,605,-1,605,613,609,-1,643,644,645,-1,645,644,646,-1,645,646,647,-1,647,646,648,-1,647,648,649,-1,649,648,650,-1,649,650,643,-1,643,650,644,-1,126,651,143,-1,143,651,652,-1,143,652,133,-1,133,652,653,-1,133,653,125,-1,125,653,654,-1,125,654,126,-1,126,654,651,-1,646,653,648,-1,648,653,652,-1,654,644,651,-1,651,644,650,-1,644,654,646,-1,646,654,653,-1,651,650,652,-1,652,650,648,-1,655,656,657,-1,655,657,658,-1,658,657,659,-1,658,659,660,-1,660,659,661,-1,660,661,662,-1,662,661,663,-1,662,663,664,-1,664,663,665,-1,664,665,666,-1,666,665,667,-1,666,667,668,-1,668,667,669,-1,668,669,670,-1,671,670,672,-1,672,670,669,-1,671,672,673,-1,671,673,674,-1,674,673,675,-1,674,675,676,-1,676,675,677,-1,676,677,678,-1,678,677,679,-1,678,679,680,-1,680,679,681,-1,680,681,682,-1,682,681,683,-1,682,683,684,-1,647,649,683,-1,659,657,669,-1,679,677,675,-1,657,656,669,-1,669,656,647,-1,669,647,672,-1,672,647,683,-1,672,683,673,-1,667,665,663,-1,673,683,675,-1,675,683,681,-1,675,681,679,-1,667,663,669,-1,669,663,661,-1,669,661,659,-1,647,656,645,-1,645,656,655,-1,645,655,670,-1,670,655,658,-1,670,664,668,-1,668,664,666,-1,645,670,643,-1,643,670,671,-1,643,671,684,-1,684,671,674,-1,684,674,676,-1,658,660,670,-1,670,660,662,-1,670,662,664,-1,678,680,676,-1,676,680,682,-1,676,682,684,-1,643,684,649,-1,649,684,683,-1,
        ]
    }
}
Shape{
    appearance Appearance {
        material  Material 	{
            diffuseColor 0.34901960784313724 0.34901960784313724 0.34901960784313724
            specularColor 0.023529411764705882 0.023529411764705882 0.023529411764705882
            ambientIntensity 0.2
            transparency 0
            shininess 0.5
        }
    }
    geometry IndexedFaceSet {
        ccw TRUE
        solid FALSE
        coord DEF co Coordinate {
            point [
                -0.7008 -0.7165 0.9724, -0.7008 -0.7165 0.9803, -0.7041 -0.6911 0.9724, -0.7041 -0.6911 0.9803, -0.714 -0.6673 0.9724, -0.714 -0.6673 0.9803, -0.7296 -0.6469 0.9724, -0.7296 -0.6469 0.9803, -0.75 -0.6313 0.9724, -0.75 -0.6313 0.9803, -0.7737 -0.6215 0.9724, -0.7737 -0.6215 0.9803, -0.7992 -0.6181 0.9724, -0.7992 -0.6181 0.9803, -0.8247 -0.6215 0.9724, -0.8247 -0.6215 0.9803, -0.8484 -0.6313 0.9724, -0.8484 -0.6313 0.9803, -0.8688 -0.6469 0.9724, -0.8688 -0.6469 0.9803, -0.8845 -0.6673 0.9724, -0.8845 -0.6673 0.9803, -0.8943 -0.6911 0.9724, -0.8943 -0.6911 0.9803, -0.8976 -0.7165 0.9724, -0.8976 -0.7165 0.9803, -0.8943 -0.742 0.9724, -0.8943 -0.742 0.9803, -0.8845 -0.7657 0.9724, -0.8845 -0.7657 0.9803, -0.8688 -0.7861 0.9724, -0.8688 -0.7861 0.9803, -0.8484 -0.8018 0.9724, -0.8484 -0.8018 0.9803, -0.8247 -0.8116 0.9724, -0.8247 -0.8116 0.9803, -0.7992 -0.815 0.9724, -0.7992 -0.815 0.9803, -0.7737 -0.8116 0.9724, -0.7737 -0.8116 0.9803, -0.75 -0.8018 0.9724, -0.75 -0.8018 0.9803, -0.7296 -0.7861 0.9724, -0.7296 -0.7861 0.9803, -0.714 -0.7657 0.9724, -0.714 -0.7657 0.9803, -0.7041 -0.742 0.9724, -0.7041 -0.742 0.9803, -0.7992 -0.7165 0.9724, -0.7992 -0.7165 0.9724
            ]
        }
        coordIndex [
            0,1,2,-1,2,1,3,-1,2,3,4,-1,4,3,5,-1,4,5,6,-1,6,5,7,-1,6,7,8,-1,8,7,9,-1,8,9,10,-1,10,9,11,-1,10,11,12,-1,12,11,13,-1,12,13,14,-1,14,13,15,-1,14,15,16,-1,16,15,17,-1,16,17,18,-1,18,17,19,-1,18,19,20,-1,20,19,21,-1,20,21,22,-1,22,21,23,-1,22,23,24,-1,24,23,25,-1,24,25,26,-1,26,25,27,-1,26,27,28,-1,28,27,29,-1,28,29,30,-1,30,29,31,-1,30,31,32,-1,32,31,33,-1,32,33,34,-1,34,33,35,-1,34,35,36,-1,36,35,37,-1,36,37,38,-1,38,37,39,-1,38,39,40,-1,40,39,41,-1,40,41,42,-1,42,41,43,-1,42,43,44,-1,44,43,45,-1,44,45,46,-1,46,45,47,-1,46,47,0,-1,0,47,1,-1,44,46,48,-1,48,46,0,-1,48,0,2,-1,38,40,48,-1,48,40,42,-1,48,42,44,-1,32,34,48,-1,48,34,36,-1,48,36,38,-1,26,28,48,-1,48,28,30,-1,48,30,32,-1,20,22,48,-1,48,22,24,-1,48,24,26,-1,14,16,48,-1,48,16,18,-1,48,18,20,-1,8,10,48,-1,48,10,12,-1,48,12,14,-1,2,4,48,-1,48,4,6,-1,48,6,8,-1,
        ]
    }
}
Shape{
    appearance Appearance {
        material  Material 	{
            diffuseColor 1.0 1.0 1.0
            specularColor 0.8784313725490196 0.8784313725490196 0.8784313725490196
            ambientIntensity 0.2
            transparency 0
            shininess 0.5
        }
    }
    geometry IndexedFaceSet {
        ccw TRUE
        solid FALSE
        coord DEF co Coordinate {
            point [
                -0.6335 -0.1722 0.0079, -0.6642 -0.251 0.0079, -0.6335 -0.1722 0.0, -0.6642 -0.251 0.0, -0.6527 -0.251 0.0079, -0.6527 -0.251 0.0, -0.6447 -0.2289 0.0079, -0.6447 -0.2289 0.0, -0.6122 -0.2289 0.0079, -0.6122 -0.2289 0.0, -0.6047 -0.251 0.0079, -0.6047 -0.251 0.0, -0.5931 -0.251 0.0079, -0.5931 -0.251 0.0, -0.6229 -0.1722 0.0079, -0.6229 -0.1722 0.0, -0.6148 -0.2202 0.0079, -0.6412 -0.2202 0.0079, -0.6266 -0.1873 0.0079, -0.6273 -0.1846 0.0079, -0.6278 -0.1818 0.0079, -0.6281 -0.1818 0.0079, -0.6286 -0.1846 0.0079, -0.6293 -0.1873 0.0079, -0.6148 -0.2202 0.0, -0.6412 -0.2202 0.0, -0.6266 -0.1873 0.0, -0.6273 -0.1846 0.0, -0.6278 -0.1818 0.0, -0.6281 -0.1818 0.0, -0.6286 -0.1846 0.0, -0.6293 -0.1873 0.0, -0.5454 -0.251 0.0079, -0.524 -0.251 0.0079, -0.5454 -0.251 0.0, -0.524 -0.251 0.0, -0.524 -0.1722 0.0079, -0.524 -0.1722 0.0, -0.5462 -0.1722 0.0079, -0.5462 -0.1722 0.0, -0.5874 -0.2106 0.0079, -0.5874 -0.2106 0.0, -0.5868 -0.2032 0.0, -0.5868 -0.2032 0.0079, -0.5847 -0.1954 0.0, -0.5847 -0.1954 0.0079, -0.581 -0.1887 0.0, -0.581 -0.1887 0.0079, -0.5755 -0.1825 0.0, -0.5755 -0.1825 0.0079, -0.5754 -0.1824 0.0, -0.5754 -0.1824 0.0079, -0.5668 -0.1767 0.0, -0.5668 -0.1767 0.0079, -0.5576 -0.1734 0.0, -0.5576 -0.1734 0.0079, -0.5552 -0.2501 0.0, -0.5552 -0.2501 0.0079, -0.5642 -0.2474 0.0, -0.5642 -0.2474 0.0079, -0.5725 -0.2426 0.0, -0.5725 -0.2426 0.0079, -0.5789 -0.2364 0.0, -0.5789 -0.2364 0.0079, -0.5835 -0.2294 0.0, -0.5835 -0.2294 0.0079, -0.5863 -0.2211 0.0, -0.5863 -0.2211 0.0079, -0.5716 -0.1919 0.0079, -0.5678 -0.1878 0.0079, -0.562 -0.1841 0.0079, -0.5555 -0.1818 0.0079, -0.5462 -0.1809 0.0079, -0.5346 -0.1809 0.0079, -0.5346 -0.2423 0.0079, -0.5457 -0.2423 0.0079, -0.5541 -0.2415 0.0079, -0.5607 -0.2395 0.0079, -0.5661 -0.2363 0.0079, -0.5705 -0.2319 0.0079, -0.5738 -0.2265 0.0079, -0.5761 -0.2191 0.0079, -0.5768 -0.2108 0.0079, -0.5762 -0.203 0.0079, -0.5743 -0.1968 0.0079, -0.5462 -0.1809 0.0, -0.5346 -0.1809 0.0, -0.5555 -0.1818 0.0, -0.562 -0.1841 0.0, -0.5678 -0.1878 0.0, -0.5716 -0.1919 0.0, -0.5743 -0.1968 0.0, -0.5762 -0.203 0.0, -0.5768 -0.2108 0.0, -0.5761 -0.2191 0.0, -0.5738 -0.2265 0.0, -0.5705 -0.2319 0.0, -0.5661 -0.2363 0.0, -0.5607 -0.2395 0.0, -0.5541 -0.2415 0.0, -0.5457 -0.2423 0.0, -0.5346 -0.2423 0.0, -0.5086 -0.2423 0.0079, -0.5086 -0.251 0.0079, -0.5086 -0.2423 0.0, -0.5086 -0.251 0.0, -0.4664 -0.251 0.0079, -0.4664 -0.251 0.0, -0.4664 -0.1722 0.0079, -0.4664 -0.1722 0.0, -0.5067 -0.1722 0.0079, -0.5067 -0.1722 0.0, -0.5067 -0.1809 0.0079, -0.5067 -0.1809 0.0, -0.477 -0.1809 0.0079, -0.477 -0.1809 0.0, -0.477 -0.2068 0.0079, -0.477 -0.2068 0.0, -0.5048 -0.2068 0.0079, -0.5048 -0.2068 0.0, -0.5048 -0.2154 0.0079, -0.5048 -0.2154 0.0, -0.477 -0.2154 0.0079, -0.477 -0.2154 0.0, -0.477 -0.2423 0.0079, -0.477 -0.2423 0.0, -0.451 -0.2382 0.0079, -0.451 -0.2469 0.0079, -0.451 -0.2382 0.0, -0.451 -0.2469 0.0, -0.4426 -0.2503 0.0079, -0.4294 -0.2519 0.0079, -0.4294 -0.2519 0.0, -0.4315 -0.2519 0.0, -0.4315 -0.2519 0.0079, -0.4347 -0.2514 0.0, -0.4426 -0.2503 0.0, -0.3925 -0.2131 0.0079, -0.3925 -0.2131 0.0, -0.3932 -0.2222 0.0, -0.3932 -0.2222 0.0079, -0.3956 -0.2305 0.0, -0.3956 -0.2305 0.0079, -0.3998 -0.238 0.0, -0.3998 -0.238 0.0079, -0.4057 -0.2442 0.0, -0.4057 -0.2442 0.0079, -0.412 -0.2483 0.0, -0.412 -0.2483 0.0079, -0.4197 -0.2509 0.0, -0.4197 -0.2509 0.0079, -0.4247 -0.2514 0.0, -0.4325 -0.1713 0.0079, -0.4325 -0.1713 0.0, -0.4246 -0.1719 0.0, -0.4246 -0.1719 0.0079, -0.4158 -0.1744 0.0, -0.4158 -0.1744 0.0079, -0.4083 -0.1788 0.0, -0.4083 -0.1788 0.0079, -0.4012 -0.1856 0.0, -0.4012 -0.1856 0.0079, -0.3966 -0.193 0.0, -0.3966 -0.193 0.0079, -0.3936 -0.2019 0.0, -0.3936 -0.2019 0.0079, -0.451 -0.1744 0.0079, -0.451 -0.1744 0.0, -0.4419 -0.1719 0.0, -0.4419 -0.1719 0.0079, -0.451 -0.1849 0.0079, -0.451 -0.1849 0.0, -0.4326 -0.1799 0.0079, -0.4326 -0.1799 0.0, -0.4422 -0.1811 0.0, -0.4422 -0.1811 0.0079, -0.403 -0.2124 0.0079, -0.403 -0.2124 0.0, -0.4034 -0.2063 0.0, -0.4034 -0.2063 0.0079, -0.4055 -0.1979 0.0, -0.4055 -0.1979 0.0079, -0.4087 -0.1918 0.0, -0.4087 -0.1918 0.0079, -0.4135 -0.1865 0.0, -0.4135 -0.1865 0.0079, -0.4189 -0.1829 0.0, -0.4189 -0.1829 0.0079, -0.4248 -0.1808 0.0, -0.4248 -0.1808 0.0079, -0.4308 -0.2433 0.0079, -0.4308 -0.2433 0.0, -0.4235 -0.2424 0.0, -0.4235 -0.2424 0.0079, -0.4177 -0.2403 0.0, -0.4177 -0.2403 0.0079, -0.4129 -0.2371 0.0, -0.4129 -0.2371 0.0079, -0.4092 -0.2332 0.0, -0.4092 -0.2332 0.0079, -0.406 -0.2277 0.0, -0.406 -0.2277 0.0079, -0.4038 -0.2209 0.0, -0.4038 -0.2209 0.0079, -0.4496 -0.239 0.0, -0.4496 -0.239 0.0079, -0.4413 -0.2421 0.0, -0.4413 -0.2421 0.0079, -0.3857 -0.2423 0.0079, -0.3857 -0.251 0.0079, -0.3857 -0.2423 0.0, -0.3857 -0.251 0.0, -0.3454 -0.251 0.0079, -0.3454 -0.251 0.0, -0.3454 -0.1722 0.0079, -0.3454 -0.1722 0.0, -0.356 -0.1722 0.0079, -0.356 -0.1722 0.0, -0.356 -0.2423 0.0079, -0.356 -0.2423 0.0, -0.356 -0.2423 0.0
            ]
        }
        coordIndex [
            0,1,2,-1,2,1,3,-1,1,4,3,-1,3,4,5,-1,4,6,5,-1,5,6,7,-1,6,8,7,-1,7,8,9,-1,8,10,9,-1,9,10,11,-1,10,12,11,-1,11,12,13,-1,12,14,13,-1,13,14,15,-1,14,0,15,-1,15,0,2,-1,16,8,17,-1,17,8,6,-1,18,14,16,-1,16,14,12,-1,16,12,8,-1,8,12,10,-1,18,19,14,-1,14,19,20,-1,14,20,0,-1,0,20,21,-1,0,21,22,-1,22,23,0,-1,0,23,17,-1,0,17,1,-1,1,17,6,-1,1,6,4,-1,16,17,24,-1,24,17,25,-1,18,16,26,-1,26,16,24,-1,18,26,27,-1,18,27,19,-1,19,27,28,-1,19,28,20,-1,21,20,29,-1,29,20,28,-1,21,29,30,-1,21,30,22,-1,22,30,31,-1,22,31,23,-1,17,23,25,-1,25,23,31,-1,32,33,34,-1,34,33,35,-1,33,36,35,-1,35,36,37,-1,36,38,37,-1,37,38,39,-1,40,41,42,-1,40,42,43,-1,43,42,44,-1,43,44,45,-1,45,44,46,-1,45,46,47,-1,47,46,48,-1,47,48,49,-1,49,48,50,-1,49,50,51,-1,51,50,52,-1,51,52,53,-1,53,52,54,-1,53,54,55,-1,55,54,39,-1,55,39,38,-1,32,34,56,-1,32,56,57,-1,57,56,58,-1,57,58,59,-1,59,58,60,-1,59,60,61,-1,61,60,62,-1,61,62,63,-1,63,62,64,-1,63,64,65,-1,65,64,66,-1,65,66,67,-1,67,66,41,-1,67,41,40,-1,45,47,68,-1,68,47,49,-1,68,49,69,-1,69,49,51,-1,69,51,70,-1,70,51,53,-1,70,53,71,-1,71,53,55,-1,71,55,72,-1,72,55,38,-1,72,38,73,-1,73,38,36,-1,73,36,74,-1,74,36,33,-1,74,33,75,-1,75,33,32,-1,75,32,76,-1,76,32,57,-1,76,57,77,-1,77,57,59,-1,77,59,78,-1,78,59,61,-1,78,61,79,-1,79,61,63,-1,79,63,80,-1,80,63,65,-1,80,65,81,-1,81,65,67,-1,81,67,82,-1,82,67,40,-1,82,40,83,-1,83,40,43,-1,83,43,84,-1,84,43,45,-1,84,45,68,-1,72,73,85,-1,85,73,86,-1,72,85,87,-1,72,87,71,-1,71,87,88,-1,71,88,70,-1,70,88,89,-1,70,89,69,-1,69,89,90,-1,69,90,68,-1,68,90,91,-1,68,91,84,-1,84,91,92,-1,84,92,83,-1,83,92,93,-1,83,93,82,-1,82,93,94,-1,82,94,81,-1,81,94,95,-1,81,95,80,-1,80,95,96,-1,80,96,79,-1,79,96,97,-1,79,97,78,-1,78,97,98,-1,78,98,77,-1,77,98,99,-1,77,99,76,-1,76,99,100,-1,76,100,75,-1,74,75,101,-1,101,75,100,-1,73,74,86,-1,86,74,101,-1,102,103,104,-1,104,103,105,-1,103,106,105,-1,105,106,107,-1,106,108,107,-1,107,108,109,-1,108,110,109,-1,109,110,111,-1,110,112,111,-1,111,112,113,-1,112,114,113,-1,113,114,115,-1,114,116,115,-1,115,116,117,-1,116,118,117,-1,117,118,119,-1,118,120,119,-1,119,120,121,-1,120,122,121,-1,121,122,123,-1,122,124,123,-1,123,124,125,-1,124,102,125,-1,125,102,104,-1,106,103,102,-1,102,124,106,-1,106,124,122,-1,106,122,108,-1,112,110,114,-1,114,110,108,-1,114,108,116,-1,116,108,122,-1,116,122,118,-1,118,122,120,-1,126,127,128,-1,128,127,129,-1,129,127,130,-1,131,132,133,-1,131,133,134,-1,134,133,135,-1,134,135,130,-1,130,135,136,-1,130,136,129,-1,137,138,139,-1,137,139,140,-1,140,139,141,-1,140,141,142,-1,142,141,143,-1,142,143,144,-1,144,143,145,-1,144,145,146,-1,146,145,147,-1,146,147,148,-1,148,147,149,-1,148,149,150,-1,150,149,131,-1,131,149,151,-1,131,151,132,-1,152,153,154,-1,152,154,155,-1,155,154,156,-1,155,156,157,-1,157,156,158,-1,157,158,159,-1,159,158,160,-1,159,160,161,-1,161,160,162,-1,161,162,163,-1,163,162,164,-1,163,164,165,-1,165,164,138,-1,165,138,137,-1,166,167,168,-1,166,168,169,-1,169,168,153,-1,169,153,152,-1,166,170,167,-1,167,170,171,-1,172,173,174,-1,172,174,175,-1,175,174,171,-1,175,171,170,-1,176,177,178,-1,176,178,179,-1,179,178,180,-1,179,180,181,-1,181,180,182,-1,181,182,183,-1,183,182,184,-1,183,184,185,-1,185,184,186,-1,185,186,187,-1,187,186,188,-1,187,188,189,-1,189,188,173,-1,189,173,172,-1,190,191,192,-1,190,192,193,-1,193,192,194,-1,193,194,195,-1,195,194,196,-1,195,196,197,-1,197,196,198,-1,197,198,199,-1,199,198,200,-1,199,200,201,-1,201,200,202,-1,201,202,203,-1,203,202,177,-1,203,177,176,-1,126,128,204,-1,126,204,205,-1,205,204,206,-1,205,206,207,-1,207,206,191,-1,207,191,190,-1,193,131,190,-1,190,131,134,-1,190,134,207,-1,207,134,130,-1,207,130,205,-1,205,130,127,-1,205,127,126,-1,170,166,175,-1,175,166,169,-1,175,169,172,-1,172,169,152,-1,172,152,189,-1,189,152,155,-1,189,155,187,-1,187,155,157,-1,187,157,185,-1,185,157,159,-1,185,159,183,-1,183,159,161,-1,183,161,181,-1,181,161,163,-1,181,163,179,-1,179,163,165,-1,179,165,176,-1,176,165,137,-1,176,137,203,-1,203,137,140,-1,203,140,201,-1,201,140,142,-1,201,142,199,-1,199,142,144,-1,199,144,197,-1,197,144,146,-1,197,146,195,-1,195,146,148,-1,195,148,193,-1,193,148,150,-1,193,150,131,-1,208,209,210,-1,210,209,211,-1,209,212,211,-1,211,212,213,-1,212,214,213,-1,213,214,215,-1,214,216,215,-1,215,216,217,-1,216,218,217,-1,217,218,219,-1,218,208,219,-1,219,208,210,-1,216,214,218,-1,218,214,212,-1,218,212,208,-1,208,212,209,-1,
        ]
    }
}
Shape{
    appearance Appearance {
        material  Material 	{
            diffuseColor 0.6666666666666666 0.6666666666666666 0.6666666666666666
            specularColor 0.4666666666666667 0.4666666666666667 0.4666666666666667
            ambientIntensity 0.2
            transparency 0
            shininess 0.5
        }
    }
    geometry IndexedFaceSet {
        ccw TRUE
        solid FALSE
        coord DEF co Coordinate {
            point [
                -0.6148 -0.2202 0.0, -0.6412 -0.2202 0.0, -0.6266 -0.1873 0.0, -0.6293 -0.1873 0.0, -0.6273 -0.1846 0.0, -0.6286 -0.1846 0.0, -0.6278 -0.1818 0.0, -0.6281 -0.1818 0.0, -0.5346 -0.1809 0.0, -0.5346 -0.2423 0.0, -0.5462 -0.1809 0.0, -0.5457 -0.2423 0.0, -0.5541 -0.2415 0.0, -0.5768 -0.2108 0.0, -0.5762 -0.203 0.0, -0.5743 -0.1968 0.0, -0.5555 -0.1818 0.0, -0.5607 -0.2395 0.0, -0.5661 -0.2363 0.0, -0.5705 -0.2319 0.0, -0.5738 -0.2265 0.0, -0.5761 -0.2191 0.0, -0.5716 -0.1919 0.0, -0.5678 -0.1878 0.0, -0.562 -0.1841 0.0, -0.562 -0.1841 0.0
            ]
        }
        coordIndex [
            0,1,2,-1,2,1,3,-1,2,3,4,-1,4,3,5,-1,4,5,6,-1,6,5,7,-1,8,9,10,-1,10,9,11,-1,10,11,12,-1,13,14,10,-1,10,14,15,-1,10,15,16,-1,12,17,10,-1,10,17,18,-1,10,18,19,-1,19,20,10,-1,10,20,21,-1,10,21,13,-1,22,23,15,-1,15,23,24,-1,15,24,16,-1,
        ]
    }
}