#VRML V2.0 utf8
# 3D model generated by easyeda2kicad.py (https://github.com/uPesy/easyeda2kicad.py)

Shape{
    appearance Appearance {
        material  Material 	{
            diffuseColor 0.054901960784313725 0.054901960784313725 0.054901960784313725
            specularColor 0.027450980392156862 0.027450980392156862 0.027450980392156862
            ambientIntensity 0.2
            transparency 0
            shininess 0.5
        }
    }
    geometry IndexedFaceSet {
        ccw TRUE
        solid FALSE
        coord DEF co Coordinate {
            point [
                0.2987 0.1584 0.0984, 0.3374 0.1541 0.0984, 0.2135 -0.1371 0.0984, 0.2882 -0.1993 0.0984, 0.168 -0.1993 0.0984, 0.2484 -0.1937 0.0984, 0.2065 -0.1764 0.0984, 0.2508 0.1522 0.0984, 0.2065 -0.1332 0.0984, 0.2065 0.1332 0.0984, 0.168 1.3583 0.0984, 0.2065 0.186 0.0984, 0.3669 0.1435 0.0984, 0.3941 0.1252 0.0984, 0.4179 0.099 0.0984, 0.4465 -0.0042 0.0984, 0.4425 -0.0468 0.0984, 0.4318 -0.0807 0.0984, 0.3442 -0.1543 0.0984, 0.3075 -0.1584 0.0984, 0.3729 -0.1438 0.0984, 0.3971 -0.1275 0.0984, 0.4155 -0.108 0.0984, 0.2552 -0.1526 0.0984, 0.7346 -0.1969 0.0984, 2.4803 1.3477 0.0984, 2.4966 1.3352 0.0984, 1.0 1.3583 0.0984, 0.7346 0.1969 0.0984, 0.5 1.3583 0.0984, 0.6818 0.1969 0.0984, 1.5 1.3583 0.0984, 2.4409 1.3583 0.0984, 2.4613 1.3556 0.0984, 0.4341 0.0686 0.0984, 0.4446 0.0264 0.0984, 0.4015 -0.1835 0.0984, 0.4331 -0.1633 0.0984, 0.5329 -0.1969 0.0984, 0.4627 -0.1321 0.0984, 0.5329 -0.1536 0.0984, 0.4837 -0.0947 0.0984, 0.6818 -0.1536 0.0984, 0.4785 0.0932 0.0984, 0.4555 0.13 0.0984, 0.4199 0.1641 0.0984, 0.3825 0.1857 0.0984, 0.3386 0.1984 0.0984, 2.5091 1.3189 0.0984, 2.517 1.2999 0.0984, 2.5197 1.2795 0.0984, 2.5197 -0.1993 0.0984, 0.3379 -0.1993 0.0984, 0.3633 -0.1966 0.0984, 0.4955 -0.053 0.0984, 0.4993 -0.0074 0.0984, 0.4937 0.0485 0.0984, 0.2991 0.2017 0.0984, 0.252 0.1984 0.0984, 0.304 -0.2015 0.0984, 0.168 -1.3583 0.0984, 0.5 -1.3583 0.0984, 0.3148 -0.2017 0.0984, 1.0 -1.3583 0.0984, 1.5 -1.3583 0.0984, 2.5197 -1.2795 0.0984, 2.4803 -1.3477 0.0984, 2.4613 -1.3556 0.0984, 2.4409 -1.3583 0.0984, 2.4966 -1.3352 0.0984, 2.517 -1.2999 0.0984, 2.5091 -1.3189 0.0984, -0.5041 -0.1969 0.0984, -0.4557 -0.0889 0.0984, -0.4331 -0.1242 0.0984, -0.0816 -0.1969 0.0984, 0.1296 -0.1969 0.0984, 0.1296 0.1969 0.0984, -0.072 0.1969 0.0984, -1.5 1.3583 0.0984, -1.0 1.3583 0.0984, -0.4007 -0.1552 0.0984, -0.3596 -0.1791 0.0984, -0.3142 -0.1926 0.0984, -0.5 1.3583 0.0984, 0.0 1.3583 0.0984, 0.0768 0.1536 0.0984, 0.0768 0.024 0.0984, -0.072 0.1536 0.0984, -0.0624 0.024 0.0984, -0.1584 0.1969 0.0984, -0.0624 -0.0192 0.0984, 0.0768 -0.0192 0.0984, 0.0768 -0.1536 0.0984, -0.0816 -0.1536 0.0984, -0.1584 -0.1969 0.0984, -0.2655 -0.1969 0.0984, -0.3264 0.1908 0.0984, -0.3725 0.1746 0.0984, -0.653 0.1969 0.0984, -0.4153 0.1459 0.0984, -0.8594 -0.1969 0.0984, -0.8018 -0.1969 0.0984, -0.4157 0.1455 0.0984, -0.4436 0.1146 0.0984, -0.4619 0.0808 0.0984, -0.2695 0.1969 0.0984, -0.4725 0.042 0.0984, -0.4753 0.005 0.0984, -0.4698 -0.0477 0.0984, -0.762 -0.0864 0.0984, -0.5993 -0.0864 0.0984, -0.5617 -0.1969 0.0984, -2.5197 -0.1993 0.0984, -2.1407 1.3583 0.0984, -2.5197 1.2795 0.0984, -2.4409 1.3583 0.0984, -2.517 1.2999 0.0984, -2.5091 1.3189 0.0984, -2.4966 1.3352 0.0984, -2.4803 1.3477 0.0984, -2.4613 1.3556 0.0984, 0.0 -1.3583 0.0984, -0.5 -1.3583 0.0984, -1.0 -1.3583 0.0984, -0.7058 0.1969 0.0984, -1.5 -1.3583 0.0984, -2.1407 -1.3583 0.0984, -2.5197 -1.2795 0.0984, -2.4409 -1.3583 0.0984, -2.517 -1.2999 0.0984, -2.4803 -1.3477 0.0984, -2.4966 -1.3352 0.0984, -2.5091 -1.3189 0.0984, -2.4613 -1.3556 0.0984, -2.4409 1.3583 1.4567, -2.4409 1.3583 2.1654, -2.1407 1.3583 2.1654, -2.1407 1.3583 1.4567, -1.6594 1.3583 0.6299, -1.6594 1.3583 0.748, -1.8406 1.3583 0.6299, -1.8406 1.3583 0.748, -1.5 1.3583 1.4567, -1.1594 1.3583 0.6299, -1.1594 1.3583 0.748, -1.3406 1.3583 0.6299, -1.3406 1.3583 0.748, -1.0 1.3583 1.4567, -0.6594 1.3583 0.6299, -0.6594 1.3583 0.748, -0.8406 1.3583 0.6299, -0.8406 1.3583 0.748, -0.5 1.3583 1.4567, -0.1594 1.3583 0.6299, -0.1594 1.3583 0.748, -0.3406 1.3583 0.6299, -0.3406 1.3583 0.748, 0.0 1.3583 1.4567, 0.5 1.3583 1.4567, 0.3406 1.3583 0.748, 0.3406 1.3583 0.6299, 0.1594 1.3583 0.6299, 0.1594 1.3583 0.748, 0.8406 1.3583 0.6299, 0.8406 1.3583 0.748, 0.6594 1.3583 0.6299, 0.6594 1.3583 0.748, 1.0 1.3583 1.4567, 1.3406 1.3583 0.6299, 1.3406 1.3583 0.748, 1.1594 1.3583 0.6299, 1.1594 1.3583 0.748, 1.5 1.3583 1.4567, 1.6594 1.3583 0.6299, 1.6594 1.3583 0.748, 1.8406 1.3583 0.748, 2.4409 1.3583 1.4567, 1.8406 1.3583 0.6299, -1.5 1.3583 2.1654, -1.0 1.3583 2.1654, -0.5 1.3583 2.1654, 0.0 1.3583 2.1654, 0.5 1.3583 2.1654, 1.0 1.3583 2.1654, 1.5 1.3583 2.1654, 2.4409 1.3583 2.1654, -2.4409 -1.3583 0.3642, -1.5 -1.3583 0.3642, -1.6594 -1.3583 0.6299, -2.1407 -1.3583 0.3642, -1.8406 -1.3583 0.6299, -1.8406 -1.3583 0.748, -1.6594 -1.3583 0.748, -1.5 -1.3583 2.1654, -2.1407 -1.3583 2.1654, -2.4409 -1.3583 2.1654, -1.0 -1.3583 0.3642, -1.1594 -1.3583 0.6299, -1.3406 -1.3583 0.6299, -1.3406 -1.3583 0.748, -1.1594 -1.3583 0.748, -1.0 -1.3583 2.1654, -0.5 -1.3583 0.3642, -0.6594 -1.3583 0.6299, -0.8406 -1.3583 0.6299, -0.8406 -1.3583 0.748, -0.6594 -1.3583 0.748, -0.5 -1.3583 2.1654, 0.0 -1.3583 0.3642, -0.1594 -1.3583 0.6299, -0.3406 -1.3583 0.6299, -0.3406 -1.3583 0.748, -0.1594 -1.3583 0.748, 0.0 -1.3583 2.1654, 0.5 -1.3583 0.3642, 0.3406 -1.3583 0.6299, 0.1594 -1.3583 0.6299, 0.1594 -1.3583 0.748, 0.3406 -1.3583 0.748, 0.5 -1.3583 2.1654, 1.0 -1.3583 0.3642, 0.8406 -1.3583 0.6299, 0.6594 -1.3583 0.6299, 0.6594 -1.3583 0.748, 0.8406 -1.3583 0.748, 1.0 -1.3583 2.1654, 1.5 -1.3583 0.3642, 1.3406 -1.3583 0.6299, 1.1594 -1.3583 0.6299, 1.1594 -1.3583 0.748, 1.3406 -1.3583 0.748, 1.5 -1.3583 2.1654, 1.6594 -1.3583 0.6299, 1.6594 -1.3583 0.748, 1.8406 -1.3583 0.6299, 2.4409 -1.3583 0.3642, 1.8406 -1.3583 0.748, 2.4409 -1.3583 2.1654, 2.5197 1.2795 2.1654, 2.5197 -1.2795 2.1654, -2.5197 -1.2795 2.1654, -2.5197 1.2795 2.1654, -1.9767 -1.0117 2.2441, -1.9927 -1.0504 2.2441, 2.4409 -1.2795 2.2441, -2.0182 -1.0836 2.2441, -2.2705 -0.89 2.2441, -2.4409 1.2795 2.2441, -2.2866 -0.9287 2.2441, -2.4409 -1.2795 2.2441, -2.292 -0.9702 2.2441, -2.0182 -0.8568 2.2441, -1.9927 -0.89 2.2441, 2.4409 1.2795 2.2441, -1.9767 -0.9287 2.2441, -1.9712 -0.9702 2.2441, -2.0514 -1.1091 2.2441, -2.0901 -1.1251 2.2441, -2.1316 -1.1306 2.2441, -2.1731 -1.1251 2.2441, -2.2118 -1.1091 2.2441, -2.245 -1.0836 2.2441, -2.245 -0.8568 2.2441, -2.2118 -0.8313 2.2441, -2.1731 -0.8152 2.2441, -2.2705 -1.0504 2.2441, -2.2866 -1.0117 2.2441, -2.1316 -0.8098 2.2441, -2.0901 -0.8152 2.2441, -2.0514 -0.8313 2.2441, -2.0514 -0.8313 2.2441
            ]
        }
        coordIndex [
            0,1,2,-1,3,4,5,-1,5,4,6,-1,0,2,7,-1,7,2,8,-1,7,8,9,-1,9,8,10,-1,9,10,11,-1,1,12,2,-1,2,12,13,-1,2,13,14,-1,15,16,2,-1,2,16,17,-1,18,19,20,-1,20,19,21,-1,17,22,2,-1,2,22,21,-1,2,21,23,-1,23,21,19,-1,24,25,26,-1,27,28,29,-1,29,28,30,-1,29,30,10,-1,27,31,28,-1,28,31,32,-1,28,32,24,-1,24,32,33,-1,24,33,25,-1,14,34,2,-1,2,34,35,-1,2,35,15,-1,36,37,38,-1,38,37,39,-1,38,39,40,-1,40,39,41,-1,40,41,42,-1,43,44,30,-1,30,44,45,-1,30,45,10,-1,10,45,46,-1,10,46,47,-1,26,48,24,-1,24,48,49,-1,24,49,50,-1,50,51,24,-1,24,51,52,-1,24,52,38,-1,38,52,53,-1,38,53,36,-1,41,54,42,-1,42,54,55,-1,42,55,30,-1,30,55,56,-1,30,56,43,-1,47,57,10,-1,10,57,58,-1,10,58,11,-1,3,59,60,-1,60,59,61,-1,61,59,62,-1,61,62,63,-1,63,62,52,-1,63,52,64,-1,64,52,51,-1,64,51,65,-1,66,67,65,-1,65,67,68,-1,65,68,64,-1,66,65,69,-1,69,65,70,-1,69,70,71,-1,72,73,74,-1,75,76,4,-1,4,76,77,-1,78,79,80,-1,74,81,72,-1,72,81,82,-1,72,82,83,-1,80,84,78,-1,78,84,85,-1,78,85,77,-1,77,85,10,-1,77,10,4,-1,4,10,8,-1,4,8,6,-1,86,87,88,-1,88,87,89,-1,88,89,90,-1,90,89,91,-1,92,93,91,-1,91,93,94,-1,91,94,90,-1,90,94,75,-1,90,75,95,-1,95,75,4,-1,95,4,96,-1,97,98,99,-1,99,98,100,-1,101,102,4,-1,100,103,99,-1,99,103,104,-1,99,104,105,-1,97,99,106,-1,106,99,79,-1,106,79,90,-1,90,79,78,-1,90,78,88,-1,105,107,99,-1,99,107,108,-1,99,108,72,-1,72,108,109,-1,72,109,73,-1,110,111,102,-1,102,111,112,-1,102,112,4,-1,4,112,72,-1,4,72,96,-1,96,72,83,-1,79,113,114,-1,114,113,115,-1,114,115,116,-1,116,115,117,-1,116,117,118,-1,119,120,118,-1,118,120,121,-1,118,121,116,-1,3,60,4,-1,4,60,122,-1,4,122,123,-1,123,124,4,-1,4,124,113,-1,4,113,101,-1,101,113,79,-1,101,79,125,-1,125,79,99,-1,124,126,113,-1,113,126,127,-1,113,127,128,-1,128,127,129,-1,128,129,130,-1,131,132,133,-1,130,129,133,-1,133,129,134,-1,133,134,131,-1,135,136,137,-1,135,138,116,-1,116,138,114,-1,79,139,140,-1,139,79,141,-1,141,79,114,-1,141,114,142,-1,142,114,138,-1,142,138,140,-1,140,138,143,-1,140,143,79,-1,80,144,145,-1,144,80,146,-1,146,80,79,-1,146,79,147,-1,147,79,143,-1,147,143,145,-1,145,143,148,-1,145,148,80,-1,84,149,150,-1,149,84,151,-1,151,84,80,-1,151,80,152,-1,152,80,148,-1,152,148,150,-1,150,148,153,-1,150,153,84,-1,85,154,155,-1,154,85,156,-1,156,85,84,-1,156,84,157,-1,157,84,153,-1,157,153,155,-1,155,153,158,-1,155,158,85,-1,158,159,160,-1,160,159,29,-1,160,29,161,-1,161,29,10,-1,161,10,162,-1,162,10,85,-1,162,85,163,-1,163,85,158,-1,163,158,160,-1,27,164,165,-1,164,27,166,-1,166,27,29,-1,166,29,167,-1,167,29,159,-1,167,159,165,-1,165,159,168,-1,165,168,27,-1,31,169,170,-1,169,31,171,-1,171,31,27,-1,171,27,172,-1,172,27,168,-1,172,168,170,-1,170,168,173,-1,170,173,31,-1,174,31,175,-1,175,31,173,-1,175,173,176,-1,176,173,177,-1,176,177,178,-1,178,177,32,-1,178,32,174,-1,174,32,31,-1,135,137,138,-1,138,137,179,-1,138,179,143,-1,143,179,180,-1,143,180,148,-1,148,180,181,-1,148,181,153,-1,153,181,182,-1,153,182,158,-1,158,182,183,-1,158,183,159,-1,159,183,184,-1,159,184,168,-1,168,184,185,-1,168,185,173,-1,173,185,186,-1,173,186,177,-1,187,129,127,-1,188,189,190,-1,190,189,191,-1,190,191,192,-1,193,194,192,-1,192,194,195,-1,192,195,190,-1,190,195,196,-1,190,196,187,-1,197,198,188,-1,188,198,199,-1,188,199,200,-1,201,202,200,-1,200,202,194,-1,200,194,188,-1,188,194,193,-1,188,193,189,-1,203,204,197,-1,197,204,205,-1,197,205,206,-1,207,208,206,-1,206,208,202,-1,206,202,197,-1,197,202,201,-1,197,201,198,-1,209,210,203,-1,203,210,211,-1,203,211,212,-1,213,214,212,-1,212,214,208,-1,212,208,203,-1,203,208,207,-1,203,207,204,-1,215,216,209,-1,209,216,217,-1,209,217,218,-1,219,220,218,-1,218,220,214,-1,218,214,209,-1,209,214,213,-1,209,213,210,-1,187,127,190,-1,190,127,126,-1,190,126,188,-1,188,126,124,-1,188,124,197,-1,197,124,123,-1,197,123,203,-1,203,123,122,-1,203,122,209,-1,209,122,60,-1,209,60,215,-1,221,222,215,-1,215,222,223,-1,215,223,224,-1,225,226,224,-1,224,226,220,-1,224,220,215,-1,215,220,219,-1,215,219,216,-1,227,228,221,-1,221,228,229,-1,221,229,230,-1,231,232,230,-1,230,232,226,-1,230,226,221,-1,221,226,225,-1,221,225,222,-1,227,233,234,-1,233,227,235,-1,235,227,236,-1,235,236,237,-1,237,236,238,-1,237,238,234,-1,234,238,232,-1,234,232,227,-1,227,232,231,-1,227,231,228,-1,60,61,215,-1,215,61,63,-1,215,63,221,-1,221,63,64,-1,221,64,227,-1,227,64,68,-1,227,68,236,-1,50,239,51,-1,51,239,240,-1,51,240,65,-1,128,241,113,-1,113,241,242,-1,113,242,115,-1,243,244,245,-1,245,244,246,-1,247,248,249,-1,249,248,250,-1,249,250,251,-1,252,253,254,-1,254,253,255,-1,254,255,245,-1,245,255,256,-1,245,256,243,-1,246,257,245,-1,245,257,258,-1,245,258,250,-1,250,258,259,-1,259,260,250,-1,250,260,261,-1,250,261,262,-1,247,263,248,-1,248,263,264,-1,248,264,265,-1,262,266,250,-1,250,266,267,-1,250,267,251,-1,265,268,248,-1,248,268,269,-1,248,269,254,-1,254,269,270,-1,254,270,252,-1,
        ]
    }
}
Shape{
    appearance Appearance {
        material  Material 	{
            diffuseColor 0.6980392156862745 0.6980392156862745 0.6980392156862745
            specularColor 0.34901960784313724 0.34901960784313724 0.34901960784313724
            ambientIntensity 0.2
            transparency 0
            shininess 0.5
        }
    }
    geometry IndexedFaceSet {
        ccw TRUE
        solid FALSE
        coord DEF co Coordinate {
            point [
                -1.8406 -1.657 0.6402, -1.8406 -1.7027 0.1181, -1.6594 -1.657 0.6402, -1.6594 -1.7027 0.1181, -1.6594 -1.8701 0.1181, -1.8406 -1.8701 0.1181, -1.6594 -1.8701 -0.0, -1.8406 -1.8701 -0.0, -1.6594 -1.7027 -0.0, -1.8406 -1.7027 -0.0, -1.8406 -1.5851 0.1078, -1.8406 -1.5394 0.6299, -1.6594 -1.5851 0.1078, -1.6594 -1.5394 0.6299, -1.8406 -1.3583 0.748, -1.8406 -1.3583 0.6299, -1.8406 -1.5394 0.748, -1.8406 -1.5683 0.7444, -1.8406 -1.5954 0.7339, -1.8406 -1.5912 0.0793, -1.8406 -1.604 0.0532, -1.8406 -1.6229 0.031, -1.8406 -1.6467 0.0141, -1.8406 -1.6738 0.0036, -1.8406 -1.6509 0.6687, -1.8406 -1.6381 0.6948, -1.8406 -1.6192 0.717, -1.6594 -1.6738 0.0036, -1.6594 -1.3583 0.6299, -1.6594 -1.3583 0.748, -1.6594 -1.5394 0.748, -1.6594 -1.6467 0.0141, -1.6594 -1.6229 0.031, -1.6594 -1.604 0.0532, -1.6594 -1.5912 0.0793, -1.6594 -1.5683 0.7444, -1.6594 -1.5954 0.7339, -1.6594 -1.6192 0.717, -1.6594 -1.6381 0.6948, -1.6594 -1.6509 0.6687, -1.8406 1.5394 0.6299, -1.6594 1.5394 0.6299, -1.8406 1.3583 0.6299, -1.6594 1.3583 0.6299, -1.8406 1.5394 0.748, -1.8406 1.3583 0.748, -1.6594 1.5394 0.748, -1.6594 1.3583 0.748, -1.6594 1.8701 -0.0, -1.6594 1.8701 0.1181, -1.6594 1.7027 -0.0, -1.6594 1.7027 0.1181, -1.6594 1.6738 0.0036, -1.6594 1.6467 0.0141, -1.6594 1.5683 0.7444, -1.6594 1.5954 0.7339, -1.6594 1.5912 0.0793, -1.6594 1.604 0.0532, -1.6594 1.6229 0.031, -1.6594 1.657 0.6402, -1.6594 1.6509 0.6687, -1.6594 1.5851 0.1078, -1.6594 1.6381 0.6948, -1.6594 1.6192 0.717, -1.8406 1.5683 0.7444, -1.8406 1.8701 0.1181, -1.8406 1.8701 -0.0, -1.8406 1.7027 0.1181, -1.8406 1.7027 -0.0, -1.8406 1.5954 0.7339, -1.8406 1.6192 0.717, -1.8406 1.6381 0.6948, -1.8406 1.6509 0.6687, -1.8406 1.657 0.6402, -1.8406 1.5851 0.1078, -1.8406 1.6738 0.0036, -1.8406 1.6467 0.0141, -1.8406 1.6229 0.031, -1.8406 1.604 0.0532, -1.8406 1.5912 0.0793, -1.3406 -1.657 0.6402, -1.3406 -1.7027 0.1181, -1.1594 -1.657 0.6402, -1.1594 -1.7027 0.1181, -1.1594 -1.8701 0.1181, -1.3406 -1.8701 0.1181, -1.1594 -1.8701 -0.0, -1.3406 -1.8701 -0.0, -1.1594 -1.7027 -0.0, -1.3406 -1.7027 -0.0, -1.3406 -1.5851 0.1078, -1.3406 -1.5394 0.6299, -1.1594 -1.5851 0.1078, -1.1594 -1.5394 0.6299, -1.3406 -1.3583 0.748, -1.3406 -1.3583 0.6299, -1.3406 -1.5394 0.748, -1.3406 -1.5683 0.7444, -1.3406 -1.5954 0.7339, -1.3406 -1.5912 0.0793, -1.3406 -1.604 0.0532, -1.3406 -1.6229 0.031, -1.3406 -1.6467 0.0141, -1.3406 -1.6738 0.0036, -1.3406 -1.6509 0.6687, -1.3406 -1.6381 0.6948, -1.3406 -1.6192 0.717, -1.1594 -1.6738 0.0036, -1.1594 -1.3583 0.6299, -1.1594 -1.3583 0.748, -1.1594 -1.5394 0.748, -1.1594 -1.6467 0.0141, -1.1594 -1.6229 0.031, -1.1594 -1.604 0.0532, -1.1594 -1.5912 0.0793, -1.1594 -1.5683 0.7444, -1.1594 -1.5954 0.7339, -1.1594 -1.6192 0.717, -1.1594 -1.6381 0.6948, -1.1594 -1.6509 0.6687, -1.3406 1.5394 0.6299, -1.1594 1.5394 0.6299, -1.3406 1.3583 0.6299, -1.1594 1.3583 0.6299, -1.3406 1.5394 0.748, -1.3406 1.3583 0.748, -1.1594 1.5394 0.748, -1.1594 1.3583 0.748, -1.1594 1.8701 -0.0, -1.1594 1.8701 0.1181, -1.1594 1.7027 -0.0, -1.1594 1.7027 0.1181, -1.1594 1.6738 0.0036, -1.1594 1.6467 0.0141, -1.1594 1.5683 0.7444, -1.1594 1.5954 0.7339, -1.1594 1.5912 0.0793, -1.1594 1.604 0.0532, -1.1594 1.6229 0.031, -1.1594 1.657 0.6402, -1.1594 1.6509 0.6687, -1.1594 1.5851 0.1078, -1.1594 1.6381 0.6948, -1.1594 1.6192 0.717, -1.3406 1.5683 0.7444, -1.3406 1.8701 0.1181, -1.3406 1.8701 -0.0, -1.3406 1.7027 0.1181, -1.3406 1.7027 -0.0, -1.3406 1.5954 0.7339, -1.3406 1.6192 0.717, -1.3406 1.6381 0.6948, -1.3406 1.6509 0.6687, -1.3406 1.657 0.6402, -1.3406 1.5851 0.1078, -1.3406 1.6738 0.0036, -1.3406 1.6467 0.0141, -1.3406 1.6229 0.031, -1.3406 1.604 0.0532, -1.3406 1.5912 0.0793, -0.8406 -1.657 0.6402, -0.8406 -1.7027 0.1181, -0.6594 -1.657 0.6402, -0.6594 -1.7027 0.1181, -0.6594 -1.8701 0.1181, -0.8406 -1.8701 0.1181, -0.6594 -1.8701 -0.0, -0.8406 -1.8701 -0.0, -0.6594 -1.7027 -0.0, -0.8406 -1.7027 -0.0, -0.8406 -1.5851 0.1078, -0.8406 -1.5394 0.6299, -0.6594 -1.5851 0.1078, -0.6594 -1.5394 0.6299, -0.8406 -1.3583 0.748, -0.8406 -1.3583 0.6299, -0.8406 -1.5394 0.748, -0.8406 -1.5683 0.7444, -0.8406 -1.5954 0.7339, -0.8406 -1.5912 0.0793, -0.8406 -1.604 0.0532, -0.8406 -1.6229 0.031, -0.8406 -1.6467 0.0141, -0.8406 -1.6738 0.0036, -0.8406 -1.6509 0.6687, -0.8406 -1.6381 0.6948, -0.8406 -1.6192 0.717, -0.6594 -1.6738 0.0036, -0.6594 -1.3583 0.6299, -0.6594 -1.3583 0.748, -0.6594 -1.5394 0.748, -0.6594 -1.6467 0.0141, -0.6594 -1.6229 0.031, -0.6594 -1.604 0.0532, -0.6594 -1.5912 0.0793, -0.6594 -1.5683 0.7444, -0.6594 -1.5954 0.7339, -0.6594 -1.6192 0.717, -0.6594 -1.6381 0.6948, -0.6594 -1.6509 0.6687, -0.8406 1.5394 0.6299, -0.6594 1.5394 0.6299, -0.8406 1.3583 0.6299, -0.6594 1.3583 0.6299, -0.8406 1.5394 0.748, -0.8406 1.3583 0.748, -0.6594 1.5394 0.748, -0.6594 1.3583 0.748, -0.6594 1.8701 -0.0, -0.6594 1.8701 0.1181, -0.6594 1.7027 -0.0, -0.6594 1.7027 0.1181, -0.6594 1.6738 0.0036, -0.6594 1.6467 0.0141, -0.6594 1.5683 0.7444, -0.6594 1.5954 0.7339, -0.6594 1.5912 0.0793, -0.6594 1.604 0.0532, -0.6594 1.6229 0.031, -0.6594 1.657 0.6402, -0.6594 1.6509 0.6687, -0.6594 1.5851 0.1078, -0.6594 1.6381 0.6948, -0.6594 1.6192 0.717, -0.8406 1.5683 0.7444, -0.8406 1.8701 0.1181, -0.8406 1.8701 -0.0, -0.8406 1.7027 0.1181, -0.8406 1.7027 -0.0, -0.8406 1.5954 0.7339, -0.8406 1.6192 0.717, -0.8406 1.6381 0.6948, -0.8406 1.6509 0.6687, -0.8406 1.657 0.6402, -0.8406 1.5851 0.1078, -0.8406 1.6738 0.0036, -0.8406 1.6467 0.0141, -0.8406 1.6229 0.031, -0.8406 1.604 0.0532, -0.8406 1.5912 0.0793, -0.3406 -1.657 0.6402, -0.3406 -1.7027 0.1181, -0.1594 -1.657 0.6402, -0.1594 -1.7027 0.1181, -0.1594 -1.8701 0.1181, -0.3406 -1.8701 0.1181, -0.1594 -1.8701 -0.0, -0.3406 -1.8701 -0.0, -0.1594 -1.7027 -0.0, -0.3406 -1.7027 -0.0, -0.3406 -1.5851 0.1078, -0.3406 -1.5394 0.6299, -0.1594 -1.5851 0.1078, -0.1594 -1.5394 0.6299, -0.3406 -1.3583 0.748, -0.3406 -1.3583 0.6299, -0.3406 -1.5394 0.748, -0.3406 -1.5683 0.7444, -0.3406 -1.5954 0.7339, -0.3406 -1.5912 0.0793, -0.3406 -1.604 0.0532, -0.3406 -1.6229 0.031, -0.3406 -1.6467 0.0141, -0.3406 -1.6738 0.0036, -0.3406 -1.6509 0.6687, -0.3406 -1.6381 0.6948, -0.3406 -1.6192 0.717, -0.1594 -1.6738 0.0036, -0.1594 -1.3583 0.6299, -0.1594 -1.3583 0.748, -0.1594 -1.5394 0.748, -0.1594 -1.6467 0.0141, -0.1594 -1.6229 0.031, -0.1594 -1.604 0.0532, -0.1594 -1.5912 0.0793, -0.1594 -1.5683 0.7444, -0.1594 -1.5954 0.7339, -0.1594 -1.6192 0.717, -0.1594 -1.6381 0.6948, -0.1594 -1.6509 0.6687, -0.3406 1.5394 0.6299, -0.1594 1.5394 0.6299, -0.3406 1.3583 0.6299, -0.1594 1.3583 0.6299, -0.3406 1.5394 0.748, -0.3406 1.3583 0.748, -0.1594 1.5394 0.748, -0.1594 1.3583 0.748, -0.1594 1.8701 -0.0, -0.1594 1.8701 0.1181, -0.1594 1.7027 -0.0, -0.1594 1.7027 0.1181, -0.1594 1.6738 0.0036, -0.1594 1.6467 0.0141, -0.1594 1.5683 0.7444, -0.1594 1.5954 0.7339, -0.1594 1.5912 0.0793, -0.1594 1.604 0.0532, -0.1594 1.6229 0.031, -0.1594 1.657 0.6402, -0.1594 1.6509 0.6687, -0.1594 1.5851 0.1078, -0.1594 1.6381 0.6948, -0.1594 1.6192 0.717, -0.3406 1.5683 0.7444, -0.3406 1.8701 0.1181, -0.3406 1.8701 -0.0, -0.3406 1.7027 0.1181, -0.3406 1.7027 -0.0, -0.3406 1.5954 0.7339, -0.3406 1.6192 0.717, -0.3406 1.6381 0.6948, -0.3406 1.6509 0.6687, -0.3406 1.657 0.6402, -0.3406 1.5851 0.1078, -0.3406 1.6738 0.0036, -0.3406 1.6467 0.0141, -0.3406 1.6229 0.031, -0.3406 1.604 0.0532, -0.3406 1.5912 0.0793, 0.1594 -1.657 0.6402, 0.1594 -1.7027 0.1181, 0.3406 -1.657 0.6402, 0.3406 -1.7027 0.1181, 0.3406 -1.8701 0.1181, 0.1594 -1.8701 0.1181, 0.3406 -1.8701 -0.0, 0.1594 -1.8701 -0.0, 0.3406 -1.7027 -0.0, 0.1594 -1.7027 -0.0, 0.1594 -1.5851 0.1078, 0.1594 -1.5394 0.6299, 0.3406 -1.5851 0.1078, 0.3406 -1.5394 0.6299, 0.1594 -1.3583 0.748, 0.1594 -1.3583 0.6299, 0.1594 -1.5394 0.748, 0.1594 -1.5683 0.7444, 0.1594 -1.5954 0.7339, 0.1594 -1.5912 0.0793, 0.1594 -1.604 0.0532, 0.1594 -1.6229 0.031, 0.1594 -1.6467 0.0141, 0.1594 -1.6738 0.0036, 0.1594 -1.6509 0.6687, 0.1594 -1.6381 0.6948, 0.1594 -1.6192 0.717, 0.3406 -1.6738 0.0036, 0.3406 -1.3583 0.6299, 0.3406 -1.3583 0.748, 0.3406 -1.5394 0.748, 0.3406 -1.6467 0.0141, 0.3406 -1.6229 0.031, 0.3406 -1.604 0.0532, 0.3406 -1.5912 0.0793, 0.3406 -1.5683 0.7444, 0.3406 -1.5954 0.7339, 0.3406 -1.6192 0.717, 0.3406 -1.6381 0.6948, 0.3406 -1.6509 0.6687, 0.1594 1.5394 0.6299, 0.3406 1.5394 0.6299, 0.1594 1.3583 0.6299, 0.3406 1.3583 0.6299, 0.1594 1.5394 0.748, 0.1594 1.3583 0.748, 0.3406 1.5394 0.748, 0.3406 1.3583 0.748, 0.3406 1.8701 -0.0, 0.3406 1.8701 0.1181, 0.3406 1.7027 -0.0, 0.3406 1.7027 0.1181, 0.3406 1.6738 0.0036, 0.3406 1.6467 0.0141, 0.3406 1.5683 0.7444, 0.3406 1.5954 0.7339, 0.3406 1.5912 0.0793, 0.3406 1.604 0.0532, 0.3406 1.6229 0.031, 0.3406 1.657 0.6402, 0.3406 1.6509 0.6687, 0.3406 1.5851 0.1078, 0.3406 1.6381 0.6948, 0.3406 1.6192 0.717, 0.1594 1.5683 0.7444, 0.1594 1.8701 0.1181, 0.1594 1.8701 -0.0, 0.1594 1.7027 0.1181, 0.1594 1.7027 -0.0, 0.1594 1.5954 0.7339, 0.1594 1.6192 0.717, 0.1594 1.6381 0.6948, 0.1594 1.6509 0.6687, 0.1594 1.657 0.6402, 0.1594 1.5851 0.1078, 0.1594 1.6738 0.0036, 0.1594 1.6467 0.0141, 0.1594 1.6229 0.031, 0.1594 1.604 0.0532, 0.1594 1.5912 0.0793, 0.6594 -1.657 0.6402, 0.6594 -1.7027 0.1181, 0.8406 -1.657 0.6402, 0.8406 -1.7027 0.1181, 0.8406 -1.8701 0.1181, 0.6594 -1.8701 0.1181, 0.8406 -1.8701 -0.0, 0.6594 -1.8701 -0.0, 0.8406 -1.7027 -0.0, 0.6594 -1.7027 -0.0, 0.6594 -1.5851 0.1078, 0.6594 -1.5394 0.6299, 0.8406 -1.5851 0.1078, 0.8406 -1.5394 0.6299, 0.6594 -1.3583 0.748, 0.6594 -1.3583 0.6299, 0.6594 -1.5394 0.748, 0.6594 -1.5683 0.7444, 0.6594 -1.5954 0.7339, 0.6594 -1.5912 0.0793, 0.6594 -1.604 0.0532, 0.6594 -1.6229 0.031, 0.6594 -1.6467 0.0141, 0.6594 -1.6738 0.0036, 0.6594 -1.6509 0.6687, 0.6594 -1.6381 0.6948, 0.6594 -1.6192 0.717, 0.8406 -1.6738 0.0036, 0.8406 -1.3583 0.6299, 0.8406 -1.3583 0.748, 0.8406 -1.5394 0.748, 0.8406 -1.6467 0.0141, 0.8406 -1.6229 0.031, 0.8406 -1.604 0.0532, 0.8406 -1.5912 0.0793, 0.8406 -1.5683 0.7444, 0.8406 -1.5954 0.7339, 0.8406 -1.6192 0.717, 0.8406 -1.6381 0.6948, 0.8406 -1.6509 0.6687, 0.6594 1.5394 0.6299, 0.8406 1.5394 0.6299, 0.6594 1.3583 0.6299, 0.8406 1.3583 0.6299, 0.6594 1.5394 0.748, 0.6594 1.3583 0.748, 0.8406 1.5394 0.748, 0.8406 1.3583 0.748, 0.8406 1.8701 -0.0, 0.8406 1.8701 0.1181, 0.8406 1.7027 -0.0, 0.8406 1.7027 0.1181, 0.8406 1.6738 0.0036, 0.8406 1.6467 0.0141, 0.8406 1.5683 0.7444, 0.8406 1.5954 0.7339, 0.8406 1.5912 0.0793, 0.8406 1.604 0.0532, 0.8406 1.6229 0.031, 0.8406 1.657 0.6402, 0.8406 1.6509 0.6687, 0.8406 1.5851 0.1078, 0.8406 1.6381 0.6948, 0.8406 1.6192 0.717, 0.6594 1.5683 0.7444, 0.6594 1.8701 0.1181, 0.6594 1.8701 -0.0, 0.6594 1.7027 0.1181, 0.6594 1.7027 -0.0, 0.6594 1.5954 0.7339, 0.6594 1.6192 0.717, 0.6594 1.6381 0.6948, 0.6594 1.6509 0.6687, 0.6594 1.657 0.6402, 0.6594 1.5851 0.1078, 0.6594 1.6738 0.0036, 0.6594 1.6467 0.0141, 0.6594 1.6229 0.031, 0.6594 1.604 0.0532, 0.6594 1.5912 0.0793, 1.1594 -1.657 0.6402, 1.1594 -1.7027 0.1181, 1.3406 -1.657 0.6402, 1.3406 -1.7027 0.1181, 1.3406 -1.8701 0.1181, 1.1594 -1.8701 0.1181, 1.3406 -1.8701 -0.0, 1.1594 -1.8701 -0.0, 1.3406 -1.7027 -0.0, 1.1594 -1.7027 -0.0, 1.1594 -1.5851 0.1078, 1.1594 -1.5394 0.6299, 1.3406 -1.5851 0.1078, 1.3406 -1.5394 0.6299, 1.1594 -1.3583 0.748, 1.1594 -1.3583 0.6299, 1.1594 -1.5394 0.748, 1.1594 -1.5683 0.7444, 1.1594 -1.5954 0.7339, 1.1594 -1.5912 0.0793, 1.1594 -1.604 0.0532, 1.1594 -1.6229 0.031, 1.1594 -1.6467 0.0141, 1.1594 -1.6738 0.0036, 1.1594 -1.6509 0.6687, 1.1594 -1.6381 0.6948, 1.1594 -1.6192 0.717, 1.3406 -1.6738 0.0036, 1.3406 -1.3583 0.6299, 1.3406 -1.3583 0.748, 1.3406 -1.5394 0.748, 1.3406 -1.6467 0.0141, 1.3406 -1.6229 0.031, 1.3406 -1.604 0.0532, 1.3406 -1.5912 0.0793, 1.3406 -1.5683 0.7444, 1.3406 -1.5954 0.7339, 1.3406 -1.6192 0.717, 1.3406 -1.6381 0.6948, 1.3406 -1.6509 0.6687, 1.1594 1.5394 0.6299, 1.3406 1.5394 0.6299, 1.1594 1.3583 0.6299, 1.3406 1.3583 0.6299, 1.1594 1.5394 0.748, 1.1594 1.3583 0.748, 1.3406 1.5394 0.748, 1.3406 1.3583 0.748, 1.3406 1.8701 -0.0, 1.3406 1.8701 0.1181, 1.3406 1.7027 -0.0, 1.3406 1.7027 0.1181, 1.3406 1.6738 0.0036, 1.3406 1.6467 0.0141, 1.3406 1.5683 0.7444, 1.3406 1.5954 0.7339, 1.3406 1.5912 0.0793, 1.3406 1.604 0.0532, 1.3406 1.6229 0.031, 1.3406 1.657 0.6402, 1.3406 1.6509 0.6687, 1.3406 1.5851 0.1078, 1.3406 1.6381 0.6948, 1.3406 1.6192 0.717, 1.1594 1.5683 0.7444, 1.1594 1.8701 0.1181, 1.1594 1.8701 -0.0, 1.1594 1.7027 0.1181, 1.1594 1.7027 -0.0, 1.1594 1.5954 0.7339, 1.1594 1.6192 0.717, 1.1594 1.6381 0.6948, 1.1594 1.6509 0.6687, 1.1594 1.657 0.6402, 1.1594 1.5851 0.1078, 1.1594 1.6738 0.0036, 1.1594 1.6467 0.0141, 1.1594 1.6229 0.031, 1.1594 1.604 0.0532, 1.1594 1.5912 0.0793, 1.6594 -1.657 0.6402, 1.6594 -1.7027 0.1181, 1.8406 -1.657 0.6402, 1.8406 -1.7027 0.1181, 1.8406 -1.8701 0.1181, 1.6594 -1.8701 0.1181, 1.8406 -1.8701 -0.0, 1.6594 -1.8701 -0.0, 1.8406 -1.7027 -0.0, 1.6594 -1.7027 -0.0, 1.6594 -1.5851 0.1078, 1.6594 -1.5394 0.6299, 1.8406 -1.5851 0.1078, 1.8406 -1.5394 0.6299, 1.6594 -1.3583 0.748, 1.6594 -1.3583 0.6299, 1.6594 -1.5394 0.748, 1.6594 -1.5683 0.7444, 1.6594 -1.5954 0.7339, 1.6594 -1.5912 0.0793, 1.6594 -1.604 0.0532, 1.6594 -1.6229 0.031, 1.6594 -1.6467 0.0141, 1.6594 -1.6738 0.0036, 1.6594 -1.6509 0.6687, 1.6594 -1.6381 0.6948, 1.6594 -1.6192 0.717, 1.8406 -1.6738 0.0036, 1.8406 -1.3583 0.6299, 1.8406 -1.3583 0.748, 1.8406 -1.5394 0.748, 1.8406 -1.6467 0.0141, 1.8406 -1.6229 0.031, 1.8406 -1.604 0.0532, 1.8406 -1.5912 0.0793, 1.8406 -1.5683 0.7444, 1.8406 -1.5954 0.7339, 1.8406 -1.6192 0.717, 1.8406 -1.6381 0.6948, 1.8406 -1.6509 0.6687, 1.6594 1.5394 0.6299, 1.8406 1.5394 0.6299, 1.6594 1.3583 0.6299, 1.8406 1.3583 0.6299, 1.6594 1.5394 0.748, 1.6594 1.3583 0.748, 1.8406 1.5394 0.748, 1.8406 1.3583 0.748, 1.8406 1.8701 -0.0, 1.8406 1.8701 0.1181, 1.8406 1.7027 -0.0, 1.8406 1.7027 0.1181, 1.8406 1.6738 0.0036, 1.8406 1.6467 0.0141, 1.8406 1.5683 0.7444, 1.8406 1.5954 0.7339, 1.8406 1.5912 0.0793, 1.8406 1.604 0.0532, 1.8406 1.6229 0.031, 1.8406 1.657 0.6402, 1.8406 1.6509 0.6687, 1.8406 1.5851 0.1078, 1.8406 1.6381 0.6948, 1.8406 1.6192 0.717, 1.6594 1.5683 0.7444, 1.6594 1.8701 0.1181, 1.6594 1.8701 -0.0, 1.6594 1.7027 0.1181, 1.6594 1.7027 -0.0, 1.6594 1.5954 0.7339, 1.6594 1.6192 0.717, 1.6594 1.6381 0.6948, 1.6594 1.6509 0.6687, 1.6594 1.657 0.6402, 1.6594 1.5851 0.1078, 1.6594 1.6738 0.0036, 1.6594 1.6467 0.0141, 1.6594 1.6229 0.031, 1.6594 1.604 0.0532, 1.6594 1.5912 0.0793, 1.6594 1.5912 0.0793
            ]
        }
        coordIndex [
            0,1,2,-1,2,1,3,-1,4,3,5,-1,5,3,1,-1,6,4,7,-1,7,4,5,-1,8,6,9,-1,9,6,7,-1,10,11,12,-1,12,11,13,-1,14,15,16,-1,16,15,11,-1,16,11,17,-1,17,11,18,-1,19,20,1,-1,1,20,21,-1,1,21,22,-1,7,5,9,-1,9,5,1,-1,9,1,23,-1,23,1,22,-1,11,0,24,-1,0,11,1,-1,1,11,10,-1,1,10,19,-1,24,25,11,-1,11,25,26,-1,11,26,18,-1,4,6,3,-1,3,6,8,-1,3,8,27,-1,28,29,13,-1,13,29,30,-1,27,31,3,-1,3,31,32,-1,3,32,33,-1,33,34,3,-1,3,34,12,-1,3,12,2,-1,2,12,13,-1,30,35,13,-1,13,35,36,-1,13,36,37,-1,37,38,13,-1,13,38,39,-1,13,39,2,-1,30,29,16,-1,16,29,14,-1,13,11,28,-1,28,11,15,-1,40,41,42,-1,42,41,43,-1,44,45,46,-1,46,45,47,-1,48,49,50,-1,50,49,51,-1,50,51,52,-1,52,51,53,-1,47,43,46,-1,46,43,41,-1,46,41,54,-1,54,41,55,-1,56,57,51,-1,51,57,58,-1,51,58,53,-1,41,59,60,-1,59,41,51,-1,51,41,61,-1,51,61,56,-1,60,62,41,-1,41,62,63,-1,41,63,55,-1,42,45,40,-1,40,45,44,-1,40,44,64,-1,65,66,67,-1,67,66,68,-1,64,69,40,-1,40,69,70,-1,40,70,71,-1,71,72,40,-1,40,72,73,-1,40,73,74,-1,74,73,67,-1,68,75,67,-1,67,75,76,-1,67,76,77,-1,77,78,67,-1,67,78,79,-1,67,79,74,-1,61,41,74,-1,74,41,40,-1,68,66,50,-1,50,66,48,-1,49,48,65,-1,65,48,66,-1,51,49,67,-1,67,49,65,-1,59,51,73,-1,73,51,67,-1,61,74,79,-1,61,79,56,-1,56,79,78,-1,56,78,57,-1,57,78,77,-1,57,77,58,-1,58,77,76,-1,58,76,53,-1,53,76,75,-1,53,75,52,-1,52,75,68,-1,52,68,50,-1,59,73,72,-1,59,72,60,-1,60,72,71,-1,60,71,62,-1,62,71,70,-1,62,70,63,-1,63,70,69,-1,63,69,55,-1,55,69,64,-1,55,64,54,-1,54,64,44,-1,54,44,46,-1,30,16,17,-1,30,17,35,-1,35,17,18,-1,35,18,36,-1,36,18,26,-1,36,26,37,-1,37,26,25,-1,37,25,38,-1,38,25,24,-1,38,24,39,-1,39,24,0,-1,39,0,2,-1,8,9,23,-1,8,23,27,-1,27,23,22,-1,27,22,31,-1,31,22,21,-1,31,21,32,-1,32,21,20,-1,32,20,33,-1,33,20,19,-1,33,19,34,-1,34,19,10,-1,34,10,12,-1,80,81,82,-1,82,81,83,-1,84,83,85,-1,85,83,81,-1,86,84,87,-1,87,84,85,-1,88,86,89,-1,89,86,87,-1,90,91,92,-1,92,91,93,-1,94,95,96,-1,96,95,91,-1,96,91,97,-1,97,91,98,-1,99,100,81,-1,81,100,101,-1,81,101,102,-1,87,85,89,-1,89,85,81,-1,89,81,103,-1,103,81,102,-1,91,80,104,-1,80,91,81,-1,81,91,90,-1,81,90,99,-1,104,105,91,-1,91,105,106,-1,91,106,98,-1,84,86,83,-1,83,86,88,-1,83,88,107,-1,108,109,93,-1,93,109,110,-1,107,111,83,-1,83,111,112,-1,83,112,113,-1,113,114,83,-1,83,114,92,-1,83,92,82,-1,82,92,93,-1,110,115,93,-1,93,115,116,-1,93,116,117,-1,117,118,93,-1,93,118,119,-1,93,119,82,-1,110,109,96,-1,96,109,94,-1,93,91,108,-1,108,91,95,-1,120,121,122,-1,122,121,123,-1,124,125,126,-1,126,125,127,-1,128,129,130,-1,130,129,131,-1,130,131,132,-1,132,131,133,-1,127,123,126,-1,126,123,121,-1,126,121,134,-1,134,121,135,-1,136,137,131,-1,131,137,138,-1,131,138,133,-1,121,139,140,-1,139,121,131,-1,131,121,141,-1,131,141,136,-1,140,142,121,-1,121,142,143,-1,121,143,135,-1,122,125,120,-1,120,125,124,-1,120,124,144,-1,145,146,147,-1,147,146,148,-1,144,149,120,-1,120,149,150,-1,120,150,151,-1,151,152,120,-1,120,152,153,-1,120,153,154,-1,154,153,147,-1,148,155,147,-1,147,155,156,-1,147,156,157,-1,157,158,147,-1,147,158,159,-1,147,159,154,-1,141,121,154,-1,154,121,120,-1,148,146,130,-1,130,146,128,-1,129,128,145,-1,145,128,146,-1,131,129,147,-1,147,129,145,-1,139,131,153,-1,153,131,147,-1,160,161,162,-1,162,161,163,-1,164,163,165,-1,165,163,161,-1,166,164,167,-1,167,164,165,-1,168,166,169,-1,169,166,167,-1,170,171,172,-1,172,171,173,-1,174,175,176,-1,176,175,171,-1,176,171,177,-1,177,171,178,-1,179,180,161,-1,161,180,181,-1,161,181,182,-1,167,165,169,-1,169,165,161,-1,169,161,183,-1,183,161,182,-1,171,160,184,-1,160,171,161,-1,161,171,170,-1,161,170,179,-1,184,185,171,-1,171,185,186,-1,171,186,178,-1,164,166,163,-1,163,166,168,-1,163,168,187,-1,188,189,173,-1,173,189,190,-1,187,191,163,-1,163,191,192,-1,163,192,193,-1,193,194,163,-1,163,194,172,-1,163,172,162,-1,162,172,173,-1,190,195,173,-1,173,195,196,-1,173,196,197,-1,197,198,173,-1,173,198,199,-1,173,199,162,-1,190,189,176,-1,176,189,174,-1,173,171,188,-1,188,171,175,-1,200,201,202,-1,202,201,203,-1,204,205,206,-1,206,205,207,-1,208,209,210,-1,210,209,211,-1,210,211,212,-1,212,211,213,-1,207,203,206,-1,206,203,201,-1,206,201,214,-1,214,201,215,-1,216,217,211,-1,211,217,218,-1,211,218,213,-1,201,219,220,-1,219,201,211,-1,211,201,221,-1,211,221,216,-1,220,222,201,-1,201,222,223,-1,201,223,215,-1,202,205,200,-1,200,205,204,-1,200,204,224,-1,225,226,227,-1,227,226,228,-1,224,229,200,-1,200,229,230,-1,200,230,231,-1,231,232,200,-1,200,232,233,-1,200,233,234,-1,234,233,227,-1,228,235,227,-1,227,235,236,-1,227,236,237,-1,237,238,227,-1,227,238,239,-1,227,239,234,-1,221,201,234,-1,234,201,200,-1,228,226,210,-1,210,226,208,-1,209,208,225,-1,225,208,226,-1,211,209,227,-1,227,209,225,-1,219,211,233,-1,233,211,227,-1,240,241,242,-1,242,241,243,-1,244,243,245,-1,245,243,241,-1,246,244,247,-1,247,244,245,-1,248,246,249,-1,249,246,247,-1,250,251,252,-1,252,251,253,-1,254,255,256,-1,256,255,251,-1,256,251,257,-1,257,251,258,-1,259,260,241,-1,241,260,261,-1,241,261,262,-1,247,245,249,-1,249,245,241,-1,249,241,263,-1,263,241,262,-1,251,240,264,-1,240,251,241,-1,241,251,250,-1,241,250,259,-1,264,265,251,-1,251,265,266,-1,251,266,258,-1,244,246,243,-1,243,246,248,-1,243,248,267,-1,268,269,253,-1,253,269,270,-1,267,271,243,-1,243,271,272,-1,243,272,273,-1,273,274,243,-1,243,274,252,-1,243,252,242,-1,242,252,253,-1,270,275,253,-1,253,275,276,-1,253,276,277,-1,277,278,253,-1,253,278,279,-1,253,279,242,-1,270,269,256,-1,256,269,254,-1,253,251,268,-1,268,251,255,-1,280,281,282,-1,282,281,283,-1,284,285,286,-1,286,285,287,-1,288,289,290,-1,290,289,291,-1,290,291,292,-1,292,291,293,-1,287,283,286,-1,286,283,281,-1,286,281,294,-1,294,281,295,-1,296,297,291,-1,291,297,298,-1,291,298,293,-1,281,299,300,-1,299,281,291,-1,291,281,301,-1,291,301,296,-1,300,302,281,-1,281,302,303,-1,281,303,295,-1,282,285,280,-1,280,285,284,-1,280,284,304,-1,305,306,307,-1,307,306,308,-1,304,309,280,-1,280,309,310,-1,280,310,311,-1,311,312,280,-1,280,312,313,-1,280,313,314,-1,314,313,307,-1,308,315,307,-1,307,315,316,-1,307,316,317,-1,317,318,307,-1,307,318,319,-1,307,319,314,-1,301,281,314,-1,314,281,280,-1,308,306,290,-1,290,306,288,-1,289,288,305,-1,305,288,306,-1,291,289,307,-1,307,289,305,-1,299,291,313,-1,313,291,307,-1,320,321,322,-1,322,321,323,-1,324,323,325,-1,325,323,321,-1,326,324,327,-1,327,324,325,-1,328,326,329,-1,329,326,327,-1,330,331,332,-1,332,331,333,-1,334,335,336,-1,336,335,331,-1,336,331,337,-1,337,331,338,-1,339,340,321,-1,321,340,341,-1,321,341,342,-1,327,325,329,-1,329,325,321,-1,329,321,343,-1,343,321,342,-1,331,320,344,-1,320,331,321,-1,321,331,330,-1,321,330,339,-1,344,345,331,-1,331,345,346,-1,331,346,338,-1,324,326,323,-1,323,326,328,-1,323,328,347,-1,348,349,333,-1,333,349,350,-1,347,351,323,-1,323,351,352,-1,323,352,353,-1,353,354,323,-1,323,354,332,-1,323,332,322,-1,322,332,333,-1,350,355,333,-1,333,355,356,-1,333,356,357,-1,357,358,333,-1,333,358,359,-1,333,359,322,-1,350,349,336,-1,336,349,334,-1,333,331,348,-1,348,331,335,-1,360,361,362,-1,362,361,363,-1,364,365,366,-1,366,365,367,-1,368,369,370,-1,370,369,371,-1,370,371,372,-1,372,371,373,-1,367,363,366,-1,366,363,361,-1,366,361,374,-1,374,361,375,-1,376,377,371,-1,371,377,378,-1,371,378,373,-1,361,379,380,-1,379,361,371,-1,371,361,381,-1,371,381,376,-1,380,382,361,-1,361,382,383,-1,361,383,375,-1,362,365,360,-1,360,365,364,-1,360,364,384,-1,385,386,387,-1,387,386,388,-1,384,389,360,-1,360,389,390,-1,360,390,391,-1,391,392,360,-1,360,392,393,-1,360,393,394,-1,394,393,387,-1,388,395,387,-1,387,395,396,-1,387,396,397,-1,397,398,387,-1,387,398,399,-1,387,399,394,-1,381,361,394,-1,394,361,360,-1,388,386,370,-1,370,386,368,-1,369,368,385,-1,385,368,386,-1,371,369,387,-1,387,369,385,-1,379,371,393,-1,393,371,387,-1,400,401,402,-1,402,401,403,-1,404,403,405,-1,405,403,401,-1,406,404,407,-1,407,404,405,-1,408,406,409,-1,409,406,407,-1,410,411,412,-1,412,411,413,-1,414,415,416,-1,416,415,411,-1,416,411,417,-1,417,411,418,-1,419,420,401,-1,401,420,421,-1,401,421,422,-1,407,405,409,-1,409,405,401,-1,409,401,423,-1,423,401,422,-1,411,400,424,-1,400,411,401,-1,401,411,410,-1,401,410,419,-1,424,425,411,-1,411,425,426,-1,411,426,418,-1,404,406,403,-1,403,406,408,-1,403,408,427,-1,428,429,413,-1,413,429,430,-1,427,431,403,-1,403,431,432,-1,403,432,433,-1,433,434,403,-1,403,434,412,-1,403,412,402,-1,402,412,413,-1,430,435,413,-1,413,435,436,-1,413,436,437,-1,437,438,413,-1,413,438,439,-1,413,439,402,-1,430,429,416,-1,416,429,414,-1,413,411,428,-1,428,411,415,-1,440,441,442,-1,442,441,443,-1,444,445,446,-1,446,445,447,-1,448,449,450,-1,450,449,451,-1,450,451,452,-1,452,451,453,-1,447,443,446,-1,446,443,441,-1,446,441,454,-1,454,441,455,-1,456,457,451,-1,451,457,458,-1,451,458,453,-1,441,459,460,-1,459,441,451,-1,451,441,461,-1,451,461,456,-1,460,462,441,-1,441,462,463,-1,441,463,455,-1,442,445,440,-1,440,445,444,-1,440,444,464,-1,465,466,467,-1,467,466,468,-1,464,469,440,-1,440,469,470,-1,440,470,471,-1,471,472,440,-1,440,472,473,-1,440,473,474,-1,474,473,467,-1,468,475,467,-1,467,475,476,-1,467,476,477,-1,477,478,467,-1,467,478,479,-1,467,479,474,-1,461,441,474,-1,474,441,440,-1,468,466,450,-1,450,466,448,-1,449,448,465,-1,465,448,466,-1,451,449,467,-1,467,449,465,-1,459,451,473,-1,473,451,467,-1,480,481,482,-1,482,481,483,-1,484,483,485,-1,485,483,481,-1,486,484,487,-1,487,484,485,-1,488,486,489,-1,489,486,487,-1,490,491,492,-1,492,491,493,-1,494,495,496,-1,496,495,491,-1,496,491,497,-1,497,491,498,-1,499,500,481,-1,481,500,501,-1,481,501,502,-1,487,485,489,-1,489,485,481,-1,489,481,503,-1,503,481,502,-1,491,480,504,-1,480,491,481,-1,481,491,490,-1,481,490,499,-1,504,505,491,-1,491,505,506,-1,491,506,498,-1,484,486,483,-1,483,486,488,-1,483,488,507,-1,508,509,493,-1,493,509,510,-1,507,511,483,-1,483,511,512,-1,483,512,513,-1,513,514,483,-1,483,514,492,-1,483,492,482,-1,482,492,493,-1,510,515,493,-1,493,515,516,-1,493,516,517,-1,517,518,493,-1,493,518,519,-1,493,519,482,-1,510,509,496,-1,496,509,494,-1,493,491,508,-1,508,491,495,-1,520,521,522,-1,522,521,523,-1,524,525,526,-1,526,525,527,-1,528,529,530,-1,530,529,531,-1,530,531,532,-1,532,531,533,-1,527,523,526,-1,526,523,521,-1,526,521,534,-1,534,521,535,-1,536,537,531,-1,531,537,538,-1,531,538,533,-1,521,539,540,-1,539,521,531,-1,531,521,541,-1,531,541,536,-1,540,542,521,-1,521,542,543,-1,521,543,535,-1,522,525,520,-1,520,525,524,-1,520,524,544,-1,545,546,547,-1,547,546,548,-1,544,549,520,-1,520,549,550,-1,520,550,551,-1,551,552,520,-1,520,552,553,-1,520,553,554,-1,554,553,547,-1,548,555,547,-1,547,555,556,-1,547,556,557,-1,557,558,547,-1,547,558,559,-1,547,559,554,-1,541,521,554,-1,554,521,520,-1,548,546,530,-1,530,546,528,-1,529,528,545,-1,545,528,546,-1,531,529,547,-1,547,529,545,-1,539,531,553,-1,553,531,547,-1,560,561,562,-1,562,561,563,-1,564,563,565,-1,565,563,561,-1,566,564,567,-1,567,564,565,-1,568,566,569,-1,569,566,567,-1,570,571,572,-1,572,571,573,-1,574,575,576,-1,576,575,571,-1,576,571,577,-1,577,571,578,-1,579,580,561,-1,561,580,581,-1,561,581,582,-1,567,565,569,-1,569,565,561,-1,569,561,583,-1,583,561,582,-1,571,560,584,-1,560,571,561,-1,561,571,570,-1,561,570,579,-1,584,585,571,-1,571,585,586,-1,571,586,578,-1,564,566,563,-1,563,566,568,-1,563,568,587,-1,588,589,573,-1,573,589,590,-1,587,591,563,-1,563,591,592,-1,563,592,593,-1,593,594,563,-1,563,594,572,-1,563,572,562,-1,562,572,573,-1,590,595,573,-1,573,595,596,-1,573,596,597,-1,597,598,573,-1,573,598,599,-1,573,599,562,-1,590,589,576,-1,576,589,574,-1,573,571,588,-1,588,571,575,-1,600,601,602,-1,602,601,603,-1,604,605,606,-1,606,605,607,-1,608,609,610,-1,610,609,611,-1,610,611,612,-1,612,611,613,-1,607,603,606,-1,606,603,601,-1,606,601,614,-1,614,601,615,-1,616,617,611,-1,611,617,618,-1,611,618,613,-1,601,619,620,-1,619,601,611,-1,611,601,621,-1,611,621,616,-1,620,622,601,-1,601,622,623,-1,601,623,615,-1,602,605,600,-1,600,605,604,-1,600,604,624,-1,625,626,627,-1,627,626,628,-1,624,629,600,-1,600,629,630,-1,600,630,631,-1,631,632,600,-1,600,632,633,-1,600,633,634,-1,634,633,627,-1,628,635,627,-1,627,635,636,-1,627,636,637,-1,637,638,627,-1,627,638,639,-1,627,639,634,-1,621,601,634,-1,634,601,600,-1,628,626,610,-1,610,626,608,-1,609,608,625,-1,625,608,626,-1,611,609,627,-1,627,609,625,-1,619,611,633,-1,633,611,627,-1,141,154,159,-1,141,159,136,-1,136,159,158,-1,136,158,137,-1,137,158,157,-1,137,157,138,-1,138,157,156,-1,138,156,133,-1,133,156,155,-1,133,155,132,-1,132,155,148,-1,132,148,130,-1,139,153,152,-1,139,152,140,-1,140,152,151,-1,140,151,142,-1,142,151,150,-1,142,150,143,-1,143,150,149,-1,143,149,135,-1,135,149,144,-1,135,144,134,-1,134,144,124,-1,134,124,126,-1,110,96,97,-1,110,97,115,-1,115,97,98,-1,115,98,116,-1,116,98,106,-1,116,106,117,-1,117,106,105,-1,117,105,118,-1,118,105,104,-1,118,104,119,-1,119,104,80,-1,119,80,82,-1,88,89,103,-1,88,103,107,-1,107,103,102,-1,107,102,111,-1,111,102,101,-1,111,101,112,-1,112,101,100,-1,112,100,113,-1,113,100,99,-1,113,99,114,-1,114,99,90,-1,114,90,92,-1,221,234,239,-1,221,239,216,-1,216,239,238,-1,216,238,217,-1,217,238,237,-1,217,237,218,-1,218,237,236,-1,218,236,213,-1,213,236,235,-1,213,235,212,-1,212,235,228,-1,212,228,210,-1,219,233,232,-1,219,232,220,-1,220,232,231,-1,220,231,222,-1,222,231,230,-1,222,230,223,-1,223,230,229,-1,223,229,215,-1,215,229,224,-1,215,224,214,-1,214,224,204,-1,214,204,206,-1,190,176,177,-1,190,177,195,-1,195,177,178,-1,195,178,196,-1,196,178,186,-1,196,186,197,-1,197,186,185,-1,197,185,198,-1,198,185,184,-1,198,184,199,-1,199,184,160,-1,199,160,162,-1,168,169,183,-1,168,183,187,-1,187,183,182,-1,187,182,191,-1,191,182,181,-1,191,181,192,-1,192,181,180,-1,192,180,193,-1,193,180,179,-1,193,179,194,-1,194,179,170,-1,194,170,172,-1,301,314,319,-1,301,319,296,-1,296,319,318,-1,296,318,297,-1,297,318,317,-1,297,317,298,-1,298,317,316,-1,298,316,293,-1,293,316,315,-1,293,315,292,-1,292,315,308,-1,292,308,290,-1,299,313,312,-1,299,312,300,-1,300,312,311,-1,300,311,302,-1,302,311,310,-1,302,310,303,-1,303,310,309,-1,303,309,295,-1,295,309,304,-1,295,304,294,-1,294,304,284,-1,294,284,286,-1,270,256,257,-1,270,257,275,-1,275,257,258,-1,275,258,276,-1,276,258,266,-1,276,266,277,-1,277,266,265,-1,277,265,278,-1,278,265,264,-1,278,264,279,-1,279,264,240,-1,279,240,242,-1,248,249,263,-1,248,263,267,-1,267,263,262,-1,267,262,271,-1,271,262,261,-1,271,261,272,-1,272,261,260,-1,272,260,273,-1,273,260,259,-1,273,259,274,-1,274,259,250,-1,274,250,252,-1,381,394,399,-1,381,399,376,-1,376,399,398,-1,376,398,377,-1,377,398,397,-1,377,397,378,-1,378,397,396,-1,378,396,373,-1,373,396,395,-1,373,395,372,-1,372,395,388,-1,372,388,370,-1,379,393,392,-1,379,392,380,-1,380,392,391,-1,380,391,382,-1,382,391,390,-1,382,390,383,-1,383,390,389,-1,383,389,375,-1,375,389,384,-1,375,384,374,-1,374,384,364,-1,374,364,366,-1,350,336,337,-1,350,337,355,-1,355,337,338,-1,355,338,356,-1,356,338,346,-1,356,346,357,-1,357,346,345,-1,357,345,358,-1,358,345,344,-1,358,344,359,-1,359,344,320,-1,359,320,322,-1,328,329,343,-1,328,343,347,-1,347,343,342,-1,347,342,351,-1,351,342,341,-1,351,341,352,-1,352,341,340,-1,352,340,353,-1,353,340,339,-1,353,339,354,-1,354,339,330,-1,354,330,332,-1,461,474,479,-1,461,479,456,-1,456,479,478,-1,456,478,457,-1,457,478,477,-1,457,477,458,-1,458,477,476,-1,458,476,453,-1,453,476,475,-1,453,475,452,-1,452,475,468,-1,452,468,450,-1,459,473,472,-1,459,472,460,-1,460,472,471,-1,460,471,462,-1,462,471,470,-1,462,470,463,-1,463,470,469,-1,463,469,455,-1,455,469,464,-1,455,464,454,-1,454,464,444,-1,454,444,446,-1,430,416,417,-1,430,417,435,-1,435,417,418,-1,435,418,436,-1,436,418,426,-1,436,426,437,-1,437,426,425,-1,437,425,438,-1,438,425,424,-1,438,424,439,-1,439,424,400,-1,439,400,402,-1,408,409,423,-1,408,423,427,-1,427,423,422,-1,427,422,431,-1,431,422,421,-1,431,421,432,-1,432,421,420,-1,432,420,433,-1,433,420,419,-1,433,419,434,-1,434,419,410,-1,434,410,412,-1,541,554,559,-1,541,559,536,-1,536,559,558,-1,536,558,537,-1,537,558,557,-1,537,557,538,-1,538,557,556,-1,538,556,533,-1,533,556,555,-1,533,555,532,-1,532,555,548,-1,532,548,530,-1,539,553,552,-1,539,552,540,-1,540,552,551,-1,540,551,542,-1,542,551,550,-1,542,550,543,-1,543,550,549,-1,543,549,535,-1,535,549,544,-1,535,544,534,-1,534,544,524,-1,534,524,526,-1,510,496,497,-1,510,497,515,-1,515,497,498,-1,515,498,516,-1,516,498,506,-1,516,506,517,-1,517,506,505,-1,517,505,518,-1,518,505,504,-1,518,504,519,-1,519,504,480,-1,519,480,482,-1,488,489,503,-1,488,503,507,-1,507,503,502,-1,507,502,511,-1,511,502,501,-1,511,501,512,-1,512,501,500,-1,512,500,513,-1,513,500,499,-1,513,499,514,-1,514,499,490,-1,514,490,492,-1,621,634,639,-1,621,639,616,-1,616,639,638,-1,616,638,617,-1,617,638,637,-1,617,637,618,-1,618,637,636,-1,618,636,613,-1,613,636,635,-1,613,635,612,-1,612,635,628,-1,612,628,610,-1,619,633,632,-1,619,632,620,-1,620,632,631,-1,620,631,622,-1,622,631,630,-1,622,630,623,-1,623,630,629,-1,623,629,615,-1,615,629,624,-1,615,624,614,-1,614,624,604,-1,614,604,606,-1,590,576,577,-1,590,577,595,-1,595,577,578,-1,595,578,596,-1,596,578,586,-1,596,586,597,-1,597,586,585,-1,597,585,598,-1,598,585,584,-1,598,584,599,-1,599,584,560,-1,599,560,562,-1,568,569,583,-1,568,583,587,-1,587,583,582,-1,587,582,591,-1,591,582,581,-1,591,581,592,-1,592,581,580,-1,592,580,593,-1,593,580,579,-1,593,579,594,-1,594,579,570,-1,594,570,572,-1,
        ]
    }
}
Shape{
    appearance Appearance {
        material  Material 	{
            diffuseColor 0.14901960784313725 0.14901960784313725 0.14901960784313725
            specularColor 0.07450980392156863 0.07450980392156863 0.07450980392156863
            ambientIntensity 0.2
            transparency 0
            shininess 0.5
        }
    }
    geometry IndexedFaceSet {
        ccw TRUE
        solid FALSE
        coord DEF co Coordinate {
            point [
                -2.014 -1.0381 2.2402, -2.0004 -1.0053 2.2402, -2.1316 -0.9702 2.2402, -1.9958 -0.9702 2.2402, -2.0004 -0.935 2.2402, -2.0965 -1.1014 2.2402, -2.0637 -1.0878 2.2402, -2.0356 -1.0662 2.2402, -2.1995 -1.0878 2.2402, -2.1668 -1.1014 2.2402, -2.1316 -1.106 2.2402, -2.2628 -1.0053 2.2402, -2.2492 -1.0381 2.2402, -2.2277 -1.0662 2.2402, -2.2492 -0.9023 2.2402, -2.2628 -0.935 2.2402, -2.2674 -0.9702 2.2402, -2.1668 -0.839 2.2402, -2.1995 -0.8526 2.2402, -2.2277 -0.8741 2.2402, -2.0637 -0.8526 2.2402, -2.0965 -0.839 2.2402, -2.1316 -0.8344 2.2402, -2.014 -0.9023 2.2402, -2.0356 -0.8741 2.2402, -2.0356 -0.8741 2.2402
            ]
        }
        coordIndex [
            0,1,2,-1,2,1,3,-1,2,3,4,-1,5,6,2,-1,2,6,7,-1,2,7,0,-1,8,9,2,-1,2,9,10,-1,2,10,5,-1,11,12,2,-1,2,12,13,-1,2,13,8,-1,14,15,2,-1,2,15,16,-1,2,16,11,-1,17,18,2,-1,2,18,19,-1,2,19,14,-1,20,21,2,-1,2,21,22,-1,2,22,17,-1,4,23,2,-1,2,23,24,-1,2,24,20,-1,
        ]
    }
}
Shape{
    appearance Appearance {
        material  Material 	{
            diffuseColor 0.6980392156862745 0.6980392156862745 0.6980392156862745
            specularColor 0.34901960784313724 0.34901960784313724 0.34901960784313724
            ambientIntensity 0.2
            transparency 0
            shininess 0.5
        }
    }
    geometry IndexedFaceSet {
        ccw TRUE
        solid FALSE
        coord DEF co Coordinate {
            point [
                -0.7058 0.1969 0.1024, -0.8594 -0.1969 0.1024, -0.7058 0.1969 0.0984, -0.8594 -0.1969 0.0984, -0.8018 -0.1969 0.1024, -0.8018 -0.1969 0.0984, -0.762 -0.0864 0.1024, -0.762 -0.0864 0.0984, -0.5993 -0.0864 0.1024, -0.5993 -0.0864 0.0984, -0.5617 -0.1969 0.1024, -0.5617 -0.1969 0.0984, -0.5041 -0.1969 0.1024, -0.5041 -0.1969 0.0984, -0.653 0.1969 0.1024, -0.653 0.1969 0.0984, -0.6126 -0.0432 0.1024, -0.7443 -0.0432 0.1024, -0.6713 0.1212 0.1024, -0.6751 0.1349 0.1024, -0.6776 0.1488 0.1024, -0.6789 0.1488 0.1024, -0.6815 0.1349 0.1024, -0.685 0.1212 0.1024, -0.6126 -0.0432 0.0984, -0.7443 -0.0432 0.0984, -0.6713 0.1212 0.0984, -0.6751 0.1349 0.0984, -0.6776 0.1488 0.0984, -0.6789 0.1488 0.0984, -0.6815 0.1349 0.0984, -0.685 0.1212 0.0984, -0.2655 -0.1969 0.1024, -0.1584 -0.1969 0.1024, -0.2655 -0.1969 0.0984, -0.1584 -0.1969 0.0984, -0.1584 0.1969 0.1024, -0.1584 0.1969 0.0984, -0.2695 0.1969 0.1024, -0.2695 0.1969 0.0984, -0.4753 0.005 0.1024, -0.4753 0.005 0.0984, -0.4725 0.042 0.0984, -0.4725 0.042 0.1024, -0.4619 0.0808 0.0984, -0.4619 0.0808 0.1024, -0.4436 0.1146 0.0984, -0.4436 0.1146 0.1024, -0.4157 0.1455 0.0984, -0.4157 0.1455 0.1024, -0.4153 0.1459 0.0984, -0.4153 0.1459 0.1024, -0.3725 0.1746 0.0984, -0.3725 0.1746 0.1024, -0.3264 0.1908 0.0984, -0.3264 0.1908 0.1024, -0.3142 -0.1926 0.0984, -0.3142 -0.1926 0.1024, -0.3596 -0.1791 0.0984, -0.3596 -0.1791 0.1024, -0.4007 -0.1552 0.0984, -0.4007 -0.1552 0.1024, -0.4331 -0.1242 0.0984, -0.4331 -0.1242 0.1024, -0.4557 -0.0889 0.0984, -0.4557 -0.0889 0.1024, -0.4698 -0.0477 0.0984, -0.4698 -0.0477 0.1024, -0.3963 0.0984 0.1024, -0.3772 0.1187 0.1024, -0.3484 0.1373 0.1024, -0.3159 0.1487 0.1024, -0.2693 0.1536 0.1024, -0.2113 0.1536 0.1024, -0.2113 -0.1536 0.1024, -0.2671 -0.1536 0.1024, -0.3087 -0.1498 0.1024, -0.3418 -0.1394 0.1024, -0.3687 -0.1235 0.1024, -0.3907 -0.1017 0.1024, -0.4073 -0.0745 0.1024, -0.4189 -0.0375 0.1024, -0.4225 0.0038 0.1024, -0.4192 0.043 0.1024, -0.41 0.0741 0.1024, -0.2693 0.1536 0.0984, -0.2113 0.1536 0.0984, -0.3159 0.1487 0.0984, -0.3484 0.1373 0.0984, -0.3772 0.1187 0.0984, -0.3963 0.0984 0.0984, -0.41 0.0741 0.0984, -0.4192 0.043 0.0984, -0.4225 0.0038 0.0984, -0.4189 -0.0375 0.0984, -0.4073 -0.0745 0.0984, -0.3907 -0.1017 0.0984, -0.3687 -0.1235 0.0984, -0.3418 -0.1394 0.0984, -0.3087 -0.1498 0.0984, -0.2671 -0.1536 0.0984, -0.2113 -0.1536 0.0984, -0.0816 -0.1536 0.1024, -0.0816 -0.1969 0.1024, -0.0816 -0.1536 0.0984, -0.0816 -0.1969 0.0984, 0.1296 -0.1969 0.1024, 0.1296 -0.1969 0.0984, 0.1296 0.1969 0.1024, 0.1296 0.1969 0.0984, -0.072 0.1969 0.1024, -0.072 0.1969 0.0984, -0.072 0.1536 0.1024, -0.072 0.1536 0.0984, 0.0768 0.1536 0.1024, 0.0768 0.1536 0.0984, 0.0768 0.024 0.1024, 0.0768 0.024 0.0984, -0.0624 0.024 0.1024, -0.0624 0.024 0.0984, -0.0624 -0.0192 0.1024, -0.0624 -0.0192 0.0984, 0.0768 -0.0192 0.1024, 0.0768 -0.0192 0.0984, 0.0768 -0.1536 0.1024, 0.0768 -0.1536 0.0984, 0.2065 -0.1332 0.1024, 0.2065 -0.1764 0.1024, 0.2065 -0.1332 0.0984, 0.2065 -0.1764 0.0984, 0.2484 -0.1937 0.1024, 0.3148 -0.2017 0.1024, 0.3148 -0.2017 0.0984, 0.304 -0.2015 0.0984, 0.304 -0.2015 0.1024, 0.2882 -0.1993 0.0984, 0.2484 -0.1937 0.0984, 0.3379 -0.1993 0.0984, 0.3633 -0.1966 0.1024, 0.3633 -0.1966 0.0984, 0.4015 -0.1835 0.1024, 0.4015 -0.1835 0.0984, 0.4331 -0.1633 0.1024, 0.4331 -0.1633 0.0984, 0.4627 -0.1321 0.1024, 0.4627 -0.1321 0.0984, 0.4837 -0.0947 0.1024, 0.4837 -0.0947 0.0984, 0.4955 -0.053 0.1024, 0.4955 -0.053 0.0984, 0.4993 -0.0074 0.1024, 0.4993 -0.0074 0.0984, 0.2991 0.2017 0.1024, 0.2991 0.2017 0.0984, 0.3386 0.1984 0.0984, 0.3386 0.1984 0.1024, 0.3825 0.1857 0.0984, 0.3825 0.1857 0.1024, 0.4199 0.1641 0.0984, 0.4199 0.1641 0.1024, 0.4555 0.13 0.0984, 0.4555 0.13 0.1024, 0.4785 0.0932 0.0984, 0.4785 0.0932 0.1024, 0.4937 0.0485 0.0984, 0.4937 0.0485 0.1024, 0.2065 0.186 0.1024, 0.2065 0.186 0.0984, 0.252 0.1984 0.0984, 0.252 0.1984 0.1024, 0.2065 0.1332 0.1024, 0.2065 0.1332 0.0984, 0.2987 0.1584 0.1024, 0.2987 0.1584 0.0984, 0.2508 0.1522 0.0984, 0.2508 0.1522 0.1024, 0.4465 -0.0042 0.1024, 0.4465 -0.0042 0.0984, 0.4446 0.0264 0.0984, 0.4446 0.0264 0.1024, 0.4341 0.0686 0.0984, 0.4341 0.0686 0.1024, 0.4179 0.099 0.0984, 0.4179 0.099 0.1024, 0.3941 0.1252 0.0984, 0.3941 0.1252 0.1024, 0.3669 0.1435 0.0984, 0.3669 0.1435 0.1024, 0.3374 0.1541 0.0984, 0.3374 0.1541 0.1024, 0.3075 -0.1584 0.1024, 0.3075 -0.1584 0.0984, 0.3442 -0.1543 0.0984, 0.3442 -0.1543 0.1024, 0.3729 -0.1438 0.0984, 0.3729 -0.1438 0.1024, 0.3971 -0.1275 0.0984, 0.3971 -0.1275 0.1024, 0.4155 -0.108 0.0984, 0.4155 -0.108 0.1024, 0.4318 -0.0807 0.0984, 0.4318 -0.0807 0.1024, 0.4425 -0.0468 0.0984, 0.4425 -0.0468 0.1024, 0.2135 -0.1371 0.0984, 0.2135 -0.1371 0.1024, 0.2552 -0.1526 0.0984, 0.2552 -0.1526 0.1024, 0.5329 -0.1536 0.1024, 0.5329 -0.1969 0.1024, 0.5329 -0.1536 0.0984, 0.5329 -0.1969 0.0984, 0.7346 -0.1969 0.1024, 0.7346 -0.1969 0.0984, 0.7346 0.1969 0.1024, 0.7346 0.1969 0.0984, 0.6818 0.1969 0.1024, 0.6818 0.1969 0.0984, 0.6818 -0.1536 0.1024, 0.6818 -0.1536 0.0984, 0.6818 -0.1536 0.0984
            ]
        }
        coordIndex [
            0,1,2,-1,2,1,3,-1,1,4,3,-1,3,4,5,-1,4,6,5,-1,5,6,7,-1,6,8,7,-1,7,8,9,-1,8,10,9,-1,9,10,11,-1,10,12,11,-1,11,12,13,-1,12,14,13,-1,13,14,15,-1,14,0,15,-1,15,0,2,-1,16,8,17,-1,17,8,6,-1,18,14,16,-1,16,14,12,-1,16,12,8,-1,8,12,10,-1,18,19,14,-1,14,19,20,-1,14,20,0,-1,0,20,21,-1,0,21,22,-1,22,23,0,-1,0,23,17,-1,0,17,1,-1,1,17,6,-1,1,6,4,-1,16,17,24,-1,24,17,25,-1,18,16,26,-1,26,16,24,-1,18,26,27,-1,18,27,19,-1,19,27,28,-1,19,28,20,-1,21,20,29,-1,29,20,28,-1,21,29,30,-1,21,30,22,-1,22,30,31,-1,22,31,23,-1,17,23,25,-1,25,23,31,-1,32,33,34,-1,34,33,35,-1,33,36,35,-1,35,36,37,-1,36,38,37,-1,37,38,39,-1,40,41,42,-1,40,42,43,-1,43,42,44,-1,43,44,45,-1,45,44,46,-1,45,46,47,-1,47,46,48,-1,47,48,49,-1,49,48,50,-1,49,50,51,-1,51,50,52,-1,51,52,53,-1,53,52,54,-1,53,54,55,-1,55,54,39,-1,55,39,38,-1,32,34,56,-1,32,56,57,-1,57,56,58,-1,57,58,59,-1,59,58,60,-1,59,60,61,-1,61,60,62,-1,61,62,63,-1,63,62,64,-1,63,64,65,-1,65,64,66,-1,65,66,67,-1,67,66,41,-1,67,41,40,-1,45,47,68,-1,68,47,49,-1,68,49,69,-1,69,49,51,-1,69,51,70,-1,70,51,53,-1,70,53,71,-1,71,53,55,-1,71,55,72,-1,72,55,38,-1,72,38,73,-1,73,38,36,-1,73,36,74,-1,74,36,33,-1,74,33,75,-1,75,33,32,-1,75,32,76,-1,76,32,57,-1,76,57,77,-1,77,57,59,-1,77,59,78,-1,78,59,61,-1,78,61,79,-1,79,61,63,-1,79,63,80,-1,80,63,65,-1,80,65,81,-1,81,65,67,-1,81,67,82,-1,82,67,40,-1,82,40,83,-1,83,40,43,-1,83,43,84,-1,84,43,45,-1,84,45,68,-1,72,73,85,-1,85,73,86,-1,72,85,87,-1,72,87,71,-1,71,87,88,-1,71,88,70,-1,70,88,89,-1,70,89,69,-1,69,89,90,-1,69,90,68,-1,68,90,91,-1,68,91,84,-1,84,91,92,-1,84,92,83,-1,83,92,93,-1,83,93,82,-1,82,93,94,-1,82,94,81,-1,81,94,95,-1,81,95,80,-1,80,95,96,-1,80,96,79,-1,79,96,97,-1,79,97,78,-1,78,97,98,-1,78,98,77,-1,77,98,99,-1,77,99,76,-1,76,99,100,-1,76,100,75,-1,74,75,101,-1,101,75,100,-1,73,74,86,-1,86,74,101,-1,102,103,104,-1,104,103,105,-1,103,106,105,-1,105,106,107,-1,106,108,107,-1,107,108,109,-1,108,110,109,-1,109,110,111,-1,110,112,111,-1,111,112,113,-1,112,114,113,-1,113,114,115,-1,114,116,115,-1,115,116,117,-1,116,118,117,-1,117,118,119,-1,118,120,119,-1,119,120,121,-1,120,122,121,-1,121,122,123,-1,122,124,123,-1,123,124,125,-1,124,102,125,-1,125,102,104,-1,106,103,102,-1,102,124,106,-1,106,124,122,-1,106,122,108,-1,112,110,114,-1,114,110,108,-1,114,108,116,-1,116,108,122,-1,116,122,118,-1,118,122,120,-1,126,127,128,-1,128,127,129,-1,129,127,130,-1,131,132,133,-1,131,133,134,-1,134,133,135,-1,134,135,130,-1,130,135,136,-1,130,136,129,-1,132,131,137,-1,137,131,138,-1,137,138,139,-1,139,138,140,-1,139,140,141,-1,141,140,142,-1,141,142,143,-1,143,142,144,-1,143,144,145,-1,145,144,146,-1,145,146,147,-1,147,146,148,-1,147,148,149,-1,149,148,150,-1,149,150,151,-1,152,153,154,-1,152,154,155,-1,155,154,156,-1,155,156,157,-1,157,156,158,-1,157,158,159,-1,159,158,160,-1,159,160,161,-1,161,160,162,-1,161,162,163,-1,163,162,164,-1,163,164,165,-1,165,164,151,-1,165,151,150,-1,166,167,168,-1,166,168,169,-1,169,168,153,-1,169,153,152,-1,166,170,167,-1,167,170,171,-1,172,173,174,-1,172,174,175,-1,175,174,171,-1,175,171,170,-1,176,177,178,-1,176,178,179,-1,179,178,180,-1,179,180,181,-1,181,180,182,-1,181,182,183,-1,183,182,184,-1,183,184,185,-1,185,184,186,-1,185,186,187,-1,187,186,188,-1,187,188,189,-1,189,188,173,-1,189,173,172,-1,190,191,192,-1,190,192,193,-1,193,192,194,-1,193,194,195,-1,195,194,196,-1,195,196,197,-1,197,196,198,-1,197,198,199,-1,199,198,200,-1,199,200,201,-1,201,200,202,-1,201,202,203,-1,203,202,177,-1,203,177,176,-1,126,128,204,-1,126,204,205,-1,205,204,206,-1,205,206,207,-1,207,206,191,-1,207,191,190,-1,193,131,190,-1,190,131,134,-1,190,134,207,-1,207,134,130,-1,207,130,205,-1,205,130,127,-1,205,127,126,-1,170,166,175,-1,175,166,169,-1,175,169,172,-1,172,169,152,-1,172,152,189,-1,189,152,155,-1,189,155,187,-1,187,155,157,-1,187,157,185,-1,185,157,159,-1,185,159,183,-1,183,159,161,-1,183,161,181,-1,181,161,163,-1,181,163,179,-1,179,163,165,-1,179,165,176,-1,176,165,150,-1,176,150,203,-1,203,150,148,-1,203,148,201,-1,201,148,146,-1,201,146,199,-1,199,146,144,-1,199,144,197,-1,197,144,142,-1,197,142,195,-1,195,142,140,-1,195,140,193,-1,193,140,138,-1,193,138,131,-1,208,209,210,-1,210,209,211,-1,209,212,211,-1,211,212,213,-1,212,214,213,-1,213,214,215,-1,214,216,215,-1,215,216,217,-1,216,218,217,-1,217,218,219,-1,218,208,219,-1,219,208,210,-1,216,214,218,-1,218,214,212,-1,218,212,208,-1,208,212,209,-1,
        ]
    }
}
Shape{
    appearance Appearance {
        material  Material 	{
            diffuseColor 0.054901960784313725 0.054901960784313725 0.054901960784313725
            specularColor 0.027450980392156862 0.027450980392156862 0.027450980392156862
            ambientIntensity 0.2
            transparency 0
            shininess 0.5
        }
    }
    geometry IndexedFaceSet {
        ccw TRUE
        solid FALSE
        coord DEF co Coordinate {
            point [
                -0.6126 -0.0432 0.0984, -0.7443 -0.0432 0.0984, -0.6713 0.1212 0.0984, -0.685 0.1212 0.0984, -0.6751 0.1349 0.0984, -0.6815 0.1349 0.0984, -0.6776 0.1488 0.0984, -0.6789 0.1488 0.0984, -0.2113 0.1536 0.0984, -0.2113 -0.1536 0.0984, -0.2693 0.1536 0.0984, -0.2671 -0.1536 0.0984, -0.3087 -0.1498 0.0984, -0.4225 0.0038 0.0984, -0.4192 0.043 0.0984, -0.41 0.0741 0.0984, -0.3159 0.1487 0.0984, -0.3418 -0.1394 0.0984, -0.3687 -0.1235 0.0984, -0.3907 -0.1017 0.0984, -0.4073 -0.0745 0.0984, -0.4189 -0.0375 0.0984, -0.3963 0.0984 0.0984, -0.3772 0.1187 0.0984, -0.3484 0.1373 0.0984, -2.4409 1.3583 1.4567, -2.4409 1.3583 0.0984, -2.4613 1.3556 0.0984, -2.4613 1.3556 2.1654, -2.4409 1.3583 2.1654, -2.4803 1.3477 0.0984, -2.4803 1.3477 2.1654, -2.4966 1.3352 0.0984, -2.4966 1.3352 2.1654, -2.5091 1.3189 0.0984, -2.5091 1.3189 2.1654, -2.517 1.2999 0.0984, -2.517 1.2999 2.1654, -2.5197 1.2795 0.0984, -2.5197 1.2795 2.1654, 2.4409 1.3583 2.1654, 1.5 1.3583 2.1654, 2.4409 1.3556 2.1857, 1.0 1.3583 2.1654, 0.5 1.3583 2.1654, 0.0 1.3583 2.1654, -2.4409 1.3556 2.1857, -0.5 1.3583 2.1654, -1.0 1.3583 2.1654, -1.5 1.3583 2.1654, -2.1407 1.3583 2.1654, -2.4409 1.3477 2.2047, 2.4409 1.3477 2.2047, -2.4409 1.3352 2.221, 2.4409 1.3352 2.221, -2.4409 1.3189 2.2335, 2.4409 1.3189 2.2335, -2.4409 1.2999 2.2414, 2.4409 1.2999 2.2414, -2.4409 1.2795 2.2441, 2.4409 1.2795 2.2441, 2.4409 1.3583 1.4567, 2.4613 1.3556 2.1654, 2.4613 1.3556 0.0984, 2.4803 1.3477 2.1654, 2.4803 1.3477 0.0984, 2.4966 1.3352 2.1654, 2.4966 1.3352 0.0984, 2.5091 1.3189 2.1654, 2.5091 1.3189 0.0984, 2.517 1.2999 2.1654, 2.517 1.2999 0.0984, 2.5197 1.2795 2.1654, 2.5197 1.2795 0.0984, 2.4409 1.3583 0.0984, -2.517 1.2795 2.1857, -2.5144 1.2992 2.1857, -2.475 1.2992 2.2335, -2.4586 1.2897 2.2414, -2.4554 1.2939 2.2414, -2.4462 1.2992 2.2414, -2.4606 1.2848 2.2414, -2.479 1.2897 2.2335, -2.4947 1.2939 2.221, -2.4613 1.2795 2.2414, -2.4688 1.3074 2.2335, -2.4511 1.2972 2.2414, -2.4606 1.3136 2.2335, -2.4511 1.3176 2.2335, -2.4803 1.2795 2.2335, -2.4966 1.2795 2.221, -2.5091 1.2795 2.2047, -2.4892 1.3074 2.221, -2.4803 1.3189 2.221, -2.4688 1.3277 2.221, -2.4554 1.3333 2.221, -2.5068 1.2972 2.2047, -2.5 1.3136 2.2047, -2.4892 1.3277 2.2047, -2.475 1.3386 2.2047, -2.4586 1.3454 2.2047, -2.5068 1.3176 2.1857, -2.4947 1.3333 2.1857, -2.479 1.3454 2.1857, -2.4606 1.353 2.1857, 2.4606 1.353 2.1857, 2.4606 1.3136 2.2335, 2.4511 1.2972 2.2414, 2.4554 1.2939 2.2414, 2.4613 1.2795 2.2414, 2.4606 1.2848 2.2414, 2.4462 1.2992 2.2414, 2.4511 1.3176 2.2335, 2.4554 1.3333 2.221, 2.4688 1.3074 2.2335, 2.4586 1.2897 2.2414, 2.475 1.2992 2.2335, 2.479 1.2897 2.2335, 2.4803 1.2795 2.2335, 2.4688 1.3277 2.221, 2.4803 1.3189 2.221, 2.4892 1.3074 2.221, 2.4947 1.2939 2.221, 2.4966 1.2795 2.221, 2.4586 1.3454 2.2047, 2.475 1.3386 2.2047, 2.4892 1.3277 2.2047, 2.5 1.3136 2.2047, 2.5068 1.2972 2.2047, 2.5091 1.2795 2.2047, 2.479 1.3454 2.1857, 2.4947 1.3333 2.1857, 2.5068 1.3176 2.1857, 2.5144 1.2992 2.1857, 2.517 1.2795 2.1857, -2.5197 -1.2795 2.1654, -2.5197 -1.2795 0.0984, -2.517 -1.2999 0.0984, -2.4613 -1.3556 0.0984, -2.4409 -1.3583 0.0984, -2.4409 -1.3583 0.3642, -2.517 -1.2999 2.1654, -2.5091 -1.3189 0.0984, -2.5091 -1.3189 2.1654, -2.4966 -1.3352 0.0984, -2.4966 -1.3352 2.1654, -2.4803 -1.3477 0.0984, -2.4803 -1.3477 2.1654, -2.4613 -1.3556 2.1654, -2.4409 -1.3583 2.1654, -2.517 -1.2795 2.1857, -2.5091 -1.2795 2.2047, -2.4966 -1.2795 2.221, -2.4803 -1.2795 2.2335, -2.4613 -1.2795 2.2414, -2.4409 -1.2795 2.2441, 2.5197 -1.2795 2.1654, 2.517 -1.2795 2.1857, 2.5091 -1.2795 2.2047, 2.4966 -1.2795 2.221, 2.4803 -1.2795 2.2335, 2.4613 -1.2795 2.2414, 2.4409 -1.2795 2.2441, 2.4409 -1.3583 0.3642, 2.4409 -1.3583 0.0984, 2.4613 -1.3556 0.0984, 2.4613 -1.3556 2.1654, 2.4409 -1.3583 2.1654, 2.4803 -1.3477 0.0984, 2.4803 -1.3477 2.1654, 2.4966 -1.3352 0.0984, 2.4966 -1.3352 2.1654, 2.5091 -1.3189 0.0984, 2.5091 -1.3189 2.1654, 2.517 -1.2999 0.0984, 2.517 -1.2999 2.1654, 2.5197 -1.2795 0.0984, -2.4409 -1.3556 2.1857, -2.4606 -1.353 2.1857, -2.4606 -1.3136 2.2335, -2.4511 -1.2972 2.2414, -2.4554 -1.2939 2.2414, -2.4606 -1.2848 2.2414, -2.4462 -1.2992 2.2414, -2.4511 -1.3176 2.2335, -2.4554 -1.3333 2.221, -2.4409 -1.2999 2.2414, -2.4688 -1.3074 2.2335, -2.4586 -1.2897 2.2414, -2.475 -1.2992 2.2335, -2.479 -1.2897 2.2335, -2.4409 -1.3189 2.2335, -2.4409 -1.3352 2.221, -2.4409 -1.3477 2.2047, -2.4688 -1.3277 2.221, -2.4803 -1.3189 2.221, -2.4892 -1.3074 2.221, -2.4947 -1.2939 2.221, -2.4586 -1.3454 2.2047, -2.475 -1.3386 2.2047, -2.4892 -1.3277 2.2047, -2.5 -1.3136 2.2047, -2.5068 -1.2972 2.2047, -2.479 -1.3454 2.1857, -2.4947 -1.3333 2.1857, -2.5068 -1.3176 2.1857, -2.5144 -1.2992 2.1857, 2.5144 -1.2992 2.1857, 2.475 -1.2992 2.2335, 2.4586 -1.2897 2.2414, 2.4554 -1.2939 2.2414, 2.4409 -1.2999 2.2414, 2.4462 -1.2992 2.2414, 2.4606 -1.2848 2.2414, 2.479 -1.2897 2.2335, 2.4947 -1.2939 2.221, 2.4688 -1.3074 2.2335, 2.4511 -1.2972 2.2414, 2.4606 -1.3136 2.2335, 2.4511 -1.3176 2.2335, 2.4409 -1.3189 2.2335, 2.4892 -1.3074 2.221, 2.4803 -1.3189 2.221, 2.4688 -1.3277 2.221, 2.4554 -1.3333 2.221, 2.4409 -1.3352 2.221, 2.5068 -1.2972 2.2047, 2.5 -1.3136 2.2047, 2.4892 -1.3277 2.2047, 2.475 -1.3386 2.2047, 2.4586 -1.3454 2.2047, 2.4409 -1.3477 2.2047, 2.5068 -1.3176 2.1857, 2.4947 -1.3333 2.1857, 2.479 -1.3454 2.1857, 2.4606 -1.353 2.1857, 2.4409 -1.3556 2.1857, -2.1407 -1.3583 2.1654, -1.5 -1.3583 2.1654, -1.0 -1.3583 2.1654, -0.5 -1.3583 2.1654, 0.0 -1.3583 2.1654, 0.5 -1.3583 2.1654, 1.0 -1.3583 2.1654, 1.5 -1.3583 2.1654, -2.292 -0.9702 2.2441, -2.2745 -0.9319 2.2431, -2.2866 -0.9287 2.2441, -2.2597 -0.8962 2.2431, -2.2705 -0.89 2.2441, -2.2362 -0.8656 2.2431, -2.245 -0.8568 2.2441, -2.2056 -0.8421 2.2431, -2.2118 -0.8313 2.2441, -2.1699 -0.8273 2.2431, -2.1731 -0.8152 2.2441, -2.1316 -0.8222 2.2431, -2.1316 -0.8098 2.2441, -2.0933 -0.8273 2.2431, -2.0901 -0.8152 2.2441, -2.0576 -0.8421 2.2431, -2.0514 -0.8313 2.2441, -2.027 -0.8656 2.2431, -2.0182 -0.8568 2.2441, -2.0035 -0.8962 2.2431, -1.9927 -0.89 2.2441, -1.9887 -0.9319 2.2431, -1.9767 -0.9287 2.2441, -1.9836 -0.9702 2.2431, -1.9712 -0.9702 2.2441, -1.9887 -1.0085 2.2431, -1.9767 -1.0117 2.2441, -2.0035 -1.0442 2.2431, -1.9927 -1.0504 2.2441, -2.027 -1.0748 2.2431, -2.0182 -1.0836 2.2441, -2.0576 -1.0983 2.2431, -2.0514 -1.1091 2.2441, -2.0933 -1.1131 2.2431, -2.0901 -1.1251 2.2441, -2.1316 -1.1182 2.2431, -2.1316 -1.1306 2.2441, -2.1699 -1.1131 2.2431, -2.1731 -1.1251 2.2441, -2.2056 -1.0983 2.2431, -2.2118 -1.1091 2.2441, -2.2362 -1.0748 2.2431, -2.245 -1.0836 2.2441, -2.2597 -1.0442 2.2431, -2.2705 -1.0504 2.2441, -2.2745 -1.0085 2.2431, -2.2866 -1.0117 2.2441, -2.2796 -0.9702 2.2431, -2.2628 -0.935 2.2402, -2.2492 -0.9023 2.2402, -2.2277 -0.8741 2.2402, -2.1995 -0.8526 2.2402, -2.1668 -0.839 2.2402, -2.1316 -0.8344 2.2402, -2.0965 -0.839 2.2402, -2.0637 -0.8526 2.2402, -2.0356 -0.8741 2.2402, -2.014 -0.9023 2.2402, -2.0004 -0.935 2.2402, -1.9958 -0.9702 2.2402, -2.0004 -1.0053 2.2402, -2.014 -1.0381 2.2402, -2.0356 -1.0662 2.2402, -2.0637 -1.0878 2.2402, -2.0965 -1.1014 2.2402, -2.1316 -1.106 2.2402, -2.1668 -1.1014 2.2402, -2.1995 -1.0878 2.2402, -2.2277 -1.0662 2.2402, -2.2492 -1.0381 2.2402, -2.2628 -1.0053 2.2402, -2.2674 -0.9702 2.2402, -2.2674 -0.9702 2.2402
            ]
        }
        coordIndex [
            0,1,2,-1,2,1,3,-1,2,3,4,-1,4,3,5,-1,4,5,6,-1,6,5,7,-1,8,9,10,-1,10,9,11,-1,10,11,12,-1,13,14,10,-1,10,14,15,-1,10,15,16,-1,12,17,10,-1,10,17,18,-1,10,18,19,-1,19,20,10,-1,10,20,21,-1,10,21,13,-1,22,23,15,-1,15,23,24,-1,15,24,16,-1,25,26,27,-1,28,29,25,-1,25,27,28,-1,28,27,30,-1,28,30,31,-1,31,30,32,-1,31,32,33,-1,33,32,34,-1,33,34,35,-1,35,34,36,-1,35,36,37,-1,37,36,38,-1,37,38,39,-1,40,41,42,-1,42,41,43,-1,42,43,44,-1,44,45,46,-1,46,45,47,-1,46,47,48,-1,48,49,46,-1,46,49,50,-1,46,50,29,-1,44,46,42,-1,42,46,51,-1,42,51,52,-1,52,51,53,-1,52,53,54,-1,54,53,55,-1,54,55,56,-1,56,55,57,-1,56,57,58,-1,58,57,59,-1,58,59,60,-1,61,40,62,-1,63,64,65,-1,65,64,66,-1,65,66,67,-1,67,66,68,-1,67,68,69,-1,69,68,70,-1,69,70,71,-1,71,70,72,-1,71,72,73,-1,74,61,63,-1,63,61,62,-1,63,62,64,-1,39,75,76,-1,77,78,79,-1,59,57,80,-1,79,78,59,-1,81,59,78,-1,81,78,82,-1,82,78,77,-1,82,77,83,-1,84,59,81,-1,85,86,87,-1,87,86,80,-1,87,80,88,-1,88,80,57,-1,88,57,55,-1,84,81,89,-1,89,81,82,-1,89,82,90,-1,90,82,83,-1,90,83,91,-1,92,85,93,-1,93,85,87,-1,93,87,94,-1,94,87,88,-1,94,88,95,-1,95,88,55,-1,95,55,53,-1,96,92,97,-1,97,92,93,-1,97,93,98,-1,98,93,94,-1,98,94,99,-1,99,94,95,-1,99,95,100,-1,100,95,53,-1,100,53,51,-1,75,96,76,-1,76,96,97,-1,76,97,101,-1,101,97,98,-1,101,98,102,-1,102,98,99,-1,102,99,103,-1,103,99,100,-1,103,100,104,-1,104,100,51,-1,104,51,46,-1,39,76,37,-1,37,76,101,-1,37,101,35,-1,35,101,102,-1,35,102,33,-1,33,102,103,-1,33,103,31,-1,31,103,104,-1,31,104,28,-1,28,104,46,-1,28,46,29,-1,86,59,80,-1,75,91,96,-1,96,91,83,-1,96,83,92,-1,92,83,77,-1,92,77,85,-1,85,77,79,-1,85,79,86,-1,86,79,59,-1,40,42,105,-1,106,107,108,-1,60,109,110,-1,108,107,60,-1,111,60,107,-1,111,107,112,-1,112,107,106,-1,112,106,113,-1,58,60,111,-1,114,115,116,-1,116,115,110,-1,116,110,117,-1,117,110,109,-1,117,109,118,-1,58,111,56,-1,56,111,112,-1,56,112,54,-1,54,112,113,-1,54,113,52,-1,119,114,120,-1,120,114,116,-1,120,116,121,-1,121,116,117,-1,121,117,122,-1,122,117,118,-1,122,118,123,-1,124,119,125,-1,125,119,120,-1,125,120,126,-1,126,120,121,-1,126,121,127,-1,127,121,122,-1,127,122,128,-1,128,122,123,-1,128,123,129,-1,42,124,105,-1,105,124,125,-1,105,125,130,-1,130,125,126,-1,130,126,131,-1,131,126,127,-1,131,127,132,-1,132,127,128,-1,132,128,133,-1,133,128,129,-1,133,129,134,-1,40,105,62,-1,62,105,130,-1,62,130,64,-1,64,130,131,-1,64,131,66,-1,66,131,132,-1,66,132,68,-1,68,132,133,-1,68,133,70,-1,70,133,134,-1,70,134,72,-1,115,60,110,-1,42,52,124,-1,124,52,113,-1,124,113,119,-1,119,113,106,-1,119,106,114,-1,114,106,108,-1,114,108,115,-1,115,108,60,-1,135,136,137,-1,138,139,140,-1,135,137,141,-1,141,137,142,-1,141,142,143,-1,143,142,144,-1,143,144,145,-1,145,144,146,-1,145,146,147,-1,147,146,138,-1,147,138,148,-1,148,138,140,-1,148,140,149,-1,39,135,150,-1,39,150,75,-1,75,150,151,-1,75,151,91,-1,91,151,152,-1,91,152,90,-1,90,152,153,-1,90,153,89,-1,89,153,154,-1,89,154,84,-1,84,154,155,-1,84,155,59,-1,156,72,134,-1,156,134,157,-1,157,134,129,-1,157,129,158,-1,158,129,123,-1,158,123,159,-1,159,123,118,-1,159,118,160,-1,160,118,109,-1,160,109,161,-1,161,109,60,-1,161,60,162,-1,163,164,165,-1,166,167,163,-1,163,165,166,-1,166,165,168,-1,166,168,169,-1,169,168,170,-1,169,170,171,-1,171,170,172,-1,171,172,173,-1,173,172,174,-1,173,174,175,-1,175,174,176,-1,175,176,156,-1,149,177,178,-1,179,180,181,-1,155,154,182,-1,181,180,155,-1,183,155,180,-1,183,180,184,-1,184,180,179,-1,184,179,185,-1,186,155,183,-1,187,188,189,-1,189,188,182,-1,189,182,190,-1,190,182,154,-1,190,154,153,-1,186,183,191,-1,191,183,184,-1,191,184,192,-1,192,184,185,-1,192,185,193,-1,194,187,195,-1,195,187,189,-1,195,189,196,-1,196,189,190,-1,196,190,197,-1,197,190,153,-1,197,153,152,-1,198,194,199,-1,199,194,195,-1,199,195,200,-1,200,195,196,-1,200,196,201,-1,201,196,197,-1,201,197,202,-1,202,197,152,-1,202,152,151,-1,177,198,178,-1,178,198,199,-1,178,199,203,-1,203,199,200,-1,203,200,204,-1,204,200,201,-1,204,201,205,-1,205,201,202,-1,205,202,206,-1,206,202,151,-1,206,151,150,-1,149,178,148,-1,148,178,203,-1,148,203,147,-1,147,203,204,-1,147,204,145,-1,145,204,205,-1,145,205,143,-1,143,205,206,-1,143,206,141,-1,141,206,150,-1,141,150,135,-1,188,155,182,-1,177,193,198,-1,198,193,185,-1,198,185,194,-1,194,185,179,-1,194,179,187,-1,187,179,181,-1,187,181,188,-1,188,181,155,-1,156,157,207,-1,208,209,210,-1,162,211,212,-1,210,209,162,-1,213,162,209,-1,213,209,214,-1,214,209,208,-1,214,208,215,-1,161,162,213,-1,216,217,218,-1,218,217,212,-1,218,212,219,-1,219,212,211,-1,219,211,220,-1,161,213,160,-1,160,213,214,-1,160,214,159,-1,159,214,215,-1,159,215,158,-1,221,216,222,-1,222,216,218,-1,222,218,223,-1,223,218,219,-1,223,219,224,-1,224,219,220,-1,224,220,225,-1,226,221,227,-1,227,221,222,-1,227,222,228,-1,228,222,223,-1,228,223,229,-1,229,223,224,-1,229,224,230,-1,230,224,225,-1,230,225,231,-1,157,226,207,-1,207,226,227,-1,207,227,232,-1,232,227,228,-1,232,228,233,-1,233,228,229,-1,233,229,234,-1,234,229,230,-1,234,230,235,-1,235,230,231,-1,235,231,236,-1,156,207,175,-1,175,207,232,-1,175,232,173,-1,173,232,233,-1,173,233,171,-1,171,233,234,-1,171,234,169,-1,169,234,235,-1,169,235,166,-1,166,235,236,-1,166,236,167,-1,217,162,212,-1,157,158,226,-1,226,158,215,-1,226,215,221,-1,221,215,208,-1,221,208,216,-1,216,208,210,-1,216,210,217,-1,217,210,162,-1,177,149,237,-1,237,238,177,-1,177,238,239,-1,177,239,240,-1,240,241,236,-1,236,241,242,-1,242,243,236,-1,236,243,244,-1,236,244,167,-1,240,236,177,-1,177,236,231,-1,177,231,193,-1,193,231,225,-1,193,225,192,-1,192,225,220,-1,192,220,191,-1,191,220,211,-1,191,211,186,-1,186,211,162,-1,186,162,155,-1,245,246,247,-1,247,246,248,-1,247,248,249,-1,249,248,250,-1,249,250,251,-1,251,250,252,-1,251,252,253,-1,253,252,254,-1,253,254,255,-1,255,254,256,-1,255,256,257,-1,257,256,258,-1,257,258,259,-1,259,258,260,-1,259,260,261,-1,261,260,262,-1,261,262,263,-1,263,262,264,-1,263,264,265,-1,265,264,266,-1,265,266,267,-1,267,266,268,-1,267,268,269,-1,269,268,270,-1,269,270,271,-1,271,270,272,-1,271,272,273,-1,273,272,274,-1,273,274,275,-1,275,274,276,-1,275,276,277,-1,277,276,278,-1,277,278,279,-1,279,278,280,-1,279,280,281,-1,281,280,282,-1,281,282,283,-1,283,282,284,-1,283,284,285,-1,285,284,286,-1,285,286,287,-1,287,286,288,-1,287,288,289,-1,289,288,290,-1,289,290,291,-1,291,290,292,-1,291,292,245,-1,245,292,246,-1,292,293,246,-1,246,293,294,-1,246,294,248,-1,248,294,295,-1,248,295,250,-1,250,295,296,-1,250,296,252,-1,252,296,297,-1,252,297,254,-1,254,297,298,-1,254,298,256,-1,256,298,299,-1,256,299,258,-1,258,299,300,-1,258,300,260,-1,260,300,301,-1,260,301,262,-1,262,301,302,-1,262,302,264,-1,264,302,303,-1,264,303,266,-1,266,303,304,-1,266,304,268,-1,268,304,305,-1,268,305,270,-1,270,305,306,-1,270,306,272,-1,272,306,307,-1,272,307,274,-1,274,307,308,-1,274,308,276,-1,276,308,309,-1,276,309,278,-1,278,309,310,-1,278,310,280,-1,280,310,311,-1,280,311,282,-1,282,311,312,-1,282,312,284,-1,284,312,313,-1,284,313,286,-1,286,313,314,-1,286,314,288,-1,288,314,315,-1,288,315,290,-1,290,315,316,-1,290,316,292,-1,292,316,293,-1,
        ]
    }
}