#VRML V2.0 utf8
# 3D model generated by easyeda2kicad.py (https://github.com/uPesy/easyeda2kicad.py)

Shape{
    appearance Appearance {
        material  Material 	{
            diffuseColor 0.9686274509803922 0.8784313725490196 0.6
            specularColor 0.6784313725490196 0.615686274509804 0.4196078431372549
            ambientIntensity 0.2
            transparency 0
            shininess 0.5
        }
    }
    geometry IndexedFaceSet {
        ccw TRUE
        solid FALSE
        coord DEF co Coordinate {
            point [
                0.1717 0.0787 0.0079, 0.1969 0.0787 0.0079, 0.0984 0.152 0.0079, 0.1969 0.1673 0.0079, 0.0984 0.1673 0.0079, 0.1969 0.1673 0.0, 0.0984 0.1673 0.0, 0.0984 0.152 0.0, 0.1969 0.0787 0.0, 0.1717 0.0787 0.0, -0.1969 0.0787 0.0079, -0.1717 0.0787 0.0079, -0.1969 0.1673 0.0079, -0.0984 0.152 0.0079, -0.0984 0.1673 0.0079, -0.1969 0.1673 0.0, -0.1969 0.0787 0.0, -0.1717 0.0787 0.0, -0.0984 0.1673 0.0, -0.0984 0.152 0.0, -0.0984 0.1673 0.0531, -0.0984 0.152 0.0531, -0.1717 0.0787 0.0531, -0.1969 0.1673 0.0531, -0.1969 0.0787 0.0531, -0.1717 -0.0787 0.0079, -0.1969 -0.0787 0.0079, -0.0984 -0.152 0.0079, -0.1969 -0.1673 0.0079, -0.0984 -0.1673 0.0079, -0.1969 -0.0787 0.0, -0.1969 -0.1673 0.0, -0.1717 -0.0787 0.0, -0.0984 -0.152 0.0, -0.0984 -0.1673 0.0, 0.1969 0.0787 0.0531, 0.1717 0.0787 0.0531, 0.0984 0.152 0.0531, 0.1969 0.1673 0.0531, 0.0984 0.1673 0.0531, 0.1969 -0.0787 0.0079, 0.1717 -0.0787 0.0079, 0.1969 -0.1673 0.0079, 0.0984 -0.152 0.0079, 0.0984 -0.1673 0.0079, 0.1969 -0.1673 0.0, 0.1969 -0.0787 0.0, 0.0984 -0.152 0.0, 0.0984 -0.1673 0.0, 0.1717 -0.0787 0.0, -0.1969 -0.0787 0.0531, -0.1717 -0.0787 0.0531, -0.0984 -0.152 0.0531, -0.0984 -0.1673 0.0531, -0.1969 -0.1673 0.0531, 0.1969 -0.1673 0.0531, 0.0984 -0.1673 0.0531, 0.0984 -0.152 0.0531, 0.1717 -0.0787 0.0531, 0.1969 -0.0787 0.0531, 0.1969 -0.0787 0.0531
            ]
        }
        coordIndex [
            0,1,2,-1,2,1,3,-1,2,3,4,-1,5,6,3,-1,3,6,4,-1,4,6,2,-1,2,6,7,-1,8,9,5,-1,5,9,7,-1,5,7,6,-1,2,7,0,-1,0,7,9,-1,8,5,1,-1,1,5,3,-1,0,9,1,-1,1,9,8,-1,10,11,12,-1,12,11,13,-1,12,13,14,-1,15,16,12,-1,12,16,10,-1,16,17,10,-1,10,17,11,-1,14,18,12,-1,12,18,15,-1,17,16,19,-1,19,16,15,-1,19,15,18,-1,17,19,11,-1,11,19,13,-1,19,18,13,-1,13,18,14,-1,14,20,13,-1,13,20,21,-1,13,21,11,-1,11,21,22,-1,23,20,12,-1,12,20,14,-1,24,22,23,-1,23,22,21,-1,23,21,20,-1,11,22,10,-1,10,22,24,-1,11,10,13,-1,13,10,12,-1,13,12,14,-1,23,12,24,-1,24,12,10,-1,25,26,27,-1,27,26,28,-1,27,28,29,-1,30,31,26,-1,26,31,28,-1,30,32,31,-1,31,32,33,-1,31,33,34,-1,31,34,28,-1,28,34,29,-1,27,33,25,-1,25,33,32,-1,29,34,27,-1,27,34,33,-1,25,32,26,-1,26,32,30,-1,1,0,3,-1,3,0,2,-1,3,2,4,-1,35,36,1,-1,1,36,0,-1,36,35,37,-1,37,35,38,-1,37,38,39,-1,36,37,0,-1,0,37,2,-1,37,39,2,-1,2,39,4,-1,4,39,3,-1,3,39,38,-1,35,1,38,-1,38,1,3,-1,40,41,42,-1,42,41,43,-1,42,43,44,-1,45,46,42,-1,42,46,40,-1,47,48,43,-1,43,48,44,-1,49,46,47,-1,47,46,45,-1,47,45,48,-1,46,49,40,-1,40,49,41,-1,49,47,41,-1,41,47,43,-1,44,48,42,-1,42,48,45,-1,26,25,28,-1,28,25,27,-1,28,27,29,-1,50,51,26,-1,26,51,25,-1,52,53,27,-1,27,53,29,-1,51,52,25,-1,25,52,27,-1,51,50,52,-1,52,50,54,-1,52,54,53,-1,29,53,28,-1,28,53,54,-1,50,26,54,-1,54,26,28,-1,55,56,42,-1,42,56,44,-1,43,57,41,-1,41,57,58,-1,41,58,40,-1,40,58,59,-1,44,56,43,-1,43,56,57,-1,59,58,55,-1,55,58,57,-1,55,57,56,-1,41,40,43,-1,43,40,42,-1,43,42,44,-1,55,42,59,-1,59,42,40,-1,
        ]
    }
}
Shape{
    appearance Appearance {
        material  Material 	{
            diffuseColor 0.10980392156862745 0.10980392156862745 0.10980392156862745
            specularColor 0.0784313725490196 0.0784313725490196 0.0784313725490196
            ambientIntensity 0.2
            transparency 0
            shininess 0.5
        }
    }
    geometry IndexedFaceSet {
        ccw TRUE
        solid FALSE
        coord DEF co Coordinate {
            point [
                0.1969 -0.0197 0.0551, 0.1969 0.0197 0.0551, 0.1969 0.1969 0.1378, 0.1969 -0.1969 0.1378, 0.1969 -0.1969 0.0079, 0.1969 -0.1786 0.0079, 0.1969 0.1673 0.0079, 0.1969 0.1969 0.0079, 0.1969 0.1673 0.0531, 0.1969 0.0787 0.0531, 0.1969 0.0787 0.0079, 0.1969 0.0197 0.0315, 0.1969 -0.0787 0.0079, 0.1969 -0.0197 0.0315, 0.1969 -0.0787 0.0531, 0.1969 -0.1673 0.0531, 0.1969 -0.1673 0.0079, -0.1969 0.0197 0.0551, -0.1969 -0.0197 0.0551, -0.1969 -0.1969 0.1378, -0.1969 0.1969 0.0079, -0.1969 0.1673 0.0079, -0.1969 0.1969 0.1378, -0.1969 0.1673 0.0531, -0.1969 0.0787 0.0531, -0.1969 -0.1673 0.0531, -0.1969 -0.0787 0.0531, -0.1969 -0.0787 0.0079, -0.1969 -0.0197 0.0315, -0.1969 0.0787 0.0079, -0.1969 0.0197 0.0315, -0.1969 -0.1673 0.0079, -0.1969 -0.1786 0.0079, -0.1969 -0.1969 0.0079, 0.1181 -0.1969 0.0315, 0.0197 -0.1969 0.0551, 0.0197 -0.1969 0.0315, -0.1181 -0.1969 0.0315, -0.1575 -0.1969 0.0315, -0.0197 -0.1969 0.0315, -0.0066 -0.1969 0.0079, -0.1575 -0.1969 0.0551, -0.1181 -0.1969 0.0551, 0.1181 -0.1969 0.0551, 0.1575 -0.1969 0.0551, 0.1575 -0.1969 0.0315, -0.0197 -0.1969 0.0551, -0.0197 -0.1969 0.0551
            ]
        }
        coordIndex [
            0,1,2,-1,3,4,5,-1,6,7,8,-1,8,7,2,-1,8,2,9,-1,9,2,1,-1,9,1,10,-1,10,1,11,-1,10,11,12,-1,12,11,13,-1,12,13,14,-1,14,13,0,-1,0,2,14,-1,14,2,3,-1,14,3,15,-1,15,3,5,-1,15,5,16,-1,17,18,19,-1,20,21,22,-1,22,21,23,-1,22,23,24,-1,25,19,26,-1,26,19,18,-1,26,18,27,-1,27,18,28,-1,27,28,29,-1,29,28,30,-1,29,30,24,-1,24,30,17,-1,24,17,22,-1,22,17,19,-1,25,31,19,-1,19,31,32,-1,19,32,33,-1,34,35,36,-1,37,38,33,-1,39,40,36,-1,36,40,4,-1,36,4,34,-1,33,38,19,-1,19,38,41,-1,19,41,42,-1,19,43,3,-1,3,43,44,-1,3,44,4,-1,4,44,45,-1,4,45,34,-1,34,43,35,-1,35,43,19,-1,35,19,46,-1,46,19,42,-1,46,42,39,-1,39,42,37,-1,39,37,40,-1,40,37,33,-1,
        ]
    }
}
Shape{
    appearance Appearance {
        material  Material 	{
            diffuseColor 0.9686274509803922 0.8784313725490196 0.6
            specularColor 0.6784313725490196 0.615686274509804 0.4196078431372549
            ambientIntensity 0.2
            transparency 0
            shininess 0.5
        }
    }
    geometry IndexedFaceSet {
        ccw TRUE
        solid FALSE
        coord DEF co Coordinate {
            point [
                -0.1181 -0.1969 0.0551, -0.1575 -0.1969 0.0551, -0.1181 -0.1969 0.0315, -0.1575 -0.1969 0.0315, -0.0197 -0.1969 0.0551, -0.0197 -0.1969 0.0315, 0.0197 -0.1969 0.0551, 0.0197 -0.1969 0.0315, 0.0197 -0.1969 0.0315
            ]
        }
        coordIndex [
            0,1,2,-1,2,1,3,-1,4,5,6,-1,6,5,7,-1,
        ]
    }
}
Shape{
    appearance Appearance {
        material  Material 	{
            diffuseColor 0.10980392156862745 0.10980392156862745 0.10980392156862745
            specularColor 0.0784313725490196 0.0784313725490196 0.0784313725490196
            ambientIntensity 0.2
            transparency 0
            shininess 0.5
        }
    }
    geometry IndexedFaceSet {
        ccw TRUE
        solid FALSE
        coord DEF co Coordinate {
            point [
                0.1969 0.1969 0.1378, 0.0197 0.1969 0.0551, -0.0197 0.1969 0.0551, -0.0066 0.1969 0.0079, 0.1181 0.1969 0.0315, 0.1969 0.1969 0.0079, 0.1575 0.1969 0.0315, 0.1575 0.1969 0.0551, 0.1181 0.1969 0.0551, 0.0197 0.1969 0.0315, -0.1575 0.1969 0.0315, -0.1969 0.1969 0.0079, -0.1575 0.1969 0.0551, -0.1969 0.1969 0.1378, -0.1181 0.1969 0.0551, -0.1181 0.1969 0.0315, -0.0197 0.1969 0.0315, -0.0197 0.1969 0.0315
            ]
        }
        coordIndex [
            0,1,2,-1,3,4,5,-1,5,4,6,-1,5,6,0,-1,6,7,0,-1,0,7,8,-1,0,8,1,-1,1,8,9,-1,10,11,12,-1,12,11,13,-1,12,13,14,-1,13,0,14,-1,14,0,2,-1,14,2,15,-1,15,2,16,-1,8,4,9,-1,9,4,3,-1,9,3,16,-1,16,3,11,-1,16,11,15,-1,15,11,10,-1,
        ]
    }
}
Shape{
    appearance Appearance {
        material  Material 	{
            diffuseColor 0.9686274509803922 0.8784313725490196 0.6
            specularColor 0.6784313725490196 0.615686274509804 0.4196078431372549
            ambientIntensity 0.2
            transparency 0
            shininess 0.5
        }
    }
    geometry IndexedFaceSet {
        ccw TRUE
        solid FALSE
        coord DEF co Coordinate {
            point [
                0.1575 0.1969 0.0315, 0.1181 0.1969 0.0315, 0.1575 0.1969 0.0551, 0.1181 0.1969 0.0551, -0.1575 0.1969 0.0551, -0.1181 0.1969 0.0551, -0.1575 0.1969 0.0315, -0.1181 0.1969 0.0315, 0.1969 0.0787 0.0531, 0.1717 0.0787 0.0531, 0.1969 0.1673 0.0531, 0.0984 0.152 0.0531, 0.0984 0.1673 0.0531, 0.1717 0.0787 0.0079, 0.1969 0.0787 0.0079, 0.0984 0.152 0.0079, 0.0984 0.1673 0.0079, 0.1969 0.1673 0.0079, 0.0984 -0.1673 0.0531, 0.1969 -0.1673 0.0531, 0.0984 -0.1673 0.0079, 0.1969 -0.1673 0.0079, 0.0984 -0.152 0.0531, 0.0984 -0.152 0.0079, 0.1717 -0.0787 0.0531, 0.1717 -0.0787 0.0079, 0.1969 -0.0787 0.0531, 0.1969 -0.0787 0.0079, -0.0984 0.1673 0.0531, -0.0984 0.1673 0.0079, -0.0984 0.152 0.0531, -0.0984 0.152 0.0079, -0.1717 0.0787 0.0531, -0.1717 0.0787 0.0079, -0.1969 0.1673 0.0531, -0.1969 0.1673 0.0079, -0.1969 0.0787 0.0531, -0.1969 0.0787 0.0079, -0.1969 -0.0787 0.0531, -0.1717 -0.0787 0.0531, -0.1969 -0.1673 0.0531, -0.0984 -0.152 0.0531, -0.0984 -0.1673 0.0531, -0.0984 -0.1673 0.0079, -0.0984 -0.152 0.0079, -0.1969 -0.1673 0.0079, -0.1717 -0.0787 0.0079, -0.1969 -0.0787 0.0079, -0.1969 -0.0787 0.0079
            ]
        }
        coordIndex [
            0,1,2,-1,2,1,3,-1,4,5,6,-1,6,5,7,-1,8,9,10,-1,10,9,11,-1,10,11,12,-1,9,8,13,-1,13,8,14,-1,11,9,15,-1,15,9,13,-1,12,11,16,-1,16,11,15,-1,12,16,10,-1,10,16,17,-1,18,19,20,-1,20,19,21,-1,22,23,24,-1,24,23,25,-1,24,25,26,-1,26,25,27,-1,18,20,22,-1,22,20,23,-1,24,26,22,-1,22,26,19,-1,22,19,18,-1,28,29,30,-1,30,29,31,-1,30,31,32,-1,32,31,33,-1,28,34,29,-1,29,34,35,-1,32,36,30,-1,30,36,34,-1,30,34,28,-1,32,33,36,-1,36,33,37,-1,38,39,40,-1,40,39,41,-1,40,41,42,-1,42,41,43,-1,43,41,44,-1,42,43,40,-1,40,43,45,-1,39,38,46,-1,46,38,47,-1,41,39,44,-1,44,39,46,-1,
        ]
    }
}
Shape{
    appearance Appearance {
        material  Material 	{
            diffuseColor 0.10980392156862745 0.10980392156862745 0.10980392156862745
            specularColor 0.0784313725490196 0.0784313725490196 0.0784313725490196
            ambientIntensity 0.2
            transparency 0
            shininess 0.5
        }
    }
    geometry IndexedFaceSet {
        ccw TRUE
        solid FALSE
        coord DEF co Coordinate {
            point [
                -0.0111 -0.161 0.0079, -0.0111 -0.1763 0.0079, -0.014 -0.161 0.0079, -0.0139 -0.1763 0.0079, -0.016 -0.1761 0.0079, -0.0217 -0.1685 0.0079, -0.0215 -0.1665 0.0079, -0.0211 -0.1649 0.0079, -0.0164 -0.1612 0.0079, -0.0177 -0.1756 0.0079, -0.019 -0.1748 0.0079, -0.0201 -0.1737 0.0079, -0.0209 -0.1724 0.0079, -0.0215 -0.1705 0.0079, -0.0204 -0.1637 0.0079, -0.0194 -0.1627 0.0079, -0.018 -0.1618 0.0079, -0.0312 -0.1708 0.0079, -0.0378 -0.1708 0.0079, -0.0341 -0.1626 0.0079, -0.0348 -0.1626 0.0079, -0.0343 -0.1619 0.0079, -0.0346 -0.1619 0.0079, -0.0344 -0.1612 0.0079, -0.0345 -0.1612 0.0079, -0.0345 -0.1612 0.0079
            ]
        }
        coordIndex [
            0,1,2,-1,2,1,3,-1,2,3,4,-1,5,6,2,-1,2,6,7,-1,2,7,8,-1,4,9,2,-1,2,9,10,-1,2,10,11,-1,11,12,2,-1,2,12,13,-1,2,13,5,-1,14,15,7,-1,7,15,16,-1,7,16,8,-1,17,18,19,-1,19,18,20,-1,19,20,21,-1,21,20,22,-1,21,22,23,-1,23,22,24,-1,
        ]
    }
}
Shape{
    appearance Appearance {
        material  Material 	{
            diffuseColor 0.4117647058823529 0.4117647058823529 0.4117647058823529
            specularColor 0.20392156862745098 0.20392156862745098 0.20392156862745098
            ambientIntensity 0.2
            transparency 0
            shininess 0.5
        }
    }
    geometry IndexedFaceSet {
        ccw TRUE
        solid FALSE
        coord DEF co Coordinate {
            point [
                -0.084 0.0984 0.1299, -0.0801 0.1079 0.1299, -0.1181 0.1181 0.1299, -0.0787 0.1181 0.1299, -0.0801 0.1283 0.1299, -0.1079 0.0801 0.1299, -0.0984 0.084 0.1299, -0.0903 0.0903 0.1299, -0.1378 0.084 0.1299, -0.1283 0.0801 0.1299, -0.1181 0.0787 0.1299, -0.1561 0.1079 0.1299, -0.1522 0.0984 0.1299, -0.1459 0.0903 0.1299, -0.1522 0.1378 0.1299, -0.1561 0.1283 0.1299, -0.1575 0.1181 0.1299, -0.1283 0.1561 0.1299, -0.1378 0.1522 0.1299, -0.1459 0.1459 0.1299, -0.0984 0.1522 0.1299, -0.1079 0.1561 0.1299, -0.1181 0.1575 0.1299, -0.084 0.1378 0.1299, -0.0903 0.1459 0.1299, -0.0903 0.1459 0.1299
            ]
        }
        coordIndex [
            0,1,2,-1,2,1,3,-1,2,3,4,-1,5,6,2,-1,2,6,7,-1,2,7,0,-1,8,9,2,-1,2,9,10,-1,2,10,5,-1,11,12,2,-1,2,12,13,-1,2,13,8,-1,14,15,2,-1,2,15,16,-1,2,16,11,-1,17,18,2,-1,2,18,19,-1,2,19,14,-1,20,21,2,-1,2,21,22,-1,2,22,17,-1,4,23,2,-1,2,23,24,-1,2,24,20,-1,
        ]
    }
}
Shape{
    appearance Appearance {
        material  Material 	{
            diffuseColor 0.792156862745098 0.8196078431372549 0.9333333333333333
            specularColor 0.396078431372549 0.4117647058823529 0.4666666666666667
            ambientIntensity 0.2
            transparency 0
            shininess 0.5
        }
    }
    geometry IndexedFaceSet {
        ccw TRUE
        solid FALSE
        coord DEF co Coordinate {
            point [
                -0.0139 -0.1763 0.0079, -0.0139 -0.1763 0.0118, -0.016 -0.1761 0.0118, -0.016 -0.1761 0.0079, -0.0177 -0.1756 0.0118, -0.0177 -0.1756 0.0079, -0.019 -0.1748 0.0118, -0.019 -0.1748 0.0079, -0.0201 -0.1737 0.0118, -0.0201 -0.1737 0.0079, -0.0209 -0.1724 0.0118, -0.0209 -0.1724 0.0079, -0.0215 -0.1705 0.0118, -0.0215 -0.1705 0.0079, -0.0217 -0.1685 0.0118, -0.0217 -0.1685 0.0079, -0.0217 -0.1685 0.0079
            ]
        }
        coordIndex [
            0,1,2,-1,0,2,3,-1,3,2,4,-1,3,4,5,-1,5,4,6,-1,5,6,7,-1,7,6,8,-1,7,8,9,-1,9,8,10,-1,9,10,11,-1,11,10,12,-1,11,12,13,-1,13,12,14,-1,13,14,15,-1,
        ]
    }
}
Shape{
    appearance Appearance {
        material  Material 	{
            diffuseColor 0.9686274509803922 0.8784313725490196 0.6
            specularColor 0.6784313725490196 0.615686274509804 0.4196078431372549
            ambientIntensity 0.2
            transparency 0
            shininess 0.5
        }
    }
    geometry IndexedFaceSet {
        ccw TRUE
        solid FALSE
        coord DEF co Coordinate {
            point [
                -0.0217 -0.1685 0.0079, -0.0217 -0.1685 0.0118, -0.0215 -0.1665 0.0118, -0.0215 -0.1665 0.0079, -0.0211 -0.1649 0.0118, -0.0211 -0.1649 0.0079, -0.0204 -0.1637 0.0118, -0.0204 -0.1637 0.0079, -0.0194 -0.1627 0.0118, -0.0194 -0.1627 0.0079, -0.018 -0.1618 0.0118, -0.018 -0.1618 0.0079, -0.0164 -0.1612 0.0118, -0.0164 -0.1612 0.0079, -0.014 -0.161 0.0118, -0.014 -0.161 0.0079, -0.0111 -0.161 0.0118, -0.0111 -0.161 0.0079, -0.0111 -0.1763 0.0079, -0.0111 -0.1763 0.0118, -0.0139 -0.1763 0.0118, -0.0139 -0.1763 0.0079, -0.0348 -0.1626 0.0079, -0.0348 -0.1626 0.0118, -0.0346 -0.1619 0.0118, -0.0346 -0.1619 0.0079, -0.0345 -0.1612 0.0118, -0.0345 -0.1612 0.0079, -0.0344 -0.1612 0.0118, -0.0344 -0.1612 0.0079, -0.0343 -0.1619 0.0118, -0.0343 -0.1619 0.0079, -0.0341 -0.1626 0.0118, -0.0341 -0.1626 0.0079, -0.0341 -0.1626 0.0079
            ]
        }
        coordIndex [
            0,1,2,-1,0,2,3,-1,3,2,4,-1,3,4,5,-1,5,4,6,-1,5,6,7,-1,7,6,8,-1,7,8,9,-1,9,8,10,-1,9,10,11,-1,11,10,12,-1,11,12,13,-1,13,12,14,-1,13,14,15,-1,16,17,14,-1,14,17,15,-1,18,17,19,-1,19,17,16,-1,20,21,19,-1,19,21,18,-1,22,23,24,-1,22,24,25,-1,25,24,26,-1,25,26,27,-1,28,29,26,-1,26,29,27,-1,29,28,30,-1,29,30,31,-1,31,30,32,-1,31,32,33,-1,
        ]
    }
}
Shape{
    appearance Appearance {
        material  Material 	{
            diffuseColor 0.792156862745098 0.8196078431372549 0.9333333333333333
            specularColor 0.396078431372549 0.4117647058823529 0.4666666666666667
            ambientIntensity 0.2
            transparency 0
            shininess 0.5
        }
    }
    geometry IndexedFaceSet {
        ccw TRUE
        solid FALSE
        coord DEF co Coordinate {
            point [
                -0.0312 -0.1708 0.0118, -0.0312 -0.1708 0.0079, -0.0341 -0.1626 0.0118, -0.0341 -0.1626 0.0079, -0.0341 -0.1626 0.0079
            ]
        }
        coordIndex [
            0,1,2,-1,2,1,3,-1,
        ]
    }
}
Shape{
    appearance Appearance {
        material  Material 	{
            diffuseColor 0.9686274509803922 0.8784313725490196 0.6
            specularColor 0.6784313725490196 0.615686274509804 0.4196078431372549
            ambientIntensity 0.2
            transparency 0
            shininess 0.5
        }
    }
    geometry IndexedFaceSet {
        ccw TRUE
        solid FALSE
        coord DEF co Coordinate {
            point [
                -0.0378 -0.1708 0.0118, -0.0378 -0.1708 0.0079, -0.0312 -0.1708 0.0118, -0.0312 -0.1708 0.0079, -0.0348 -0.1626 0.0079, -0.0348 -0.1626 0.0118, -0.0348 -0.1626 0.0118
            ]
        }
        coordIndex [
            0,1,2,-1,2,1,3,-1,4,1,5,-1,5,1,0,-1,
        ]
    }
}
Shape{
    appearance Appearance {
        material  Material 	{
            diffuseColor 0.4117647058823529 0.4117647058823529 0.4117647058823529
            specularColor 0.20392156862745098 0.20392156862745098 0.20392156862745098
            ambientIntensity 0.2
            transparency 0
            shininess 0.5
        }
    }
    geometry IndexedFaceSet {
        ccw TRUE
        solid FALSE
        coord DEF co Coordinate {
            point [
                -0.0787 0.1181 0.1299, -0.0787 0.1181 0.1378, -0.0801 0.1283 0.1299, -0.0801 0.1283 0.1378, -0.084 0.1378 0.1299, -0.084 0.1378 0.1378, -0.0903 0.1459 0.1299, -0.0903 0.1459 0.1378, -0.0984 0.1522 0.1299, -0.0984 0.1522 0.1378, -0.1079 0.1561 0.1299, -0.1079 0.1561 0.1378, -0.1181 0.1575 0.1299, -0.1181 0.1575 0.1378, -0.1283 0.1561 0.1299, -0.1283 0.1561 0.1378, -0.1378 0.1522 0.1299, -0.1378 0.1522 0.1378, -0.1459 0.1459 0.1299, -0.1459 0.1459 0.1378, -0.1522 0.1378 0.1299, -0.1522 0.1378 0.1378, -0.1561 0.1283 0.1299, -0.1561 0.1283 0.1378, -0.1575 0.1181 0.1299, -0.1575 0.1181 0.1378, -0.1561 0.1079 0.1299, -0.1561 0.1079 0.1378, -0.1522 0.0984 0.1299, -0.1522 0.0984 0.1378, -0.1459 0.0903 0.1299, -0.1459 0.0903 0.1378, -0.1378 0.084 0.1299, -0.1378 0.084 0.1378, -0.1283 0.0801 0.1299, -0.1283 0.0801 0.1378, -0.1181 0.0787 0.1299, -0.1181 0.0787 0.1378, -0.1079 0.0801 0.1299, -0.1079 0.0801 0.1378, -0.0984 0.084 0.1299, -0.0984 0.084 0.1378, -0.0903 0.0903 0.1299, -0.0903 0.0903 0.1378, -0.084 0.0984 0.1299, -0.084 0.0984 0.1378, -0.0801 0.1079 0.1299, -0.0801 0.1079 0.1378, -0.0801 0.1079 0.1378
            ]
        }
        coordIndex [
            0,1,2,-1,2,1,3,-1,2,3,4,-1,4,3,5,-1,4,5,6,-1,6,5,7,-1,6,7,8,-1,8,7,9,-1,8,9,10,-1,10,9,11,-1,10,11,12,-1,12,11,13,-1,12,13,14,-1,14,13,15,-1,14,15,16,-1,16,15,17,-1,16,17,18,-1,18,17,19,-1,18,19,20,-1,20,19,21,-1,20,21,22,-1,22,21,23,-1,22,23,24,-1,24,23,25,-1,24,25,26,-1,26,25,27,-1,26,27,28,-1,28,27,29,-1,28,29,30,-1,30,29,31,-1,30,31,32,-1,32,31,33,-1,32,33,34,-1,34,33,35,-1,34,35,36,-1,36,35,37,-1,36,37,38,-1,38,37,39,-1,38,39,40,-1,40,39,41,-1,40,41,42,-1,42,41,43,-1,42,43,44,-1,44,43,45,-1,44,45,46,-1,46,45,47,-1,46,47,0,-1,0,47,1,-1,
        ]
    }
}
Shape{
    appearance Appearance {
        material  Material 	{
            diffuseColor 0.792156862745098 0.8196078431372549 0.9333333333333333
            specularColor 0.396078431372549 0.4117647058823529 0.4666666666666667
            ambientIntensity 0.2
            transparency 0
            shininess 0.5
        }
    }
    geometry IndexedFaceSet {
        ccw TRUE
        solid FALSE
        coord DEF co Coordinate {
            point [
                0.0335 -0.1588 0.0118, 0.0362 -0.1588 0.0118, 0.0335 -0.1763 0.0118, 0.0362 -0.1785 0.0118, 0.0261 -0.1763 0.0118, 0.0261 -0.1785 0.0118, 0.0166 -0.1764 0.0118, 0.0152 -0.1787 0.0118, 0.0148 -0.1766 0.0118, 0.0146 -0.1787 0.0118, 0.0122 -0.1763 0.0118, 0.0119 -0.1783 0.0118, 0.0101 -0.1755 0.0118, 0.0098 -0.1775 0.0118, 0.0098 -0.1753 0.0118, 0.0098 -0.162 0.0118, 0.0098 -0.1593 0.0118, 0.012 -0.161 0.0118, 0.012 -0.1587 0.0118, 0.0144 -0.1607 0.0118, 0.0144 -0.1586 0.0118, 0.0163 -0.1609 0.0118, 0.0164 -0.1587 0.0118, 0.0178 -0.1615 0.0118, 0.0186 -0.1594 0.0118, 0.0191 -0.1624 0.0118, 0.0204 -0.1604 0.0118, 0.0203 -0.1637 0.0118, 0.0222 -0.1622 0.0118, 0.0211 -0.1652 0.0118, 0.0234 -0.164 0.0118, 0.0217 -0.1673 0.0118, 0.0241 -0.1662 0.0118, 0.0218 -0.1689 0.0118, 0.0244 -0.169 0.0118, 0.0216 -0.171 0.0118, 0.0242 -0.1713 0.0118, 0.021 -0.1727 0.0118, 0.0236 -0.1734 0.0118, 0.0202 -0.174 0.0118, 0.0226 -0.1753 0.0118, 0.0193 -0.175 0.0118, 0.0211 -0.1768 0.0118, 0.0181 -0.1758 0.0118, 0.0195 -0.1778 0.0118, 0.0176 -0.1785 0.0118, 0.0176 -0.1785 0.0118
            ]
        }
        coordIndex [
            0,1,2,-1,2,1,3,-1,2,3,4,-1,4,3,5,-1,6,7,8,-1,8,7,9,-1,8,9,10,-1,10,9,11,-1,10,11,12,-1,12,11,13,-1,12,13,14,-1,15,16,17,-1,17,16,18,-1,17,18,19,-1,19,18,20,-1,19,20,21,-1,21,20,22,-1,21,22,23,-1,23,22,24,-1,23,24,25,-1,25,24,26,-1,25,26,27,-1,27,26,28,-1,27,28,29,-1,29,28,30,-1,29,30,31,-1,31,30,32,-1,31,32,33,-1,33,32,34,-1,33,34,35,-1,35,34,36,-1,35,36,37,-1,37,36,38,-1,37,38,39,-1,39,38,40,-1,39,40,41,-1,41,40,42,-1,41,42,43,-1,43,42,44,-1,43,44,6,-1,6,44,45,-1,6,45,7,-1,
        ]
    }
}
Shape{
    appearance Appearance {
        material  Material 	{
            diffuseColor 0.9686274509803922 0.8784313725490196 0.6
            specularColor 0.6784313725490196 0.615686274509804 0.4196078431372549
            ambientIntensity 0.2
            transparency 0
            shininess 0.5
        }
    }
    geometry IndexedFaceSet {
        ccw TRUE
        solid FALSE
        coord DEF co Coordinate {
            point [
                0.0059 -0.1785 0.0118, -0.0046 -0.1785 0.0118, -0.0046 -0.1763 0.0118, 0.0033 -0.1763 0.0118, 0.0033 -0.1696 0.0118, 0.0059 -0.1588 0.0118, -0.0042 -0.161 0.0118, -0.0042 -0.1588 0.0118, 0.0033 -0.161 0.0118, 0.0033 -0.1674 0.0118, -0.0037 -0.1674 0.0118, -0.0037 -0.1696 0.0118, -0.0037 -0.1696 0.0118
            ]
        }
        coordIndex [
            0,1,2,-1,2,3,0,-1,0,3,4,-1,0,4,5,-1,6,7,8,-1,8,7,5,-1,8,5,9,-1,9,5,4,-1,9,4,10,-1,10,4,11,-1,
        ]
    }
}
Shape{
    appearance Appearance {
        material  Material 	{
            diffuseColor 0.792156862745098 0.8196078431372549 0.9333333333333333
            specularColor 0.396078431372549 0.4117647058823529 0.4666666666666667
            ambientIntensity 0.2
            transparency 0
            shininess 0.5
        }
    }
    geometry IndexedFaceSet {
        ccw TRUE
        solid FALSE
        coord DEF co Coordinate {
            point [
                -0.0237 -0.1646 0.0118, -0.0227 -0.1629 0.0118, -0.0204 -0.1637 0.0118, -0.0214 -0.1614 0.0118, -0.0194 -0.1627 0.0118, -0.0213 -0.1614 0.0118, -0.018 -0.1618 0.0118, -0.0192 -0.1599 0.0118, -0.0164 -0.1612 0.0118, -0.0169 -0.1591 0.0118, -0.014 -0.161 0.0118, -0.014 -0.1588 0.0118, -0.0111 -0.161 0.0118, -0.0085 -0.1588 0.0118, -0.0111 -0.1763 0.0118, -0.0085 -0.1785 0.0118, -0.0139 -0.1763 0.0118, -0.0138 -0.1785 0.0118, -0.016 -0.1761 0.0118, -0.0163 -0.1783 0.0118, -0.0177 -0.1756 0.0118, -0.0185 -0.1776 0.0118, -0.019 -0.1748 0.0118, -0.0206 -0.1764 0.0118, -0.0201 -0.1737 0.0118, -0.0222 -0.1749 0.0118, -0.0209 -0.1724 0.0118, -0.0233 -0.1731 0.0118, -0.0215 -0.1705 0.0118, -0.0241 -0.171 0.0118, -0.0217 -0.1685 0.0118, -0.0243 -0.1684 0.0118, -0.0215 -0.1665 0.0118, -0.0242 -0.1666 0.0118, -0.0211 -0.1649 0.0118, -0.0211 -0.1649 0.0118
            ]
        }
        coordIndex [
            0,1,2,-1,2,1,3,-1,2,3,4,-1,4,3,5,-1,4,5,6,-1,6,5,7,-1,6,7,8,-1,8,7,9,-1,8,9,10,-1,10,9,11,-1,10,11,12,-1,12,11,13,-1,12,13,14,-1,14,13,15,-1,14,15,16,-1,16,15,17,-1,16,17,18,-1,18,17,19,-1,18,19,20,-1,20,19,21,-1,20,21,22,-1,22,21,23,-1,22,23,24,-1,24,23,25,-1,24,25,26,-1,26,25,27,-1,26,27,28,-1,28,27,29,-1,28,29,30,-1,30,29,31,-1,30,31,32,-1,32,31,33,-1,32,33,34,-1,34,33,0,-1,34,0,2,-1,
        ]
    }
}
Shape{
    appearance Appearance {
        material  Material 	{
            diffuseColor 0.9686274509803922 0.8784313725490196 0.6
            specularColor 0.6784313725490196 0.615686274509804 0.4196078431372549
            ambientIntensity 0.2
            transparency 0
            shininess 0.5
        }
    }
    geometry IndexedFaceSet {
        ccw TRUE
        solid FALSE
        coord DEF co Coordinate {
            point [
                -0.0312 -0.1708 0.0118, -0.0305 -0.173 0.0118, -0.0378 -0.1708 0.0118, -0.0387 -0.173 0.0118, -0.0341 -0.1626 0.0118, -0.0332 -0.1588 0.0118, -0.0258 -0.1785 0.0118, -0.0287 -0.1785 0.0118, -0.0343 -0.1619 0.0118, -0.0344 -0.1612 0.0118, -0.0359 -0.1588 0.0118, -0.0345 -0.1612 0.0118, -0.0346 -0.1619 0.0118, -0.0348 -0.1626 0.0118, -0.0435 -0.1785 0.0118, -0.0407 -0.1785 0.0118, -0.0407 -0.1785 0.0118
            ]
        }
        coordIndex [
            0,1,2,-1,2,1,3,-1,4,5,0,-1,0,5,6,-1,0,6,1,-1,1,6,7,-1,4,8,5,-1,5,8,9,-1,5,9,10,-1,10,9,11,-1,10,11,12,-1,12,13,10,-1,10,13,2,-1,10,2,14,-1,14,2,3,-1,14,3,15,-1,
        ]
    }
}
Shape{
    appearance Appearance {
        material  Material 	{
            diffuseColor 0.10980392156862745 0.10980392156862745 0.10980392156862745
            specularColor 0.0784313725490196 0.0784313725490196 0.0784313725490196
            ambientIntensity 0.2
            transparency 0
            shininess 0.5
        }
    }
    geometry IndexedFaceSet {
        ccw TRUE
        solid FALSE
        coord DEF co Coordinate {
            point [
                -0.084 0.0984 0.1378, -0.0903 0.0903 0.1378, 0.1969 -0.1969 0.1378, -0.1969 0.1969 0.1378, -0.1561 0.1283 0.1378, -0.1522 0.1378 0.1378, -0.1181 0.0787 0.1378, -0.1969 -0.1969 0.1378, -0.1079 0.0801 0.1378, -0.0984 0.084 0.1378, -0.1283 0.0801 0.1378, -0.1378 0.084 0.1378, -0.1459 0.0903 0.1378, -0.0903 0.1459 0.1378, -0.084 0.1378 0.1378, 0.1969 0.1969 0.1378, -0.1522 0.0984 0.1378, -0.1561 0.1079 0.1378, -0.1575 0.1181 0.1378, -0.1459 0.1459 0.1378, -0.1378 0.1522 0.1378, -0.1283 0.1561 0.1378, -0.0801 0.1283 0.1378, -0.0787 0.1181 0.1378, -0.0801 0.1079 0.1378, -0.1181 0.1575 0.1378, -0.1079 0.1561 0.1378, -0.0984 0.1522 0.1378, -0.0984 0.1522 0.1378
            ]
        }
        coordIndex [
            0,1,2,-1,3,4,5,-1,6,7,8,-1,8,7,2,-1,8,2,9,-1,9,2,1,-1,6,10,7,-1,7,10,11,-1,7,11,12,-1,13,14,15,-1,12,16,7,-1,7,16,17,-1,7,17,3,-1,3,17,18,-1,3,18,4,-1,5,19,3,-1,3,19,20,-1,3,20,21,-1,14,22,15,-1,15,22,23,-1,15,23,2,-1,2,23,24,-1,2,24,0,-1,21,25,3,-1,3,25,26,-1,3,26,15,-1,15,26,27,-1,15,27,13,-1,
        ]
    }
}
Shape{
    appearance Appearance {
        material  Material 	{
            diffuseColor 0.9686274509803922 0.8784313725490196 0.6
            specularColor 0.6784313725490196 0.615686274509804 0.4196078431372549
            ambientIntensity 0.2
            transparency 0
            shininess 0.5
        }
    }
    geometry IndexedFaceSet {
        ccw TRUE
        solid FALSE
        coord DEF co Coordinate {
            point [
                -0.0197 0.1969 0.0315, -0.0197 0.1969 0.0551, 0.0197 0.1969 0.0315, 0.0197 0.1969 0.0551, -0.1969 -0.0197 0.0315, -0.1969 -0.0197 0.0551, -0.1969 0.0197 0.0315, -0.1969 0.0197 0.0551, 0.1181 -0.1969 0.0315, 0.1575 -0.1969 0.0315, 0.1181 -0.1969 0.0551, 0.1575 -0.1969 0.0551, 0.1969 -0.0197 0.0551, 0.1969 -0.0197 0.0315, 0.1969 0.0197 0.0551, 0.1969 0.0197 0.0315, 0.0261 -0.1785 0.0118, 0.0261 -0.1785 0.0079, 0.0261 -0.1763 0.0118, 0.0261 -0.1763 0.0079, 0.0335 -0.1763 0.0118, 0.0335 -0.1763 0.0079, 0.0335 -0.1588 0.0118, 0.0335 -0.1588 0.0079, 0.0335 -0.1588 0.0079
            ]
        }
        coordIndex [
            0,1,2,-1,2,1,3,-1,4,5,6,-1,6,5,7,-1,8,9,10,-1,10,9,11,-1,12,13,14,-1,14,13,15,-1,16,17,18,-1,18,17,19,-1,18,19,20,-1,20,19,21,-1,20,21,22,-1,22,21,23,-1,
        ]
    }
}
Shape{
    appearance Appearance {
        material  Material 	{
            diffuseColor 0.792156862745098 0.8196078431372549 0.9333333333333333
            specularColor 0.396078431372549 0.4117647058823529 0.4666666666666667
            ambientIntensity 0.2
            transparency 0
            shininess 0.5
        }
    }
    geometry IndexedFaceSet {
        ccw TRUE
        solid FALSE
        coord DEF co Coordinate {
            point [
                0.0335 -0.1588 0.0118, 0.0335 -0.1588 0.0079, 0.0362 -0.1588 0.0118, 0.0362 -0.1588 0.0079, 0.0362 -0.1785 0.0118, 0.0362 -0.1785 0.0079, 0.0261 -0.1785 0.0118, 0.0261 -0.1785 0.0079, 0.0098 -0.1775 0.0118, 0.0098 -0.1775 0.0079, 0.0098 -0.1753 0.0118, 0.0098 -0.1753 0.0079, 0.0148 -0.1766 0.0079, 0.0148 -0.1766 0.0118, 0.0122 -0.1763 0.0118, 0.0122 -0.1763 0.0079, 0.0101 -0.1755 0.0118, 0.0101 -0.1755 0.0079, 0.0218 -0.1689 0.0079, 0.0218 -0.1689 0.0118, 0.0216 -0.171 0.0118, 0.0216 -0.171 0.0079, 0.021 -0.1727 0.0118, 0.021 -0.1727 0.0079, 0.0202 -0.174 0.0118, 0.0202 -0.174 0.0079, 0.0193 -0.175 0.0118, 0.0193 -0.175 0.0079, 0.0181 -0.1758 0.0118, 0.0181 -0.1758 0.0079, 0.0166 -0.1764 0.0118, 0.0166 -0.1764 0.0079, 0.0144 -0.1607 0.0079, 0.0144 -0.1607 0.0118, 0.0163 -0.1609 0.0118, 0.0163 -0.1609 0.0079, 0.0178 -0.1615 0.0118, 0.0178 -0.1615 0.0079, 0.0191 -0.1624 0.0118, 0.0191 -0.1624 0.0079, 0.0203 -0.1637 0.0118, 0.0203 -0.1637 0.0079, 0.0211 -0.1652 0.0118, 0.0211 -0.1652 0.0079, 0.0217 -0.1673 0.0118, 0.0217 -0.1673 0.0079, 0.0098 -0.162 0.0079, 0.0098 -0.162 0.0118, 0.012 -0.161 0.0118, 0.012 -0.161 0.0079, 0.0098 -0.1593 0.0118, 0.0098 -0.1593 0.0079, 0.0144 -0.1586 0.0079, 0.0144 -0.1586 0.0118, 0.012 -0.1587 0.0118, 0.012 -0.1587 0.0079, 0.0244 -0.169 0.0079, 0.0244 -0.169 0.0118, 0.0241 -0.1662 0.0118, 0.0241 -0.1662 0.0079, 0.0234 -0.164 0.0118, 0.0234 -0.164 0.0079, 0.0222 -0.1622 0.0118, 0.0222 -0.1622 0.0079, 0.0204 -0.1604 0.0118, 0.0204 -0.1604 0.0079, 0.0186 -0.1594 0.0118, 0.0186 -0.1594 0.0079, 0.0164 -0.1587 0.0118, 0.0164 -0.1587 0.0079, 0.0152 -0.1787 0.0079, 0.0152 -0.1787 0.0118, 0.0163 -0.1786 0.0079, 0.0176 -0.1785 0.0118, 0.0176 -0.1785 0.0079, 0.0195 -0.1778 0.0118, 0.0195 -0.1778 0.0079, 0.0211 -0.1768 0.0118, 0.0211 -0.1768 0.0079, 0.0226 -0.1753 0.0118, 0.0226 -0.1753 0.0079, 0.0236 -0.1734 0.0118, 0.0236 -0.1734 0.0079, 0.0242 -0.1713 0.0118, 0.0242 -0.1713 0.0079, 0.0119 -0.1783 0.0079, 0.0119 -0.1783 0.0118, 0.0138 -0.1786 0.0079, 0.0146 -0.1787 0.0118, 0.0146 -0.1787 0.0079, -0.0046 -0.1785 0.0118, -0.0046 -0.1785 0.0079, -0.0046 -0.1763 0.0118, -0.0046 -0.1763 0.0079, 0.0033 -0.1763 0.0118, 0.0033 -0.1763 0.0079, 0.0033 -0.1696 0.0118, 0.0033 -0.1696 0.0079, -0.0037 -0.1696 0.0118, -0.0037 -0.1696 0.0079, -0.0037 -0.1674 0.0118, -0.0037 -0.1674 0.0079, 0.0033 -0.1674 0.0118, 0.0033 -0.1674 0.0079, 0.0033 -0.161 0.0118, 0.0033 -0.161 0.0079, -0.0042 -0.161 0.0118, -0.0042 -0.161 0.0079, -0.0042 -0.1588 0.0118, -0.0042 -0.1588 0.0079, 0.0059 -0.1588 0.0118, 0.0059 -0.1588 0.0079, 0.0059 -0.1785 0.0118, 0.0059 -0.1785 0.0079, -0.0085 -0.1785 0.0118, -0.0085 -0.1785 0.0079, -0.0138 -0.1785 0.0118, -0.0138 -0.1785 0.0079, -0.0243 -0.1684 0.0079, -0.0243 -0.1684 0.0118, -0.0241 -0.171 0.0118, -0.0241 -0.171 0.0079, -0.0233 -0.1731 0.0118, -0.0233 -0.1731 0.0079, -0.0222 -0.1749 0.0118, -0.0222 -0.1749 0.0079, -0.0206 -0.1764 0.0118, -0.0206 -0.1764 0.0079, -0.0185 -0.1776 0.0118, -0.0185 -0.1776 0.0079, -0.0163 -0.1783 0.0118, -0.0163 -0.1783 0.0079, -0.014 -0.1588 0.0079, -0.014 -0.1588 0.0118, -0.0169 -0.1591 0.0118, -0.0169 -0.1591 0.0079, -0.0192 -0.1599 0.0118, -0.0192 -0.1599 0.0079, -0.0213 -0.1614 0.0118, -0.0213 -0.1614 0.0079, -0.0214 -0.1614 0.0118, -0.0214 -0.1614 0.0079, -0.0227 -0.1629 0.0118, -0.0227 -0.1629 0.0079, -0.0237 -0.1646 0.0118, -0.0237 -0.1646 0.0079, -0.0242 -0.1666 0.0118, -0.0242 -0.1666 0.0079, -0.0085 -0.1588 0.0118, -0.0085 -0.1588 0.0079, -0.0435 -0.1785 0.0118, -0.0435 -0.1785 0.0079, -0.0359 -0.1588 0.0118, -0.0359 -0.1588 0.0079, -0.0332 -0.1588 0.0118, -0.0332 -0.1588 0.0079, -0.0258 -0.1785 0.0118, -0.0258 -0.1785 0.0079, -0.0287 -0.1785 0.0118, -0.0287 -0.1785 0.0079, -0.0305 -0.173 0.0118, -0.0305 -0.173 0.0079, -0.0387 -0.173 0.0118, -0.0387 -0.173 0.0079, -0.0407 -0.1785 0.0118, -0.0407 -0.1785 0.0079, -0.0407 -0.1785 0.0079
            ]
        }
        coordIndex [
            0,1,2,-1,2,1,3,-1,2,3,4,-1,4,3,5,-1,6,4,7,-1,7,4,5,-1,8,9,10,-1,10,9,11,-1,12,13,14,-1,12,14,15,-1,15,14,16,-1,15,16,17,-1,17,16,10,-1,17,10,11,-1,18,19,20,-1,18,20,21,-1,21,20,22,-1,21,22,23,-1,23,22,24,-1,23,24,25,-1,25,24,26,-1,25,26,27,-1,27,26,28,-1,27,28,29,-1,29,28,30,-1,29,30,31,-1,31,30,13,-1,31,13,12,-1,32,33,34,-1,32,34,35,-1,35,34,36,-1,35,36,37,-1,37,36,38,-1,37,38,39,-1,39,38,40,-1,39,40,41,-1,41,40,42,-1,41,42,43,-1,43,42,44,-1,43,44,45,-1,45,44,19,-1,45,19,18,-1,46,47,48,-1,46,48,49,-1,49,48,33,-1,49,33,32,-1,47,46,50,-1,50,46,51,-1,52,53,54,-1,52,54,55,-1,55,54,50,-1,55,50,51,-1,56,57,58,-1,56,58,59,-1,59,58,60,-1,59,60,61,-1,61,60,62,-1,61,62,63,-1,63,62,64,-1,63,64,65,-1,65,64,66,-1,65,66,67,-1,67,66,68,-1,67,68,69,-1,69,68,53,-1,69,53,52,-1,70,71,72,-1,72,71,73,-1,72,73,74,-1,74,73,75,-1,74,75,76,-1,76,75,77,-1,76,77,78,-1,78,77,79,-1,78,79,80,-1,80,79,81,-1,80,81,82,-1,82,81,83,-1,82,83,84,-1,84,83,57,-1,84,57,56,-1,85,9,86,-1,86,9,8,-1,85,86,87,-1,87,86,88,-1,87,88,89,-1,89,88,71,-1,89,71,70,-1,90,91,92,-1,92,91,93,-1,92,93,94,-1,94,93,95,-1,94,95,96,-1,96,95,97,-1,96,97,98,-1,98,97,99,-1,98,99,100,-1,100,99,101,-1,100,101,102,-1,102,101,103,-1,102,103,104,-1,104,103,105,-1,104,105,106,-1,106,105,107,-1,106,107,108,-1,108,107,109,-1,108,109,110,-1,110,109,111,-1,110,111,112,-1,112,111,113,-1,90,112,91,-1,91,112,113,-1,114,115,116,-1,116,115,117,-1,118,119,120,-1,118,120,121,-1,121,120,122,-1,121,122,123,-1,123,122,124,-1,123,124,125,-1,125,124,126,-1,125,126,127,-1,127,126,128,-1,127,128,129,-1,129,128,130,-1,129,130,131,-1,131,130,116,-1,131,116,117,-1,132,133,134,-1,132,134,135,-1,135,134,136,-1,135,136,137,-1,137,136,138,-1,137,138,139,-1,139,138,140,-1,139,140,141,-1,141,140,142,-1,141,142,143,-1,143,142,144,-1,143,144,145,-1,145,144,146,-1,145,146,147,-1,147,146,119,-1,147,119,118,-1,133,132,148,-1,148,132,149,-1,114,148,115,-1,115,148,149,-1,150,151,152,-1,152,151,153,-1,152,153,154,-1,154,153,155,-1,154,155,156,-1,156,155,157,-1,156,157,158,-1,158,157,159,-1,158,159,160,-1,160,159,161,-1,160,161,162,-1,162,161,163,-1,162,163,164,-1,164,163,165,-1,150,164,151,-1,151,164,165,-1,
        ]
    }
}
Shape{
    appearance Appearance {
        material  Material 	{
            diffuseColor 0.10980392156862745 0.10980392156862745 0.10980392156862745
            specularColor 0.0784313725490196 0.0784313725490196 0.0784313725490196
            ambientIntensity 0.2
            transparency 0
            shininess 0.5
        }
    }
    geometry IndexedFaceSet {
        ccw TRUE
        solid FALSE
        coord DEF co Coordinate {
            point [
                -0.0066 -0.1969 0.0079, -0.1969 -0.1969 0.0079, -0.1969 -0.1786 0.0079, -0.0138 -0.1785 0.0079, -0.0085 -0.1785 0.0079, -0.0066 -0.1786 0.0079, -0.0387 -0.173 0.0079, -0.0305 -0.173 0.0079, -0.0287 -0.1785 0.0079, -0.1969 -0.1673 0.0079, -0.0984 -0.1673 0.0079, -0.0435 -0.1785 0.0079, -0.0407 -0.1785 0.0079, -0.0258 -0.1785 0.0079, -0.0233 -0.1731 0.0079, -0.0222 -0.1749 0.0079, -0.0206 -0.1764 0.0079, -0.0185 -0.1776 0.0079, -0.0163 -0.1783 0.0079, -0.0169 -0.1591 0.0079, -0.0066 0.1969 0.0079, -0.014 -0.1588 0.0079, -0.0085 -0.1588 0.0079, -0.0332 -0.1588 0.0079, -0.0227 -0.1629 0.0079, -0.0237 -0.1646 0.0079, -0.1969 0.0787 0.0079, -0.1717 0.0787 0.0079, -0.0359 -0.1588 0.0079, -0.0984 0.152 0.0079, -0.1969 0.1673 0.0079, -0.1969 0.1969 0.0079, -0.0984 0.1673 0.0079, -0.0192 -0.1599 0.0079, -0.0213 -0.1614 0.0079, -0.0214 -0.1614 0.0079, -0.0242 -0.1666 0.0079, -0.0243 -0.1684 0.0079, -0.0241 -0.171 0.0079, 0.0059 -0.1588 0.0079, 0.0098 -0.1753 0.0079, 0.0059 -0.1785 0.0079, 0.0098 -0.1775 0.0079, 0.0119 -0.1783 0.0079, 0.1717 0.0787 0.0079, 0.1969 0.0787 0.0079, 0.0362 -0.1588 0.0079, 0.0138 -0.1786 0.0079, -0.0046 -0.1785 0.0079, -0.0046 -0.1763 0.0079, 0.0984 -0.1673 0.0079, 0.0362 -0.1785 0.0079, 0.0984 -0.152 0.0079, 0.1717 -0.0787 0.0079, 0.1969 -0.0787 0.0079, 0.0984 0.152 0.0079, 0.0984 0.1673 0.0079, 0.1969 0.1969 0.0079, 0.1969 0.1673 0.0079, -0.0042 -0.1588 0.0079, -0.0042 -0.161 0.0079, 0.0234 -0.164 0.0079, 0.0222 -0.1622 0.0079, 0.0335 -0.1588 0.0079, 0.0163 -0.1609 0.0079, 0.0178 -0.1615 0.0079, 0.0101 -0.1755 0.0079, 0.0191 -0.1624 0.0079, 0.0203 -0.1637 0.0079, 0.0218 -0.1689 0.0079, 0.0216 -0.171 0.0079, 0.021 -0.1727 0.0079, 0.0166 -0.1764 0.0079, 0.0148 -0.1766 0.0079, 0.0181 -0.1758 0.0079, 0.0193 -0.175 0.0079, 0.0202 -0.174 0.0079, 0.0122 -0.1763 0.0079, 0.0163 -0.1786 0.0079, 0.0261 -0.1785 0.0079, 0.0176 -0.1785 0.0079, 0.0195 -0.1778 0.0079, 0.0211 -0.1652 0.0079, 0.0217 -0.1673 0.0079, 0.0204 -0.1604 0.0079, -0.0037 -0.1696 0.0079, 0.0033 -0.1696 0.0079, 0.0033 -0.1763 0.0079, 0.0211 -0.1768 0.0079, 0.0226 -0.1753 0.0079, 0.0261 -0.1763 0.0079, 0.0236 -0.1734 0.0079, 0.0335 -0.1763 0.0079, -0.0037 -0.1674 0.0079, 0.0033 -0.1674 0.0079, 0.0033 -0.161 0.0079, 0.0186 -0.1594 0.0079, 0.0164 -0.1587 0.0079, 0.0144 -0.1586 0.0079, 0.0242 -0.1713 0.0079, 0.0244 -0.169 0.0079, 0.0241 -0.1662 0.0079, 0.012 -0.1587 0.0079, 0.0098 -0.1593 0.0079, 0.0098 -0.162 0.0079, 0.012 -0.161 0.0079, 0.0144 -0.1607 0.0079, 0.0146 -0.1787 0.0079, 0.0152 -0.1787 0.0079, 0.1969 -0.1673 0.0079, 0.1969 -0.1786 0.0079, 0.1969 -0.1969 0.0079, -0.0984 -0.152 0.0079, -0.1717 -0.0787 0.0079, -0.1969 -0.0787 0.0079, -0.1969 -0.0787 0.0079
            ]
        }
        coordIndex [
            0,1,2,-1,3,4,5,-1,6,7,8,-1,2,9,10,-1,11,12,5,-1,13,14,15,-1,15,16,13,-1,13,16,17,-1,13,17,18,-1,18,3,13,-1,13,3,5,-1,13,5,8,-1,8,5,12,-1,8,12,6,-1,19,20,21,-1,21,20,22,-1,23,24,25,-1,26,27,28,-1,28,27,29,-1,30,31,32,-1,32,31,20,-1,32,20,29,-1,29,20,23,-1,29,23,28,-1,19,33,20,-1,20,33,34,-1,20,34,23,-1,23,34,35,-1,23,35,24,-1,25,36,23,-1,23,36,37,-1,23,37,13,-1,13,37,38,-1,13,38,14,-1,39,40,41,-1,41,40,42,-1,41,42,43,-1,44,45,46,-1,43,47,41,-1,41,47,5,-1,41,5,48,-1,48,5,49,-1,50,51,52,-1,52,51,46,-1,52,46,53,-1,53,46,45,-1,53,45,54,-1,55,20,56,-1,56,20,57,-1,56,57,58,-1,59,60,5,-1,61,62,63,-1,64,65,66,-1,66,65,67,-1,66,67,68,-1,69,70,66,-1,66,70,71,-1,72,73,74,-1,74,73,75,-1,71,76,66,-1,66,76,75,-1,66,75,77,-1,77,75,73,-1,51,78,79,-1,79,78,80,-1,79,80,81,-1,68,82,66,-1,66,82,83,-1,66,83,69,-1,44,46,55,-1,55,46,63,-1,55,63,20,-1,20,63,62,-1,20,62,84,-1,4,22,5,-1,5,22,20,-1,5,20,59,-1,59,20,39,-1,85,86,87,-1,81,88,79,-1,79,88,89,-1,79,89,90,-1,90,89,91,-1,90,91,92,-1,87,49,85,-1,85,49,5,-1,85,5,93,-1,93,5,60,-1,93,60,94,-1,94,60,95,-1,84,96,20,-1,20,96,97,-1,20,97,98,-1,91,99,92,-1,92,99,100,-1,92,100,63,-1,63,100,101,-1,63,101,61,-1,98,102,20,-1,20,102,103,-1,20,103,39,-1,39,103,104,-1,39,104,40,-1,40,104,105,-1,40,105,66,-1,66,105,106,-1,66,106,64,-1,47,107,0,-1,0,107,108,-1,0,108,78,-1,50,109,51,-1,51,109,110,-1,51,110,78,-1,78,110,111,-1,78,111,0,-1,47,0,5,-1,5,0,2,-1,5,2,11,-1,11,2,10,-1,11,10,28,-1,28,10,112,-1,28,112,26,-1,26,112,113,-1,26,113,114,-1,
        ]
    }
}
Shape{
    appearance Appearance {
        material  Material 	{
            diffuseColor 0.9686274509803922 0.8784313725490196 0.6
            specularColor 0.6784313725490196 0.615686274509804 0.4196078431372549
            ambientIntensity 0.2
            transparency 0
            shininess 0.5
        }
    }
    geometry IndexedFaceSet {
        ccw TRUE
        solid FALSE
        coord DEF co Coordinate {
            point [
                -0.0766 0.0626 0.0531, -0.0766 0.0626 0.0, -0.0722 0.057 0.0531, -0.0722 0.057 0.0, -0.0692 0.0505 0.0531, -0.0692 0.0505 0.0, -0.068 0.0435 0.0531, -0.068 0.0435 0.0, -0.0684 0.0364 0.0531, -0.0684 0.0364 0.0, -0.0705 0.0296 0.0531, -0.0705 0.0296 0.0, -0.0742 0.0235 0.0531, -0.0742 0.0235 0.0, -0.0792 0.0185 0.0531, -0.0792 0.0185 0.0, -0.0853 0.0148 0.0531, -0.0853 0.0148 0.0, -0.0921 0.0127 0.0531, -0.0921 0.0127 0.0, -0.0992 0.0123 0.0531, -0.0992 0.0123 0.0, -0.1062 0.0136 0.0531, -0.1062 0.0136 0.0, -0.1127 0.0165 0.0531, -0.1127 0.0165 0.0, -0.1183 0.0209 0.0531, -0.1183 0.0209 0.0, -0.1392 -0.0 0.0531, -0.1392 -0.0 0.0, 0.0 -0.1392 0.0531, 0.0 -0.1392 -0.0, 0.1392 0.0 0.0531, 0.1392 0.0 0.0, -0.0 0.1392 0.0531, -0.0 0.1392 0.0, -0.0 0.1392 0.0
            ]
        }
        coordIndex [
            0,1,2,-1,2,1,3,-1,2,3,4,-1,4,3,5,-1,4,5,6,-1,6,5,7,-1,6,7,8,-1,8,7,9,-1,8,9,10,-1,10,9,11,-1,10,11,12,-1,12,11,13,-1,12,13,14,-1,14,13,15,-1,14,15,16,-1,16,15,17,-1,16,17,18,-1,18,17,19,-1,18,19,20,-1,20,19,21,-1,20,21,22,-1,22,21,23,-1,22,23,24,-1,24,23,25,-1,24,25,26,-1,26,25,27,-1,28,26,29,-1,29,26,27,-1,30,28,31,-1,31,28,29,-1,32,30,33,-1,33,30,31,-1,34,32,35,-1,35,32,33,-1,0,34,1,-1,1,34,35,-1,24,26,28,-1,34,0,2,-1,34,2,32,-1,32,2,4,-1,32,4,6,-1,30,14,16,-1,6,8,32,-1,32,8,10,-1,32,10,30,-1,30,10,12,-1,30,12,14,-1,16,18,30,-1,30,18,20,-1,30,20,28,-1,28,20,22,-1,28,22,24,-1,31,19,17,-1,9,7,33,-1,33,7,5,-1,33,5,35,-1,35,5,3,-1,35,3,1,-1,17,15,31,-1,31,15,13,-1,31,13,33,-1,33,13,11,-1,33,11,9,-1,27,25,29,-1,29,25,23,-1,29,23,31,-1,31,23,21,-1,31,21,19,-1,
        ]
    }
}